<?xml version="1.0" encoding="UTF-8"?><svg id="Layer_2" xmlns="http://www.w3.org/2000/svg" viewBox="0 0 1336.8 495.58"><g id="Layer_1-2"><path d="M299.45,469.67c-3.01,7.84-12.53,12.47-19.31,15.93-17.33,8.84-36.04,10-55.26,9.98-20.52-.02-40.22-3.49-57.25-14.67-12.92-8.48-19.36-23.19-14.87-38.38,4.1-13.89,11.21-26.1,18.31-38.8l36.96-66.12c-46.14-1.7-86.07,1.28-131.3,8.57-6.67,1.86-13.3,3.4-19.64,5.52-14.79,4.97-29.21.82-39.15-11.03S.62,314.31.04,298.03c-.48-13.42,3.58-25.54,12.85-35.11,8.12-8.38,16.12-16.05,25.11-23.77l68.32-58.65,134.72-114.58c24.03-20.44,25.97-23.31,57.4-37.85,17.46-8.08,35.54-9.25,40.4-9.69,21.3-1.94,41.02-1.7,61.95.29,26.74,2.54,43.2,14.33,50.46,18.92,8.29,5.24,9.47,14.39,5.11,22.16-13.58,24.22-25.29,48.2-35.22,74.36l-53.82,136.32c22.91-.52,51.16-9.75,65.43-28.25,2.35-3.04,2.65-7.3,3.02-11.62.99-11.52,44.14-2.65,52.86,26.19,8.18,27.05-2.96,54.71-27.05,69.55-36.47,21.77-76.74,18.14-118.9,16.93l-20.34,51.07c-9.82,24.67-16.32,49.23-22.92,75.39ZM238.42,275.29l60.03-141.05-129.96,102.77-46.44,37.18,116.36,1.1Z"/><path d="M505.05,425.02c-7.88,3.01-20.06-16.79-14.94-37.78,6.17-25.32,36.7-32.14,59.53-34.86,22.62-2.7,44.91-3.9,67.5-5.01.97-5.6,1.76-10.68,4.07-15.8l53.53-118.71,28.27-57.82c-35.67,23.77-82.59,53.19-126.32,51.49-17.62-.69-34.4-7.48-45-21.98-11.93-16.31-11.18-39.18,1.06-55.12,2.64-3.44,8.95-8.49,13.04-6.73,13.01,5.61,25.34,8.88,39.69,7.92,14.42-.96,28.56-3.61,42.21-8.5,49.67-17.8,94.25-51.87,133.15-87.13,8.81-7.99,19.74-13.64,31.94-16.47,15.74-3.64,30.37-3.64,46.6-.07,15.02,3.31,44.5,14.76,38.54,36.15-4.09,14.67-9.06,28.46-14.89,42.5l-17.85,42.98-52.73,129.13c-6.53,15.99-10.78,31.83-14.71,48.42-2.3,9.72-1.98,19.59.86,29l72.71-.05c10.23,0,19.34-2.18,29.48-3.84,2.41-.36,6.17,4.14,7.32,6.59,6.04,12.78,4.71,27.76-3.48,39.35-7.67,10.86-20.17,16.65-34.56,16.68l-180.95.3c-41.47.07-81.84,2.69-122.82,8.36-14.63,2.02-27.59,5.78-41.26,11Z"/><path d="M949.99,409.24c-7.88,3.01-20.06-16.79-14.94-37.78,6.17-25.32,36.7-32.14,59.53-34.86,22.62-2.7,44.91-3.9,67.5-5.01.97-5.6,1.76-10.68,4.07-15.8l53.53-118.71,28.27-57.82c-35.67,23.77-82.59,53.19-126.32,51.49-17.62-.69-34.4-7.48-45-21.98-11.93-16.31-11.18-39.18,1.06-55.12,2.64-3.44,8.95-8.49,13.04-6.73,13.01,5.61,25.34,8.88,39.69,7.92,14.42-.96,28.56-3.61,42.21-8.5,49.67-17.8,94.25-51.87,133.15-87.13,8.81-7.99,19.74-13.64,31.94-16.47,15.74-3.64,30.37-3.64,46.6-.07,15.02,3.31,44.5,14.76,38.54,36.15-4.09,14.67-9.06,28.46-14.89,42.5l-17.85,42.98-52.73,129.13c-6.53,15.99-10.78,31.83-14.71,48.42-2.3,9.72-1.98,19.59.86,29l72.71-.05c10.23,0,19.34-2.18,29.48-3.84,2.41-.36,6.17,4.14,7.32,6.59,6.04,12.78,4.71,27.76-3.48,39.35-7.67,10.86-20.17,16.65-34.56,16.68l-180.95.3c-41.47.07-81.84,2.69-122.82,8.36-14.63,2.02-27.59,5.78-41.26,11Z"/></g></svg>