<?xml version="1.0" encoding="UTF-8"?><svg id="Layer_2" xmlns="http://www.w3.org/2000/svg" viewBox="0 0 254.56 847"><g id="Layer_1-2" fill="#e43122"><path d="M147.77,722.71c-1.43,21.85,6.89,25.26-.26,46.47-1.03,3.05-4.9,2.5-6.72,2.26-9.32-1.22-5.61-26.42-4.3-33.79.39-2.21,2.85-37.29-8.41-31.83l-3.42-10.79c-.42-1.33-1.09-2.46-2.31-2.61-7.88-.96-5.28,23.83-5.93,29-1.45,11.48-2.41,29.71-1.26,41.05l2.41,23.81c.53,5.21,1.89,10.49,1.92,15.83l.17,27.45c.02,3.42-2.57,16.11-8.41,17.28-8.56,1.71-11.43-9.9-13.56-15.64-.96-2.59-1.89-4.84-1.84-7.92l.22-13.44,3.13-23.87c1.72-13.17.76-26.31-.24-39.58l-2.99-39.68c-.56-7.37-1.2-13.73-5.04-20.28-10.3-17.6-19.34,1.4-29.9-12.19-7.97-10.26-14.7-7.64-27.38-8.83l-13.57-1.27c-5.57-.52-11.66-2.76-16.05-5.89-5.67-4.04-5.06-12.12.03-15.91,8.55-6.37,21.37-9.39,32.11-10.61,4.29-.49,8.53-2.15,12.46-3.25,4.4-1.23,5.48-4.43,6.79-8.2,1.18-3.4,5.66-6.24,9.2-6.6l10.1-1.04,24.73-.38c1.47-14.77-1.72-28.75-2.06-43.43l-.31-13.69-.04-73.17c0-9.35,1.18-17.98.74-27.33-.52-10.87.87-21.8-.63-32.22-14.34-8.16-4.05-18.58-1.66-32.33,4.71-27.08-6.26-37.74,3.37-55.38,2.24-4.1,8.1-6.29,12.53-4.72,8.22,2.9,13.91,9.12,18.2,7.71,3.72-1.22,3.1-14.62-6.68-23.13s-1.45-9.98-3.83-18.88c.46-1.29,1.21-1.25,1.96.02,1.4,1.61,2.74.39,1.15-1.2-.96-1.46-.33-2.93,1.29-1.72.61,1.17.37,3.97,1.91,3.97,2.23,0,3.29-2.25,4.51-2.87,2.56,1.07,1.07,3.69,1.93,5.54,8.96,19.29,7.93,16.09,6.27,38.56,2.21,3.69,7.75,1.27,11.28,1.4,8.32.31,15.81,8.77,15.86,17.18l.41,65.86c.1,16.72,14.45,32.65,5.4,44.37-1.83,2.37-6.22,2.36-9.2,3.16-.96,6.05.58,11.92.75,18.17l.93,34.72.43,31.12.9,31.46.67,26.98c7.44,1.53,14.65,4.9,22.31,5.65,15.56,1.52,41.89-1.7,52.31,2.47,4.25,1.7,9.5,3.71,11.52,8.3,3.15,7.14-8.37,10.88-4.87,13.66,9.28,7.36,8.16,18.97,7.02,29.41-1.46,13.51-1.19,19.17-2.5,32.28l-1.36,13.53c-1.02,10.18,1.1,19.87,1.88,29.88l.98,12.57c1.29,16.62,2.98,19.81-.97,35.66-.47,1.89-4.99,4.01-7.03,3.42-11.82-3.41-7.62-27.88-6.17-38,1.34-9.3,1.53-18.08,1.46-27.36l-.19-24.83c-.06-8.35-.13-36.79-4.41-41.79-3.93-4.58-8.75,17.01-5.75,28.28,1.87,7.02,1.43,13.7,1.45,20.93.01,4.9.88,9.12-1.59,13.61-1.49,2.71-3,4.71-5.49,5.01-3.63.44-6.05-.67-8.04-3.88-7.6-12.29,7.57-41.01-1.53-52.89-2.04-2.67-10.14,7.11-18.51,9.4s-13.32-2.57-22.24-2.4c-4.15.08-9.11-2.69-13.33-.74-11.92,5.51-11.9,26.15-12.68,38.1ZM130.61,349.35c2.34-.36,2.09-3.81,1.78-5.25-.49-2.27-2.97-2.76-5.38-2.94-8.48-.64-18.09-9.73-19.14-3.78-.94,5.34,4.33,3.13,14.69,8.76,2.35,1.28,4.84,3.71,8.05,3.21ZM160.28,633.91c-.12-7.63.37-14.57-.3-21.57-.41-4.23-.9-8.13-.9-12.52l.04-62.05-1.04-19.79-.65-27.31.26-21.13.46-14.93c2.72,2.16,1.38,4.91,2.39,7.19,1.41.8,2.3-1,3.39-2.24l2.89,3.98c3.48-4.19,2.45-9.23.56-13.8-7.36-17.74-8.72-47.37-7.7-66.49l.95-17.93c.28-5.22.38-10.23-3.25-14.48-2.69,1-3.96,4.48-6.74,5.82-11.63,5.62-25.1-4.18-33.01-8.2-4.19-2.13-6.05,1.51-15.16-7.68-1.59,3.13-1.72,6.24-1.78,9.71-.22,12.94.77,25.45-.37,38.37-.77,8.72-8.3,22.89-4.01,28.14.72.89,2.42.52,3.13-.11,2.82-2.49-.31-8.62,2.95-9.85,2.61,4.73-.43,9.31-.44,14.1l-.14,63.21-.85,6.29.04,53.3.91,6.25c-.86-5.96.9,37.41.9,37.41l.62,19.71c.29,9.2-.69,17.93,0,26.88l4.7-.62c13.38-1.78,27.37,17.7,46.57,5.28,1.81-1.17,5.66-1.31,5.6-4.95ZM153.24,347.57c1.24-4.37-13.35-4.02-17.23-4.47-1.38,2.73-1.85,5.4-2.47,8.05,6.57,4.7,18.4,1.01,19.7-3.57ZM213.06,673.14c5.79.64,6.88,10.4,6.72,16.16-.15,5.39.78,10.57-.18,15.83-1.37,7.5-4.47,22.11,1.07,26.72,1.14.95,2.98.8,4.1.11,5.07-3.09,4-23.28,2.05-31.4-2.4-9.97-2.82-26.98,4.53-34.72.81-.86,3.16-2.25,4.32-1.87,3.75,1.21,4.88,5.42,5.46,9.14.8,5.21,1.57,10.18,1.68,15.44l.72,36.57c.28,14.11-1.2,27.36-1.81,41.27l-.81,18.43c-.21,4.69,1.06,10.69,5.62,10.15s4.57-18.74,4.02-23.9l-1.82-17.39-1.23-12.41c-1.28-12.88.06-25.43.74-38.36l.85-16.17c.55-10.45,1.5-20.63,0-31.11-.98-6.86-11.13-13-10.49-15.13.41-1.36,7.13-4.35,7.88-8.57.6-3.38-3.13-5.8-6-6.81-21.17-7.39-40,2.86-63.6-3.65-4.03-1.11-7.14-3.67-11.41-4.08-.58,5.4-.63,10.35.04,15.56,1.99.67,3.56-.38,5.24,1.8-10.68,9.52-11.85,3.88-20.42,11.12-1.84,1.56-4.89.64-6.94,1.41-7.69,2.91-20.58-4.04-27.97-7.34-3.14-1.4-19.03-1.05-21.01-2.2,7.13-2.02,4.77-13.16,5.07-20.36l-24.87-.2c-5.75-.05-15.14.67-15.66,7.55-1.24,16.48-44.12,7.56-53.16,23.88-5.01,9.04,17.92,12.02,20.44,11.98,7.23-.12,14.2.4,21.29,1.09,14.08,1.38,15.48,13.23,22.27,13.25,5.97.01,12.59-2.44,18.07,1.31,3.67,2.51,7.5,12.04,9.58,16.02,2.35,4.51,2.72,22.98,3.32,30.45l1.88,23.55c1.62,20.27,1.05,39.78-2.29,59.81-1.63,9.79-.02,36.78,9.02,37.42,3.73.27,5.04-5.32,5.72-7.97,3.27-12.68,1.72-25.37.36-38.3l-1.8-17.18-2.24-22.52c-.78-7.81.32-50.03,2.22-55.54l2.79-8.08c1.06-3.08,2.16-5.15,5.04-5.68,7.07-1.29,5.66,10.23,10.46,13.05,2.87,1.69,5.27,2.91,5.92,6.62.47,2.66,2.27,5.57,1.8,8.58-1.25,8,.41,15.71-.37,23.59-.89,8.99-3.3,17.74-.16,26.3.54,1.47,3.81,1.27,4.88.51.98-.69,4.84-8.92,3.41-14.33-2.79-10.53-3.35-22.48-2.35-33.54,1.25-13.9-1.12-27.14,11-37.67,6.43-5.58,13.1-1.6,22.48-.18,5.74.87,11.63,3.5,17.5,1.3,7.29-2.72,16.62-9.39,17.05-9.34Z"/><path d="M144.5,159.3c6.28-7.97,1.73-11.83,3.93-12.31,2.71-.59,1.97,8.31,2.49,9.37,1.04-.88,2.22-1.2,2.92-2.56.23.68,1.12.75,1.11,1.28-.03.99-5.5,9.52-8.63,10.39-.72-1.79,1.2-1.97,1.6-3.41-2.99-.24-4.66,1.94-7.1,2.57-10.38,2.65-21.23-3.15-25.19-12.68-2.05-4.95-.39-8.51.46-12.95,1.37-7.15,4.44-12.94,11.02-16.84,8.21-4.86,19.38-9.68,29.5-7.45l8.65,1.91-6.05-3.63c-2.42-1.45-5.96-1.47-8.89-1.8l-9.97-1.12c-3.31-.37-7.12,1.53-10.51,2.53-14.5,4.26-21.14,16.46-27.35,28.33-1.18-4.29,1.57-7.12,2.85-10.4,1.89-4.84,4.92-7.97,8.53-11.34,12.16-11.37,31.71-14.13,46.66-7.3,12.35,5.65,5.67,3.76,17.75,9.59,8.87-14.43-.33-14.39,4.07-24.45,1.6-3.66-.64-6.91-1.59-10.19-1.06-3.66-.99-7-3.82-10.04-2.34-2.51-4.1-5.88-6.73-8.24-6.91-6.22-12.85-12.92-16.94-21.54-.61-1.29.46-3.35-2.15-3.99-2.23,10.24,4.75,24.45,12.27,31.39l5.75,5.31c1.86,1.72,3.6,4.04,4.63,7.44-6.86-6.22-14.15-12.5-19.52-20.82-2.87-4.46-4.17-13.06-6.2-18.74-1.86-5.2,1.12-10.2,1.59-15.17.69-7.26,1.93-18.02,6.32-23.79,2.02-2.66,2.13-6.35,5.93-8.62,3.43,3.88-4.49,17.06-6.81,21-1.41,2.39-.74,5.33-1.33,7.96-1.61,7.09-.73,13.78,2.9,20,7.21,12.37,22.92,25.01,24.86,32.01,2.35,8.44,3.47,24.1,2.2,29.9l-2.48,11.26c-.73,3.32,7.09,5.24,3.21,7.94,8.09,17.43,10.82,22.32,9.09,42.92-1.11,13.27-6.8,25.64-14.1,36.29-8.65,12.62-25.56,23.36-38.48,31.41l-9.07,5.65c-9.27,5.77-12.62,11.74-16.27,20.81-5.12,12.68,3.82,24.43.63,24.56-2.77.12-10.71-17.49.63-35.37,5.05-7.96,14.68-13.95,22.96-18.42,3.61-1.95,22.11-15.17,26.06-18.48,11.63-9.72,24.48-31.61,25.15-46.63,1.23-27.6,1.26-21.7-8.63-39.52-1.6-2.89-9.5-11.24-13.98-12.75-4.33-1.46-8.37-1.77-12.37-4.12-5.18-3.05-20.1,4.1-25.01,6.31-4.74,2.13-7.73,4.84-10.02,9.75-5.13,11.02-7.37,16.2,2.21,26.5,2.09,2.25,15.82,7.17,21.23.31Z"/><path d="M121.62,281.81c-.9.55-1.8-.82-2.48-2.07.74-5.04-.25-10.79,2.54-15.28,10.75-17.32,30.13-21.12,48.02-28.93,3.27-1.43,6.15-3.74,9.29-5.31,8.3-4.17,14.66-9.89,20.19-17.11s12.27-18.59,12.44-27.72c.2-10.72.22-19.16-5.19-28.95-6.78-12.26-.43-4.9-11.8-17.83-1.94-2.2-5.2-2.94-5.3-6.59,7.5,2.8,21.28,25.37,23.08,32.49,3.41,13.49,3.12,23.11-2.03,35.78-2.2,5.41-4.29,10.13-8.19,14.56-4.19,4.76-8.11,9.17-13.6,12.53-3.48,2.13-6.35,5.26-10.24,6.96-7.08,3.1-13.88,6.18-21.01,9.18l-14.47,6.07c-3.2,1.34-5.36,2.55-7.84,4.94-9.8,9.47-12.12,8.73-13.41,27.28Z"/><path d="M142.96,168.25c1.05.86-14.06,4.76-10.39,4.2-14.35,2.18-16.61-3.25-22.89-8.37-2.74-2.23-10.5-14.63-7.06-17.29,1.26,7.55,9.62,19.67,14.83,21.57,9.84,3.59,15.67,3.12,24.3-1.6,1.95-.38,3.22.64,1.21,1.48Z"/><path d="M139.31,148.73c1.27-1.43,2.11-2.29,3.2-3.13.76,1.63.78,3.38-.21,3.73s-2.98.24-2.98-.6Z"/><path d="M126.83,392.69c3.6-2.55,2.35,16.08,2.38,19.82.02,3.02-2.53,7.61-5.83,6.66-8.23-2.39-4.72-18.44-5.35-30.33-.27-5.12.84-9.77.95-14.7.07-2.94-1.47-5.67-.94-8.87.79-4.77-2.07-8.84-6.03-10.79-1.91.69-2.73,2.42-4.98,2.1-.45-2.81,1.59-3.44,3.07-3.87,2.18-.63,3.34.85,4.89,1.84,5.06,3.23,5.4,7.78,5.71,13.34.49,8.83,1.2,17.16-.09,26.09-.3,2.05-1.17,20.49,3.31,21.7,3.9-3.62,2.52-16.64,2.91-22.98Z"/><path d="M108.04,614.08c.96-4.09-.91-7.19-.95-10.51l-.48-34.66c-.12-8.59-2.3-8.01,0-24.94,1.12-8.24-1.61-26.08,2.86-24.72-.55,8.45.61,16.38-.39,24.73-2.19,18.36-.14,15.24,0,24.93l.55,38.15c.03,2.13,1.46,4.13,1.1,6.97.2,2.82-2.95,2.76-2.7.06Z"/><path d="M109.43,442.85v33.49c.39,2.72-2.93,2.69-2.55,0l.08-36.5c1.26.18,2.47,1.16,2.47,3.01Z"/><path d="M164.02,454.21c-1.17.87-1.96-.84-2.51-1.87l-3.3-13.06c-1.06-4.22-2.7-8.14-1.07-12,2.72,11.84,6.13,15,6.88,26.93Z"/><path d="M156.27,412.28l-2.25-8.71c.39-7.75-.58-14.95.56-22.2,3.09,10.33,1.97,20.41,1.69,30.91Z"/><path d="M153.48,603.68c-1.07-15.5-1.03-31.01-.03-47.32,1.07,15.5,1.03,31.01.03,47.32Z"/><path d="M116.6,627.01c-2.32-3.16-.23-6.33-1.1-9.76-.45-4.33-3.37-9.07.66-13.43,1.41,8.35.59,15.31.44,23.19Z"/><path d="M147.33,365.53c1.64,1.99-1.5,2.36-3.12,2.22-2.2-.19-4.03.52-3.82-2.77,1.81-.23,5.29-1.44,6.93.55Z"/><path d="M116.25,576.41c-1.08-7.29-1.04-14.57-.04-22.57,1.08,7.29,1.04,14.57.04,22.57Z"/><path d="M152.26,539.18c-1.12-4.39-1.04-8.83-.07-13.89,1.12,4.39,1.04,8.83.07,13.89Z"/><path d="M137.67,666.72c-11.27,5.28-28.66,16.27-39.48,1.53-2.81-3.84-4.18-9.67-9.25-11.34-5.59-1.84-12.01-.4-17.94-1.55l-16.27-3.16c-2.88-.56-6.59-2.26-7.22-5.27-1.38-6.59,13.3-12.54,18.54-13.31-4.18,4.96-14.37,6.65-15.02,11.46-.79,5.88,20.12,6.84,24.93,7,4.54.15,8.87.9,13.15,1.5,10.43,1.46,8.21,21.56,30.01,17.55,6.2-1.14,11.02-5.23,18.56-4.41Z"/><path d="M221.69,639.9c-2.12,1.67-3.83.56-2.32-1.56,12.03-11.34-35.43-6.02-35.55-12.15,3.71-1.31,6.64.69,10.04.86,7.52.39,25.46-1.09,29.09,5.22,1.25,2.17,1.57,5.54-1.26,7.63Z"/><path d="M105.59,819.61c.39,16.25,5.61,15.34,4.72,16.61-.43.6-1.15,1.24-1.65,1.59-.72.5-2-.38-2.67-1.26-7.3-9.61-3.6-21.83-.76-32.06l.36,15.13Z"/><path d="M225.9,653.84c-7.78,8.55-21.6,12.05-33.47,10.11,8.54-2.97,19.56-3.87,28.15-8.56,1.68-.92,2.93-2.76,5.32-1.55Z"/><path d="M14.28,651.32c10.26,8.24,27.45,1.1,28.11,6.86-6.32.04-39.66.82-29.81-12.63,2.07,1.57.54,4.09,1.7,5.77Z"/><path d="M103.85,718.91c-1.75-4.16-.1-8.58-.83-13.49l-1.13-7.6-6.4-17.91c8.52-.51,10.31,30.87,8.35,38.99Z"/><path d="M160.23,649.03c-3.47,1.42-6.05,3.87-10.01,2.68,13.09-10.24,14.83-1.03,26.65-12.45,2.37,3.27-.89,6.83-4.38,7.83-3.9,1.12-8.03.22-12.26,1.94Z"/><path d="M196.22,676.05c-6.25,4.53-10.73.62-18.58.65.1-5.71,10.68-.33,18.58-.65Z"/></g></svg>