<?xml version="1.0" encoding="UTF-8"?><svg id="Layer_2" xmlns="http://www.w3.org/2000/svg" viewBox="0 0 316.19 190.17"><g id="OpenNoTape"><path d="M311.98,172.43c-.61,2.7-3.06,10.3-4.81,12.24-1.49,1.65-4.14,2.36-6.48,2.36l-31.62-.07c-2.6,0-3.53,3.08-5.52,3.08l-39.19-.02-49.67.1h-30.72s-87.22.07-87.22.07c-4.98,0-3.95-3.44-7.55-3.36l-4.61.11-26.02.26c-1.74.02-3.33-.39-4.91-.8-3.57-.92-5.08-3.7-6.46-6.87-1.72-3.98-3.04-7.89-4-12.12-1.2-5.32.26-4.85-1.67-7.38C.79,159.03,0,157.91,0,156.57l.04-14.58.21-16.5c.04-2.93,1.14-5.55,3.12-7.7.2-3.02-.05-5.9-.01-8.94l.15-14.57.18-29.11.24-29.13.28-24.51c.07-5.81,4.27-9.99,10.2-10.7l5.59-.67c2.86-.34,5.64,0,8.55,0l24.49.09,3.18.05c.92.01,12.58,0,12.55,0,2.19-.22,4.23.03,6.45.05l20.58.18,10.55.04c1.87,0,3.66,0,5.51-.02l10.19-.08,174.46-.03c5.42.37,11.6.63,14.32,5.75.87,1.64,1.29,3.79,1.31,5.73l.1,11.07c.03,3.05.27,5.99.14,9.02-.09,2.07-.03,4-.03,6.06l.02,14.75.28,39.45.13,25.07c0,1.5,2.92,1.38,2.99,9.13l.09,10.09.31,17.47c.05,2.83-.76,5.35-2.69,7.52.6,2.54-.12,4.71-.66,7.1l-.86,3.77Z"/><path d="M266.71,155.04c-.32-.64-1.38-5.76-2.36-8.14-.91-2.23-1.38-4.37-2.06-6.63.07.22-2.86-7.21-1.45-6.83.7,3.26,1.73,6.43,3.07,9.72.47,1.15.48,2.34.83,3.48l5.31,17.34c.59,1.93,1.23,3.63,1.63,5.69.98-.22,1.85-.1,2.92-.09l23.08.11c5.65.03,10.18,1.16,13.41-3.82.69-1.06.51-2.11.49-3.3l-.28-18.57-.22-15.58-.14-19.07-.3-14.04c-.06-2.55,0-4.96-.04-7.54l-.13-9.56c-.04-2.54-.03-4.99-.05-7.52l-.07-8.54v-5.58s-.17-23.95-.17-23.95l-.02-4.42-.21-16.2c-.07-5.62-4.45-9.06-9.74-8.73s-10.58.05-16.11.04l-57.16-.13-34.16-.08-40.66-.04-17.5-.03h-6.2c-1.29,0-2.62,0-3.97-.01l-7.54-.07-42.59.04-5.42.13-34.2-.04-16.85-.05c-4.66-.01-10.02,1.02-11.01,6.46l-.54,2.95.02,9.07-.19,20.58-.18,16.05-.08,5.03c-.06,4.08.03,7.99-.24,12.03-.13,1.91-.11,3.65,0,5.56.18,3.02,0,5.93-.05,8.93l-.05,3.28-.15,6.84-.09,6.03c-.05,3.19-.16,6.22-.2,9.36l-.24,17.25-.05,15.56-.22,13.56c-.08,4.8,1.35,6.56,6.4,8.13,1.16.36,1.88.11,3.04.1l33.16-.2c1.42-2.76,2.06-5.7,2.95-8.66l2.89-9.57,2.68-9.06,2.36-7.64c1.25-4.03,4.49-6.17,8.64-6.22l10.06-.13,36.13-.1,15.61-.13,40.68-.06h63.19s16.11.16,16.11.16c1.51.02,2.99.35,4.53.31,5.33-.14,6.64,8.42,7.68,11.19l1.63,4.37,1.97,6.6c1.15,3.86,2.3,7.24,3.73,10.97.96,2.52,1.1,5.24,2.41,7.75.6.32.89,0,.57-.62-1.85-4.1-2.28-9.7-4.26-13.72Z" fill="#fff"/><path d="M312.87,120.85c-.21,1.22-.25,2.16.05,3.05,1.65,2.49-.25-5.25-.05-3.05Z"/><path d="M2.96,158.44c.06-6.14-.13-9.31-.13-14.54v-22.05c-.95,1.87-.08,3.69-.44,5.56.06.72-.48,1.3-.47,2.04l.05,27.91c.45.27.31,1.3.99,1.08Z" fill="#fff"/><path d="M313.72,143.99l.11-8.53c.02-1.59.11-10.79-.49-11.09l-.06,34.19c1.51.32.94-11.31.94-12.97,0-.53-.51-1.02-.5-1.59Z" fill="#fff"/><path d="M251.19,164.69l12.8.19c.83.01,1.98.29,2.62-.45l-2.41-7.88-3.69-11.95c-1.25-4.06-2.18-7.95-3.6-11.99-.28-.81-1.68-2.23-2.53-2.4-1.73-.35-3.5-.25-5.49-.25l-93.22-.15-22.18.1-19.56.1-5.55-.02-43.56.02c-2.75,0-4.77,2.32-5.41,4.76l-1.15,4.41-2.3,8.26-4.01,13.53c-.47,1.57-1.15,2.91-1.12,4.67,1.54-.5,3.09-.8,4.84-.81l24.14-.11,48.16-.11,29.65-.02,30.17-.07h19.57s43.85.16,43.85.16Z" fill="#fff"/><path d="M30.3,183.79c2.4-.35,4.25.08,6.28.17,1.64.07,3.3-.41,5.01-.18,1.37.18,2.6.36,4.01.44.75.04,1.17,1.06,2,1.05,1.5,0,3-.38,4.35.27,1.26.61,1.92,2.1,3.28,2.62,1.11.43,2.29.02,3.47.02l36.13.05,39.18-.02,48.67-.03,38.69.02,36.11-.08c2.02,0,4.15.31,6.13,0,1.33-1.15,2.54-3.02,4.62-3.08l6.36-.18c2.59-.07,4.93-.3,7.53.09.56.08,1.08-.31,1.03-.76l-12.12-.3c4.81-.61,9.17-.07,14.11-.16l7.13-.14c.56.19.43.5-.17.61-.3-.08-.59-.02-1.1-.08-1.13-.04-.98.75.06.87,4.38-.15,12.94,1.61,14.99-2.58.24-.5,1.12-.62,1.25-1.34.4-2.1,1.94-2.57.74-2.97-1.09-.37-1.38,3.25-6.45,2.58-1.02-.07-1.04-.63,0-.56,1.47.06,2.77.12,3.68-.87-2.13-.22-3.74-.18-5.6-.15l-8.03.12-20.06-.22c-2.05-.02-3.97-.24-5.96.21l-1.13,5.12c-.17.77-.89,2.21-1.8,2.32l-3.7.47-33.59.04c-1.05,0-1.93-.3-2.86-.37-2.5-.21-.04-4.71-1.43-6.71-.55.96-.21,1.92-.31,3.05-.75.23-1.23-.21-.87-.79,1.4-2.3-.04-4.08.47-6.2.33-1.38.42-2.58.62-4.09,1.05,1.81-.55,4.18.52,8.42.95-3.51.7-6.85,1.37-10.37.75-3.95,6.59-2.82,6.36-2.93,2.25,1.11,3.33-.63,9.14.04,1.17.13,9.07-.34,13.06,0,1.71.15,3.22.43,5.04.39l7.62-.16c.71,1.4,2.22,2.41,2.57,3.69.19,2.3-.68,4.17-.86,6.92,7.3-.34,14.41-.23,21.78-.24h15.11c2.14-.02,5.23-.37,6.38-2.33s1.27-4.2,1.7-6.65c-2.19,1.85-3.87,3.08-6.59,3.04l-12.27-.17-12.35-.09c-3.68-.03-7.17.05-10.71-.29l-1.21-3.21c-.42-1.12-1.38-1.7-2.63-1.74l-5.43-.19-3.64.41-28.07-.06-6.06-.09-21.07.07-6.53-.03h-13.6s-43.09.01-43.09.01l-11.17.04-68.64.04c-2.38,0-4.39-.35-6.62.31-1.95.58-1.4,4.54-4.5,4.58l-11.04.12c-4.05.04-7.9-.17-11.86.02-3.73.17-7.32-.19-10.92.23.06.59-.17.83-.91.62-1.09-.22-1.17.68-.11.67.95.15,1.65.47,2.3.72-2.03,1.57-2.96-.41-4.13-1.03s-2.64-.49-3.29-1.82c-.57.93.16,1.49.82,1.57,1.15.12,1.78.91,2.69,1.33,1.86.86,3.8,1.05,5.86,1.87-.21.69-.61.04-1.1.05-.92.12-1.66.11-2.63-.22-.97-.05-1,.64.02.51,1.35.97,2.61.76,4.18.46-.11.85-.87.82-1.62.53-.52.05-.39.5-.03.76,2.37.43,4.73.27,7.18.1,4.28-.29,8.32.24,12.72-.4l-6.23-.73c3.62-.66,5.57.31,9.1-.22-.12.97-1.09.09-1.6.97l16.57.12-.87-5.65c-.16-1.06-.28-2.99.8-3.47.81-.36,1.96-.95,2.76-1.05l2.89-.35c3.7-.45,9.26.4,10.63-.03.41-.13,7.83.98,10.85.25,1.59-.38,2.57.09,4.19.07l2.48-.02c1.97-.01,4.02-.13,6.02.03,2.37.18,3.45,2.15,3.74,4.2.72,5,1.76,9.79,1.73,14.75-1.4,1.07-2.9.75-4.51.75l-34.08.07c-5.43.01-4.87-3.6-6.15-8.49-3.88,0-6.68.05-10.66.09l-19.36.17-10.63.21,4.67,1.72-4.67-.16c1.36,1.2,3.06,1,4.61,1.67-2.22.73-6.02-1.17-7.19-1.96.82,4.15,2.9,1.61,5.86,2.98.65.3,1.43-.1,1.83.43-1.93,1-3.07-.72-4.81-.13,2.8,2.22,13.99,1.43,17.69,1.1.02-.35-.5-.84-.1-1.11Z" fill="#fff"/><path d="M88.56,172.32c.15-.96-.08-2.59-.8-3.1l-7.92.05c-.14.97-.12,2.21.44,3.05h8.29Z" fill="#fff"/><path d="M89.86,171.31c-.27-.97.3-1.73-.37-2.24-.37,1.03-.17,1.86-.18,2.96.73.34,1.27-.02.55-.72Z" fill="#fff"/><path d="M229.19,170.14c.18-.69.23-1.24-.45-.79-.53.92-.55,2.06-.08,2.81l.54-2.02Z" fill="#fff"/><path d="M238.88,172.22c.52-.71.5-2.43-.08-3.02l-7.88-.03c-1.11,0-1.56,2.86-.69,2.96,3.02.35,5.9.43,8.65.1Z" fill="#fff"/><path d="M7.43,170.4c-1.1-.43-1.25-1.13-1.67-.29.47.79,1.37.63,1.67.29Z" fill="#fff"/><path d="M91.03,171.61c.44-1.19.49-1.76-.09-2.05-.21.9-.31,1.52.09,2.05Z" fill="#fff"/><path d="M227.16,172.15c.38-.99.41-1.87-.05-2.59-.38.99-.41,1.87.05,2.59Z" fill="#fff"/><path d="M225.6,172.11c.44-1.19.49-1.76-.09-2.05-.21.9-.31,1.52.09,2.05Z" fill="#fff"/><path d="M10.62,171.57c-1.3-.07-1.45.53-.28.61.58-.06.8-.33.28-.61Z"/><path d="M8.73,174.75c.81-.19.88-.54.31-.67-1.02.14-1.33-.57-2-1.02-.21,1.11.51,1.72,1.03,2.46.25.35.73.1.82-.1.08-.17-.4-.41-.16-.67Z" fill="#fff"/><path d="M61.61,178.57c1.11-.2,2.12.12,3.16.12l30.57.11c-.02-1.96-.35-3.37-.6-5.1-.76-.14-1.23.18-1.94.18h-28.02c-1.72-.01-3.36-.07-5.03.24-.6.11-1,.37-1.74-.2-.51.32-.33.56.06.84-.01,1.11.58,1.9.83,2.95.19.83.21,1.33,1.36.91-.44-.76-1.05-1.5-.21-2.06.19,1.16.26,2.24,1.56,2.01Z" fill="#fff"/><path d="M260.9,173.77l-.61,2.37c-.83-1,.5-1.53.03-2.24l-31.4-.09c-1.73,0-3.2.04-4.93-.21-.17,1.84-.49,3.28-.2,5.21l27.69-.1c1.86,0,9.41.31,10.35-.32,1.13-.75,1.33-2.92,1.18-4.1-.53.05-.89.13-2.11-.51Z" fill="#fff"/><path d="M55.09,178.44c.68.39,1.33.21,2.12.12-.42-1.02-1.19-4.72-1.92-4.37-.15.37-.35,1.08-.76,1.42.11,1.21.7,1.23.62.08-.06-.64.53-.74.45-.05.56.84.88,1.77.33,2.49-.53-1.3-.85-1.12-.84.3Z" fill="#fff"/><path d="M57.9,178.64c.23.06.77.06.89-.13.15-.23-.33-.74-.46-1.04l-1.09-2.57c.08-1.1-.77-.84-.63.14,1.37,2.02.87,3.49,1.28,3.59Z" fill="#fff"/><path d="M263.57,178.09c.26-1.35.89-2.25.21-2.98-.36,1.19-.65,1.95-1.14,2.46.55.84.72,1.46.93.52Z" fill="#fff"/><path d="M13.64,177.1c-1.3-.08-1.45.53-.28.61.58-.06.81-.33.28-.61Z" fill="#fff"/><path d="M11.93,180.58c-.92-1.12-1.73-1.74-3-1.97.66,1.22,1.62,1.97,3,1.97Z" fill="#fff"/><path d="M65.47,180.43c-.56,1.88-1.6,3.48-1.71,5.14-.38,5.48,4.26-7.52,1.71-5.14Z" fill="#fff"/><path d="M67.1,185.96c-.44-1.46,2.68-6.91.58-5.64-1.31.79-.48,1.65-1.9,4.4-.39.76.09,1.2,1.32,1.24Z" fill="#fff"/><path d="M92.9,185.74c-.19-2.06,0-3.23-.6-4.62-1.37.95.38,3.7-.89,4.1-.33-1,.27-1.64-.38-2.75-1.49,1.6-3.14,2.3-5.24,2.38-2.65.11-4.92-1.2-6.02-3.6-.81-1.77-3.33-.87-5.62-.77-.92.83-.58,2.49-1.12,3.71-1.44,1.36,2.26-8.39-1.31-3.57-1.02,1.38-.69,2.84-1.24,4.07-.83-1.36.5-2.29.59-3.44.06-.8-1.7-1.35-1.96-.62l-1.83,5.22,17.5.05c2.75,0,5.3.28,8.11-.15Z" fill="#fff"/><path d="M84.06,183.26c2.84.76,5.4-.31,6.86-2.62-3.32-.65-6.36-.55-9.78-.07.35,1.37,1.44,2.3,2.92,2.69Z" fill="#fff"/><path d="M95.09,180.1c-1.16,2.59.88,2.74-.17,5.6.64.43.85.64,1.16.48.49-.25-.52-4.77-.99-6.08Z" fill="#fff"/><path d="M223.84,184.41l.57-3.25c.07-.38-.06-.94-.25-.98-1.16-.31-.57,3.33-.98,4.3-.16.38-.56.59-.33.94.18.26.44.37.76.26.36-.13.1-.54.22-1.26Z" fill="#fff"/><path d="M225.63,185.22c-1.78,1.84,2.61-12-.26-4.85-1.34,3.34.21.6-.79,4.28-.7,1.01.43,1.47,1.04.57Z" fill="#fff"/><path d="M231.41,183.13c2.99,1.27,6.32.29,7.5-2.66-3.78-.49-6.77-.46-10.05.02.11,1.62,1.19,2.06,2.55,2.64Z" fill="#fff"/><path d="M253.82,185.24c-1.32-1.65-.68-4.93-2.46-4.94-.27,0-.48-.11-.96.31.58,1.03.94,1.94.37,3.1-.52-.88-.48-1.88-.96-3.01-.28-.66-1.85-.44-1.74.04.35,1.48,1.25,2.89.74,4.47-.74-.93-1.05-4.59-1.95-4.85-3.34-.98.44,3.28-.5,4.39-.98-.85-.93-3.85-1.89-4.45-.33-.2-1.03-.27-1.34.09-.36.43.09,1.06-.51,1.3-1.97-5.06-2.03,3.21-8.7,3.34-2.61.05-4.58-1.42-6.35-2.98-.47,1.23.27,2.13-.43,3.16-.68-1.07.05-2.36.1-3.73-.38-1.22-1.1-.97-1.21.14.39,1.45-.23,2.54-.18,4.03l27.14.03c2.53,0,4.81.15,7.2-.21-1.11-2.05-1.25-5.58-2.44-5s1.16,2.36.6,4.76c-1.22-1.33-1.21-5.92-3.09-4.66-.18.12-.25.22-.16.76.42,1.1,1.32,2.06.79,3.44l-.8-3c-.18-.67-.35-1.07-.76-1.28-3.24-1.67.74,3.82-.49,4.74Z" fill="#fff"/><path d="M61.21,181.36c-.02-1.13-1.14-.94-1.1.09-.26,1.23-.71,2.2-1.2,2.96-.52-.14-.83.03-.79.81.03.73.82.76,1.31.62,1.4-.42.28-2.85,1.79-4.48Z" fill="#fff"/><path d="M61.82,184.57l.88-3.18c.14-5.99-2.58,6.62-2.21,3.78-.06.43.84.68.98.52.16-.18.19-.53.35-1.12Z" fill="#fff"/><path d="M63.29,185.48c.41-1.92,1.32-3.29,1.13-5.14-1.59,1.22-1.15,2.85-2.02,4.28-.64.81.09,1.45.89.86Z" fill="#fff"/><path d="M94.78,185.64c.01-1.81-.55-3.43-1.29-5.05-.34,1.86-.04,3.32-.1,4.98-.02.49,1.38.52,1.39.08Z" fill="#fff"/><path d="M260.07,181c-.28-.53-.55-.3-.61.28.08,1.17.69,1.02.61-.28Z" fill="#fff"/><path d="M261.9,185.64l-1.1-2.49c-.45.31-.34,1.25-.23,1.78.08.4.7.89,1.32.71Z" fill="#fff"/><path d="M285.64,184.37c-1.06-.36-1.43-.27-1.54.19.76.21,1.34.26,1.54-.19Z"/><path d="M308.12,175.17c-.47,1.61-5.03,2.63-5.48,1.65,1.48-.31,2.66-.12,3.75-1.07.67-.15,1.04-.85,1.73-.58Z"/><path d="M17.79,142.05l-4.94,4.15c-.44.37-.55,1.33-1.47.55,1.29-.83,2.26-1.85,3.38-2.98,1.85-1.85,3.79-3.5,5.79-5.22l5.92-5.14,9.78-8.65c-3.68-1.01-12.48,1.09-14.46-2.66-.89-1.7-1.61-3.74-1.74-5.69l-.42-6.04.1-8.06c.08-6.59-.03-12.96.02-19.56.01-1.56.18-2.99.11-4.43l-.29-6.12c-.1-2.22.14-4.3.15-6.54v-5.52s-.01-6.53-.01-6.53l.14-5.03v-5.99s-.05-6.57-.05-6.57c-.01-2.4.34-4.61.24-7.02-.05-1.34,2.57-2.46,3.44-4.62.39-.97,1.17-1.4,1.92-2.03,2.83-2.35,5.42-6.02,7.58-5.59,1.71.34,3.35-.04,5.09-.05l11.59-.07,26.58-.04h12.08s20.07-.05,20.07-.05l11.56.05,6.53-.02,7.03-.06,19.07-.08,3.54.02,37.94-.03c10.86,0,19.83-.07,30.8-.02l28.63.14h7.05s6.02.06,6.02.06c2.75.02,5.3-.03,8.05.03l6.04.12c1.38.03,3.04-.23,4.3.17,1.49.47,2.3,2.29,3.45,3.29.57.5,1.35.68,1.75,1.26,1.84,2.64,5.22,5.11,5.29,7.1l.24,6.97c.11,3.24.09,6.31.09,9.55v9.04s-.04,16.55-.04,16.55c0,1.82.02,3.47.04,5.24l.11,9.93.16,28c.02,2.81,0,10.44-4.39,10.46l-42.12.2-22.23-.06H88.89s-26.21.13-26.21.13l-23.1-.19c-1.28-.01-1.97.41-2.85,1.17l-10.19,8.82-5.07,4.49c-1.19,1.05-2.33,2.04-3.69,3.18Z"/><path d="M28.93,23.09c.77-.8,1.66-1.05,2.33-1.96.61-.82,1.71-1.64,2.84-1.63,1.71,0,3.3-.44,4.97-.33.81.06,14.56.25,14.76.24l7-.43,216.12-.02c7.8,0,9.42,2.64,13.67,7.47,1.43,1.63,3.47,2.4,3.49,6.58l.08,17.13c0,.53.49.53.48,0l.06-19.61c0-1.25.18-1.95-.7-2.89-1.65-1.76-7.96-8.87-9.59-9.47-2.33-.86-5.29.3-7.8-.3-1.27-.3-2,.57-3.24.57H107.56c-1.23,0-1.62-.63-2.86-.19-1.92.68-8.31-.09-9.39-.11-.92-.02-1.8.7-2.82.15-.89-.48-1.99-.51-2.85.02-.92.56-1.6-.3-2.43-.3l-27.01-.04-14.04-.08c-2.4-.01-4.65-.17-7.05.09-5.76.62-5.8-2.64-13.56,6.57-.94,1.12-1.59,2.21-3.07,2.97.32.6.87.61.93,1.14-.67.59-1.79.75-2.21,1.46-.62,2.78-.25,5.56-.24,8.43l.02,8.04c.01,5.25.08,9.89.01,15.07l-.14,11.04c-.02,1.55.07,2.97.06,4.53l-.02,15.55.04,6.02c.02,2.83-.42,5.47-.3,8.26.24,5.5-1.29,11.77,2.33,14.34-.64-4.94-.74-9.58-.53-14.53.12-2.75-.52-5.36-.36-8.07l.39-6.43-.11-14.63c0-1.02-.5-2.01-.29-3.02.42-2.07.45-3.99.36-6.03l-.25-6.02c-.1-2.46.31-4.57,0-7.07-.7-5.88.42-11.89.23-15.06-.13-2.16-.18-10.47,1.17-11.52l2.55-1.99c1.71-1.34,4.07-5.24,2.8-3.92Z"/><path d="M98.19,123.05l100.53-.09,53.71-.11,6.6-.31,29.08.13c4.62.02,5.06-3.77,5.01-7.8l-.12-10.21-.25-19.4-.05-6.04c-.02-2.21.17-4.32.08-6.52l-.16-4.02.08-10.54.16-14.56-.06-11.56c0-1.71-.89-2.64-1.93-3.75l-4.1-4.4-3.63-3.66-13.1.25-50.68.06-51.19.06-85.78.05-10.58.02-7.1-.2-20.07-.2c-2.78-.03-9.61-.63-11.35.49-.9.59-4.92,6.37-8.22,8.72-.84.59-1.59,1.25-1.58,2.53l.17,19.78c.07,8.12-.38,14.96-.18,22.93.1,3.76-.08,7.3-.07,11.05v4.02s.02,13.54.02,13.54l-.06,13.15c0,1.81.64,5.32,2.72,5.82,4.06.96,8.29.64,12.32.48,1.34-.05,3.45-3.29,6.13-5.42l2.52-2c.83-.65,1.42-1.28,2.16-1.93,1.87-1.64,3.9-2.97,5.56-4.96-.94,1.13,3.62-3.59,2.36-1.39-1.89,2.2-10.53,9.81-12.1,10.76-1.03.62-1.58,1.74-2.58,2.42s-2.05,1.32-2.23,2.69l26.97.11,14.06-.07,16.94.09Z" fill="#fff"/><path d="M294.43,61.19c.4-3.24.42-6.18-.02-9.13-.4,3.24-.42,6.18.02,9.13Z"/><path d="M293.66,69.18c.11,3.07-.22,5.77.17,8.57.8-1.11,1.63-9.07-.17-8.57Z"/><path d="M293.89,80.72c.44-1.19.49-1.76-.09-2.05-.21.9-.31,1.52.09,2.05Z"/><path d="M294.43,119.91v-36.19s0,36.19,0,36.19Z"/><path d="M308.69,163.92c-.85,1.83-2.16,2.76-4,3.21-3.36.82-6.83-.75-7.68-4.2-.75-3.02.67-6.11,3.5-7.46s5.84-.14,7.53,2.19c1.37,1.9,1.7,4,.65,6.27Z"/><path d="M300.99,160.27c.86,1.15,2.23-2.83,1.25-2.74-1.55.15-2.52,1.15-3.2,2.47.7.5,1.14-.07,1.94.27Z" fill="#fff"/><path d="M301.39,162.73c-.73-.54-1.37-.3-1.84-.57-.44-.43.05-1.15-.75-1.7-.8,2.23.94,4.57,3.39,5.01,1.32.24,2.18.13,3.23-.56,1.68-1.1,2.18-2.86,1.27-4.72-.53-1.1-1.3-2.79-3.11-2.56-1,.12-.23,1.83.38,2.21l2.66,1.69c.29.18-.49.88-.67.8s-.43-.5-.78-.72c-.82.75-1.42,2.04-1.65,3.32-.41.12-1.27.15-1.73.07-.4-.64.33-1.74-.4-2.28Z" fill="#fff"/><path d="M303.22,162c.07-1.13-.43-1.18-1.05-.77.28.31.52.89,1.05.77Z" fill="#fff"/><path d="M14.27,167.14c-2.39.3-3.99-.31-5.41-1.67-2.2-2.11-2.62-6.81.66-9.36,2.79-2.17,6.6-1.65,8.69,1.17,1.31,1.76,1.94,3.58,1.19,5.73s-2.43,3.79-5.13,4.13Z"/><path d="M9.54,160.82c.09-.43.77-.61,1.41-.63,2.12-.08,1.05-2.22,1.82-2.45.25-.07.48-.21.68.13.09.16-.07.51-.03.85.01.13,2.24,3.05,3.41,1.73-.06-2.2-2.41-3.71-4.56-3.13-2.74.74-4.02,3.62-2.81,5.97,1.1,2.12,3.91,2.92,6.13,1.49.72-.46,1.97-1.18,1.55-1.99-.46-.52-1.41-.69-1.87-1.64-1.65,2.43-.82,4.14-2.54,3.82-.46-.09-.75-.72-.82-1.39-.25-2.34-2.81-.57-2.36-2.74Z" fill="#fff"/><path d="M13.49,162c.07-1.13-.43-1.18-1.05-.77.28.31.52.89,1.05.77Z" fill="#fff"/><path d="M20.33,17.46c-2.88,1.93-6.58,1.95-9.06-.27-2.81-2.52-3.2-5.86-1.76-9.23l3.68-2.2c1.65-.23,3.31-.29,4.85.17,1.45.6,2.24,1.63,3.11,2.83,2.18,3.01,1.07,7.45-.82,8.71Z"/><path d="M17.6,15.12c-.24.34-1.26.72-1.53.34-.51-.75-.77-1.34-1.39-1.54-.56-.18-1.2.4-1.8.29-.99-.19-1.26-1.64-1.54-2.77-.69.56-1.76,3.45.07,3.9.36.09.63-.69.94-.78,1.72,1.41,3.47,2.95,5.94,1.7,1.93-.98,2.3-3.01,2.11-4.93-.23-2.27-2.14-3.46-4.42-3.64-1.74-.14-3.51-.11-4.29,1.36.61.27,1.03.57,1.72.54.04.75-.45,1.23-.08,1.98,1.52-.81-.35-2.37.93-2.95.63-.28,1.59-.07,1.39.67-.15.59-.27.96.13,1.2.95.56,1.54-.54,2.79-.46.44.03.74,1.15.43,1.39l-1.88,1.43c-.44.77.12,1.48.65.53.61-.79,1.66-.43.74.34-.63.16-.94.45-.95.73,0,.14.18.47.03.68Z" fill="#fff"/><path d="M299.5,18.32c-3.61-.5-5.78-4.62-4.75-7.88,1.23-3.88,4.87-5.98,8.92-4.82,2.39.69,3.66,2.8,3.75,5.32.14,4.37-3.26,8.03-7.92,7.38Z"/><path d="M298.82,12.34c-1.08-2.29-1.24-2.34-.36-3.41s2.12.49,2.73-.23c.16-.19.84-.65.15-.75-1.52-.23-2.97-.45-3.92.75-1.34,1.69-1.81,4.52-.58,6.42,1.48,2.3,4.39,2.23,6.52,1.18,1.62-.8,2.45-1.8,2.75-3.55.32-1.87-.16-3.4-1.69-4.63-.85-.68-1.88-1.17-2.76-.45.58.17.82.37,1.19.58,1.48.81,1.67,2.19.94,3.56.2.57.92,1.01.87,1.66s-.88,1.02-1.29,1.33c-.56-.49-.94-1.41-1.61-1.34-1.07.1-1.33,1.46-2.18,1.8-.58.23-1.2-.54-1.51-.83.61-.85,1.67-1.45,1.81-2.65.04-.38-.6-.84-1.16-.87-.15.69.49,1,.07,1.43Z" fill="#fff"/><path d="M81.15,6.74c-7.02.21-6.1-.62-10.48-.08-1.1.13-2.28-.61-3.57.15-1.22.72-2.65-.39-3.87-.34-2.42.11-4.62.04-6.97.07l-8.16.11c-1.72.02-3.33-.27-5.03.2-1.12.31-2.04-.09-3.06-.33-2.15-.5-4.26.43-6.48-.43,3.62-.37,7.23-.21,11.11-.22l18.42-.03h24.26c1.23-.01,2.24-.13,3.48-.09l12.11.42c.75.35-15.79.28-13.96.48-1.98-.22-3.72-.03-5.72.03l-2.07.06Z"/><path d="M278.05,6.91h-53.72c-.7-.07-.7-.93,0-1.01h54.24c.64,0,.67.47.55.76-.15.35-.46.25-1.06.25Z"/><path d="M307.84,115.36c-.32-4.96.1-5.78.04-10.13l-.31-21.88c-.02-1.69-.72-2.99.03-4.79.74-1.78-.7-5.11.06-5.95l.4-14.53.26,36.59.39,3.14-.07,23.11c-1.25-3.26-.55-1.69-.81-5.56Z"/><path d="M7.31,135.43c-.19-.9.18-1.98.18-2.99v-21.58s.22-2.32.22-2.32c.37-3.95-.97-2.46.08-4.92-.34.79-.47-9.1-.18-11.25.45-3.33-.65-3.16,0-7.69.38.72.83,1.62.83,2.58l.04,23.58c0,.72-.59,1.32-.54,2.03.22,3.52-.32,6.99.21,10.42.19,1.26.04,1.98,0,3.24l-.31,11.92c-.04,1.7-.44,3.23-.57,5.09-1.17-2.7.6-5.47.04-8.12Z"/><path d="M48.43,163.59c-2.57,9.35-1.78,3.46-2.31,4.51l.86-1.68c1.28-2.5,1.34-5.54,2.14-8.37l3.64-12.96,2.62-8.17c.77-.08-.81,5.15-.88,5.37l-1.51,5.03c-1.34,4.47-2.51,8.81-3.75,13.33l-.81,2.94Z"/><path d="M298.28,105.63l-.15,8.22c-.46-.07-.83-.51-.93-.76-.13-.3.45-.87.45-1.29l.05-19.99c.45.05.97.49.97.94l.07,10.1c0,.95-.44,1.73-.46,2.79Z"/><path d="M46.81,161.03c-.42,1.66-.56,3.22-1.63,4.54l2.88-12.57c.21-.92,2.01-8.96,3.04-8.55.22.89-.38,1.26-.56,1.96l-3.73,14.61Z"/><path d="M78.28,9.17h-26.66s26.66,0,26.66,0Z"/><path d="M269.22,154.87c.92,2.45,2.93,10.89,3.11,13.79-1.43-3.75-1.76-7.64-3.12-11.79-1.12-3.41-2.04-6.68-2.88-10.19-.25-1.07-1.11-1.86-.79-3.21.22-.92-1.99-3-.63-4.56.28,1.34-.17,2.5,1.14,3.26-.31,2.06.58,3.69,1.26,5.56.96,2.6,1.3,5.52,1.91,7.15Z"/><path d="M298.32,87.97c.16,1.18.52,2.2-.66,2.85l.23-14.15c.78,3.78-.11,7.33.42,11.3Z"/><path d="M271.13,151.5c.44,2.95,2.56,8.18,1.64,9.63-.7-2.59-.97-5.27-1.81-8.01l-1.29-4.19c-.26-.84-.23-1.68-.63-2.69-.15-1.1,1.3-1.02.99.08.15,1.95.84,3.47,1.1,5.18Z"/><path d="M36.68,147.09c-.24-.63,5.67-5.9,6.83-6.11-.5,1.29-1.79,2.1-3.02,2.91-1.38.91-1.8,2.5-3.82,3.2Z"/><path d="M8.25,81.27c-.74-2.08.03-4.21-.37-6.5-.15-.85-.89-1.66-.14-2.62.84,2.62.97,5.8.51,9.12Z"/><path d="M298.45,75.76c-.45-1.6-.42-3.24-.03-5.12.45,1.6.42,3.24.03,5.12Z"/><path d="M49.18,9.16c-1.43.46-2.91.42-4.62.03,1.43-.46,2.91-.42,4.62-.03Z"/><path d="M44.77,140.48c-.42.14-.75-.15-.59-.33-.13.34,4.29-4.6,3.52-2.51l-2.93,2.84Z"/><path d="M83.32,9.15c-1.08.47-2.25.43-3.61.04,1.08-.47,2.25-.43,3.61-.04Z"/><path d="M35.57,139.3c-.97.78-1.1,1.45-2.04,1.11.16-.49.61-.65.93-1.08.37-.53,1-.5,1.11-.03Z"/><path d="M281.96,6.1c.25.08-.4.72-.64.82-.32.14-.83-.22-1.17-.77.11-.35.8-.38,1.81-.05Z"/><path d="M35.07,148.84c-.97.78-1.1,1.45-2.04,1.11.16-.49.61-.65.93-1.08.37-.53,1-.5,1.11-.03Z"/><path d="M31.69,151.78c-.96,1.01-1.47.66-.88-.41.73-.62,1.55-.35.88.41Z"/><path d="M33.06,6.19c-.53.4-1.15.3-2.05.09.29-.58.85-.53,2.05-.09Z"/><path d="M51.59,143.47c-.54.3-.67.55-.85.52-.29-.55-.14-.85.14-1s.83-.03.71.48Z"/><path d="M29.09,145.38c-.71.67-1.03.75-1.15.07.25-.68,1-.64,1.15-.07Z"/><path d="M147.07,156.2l28.59.48,6.21-.46c.55-.23.66-1.42.68-1.99l.3-9.82c1.68,3.89.28,7.32.86,12.15-3.2,1.61-.57,1.44-5.62,1.44h-41.81c-.55,0-.98-.2-1.64.16-2.1-2.59,9.65-.9,11.05-1.95-1.19-1.26-8.6.81-9.08-2.24-.71-4.54.99-5.97.95-9.97,5.51-.64,11.29-.62,17.01-.58l21.61.13c1.34,0,2.56.79,2.64,2.06.16,2.48.82,4.72.07,6.97-.54-1.26.01-7.77-.98-7.96-.66.1-1.81.22-2.74.23l-10.56.04c-1.61,3.6-5.27,4.65-8.7,3.11-1.33-.6-2.21-2.29-3.3-3.04l-11.09-.18c-1.14-.02-2.2-.64-3.27.04l.2,5.69c.05,1.41.21,2.57.09,4.07l13.04-.06,26.99.03c.45,0,.32.56.29.72-.06.28-.71.41-1.2.42l-30.6.5Z"/><path d="M162.67,145.14c-3.12-.39-5.11-.1-7.62-.12.27,1.18,1.18,1.22,2.02,1.64,2.08,1.04,4.62.6,5.6-1.52Z" fill="#fff"/><path d="M237.73,163.33c-3.12,1.47-7.11-.8-8.39-4.02-.79-1.99-.24-4.29,1.01-5.89,1.46-3.14,5.38-3.12,8.26-1.46.93.53,1.36,1.1,1.88,2.07,1.79,3.36.88,7.59-2.76,9.3Z"/><path d="M232.18,155.66c.54-.64.22-1.35-.35-.86-.51.44-.52.78.35.86Z" fill="#fff"/><path d="M237.97,154.92c-.15-.57-.89-.61-1.15.07.13.68.44.6,1.15-.07Z" fill="#fff"/><circle cx="238.43" cy="156.05" r=".56" fill="#fff"/><path d="M231.95,157.43c-.15-.57-.89-.61-1.15.07.13.68.44.6,1.15-.07Z" fill="#fff"/><path d="M88.22,158.65c-.43,2.31-2.12,4-3.53,4.56-2.48.97-4.67.41-6.53-1.07-2.07-1.66-3.13-4.35-2.12-6.88.8-1.99,2.34-3.29,4.21-4.08s3.59-.44,5.15.87c1.89,1.58,3.35,3.78,2.82,6.61Z"/><path d="M81.42,151.99c-1.3-.07-1.45.53-.28.61.58-.06.8-.33.28-.61Z" fill="#fff"/><path d="M79.31,154.12c-1.05-.35-1.08.14-1.08.92-.05,1.14-1.03,2.15-.16,3.06.38-1.54.36-2.8,1.24-3.99Z" fill="#fff"/><path d="M116.25,158.17c-2.37.52-9.13,1.32-10.38-1.43-.53-1.15-.77-7.72,1.69-8.99l6.88-.23c1.98-.07,3.91.99,4.3,3.09.49,2.63.76,6.86-2.49,7.56Z"/><path d="M107.81,150.55c.28-.91-.05-1.24-.96-.96.16.45.51.79.96.96Z" fill="#fff"/><path d="M116.44,149.29c-1.55.23-1.89.51-.64.9.98.89,1.64-.24.64-.9Z" fill="#fff"/><path d="M111.89,151.3c-1.19-.44-1.76-.49-2.05.09.9.21,1.52.31,2.05-.09Z" fill="#fff"/><path d="M110.89,152.81c-1.19-.44-1.76-.49-2.05.09.9.21,1.52.31,2.05-.09Z" fill="#fff"/><path d="M116.15,156.01c-.92.34-2.03-.55-3.04.6,1.23,1.01,3.28.25,3.73-1.03.36-1.02-.06-2,.07-3.01-.95-.07-1.55-.08-2.52,0,.04.62.52.48,1.22.42,1.15-.1,1.12,1.15.02,1.07-4.14.1-1.42-1.08-5.78.26,2.13.52,4.12-.02,6.55.28-.14.41-.56.58-.25,1.39Z" fill="#fff"/><path d="M115.43,155.23c-.35-.17-6.36-.7-6.08.71,1.96.41,3.51-.33,6.08-.71Z" fill="#fff"/><path d="M153.85,141.33c-2.34,0-4.36-.41-6.26-.15-2.63.36-5.17.59-7.81-.13-1.15-.31-2.31.36-3.28-.31l1.25-1.11,14.33-.19c2.55-.03,1.5-2.9,6.47-3.41,5.66-.58,3.65,3.42,8.91,3.3,3.59-.08,6.94-.06,10.53.05,1,.03,2.46-.43,2.62,1.23-.3.6-1.62.61-2.43.61l-24.34.09Z"/><path d="M160.54,138.2c-.97-.84-2.64-1.15-3.75.05-.48.68.18.74.72.94,1.08.41,1.62.17,3.03-1Z" fill="#fff"/><path d="M208.85,158.85c-2.19-.53-4.53.21-6.32-.58-2.41-1.06-3.06-8.37-.33-10.31,1.52-1.08,8.2-1.49,8.89,1.08.44,1.63.06,3.32.25,4.99.23,2.02-.65,3.56-2.49,4.83Z"/><path d="M205.95,153.82c-.94.44-.62.81.28.76.61.19.99.19.55.81-1.1,0-2.16-.81-3.06,0,1.77.23,2.89.55,4.4,2.03.56-2.54.84-5.26-.14-7.41-1.7-.78-4.08-.54-5.7-.3,2.03.95,3.17-.58,5.54,1.36-1.22,1.04-3.04-.43-2.97.88.93.35,1.82-.31,2.52.42-1.74.57-3.18-.26-4.62.44-.93.25,9.56.38,3.21,1.03Z" fill="#fff"/><path d="M203.44,150.98c-1.3-.07-1.45.53-.28.61.58-.06.8-.33.28-.61Z" fill="#fff"/><path d="M203.77,153.65c-1.1-.22-1.35-.17-1.49.14s-.08.65.53.89c.47-.36.94-.68.95-1.03Z" fill="#fff"/><path d="M203.6,156.03c-.81-.97-1.81-.36-1.06.6.68.74,1.4.55,1.06-.6Z" fill="#fff"/><path d="M120.44,132.4c-5.47.06-8.9-.06-14.07-.03l-23.09.14-3.01-.33c-1.27-.14-2.29.53-3.65-.14-1.18-.59-2.71.62-3.95-.56h53.83s-3.15,1.07-3.15,1.07c-.99-.85-1.9-.17-2.91-.15Z"/><path d="M168.55,152.49c-2.12,1.06-28.64.46-28.37.26-.32.23-.58.25-.9.33-.28.07-.38-1.07-.16-1.1l29.43.51Z"/><path d="M229.74,131.72c1.6-.15,2.74.39,4.31-.12,1.77-.58,4.38.2,6.41.08.64-.04,1.7.08,2.03.78l-41.1-.1c1.67-1.85,3.99-.94,5.93-.81l2.52.18c.89.06,1.9.28,2.99.28h14.07s2.85-.28,2.85-.28Z"/><path d="M239.49,134.61c-.93.83-10.5.1-11.37.57-1.23.66-2.16-.08-3.33-.1l-11.96-.14c-.72,0-1.31-.45-2.02-.45-2.9-.32-5.65.44-8.58-.37l19.62-.19,2.02.52,15.62.16Z"/><path d="M53.47,162.56l.16-3.45c1.22-2.66,1.73-5.37,2.47-8.14l2.57-9.57c.65-2.42.97-4.8,2.03-7.12-.05-.81-.02-1.7,1.07-1.8l-3.19,12.45c-1.78,6.94-3.35,11.33-5.12,17.63Z"/><path d="M262.23,154.05c.8,2.88,1.77,5.23,2.2,8.41-1.11-2.36-1.84-4.9-2.65-7.62l-1.51-5.02-1-3.01-3.86-13.44c.03-.96.55-1.18.66-.15,1.02,1.79,1,3.75,1.65,5.56.44,1.23,2.62,8.49,3.05,10.04l1.46,5.23Z"/><path d="M261.8,161.12c-.58-1.01-.47-2.2-1.01-3.35-2.06-4.37-1.14-3.9-2.54-8.04l-1.52-4.52c-.41-1.2-.69-2.29-.97-3.55s-1.39-2.21-.52-3.75c-.11-1.24,2.33,7.8,2.02,6.26.36,1.82,1,3.28,1.52,5.06l1.02,3.49c.29,1,2.89,7.97,1.99,8.39Z"/><path d="M136.02,150.02c-.22,4.38.98,5.89-.29,6.04-1.46.17-.79-9.93-.61-11.77,0-.47.72-.46.75-.04-.5,2.06.25,3.81.15,5.78Z"/><path d="M181.57,148.52c-.92,2.11-.05,4.56-.88,6.12-.76-.64-.64-1.6-.68-2.6l-.3-8.02c2.11.79-.14,2.17,1.86,4.5Z"/><path d="M58.79,154.13c-.34,1.16-1.44,7.38-2.26,5.86.91-1.95.81-3.81,1.37-5.77l1.01-3.5c.32-1.1,1.69-6.29,1.52-6.23.32-.12.56,0,.76.25.07.08-1.98,7.94-2.41,9.39Z"/><path d="M133.37,156.09c-.28,2.55-.68-9.94-.89-6.07.18-3.28-.55-4.67.9-8.06v14.13Z"/><path d="M148.98,142.28c-3.51.32-7.1.41-11.02-.04,3.45-.39,6.85-.49,11.02.04Z"/><path d="M200.27,131.52c-.2.69-.74.93-1.25.95-.8.05-1.41-.05-1.79-.96.99-.13,1.52-.11,3.04,0Z"/><path d="M61.31,153.92c-.78,1.73-.59,3.34-1.54,4.7.06-2.41.9-4.3,1.55-6.64.71.39.37,1.15,0,1.94Z"/><path d="M182.43,142.19c-.01.84-.59.97-.83.51-.15-.29-.54-.68-.16-1.01.17-.15.99.09.99.49Z"/><circle cx="135" cy="142.49" r=".56"/><path d="M61.53,151.51c-.66-.12-.41-.99.42-1.48.45.27.37.77-.42,1.48Z"/><path d="M61.91,140.98c-.4-.53-.3-1.15-.09-2.05.58.29.53.85.09,2.05Z"/><path d="M170.3,151.99c.53.28.3.55-.28.61-1.17-.08-1.02-.69.28-.61Z"/><path d="M59.72,159.4c.07,1.3-.53,1.45-.61.28.06-.58.33-.8.61-.28Z"/><path d="M186.28,178.82c-.23,1.63.25,3.2-.31,4.89l-.53-7.14c-1.42,3.62,1.46,10.57-2.8,10.58l-45.1.05c-1.42,0-2.19-.83-2.28-2.05l-1.14-15.06c-.09-1.13.54-2.44,1.96-2.45l43.05-.06c1.82,0,3.31-.03,4.92.55,2.55-.52.62,3.51,1.77,4.62.86-.58-.09-1.43.72-2.16.56,2.64.12,5.4-.27,8.23Z"/><path d="M136,169.07c-.27.72-.56,3,.4,3.07,4.08.26,8.29.16,12.08.02,2.91-5.04-8.55-1.86-12.47-3.08Z" fill="#fff"/><path d="M183.31,169.38c-1.45-.68-2.84-.04-4.13-.05l-8.72-.05c-.27.99-.41,1.76-.24,2.93l13.36.28c-.05-.97.33-2.34-.27-3.12Z" fill="#fff"/><path d="M178.38,173.63l-28.64.07-10.24-.05c-1.04,0-1.92-.27-3.24-.15-.13,1.67.1,3.23.37,5.3l46.04.04c.48-1.94.72-3.41.54-5.17-1.58.3-2.98-.05-4.82-.04Z" fill="#fff"/><path d="M139.28,181.18l17.82.02c-.49,0,5.48.36,4.56-.52l-20.63-.04c-1.35,0-2.67-.47-4.12,0-.68.22-.36,2.14.52,2.22,1.64.15,3.05-.16,4.63-.18l26.62-.3-30.62-.34c.08-.44.45-.88,1.23-.88Z" fill="#fff"/><path d="M172.09,183.56l7.59.27c-1.03.85-1.93-.15-2.55.65l3.82.64c.9.15,1.58.93,2.64.44-1.14-1.47.1-2.84-.91-4.92-2.28-.59-4.65-.02-7,.03-4.55.09-8.82-.2-13.1.15,1.06.43,2.13.69,3.14.71l10.9.22c1.5.03,4.4,0,4.52.11.22.19.74.51.23.97-2.3-.82-4.19.11-6.06-.02-.93-.06-2.17-1.54-3.22-.29.86.44,1.57-.21,2.09.44-.8.58-1.62-.26-2.1.61Z" fill="#fff"/><path d="M157.75,183.12c-1.3-.07-1.45.53-.28.61.58-.06.8-.33.28-.61Z"/><path d="M159.76,183.12c-1.3-.07-1.45.53-.28.61.58-.06.8-.33.28-.61Z"/><path d="M163.15,183.39c-.99-.38-1.87-.41-2.59.05.99.38,1.87.41,2.59-.05Z" fill="#fff"/><path d="M147.6,185.02c-2.73-.93-5.94.18-8.6-.59l9.1-.54c-1.69-.25-11.01-.53-11.17-.04-.1.29-.21.86-.02,1.67,4.76.95,6.08-1.51,10.16.28.78-.09,1.3-.3.54-.78Z" fill="#fff"/><path d="M159.09,184.45c-1.19-.44-1.76-.49-2.05.09.9.21,1.52.31,2.05-.09Z" fill="#fff"/><path d="M171.69,184.41c-4.25-.4-8.19-.42-12.14.01,4.25.4,8.19.42,12.14-.01Z" fill="#fff"/><path d="M175.21,184.39c-1.17-.38-2.2-.42-3.1.05,1.17.38,2.2.42,3.1-.05Z" fill="#fff"/><path d="M155.13,185.4c-1.7-.39-3.19-.42-4.62.03,1.7.39,3.19.42,4.62-.03Z" fill="#fff"/><path d="M168.69,185.41c-2.22-.39-4.18-.42-6.13.03,2.22.39,4.18.42,6.13-.03Z" fill="#fff"/><path d="M180.35,185.13c-1.3-.08-1.45.53-.29.62.58-.07.81-.34.29-.62Z"/><path d="M122.69,183.87c-3.94.53-10.05.41-14.18.16-1.08-.94-1.86-9.35-2.05-11.4-.11-1.2.8-1.89,1.89-1.92,3.93-.13,7.63-.24,11.54-.05.64.03,1.15.54,1.26,1.11l1.54,7.97c.25,1.29-.12,2.53,0,4.15Z"/><path d="M110.38,172.39c-1.19-.44-1.76-.49-2.05.09.9.21,1.52.31,2.05-.09Z" fill="#fff"/><path d="M120.5,178.78c-.24-1.99-.21-3.71-.87-5.33-.66-.49-1.86.02-2.67.02l-8.22.02c-.09,1.72.42,3.02.6,4.61.15,1.31,9.48.65,11.16.68Z" fill="#fff"/><path d="M111.71,181.58c-.4-1.35-1.16-1.34-1.59-1.12s-.66,1.32-.6,2.11c.79-.04,1.65.04,2.2-.99Z" fill="#fff"/><path d="M120.89,182.52c.06-.62.22-1.1-.13-1.95-.66,1.14-1.77.92-2.86,1.31l2.99.64Z" fill="#fff"/><path d="M210.27,184.32h-11.33c-1.07.01-1.62-.6-1.7-1.68-.13-1.9.13-10.14,1.28-11.66,4.3-.17,8.4-.14,12.64-.08,1.15.01,1.87,1.05,1.76,2.18l-.95,9.9c-.08.83-.67,1.34-1.7,1.34Z"/><path d="M211.06,173.79c-1.46-.9-9.43-.31-11.72-.26-.12,1.93-.47,3.4-.23,5.22l11.42.23c.2-1.97.64-3.4.54-5.19Z" fill="#fff"/><path d="M201.77,182.46c-1.13-.6-1.85,0-2.3-.48-.41-.45.06-1.12-.53-1.36-.34.77-.16,1.28-.13,2.04,1.17-.07,2.04.23,2.96-.19Z" fill="#fff"/><path d="M209.13,180.91c-.99,0-1.85.34-2.84.31l-4.44-.13c-.72-.02-1.25-.78-2.14-.25,2.04,1.54,4.61.44,7.52.92.28.38.1.59.28.7.32.18.86.22,1.36.18.82-.06.98-1.73.25-1.73Z" fill="#fff"/><path d="M214.58,172.57c.8,1-1.07,9.36-1.54,10.15-.77-1.84.95-8.63,1.54-10.15Z"/><path d="M130.01,185.76c-3.37,1.41-16.09.99-20.52.77-1.32-.06-2.76-.35-4.16-.74l24.68-.03Z"/><path d="M48.45,172.62c-6.54,1.21-12.81.11-19.4.55-.35.02-1.1-.63-1.52-1.06,6.78.36,13.53-.67,20.92.51Z"/><path d="M279.37,173.81c.62.42,12.11-1.14,15.33.69l-21.39.15c-.66-.74,0-1.4.85-.82,1.98,1.14,3.84-.96,5.21-.03Z"/><path d="M42.85,180.09l-1.83.53c-3.84,1.1-8.07.21-12.01-.12-2.63-.15,10.84-.75,6.57-.86,4.04.1,7.8-.2,11.59.16-1.35.75-2.79-.15-4.31.28Z"/><path d="M99.2,180.76c.32,1.23.29,2.6-.1,3.93-.48-1.3-.12-2.67-.76-4.05-.21-.45-1.62-9.41-.75-9.59.92,2.8,1.04,7.54,1.61,9.7Z"/><path d="M283.09,181.65c1.9,1.66-11.87,1.19-11.09.11l11.09-.11Z"/><path d="M290.69,172.86c-6.44.43-12.88.42-19.65.01,6.44-.43,12.88-.42,19.65-.01Z"/><path d="M124.13,182.64c-.8-.92-1.48-9.18-1.26-8.45-.31-1.04-.71-1.92-.27-3.14.77-.3,1.42,7.13,1.4,7.6-.05,1.2,1.09,2.19.13,3.98Z"/><path d="M133.42,176.16c-.54-1.86.96,9.58.34,8.02-1.59-2.95-.2-2.8-1.12-8.16-.32-1.86-.31-3.76.12-5.47.4,2.03.11,3.7.66,5.61Z"/><path d="M196.01,183.17c-1.49.96-.02-2.17-.25-4.53-.13-1.29-.01-2.42.42-3.6s-.38-2.28.4-3.46c.75.8-.54,11.58-.56,11.59Z"/><path d="M187.38,181.13c-.42-3.49-.2-5.99.61-10.06.52,2.9.39,5.9-.61,10.06Z"/><path d="M123.95,168.12c-1.27.28-5.25,1.36-5.54-.54l9.61.16c-1.22.88-2.62.05-4.08.38Z"/><path d="M43.56,174.51l-12.57.02c-.64-.57,6.13-.56,6.58-.46,1.89.41,3.63-.49,5.98.45Z"/><path d="M106.37,168.16c1.19.11,2.39-.41,3.56.28l-11.08.17c.08-.59.52-.87.8-.95,1.22.86,2.6.11,3.84.23l2.88.27Z"/><path d="M106.1,182.21l-.69-2.64-.06-2.95c-.03-1.47-.98-2.78-.21-4.05l.7,2.64c-.36,3.28,1.22,5.56.27,7Z"/><path d="M276.57,180.5c-2.33.32-4.61.36-7.54-.63,1.23-.41,4.99-.52,7.54.63Z"/><path d="M196.8,185.91c-2.78.44-5.56.42-8.63.02,2.78-.44,5.56-.42,8.63-.02Z"/><path d="M198.81,167.84c-2.62.44-5.23.42-8.13.02,2.62-.44,5.23-.42,8.13-.02Z"/><path d="M304.2,175.25c.72-1.06,1.8-.8,2.57-1.42-.95-.59-1.64.37-2.65-.42,1.19-.49,2.16-1.02,3.58-1.43.21.72.21,1.2.62,1.63-1.15.85-2.12,2.19-4.12,1.64Z"/><path d="M304.18,183.2c-1.34.62-2.22,1.44-3.55.75.97-.53,1.97-.84,3.15-1.3.77-.16,1.27.38.4.55Z"/><path d="M305.1,181.39c-1.1.82-2.05.94-3.41.68-1.37,0,4.08-1.59,3.41-.68Z"/><path d="M29.54,184.01c.16.68-.8.82-1.09.8s-.82-.76-.88-1.01c.64-.17,1.46-.44,1.96.22Z"/><path d="M295.17,183.94c-.53.4-1.15.3-2.05.09.29-.58.85-.53,2.05-.09Z"/><path d="M45.27,174.08c.53.28.3.55-.28.61-1.17-.08-1.02-.69.28-.61Z"/><path d="M244.05,183.76c-.31.72-.72.09-.88-.12-.37-.49-.42-1.22.13-1.53.19.57.16.88.76,1.65Z"/><path d="M75.54,182.19l-.54,2.02c-.47-.75-.45-1.89.08-2.81.68-.45.64.1.45.79Z"/><path d="M78.48,104.73c-1.39.76-2.2.07-3.16-.52-1.79-1.1-3.64-1.95-5.29-3.28-5.46-4.42-10.79-15.01-9.28-22.23-.74-3.37,2.29-10.7,4.22-13.33,4.25-5.8,11.17-9.54,18.28-10.56,3.21-.46,6.34,0,9.57,0l25.08-.04,6.55.04,5.01-.11,6.03.04,6.02-.03h5.57s46.06-.15,46.06-.15l4.29-.1,26.41-.11,7.2.09c7.89.09,17.45,4.17,21.65,10.95,2.97,4.8,4.43,10.08,4.01,15.87-.67,9.41-3.75,16.76-11.76,21.95-1.12.72-2.18,1.28-3.5,1.54-2.6,1.13-5.08,2.17-8.08,1.79h-120.38s-18.19-.03-18.19-.03l-8.54-.04c-4.3-.02-3.67-.97-6.34-.51l-1.45-1.24Z"/><path d="M234.66,104.48c-.45,1.93,1.81.16,3.94-.35,5.78-1.4,10.84-6.02,13.6-11.28,1.26-2.39,2.54-4.76,2.96-7.61.95-6.48-.14-13.08-3.47-18.68-2.69-4.54-5.59-6.61-10.28-8.89-3.07-1.49-10.97-1.32-14.54-1.32l-25.07.02-7.57-.13-10.34-.04-12.35.04-38.06-.03-16.05-.05-20.58-.11c-4.93-.03-9.66-.16-14.55.05-1.05.04-6.22,1.82-7.85,2.7-5.57,3.02-9.22,7.7-11.1,13.72-3.35,10.75-.39,20.47,8.16,27.54,2.21,1.82,4.52,3.02,7.34,3.73,9.5,2.37,4.17.59,10.26.85,2.87.12,5.71-.28,8.62.09,1.16.15,2.16.07,3.31.06l4.62-.04c2.19-.02,4.27-.05,6.42-.05h7.16s8.28-.07,8.28-.07l10.48-.1c2.26-.02,4.27.03,6.59.03l53.65.04,32.58.08c1.42,0,2.7.42,3.85-.21Z" fill="#fff"/><path d="M184.95,46.37l-19.82.15-13.56-.07-12.67.08-47.05.12-14.41.13h-27.79c-2.22,0-4.37.16-6.52-.01-1.66-.13-2.22.69-3.21,1.64s-1.83,1.78-2.59,2.98c-1.27,1.99-3.43,3.24-4.83,5.16-.78,1.07-1.54,2.12-2.73,3.09-.6.9-1.05.1-.49-.6,1.23-.83,1.79-2.05,2.7-3l4.66-4.86c.6-.63.99-1.21,1.61-1.88l1.75-1.87c-.57-1.7-1.96.14-4.45-1.11,1.04-.62,2.23-.29,3.54-.34,4.13-.14,3.48-1.62,7.13-5.32l5.03-5.09c1.16-1.17,1.85-2.71,3.35-3.65.16-.52.52-.44.67.1-1.13,1.54-2.61,2.49-3.82,3.82l-5.07,5.52c-2.24,2.44-5.17,4.37-2.79,4.35l8.55-.07h10.04s7.52-.04,7.52-.04l21.13-.26,49.13-.14,10.6-.02,29.64-.16,63.2-.3,31.66-.15c1.75,0,3.33.34,4.57,1.28-4.86.64-9.94.23-14.64.25l-35.92.11-29.31.11-14.83.04Z"/><path d="M107.67,35.95c-1.83,4.54-.63,6.72-1.11,7.69-.12.25-.67.41-1.1.23-2.66-1.15-.87-6.9.27-9.52-2.82-1.83-5.66.33-6.62,2.78l1.75,3.95c.36.82.15,1.95-.46,2.5-1.38,1.26-2.45-3.58-3.49-4.35-2.22,1.42-2.48,4.96-3.33,4.93-.23,0-.68-.11-.87-.44-.92-1.53-.46-3.41.55-4.77l1.91-2.58c.83-1.11-3.4-2.89-1.31-5.73,1.79-.33,2.58,2.79,3.83,2.75l3.1-2.39c3.26.24,10.71-2.37,12.31.28.19.31.38.61.62.72.92.4,1.41-1.67,2.44-1.39,2.95.79.21,5.17,3.44,6.37,1.92.71-.61,1.03-.22,4.13.17,1.34-.9,2.82-2.31,2.57-.75-.13-1.39-1.53-1.18-2.14.25-.7,1.72-1.18-2.74-.7-.63.84-1.05,2.89-2.34,2.87-3.25-.04,1.87-8.8,1.62-10.65-1.15-.36-2.5-.3-3.56.36-.85.54-.87,1.69-1.2,2.52Z"/><path d="M115.11,35.61c-.86.45-1.06,1.73-.31,1.92,1.77,1.73.51-2.02.31-1.92Z"/><path d="M132.97,40c1.34,1.35,3.86-1.46,5.43.83s-4.54,3.58-6.72,2.71-2-4.13-1.01-5.91c.84-1.52,1-2.96-.19-4.33.06,5.94-4.69,4.76-6.33,6.44-.76.78-.14,3.77-1.49,4.09-.66.16-1.19-.23-1.4-.96-.34-1.23.19-2.51-.06-3.8-.34-1.78-.22-3.2.69-4.72.38-.62,1.03-4.63,4.3-4.6,3.64.04,2.94,2.73,4.63,3.31-.6-1.66,9.57-4.75,8.58-1.15-.32,1.16-3.79,1.97-5.48,2.69.42,1.4,2.39-.47,3.54,1.16,2.59,3.67-6.77,1.96-4.5,4.24Z"/><path d="M127.52,34.31c-.68-1.13-1.43-.84-2.11-.58-.46.18-1.09.97-.81,1.53,1.02.04,2.02-.3,2.92-.95Z" fill="#fff"/><path d="M83.97,43.36c-2.34.19-1.75-4.99-1.62-6.89-.6-1.73-3.68,4.66-7.89.41l-1.8,5.73c-.18.56-.58.9-.98,1.51-2.78-2.18-1.76-4.88-1.08-7.8.44-1.91,2.51-8.36,3.29-8.89.37-.25.93-.24,1.42.08,2.63,1.68,1.88,6.35,3.4,5.7,2.28-.97,3.55-3.2,4.55-5.36,1.92.46,2.95,2.18,2.85,4.15l-.27,5.06c-.07,1.42-.21,6.16-1.87,6.3Z"/><path d="M237.28,41.32c.54-.56.96-.9.68-1.44-.41-.79-2.89,1.11-3.82-.82-.74.24-.91,4.82-3.13,4.32-2.37-.54.98-7.1,1.56-8.31.68-1.41.9-3.23,2.09-4.27,1.03-.9,1.82-1.86,2.71-2.86s2.44.3,2.59,1.36l.66,4.93c.09.67.66,1.1,1.1,1.53.79.77.56,1.67-.21,2.34-1.07.93.31,5.09-3.21,5.59-.85.12-1.71-1.65-1.03-2.36Z"/><path d="M237.21,34.53c-.56-1.84-1.83,1.97-1.65,1.83.47.56,1.34.19,1.72-.28.19-.24.2-.67-.07-1.56Z" fill="#fff"/><path d="M199.38,33.12c-.9,0-2.14.13-2.18.82,1.38,1.68,2.87,3.37,2.25,5.55-.7,2.45-3.29,4.48-5.85,4.12-.91-.13-.94-2.2-.37-2.54,1.08-.41,4.32-1.84,4.02-3.17-.35-1.52-3.68-.81-4.44-1.85-1.22-1.66.07-3.8,1.8-4.53,1.85-.79,3.53-1.79,5.59-1.6.97.09,1.16,1.27,1.85,2.25.7-.7.68-1.69,1.89-2.25,2.48,3.32-.17,5.96.08,12.12.02.49-.3.87-.44,1.08s-.95.39-1.13.13c-2.64-3.64.37-7.75-.45-10.11h-2.59Z"/><path d="M154.55,43.46c-.69-2.32.21-4.57.48-6.8-1.77-.44-2.44.58-4.02-.82-1.81-1.62-.03-3.61-1.32-3.78-.47.72-.04,1.69-.4,2.09-.51.58-1.19,0-1.55-.16-1.4-.62.21-7.18,1.1-7.43.43-.12,1,.28,1.35.76.7.97.04,2.01.46,3.32.94-1.19,1.81-2.2,3.09-2.86,1.74-.9,3.25-.19,4.23,1.31,1.36,2.1.96,4.28.16,6.58-.84,2.42-1.1,7.35-1.83,7.78-.36.22-1.55.63-1.74,0Z"/><path d="M155.79,31.8c-.13-1.06-.9-.93-1.39-.53-.46.45-.83.84-.8,1.59.79.03,1.34-.07,2.18-1.07Z" fill="#fff"/><path d="M221.38,39.89c1.15-.28,1.44.49,1.67,1.15.74,2.11-4.56,3.17-6.76,2.48-.66-.21-.99-1.03-1.88-1.09.53-.89.42-1.8.48-2.9.07-1.4.98-2.41,1.26-3.64.47-2.03-1.25-3.91,1.64-4.86,1.85-.61,5.94-1.96,6.69-.48.38.75.16,1.85-.83,2.17-1.14.37-2.2.77-3.5,1.31-4.59,1.11,1.42.67,2.08,1.31.29.29.78.95.5,1.6-.94,2.14-3.94.85-4.43,1.35-.32.34-.97,1.33-.44,1.7,1.06.73,2.32.18,3.52-.11Z"/><path d="M207.24,43.66c-2.28-1.63-.16-5.58-.24-7.6-.08-2.16-.34-4.03.27-6.31,1.96.86,3.71,1.68,5.3,3.06,1.88,1.63,2.81,4.67,1.18,6.76s-4.14,2.9-6.51,4.1Z"/><path d="M212.55,36.74c.38-1.39-2.05-3.1-3.23-2.73-.5,1.68-.16,3.51-.31,5.19,1.62-.55,3.18-1.16,3.54-2.46Z" fill="#fff"/><path d="M163.93,43.72c-1.55-2.07-.21-4.8-.67-5.44-.75-1.05-2.05.15-3.02-2.28-.61-1.54-1.2-6.3.36-6.63,2.13,1.47,1.09,4.26,2.27,4.6,2.76.79,1.24-7.34,3.26-6.79,2.91,4.21-.02,4.14,2.25,6.53.79.83.39,1.94-.49,2.52-.48.32-1.22.57-1.48,1.13-1.42,3.01.53,5.5-.76,6.44-.4.29-1.31.48-1.73-.08Z"/><path d="M90.25,43.66c-1.79,1.25-3.22-3.2-2.25-7.55.16-.73,1.23-7.16,2.31-5.63s1.19,3.45.63,5.28c-1.07,3.53.18,7.29-.68,7.9Z"/><path d="M184.18,38.67c-2.72.05-4.95.57-7.55.76-.84.06-1.19-1.76-1.07-2.44,9.25-2.99,9.67,1.66,8.62,1.68Z"/><path d="M261.41,103.21c1.11-1.58-6.68,6.44-6.79,5.68-.33-.87,6.08-5.88,6.31-6.17,1.07-1.33,2.42-2.28,3.87-3.18.99-.61,1.59-1.84,2.59-2.31,1.17-.54,1.59-1.38,2.46-2.18l3.9-3.61c1.04-.97,2.38-1.54,3.22-2.85.29-.45.91-.47,1.11-.09-1.26,1.49-2.45,2.44-3.85,3.43-1.16.82-1.87,2.19-3.06,2.94-1.58,1-2.92,1.99-4.25,3.3-.9.89-5.23,4.66-5.51,5.05Z"/><path d="M267.72,105.44l-4.51,3.54c-.62-.89,4.65-4.46,6.05-5.96.44,1.23-.79,1.84-1.53,2.42Z"/><path d="M44.35,35.46c2.6-.91-4.79,5.91-4.38,5.1.91-2.38,3.1-3.27,4.38-5.1Z"/><path d="M60.28,26.71c-1.67,1.37-2.51,2.84-4.18,3.84.46-2.07,2.4-2.64,3.43-4.25.36-.43.7-.33.75.41Z"/><path d="M253.43,110.19c-1.59,1.2-2.41,3.16-4.46,3.77-.82.44,5.58-6.46,4.46-3.77Z"/><path d="M246.44,116.77c-1.49.9-1.87,2.57-3.87,3.16.63-1.57,2.18-2.3,3.28-3.72.42.15.71.37.59.56Z"/><path d="M60.18,104.36c-.56,1.05-1.5,1.84-2.74,1.77.71-1.05,1.36-1.49,2.74-1.77Z"/><path d="M272.12,100.85c-.59.87-1.14,1.42-2.01,2.01-.1-1.21.8-2.11,2.01-2.01Z"/><path d="M286.14,82.05c-.97.78-1.1,1.45-2.04,1.11.16-.49.61-.65.93-1.08.37-.53,1-.5,1.11-.03Z"/><path d="M38.07,42.51c.31-.68.84-1.01,1.41-1.5.32.86,0,1.57-1.41,1.5Z"/><path d="M261.41,110.79c-.63.69-1.1.78-1.39.31.42-.4.59-.67.76-.76.31-.16.94.1.63.44Z"/><path d="M280.49,86.69c-.63.69-1.1.78-1.39.31.42-.4.59-.67.76-.76.32-.16.94.1.63.44Z"/><path d="M283.01,84.68c-.63.69-1.1.78-1.39.31.42-.39.59-.67.76-.76.31-.16.94.1.63.44Z"/><path d="M274.12,99.69c-.71.67-1.03.75-1.15.07.26-.68,1-.64,1.15-.07Z"/><path d="M118.69,99.74c-.11-1-.3-14.68-.2-15.99.22-2.73.11-5.3.16-8.05l.14-7.32c.05-2.57-.76-7.28,2.15-7.25l7.04.09,28.62-.03,38.13-.09c1.5,0,2.85-.15,4.1.47.66.72.67,1.58.66,2.58l-.1,19.99.11,14.18c0,1.15-.02,2.28-.43,3.18-1.79,1.34-3.67,1.3-5.86,1.31l-44.59.02-26.19-.04c-1.94,0-3.51-.99-3.74-3.03Z"/><path d="M173.64,63.26c-1.1-.22-1.35-.17-1.49.14s-.08.65.53.89c.47-.36.94-.68.95-1.03Z" fill="#fff"/><path d="M152.61,65.39c-.99-.38-1.87-.41-2.59.05.99.38,1.87.41,2.59-.05Z" fill="#fff"/><path d="M172.2,65.39c-1.35-.38-2.53-.42-3.61.04,1.35.38,2.53.42,3.61-.04Z" fill="#fff"/><path d="M171.14,66.95c-1.19-.44-1.76-.49-2.05.09.9.21,1.52.31,2.05-.09Z" fill="#fff"/><path d="M158.64,68.92c-2.73-.4-5.18-.42-7.63.02,2.73.4,5.18.42,7.63-.02Z" fill="#fff"/><path d="M170.18,68.9c-.99-.38-1.87-.41-2.59.05.99.38,1.87.41,2.59-.05Z" fill="#fff"/><path d="M150.84,101.38l18.85-.1c-2.55-9.8-2.25-18.53-.51-28.57-2.13-.35-4.17-.39-6.27-.36l-10.74.15.9,7.23c.3,8.29.3,13.54-2.22,21.65Z" fill="#fff"/><path d="M120.1,90.45c2.63-5.62,3.1-12.07.12-18.03-.98,1.91-.11,3.84-.31,5.81.1,4.09-.47,7.89.19,12.23Z" fill="#fff"/><path d="M198.07,88.28c-.84-4.96.36-5.25-1.02-8.2-.53-1.14.16-2.41-.59-3.41l-.71,3.65c-.57,2.94.62,8.03,1.74,10.48.67-.86.73-1.62.57-2.51Z" fill="#fff"/><path d="M172.69,100.93c-.71-.67-1.03-.75-1.15-.07.25.68,1,.64,1.15.07Z"/><path d="M247.83,77.25c1.49,10.49-4.36,19.64-15,21.82-4.49.92-9.08.48-12.97-1.9-1.52-.93-4.58-2.91-5.44-4.39-3.78-6.52-5.09-12.85-1.31-19.92,4.49-8.42,14.99-11.71,23.58-8.31,3.57,1.41,3.03,1.86,5.88,3.54.45,0,.06-.75.07-1.24,2.73,1.4,6.47,8.27,6.16,11.42-.36-.28-.15-1.08-.96-1.01Z"/><path d="M228.39,64.94c-1.19-.44-1.76-.49-2.05.09.9.21,1.52.31,2.05-.09Z" fill="#fff"/><path d="M230.9,64.94c-1.19-.44-1.76-.49-2.05.09.9.21,1.52.31,2.05-.09Z"/><path d="M239.34,68.23c-.9-2.3-3.04-2.26-4.71-2.97l-2.27-.54c-.62-.15-1.35,1.05-.65,1.14,3.04.42,5.05,1.32,7.64,2.37Z" fill="#fff"/><path d="M231.24,65.83c-1.25.37-2.12-.71-2.87.11.94.34,1.7.58,2.64.78,1.08.16,1.15-.79.24-.89Z" fill="#fff"/><path d="M224.3,67.19c.98-.67,1.98-.33,3.15-.72-1.1-.84-2.2,0-3.79.22-.57.31.05.61.65.5Z" fill="#fff"/><path d="M233.8,66.73c-1.09-.35-1.67-.09-1.16.45.84.08,1.46,0,1.16-.45Z"/><path d="M231.01,70.01c2.37.08,4.42,1.03,6.1,2.24-.32.93-.84,1.65-.98,2.62-.05.36.78,1.01,1.25.89.92-.24,1.36-.96,2.11-1.3,2.91,1.89,3.15,5.75,4.87,8.32.82-5.41-3.52-10.64-7.86-12.76-5.91-2.88-12.29-1.88-17.34,1.87-3.15,2.33-5.57,5.74-5.18,9.9.88-2.26,1.71-4.37,3.26-6.37.34-.44,4.59-4.66,5.38-3.84-.43.39-.18,1.88.6,1.89,1.23.02,2.27-.73,3.68-.94l-1.21-1.94c-.26-.42,1.14-.75,1.69-.73l3.65.13Z" fill="#fff"/><path d="M244.99,70.64c-.03-1.13-.5-1.28-.96-1.47-.26.81.2,1.41.96,1.47Z"/><path d="M231.5,73.27c-.19.66.02,1.13-.36,1.43-.65-1.05-.8-1.92-2.1-2.79-.37,1.29-.13,2.3-.07,3.4,1.12-1.31,5.27,2.28,4.47.14-.08-.21-1.57-1.98-1.94-2.18Z" fill="#fff"/><path d="M233.74,74.17c-.08-.7-.39-.99-.8-.95-.15.78.17,1.19.8.95Z"/><path d="M248.01,75.54c-.28-.53-.55-.3-.62.29.09,1.17.69,1.01.62-.29Z"/><path d="M217.05,85.33c.49-.73.35-1.79.2-2.43s-1.12-.63-1.45-.46c-.03.02-2.04,2.3-1.18,2.98.51.4,2.13.36,2.44-.1Z" fill="#fff"/><path d="M243.28,88.71c.72-1.53,1.28-2.72,1.17-4.26-1.13.08-2.48,0-3.42.85-.69.62-.46,2.28.31,2.52.86.27,1.38.49,1.94.89Z" fill="#fff"/><path d="M216.05,89.65c.56-.24.36-1.07.09-1.35-.19-.19-.41-.82-.96-.17.43.58.63,1.1.87,1.52Z" fill="#fff"/><path d="M241.4,89.24c.13-.51-.43-.63-.71-.48s-.43.45-.14,1c.18.03.31-.21.85-.52Z"/><path d="M233.61,96.85c.31-3-1.48-1.35-4.21-1.67-.87-.1-1.37.46-1.41,1.04-.12,1.65,3.9,1.15,5.62.63Z" fill="#fff"/><path d="M106.7,85.73c-1.69,6.67-5.18,10.52-11.79,12.95-5.27,1.94-10.8,1.08-15.66-1.47-8.91-4.69-11.8-14.49-8.47-23.46.57-1.54,1.4-2.47,2.35-3.64,6.54-8.05,16.79-8.36,25.83-3.82-2.65-3.28-6.68-3.9-10.84-3.59-1.14.09-1.15-1.25-.05-1.01,1.59-.51,2.62.49,3.77.63,2.87.35,6.83,2.05,8.93,3.97.69.63,1.57,1.04,2.22,1.76,2.03,2.27,3.35,4.77,4.5,7.56-1.87.13-.4-3.32-2.29-1.98,2,3.97,2.57,7.93,1.51,12.1Z"/><path d="M86.26,65.66c.98.01,1.72.13,2.05-.98-1.24.09-2.33-.26-3.46.08l-3.85,1.16c-.93.28-1.73.94-2.32,1.66,2.28-.42,4.14-1.98,7.58-1.93Z" fill="#fff"/><path d="M93.48,65.62c-1.3-.07-1.45.53-.28.61.58-.06.8-.33.28-.61Z"/><path d="M91.36,66.4c-1.88-.39-3.52-.42-5.12.03,1.88.39,3.52.42,5.12-.03Z" fill="#fff"/><path d="M95.48,66.12c-1.3-.07-1.45.53-.28.61.58-.06.8-.33.28-.61Z" fill="#fff"/><path d="M80.37,68.71c1.77-1.25,3.36-1.35,4.95-1.75-.19-1.04-4.61.83-5.21,1.06-.46.34-.37.72.26.69Z" fill="#fff"/><path d="M100.61,67.59c.09-.81-.84-1.26-1.15-.75-.19.32.95,1.17,1.15.75Z" fill="#fff"/><path d="M84.22,73.51c-.1-.86-.95-1.26-1.44-1.87,1.06-1.94,12.4-1.92,12.77.39.15.93-1.76,2.01-.03,3.03.4.23.74.69,1.07.62.7-.17,1.02-2.01,2.03-2.04.51-.01.96.12,1.47.71.65.77,1.21-.24.4-.61-5.54-4.84-8.26-5.53-15.04-4.86-7.93.79-14.61,9.17-12.48,17.1.71.54,2.3.1,3.12-.39,1.13-.69,1.39-2.75.55-3.66-.95-.22-2.16.25-3.2-.16.49-2.61,4.07-8.97,6.74-8.85.3.5.32,1.72,1.15,1.74,1.02.04,2.21-.39,2.89-1.14Z" fill="#fff"/><path d="M78.64,69.62c.31-.34-.32-.6-.63-.44-.17.08-.34.36-.76.76.29.46.76.38,1.39-.31Z"/><path d="M89.95,75.25c.83-.79.29-1.83-.16-2.17-.39.46-.41.96-.88,1.17-.79-.94-1.07-1.67-2.01-2.04-.44,1.1-.98,2.3-.51,3.31.46.5,1.12-.41,1.54-.58.46-.19,1.28,1,2.02.3Z" fill="#fff"/><path d="M91.77,76c1.08-1,.7-2.31-.35-2.83-.11,1.06-.46,1.87.35,2.83Z" fill="#fff"/><path d="M79.42,75.66c-1.3-.07-1.45.53-.28.61.58-.06.8-.33.28-.61Z" fill="#fff"/><g id="CasetteholdersCenter"><path d="M227.87,94.33c2.28,0,4.27-.34,6.5-.85.22.84.03,1.47.62,2.51,1.63-.34,2.94-1.4,4.04-2.69,1.69-1.98-1.44-2.5-1.03-3.96.69-2.44,2.32-6.24-.75-8.92-1.24-1.08-2.75-1.73-4.16-2.49-3.17-1.71-6.81-1.53-10.08-.19-8.01,3.28-1.94,9.16-6.13,10.28.97,1.16,3.14,3.88,3.4,4.36l1.41,2.59c.24.44,3.61,2.39,4.93,1.84.81-.34.1-2.48,1.25-2.48Z" fill="#fff"/><path d="M89.73,94.64l5.69-1.89c.89-.3,1.43,1.06,1.73,1.82,1.4-1.08,2.75-2.34,3.47-4.33-.43-.68-1.43-.86-1.67-1.54-.11-3.1,3.04-7.02-1.14-9l-2.45-1.16c-5.95-2.82-7.67-2.34-13.73.52-5.36,2.52-2.1,6.65-3.16,8.11-.75,1.04-1.42,1.18-2.73,1.2.38,1.46,1.16,2.6,2.23,3.68.52.52,1.23-.5,1.66-.47,1.59.95,3.67,1.84,4.96,3.17.43.44-.24,1.95.64,2.17,1.45.36,2.96.61,4.26.13.54-.63-.14-1.86.25-2.42Z" fill="#fff"/></g><path d="M103.44,78.76c-.11-.63-.56-.63-.67,0,.07,1.16.6,1.16.67,0Z" fill="#fff"/><path d="M100.76,80.38c-.67-1.27-.84-1.43-1.02-.11.19.68,1.17.59,1.02.11Z" fill="#fff"/><path d="M101.78,88.12c1.33,2.02,2.72-3.71,2.44-4.23l-2.84.88c-.03,1.11-.35,2.21.4,3.35Z" fill="#fff"/><path d="M79.95,94.55c-.65-.32-.64.23,0,.5,1.11.47,2.05,1.68,3.14,1.49.6-.11.48-1.52.09-1.81-1.52-1.15-1.87,1.6-3.23-.17Z" fill="#fff"/><path d="M94.98,94.85c-.26-.73-.84-.79-1.17-.32.62.41.51.72.53,1.33.02.69.49.21.76-.07.24-.25.11-.29-.12-.95Z" fill="#fff"/><path d="M93.09,95.04c-.32-.46-1.21-.13-1.88.06-.76.21-.68,1.05-.47,1.5.4.87,2.56.03,2.6-.04.18-.29.18-.88-.25-1.52Z" fill="#fff"/><path d="M189.4,59.16c1.53,0,6.76.16,6.39.95l-66.27.04c-.6,0-.92-.52-1.04-1.02,4.15,0,6.44.04,10.58.04h50.35Z"/><path d="M91.95,101.89c-1.13,0-1.44-.34-.37-.8,4.71-.78,5.4-1.45,8.92-3.55,2.91-1.74,6.54-6.73,7.35-9.84.67-2.58.7-6.32,1.55-3.22-1.3,5.14-.7,4.41-3.45,8.39-1.12,1.63-2.36,2.73-3.92,4.02l-2.25,1.87c-1.16.96-4.56,2.51-4.5,2.51-1.07.07-2.08,0-3.33.63Z"/><path d="M117.49,84.26c.43,4.01.56,4.2.42,8.52-.42-.13-1.02-.52-1.01-.98l.23-19.15.37,11.61Z"/><path d="M216.42,67.19c-1.14.62-3.97,4.41-4.96,5.63-1.29-.81,4-5.59,4.46-6.06,3.72-3.84,13.12-7.03,17.57-4.19-8.05.45-5.13-.9-12.18,1.47-2.53.85-3.02,2.14-4.88,3.15Z"/><path d="M200.7,91.24c-.56-2.21.62-4.8-.08-7.88-.29-1.26-.05-1.98.02-3.26l.26-4.89c.83-.89,1.33,0,.43.67l-.1,16.8c-.26.21-.59-.35-.76-.41-.41-.16.33-.65.23-1.02Z"/><path d="M202.26,75.2c2.03-.9.64,9.89.2,11.09l-.2-11.09Z"/><path d="M211.74,92.29c-1.34-.17-3.72-9.14-2.71-9.53.16-.06.67.44.68.63.38,4.76.68,3.9,2.03,8.9Z"/><path d="M225.84,101.58l-2.28-.44c.23.04-7.89-2.75-5.4-3.26,2.6,1.63,5.2,2.52,8.24,2.98.55-.08.63.43.49.71s-.55.5-1.05.01Z"/><path d="M115.67,93.32c-.43-4.28-.42-8.55-.01-13.14.43,4.28.42,8.55.01,13.14Z"/><path d="M235.98,100.04c-2.37,1.31-5.07,1.68-7.64,1.02l4.41-.42c1.06-.1,1.86-1.36,3.22-.6Z"/><path d="M72.35,92.3c-.25,2.28-3.4-4.29-3.23-4.52,1.38.04,1.37,2.72,3.23,4.52Z"/><path d="M68.43,78.2c-1.12-.94,3.05-10.53,4.46-9.37l-2.24,3.25c-1.44,2.1-1.18,3.68-2.22,6.12Z"/><path d="M246.7,91.28c-.28.56-.64.6-.87.01,1.56-1.59,1.64-5.54,2.65-3.79.19.34-.13.53-.33.91l-1.46,2.86Z"/><path d="M116.18,78.27c-.45-1.95-.42-3.9-.03-6.13.45,1.94.42,3.9.03,6.13Z"/><path d="M69.28,86.1c.06,1.09-.47,1.51-.64.43-.59-.92-.66-1.8-.22-2.84.42.58.37,1.37.85,2.41Z"/><path d="M216.36,96.55c.5.39.6.66-.03.89-.7-.48-1.08-.98-1.56-1.49.81-.47,1.03.1,1.59.61Z"/><path d="M89.85,101.04c-.9.47-1.92.43-3.1.05.9-.47,1.92-.43,3.1-.05Z"/><path d="M213.13,94.86c.19-1.66-.64-.52-1.32-1.8-.12-.23.42-1.02.73-.69.77.82,1.13,1.65,1.92,2.26-.61.7-1.05.88-1.34.23Z"/><path d="M127.96,59.42c-.53.4-1.15.3-2.05.09.29-.58.85-.53,2.05-.09Z"/><path d="M116.64,70.68c-.4-.53-.3-1.15-.09-2.05.58.29.53.85.09,2.05Z"/><path d="M201.5,73.19c-.4-.53-.3-1.15-.09-2.05.58.29.53.85.09,2.05Z"/><path d="M164.81,89.73c-.25-1.7-.36-3.52-.09-5.48l.63-4.57c.44,1.74.47,3.62.17,5.56l-.71,4.49Z"/><path d="M162.89,86.79c-.47-.71-.44-1.59-.05-2.59.47.71.44,1.59.05,2.59Z"/><path d="M161.33,82.73c-.4-.53-.3-1.15-.09-2.05.58.29.53.85.09,2.05Z"/></g></svg>