<svg xmlns="http://www.w3.org/2000/svg" viewBox="0 0 565.5 555.4"><path d="M155 555H20q-7 1-13-3-7-5-7-14V426l2-18 21-105 20-101 14-74c3-11 4-24 17-24l7-1-23-57-10-24q-4-9 1-19 3-3 9-3h451q7 0 9 5 4 7 1 15l-4 12-29 72h11q7 3 10 10l29 152 27 134 2 17v120q0 10-8 16-5 3-10 2zM206 6h305l5 2-3-6H56l-3 2-1 4 2-4-1 3h10zm312 3q0-5-4-5zM406 115h10v-1l-1-1h-9l-3 7 2-7c3-1 10-2 11 0q3 4 0 10h50l1-1c1-1-6 0-11-1l-2-5 10-29 4-2h11v2c0 1 5 1 4 5-3 10-3 4-2 19l37-94-1-5q-3-4-9-4H59l-6 1q-6 2-4 8l38 97v-14l-2-8q-1-2 1-5l3-2h15l11 30q0 4-3 6h-10v2h53c0-2-2-10 1-10l9-1c2 0 4 8 4 10-3-3-1-9-5-9h-7l-2 1 2 1h8l2 9 3-1h234zM103 86H88v1zm375 0h-12l1 1h1zm-368 21-7-21zm-3-5-5-14H90l11 32h12zm360 18 9-24 2-8h-11l-11 32zm-358 73q-2-5-3-11l3 6-2-6 2 1-1-6 2 5-1-4-1-5c2 0 0 4 3 6v-5l1 2-5-16-2 2q-4-10-6-22l1-17-1-5-7-17-1 38-1 19v-46l1-10-1-4-3-9-2 1q-1 1 1 2l3 7v25l-1 34q1 3 4 2v-13l1 13 10 27 2-12v-4l1-2 1-3 1 7-1-2v4q1 0 0 0l-1 1v6c-2 0 1 7 2 11l4 1c2-1-1-9-1-11l-1 3v4l-1 1zm332-7 4 1-5 1h10l-9 1 2 1-2 1 1 4 8 1h-8l2 12q1 3 3 3h16l-2-8q3-6 2-11l-3 6c7-20 2-4 1-19h-1l2-8-1 1v-6q3 3 2 9l2 11 11-31 1 5 2-1 1-2v-10l-1-41q-1-7 2-13v-4l-4 11 1 7 1 43q1 5-2 9l1-8-2-50c-11 27-7 14-6 36l-1 7-3 9c-2 5 0 3-4 10l-2-3-4 15v2h1l1-2 1 9 1 9 1-4-2 7 1 5c-2-1 0-4-2-7q-5 1-5-3l-2-11-11-1v2h8l-8 1 9 1h-9zm20-85 3-8zM59 141l6-28q3-6 9-7h8-13q-7 4-8 12L34 255l7-30zm473 115-12-64-9-46-6-28c-1-6-5-13-10-12q7 3 7 10l8 37 10 44 7 38zM30 329q3-1 3-4l1 1q4-3 9-2l2-16 19-92 8-42 5-24q2-8 9-10l1-22-5-11h-8q-5 1-8 6l-15 73-27 134-3 15 5-4 5-24q0 12-4 23c4 2 4-14 5-16zm505-2-4-22 4 20c0 4 7 5 10 10l-2-13-7-34-28-136-7-37q-2-6-7-7l-9-1q-3 5-4 10l1 23q6 3 8 9l7 38 7 32 9 44 11 56 1 4 7 2v-3q1 4 3 5M159 157h8l-2-7q-1-12 1-26l-2-8h-9l3 10h8q-4 2-8 1-3 16 1 30m254-30 4-11h-10l-2 6 1 5zm-258 12 2-14h-56v14zm249 0-1-14H169l-1 14zm64 0-1-14h-52l1 14zm-63 18h7q4-15 1-29h-7q2 14-1 29m1-12v-12zm-238 12-1-6-1-15c0 5-1 17 2 21m-13-12v-4h-54l1 5 12-1zm249 0-1-4H168v4zm62 0 2-4h-52v4zM64 261l19-99c2-9 4-5 3-12v-5l-2 2 2-2v-3l-6 3-5 22-9 45-19 96-3 15 9 1zm447 33 5 30 7-1-35-172q-1-6-6-9v7l2 6 4 18 16 87zM104 150l44-1h7l1-2h-54l1 5h53v-2zm300-1v-2H170l-2 1 1 1zm61 0 1-2h-49l-1 1 1 1zm-62 3v-2H168l1 2zm37 0h24v-2h-48l-1 2zm-37 5 2-5-2 3zm49 21 4-11 4-12 3 2 1-3h-8l-6 23 1-1 5-16c0 6-5 11-4 18m-332 0-6-23-1-1h-1l4 15-5-15h-6l-1 1v1l1-1 1 2 1-1v-1l2 4 6 19zm3 0-6-23-1-1-1 1 5 19q0 4 3 4m67-6q-2 3-1 5l6 1-1-7 1-8c-6-1-4-5-5-9h-19v6l-3 2q-5 1-8-1-2-3-3-7h-39l6 23 2 1v-1l-4-13-2-9 6 20 1 3q3-3 2-7l-4-16 5 16 6-1h43q7-1 11 2m19-16c0-3-10-2-10-1q6-1 10 1m37 7h3l2 4 2-4h3l2 4 1-4h3l2 5 1-4 1-2q2 0 2 1l3 8-1-5q0-4 3-4v-8h-56l-1 8 2 2 1 6 2-7 1-1 2 1 1 5 2-5 2-1 1 1 2 6 1-6 3-1 1 2 1 4 1-4 3-2 1 2 2 4zm45-2 3-7h-19q0 4 2 7zm162-5-5 16q0-9 4-16v-2h-1c-1 0-4 16-6 19l5-19-3 1-1-1h-8l-1 2-1-2h-21l-5 9v-1c-1-1-7 1-10-1l-1-7H295v8q-1 3-5 4v9h5l1-4 3-1h98l1-3v3h38v-1q3 4 3 8h10l1-5 5-17q0-2-2-1zm-242 4q-3-5-8-4-4 0-7 4 7-6 15 0m291 131 6 32h7l-5-24-27-140-1-2-3 5q-2 3-1 5l1 9 13 66zM63 310l9-48 18-92q2-5-2-9l-2-3-12 62-20 104h7zm146-150q-5-5-12 1 5-3 12-1m85 1c-1 2-19 2-20-1-1 2 5 6 7 6l7-1c-1 0 8-1 6-4m-87 1 3 1q-5-4-11-2zm257 42 4-11-1-4 7-18 4-10h-2l-1 2-9 25c1 10-5 9-3 18l1 6c2-3-1-5 0-8m-361-3-1-12-9-27-2-1v1l4 11 4 15q1 7 4 13m108-34c-1-6-14-6-15-1q8-5 15 1m3-4h-2v9zm3 2-2-2 3 14 2 1 1-1c-2 2-4-12-4-12m21 9q0-6-3-11l3 15q2-3 0-4m-11 2-2-1-2-12-1 1v1c2 17 5 11 5 11m6 1-2-6q0-5-3-8l3 14zm10-10q1-3-2-3l3 12 1 2c2 1-1-9-2-11m9 8c-3-4-1-8-4-12l2 13 1 2 1-1zm6 1-2-11-1-2-1 1c2 2 2 15 4 14zm7 0-2-4q0-5-3-9l3 13 1 1zm4-6-1-6h-2v1q2 10 4 13c2 1 0-5-1-8m6 8q1-8-3-14 0 7 3 14m-65-9q-6-8-14-1 8-3 14 1m16 4q3-3 2-8zm20 0 1-8q-2 4-1 8m13-2q2-3 0-6zm6 0q2-1 0-6zm13 4v-10q-2 1-1 4zm-64-3 1-6q-2 3-1 6m7 4v-10q-2 6 0 10m12-3q2-3 1-7-2 3-1 7m6-2q4-2 1-5zm14 2v-7zm36-6-10 1zm-80 4c-1-5-13-3-14 1q6-6 14-1m79 0-1-1h-8l-1 1 1 1zm207 136v7l1 3 2-6c0 6-4 7-1 13l1-3 1 3 2-5-1 4h1l1-1 1 2v-3l1 2h2l-1-4-1-5-4-22-9-44-8-44-1-7-3-15-3-13-5 17q-2 5-1 9l5-17c0 4-6 20-4 21l2-9 3-8c1 5-8 23-4 24l1 5v-2l1 2 3-12c2 2-4 12-1 15l2-5-2 6 17 88 2-5-2 9q1 2 2 0M202 173l-2 2 2 3 4-1h8q3-2 1-5l-1 3-4 1-5-5q-7-1-9 4l1 4q5 5 12 1c-1-2-9 2-10-3q-1-4 3-5 5 0 5 4-1-3-5-3M74 300l2 2 9-51 4-1-1-5-1 4q0-14 4-28c-1-3 2-8 1-9l-4-21 5 19 1 2 1-1c-2-4-4-13-4-19l4 18c4-15-1-12-1-24l3 12c1-5-4-14-3-19l1 8 3 6c1-4-4-18-6-22l-5 24q2 6 3 13l-3-12-3 15-17 89v2l-3 14q-2 4 2 8v-4c0 2 2 6 2 1l2 3-1-7 3 7-1-6 1 2h1l-3-9 3 6c2-4-3-11-3-13l4 8v-5q2-3 0-7m30-48H87l-13 72h59l3-8 11-23q3-6 8-6h256q7 0 10 6l15 30h58l-15-84-5-23q0-3-3-3h-23q-5 0-6-5l-5-36H297v15q-4 4-7 4h-10q-5-1-8-4v-8l-4-1q0-4-2-6v5l-2 2-2-2-1-5c-1 2-1 7-3 7l-2-2-1-6-1 6-2 2c-3 1-3-6-4-7l-1 5-2 2-2-2-1-5-1 5-3 2-1-2-2-5-1 6-2 1-2-2-1-5-2 7q-4-1-4-4l-4 4-1 9-2 2h-14c-5-1-17 1-17-3l2-15h-55l-4 19-3 19-4 3H94l-4 23v2l19 1c2 3 1 13-5 13m185-67v-12h-10l1 12zm-171 9h7l2-9h-8l8-1h-8l8-1-8-1 9-1h-9l9-1-9-1c-5 0-2 9-5 14q-2 3-6 2l-1 5-2 6-1-3-2 9h17l5-1 1-16zm-3-14q-2-1-3 2l2 3zm340 13 2-4-2-7 2 5-1-6-3 1 1 4 1-3v6l-1-1q-1 3 1 5m-348 1-2-8v3zm181-7h-8zm-180 55-2-1H93l-2 2c4 1 9-2 17-1m98 50h209q2-1 1-3H161l-9 1q2 2 5 2zm-55 2q2-1 1-3h-2q-1 2 1 3m283 29-3-7-11-23-3-3-1 3 8 16 5 12 2 2zm-288-19 5-10-2-1-15 30 3 1 1-2zm29-6 2-4h-22v3l-1-3-2 2-13 28h28q1-9 10-13zm71 25 28 1q4 7 12 5 4-1 6-5l73-1q-1-7 5-12 4-3 10-3l2-11 2-3H181l2 3 2 12q15 1 14 15h16q1-10 10-13v-11q1-3 4-4 4-1 5 2c3 8 0 12 4 13q9 3 8 12m176-1c-4-7-2-23-8-28h-26c5 4 1 8 1 15q10 3 11 14h29l-9-19q0 9 2 18m-243-23 3-2-3-2-2 2zm209-2q-1-2-4-1 0 3 2 4 2-1 2-3m-155 2q-4-3-5 0v2h4zm-54 17q4 2 6-1l-3-16-5 1zm203 0h3l2-3 1-9v-3l-5-2-1 8 2-6-1 7zm-149 2v-7l1 6v-16q-4 3-8 1l2 15q2 2 5 1m140 4 1 1 1-6 2-6q-10 2-11 12h6l1-6zm-180 2h5q0-11-10-13l2 4q4 3 3 9m202-3q0 2 1 2h2l-1-4v2q-2-7-9-10l3 5c3 6 0 8 2 8l2-1zq0-1 0 0m-222 2q1-6 4-11c-4 0-12 12-7 11v-3l1 3zm5-4q5 3 9 0l2-4-2-3-1 5-5 1q-4 0-4-5-3 4 1 6m46 5 15-1v-3l1 3h2c1 0-2-5 0-5l1 5h2q-1-8-9-11c-1 2 4 4 2 7q-3 4-8 4-4 0-6-4 0-3 2-7-8 4-8 12l1-3 1 2h3zm164-10q0 4-4 5l-4-2-1-5q-3 1-2 5 5 6 11 2 4-3 0-5m-151 4-1-3q-1 5-5 5-3 0-6-4v3c2 4 12 2 12-1m-46 5q1-4-1-6 1 4-2 6zm-13 1h8q3-2 3-5-5 5-12 2zm210-2c-6 0-6 1-11-2q0 2 3 3c12 1 6-1 8-1m53 102h104v-15l1 5v10c2 7 2-11 2-12v-7 19h6v-16l1 6v9q6-3 4-10l-12-74-4-2v5l4 18-1 1-4-24q0-3-3-3l2 12c-3-5 0-14-6-15l3 13q-1 3-1 1c-1-5-1-15-4-16l-1 1q0-5-5-5H293q-3 7-10 7c-7 0-8-2-11-6H38l-12 9-1 9 1-8c-3-2-3 11-4 13l1-12-4 5-13 74q1 5 4 7 0-18 5-35c1 3-9 38-2 36q0-15 3-28-2 13-2 28h3v-18c1 0-3 23 3 18q-2-12 1-24l-1 4v20zm114 3q6 0 8-7l-3-21-7-37 5 32 3 21q1 8-6 12m-542 0-7-4q-3-5-1-9l6-34 2-16-11 53q0 5 4 9zm535 119V429h-11l-3 2v122h13l1-3 1 2-1 1q5-1 10-3 5-4 5-12V425l-8 4v65l-1 46q0 6-3 11l2-8v-82l1-32h-4v103l-1 6q1 5-1 8M9 458l1 76c0 3 0 20 4 18l-1-21V429q-6 0-11-3v111l1 5q2 8 8 9-4-7-3-15v-99l1-8zm73 86-1 2 1 2h2v-3l1 1 2-1v2l2 1 1-2-2-2q0 1 0 0l1 1 2 1 1-1v2h3v-2h3l-1 1 3 3q2 2 3 1v-2l-2-1-1-2-1-1 3 2 2 2 2-1v-2l4 3q1 0 1-2l-1-2 2 2h1l2 2 2-2-2-3 6 5 2-3h1v-7l1 6v9q3-1 3-5V434q0-6-4-7H46q-6 1-6 7v112q0 5 4 7v-12 12h10l-7-7 4 2 1-2-2-2 5 4 2-1v1l-1 1 4 4 2-1-1-2-4-4 6 4h2l-1-3 5 4 2-2-4-4 2 1 1-1h1l-1 2 2 1 4-3-4 4 2 2 2-1v-2h2l2 3 2-2-4-4 2 1zq2 0 0 0m141 9c2 0-1-8 1-10zq4-2 3-6V432q0-4-5-5h-78q-3 1-4 4v116q0 3 2 6l1-8v8zm99-10v10q4-2 3-5V432q0-5-5-5h-78q-4 3-4 8v113q0 4 3 5h80zm198 1v9q4-2 3-5V431q-1-4-4-4h-80q-3 1-3 6v115q0 3 3 5h80zm-104 3 5-73 2-40q2-4-2-7l-80 1q-4 1-3 7l7 112q-1 4 3 6h66q2-2 2-6m-388 6-1-100v-24H14l1 37v64l1 23zm312-28v28h4q-2-7-2-15l-2-37-1-7v-8l-1-13-1-10v88l1 2 1-1v-26l-1-18v-14l1 9zm79 28h5v-89l-1 9-2 36-2 36zm-300-2-1-1 1-1-1-2-2 1 4 5 2-1-1-3zm5-1v-4q-3 2-2 3zm-69-1-2-2-1 2 1 2zm32 0-2-2-1 2 1 2zm3-2v3h2l1-1zm8 2-2-2q-2 2-1 3l2 1zm9-2-1 2 1 1 2-1zm3 3h3l1-1-2-2zl-1 2 2 1 1-1zm-55 0-1 2 2 1 1-2zm14 3-3-3-2 3zm10-1-2-2-2 2q3 2 4 0m4 1 2-1-2-2-1 1-1 1zm11-3-2 2 2 1 1-1zm10 0-1 2 2 1 1-2zm13 2-2-2-2 1 2 2zm-43 1-2-3q-2 0-2 2zm14-3-1 2 2 1 1-2zm11 0-1 2 2 1 1-2z"/><path d="M455 208q-4 3-9 0-3-2-2-6 2-2 5-3 4-1 6 2 3 3 0 7m-3-4 1-1-2-2-3 3v-3l3-1-5 1v3c2 3 8 4 9 0q0-4-3-3l2 2-1 2z"/><path d="M452 204h-2l-1 2q-1 0-1-2 0 2 2-1zm64 159-74 1q-9 0-10-9v-13q1-10 10-9h75q6 2 8 9c0 8 2 21-9 21m-53-15q3-4-1-7h-7q4 4 7 1zm12-7h-7q4 5 7 0m11 2q3 1 7-2h-7zh-2l1 6q2-2 1-5m19-2h-7q4 5 7 0m-49 5q1-3-2-4v6h2zm11 2q3-4 0-6zm9 0v-6q-4 3 0 6m17-6q-2 2 0 6zm5 6q2-4-1-6zm8 0v-6q-3 4 0 6m-52 8q5-3 0-7zm10-1-1-6q-2 4 1 6m3 1q4-4 0-6zm9-1v-6q-3 4 0 6m9 0q3-3-1-5zm9 0-1-6q-2 4 1 6m12 1q-5-2-8 0 2-4-1-6-1 3 1 6zm0-1v-6q-4 4 0 6m-43 1q-5-3-8 1zm13 1q-5-4-8 0zm17-1q-5-3-8 0zM78 392l-17-1q-5 0-7-6v-38q1-6 8-7h40c3 0 5 5 5 7v38q0 5-6 6zm21-3q5 0 5-5v-35 3-6q0-3-4-4H59l-2 5v39l1-13v12c0 6 6 4 14 4zm337-60H330l-23-1h201l-23 1zm-47 81-3 9h-3l-3-14h3l2 9 2-9 2-1 1 2 2 8 3-9h3l-4 14-3-1zM22 422v-12l6-43q3-19 8-38l-13 84zm342-3c-2 0-2-7-5-5l-1 5h-3v-15h7q4 1 4 3 1 4-2 6l3 6zm-1-11-4-1v4h4zM75 419c-1 0-2-6-5-5q-1 3-1 5-2 1-3-1v-14h7q3 1 4 4t-2 5l3 6zm-1-11-4-1v4h4zm402 9-5 3-5-2q-4-6-1-11 3-3 5-3 4 0 6 3zm-3-8-3-2-2 2q-2 6 2 8 5-1 3-8m-181 3q0 7-6 8-8 0-7-8c1-8 2-8 6-8s7 3 7 8m-3-3-4-2q-4 2-2 8l3 2q4-2 3-8m212 10h-8v-15l8 1q4 3 4 7 0 5-4 7m-1-12h-4v10l5-1q2-5-1-9m-240 13q-5 0-7-5h3l1 1q3 2 5 0c0-3-10-3-8-9 2-4 8-4 10-1l1 2q-2 1-6-2l-2 2c2 3 8 2 8 7q0 4-5 5m-171-7h-6v4h6l1 1-1 1h-9v-15h9l1 1-1 2h-6v3h6zm81-3q-2 5-8 4l-1 5h-3v-15h8q4 2 4 6m-4 1v-4h-3q-3 1-1 4zm26 6h-5l-2 2h-3l6-14 2-1 1 2 5 13h-2q-1 0-2-2m-1-4-2-5-1 5zm297 4h-6l-1 2h-3l4-13 3-2 2 2 5 13h-3zm-2-4-2-5-1 6zm-391 2 3 2 3-2h3q-2 5-7 5-6-2-6-8 0-5 4-7 6-3 8 2v2c-3 1-2-2-5-2-4-1-3 5-3 8m211-6c-1 7-8 4-8 5v3l-1 2h-2v-15l7 1zm-3 1-1-3h-4v4q2 2 5-1m75 3h-6v4h7v2h-10v-15h8l2 1v2h-7v3h6zm-176-85h5l51 1H103l53-1zm340 77v7l-4-28-8-56 3 15 8 53zm-334 0-5 9v5h-3v-6l-5-8h3l3 6 3-6zm66 14h-3v-12h-4v-3h11v3h-4zm123-71c0 6-8 6-13 5l3-9h8zm-3-1q-2-3-5-1l-1 5h5q2-2 1-4m30 6c-4 2-3-3-7-4-2 0-1 4-2 4h-3l3-9h9l1 3-3 3zm-1-6q-4-4-6 0zm-242 70v2h-9v-14h3v12zm228-73h3s-1 7-3 8q-5 4-10 0l3-9c4 0-1 5 0 8q3 2 5-1zm52 73h2v2h-9v-14h3v12zm91-9-1 14v-13l-1-7v-11l1 6v5zm-263-76q-7 6-15-1 7 4 15 1M30 349l3-18zm72-20H91zm432 12-1-7zm-150-97q0 7-6 10-14 9-27 2-9-6-8-16 1-7 7-11l3-12q5-6 13-6 11 1 12 10l1 8v3q5 5 5 12m-13-26-1-4q-4-2-9 0l-2 3 2 3c3 1 9 1 10-2m4 7v-1h1l-1-3q-1 0 0 0l2 1-4-5-2 3c-3 4-10 3-13-1l-5 4q9 10 21 4v-1zm-1 15v6l1-2-1-16q-9 6-19-1l-3 8 2-9-1-2-3 17q0 2 3 5l3-12-1 13q10 5 18 0v-14zm2 4q1-9 1-19l-2 3zm-2 6q-12 6-22-1 9 5 20 1l5-4q-13 11-27 0-3-2-3-7l-1 7-1-6q-1 7 4 10 13 10 28 1l-1-1 2-2zm-150-3c-4 12-22 16-33 9q-6-5-7-10 0-8 4-14l2-12q3-8 12-9 13 2 16 15v4q10 6 6 17m-16-29q2-2-3-5l-7 1-2 4q6 6 12 0m-15 10-1 14v-16l-1 15c0 6 15 13 24 4q4-3 3-8l-2-9-1-6q-1-4-5-6l-1 4q-5 4-11 1l-3 3 2-3-2-5q-4 3-3 7l1 1v1l3-1-2 2q10 6 20-2c-2 8-15 8-21 4m-3 19 3 5 3 2c6 3 16 2 21-3q5-6 3-13-3 13-18 13l6 1 6-2q-13 6-24-3m12 4-10-4q3 5 10 4m125-26h-86l-2 37q-2-4-1-8l1-25q0-6 5-5h84q2 18 2 37zm0 38h-76l-11-1h89zm85-69h-62zm70 89-5-32zm-4-6-1-4q-2-6-1-11l5 32zm-367 43-11 1 3-1h12z"/><path d="M371 261c-4 2-14 1-18-1l10 1zm116 48-3-16q3 7 3 16m-245-61v-12zm-39-54h-12zm14 64q-3 3-9 3zm-94 62-8 1q3-2 8-1m-38-19v-7zm341-95-1-8q2 4 1 8m-104 39v-9zm92-178q2-6 1-10l-4-2H164q-5-2-7 2-1 3 1 8l10 42q-4-9-6-18l-7-28c0-2 1-7 3-7h107l22-1h126c3 0 4 6 4 9l-11 42q-2 7-9 6H172q-4-1-4-3 4 3 8 2h220l8-2zM159 12H98l-7-1H69h208-37l-9 1zm322 0h-60l-29-1h103zM245 121h-36l-4-1h95l-14 1zm115-1h-17l-11-1h50q-8 2-14 1zM72 64 61 37l-5-15q-3-5 0-10-2 5 0 9zm375 39h-13l-9-1h28zm4 20-16-1h-10l25-1zm1-23h-30l13-1h8zm-293 2h-18zm-57-47 7-7q-2 4-7 7m93 65h-10zm10 0h-9zm218-18h-8zM223 519v-61l1-12v77zm-81-46v-14l1-8v74l-1-8zm79 75h-51q-4 2-7-1zm-17-117h-40l-12-1h65zm-1 120h-31c-4-1-9 2-13-1h56zm-2-21q-4 2-4 5l2 5q-5-2-3-9l4-3q5 0 5 3 2 3 0 7v-5zm-34 8 1-5q-1-2-4-3-3 1-4 3-1 3 1 6-6-3-1-9l5-2q3 1 4 4 1 5-2 6m51-29h-70zm-35 21q-4 0-5 5l2 5q-5-3-3-9 2-3 5-3 4 0 5 3 2 4-1 6 1-5-3-7m18-26h-8zm-15 0h-8zm254-43v69l-1 3v-78c3 1-1 3 1 6m81 12v26l-1 24v-87l1 10zm-6-42h-71l10-1h10q26-1 51 1m-10 78 6-1 6 1h-60 39zm-11 41-5 1-19-1h-5l-5 1-2-1h59zm11-2-7-1h-53 72zm-7-18-4 2v5l2 3q-6-2-3-9l3-3 5 1q4 5 0 9 2-5-3-8m-35 9q3-5-1-9l-4 1q-3 3-1 8-4-2-2-7 2-4 5-4 5 1 5 4 2 4-2 7m19-7-3-2q-3 0-4 3t1 7q-4-3-2-9 1-2 4-3 3 0 5 3v6zm-160-11v-67l1-13v88q-2-5-1-8m-5-91h-63q-2 1-5-1zm-16 121h-40l-16-1h75l-14 1zm12-4h-39l-9-1zm-72-31v-47l1-24v86zm63 17q-2-3-5-3-2 0-3 4l2 6q-4-3-3-8l3-4q3-1 5 1 4 4 1 8zm-38-1q-1-2-4-2-4 1-3 3-2 3 1 6-5-2-2-8l3-3 5 1q3 5 1 9zm19 5q1-6-4-7l-3 2q-1 3 1 8-5-4-3-9 1-2 4-3t5 2 0 7m18-28h-24l-21-1h59l-9 1zm-4-4h-10z"/><path d="m281 532-3 2 2-2h3zm126-102 5 1h-55l25-1zm-13 119h-35l7-1h43zm-27-12-2-3q-3-1-4 2t1 7q-5-2-3-8l3-3h4q4 5 1 10zm32 0q0-4-4-3-3 2-2 5l3 4q-4 0-4-3-2-6 2-9l5 2q3 3 1 8zm-16 0-2-3q-2-1-3 1-3 3 1 8-6-3-3-9l3-3 4 2q2 5 0 8zm27 14h-57 46l5-1zm-63 0-1-9v-7l-1-10v-18l1 8v10l1 10zm-5-81v-9l-1-7v-8q-3-9 2-14l-2 8 1 12 1 5zq1 2-1 1m68 44h-55l45-1h4zm9-44 1-6v-7l1-9v-12 22l-1 7zm-5 78c0-4 0-14 2-20l-1 12zm-77-235-7-1h-21 44-10zm-80 5v-9zm54-12v-9zm2-1v-9zm-52 4v-8zM35 280v-5l4-17 15-76q-2 18-6 34zm44-150-7 32 10-51zM24 332q1-9 3-17l3-15zm17-15 8-39zm38-200-4 15 4-20zm-6 3q0-6 2-10zm-19 62 2-9q0 4-2 9m6 323-1 1h-1c-1-1 3-2 2-3l-1-2c3 1 4 5 6 3v-2l-2-1v-2l-2-1-4 5 1 2-2-1-2 1 2 2 2-1-1 2 1 1h-2l-1-1-3-4h3l-1-2h-2v2h-2l-2 2-3-3 3 1q2 0 1-2l-1-1h-2v-3l1 1 2-2-1-2-4 4 1 3-1 3-1 19v-76l1 6 1-1 1 3q2 1 3-1l-3-3 3-3-5-6 1-1 2 3 2-3-3-3-1-1v-1l1-1v2h2l1-2-2-1-1-1 4-1-1 2 2 1 1 2 2 1 1-2-5-5 3 1q2 0 1-3h37l26 1h-1l-1 1 2 1h-2l-1-2-5 1-2-1-2 1 2 2 2-2-1 3 2 2 2 3 2-2c2-1-4-2-4-6l2 2 2-1-1 3 3 1 1-3h1l4 5 1 2-1 1v-2l-3-1 1-2-2-1-2 2q2 2 3 1v2q1 0 4 3l2-1v83l-1-10v-10h-1l-1 3-3-4-3 3-3-3-2 3c0 1 7-1 8 1H59h1l1-1-1-1 3-1-2 3h15l5-1-2-2-2 2-3-2-2 2-3-2-3 2-3-3-2-1zm0-73-4-1 2 3zm2 2 3-1 1-2c-4-1-7 3-7 4l4 3 1 1 2-1zm10-3-5 1 2 2zm5 0h-4l2 3zm1 1 3 2 1-2q-2-2-5 1l-1 2 2 2q1 0 1-2zm10-1h-4l2 3zm5 0h-4l2 3zm5 1h-3l2 2zm5 0h-3l1 2zm-46 3-1-2q-2 0-2 2l1 1q2 0 2-1m9-2q-2 1-1 3t2 1l1-2zm6 0q-2 1-1 3l2 1 1-3zm11 0-2 2 2 2 2-3zm8 2-3-2-1 2 1 1zv2l2 1 1-2zm3-2-2 2 2 1q2 0 2-1zm5 0-1 2 1 1 1-2zm5 0-2 2 2 1 2-1zm-46 3q-2 0-1 2l2 1 1-2zm11 0-1 2q1 2 2 1 2 0 1-2-2-2-2-1m5 0-1 2 3 1 1-2zm6 0-1 2 2 1 1-2zm5 0-1 2q1 1 3 1l1-2zm11 0-1 2 2 1 1-2zm5 0-1 2 2 1 1-2zm5 0-1 2 2 1 1-2zm-54 4-2-2q-2 0-1 2l1 1zm3-2q-2 2-1 3l2 1 1-2zm6 1-2 2 3 1 1-2zm16-1q-1 1-1 3l2 1q2 0 1-2zm6 1-1 2 1 1 2-2zm4 2 2 1 2-2-2-2q-2 1-2 3m7-3-2 3h2l2-2zm5 0-1 2 2 1 1-2zm10 5-4-4-1-1-2 1q1 2 3 2h1l-1 2 2 2zm1-1q1 0 1-2l-1-2-2 2zm-42-1q0-2-2-2v2zm4-2-2 2 2 1 2-2zm44 4 1-3-2-1-2 2 4 4 3-1-2-2q-1-1-2 1m-61 0-2-2-2 1 2 2zm40 0 2 1 1-2-1-1q-3 0-2 2m8-1q0-1-2-1v2q2 1 2-1m-43 0-3-1v3l2 1zm4-1-2 3 2 1 2-2zm9 3 2 1 2-2q0-2-2-2-2 1-2 3m7-3q-2 2-1 3h2l1-2zm5 0-1 3 2 1q2-1 1-3zm4 2 2 2 2-2-1-2zm23-2q-1 1-1 3l2 1 1-2zm-43 4 2-2-2-1-1 1zm-19-2-2 3 2 1 2-2zm50 3v-3l-2 1v3zm-42 0-2-2-2 1 2 2zm20-2-2 2 2 2 1-2zm5 0-2 2 2 1 2-2zm9 2 2 1 1-2-1-1zm14 1v-3h-3l1 2zm-43-1-2-2-2 2 2 1zm3-2-1 2 2 1q2 0 1-2zm8 1-2-1-1 2q0 2 2 1zm14-1-1 2 2 1 1-1zm22 3 2-1-2-2-2 1zm7 3 2-1v-2h-2v-2h-3c-2 2 0 0 3 5m3-6-1 3h2l1-2zm-15 4-3-2q-2 0-2 2t2 2 2-2m-49 5 2-2-2-2-1 1-1-3h-3l1 3zm38-5 3 2 1-2-1-2zm-33 1q-1-2-3-2l-1 2 2 1zm3-2-1 2 2 1 1-2zm5 0-1 2 2 1q1 0 1-2zm8 2-2-2-2 2 2 1zm3-2-1 2q1 1 2 1l1-2zm5 0-1 2 2 1 1-2q0-2-2-1m6 0-1 2 1 1 1-2zm15 2h3v-2h-2zm8-1-1-1q-2 0-2 1l2 2zm10 2v-3h-1l-2 1zm-25-1-2 2 3 2 1-3zm-11 0-1 2 1 1 2-2zm17 0-2 2 2 2 2-3zm7 2-2-2q-1 0-1 2l1 1q2 0 2-1m-63-2q-2 2-1 4h3l1-2zm13 9 1-2-1-1-2 1 1-2-1-2 2 1 1-2-1-2-2 2-3 3 2 2q2 3 3 2m7-6-2-2-2 1 1 2zv3h3v-2zm3-2-1 2 2 1 1-2q0-1-2-1m5 0-1 2 2 1 1-2q0-1-2-1m4 1 2 2 2-2-2-2zm12-2-1 3h2l1-2zm22 1-1 1 2 1 1-2zm5 0-1 2h2l1-1zm-12 2-2 2q0 2 2 1l2-2zm-24 2h3l-1-2zm6-2-1 2 2 1 1-2zm6 3q2 0 2-1l-2-2-1 1q0 2 1 2m6-3-2 2 2 2 2-3zm11 0-1 2 2 1 1-2zm5 0-1 2 2 1v-2zm5 0-1 2 1 1 1-2zm-68 3-2-3-2 2 2 2zm9-3-1 3h2l1-2zm10 0-1 3h3l1-2zm6 0-1 2 1 2 2-2zm8 2-2 3 3 1 1-2zm5 0q-1 1-1 3l2 1q2 0 1-2zm18 0-2 2 2 2 1-2zm4 1-1 2h2l1-2zm-57 2-2-2-2 2 1 2zm9-2-2 2 2 1 2-2zm4 2 3 1v-2l-3-1zm6-2-1 2 2 1 1-2zm5 0-1 2 2 1 1-2zm19 2-2-2q-1 0-1 2l1 1q2 0 2-1m3-2-1 2 3 1 1-2q-1-1-3-1m16 0v2h1l1-1zm-76 5q3-1 2-3l-2-2zm6-5-2 3 2 1 2-2zm61 4q2 2 3 0l-1-2zm-46 2 1-3-2-1q-2 1-1 3zm15-4-1 3h2l1-1zm5 0-1 2 1 2 2-2zm5 0-1 3 2 1 2-2zm6 0q-1 2-1 3l2 1 1-2zm10 2 2 2 1-2-1-2zm11-2v2l2 1 1-2zm7 5-1-5q-1 0-1 2zm-69-2-2-2-2 3 2 1zm2 0 2 2 2-2-2-2zm12-2-1 2 2 1 1-2q0-2-2-1m9 2-3-2-2 1q0 2 1 2l3-1-1 2q0 2 2 1l1-1zm23-2v2l2 1v-2zm-54 0-2 2 2 2 2-2zm69 4 1-2h-3v2zm4-2v2h2v-2zm-53 0-2 2 2 1 2-2zm4 2 2 1 1-2-2-1zm11-2-1 2 2 1 1-2zm8 2-2-2-2 2 2 2zm3-2-1 3 2 1 2-2zm6 0-1 2 2 2 1-2zm6 0-2 2q1 2 2 1l1-1zm3 2 2 1 2-1-2-2zm-58-1-2 2 2 2 2-2zm12 2v-2h-2v3zm-17 13 4-5-2-2-2-3 2 2 2-2-1-2h-2v-2l-2-1 1 4v6l-1 3v5l4 4 1-2zm11-9h3l1-3q-5-4-5-3l-1 2 1 2 3-1-4 4q-1 2 1 2l2-1zm63-2v-3l-2 1v2zm5 0v-3l-2 2zm-49-2-1 2 1 1 1-2zm5 0-2 2 3 1 1-2zm7 1-2-2q-2 0-1 3l2 1q1 1 1-2m24 1 2 1 1-2-1-2zm-43 2-1-2-2 1v-3l-3 2 1 2 3 3q3-1 2-3m2-1 1-2-2-1-1 2zm20-3v2q0 2 2 1l1-2zm6 0-1 2 2 1 2-2zm6 0q-2 1-1 3h2l1-2zm5 0-1 2 2 1 1-2zm-54 1-2 2 2 1 2-2zm66 2 2 2 2-2-2-2zm-4-1-1 2q0 2 2 1l1-2zm-42 3 1-2h-3v2zm4-3-1 3h2l1-2zm5 0v3l2 1 1-3zm8 3q0-3-2-2l-1 2 2 1zm15-2-2 2 2 1 1-2zm4-1-1 3h2l1-1zm-49 1q-2 2-1 3l2 1 2-2zm33 0v2l2 1v-2zm6 0-1 2 2 1 1-2zm-49 1-2 2 2 1 2-2zm74 5v-5l-3 2zm-8-2 2 1 2-2-2-1q-2 0-2 2m-41-2-2 2 2 1 2-2zm7 2-2-2-1 2 2 2zm25-2-2 2 2 1 2-2zm5 0-1 2 2 1 1-2zm-41 3-1-3-2 1v3zm17-1-2-2-2 2 2 2zm3-1-1 2 2 1 1-2q0-2-2-1m5 0-1 2 2 1 1-2q0-1-2-1m5 0-1 2h2q2 0 1-2zm-44 0-1 3 2 1 2-3zm4 2 3 1 1-2-1-1zm-9-1-1 2 2 1 1-2q0-2-2-1m68 0-1 3 2 1 1-2zm-48 4 2-2-2-1-2 1v2zm5-3-1 2 2 1q2 0 1-2-1-3-2-1m6 3q2 0 2-1l-2-2q-1 0-1 2zm16-3-1 2 2 1 1-2zm6 3 1-3h-3v2zm4-3v2l2 1v-3zm6 0q-2 0-1 2l2 1 1-2zm-49 0-2 3 2 1 2-2zm22 0-1 2 2 1q2 0 1-2t-2-1m6 0-1 2 2 1v-2zm-45 2v2h2v2l2 1 1-2q-5-5-5-3m6-1-1 2 2 1 1-2zm5 0-1 2 2 1 1-2zm64 6v-5l-2 2zm-17-5-2 3 2 1 2-2zm5 0-1 2 1 1q2 0 2-1zm8 2-2-2-2 2 2 2zm-53 1 1 2 2-2-1-2zm7-2-1 2 2 1 2-2q-1-2-3-1m1 5 3 2 2-2-1-3 2 1 1-1q0-2-1-2l-3 2zm11-5-1 2 2 1 1-2zm5 0-1 2 2 1 1-2zm5 0-1 2 2 1 1-2zm5 0-1 2 2 1 1-2q0-2-2-1m-51 6h2l-1-2-3-3q-3 0-2 1zm14-2 1-3-2-1-1 1v2zm-7-3-1 2 2 1 1-2q0-2-2-1m37 1-2 2 2 1 1-1q0-2-1-2m5 0-1 2 2 1 1-2zm5 0-1 3h2l1-2zm5 0-1 2 2 2 1-3zm6 0q-2 1-1 3h2l1-2zm5 0-1 3h2q2 0 1-2zm-54 1-2 2 2 1 2-2zm8 2-2-2q-2-1-2 2c0 3 1 1 1 2zm9-2q-2 0-1 2t2 1l1-2zm5 0v2h2l1-1q-1-1-3-1m-33 0-1 2 2 1 1-1zm5 0-1 2q0 2 2 1t1-2zm52 2-1 2 2 1 1-2zm12 3v-4l-2 2q0 2 2 2m-40 0h2l2-1-1-2-2 1q-5 3-4 5h2l1-1zm8 0v-3h-1l-1 2zm4-3-1 2 2 1 1-2zm5 0-1 2 2 1 1-2zm5 0v2l2 1 1-2zm11 2 2 1 1-2-2-1-2 1zm-63 1-1-2-2 1 1 2zm9-2-2 2 2 1 2-2zm5 0-1 2 2 1 2-2q-1-2-3-1m9 2q-1-2-3-2t-1 2l1 1zm4 1 1-3h-3v2zm-24-3v2l1 1 1-2zm30 3 2 2 1-2-1-2zm6-2-1 3h2l1-2zm6 0q-2 1-1 3h2l1-2zm7 2-2-2-1 2 1 1q2 1 2-1m3-1-1 2 3 1v-2q0-2-2-1m6 0q-1 0-1 2l2 1 1-2q0-2-2-1m-68 6q3 0 2-2l-2-2-2-2v4zm6 0 1-2-3-3-1-1q-1 0-1 2l1 1zm69 2v2l2 1v-8l-2-2-2-1-1 2 2 1 2-2-1 3c-1 1 2 2 1 3zl-1-2-2 2 1 1zm-67-8-1 3h2l1-1zm7 2-2-1q-2 0-1 2l2 1zm6 0-2-1q-2 0-2 1l2 2zm6 1-2-3-3 2q2 2 3 2zm1 0q2 1 3 1l1-2-1-2zm21-1q-1 0-1 2l2 1 1-2zm6 0-2 2 2 1 1-2q0-1-1-1m-15 3v-2h-3l-1 2 2 1zm3-3-1 3h2l2-2zm19 2-3-2 1 3zm5 0-1-2-2 2 2 2zm4-2q-2 1-1 3l1 1 2-2zm-61 1v2l2 1v-2zm21 2 2 2 2-2-2-2zm-13 0-2-2-1 2 1 2zm6 0-2-2-2 2 2 2zm2 1h3l-1-3q-2 1-2 3m13 2q1 2 3 0t-1-3q-2 1-2 3m6-2q-1 2 2 2t1-2l-1-1zm7-1q-2 0-1 2l2 1 1-2zm7 2q0-2-2-2l-1 1 1 2zm4 1 2-1-2-2-2 1zm-64 1 1 2 2-1-1-2-4-3v10q3-1 2-3l-1-2zm4 0 2-2-1-2-2 2v1zm7-2-2-2-1 2 1 2zm58-2-1 2 2 1 1-1zm-53 3-2-2-1 1 2 2zm6 0-2-2-1 2 1 1zm7 0 2 1 2-2-2-1zm8 1 1-3h-2l-1 2zm-12-3-1 3 2 1q1-1 1-3zm25 1q-2 1-1 3l2 1 1-2zm6 0-2 2 2 2 2-2zm-51 2 1 2 3-1-2-2zm40 2 1-2-1-1-2 1v2zm18-2-2-2-1 2 1 2zm4-1-2 2 2 1q2 0 1-2zm5 0-1 2 2 1v-2zm-62 6 4-3-1-3-3 1 2 3q-1-2-3-1-2 0-1 2zm29-6-2 3 2 1 2-2zm-20 3q0-2-2-2v2zm6 0-2-2-2 2 2 1zm2 0 2 1 1-2q1-1-2-1-2 0-1 2m7 0v-2h-2v2zm11 1 2 2 2-2-1-2zm10 0-2-2-2 2 2 2zm4-2-2 2 2 2 2-2zm16 0-2 2q0 2 2 1l1-1zm-71 5 2-2-2-3-2 2zm36-2q0 1 2 1l1-2-1-1zm24-2-1 2h2l1-2zm5-1-1 3h2l1-1zm-52 3-2-2q-3 2-1 3t3-1m3-2-1 3h2l1-2zm10 0-1 2q0 1 2 1 2-1 1-1zm5 0v3h2l1-2zm-10 1-1 2h2l1-1zm23 3 3 2 1-2-1-2zm8-2-2 2 2 2 2-3zm5 0-1 2 2 1q2 0 1-2zm6 0-2 2 2 1q2 0 1-2zm5 0-1 2 2 1 1-2zm6 4v-4q-2 0-2 2zm-69-2-2-2-2 2 2 2zm3-1-1 2 2 1 1-2q0-2-2-1m27 3 1-3h-2l-1 2zm5-4-2 3 2 1 2-2zm-27 1v2l2 1 1-2zm6 0-1 2 2 1 1-2zm5 0-1 2q0 2 2 1v-2zm5 0-1 2q0 2 2 1l1-2zm36 2-1 2h2q2 0 1-2zm5 0-1 2 2 1 1-2zm-68 2-2-2-2 2 3 2zm41-2-2 3 2 1 2-3zm6 0-2 2 2 2 2-3zm7 3v-3l-3 1 1 2zm4-3-1 2 2 1 1-2zm-55 0-1 3 2 1 2-3zm11 1-1 2h2l1-1q0-1-2-1m10 0-1 2 2 1 1-2q0-2-2-1m6 0-2 2 2 1 2-2zm5-1-1 3 2 1 1-2zm-16 1v2h2v-2zm37 4 1-2h-2l-1 2zm6-1v-2l-3 1 1 2q2 1 2-1m4-2-1 2 2 1 1-2zm6 3v-3l-2 2zm-55-2-1 2 2 1 1-2zm7 2-2-2q-2 0-1 2l1 1q2 0 2-1m20-2-2 2 2 2 2-3zm8 2q-1-3-3-2l-1 2 2 1zm-23-1-2-1-1 2 1 1h1zm5 1-2-2-1 2 1 2zm3-2v3h2l1-2zm26 2q-1 0-1 2l2 1q2 0 1-2 0-2-2-1m-49 0-1 3 2 1 1-2zm37 3h3q1-1-1-3-3 1-2 3m6-3v3h2l1-2zm14 2-2-2-2 1 2 2zm-51 2 1-2-1-1q-2-1-2 1zm4-3v2l1 1 1-2zm8 2-2-2-2 1 2 2zm3-2-1 2 2 1 1-2zm6 0-2 2 2 1 2-2zm6 0-2 2 2 1 2-2zm11 4-3-2-2 2zm-12 0-2-2-2 2zm-11 0q-1-2-3-1l-1 1zm5 0-2-1-2 1zm12 0-3-2-1 2zm-4 26 3-2q2 0 2 3l-2-3zl2 6q-4-2-3-8l3-3h5q4 5 1 9l-1-5q-1-3-4-3zm-31 0-2-3h-3q-4 4-1 9-4-3-3-8 3-7 8-3t1 9zm17-3q-5-1-6 3l1 6q-3-3-2-8l3-4q4 0 5 2 4 4 1 8 0-5-2-7"/><path d="m67 535-1-2h-3l2-1q3 0 2 3m470-230 5 26-9-44-17-80-16-85 17 84 7 34zm-31-89 13 68-22-107q5 18 9 39m-7-85 6 31-9-42zm38 188 1 7-7-32zm-44-197-1-9q2 5 1 9m3 48-2-8zm-9-44q-2-3-1-8zm64 377v-73 103zm-16 45v-9l1-17v26zM339 137h-59q-3 1-5-1h118q-5 2-11 1zm-65 0-10-1zm-17 0h-7zm185 37 5-18zm-2-5q1-6 3-10 0 5-3 10m-9-6 2-6zm6 4 2-6zM25 523v-19 37zm-8 26-1-7zm457-341c0-3 3-19 5-20z"/><path d="m473 202 3-15q0 9-3 15M52 299v-5l5-26zm-5 21 4-18zm28-123 2-15zm7-47-2 6 2-10zM50 322l2-12q1 6-2 12m77-149-3-15zm7-6-2-8zm2 0-1-7zM12 531l-1-26v-69l1 38zm-4 15q-2-5-2-10zm-3-1-1-7q2 3 1 7m501-286-10-47-8-47 6 27zm13 55q2 4 1 9l-6-34zm-33-155-2-7v-1h1l-1-5q2 2 2 7zm32 162q-2-3-1-7zm-308-29-11-1h-36 70zm202-1h-46l25-1zm5 23v-4l-2-12 3 12zm-3-6-1-8zm-260-8c1 3-2 17-3 19zm2 10 1-12zM97 135v-12zm-3-10v-8zm1 10-1-5 2-1zm367 2h-43zm13-4v-8zm-24 60-9 1q5-2 9-1m-328 10q0 6-6 7-5 0-6-5 0-4 5-6 6-1 7 4m-10 2 5 2q3-1 4-4l-1-2h-2l-1 1-1-1 1-1h-1l-1 3 2 1zq-1-2 1-4-3 1-2 4M101 93v3q-2 2-6 0l1-4zm3 20 3 2q-1 2-4 1l-2-3z"/><path d="M108 116q-1-4-4-3h3q2 1 1 3m56 35-1-9zm309-57 1 2q-2 3-6 2l-1-3 3-2zl-1 4zm-11 22h3v-1q2-1 2 1l-4 2-3-3q2-3 5-2l-3 1 1 1zm-40 435q-2-13 0-24v-21zm1-47v-9zm-15-353v-8zm5 0v-6zM93 192q2 3 1 7l-3-15zm333 117-7-14zm-197 7-1-7v-5l1 5zm4-5v-7zm-90-4 4-8q0 5-4 8m40 3-2-9zm-98 36H67l-2-2h24zm16 23v-21q3 11 0 21m-12-4q2-1 3 1l-1 2h-3zm-14-7 2 2-1 2-3-2zm-10 14h2q1 2-1 3t-2-1zm5-7 2 1q1 2-1 2h-2q-1-2 1-3m19 13 3 1-1 3-3-1q0-1 1-3m-14-6 2 1-1 2q-1 1-3-1zm5-7 2 1-1 3-3-2zm9-14 3 1q1 1-1 3t-3-1zm-5 21h3l-1 3q-1 1-3-1zm10 0q1-1 3 1l-1 2q-1 1-3-1zm-29-14 2 1-1 3-2-1q-1-1 1-3m4-7 3 1-1 3q-2 1-2-1zm25 7 3 1-1 3-3-1zm-24 20 2 1-1 3-2-1q-1-2 1-3m9-27 3 1-1 3-2-1zm1 27 2 2-1 2-2-1q-1-2 1-3m4-20 3 1-1 2h-2zm-4 29 1 2-8-1zm-7 1h-6zm26-2-8 1q3-2 8-1m95-141v-10zm3 0v-9zm7-29h-2l1 1-2 1v-3h2zm28-146v-5l2 18 2 19 2-2-1 3h101l-2-4h-22l-26 1-41-1h-9l-1-11-2-23v-2h-2l5-1h101l3 1h-2l-3 27v9l2 2 4-37-2 28-2 12H239l-4-1-2-22-1-5zm85 28h18l4-35H236l3 35zm75-6c-7 10-23 13-34 4q-9-7-2-19c7-10 22-13 32-6q11 9 4 21m-1-7q3-3 1-8c-6-10-23-10-32-2q-4 3-4 9 1 6 8 9c9 4 22 1 27-8m-25 14q11 2 20-3l1-1-1-2q-14 7-26-1l-1 2 2 2v-2q1 4 5 5m-153-1q-16 9-30-4-5-6-4-13 1-6 8-10c9-6 23-4 30 5 6 7 5 17-4 22m-7-4c6 0 13-5 13-11s-7-11-13-12q-11-4-21 3-7 7-1 13 8 10 22 7m-14 4c8 3 20 2 25-6q-2-1-3 1-13 7-27-1c-2 3 4 5 4 5l1-1zm217-41H279zm-204 50h-9zm0-5h-9zm180-36-6-1q3-1 6 1m-8 36h-8zm-69 0h-10z"/></svg>