<svg xmlns="http://www.w3.org/2000/svg" id="Layer_2" viewBox="0 0 316.2 190.2"><g id="OpenNoTape"><path d="M312 172.4c-.6 2.7-3 10.3-4.8 12.3-1.5 1.6-4.2 2.3-6.5 2.3H269c-2.6 0-3.6 3-5.6 3h-39.1l-49.7.1H56.8c-5 0-4-3.3-7.6-3.3l-4.6.1-26 .3q-2.7-.1-5-.8c-3.5-1-5-3.7-6.4-6.9a68 68 0 0 1-4-12c-1.2-5.4.3-5-1.7-7.5-.7-1-1.5-2-1.5-3.4V142l.3-16.5q0-4.5 3-7.7c.3-3 0-6 0-9l.2-14.5.2-29.1.2-29.2.3-24.5c0-5.8 4.3-10 10.2-10.7L20 .2c2.9-.4 5.6 0 8.6 0H53l3.2.1h12.6q3.2-.2 6.4 0l20.6.2h200.7c5.4.3 11.6.6 14.3 5.7a13 13 0 0 1 1.3 5.7l.1 11q.2 4.6.2 9.1v20.8l.3 39.5v25c0 1.5 3 1.4 3 9.2l.2 10 .3 17.5q0 4.4-2.7 7.5c.6 2.6-.1 4.8-.7 7.1z"/><path fill="#fff" d="M266.7 155c-.3-.6-1.4-5.7-2.4-8.1q-1.1-3.3-2-6.6c0 .2-2.9-7.2-1.5-6.9q1.1 4.9 3.1 9.8.6 1.7.8 3.4L270 164c.6 2 1.3 3.6 1.7 5.7q1.4-.3 2.9-.1h23c5.7.1 10.3 1.2 13.5-3.7.7-1 .5-2.1.5-3.3l-.3-18.6-.2-15.6-.2-19-.3-14v-7.6l-.1-9.6v-7.5l-.2-8.6v-5.5l-.1-24v-4.4l-.3-16.2c0-5.6-4.4-9-9.7-8.7s-10.6 0-16.1 0l-57.2-.1-34.1-.1h-68.4l-7.5-.2H74.3l-5.4.2H17.8c-4.6 0-10 1-11 6.4l-.5 3v9l-.2 20.6L6 58v5q0 6-.3 12.1v5.6q.1 4.5 0 8.9V93l-.2 6.8-.1 6-.2 9.4-.3 17.2V148l-.2 13.6c-.1 4.8 1.3 6.5 6.4 8.1 1.1.4 1.9.1 3 .1l33.2-.2c1.4-2.8 2-5.7 3-8.7l2.8-9.5 2.7-9 2.4-7.7c1.2-4 4.4-6.2 8.6-6.2l10-.2H113l15.6-.2h119.9q2.3.3 4.6.4c5.3-.1 6.6 8.4 7.7 11.2l1.6 4.4 2 6.6c1.1 3.8 2.3 7.2 3.7 11 1 2.5 1.1 5.2 2.4 7.7q1 .4.6-.6c-1.8-4.1-2.3-9.7-4.3-13.8Z"/><path d="M312.9 120.9a6 6 0 0 0 0 3c1.7 2.5-.2-5.3 0-3"/><path fill="#fff" d="M3 158.4 2.8 144v-22c-1 1.8 0 3.6-.4 5.5 0 .7-.5 1.3-.5 2v28c.5.2.4 1.3 1 1M313.7 144l.1-8.5c0-1.6.1-10.8-.5-11.1v34.2c1.5.3 1-11.3 1-13 0-.5-.6-1-.6-1.6M251.2 164.7l12.8.2c.8 0 2 .3 2.6-.5l-2.4-7.8-3.7-12q-1.6-6-3.6-12c-.3-.8-1.7-2.2-2.5-2.4q-2.6-.3-5.5-.2l-93.2-.2-22.2.1-19.6.1H64.8c-2.7 0-4.8 2.3-5.4 4.8l-1.1 4.4-2.3 8.2-4 13.6c-.5 1.5-1.2 2.9-1.2 4.6q2.3-.8 4.9-.8h24.1l48.2-.2h123.2ZM30.3 183.8c2.4-.4 4.3 0 6.3.2 1.6 0 3.3-.5 5-.2l4 .4c.7 0 1.2 1 2 1 1.5 0 3-.3 4.3.3s2 2.1 3.3 2.7c1.1.4 2.3 0 3.5 0h198.7q3.2.2 6.2 0c1.3-1.2 2.5-3.1 4.6-3.2l6.4-.1q3.8-.3 7.5 0 1 0 1-.7l-12-.3c4.7-.6 9.1 0 14-.2l7.2-.1q.7.4-.2.6H291c-1.1-.1-1 .7 0 .8 4.4-.2 13 1.6 15-2.6.3-.5 1.2-.6 1.3-1.3.4-2.1 2-2.6.7-3-1-.4-1.3 3.3-6.4 2.6-1 0-1-.6 0-.6 1.5 0 2.8.1 3.7-.8q-3.1-.3-5.6-.2l-8 .1-20.1-.2q-3-.2-6 .2l-1.1 5.1c-.2.8-.9 2.2-1.8 2.4l-3.7.4h-33.6q-1.5 0-2.9-.3c-2.5-.2 0-4.7-1.4-6.7-.5 1-.2 1.9-.3 3q-1.3.3-.9-.8c1.4-2.3 0-4 .5-6.2q.4-1.8.6-4c1 1.8-.5 4.1.5 8.4 1-3.5.7-6.9 1.4-10.4.8-4 6.6-2.8 6.4-3 2.2 1.2 3.3-.6 9.1.1 1.2.1 9-.3 13 0q2.6.3 5.1.4l7.6-.2c.7 1.4 2.3 2.4 2.6 3.7.2 2.3-.7 4.2-.9 7q10.9-.5 21.8-.3h15.1c2.2 0 5.3-.4 6.4-2.3s1.3-4.2 1.7-6.7c-2.2 1.9-3.9 3.1-6.6 3l-12.2-.1h-12.4q-5.5 0-10.7-.4l-1.2-3.2q-.7-1.7-2.6-1.7l-5.5-.2-3.6.4h-28l-6.1-.2-21.1.1h-143c-2.4 0-4.4-.3-6.7.4-2 .6-1.4 4.5-4.5 4.6h-11l-11.9.1c-3.7.2-7.3-.2-10.9.2q0 1-.9.6c-1-.2-1.2.7-.1.7l2.3.7c-2 1.6-3-.4-4.1-1s-2.7-.5-3.3-1.8c-.6 1 .1 1.5.8 1.6 1.1 0 1.8.9 2.7 1.3 1.8.8 3.8 1 5.8 1.9-.2.6-.6 0-1 0q-1.3.2-2.7-.2c-1 0-1 .6 0 .5 1.4 1 2.6.8 4.2.5q-.4 1-1.6.5c-.5 0-.4.5 0 .7q3.5.6 7.1.1c4.3-.2 8.4.3 12.8-.4l-6.3-.7c3.7-.6 5.6.3 9.1-.2 0 1-1 0-1.6 1h16.6l-.9-5.6c-.1-1-.2-3 .8-3.4.8-.4 2-1 2.8-1l2.9-.4c3.7-.5 9.2.4 10.6 0 .4-.2 7.8 1 10.9.2 1.6-.4 2.5 0 4.2 0h8.4c2.4.2 3.5 2.2 3.8 4.3.7 5 1.8 9.8 1.7 14.7-1.4 1-2.9.8-4.5.8h-34c-5.5 0-5-3.6-6.2-8.5l-10.7.1-19.3.2-10.7.2 4.7 1.7-4.7-.1c1.4 1.2 3 1 4.6 1.6-2.2.8-6-1.1-7.1-2 .8 4.2 2.9 1.7 5.8 3 .7.4 1.4 0 1.8.5-1.9 1-3-.7-4.8-.1 2.8 2.2 14 1.4 17.7 1 0-.3-.5-.8 0-1Z"/><path fill="#fff" d="M88.6 172.3c.1-1-.1-2.6-.8-3h-8q-.2 1.7.5 3zM89.9 171.3c-.3-1 .3-1.7-.4-2.2-.4 1-.2 1.8-.2 3 .7.3 1.3 0 .6-.8M229.2 170.1q.4-1.2-.5-.8-.7 1.6 0 2.9zM238.9 172.2c.5-.7.5-2.4-.1-3h-7.9c-1 0-1.5 2.8-.7 3q4.6.5 8.7 0M7.4 170.4c-1-.4-1.2-1.1-1.6-.3.4.8 1.3.6 1.6.3M91 171.6q.8-1.7 0-2-.5 1.3 0 2M227.2 172.2q.5-1.6 0-2.6-.8 1.5 0 2.6M225.6 172.1q.7-1.7 0-2-.5 1.3 0 2"/><path d="M10.6 171.6c-1.3-.1-1.4.5-.3.6q1 0 .3-.6"/><path fill="#fff" d="M8.7 174.8q1.3-.4.3-.7c-1 .1-1.3-.6-2-1-.2 1 .6 1.7 1 2.4.3.4.8.1.9 0 0-.2-.4-.5-.2-.7M61.6 178.6q1.6-.1 3.2 0l30.5.2c0-2-.3-3.4-.6-5.1q-1 0-1.9.2h-28q-2.6 0-5 .2c-.6.1-1 .4-1.8-.2q-.6.5 0 .9c0 1 .7 1.9.9 3 .2.7.2 1.2 1.4.8-.5-.7-1-1.5-.2-2 .1 1.1.2 2.2 1.5 2M260.9 173.8l-.6 2.3c-.8-1 .5-1.5 0-2.2H229q-2.4 0-5-.3c0 1.8-.4 3.3-.1 5.2h27.7c1.8 0 9.4.2 10.3-.4 1.2-.8 1.4-3 1.2-4.1-.5 0-.9.1-2.1-.5ZM55 178.4c.8.4 1.4.2 2.2.2-.4-1-1.2-4.8-2-4.4q0 .7-.7 1.4c.1 1.2.7 1.2.7 0-.1-.5.5-.6.4 0q1 1.4.3 2.5-.8-1.8-.8.3M57.9 178.6h.9q0-.6-.5-1.1l-1-2.6c0-1.1-.8-.8-.7.1 1.4 2 .9 3.5 1.3 3.6Z"/><path fill="#fff" d="M263.6 178c.2-1.3.9-2.2.2-2.9a6 6 0 0 1-1.2 2.5c.6.8.8 1.4 1 .5M13.6 177.1c-1.3 0-1.4.5-.2.6q1 0 .2-.6M12 180.6q-1.4-1.7-3-2 .8 1.9 3 2M65.5 180.4c-.6 2-1.6 3.5-1.7 5.2-.4 5.4 4.2-7.5 1.7-5.2M67.1 186c-.4-1.5 2.7-7 .6-5.7-1.3.8-.5 1.7-2 4.4q-.4 1.2 1.4 1.3M92.9 185.7c-.2-2 0-3.2-.6-4.6-1.4 1 .4 3.7-.9 4.1-.3-1 .3-1.6-.4-2.7a7 7 0 0 1-5.2 2.3c-2.7.2-5-1.2-6-3.6-.8-1.7-3.4-.8-5.6-.7-1 .8-.6 2.5-1.2 3.7-1.4 1.4 2.3-8.4-1.3-3.6-1 1.4-.7 2.9-1.2 4-.8-1.3.5-2.2.6-3.3 0-.9-1.7-1.4-2-.7l-1.8 5.3h17.5c2.7 0 5.3.3 8-.1"/><path fill="#fff" d="M84 183.3a6 6 0 0 0 7-2.7c-3.4-.6-6.4-.5-9.9 0q.7 2 3 2.7M95 180.1c-1 2.6 1 2.7 0 5.6q.8.6 1 .5c.6-.3-.4-4.8-1-6.1M223.8 184.4l.6-3.2q0-.8-.2-1c-1.2-.3-.6 3.3-1 4.3-.2.4-.6.6-.3 1q.2.3.7.2c.4-.1.1-.6.2-1.3ZM225.6 185.2c-1.7 1.9 2.6-12-.2-4.8-1.4 3.3.2.6-.8 4.2-.7 1 .4 1.5 1 .6M231.4 183.1c3 1.3 6.3.3 7.5-2.6-3.8-.5-6.8-.5-10 0 0 1.6 1.1 2 2.5 2.6"/><path fill="#fff" d="M253.8 185.2c-1.3-1.6-.7-4.9-2.4-4.9q-.4-.1-1 .3c.6 1 1 2 .4 3.1-.6-.9-.5-1.9-1-3-.3-.7-1.8-.4-1.7 0 .3 1.5 1.2 3 .7 4.5-.7-1-1-4.6-2-4.8-3.3-1 .5 3.2-.4 4.4-1-.9-1-3.9-2-4.5q-.7-.4-1.3 0c-.3.5.1 1.2-.5 1.4-2-5-2 3.2-8.7 3.3-2.6 0-4.6-1.4-6.3-3-.5 1.3.2 2.2-.5 3.2-.6-1 0-2.3.1-3.7-.3-1.2-1-1-1.2.1.4 1.5-.2 2.6-.1 4h27q3.8.2 7.3-.1c-1.1-2-1.3-5.6-2.4-5s1.1 2.3.5 4.7c-1.2-1.3-1.2-5.9-3-4.6q-.3 0-.2.7c.4 1.1 1.3 2 .8 3.5l-.8-3q-.2-1-.8-1.3c-3.2-1.7.8 3.8-.5 4.7ZM61.2 181.4c0-1.2-1.1-1-1 0a9 9 0 0 1-1.3 3q-.8-.3-.8.8c0 .8.8.8 1.3.6 1.4-.4.3-2.8 1.8-4.4M61.8 184.6l.9-3.2c.1-6-2.6 6.6-2.2 3.8 0 .4.8.6 1 .5zM63.3 185.5c.4-2 1.3-3.3 1.1-5.2-1.6 1.3-1.1 2.9-2 4.3-.6.8 0 1.5.9.9M94.8 185.6q-.1-2.7-1.3-5c-.4 1.8 0 3.3-.1 5 0 .5 1.4.5 1.4 0M260 181q-.4-.7-.5.3c0 1.1.6 1 .6-.3M261.9 185.6l-1.1-2.5c-.5.4-.3 1.3-.2 1.8s.7 1 1.3.7Z"/><path d="M285.6 184.4q-1.4-.6-1.5.2 1.2.3 1.5-.2M308.1 175.2c-.5 1.6-5 2.6-5.5 1.6 1.5-.3 2.7-.1 3.8-1 .7-.2 1-.9 1.7-.6M17.8 142l-5 4.2c-.4.4-.5 1.3-1.4.6q1.8-1.3 3.4-3 2.7-2.7 5.7-5.2l6-5.2 9.7-8.6c-3.6-1-12.4 1-14.4-2.7q-1.4-2.6-1.8-5.7l-.4-6 .1-8V82.7l.2-4.5-.3-6.1q0-3.2.1-6.5V53.6l.1-5V36q.2-3.5.2-7c0-1.3 2.6-2.5 3.5-4.6q.6-1.3 1.9-2c2.8-2.4 5.4-6 7.6-5.6 1.7.3 3.3 0 5 0l11.7-.2h83.8l19-.2H225l28.6.2h21.1l6 .2c1.4 0 3-.3 4.3.1 1.5.5 2.4 2.3 3.5 3.3q1 .6 1.8 1.3c1.8 2.6 5.2 5 5.2 7l.3 7V76l.2 10 .1 28c0 2.8 0 10.4-4.3 10.4l-42.2.2H62.7l-23.1-.1q-1.7 0-2.9 1.2l-10.2 8.8-5 4.5z"/><path d="M29 23c.7-.7 1.6-1 2.3-1.9s1.7-1.6 2.8-1.6c1.7 0 3.3-.4 5-.3l14.7.2 7-.4H277c7.7 0 9.4 2.6 13.6 7.4 1.4 1.7 3.5 2.4 3.5 6.6v17.1c0 .6.6.6.6 0V30.5c0-1.2.2-2-.7-2.9-1.6-1.7-8-8.8-9.6-9.4-2.3-.9-5.2.3-7.8-.3-1.2-.3-2 .5-3.2.5H107.6c-1.3 0-1.7-.6-2.9-.1-2 .6-8.3-.1-9.4-.2-1 0-1.8.7-2.8.2q-1.5-.7-2.9 0c-.9.6-1.6-.3-2.4-.3h-27l-14-.1q-3.6-.1-7 0c-5.8.7-5.9-2.6-13.6 6.7-1 1-1.6 2.2-3.1 3 .3.5.9.5 1 1-.8.6-1.9.8-2.3 1.5-.6 2.8-.2 5.6-.2 8.5v23l-.1 11.1v26.1c0 2.8-.4 5.5-.3 8.3.3 5.5-1.3 11.7 2.4 14.3a83 83 0 0 1-.6-14.5c.2-2.8-.5-5.4-.3-8.1l.4-6.4-.1-14.7c0-1-.5-2-.3-3q.5-3 .3-6l-.2-6c-.1-2.5.3-4.6 0-7.1-.7-5.9.4-11.9.2-15-.1-2.2-.2-10.5 1.2-11.6l2.5-2c1.7-1.3 4-5.2 2.8-3.9Z"/><path fill="#fff" d="M98.2 123h100.5l53.7-.2 6.6-.3 29.1.2c4.6 0 5-3.8 5-7.8l-.1-10.2-.2-19.4-.1-6q.1-3.4 0-6.6V58.1l.2-14.5-.1-11.6c0-1.7-.9-2.6-2-3.7l-4-4.4-3.7-3.7-13 .3H168.1l-85.8.1H71.8l-7-.2-20.2-.2c-2.7 0-9.6-.6-11.3.5-1 .6-5 6.4-8.2 8.8q-1.5.7-1.6 2.5l.2 19.8c0 8-.4 15-.2 22.9v28.6l-.1 13.2c0 1.8.6 5.3 2.7 5.8 4 1 8.3.6 12.3.5 1.3 0 3.5-3.3 6.1-5.5l2.6-2 2.1-1.9q3-2.2 5.6-5c-1 1.2 3.6-3.5 2.3-1.3a121 121 0 0 1-12 10.7c-1 .6-1.6 1.8-2.6 2.4s-2 1.4-2.3 2.7l27 .1h31"/><path d="M294.4 61.2q.7-4.9 0-9.1-.6 4.7 0 9M293.7 69.2c0 3-.3 5.8.1 8.6.8-1.2 1.7-9.1-.1-8.6M293.9 80.7q.7-1.7-.1-2-.4 1.3 0 2M294.4 120V83.6zM308.7 164a6 6 0 0 1-4 3.1c-3.4.9-6.8-.7-7.7-4.2-.7-3 .7-6 3.5-7.4s5.8-.2 7.5 2.2q2.1 2.9.7 6.2Z"/><path fill="#fff" d="M301 160.3c.9 1.1 2.2-2.9 1.2-2.8q-2.2.4-3.2 2.5c.7.5 1.2 0 2 .3"/><path fill="#fff" d="M301.4 162.7c-.7-.5-1.4-.3-1.8-.5-.5-.5 0-1.2-.8-1.7-.8 2.2 1 4.5 3.4 5q1.8.4 3.2-.6c1.7-1 2.2-2.9 1.3-4.7-.5-1.1-1.3-2.8-3.1-2.6-1 .2-.3 1.9.4 2.2l2.6 1.7c.3.2-.5 1-.7.8l-.7-.7q-1.2 1.3-1.7 3.3l-1.7.1c-.4-.6.3-1.7-.4-2.3"/><path fill="#fff" d="M303.2 162q0-1.5-1-.8c.3.3.5 1 1 .8"/><path d="M14.3 167.1a6 6 0 0 1-5.4-1.6 6.4 6.4 0 0 1 .6-9.4 6 6 0 0 1 8.7 1.2c1.3 1.7 2 3.6 1.2 5.7s-2.4 3.8-5.1 4.1"/><path fill="#fff" d="M9.5 160.8q.3-.6 1.4-.6c2.2 0 1.1-2.2 1.9-2.5q.3-.2.6.2 0 .3 0 .8c0 .2 2.3 3 3.4 1.8 0-2.3-2.4-3.8-4.5-3.2-2.8.8-4 3.6-2.8 6 1 2.1 3.9 3 6 1.5.8-.5 2-1.2 1.6-2-.4-.5-1.4-.7-1.8-1.7-1.7 2.5-.9 4.2-2.6 3.9q-.6-.3-.8-1.4c-.2-2.4-2.8-.6-2.3-2.8Z"/><path fill="#fff" d="M13.5 162q0-1.5-1-.8c.2.3.5 1 1 .8"/><path d="M20.3 17.5c-2.9 1.9-6.6 2-9-.3C8.5 14.7 8 11.3 9.5 8l3.7-2.2q2.5-.5 4.8.1 2 1 3.1 2.9c2.2 3 1.1 7.4-.8 8.7Z"/><path fill="#fff" d="M17.6 15.1c-.2.4-1.3.7-1.5.4q-.6-1.3-1.4-1.6c-.6-.2-1.2.4-1.8.3-1-.2-1.3-1.6-1.6-2.8-.7.6-1.7 3.5.1 4 .4 0 .6-.8 1-.8 1.7 1.4 3.4 3 5.9 1.7 2-1 2.3-3 2.1-5-.2-2.2-2.1-3.4-4.4-3.6-1.8-.2-3.5-.1-4.3 1.3q.8.5 1.7.6c0 .7-.4 1.2 0 2 1.4-.8-.4-2.4.9-3 .6-.3 1.5 0 1.3.7q-.3.9.2 1.2c1 .5 1.5-.6 2.8-.5.4 0 .7 1.2.4 1.4l-1.9 1.4c-.4.8.1 1.5.7.6s1.6-.5.7.3q-1 .3-1 .7.1.4 0 .7Z"/><path d="M299.5 18.3c-3.6-.5-5.8-4.6-4.7-7.9a7 7 0 0 1 8.9-4.8c2.4.7 3.6 2.8 3.7 5.3.2 4.4-3.2 8-7.9 7.4"/><path fill="#fff" d="M298.8 12.3c-1-2.3-1.2-2.3-.3-3.4s2 .5 2.7-.2c.2-.2.8-.6.1-.7-1.5-.3-3-.5-3.9.7-1.3 1.7-1.8 4.5-.6 6.4 1.5 2.3 4.4 2.2 6.6 1.2q2.3-1 2.7-3.5.5-3-1.7-4.7-1.4-1.2-2.7-.4.7.1 1.1.6 2.2 1.3 1 3.5c.2.6 1 1 .9 1.7s-1 1-1.3 1.3c-.6-.5-1-1.4-1.6-1.3-1.1 0-1.4 1.4-2.2 1.8-.6.2-1.2-.6-1.5-.9.6-.8 1.6-1.4 1.8-2.6q-.2-.8-1.2-.9c-.1.7.5 1 0 1.4Z"/><path d="M81.2 6.7c-7 .3-6.1-.6-10.5 0-1.1 0-2.3-.6-3.6.1-1.2.7-2.6-.4-3.9-.3h-7l-8.1.2c-1.7 0-3.3-.3-5 .2q-1.6.3-3-.4c-2.2-.5-4.3.5-6.6-.4 3.7-.4 7.3-.2 11.1-.2h42.7q1.8-.1 3.5-.1l12.1.4c.8.3-15.8.3-14 .5-2-.3-3.7 0-5.7 0zM278 7h-53.7c-.7-.2-.7-1 0-1.1h54.3q.8.2.5.8-.1.3-1 .2M307.8 115.4c-.3-5 .1-5.8 0-10.2l-.2-21.8c0-1.7-.8-3 0-4.8.7-1.8-.7-5.1 0-6l.5-14.5.2 36.6.4 3.1V121c-1.3-3.2-.6-1.7-.9-5.5ZM7.3 135.4c-.2-.9.2-2 .2-3V111l.2-2.4c.4-4-1-2.4 0-4.9-.3.8-.4-9 0-11.2.4-3.4-.7-3.2 0-7.7q.6 1 .7 2.6v23.5c0 .8-.5 1.4-.5 2 .3 3.6-.3 7 .2 10.5.2 1.3 0 2 0 3.2l-.3 12q-.2 2.3-.5 5c-1.2-2.7.6-5.4 0-8ZM48.4 163.6c-2.5 9.3-1.7 3.5-2.3 4.5l.9-1.7c1.3-2.5 1.3-5.5 2.1-8.4l3.7-13 2.6-8c.7-.2-.8 5-.9 5.3l-1.5 5q-2 6.7-3.8 13.3zM298.3 105.6l-.2 8.3q-.7-.3-.9-.8c-.1-.3.5-.9.5-1.3v-20q.9.1 1 1v10q-.2 1.4-.4 2.8M46.8 161c-.4 1.7-.5 3.3-1.6 4.6L48 153c.2-1 2-9 3-8.5.2.8-.4 1.2-.6 2zM78.3 9.2H51.6zM269.2 154.9c1 2.4 3 10.9 3.1 13.8-1.4-3.8-1.7-7.7-3-11.8a126 126 0 0 1-3-10.2c-.2-1-1-1.9-.8-3.2.3-1-2-3-.6-4.6.3 1.3-.2 2.5 1.2 3.3-.4 2 .5 3.7 1.2 5.5 1 2.6 1.3 5.6 2 7.2M298.3 88c.2 1.1.5 2.2-.6 2.8l.2-14.1c.8 3.7-.1 7.3.4 11.3M271.1 151.5c.5 3 2.6 8.2 1.7 9.6-.7-2.6-1-5.2-1.8-8l-1.3-4.2q-.3-1.1-.7-2.7c-.1-1 1.3-1 1 .1.2 2 .9 3.5 1.1 5.2M36.7 147c-.3-.5 5.6-5.8 6.8-6-.5 1.3-1.8 2-3 2.9-1.4.9-1.8 2.5-3.8 3.2ZM8.3 81.3c-.8-2.1 0-4.2-.4-6.5-.2-.9-1-1.7-.2-2.7q1.3 4 .6 9.2M298.5 75.8q-.8-2.4 0-5.2.5 2.4 0 5.2M49.2 9.2q-2.2.6-4.6 0 2-.7 4.6 0M44.8 140.5q-.7 0-.6-.4c-.2.4 4.3-4.6 3.5-2.5zM83.3 9.2q-1.5.6-3.6 0 1.6-.7 3.6 0M35.6 139.3c-1 .8-1.1 1.5-2 1.1q.1-.6.9-1c.3-.6 1-.6 1-.1M282 6.1c.2 0-.4.7-.7.8q-.5.2-1.2-.8.3-.5 1.9 0M35 148.8c-.9.8-1 1.5-2 1.1q.4-.5 1-1c.3-.6 1-.5 1 0M31.7 151.8c-1 1-1.5.6-.9-.4.7-.7 1.6-.4.9.4M33 6.2q-.6.5-2 0 .4-.7 2 0M51.6 143.5l-.9.5q-.3-.9.2-1 .8-.2.7.5M29 145.4q-1 1-1 0c.2-.6 1-.6 1 0M147 156.2l28.7.5 6.2-.5c.5-.2.6-1.4.6-2l.4-9.8c1.6 3.9.2 7.3.8 12.2-3.2 1.6-.6 1.4-5.6 1.4h-41.8q-.8-.2-1.7.2c-2-2.6 9.7-1 11-2-1.1-1.3-8.5.8-9-2.2-.7-4.6 1-6 1-10q8.3-.7 17-.6l21.6.1c1.3 0 2.5.8 2.6 2.1.2 2.5.8 4.7 0 7-.5-1.3.1-7.8-.9-8l-2.7.2h-10.6c-1.6 3.7-5.3 4.7-8.7 3.2-1.3-.6-2.2-2.3-3.3-3l-11-.2c-1.2 0-2.3-.7-3.4 0l.2 5.7q.3 2 .1 4h40c.5 0 .4.6.4.8-.1.2-.8.4-1.2.4z"/><path fill="#fff" d="M162.7 145.1c-3.2-.4-5.1 0-7.7 0 .3 1.1 1.2 1.1 2 1.6 2.1 1 4.7.6 5.7-1.6"/><path d="M237.7 163.3c-3 1.5-7-.8-8.4-4-.8-2-.2-4.3 1-5.9 1.5-3.1 5.4-3.1 8.3-1.4q1.3.6 1.9 2c1.8 3.4.9 7.6-2.8 9.3"/><path fill="#fff" d="M232.2 155.7c.5-.7.2-1.4-.4-.9q-.9.7.4.9M238 155c-.2-.7-1-.7-1.2 0q.2 1 1.2 0"/><circle cx="238.4" cy="156.1" r=".6" fill="#fff"/><path fill="#fff" d="M232 157.4c-.2-.5-1-.6-1.2.1q.1 1 1.1 0"/><path d="M88.2 158.7c-.4 2.3-2.1 4-3.5 4.5q-3.8 1.3-6.5-1c-2.1-1.7-3.2-4.4-2.2-7q1.3-2.9 4.2-4c3-1.1 3.6-.5 5.2.9 1.9 1.5 3.3 3.7 2.8 6.6Z"/><path fill="#fff" d="M81.4 152c-1.3 0-1.4.5-.3.6q1 0 .3-.6M79.3 154.1c-1-.3-1 .2-1 1-.1 1-1.1 2-.2 3 .4-1.5.3-2.8 1.2-4Z"/><path d="M116.3 158.2c-2.4.5-9.2 1.3-10.4-1.5-.6-1.1-.8-7.7 1.7-9l6.8-.2c2 0 4 1 4.3 3.1.5 2.6.8 6.9-2.5 7.6"/><path fill="#fff" d="M107.8 150.6q.5-1.5-1-1 .3.7 1 1M116.4 149.3q-2.4.3-.6.9c1 .9 1.6-.2.6-1M111.9 151.3q-1.7-.7-2 0 1.2.5 2 0M110.9 152.8q-1.7-.7-2 .1 1.2.4 2 0M116.2 156c-1 .3-2-.5-3 .6 1.1 1 3.2.3 3.6-1 .4-1 0-2 .1-3h-2.5c0 .6.5.4 1.2.4 1.2-.1 1.1 1.1 0 1-4.1.2-1.4-1-5.7.3 2 .5 4 0 6.5.3-.1.4-.6.6-.3 1.4Z"/><path fill="#fff" d="M115.4 155.2c-.3-.1-6.3-.7-6 .7 2 .4 3.5-.3 6-.7"/><path d="M153.9 141.3c-2.4 0-4.4-.4-6.3-.1a19 19 0 0 1-7.8-.1c-1.2-.4-2.3.3-3.3-.4l1.3-1 14.3-.3c2.5 0 1.5-2.9 6.5-3.4 5.6-.5 3.6 3.5 8.9 3.3H178c1 .1 2.5-.3 2.6 1.3-.3.6-1.6.6-2.4.6z"/><path fill="#fff" d="M160.5 138.2c-1-.8-2.6-1.1-3.7 0-.5.7.2.8.7 1 1 .4 1.6.2 3-1"/><path d="M208.9 158.9c-2.2-.6-4.6.2-6.4-.6-2.4-1-3-8.4-.3-10.3 1.5-1.1 8.2-1.5 8.9 1 .4 1.7 0 3.4.2 5q.4 3-2.5 4.9Z"/><path fill="#fff" d="M206 153.8q-1.3.8.2.8c.6.2 1 .2.6.8-1.1 0-2.2-.8-3 0 1.7.2 2.8.5 4.3 2 .6-2.5.9-5.2-.1-7.4-1.7-.8-4.1-.5-5.7-.3 2 1 3.2-.6 5.5 1.4-1.2 1-3-.5-3 .8 1 .4 1.9-.3 2.6.5-1.8.5-3.2-.3-4.6.4-1 .3 9.5.4 3.2 1Z"/><path fill="#fff" d="M203.4 151c-1.3 0-1.4.5-.2.6q1 0 .2-.6M203.8 153.7q-1.5-.4-1.5 0c0 .5-.1.7.5 1q.9-.6 1-1ZM203.6 156c-.8-1-1.8-.3-1 .6.6.8 1.3.6 1-.6"/><path d="M120.4 132.4h-14l-23.1.1-3-.3c-1.3-.2-2.3.5-3.7-.2-1.2-.6-2.7.7-4-.5h53.9l-3.2 1c-1-.8-1.9-.1-2.9-.1M168.6 152.5c-2.2 1-28.7.5-28.4.3q-.4.2-1 .3c-.2 0-.3-1 0-1.1zM229.7 131.7c1.6-.1 2.8.4 4.4-.1s4.3.2 6.4 0c.6 0 1.7.2 2 .9l-41.1-.1c1.7-1.9 4-1 6-.8l2.4.1 3 .3H227zM239.5 134.6c-1 .8-10.5.1-11.4.6-1.2.6-2.1-.1-3.3-.1l-12-.2q-1-.2-2-.4c-2.9-.3-5.6.4-8.6-.4l19.6-.2 2 .6zM53.5 162.6l.1-3.5q1.6-4 2.5-8.1l2.6-9.6c.6-2.4 1-4.8 2-7.1 0-.8 0-1.7 1-1.8l-3.1 12.4c-1.8 7-3.4 11.4-5.1 17.7M262.2 154c.8 3 1.8 5.3 2.2 8.5q-1.5-3.6-2.6-7.7l-1.5-5-1-3-3.9-13.4c0-1 .6-1.2.7-.2 1 1.8 1 3.8 1.6 5.6.5 1.2 2.6 8.5 3 10zM261.8 161.1c-.6-1-.5-2.2-1-3.3-2-4.4-1.1-4-2.5-8l-1.6-4.6-1-3.5c-.2-1.2-1.3-2.2-.5-3.8 0-1.2 2.4 7.8 2 6.3.4 1.8 1 3.2 1.6 5l1 3.5c.3 1 2.9 8 2 8.4ZM136 150c-.2 4.4 1 6-.3 6-1.4.2-.8-9.9-.6-11.7 0-.5.7-.5.8 0-.5 2 .2 3.8.1 5.7M181.6 148.5c-1 2.1 0 4.6-1 6.1-.7-.6-.5-1.6-.6-2.6l-.3-8c2.1.8-.1 2.2 1.9 4.5M58.8 154.1c-.3 1.2-1.4 7.4-2.3 5.9 1-2 .8-3.8 1.4-5.8l1-3.5c.3-1 1.7-6.3 1.5-6.2q.6-.1.8.2zM133.4 156c-.3 2.6-.7-9.8-1-6 .3-3.3-.5-4.6 1-8zM149 142.3q-5.2.5-11 0 4.9-.8 11 0M200.3 131.5q-.4 1-1.3 1c-.8 0-1.4 0-1.8-1zM61.3 154c-.8 1.6-.6 3.3-1.5 4.6 0-2.4.9-4.3 1.5-6.6.7.4.4 1.1 0 2M182.4 142.2c0 .8-.6 1-.8.5-.1-.3-.5-.7-.2-1 .2-.2 1 0 1 .5"/><circle cx="135" cy="142.5" r=".6"/><path d="M61.5 151.5c-.6-.1-.4-1 .5-1.5q.6.5-.5 1.5M62 141q-.6-.8-.2-2 .8.3.1 2M170.3 152q.7.4-.3.6c-1.1 0-1-.7.3-.6M59.7 159.4c0 1.3-.5 1.5-.6.3q0-1 .6-.3M186.3 178.8c-.3 1.6.2 3.2-.3 5l-.6-7.2c-1.4 3.6 1.5 10.5-2.8 10.5l-45 .1q-2.3-.1-2.3-2L134 170c0-1.1.6-2.4 2-2.5h43c1.9 0 3.3 0 5 .5 2.5-.5.6 3.5 1.7 4.7.9-.6 0-1.5.7-2.2.6 2.6.2 5.4-.2 8.2Z"/><path fill="#fff" d="M136 169c-.3.8-.6 3 .4 3.1 4 .3 8.3.2 12 0 3-5-8.5-1.8-12.4-3ZM183.3 169.4c-1.4-.7-2.8 0-4.1 0l-8.7-.1c-.3 1-.4 1.7-.3 3l13.4.2c0-1 .3-2.4-.3-3.1ZM178.4 173.6l-28.7.1h-10.2q-1.4-.2-3.2-.2-.2 2.3.3 5.3h46q.8-2.7.6-5.1c-1.6.3-3 0-4.8 0M139.3 181.2H157c-.5 0 5.5.4 4.6-.5H141c-1.3 0-2.6-.5-4 0-.8.2-.5 2 .4 2.2q2.3 0 4.7-.2l26.6-.3-30.6-.4q0-.7 1.2-.8Z"/><path fill="#fff" d="m172 183.6 7.7.2c-1 .9-2-.1-2.6.7l3.9.6c.8.2 1.5 1 2.6.5-1.2-1.5 0-2.9-1-5-2.2-.5-4.6 0-7 0-4.5.2-8.7-.1-13 .2a9 9 0 0 0 3.1.7l11 .3h4.4c.3.3.8.6.3 1-2.3-.8-4.2.1-6 0-1 0-2.3-1.5-3.3-.3.8.5 1.6-.2 2 .5-.7.5-1.5-.3-2 .6Z"/><path d="M157.8 183.1c-1.4 0-1.5.6-.3.6q1 0 .2-.6M159.8 183.1c-1.3 0-1.5.6-.3.6q1 0 .3-.6"/><path fill="#fff" d="M163.2 183.4q-1.6-.6-2.6 0 1.5.6 2.6 0M147.6 185c-2.7-1-6 .2-8.6-.6l9.1-.5c-1.7-.3-11-.5-11.2 0a3 3 0 0 0 0 1.6c4.8 1 6-1.5 10.2.3.7 0 1.3-.3.5-.8M159 184.5q-1.6-.8-2 0 1.5.4 2 0M171.7 184.4q-6.4-.6-12.1 0 6.2.6 12 0M175.2 184.4q-1.8-.6-3 0 1.6.7 3 0M155.1 185.4a9 9 0 0 0-4.6 0q2.5.7 4.6 0"/><path fill="#fff" d="M168.7 185.4a15 15 0 0 0-6.1 0q3.2.7 6 0"/><path d="M180.4 185.1c-1.4 0-1.5.6-.3.7q.9-.2.3-.7M122.7 183.9c-4 .5-10 .4-14.2.1-1-1-1.9-9.3-2-11.4-.2-1.2.8-1.9 1.8-1.9q5.9-.2 11.6 0 1 .1 1.2 1l1.6 8c.2 1.3-.1 2.6 0 4.2Z"/><path fill="#fff" d="M110.4 172.4q-1.7-.7-2 0 1.2.5 2 0M120.5 178.8c-.2-2-.2-3.7-.9-5.4-.6-.4-1.8 0-2.6 0h-8.3c0 1.8.5 3.1.6 4.7.2 1.3 9.5.7 11.2.7M111.7 181.6c-.4-1.4-1.2-1.4-1.6-1.1s-.6 1.3-.6 2c.8 0 1.7.1 2.2-1ZM120.9 182.5c0-.6.2-1-.1-2-.7 1.2-1.8 1-2.9 1.4z"/><path d="M210.3 184.3h-11.4q-1.5 0-1.7-1.7c0-1.9.2-10.1 1.3-11.6q6.3-.3 12.7-.1c1.1 0 1.8 1 1.7 2.2l-1 9.9q0 1.3-1.6 1.3"/><path fill="#fff" d="M211 173.8c-1.4-1-9.4-.3-11.7-.3 0 2-.4 3.4-.2 5.3l11.4.2c.2-2 .7-3.4.6-5.2M201.8 182.5c-1.2-.6-1.9 0-2.3-.5s0-1.1-.6-1.4q-.3 1 0 2c1 0 2 .3 2.9-.1M209.1 181l-2.8.2-4.5-.1c-.7 0-1.2-.8-2-.3 2 1.6 4.5.5 7.4 1 .3.3.1.5.3.7q.5.2 1.4.1c.8 0 1-1.7.2-1.7"/><path d="M214.6 172.6c.8 1-1 9.3-1.6 10.1-.7-1.8 1-8.6 1.6-10.1M130 185.8c-3.4 1.4-16 1-20.5.7q-2 0-4.2-.7zM48.5 172.6c-6.6 1.2-12.9.1-19.4.6-.4 0-1.1-.7-1.6-1 6.8.3 13.6-.8 21 .4M279.4 173.8c.6.4 12-1.1 15.3.7l-21.4.2c-.7-.8 0-1.4.9-.9 2 1.2 3.8-1 5.2 0M42.9 180l-1.9.6c-3.8 1.1-8 .2-12-.1-2.6-.1 10.9-.7 6.6-.9 4 .1 7.8-.2 11.6.2-1.4.7-2.8-.2-4.3.3ZM99.2 180.8q.5 1.9-.1 3.9c-.5-1.3-.1-2.7-.8-4-.2-.5-1.6-9.5-.7-9.7 1 2.8 1 7.6 1.6 9.7ZM283 181.7c2 1.6-11.8 1.1-11 0z"/><path d="M290.7 172.9q-9.5.6-19.7 0 9.7-.7 19.7 0M124.1 182.6c-.8-.9-1.4-9.1-1.2-8.4-.3-1-.7-2-.3-3.1.8-.3 1.4 7 1.4 7.6 0 1.2 1 2.1.1 4M133.4 176.2c-.5-1.9 1 9.5.4 8-1.6-3-.2-2.8-1.2-8.2q-.5-2.8.2-5.4c.4 2 0 3.7.6 5.6M196 183.2c-1.5 1 0-2.2-.2-4.6q-.2-1.9.4-3.6c.6-1.7-.4-2.2.4-3.4.7.8-.6 11.6-.6 11.6M187.4 181.1c-.4-3.5-.2-6 .6-10 .5 2.9.4 5.9-.6 10M124 168.1c-1.3.3-5.3 1.4-5.6-.5l9.6.1c-1.2 1-2.6 0-4 .4ZM43.6 174.5H31c-.6-.5 6.1-.5 6.6-.4 1.9.4 3.6-.5 6 .4ZM106.4 168.2c1.2 0 2.4-.4 3.5.2l-11 .2q.2-.9.8-1c1.2 1 2.6.2 3.8.3zM106.1 182.2l-.7-2.6v-3c0-1.4-1-2.8-.3-4l.7 2.6c-.3 3.3 1.3 5.6.3 7ZM276.6 180.5c-2.4.3-4.6.4-7.6-.6 1.3-.4 5-.6 7.6.6M196.8 186q-4.2.5-8.6 0 4-.8 8.6 0M198.8 167.8q-3.8.7-8.1 0 3.8-.6 8.1 0M304.2 175.3c.7-1.1 1.8-.9 2.6-1.5-1-.6-1.7.4-2.7-.4q1.6-.8 3.6-1.4.1 1 .6 1.6c-1.1.9-2.1 2.2-4.1 1.7M304.2 183.2c-1.4.6-2.2 1.4-3.6.8q1.4-.8 3.2-1.4c.7-.1 1.2.4.4.6M305.1 181.4q-1.5 1.2-3.4.7c-1.4 0 4-1.6 3.4-.7M29.5 184c.2.7-.8.8-1 .8s-.9-.8-1-1c.7-.2 1.5-.4 2 .2ZM295.2 184q-.9.4-2 0 .3-.7 2 0M45.3 174q.7.6-.3.7c-1.2 0-1-.7.3-.6M244 183.8c-.3.7-.7 0-.8-.2q-.6-.9.1-1.5c.2.6.2.9.8 1.7M75.5 182.2l-.5 2q-.7-1.2 0-2.8c.8-.4.7.1.5.8ZM78.5 104.7c-1.4.8-2.2.1-3.2-.5q-2.7-1.4-5.3-3.3c-5.4-4.4-10.8-15-9.2-22.2C60 75.3 63 68 65 65.4a28 28 0 0 1 18.3-10.6c3.2-.4 6.3 0 9.5 0h31.6l5-.1h17.7l46-.1 4.3-.1 26.4-.1h7.2c8 .1 17.5 4.2 21.7 11a26 26 0 0 1 4 15.9c-.7 9.4-3.7 16.7-11.8 22a10 10 0 0 1-3.5 1.5 15 15 0 0 1-8 1.7H86.2c-4.3 0-3.6-1-6.3-.5z"/><path fill="#fff" d="M234.7 104.5c-.5 2 1.8.1 3.9-.4 5.8-1.4 10.8-6 13.6-11.2q2.1-3.5 3-7.7c1-6.4-.2-13-3.5-18.6a21 21 0 0 0-10.3-9c-3-1.4-11-1.2-14.5-1.2h-25.1l-7.6-.2h-76.7L96.8 56q-7.4-.2-14.6 0c-1 0-6.2 1.8-7.8 2.7Q66 63.4 63.4 72.5a24.4 24.4 0 0 0 15.5 31.3c9.5 2.4 4.1.6 10.2.8 2.9.2 5.7-.2 8.6.1q1.7.2 3.3 0h26.5l10.5-.2h6.6l53.6.1h32.6c1.4 0 2.7.5 3.9-.1Z"/><path d="m185 46.4-19.9.1H139l-47 .1-14.5.2H43.1c-1.6-.2-2.2.7-3.2 1.6s-1.8 1.8-2.6 3c-1.2 2-3.4 3.2-4.8 5.1q-1 1.7-2.7 3.1c-.6 1-1 .1-.5-.6 1.2-.8 1.8-2 2.7-3l4.6-4.8 1.7-1.9 1.7-1.9c-.6-1.7-2 .2-4.4-1 1-.7 2.2-.4 3.5-.4 4.1-.2 3.5-1.6 7.1-5.3l5-5.1c1.2-1.2 1.9-2.7 3.4-3.7q.4-.7.7.1c-1.2 1.6-2.6 2.5-3.8 3.8l-5.1 5.6c-2.3 2.4-5.2 4.3-2.8 4.3H62l7.6-.1 21.1-.3 49.2-.1h10.6l29.6-.2 63.2-.3 31.7-.1q2.6-.1 4.5 1.3c-4.8.6-10 .2-14.6.2l-36 .1-29.2.1z"/><path d="M107.7 36c-1.9 4.5-.7 6.7-1.1 7.6q-.4.5-1.1.3c-2.7-1.2-1-7 .2-9.5-2.8-1.9-5.6.3-6.6 2.7l1.8 4c.3.8.1 2-.5 2.5-1.4 1.2-2.4-3.6-3.5-4.4-2.2 1.4-2.5 5-3.3 5q-.4 0-.9-.5c-1-1.5-.4-3.4.6-4.8l1.9-2.5c.8-1.1-3.4-3-1.3-5.8 1.7-.3 2.5 2.8 3.8 2.8l3-2.4c3.3.2 10.8-2.4 12.4.3l.6.7c1 .4 1.4-1.7 2.5-1.4 3 .8.2 5.2 3.4 6.4 2 .7-.6 1-.2 4.1.1 1.3-1 2.8-2.3 2.6-.8-.2-1.4-1.6-1.2-2.2s1.7-1.1-2.8-.7c-.6.9-1 3-2.3 3-3.2-.1 1.9-8.9 1.6-10.7a4 4 0 0 0-3.5.3c-.9.6-.9 1.7-1.2 2.5Z"/><path d="M115.1 35.6c-.8.5-1 1.7-.3 2 1.8 1.7.5-2 .3-2M133 40c1.3 1.4 3.8-1.5 5.4.8s-4.5 3.6-6.7 2.7-2-4-1-5.9q1.4-2.3-.2-4.3c0 6-4.7 4.8-6.3 6.4-.8.8-.2 3.8-1.5 4.1q-1 .3-1.4-1c-.4-1.2.2-2.4-.1-3.7q-.6-2.6.7-4.8c.4-.6 1-4.6 4.3-4.5 3.6 0 3 2.7 4.6 3.3-.6-1.7 9.6-4.8 8.6-1.2-.3 1.2-3.8 2-5.5 2.7.4 1.4 2.4-.5 3.6 1.2 2.6 3.6-6.8 2-4.5 4.2"/><path fill="#fff" d="M127.5 34.3c-.7-1.1-1.4-.8-2-.6s-1.2 1-.9 1.6q1.5 0 3-1"/><path d="M84 43.4c-2.4.2-1.8-5-1.7-7-.6-1.7-3.6 4.7-7.8.5l-1.8 5.7q-.3.8-1 1.5c-2.8-2.2-1.8-4.9-1.1-7.8.4-1.9 2.5-8.3 3.3-8.9q.7-.3 1.4.1c2.6 1.7 1.9 6.4 3.4 5.7 2.3-1 3.6-3.2 4.6-5.4 1.9.5 3 2.2 2.8 4.2l-.3 5c0 1.5-.2 6.2-1.8 6.4M237.3 41.3q1-.7.7-1.4c-.4-.8-3 1-3.9-.8-.7.2-.9 4.8-3 4.3-2.5-.6.9-7.1 1.5-8.3.7-1.4.9-3.3 2-4.3l2.8-2.9c.9-1 2.4.3 2.6 1.4l.6 5q.3.8 1.1 1.5 1.1 1.2-.2 2.3c-1 1 .3 5-3.2 5.6-.8.1-1.7-1.7-1-2.4Z"/><path fill="#fff" d="M237.2 34.5c-.5-1.8-1.8 2-1.6 1.9.4.5 1.3.2 1.7-.3q.3-.3 0-1.6Z"/><path d="M199.4 33.1c-1 0-2.2.1-2.2.8 1.4 1.7 2.9 3.4 2.3 5.6-.8 2.4-3.3 4.5-5.9 4.1-1-.1-1-2.2-.4-2.5 1.1-.4 4.4-1.9 4-3.2-.3-1.5-3.6-.8-4.4-1.9-1.2-1.6 0-3.8 1.8-4.5s3.5-1.8 5.6-1.6c1 .1 1.2 1.3 1.9 2.3.7-.7.6-1.7 1.8-2.3 2.5 3.3-.1 6 .1 12.1q-.1.8-.4 1.1c-.3.3-1 .4-1.1.1-2.7-3.6.3-7.7-.5-10zM154.6 43.5c-.7-2.4.2-4.6.4-6.8-1.7-.5-2.4.5-4-.9-1.8-1.6 0-3.6-1.3-3.7-.5.7 0 1.7-.4 2-.5.6-1.2 0-1.6-.1-1.4-.6.2-7.2 1.1-7.4q.8-.2 1.4.7c.7 1 0 2 .4 3.3q1.4-1.8 3.1-2.8c1.8-1 3.3-.2 4.3 1.3 1.3 2 1 4.3.1 6.6-.8 2.4-1 7.3-1.8 7.8-.4.2-1.6.6-1.7 0"/><path fill="#fff" d="M155.8 31.8c-.1-1-1-1-1.4-.5q-.8.5-.8 1.6c.8 0 1.3-.1 2.2-1.1Z"/><path d="M221.4 39.9c1.1-.3 1.4.5 1.6 1.1.8 2.1-4.5 3.2-6.7 2.5-.7-.2-1-1-1.9-1q.6-1.4.5-3c0-1.4 1-2.4 1.2-3.6.5-2-1.2-4 1.7-4.9 1.8-.6 6-2 6.7-.5.4.8.1 1.9-.9 2.2l-3.5 1.3c-4.5 1.1 1.5.7 2.1 1.3.3.3.8 1 .5 1.6-1 2.2-4 .9-4.4 1.4-.3.3-1 1.3-.4 1.7 1 .7 2.3.2 3.5-.1M207.2 43.7c-2.2-1.7-.1-5.6-.2-7.6 0-2.2-.3-4 .3-6.4 2 1 3.7 1.7 5.3 3.1 1.9 1.6 2.8 4.7 1.2 6.8s-4.2 2.9-6.6 4"/><path fill="#fff" d="M212.6 36.7c.3-1.4-2.1-3-3.3-2.7-.5 1.7-.1 3.5-.3 5.2 1.6-.5 3.2-1.2 3.6-2.5"/><path d="M164 43.7c-1.6-2-.3-4.8-.7-5.4-.8-1-2 .1-3-2.3-.7-1.5-1.3-6.3.3-6.6 2.1 1.4 1 4.2 2.3 4.6 2.7.8 1.2-7.4 3.2-6.8 3 4.2 0 4.1 2.3 6.5.8.8.4 2-.5 2.5q-.9.5-1.5 1.2c-1.4 3 .5 5.5-.7 6.4-.4.3-1.4.5-1.8 0M90.3 43.7C88.5 44.9 87 40.5 88 36c.2-.7 1.2-7.2 2.3-5.6s1.2 3.4.6 5.3c-1 3.5.2 7.3-.6 7.9M184.2 38.7q-3.9.2-7.6.7c-.8 0-1.2-1.7-1-2.4 9.2-3 9.6 1.7 8.6 1.7M261.4 103.2c1.1-1.6-6.7 6.4-6.8 5.7-.3-.9 6.1-5.9 6.3-6.2q1.7-1.9 3.9-3.2c1-.6 1.6-1.8 2.6-2.3 1.2-.5 1.6-1.4 2.5-2.2l3.8-3.6c1-1 2.4-1.5 3.3-2.8q.6-.7 1-.1a19 19 0 0 1-3.8 3.4c-1.1.8-1.8 2.2-3 3q-2.4 1.4-4.3 3.3zM267.7 105.4l-4.5 3.6c-.6-1 4.7-4.5 6-6 .5 1.3-.7 1.9-1.5 2.4ZM44.4 35.5c2.6-1-4.8 5.9-4.4 5 .9-2.3 3-3.2 4.3-5M60.3 26.7c-1.7 1.4-2.5 2.9-4.2 3.9.5-2.1 2.4-2.7 3.4-4.3q.6-.6.8.4M253.4 110.2c-1.6 1.2-2.4 3.1-4.4 3.8-.9.4 5.5-6.5 4.4-3.8M246.4 116.8c-1.5.9-1.8 2.5-3.8 3.1.6-1.5 2.1-2.3 3.2-3.7q.8.3.6.6M60.2 104.4q-.9 1.7-2.8 1.7.9-1.5 2.8-1.7M272.1 100.9q-.8 1.2-2 2 .1-2.1 2-2M286.1 82c-1 .8-1 1.5-2 1.2q.4-.6 1-1.1c.3-.5 1-.5 1 0M38 42.5q.7-.9 1.5-1.5.6 1.5-1.4 1.5M261.4 110.8q-.9 1-1.4.3l.8-.8c.3-.1 1 .1.6.5ZM280.5 86.7q-1 1-1.4.3l.8-.8c.3-.1.9.1.6.5ZM283 84.7q-.9 1-1.4.3l.8-.8c.3-.1 1 .1.6.5ZM274.1 99.7q-1 1-1.1 0c.2-.6 1-.6 1.1 0M118.7 99.7c-.1-1-.3-14.6-.2-16q.2-4 .1-8l.2-7.3c0-2.6-.8-7.3 2.1-7.3l7 .1h28.7l38.1-.1c1.5 0 2.9-.2 4.1.5q.9 1 .7 2.5l-.1 20 .1 14.2q.1 1.8-.4 3.2c-1.8 1.3-3.7 1.3-5.9 1.3h-70.8q-3.2 0-3.7-3Z"/><path fill="#fff" d="M173.6 63.3q-1.3-.4-1.5.1-.3.7.6.9.8-.6 1-1ZM152.6 65.4q-1.5-.6-2.6 0 1.5.6 2.6 0M172.2 65.4a5 5 0 0 0-3.6 0q2 .7 3.6 0M171.1 67q-1.7-.7-2 0 1.3.5 2 0M158.6 69q-4-.8-7.6 0 4 .5 7.6 0M170.2 68.9q-1.5-.6-2.6 0 1.5.7 2.6 0M150.8 101.4l18.9-.1a64 64 0 0 1-.5-28.6q-3.1-.5-6.3-.3l-10.7.1.9 7.2c.3 8.3.3 13.6-2.3 21.7M120.1 90.5c2.6-5.7 3.1-12.1.1-18-1 1.8 0 3.8-.3 5.7.1 4.1-.5 8 .2 12.3ZM198 88.3c-.8-5 .4-5.3-1-8.2-.5-1.2.2-2.4-.5-3.4l-.8 3.6c-.5 3 .7 8 1.8 10.5q.9-1.2.6-2.5Z"/><path d="M172.7 101q-1-1.1-1.2-.1c.3.6 1 .6 1.2 0M247.8 77.3c1.5 10.4-4.3 19.6-15 21.8q-6.9 1.5-13-2c-1.5-.9-4.5-2.8-5.4-4.3-3.8-6.5-5-12.9-1.3-20a19 19 0 0 1 23.6-8.3c3.6 1.5 3 2 5.9 3.6.4 0 0-.8 0-1.3 2.8 1.4 6.5 8.3 6.2 11.5-.4-.3-.2-1.1-1-1"/><path fill="#fff" d="M228.4 65q-1.7-.8-2 0 1.2.4 2 0"/><path d="M230.9 65q-1.7-.8-2 0 1.2.4 2 0"/><path fill="#fff" d="M239.3 68.2c-.9-2.3-3-2.2-4.7-3l-2.2-.5c-.7-.1-1.4 1-.7 1.2 3 .4 5 1.3 7.6 2.3"/><path fill="#fff" d="M231.2 65.8c-1.2.4-2-.7-2.8.1l2.6.8c1 .2 1.2-.8.2-.9M224.3 67.2c1-.7 2-.3 3.2-.7-1.1-.9-2.2 0-3.8.2-.6.3 0 .6.6.5Z"/><path d="M233.8 66.7c-1-.3-1.7 0-1.2.5q1.5.1 1.2-.5"/><path fill="#fff" d="M231 70q3.6.2 6.1 2.3-.6 1.2-1 2.6c0 .3.8 1 1.3.9.9-.3 1.3-1 2-1.3 3 1.9 3.2 5.7 5 8.3.8-5.4-3.6-10.7-7.9-12.8-6-2.9-12.3-1.9-17.3 1.9-3.2 2.3-5.6 5.7-5.2 9.9a24 24 0 0 1 3.2-6.4c.4-.4 4.6-4.6 5.4-3.8-.4.4-.2 1.9.6 1.9 1.2 0 2.3-.8 3.7-1l-1.2-2c-.3-.3 1.1-.7 1.7-.6z"/><path d="M245 70.6q-.1-1.3-1-1.4-.2 1.3 1 1.4"/><path fill="#fff" d="M231.5 73.3c-.2.6 0 1.1-.4 1.4-.6-1-.8-2-2-2.8q-.4 1.8-.1 3.4c1-1.3 5.2 2.3 4.4.2 0-.3-1.5-2-1.9-2.2"/><path d="M233.7 74.2q0-1-.8-1-.1 1.3.8 1M248 75.5q-.5-.7-.6.3c0 1.2.7 1 .6-.3"/><path fill="#fff" d="M217 85.3c.5-.7.4-1.8.3-2.4s-1.2-.6-1.5-.5c0 0-2 2.3-1.2 3 .5.4 2.2.4 2.5 0M243.3 88.7q1.2-2 1.1-4.3c-1 .1-2.4 0-3.4.9-.7.6-.4 2.3.3 2.5q1.2.3 2 1M216 89.7c.6-.3.4-1.1.1-1.4-.1-.2-.4-.8-1-.2q.6.9 1 1.6"/><path d="M241.4 89.2c.1-.5-.4-.6-.7-.4s-.4.4-.1 1z"/><path fill="#fff" d="M233.6 96.9c.3-3-1.5-1.4-4.2-1.7q-1.4 0-1.4 1c-.1 1.7 3.9 1.2 5.6.6"/><path d="M106.7 85.7a17 17 0 0 1-11.8 13c-5.3 2-10.8 1-15.7-1.5-8.9-4.7-11.8-14.5-8.4-23.4.6-1.6 1.4-2.5 2.3-3.7 6.6-8 16.8-8.3 25.9-3.8-2.7-3.3-6.7-4-10.9-3.6-1.1 0-1.1-1.2 0-1 1.6-.5 2.6.5 3.7.6 3 .4 6.9 2 9 4q1.1.7 2.2 1.8 2.8 3.3 4.5 7.5c-1.9.1-.4-3.3-2.3-2q3 6 1.5 12.1"/><path fill="#fff" d="M86.3 65.7c1 0 1.7 0 2-1-1.2 0-2.3-.3-3.4 0L81 66a5 5 0 0 0-2.3 1.7c2.3-.4 4.1-2 7.6-2Z"/><path d="M93.5 65.6c-1.3 0-1.5.6-.3.6q1 0 .3-.6"/><path fill="#fff" d="M91.4 66.4q-2.9-.6-5.2 0 2.9.7 5.2 0M95.5 66.1c-1.3 0-1.5.6-.3.6q1 0 .3-.6M80.4 68.7c1.7-1.2 3.3-1.3 5-1.7-.3-1-4.7.8-5.3 1q-.7.7.3.7M100.6 67.6c.1-.8-.8-1.3-1.1-.8-.2.4 1 1.2 1.1.8M84.2 73.5c0-.8-1-1.2-1.4-1.9 1-1.9 12.4-1.9 12.8.4.1 1-1.8 2 0 3 .3.3.7.8 1 .7.7-.2 1-2 2-2q.7-.1 1.5.6c.6.8 1.2-.2.4-.6-5.6-4.8-8.3-5.5-15-4.8-8 .8-14.7 9.1-12.5 17 .7.6 2.3.2 3-.3 1.2-.7 1.5-2.8.6-3.7-1-.2-2.1.3-3.2-.1.5-2.6 4.1-9 6.8-8.9.3.5.3 1.7 1.1 1.8q1.7 0 3-1.2"/><path d="M78.6 69.6c.4-.3-.3-.6-.6-.4q-.2 0-.7.7.4.8 1.3-.3Z"/><path fill="#fff" d="M90 75.3c.8-.8.2-1.9-.2-2.2-.4.4-.4 1-.9 1.2-.8-1-1-1.7-2-2-.4 1-1 2.2-.5 3.2.4.5 1.1-.4 1.5-.6.5-.2 1.3 1 2 .3ZM91.8 76c1-1 .7-2.3-.4-2.8 0 1-.4 1.8.4 2.8M79.4 75.7c-1.3-.1-1.4.5-.3.6q1-.2.3-.6"/><g id="CasetteholdersCenter" fill="#fff"><path d="M227.9 94.3a28 28 0 0 0 6.5-.8c.2.8 0 1.5.6 2.5q2.4-.6 4-2.7c1.7-2-1.4-2.5-1-4 .7-2.4 2.3-6.2-.7-8.9q-2-1.4-4.2-2.5a12 12 0 0 0-10-.2C215 81 221 87 216.8 88l3.4 4.4 1.4 2.6c.2.4 3.6 2.4 5 1.8.7-.3 0-2.5 1.2-2.5M89.7 94.6l5.7-1.8c1-.3 1.4 1 1.7 1.8q2.4-1.5 3.5-4.4c-.4-.6-1.4-.8-1.6-1.5-.2-3.1 3-7-1.2-9l-2.4-1.2c-6-2.8-7.7-2.3-13.8.6-5.3 2.5-2 6.6-3.1 8-.8 1.1-1.5 1.2-2.8 1.3A8 8 0 0 0 78 92c.5.6 1.2-.5 1.6-.4 1.6 1 3.7 1.8 5 3.2.4.4-.3 1.9.6 2.1q2.3.7 4.3.1c.5-.6-.2-1.8.2-2.4Z"/></g><path fill="#fff" d="M103.4 78.8c0-.7-.5-.7-.6 0 0 1.1.6 1.1.6 0M100.8 80.4q-1-2-1-.1c.1.6 1.1.6 1 0M101.8 88.1c1.3 2 2.7-3.7 2.4-4.2l-2.8.9c0 1-.4 2.2.4 3.3M80 94.6c-.7-.4-.7.2 0 .5 1 .4 2 1.6 3 1.4.7 0 .6-1.5.2-1.8-1.5-1.1-1.9 1.6-3.2-.1M95 94.9q-.6-1.1-1.2-.4c.6.4.5.8.5 1.4s.5.2.8-.1c.2-.3.1-.3-.1-1M93 95c-.2-.4-1.1 0-1.8.1-.7.2-.7 1-.5 1.5.4.9 2.6 0 2.6 0q.3-.6-.2-1.6"/><path d="M189.4 59.2c1.5 0 6.8.1 6.4 1h-66.3c-.6 0-.9-.6-1-1h60.9M92 101.9q-2-.1-.4-.8c4.7-.8 5.4-1.5 8.9-3.6 3-1.7 6.5-6.7 7.4-9.8.6-2.6.6-6.3 1.5-3.2-1.3 5.1-.7 4.4-3.5 8.4a19 19 0 0 1-3.9 4l-2.2 1.9c-1.2 1-4.6 2.5-4.5 2.5q-1.5-.1-3.4.6ZM117.5 84.3c.4 4 .5 4.2.4 8.5q-.8-.2-1-1l.2-19.1zM216.4 67.2c-1.1.6-4 4.4-5 5.6-1.2-.8 4-5.6 4.5-6 3.7-3.9 13.1-7 17.6-4.2-8 .4-5.1-1-12.2 1.4-2.5.9-3 2.2-4.9 3.2M200.7 91.2c-.6-2.2.6-4.8 0-7.8-.4-1.3-.1-2 0-3.3l.2-4.9c.8-.9 1.3 0 .4.7v16.8c-.3.2-.7-.4-.8-.4-.4-.2.3-.7.2-1ZM202.3 75.2c2-.9.6 9.9.2 11zM211.7 92.3c-1.3-.2-3.7-9.1-2.7-9.5.2-.1.7.4.7.6.4 4.7.7 3.9 2 8.9M225.8 101.6l-2.2-.5c.2 0-8-2.7-5.4-3.2q3.8 2.3 8.2 3c.6-.1.6.4.5.7s-.6.5-1 0M115.7 93.3q-.8-6.3 0-13.1.6 6.3 0 13.1M236 100q-3.6 2-7.7 1l4.4-.4c1.1 0 2-1.3 3.3-.6M72.4 92.3c-.3 2.3-3.5-4.3-3.3-4.5 1.4 0 1.4 2.7 3.2 4.5M68.4 78.2c-1-1 3-10.5 4.5-9.4l-2.3 3.3c-1.4 2-1.1 3.7-2.2 6.1M246.7 91.3q-.4.8-.9 0c1.6-1.6 1.7-5.5 2.7-3.8q.1.3-.4 1zM116.2 78.3a15 15 0 0 1 0-6.2q.6 3 0 6.2M69.3 86.1c0 1-.5 1.5-.7.4q-.8-1.3-.2-2.8c.4.6.4 1.4.9 2.4ZM216.4 96.6q.8.5 0 .8-1-.7-1.6-1.5c.8-.4 1 .1 1.6.7ZM89.9 101q-1.5.7-3.2 0 1.5-.5 3.1 0M213.1 94.9c.2-1.7-.6-.6-1.3-1.8-.1-.3.4-1 .7-.7.8.8 1.2 1.6 2 2.2q-1 1.2-1.4.3ZM128 59.4q-.8.5-2 .1.3-.8 2 0M116.6 70.7q-.5-.8 0-2 .7.3 0 2M201.5 73.2q-.5-.8 0-2 .7.3 0 2M164.8 89.7q-.4-2.5 0-5.4l.5-4.6q.7 2.6.2 5.5zM162.9 86.8q-.7-1 0-2.6.6 1 0 2.6M161.3 82.7q-.5-.7 0-2 .8.3 0 2"/></g></svg>