<svg xmlns="http://www.w3.org/2000/svg" id="Layer_2" viewBox="0 0 534.6 427.5"><g id="Layer_1-2"><path d="M518.4 307.7c-2.8 0-11.8-.5-12.7.1q-.7.5-.8 2l-.1 102.6c0 4.5-.5 8.3.2 12.8l9.8.1c1.3 0 2.6.7 2.5 2.2H229.7l-14.1-.3-4 .2H136l-17.8-.1H20.3c-5.2 0-10.3-.3-14.3-3.6-3.7-2.8-5.7-7-5.7-11.6L0 366v-61.7c0-3.6 0-6.8.8-10.4L13 231.2l4-19.5 5.5-28.4 3.9-19.4 5-25.8 5.3-27 19.3-96.4C57.6 7 61.4.7 70 .7L97.4.5Q100 .4 101 3q1-3 4.3-3H158c1.6 0 2.6 1.5 4 1.6 1.2 0 1.7-1.4 3-1.4l151.3.3h51.9c2 0 4.3 1 6 .8 2-.3 3.3-1.4 5.8-1.4l51.1.1q3.5 0 4.2 2.9 1-2.3 3.1-2.4L468 1c6.7 0 10.5 6.7 11.7 12.9L505 144.6l4.3 21 9.5 48.5 5.9 29.7 3.2 16.3 6.8 36.2v108.2c0 17.5-4.7 14.7-3.8 12.8 1.7-3.8 1.5-7.6 1.5-11.6V305c.3-.6 0-1.2-.3-.7-3.3 3.1-7.7 3.6-12.6 3.3l.2 20.8-.3 77.8c0 .9-.3 6.8-1.7 4.5l.2-93.4c0-3.6-.2-6.4.6-9.6"/><path fill="#fff" d="M156.6 17.6c-.6-5 .6-10.2 2-15.4l-19-.2-36.6-.1c-1.6 5.4-2.7 10.1-3.7 16h57.6c1.8-1.5 2-4.7 1.6-7.1-1.2 2 .2 4.3-1.9 6.8ZM160.1 3l.5 1.7c.7-.7.5-2.8-.9-2.7-.8.1-1 2.2-.9 3.2.7-.5.6-1.3 1.3-2.2ZM433.8 3.5c-.4-1.3-1.6-1.6-2.6-1.5-4.1.6-7.8.2-11.8.2h-42c1.6 3.5 2 11.4 2 15.7l57.9.2c-.8-5.1-2.3-9.6-3.6-14.6M31.4 151.1c1.3-3.3 1-6.6 2-9.9 2-7 2.8-13.6 4.4-20.8l17.7-84.7c2-9.3 3.7-18.3 6.3-27.3 1.3-4.4 7.4-5 11-5.7-2.1-.5-5.4-.2-7.8.7-4.5 1.8-6 6-7 10.5L41.2 98.3 38 115.2q-.3 2.3-.8 4.7L35 130.6l-3.1 15.6c-.4 1.7-1 3.2-.4 4.9M97.2 2.9c-8.2-1-15.7-.4-23.2-.4 5.2 1 18.7 1.8 23.2.4"/><path d="M178.3 2.7q-7.8-.7-15.2 0 7.8.7 15.2 0M193.9 2.7q-5.3-.7-10.2 0 5.3.7 10.2 0"/><path fill="#fff" d="M375.4 2c1.2 5.9 2.4 10.7 2.5 16.2 1.4 2-.9-19.5-2.5-16.1M460.2 2.7q-11-.7-21.3 0 10.9.7 21.2 0M498.6 121.9l-6.7-34.1-3-15.4-3.4-17.4-8.2-42.4c-1-5-5.6-10.6-11.6-10 11.4 4 7.8 7.6 10.6 17 1 3.3 1.4 6.4 2.1 9.6l3.2 14.8 17 82c1.3 6.3 2 12.1 3.8 17.8-.5-7.8-2.3-14.5-3.8-22ZM98.3 18.1c-4 5.8.3-10.2.5-10.8.4-1 2-1.6 1.1-2.7-.5-.8-.8-2-2.3-1.6 2 5.8-8.2 19.5 1.8 16.9z"/><path fill="#fff" d="M184.8 34.3h267.8c5 0 8.8 4.5 10.1 8.8 1.3 4 1.3 7.5 2.1 11.5l12.3 59.1 8.3 41.9 6.3 30.9 3.1 14.3q.8 3.6 1.2 7.4c2.3-.2 4.8 0 6.5 1.2l2.8 2-2.1-14c1.6 4.6 1.7 9.4 3 14.3.5 2.1 7.5 4.5 9 8.1-.1-3.8-.6-6.5-1.3-10L480.6 47l-7.3-36.5c-.8-3.6-3.2-6.3-7.1-6.5-8.9-.4-17.6-.2-27-.1 1.4 5.3 2.9 9.9 3.3 15 0 1-1.4 2.3-2.6 2.3l-59.3-.1c-3 0-4.8-3.5-5.1-6-.4-4-1-7.5-2.3-11.3L278 3.8H162.5l-2.7 14.8c-.4 2.3-4.1 3-6.3 3H96.9a4 4 0 0 1-2.8-1.2q-1-1.1-.6-2.9l3.2-13.3-16.5-.3q-2.8 0-4.8.7c-1 .1-2.7-.6-4-.6q-8 .2-9.3 7.7C60.9 19 59 26 57.6 33.4L49.3 73 22.4 204.7l-2.7 15.8c1.8-2.2 6.1-4 5.3-7 .9.3.5 1 .8 1.5 4-2.7 5.1-2.3 5.5-6.5 1 .7 0 1.6.7 2.3q3.4-3 8.4-2.2l1.6-11.1 16.2-81 5.2-26 4.8-23.1 4.3-21.7c1.4-7.4 6.5-11.5 13.9-11.5z"/><path fill="#fff" d="M439.3 19c3.4 1.8.3-7.6-.2-8.6-1-2-.2-4.5-1.4-6.5-3.4 1 .4 2.9 1.2 9.8.1 1.7 1 3.4.4 5.3Z"/><path d="M112 20q-4-.7-7.4 0 4 .7 7.4 0"/><path fill="#fff" d="M120.3 20q-4.2-.7-7.9 0 4.2.7 8 0M131 20q-5.5-.7-10.2 0 5.3.7 10.1 0M432.2 80.4c-1 1-2.3 1.7-2.9 3.4-.2.7-1.7.7-2.3.8l1-1c.8-.6-.3-1-.4-1.7l-1.3-9.4c-4 .2-7.4-1.2-11.4 0 3 1.5 5.6.4 8.5 1.5-1.1 1.2-6.8-1.1-7.6 0-.4.4 0 1.3 0 1.8.2 1 6.7-.6 8.2.5-2.8.6-5.3 0-7.8.3-.1.7-.3 2 .3 2.1 1.1.3 2-.6 3 .3-.9.8-2.1-.4-3.1.8 1.5 1.4 2.8 0 4.2.9-1 .7-2.1 0-3.4.3 0 1.4 1.1.7 2.3 1.2-.5.8-1.2.2-2.2.6.2 1.2 0 3.5 1.2 4.1s3-.7 3.8.6c-1.4.4-3.1-1.1-3.9.2-.5 1 .8 5.3-1 4.7q-.7-.2-1-1.4c-1.2-7-1.8-14.1-4-21-1-3.5-5.2-4.6-8.6-4.6h-83.4a4 4 0 0 1 3.2-2.3h51.1c.5 0 .7-.8 1-.8s.6.7 1 .7l26.6.2c9.7 0 11.5 6.8 12.2 7 1.2.6 2.3-.2 3.5-.4s3.3 1.3 4.6.1c1.1-1 1-3 1.4-4.5l5-14.6c.5 3.5-6.6 18.9-5.2 19.5 1.7.8 2.4-5.7 2.8-6 1.1.2-2.1 5.3-.6 5.8q.6.1 1-.5c1.5-5 4.4-16.7 6.5-20 .3-.4.7.7 1.1.6 1 0 1.6-1.5 1.5-2.4-3 .4-5-.7-6.3 1.2-.3-.3-.7-1-1-1-.8-.4-1.2.6-1.7 1-.5-.2-1-1.4-1.7-1-.7.2-.6 1.1-1 1.8-.8-.7-.4-1.5-.8-1.7q-.9-.3-1.5.4c.1-.3-5 18.6-5.8 19.7 1-7.2 3.5-13.4 5.3-20-.6-.2-1.8-.4-2.3.1-1 1-.4 2.7-1.2 3.7l.2-4h-14.9c-.5.4-.4 1.5-1 1.8 1.9-3-10.5-1.6-11.5-1.6-1.3 2.2-1.7 5.6-3.7 7-1 .7-10.4 1.8-10.8-2-.2-1.8.4-3.3 0-5l-34.8-.1c1-2.2 3-2.2 5-2.2h17.8c5 0 9.7-.3 14.6.4q.7 0 1-.3c.3-.3.3-1.3-.1-1.3h-33.7c0-1.1 1-1.4 2-1.4l30.7.1c.7 0 1.4.5 1.6 0 .3-.7.5-1.8-.4-1.8H351c.3-1.4 1.5-1.6 2.7-1.6h28q.7-2.2 0-4l-23-.2c-1.4 0-2.3 0-3.7.4-1 .2-2.7-.3-4.1-.3h-192a7 7 0 0 0 0 4.3l18.2-.3 3.4.1 170.7-.2L324.9 60l-35.2 27c2-3.6 5.8-4.6 8.4-7.7H160.8c-4.6 0-8.7-.5-13.3-.8l55.2-.3h12.9l51.3-.2c11.4-.1 22.4.6 34-.6L146 77.1c-4.7 2.8-7.7 7-13 9 3.8-4.4 8.3-7.2 13-10.1l57.8-.2H303l13.5-10.4H192.2l-60.4.3c-3 0-6.3 1.5-7.5 4-1.7 3.3-1.8 7-2.5 10.6l-4.5 23.4-14.2 73.6-3.9 20.3c-.1.8-1.5 1.6-1.5 2.3 0 1.7.5 3.2 0 5l3.3.1c-.7-2.2.7-4 2.7-5.3 2.4-1.4 5.5-2 7.5 0 1.5 1.5 2.8 2.5 2.6 5.1H142q3 0 6-.2l10.1-23.3c1.8-4.2 5.2-7 10-7l136.5-.3 61.3.1c3.6 0 8.8 1 10.3 4.1l12.2 26.6 32.7.1c-.6-2.7 1.3-3.4 2.2-4.6 1.6-2.2 3.1-2.8 5.9-2.1 3 .7 5.1 3 5.2 6.2 0 .7 3 .7 2.8-.1l-4.5-25q-.2-2-1.5-2.8l2.8-2.3 4.3 26.6c.4.5.6 1 .7.5 1-2.1.3-4 0-6l-4.3-21.8q1-1.2 2.6-2.5c1.7 1-1.2.5-.8 2.7l4.5 23.8c.4 2.6-.5 4.4-2.2 7.1l27.7.2-9-49.4c0-.4-.7-.2-1-.2-.4-.2-.3 1-.6.4.4-1.1 1-1.4 1.5-1.9.7-.6-.5-1-.7-2l-5.3-29-1.6-7.9c-.7-3-.7-10.7-3.8-10.8h-25.1l7.4 39.5c1.1 5.7 1 12 3.5 17 1.8 3.6 5.6 7 3.6 11.6-1.2 2.6-2-8-3-7.7-1.2 2.9 2.9 9.7-.7 10l-10.9-59.6c-1-5.5-1.5-10.6-3-16q-.9-3 .2-6.5c1.3.7.6 2 1.9 3.3q0-4.3 4-5.3c2.3-.5 3.7 0 5.5 1.2 1.3.9 2.4 3 1.8 4.8-.4 1.1-2 1.7-2.8 2.2 5 .4-3.5 4.4-7.5.9-.6.4-.5 2.6.3 2.7 5.5.6 10.8.3 16.2.2-2-12.2-1-6 .4-14.2.3-1.6 1.4-3.1.2-4.9q-1.7 4.3-2 9.5c-1.4-1.4-.9-2.8-.3-4.4q1.3-3.8 2-7.8c.2-1.2-1-2.4.2-3.4.9.5.6 1.4 1 2 2.4-4.9 1.4-6.3 5.4-9.3-1.1 3.3-3.2 6.1-4 9.6-.3 1.7-.3 3.3-.9 5-.4 1.3.3 3-.7 4.6-.8 1.3-1.6 3.1-1.4 4.7l1.2 8.3q.1.7.6.3c.9-.8-1-6.2-.3-7.8.8-2 1.2-4.4 2-6.2 1.6-2.8 1.1-4.8 1.3-7.8 0-1.4 4.5-14.7 6-13.3-1.7 6.4-3.9 12.1-4.5 18.4-.1 1.6 1.2 3.8 1.2 6l3.5-12.8c0 8.5-5.2 12.6-2.4 19.6.6 1.3-.4 2.7.6 3.8.8-1-.3-2 .6-2.4q.6 1.1.2 1.5c-.9.5 1 1.1 1.1.7 1.2-4.4 1.9-8.9 3.3-13.5 0-1 .7-1 .7 0q-1.4 6.9-3.4 13.2c-.6 1.7 1.1 2 1.3 2.8.4 1.6.4 3.8.7 5.6l1.5 8.3 6.3 33.9 3.6 19.3 3.3 17.5 2.1-5c-3.8 12.7-.1 6.3-.8 12.4-.2 2.3 1 5 1.3 7.5 0 .6.8.8 1 .3q.8-1.4.8.5l7.5-.4C476 200 476 196 475 192s-1.3-7.5-2-11.4l-6.5-32.6c-.2-.6-.6-1-.4-1.5q.3-.8 1.7-1.5l2.4 12.8 6.6 33.6 2.3 13.1q3 .7 6.5 0l-9-47.5-18.8-97c-1.8 1.3-4 2.6-5.2 4.3-.7 2.5.7 5.3 1.2 7.8l7 37.2L466 137c.5 2.5 1.9 5.1.7 7.5-1.3 2.7-2.4-8.4-2.7-9.9l-5.1-25-4.2-22-2.4-13.3c0-1-.6-1.5-1 0-.6-.7.5-1.4.3-2.2-1.7-3.3 1-7.9-3.1-5.1 2.4-3 6.7-5.4 10.6-9.2l3.3 16.4 7 36.6 9 48.9 4.8 25.2 3.6 18.1q0 .6.4 1.1c0 .2.7-.1.9-.5 1.1-2.8-1-5.2-.5-8.4 1 2.6 1.1 5.4 1.5 8.5q1 0 .8-1.2l-3-19.9c-.8-5-1.8-9.6-2.2-15l5.5 26c.8 4 1.8 7.6 1 11.8-1-.5-.2-1.5-1-2.4-.5 1.8-1.8 2.2-3 3-.4.4-.4 1.9 0 2s1.9.5 2-.3c0-1-.7-1.7 0-2.6.9.8.2 1.8.5 3q2.3.4 4.4.1c0-3.8-1-6.8-1.6-10.2l-8.2-38.9-10.9-53.5-4.6-23.3-8-38.5a10 10 0 0 0-5.7-6.9c-.7 2.5 1 4.6.7 6.7a7 7 0 0 0 1 5.6c.7 1 2 6 1.7 7.2 0 .3-.9.8-1 .6-1.3-1.8-1.2-3.9-2.2-6.1-.8 2.3-1.6 4.5-3.8 6-.7 1.8.3 4.3-.6 5.7q-1.5 1.8-3.4 3.2c0-2.3 4.1-10.6 4-10.6-3.4-3.7-5.7 14.9-9 14.1l6.6-19c.9.8 0 1.4.7 2.4 2.5-2 1.7-13 1.2-16.5-2.3.2-4.7-.5-6.7.2-1.8.6-1.8 3.5-2.2 5l-2.2 6.8c0 .3-2.6 9.8-3.3 7.6-.4-1-.5-2-1.9-2.5l-4.2 15.5c-.1.3.1 1 .1 1.2q0 .4.5.1l.6-.8c0-.8.1-1.4.7-.7 0 4.1 1.2 4.5.6 9.6q-1-.3-.8-.8c-.3-.6-.6-.1-.6 0V79c-1.2.2-1-1.3-.9-2.6-.2-1.2.2-.8.8.3.7-1.5-.4-2-.8-3.1l-3 1.3.8 4 1.3-2.3c-.2 1.2.2 2 .2 3.3-.7.6-1.3.3-1.4.8s-.8 2.3 0 2.3z"/><path fill="#fff" d="M87 105.1c.5-2.2.6-3-.1-5.2-1.4-4-2.6-10.3-3.2-15q2.3 8.3 4.4 17.4c.1.7 2 .6 2.1-.1l.3-7.2c0-1.4-5.1-14.9-4-18l4 16.7c1.8-3.1-2.7-11-1-11.7.4 3 .4 5.7 2.3 8 1-9.2 1-9.1-2.8-18.4l1 8.4-2.1-7.6 3.5-3a11 11 0 0 1 3.6-2.1c-1.5 1.6-3.1 2.5-4.4 3.7 6.4 11.3 1.3 13.3 7.3 22-1.4-4.2-1-8-1.8-11.8s-2.7-7-3.7-11c0-.5 1.2-.6 1.4-.2 1.5 3.1 2 6.4 3.4 10q1.8-6.5 2-13.5.5-1 1.6-1.7c-.5 3.3-.4 6.5-1.1 9.6-1.2 5 1.2 3 1.2 11.6 1.4-2.2 2 1 5-.3.4-.2 1.7-2.6 1.5-3.6q0-.3-1-.7-.6-2.6-.4-5.3c1.1.6 1.1 1.7 1.9 2.7l.7-6c-1-.6-2.2-.2-2.8-.8-1-1.3-1.8-3-1.5-5l1.4 3c0-3.2-1-5.9-1.9-8.4-2.4 1.2-3.7 3.2-6.3 3.8l7.7-6c1.3 3.8 1.6 7.4 3.2 10.7.5 1 3.1.1 3.3-.7 5.4 7.7-2.4-11.9-1.2-12 1.7 1 3 13.6 4.9 13.3 2.3-.5-3.3-12.3-2.6-14.6 1.9 2.1 3.6 14.2 5 14.6 3 .8-3.6-13.4-2.9-16l5 16c2.4.4 2.8-2.1 4-3.5 3.9-4.6 15-4 21.5-4l38.3.1.6-6.8Q180 56 180 52l-.3-4L162 48c-1 1.7-.1 3.4-.4 5.1-.2 1.3-.9 2.3-.9 4-1-3-6.7.3-9.3-1.7-2.3-1.7-2.3-5-3.3-7.3h-23q1-2.1 3.5-2l18.7.1c.4 0 .3-1.3-.3-1.3-5.8-.6-11.3.7-17.3-.8 3.2-2.1 17.9 1.3 17.5-1.8q-.1-.7-1.3-.7l-11.6-.2c2-2.6 9-.4 12.5-1.3q.6-2 .1-4.1l-44.5-.2c-6.7 0-13 0-19.8.4 1.2 4.2-1 16.9 1.3 17.8 5.4 2.2 1-5.6 2.6-10.3.7 1.7 0 3.3.4 5L92.7 68c-3.1-1-4-15.1-7.2-12.4 2 3.7 2.8 7.5 4.3 11.3.4 1 .6 2.4-.7 2.6l-2.5-5.8c-1.7 2.4.1 8.9-3.6 10.2.5-4.5 1.3-8.3 2.3-12.5 1.3-5.3-3.2-6.1-3.8-10.1l-5 24.8c-.3 1.9-.7 3.7-2.4 4.6.3-5.3 1.4-9.8 2.4-14.6 1-5 1.4-10 3.3-14.7.8-2.3 2.7-4 1.4-6.9-1.3.8-1.8 1.5-2.3 3.3.6-6.8 3.9-.5 2.6-11.1-6 2.6-6.1 3.7-7.8 11.8l-15.4 75.8-9 45-7.7 39c5.4-.1 8.2 1.6 8.5-1.7.1-.6-5.5-1.7-5.4-4 .1-3.4 1.3-6.2 2-9.3l6.1-30c1.2-5.6 2-10.8 3.4-16.1-.5 7.4-2.9 15.7-4.5 23.6l-5.2 25.9c-.4 2.1-1.1 4-.3 6 1-.8.1-2 1-2.5.4 1.4-.6 2.6 0 3.3s2.2 1.7 2.9 1.1c1.6-1.7 1.3-4.6 1.7-7.1l8-42.2 3.1-17L68 111l5.6-28.8c.1-.4 1-.8 1.3-.7.1.2.5.6.4 1.2L62 151.9l-10 53q3.3.4 6.2 0c1.1-3.5 1-6.9 1.6-10.6l13-68.8L82 77.1q.5-2 2.6-2.5l-6.7 33.7-12.6 66.4-2 10.4c-.3 1.3 0 2.4-.5 3.8-.6 1.8-1.7 9.5-1.2 9.3-2.4.6 0 .9-1.8 6.5 1.1.1 1.2-.8 1.7-.9.3 0 .6.7 1 .7q3.1.3 6.3 0l-1.4-6 1.6 3.8c2.3-1.8-1.7-6.8-1-8.8 1 1 .5 2.6 2.2 3.4-.1-7.1 1.7-1.6.5-10l1 1.7c1.2-9 3-17.4 4.6-26.2l4.1-22.6c.3-1.2 2.6-.7 3.4-1q-.1-2-1-4.4c-.8.5.2 1.6-1 1.8a133 133 0 0 1 2.5-17.6z"/><path fill="#fff" d="M159 50.1c1.3-.8-.1-1.6-.4-2.3-2-3.7-1.4-7.7-1.1-11.8q-4.7-.5-9.3.2c.6 5 .6 10 2.4 15q3.6.6 7.5-.2c-2-4.3-3-9-2-13.6 1 3.8-.3 10.8 2.9 12.7M382.8 46.5q1.7-5.3.7-10.7z"/><path fill="#fff" d="M390.7 44.2c.4-3 1.3-5.5.8-8.3q-3.3-.4-7 .3c0 4.4 0 11.2-1.7 15.1 2-.3 4.5.6 6.2-.4 2-1.2 1.5-4.5 1.7-6.7ZM440.8 40c.5-1.5.9-2.3 1-4l-48.4-.1a6 6 0 0 0 0 4.1zM453.7 52.6c.3-2 .9-16.1-.6-16.2-.4 0-1.2 0-1.3.4.1-.4 1.6 7.7 0 13.7-.3 1.2-1.9 2.2-1.3 3.5.6-.5 3-.3 3.2-1.4M175.7 43.3h166.2c2.4 0 3.7 0 5.7-1.6l-187.1-.2q-1.8-.2-1.8.7c0 .3-.1 1.3.6 1.2 4.8-.2 9.5.5 14-.3 1.1-.2 1.1.2 2.4.2ZM438 43.5c1.3 0 1.6-.1 1.8-.7s.5-1.4-.3-1.4H394c-.8 0-1 1.1-.9 1.5q.3.4 1.3.5zM341.4 45.9q1.2-.2 1-1.1H173c-5.1.5-9.6-.9-14.7.5 4.4 1.4 8.4.1 12.5.5 6.2.5 12.3.3 18.6.2h18.5zM437.5 46.2c.6.1 1-.4 1.1-.6s.2-.8-.2-.8h-45c-.8 0-1 .7-.9 1 .2.5.6.3 1.1.3a416 416 0 0 1 29.1 0c5 .1 9.6-.7 14.8.1ZM380.7 51.3q2.1-1.5 2-4c-2 .4-2.6 2-2 4M198.7 50.8c-.1-4.1-13.2-3-12-1q7-2.6 12 1M231.4 61.4c1-2.2.8-3.7 1.9-5 .4-.6 1.7-.3 2 0 1.1.8 1.7 4 2.3 3l.5-1c.6-1.3 1.4-3 3-2.2s1.6 2.8 2 4.2c1-1.4.7-3 1.8-4q1.2-.7 2.3 0c1.4.5 1.2 4.1 2 5l1.3-4.6c.2-.7 2.7-.7 3 .1l2 6.3c.4-2.4-.6-4.5.5-6.6.5-.7 1.5-.3 2.3-.3-1-2.7-.4-5.3-.1-8.2h-53.4c-.8 4.5 1 6.6-2.6 7.6 1 .6 2.9-.3 3.4.8.9 2 .7 4.3 1.3 6.7 1.7-2 1-7.5 2.8-7.3 2.7.2 2.9 4 3.3 6.1 1.5-2.8.4-6 3.4-6 1.8-.1 2.1 5.2 2.7 7.2l1.3-6.4c.2-.7 1-.9 1.6-.9 2.4 0 1.7 3.2 3.4 5.6.6-1.8.4-3.9 1.7-5.2 2.6-2.5 4 4.6 4.3 5.1ZM262 63.2c.7-1.3 0-2.5.4-3.7 4.3-1.5 12.3 1.3 15.2-3.7.6-1-.1-2.9.4-4.3-.8 0-.4 1-1.2 1l.6-4.5H260c-.5 1.7-.4 6 2 6.4 4.8.8 9.6-.6 14.7.1-2.8 2.3-6.3 1.6-9.2 2-.8 0-2.2-1.1-3.4-.8-2.2.7-4-1-4.8-2.6-.8 2.4 1 3.8 3 4.6-.5 1.9-1 3.7-.1 5.5"/><path fill="#fff" d="M281.6 63.2h38c4.8-4.2 9.6-7.5 14.4-11.4l4.7-3.7H279c1.7 14.3-6.2 6.9-4.7 15.2 2.3.6 4.4-.1 7.2-.1M199 53.4c-2.8-5-10.5-5.2-13 0 3.6-3.7 8.5-2.6 13 0"/><path fill="#fff" d="M198.6 55.5c-.2-2.6-2.8-1.8-4-3.3-2.8-.5-5.8-.5-7.5 2.1a10 10 0 0 1 11.5 1.2Z"/><path fill="#fff" d="M198.9 57.4c-2.7-4.4-9.4-4.6-12.5-1q6.7-2.9 12.5 1"/><path fill="#fff" d="M198.8 59.5c-3-4.4-10-4.3-12.8-.5q6.6-3.1 12.8.5M202.3 56.7c-2.5-2.1-1.7 7-1.5 6.5zM203.2 56.5c1.4 2.3.9 4.4 1.6 7 1.6 1 .2-9-1.6-7M224.4 62.7c-1.3-2.5-.8-4.8-2.7-6.4.2 2.5 1.3 4.4 1 6.8.9.1 1.8.3 1.6-.4ZM210.2 57c-.2-.2-.8 0-.7.4l2 6.3c1-.2-.5-6.1-1.3-6.7ZM215.8 58.5c1.2 1.9 0 3.7 1.7 5.4q.8-4-1.3-7.3c-.9 1.2-2.4 6.4-2 6.6 2.5 2 .5-4.4 1.6-4.7M227.9 57.3c1.5 2.3.2 6.8 2.3 6-.6-8.3-2.4-6.2-2.3-6M236 63.8c.2-2.6.5-5.1-1.7-7 .2 2.5.3 4.6 1.6 7M242.6 63.6c-.4-2.5-.4-4.8-2.3-7 .2 2.5.1 5 2.2 7M247.1 57.2c0-.4-1.4-.3-1.4 0 1.4.8.7 7.6 2.5 6 .7-.6-.6-4.2-1-6M251.7 59.9c1.4 1.3.8 2.9 2.4 3.8.6.6-1.4-9.7-2.5-6.8-.7.6-2.1 6.8-.7 6.5 2-.4-.3-1 .8-3.5M258.5 64c1-2.7.2-5.2-1.4-7.4-.1 2.7.5 4.9 1.4 7.5"/><path d="M260.3 63.2c.6-2.1.9-4.8-1.3-6.3.6 2.3 1.2 4 1.3 6.3"/><path fill="#fff" d="M185.9 62.5c3.1-3.8 8.1-2.3 12.6-.7-2.8-4.1-9.1-4.2-12.5-.9-.6.7-.2 1.6 0 2 .4.4 1.3.2 1.9 0 3.4-1.3 6.4.1 10 .4-3.6-3-8-2.6-12-.8M220.8 58.7l-.7 4q.2.7.7.7c1.5-.1.5-4.2 0-4.7M233.1 63.8c1.8-2 .4-3.6 0-5.2q-.7 3 0 5.2M240 63c0-1.8 0-3-.8-4.3-.5 1.4-.6 3.2-.6 4.6.4.2 1.5.4 1.5-.3M245.3 63.7c1.3-1.9.6-3.5-.1-5-.5 1.6-1.5 3.4 0 5M226.8 63.7c1.9-1.5 1-3.2.5-4.7-.7 1.5-1.8 3-.5 4.7M273 60.7a30 30 0 0 0-9-.1c2.9.5 6 2 9 0M272.8 62.7c-3.1 0-5.9-.5-9.2.2 1.8 1.7 3.8.6 5.6.6 1.3-.8 2.5.2 3.7-.8ZM116.2 97.3c-1.6 3.2-6.4 4.7-9.1 2.1-1.7-1.6-2.6-3.1-2-5.3.8-2.9 6-5 9.2-3.1q1.4 1 2.5 3.4l2.8-13s1.5-8.1.6-6.8c.1-.3.7 0 .7-.8l-8-.4c-1.1.2-1.2-.6-.1-.4 2.3-.1 4 .7 6-.6-2.7-.8-5.6-.5-8.5-.1-1.8 5.2.7 15.5-7.9 14.7-1.4 3-2 6.6-3 9.5-2.4-3.5-2.1 1.8-2.9 4.7q-.2.9.4 1.2c.3.3.9 0 1-.4.3-1-.3-2 .4-2.7.8 1.1-.2 1.8 0 3 5.6.7 11 .4 16.9.2a19 19 0 0 0 1-5.2ZM99 79c-1.4 3.9.3 7.2 1.5 10.4 0-1.4-.3-10.7-1.5-10.4"/><path fill="#fff" d="M107 96.3c2.4 1.3 2.6 2 4 1.7 1.7-.3 5.4-2.9 4.5-4.7-.3-.8-2.1-2-3-1.3-1.2.9.6 2.8.6 4.4-2.3-.6-4.3-1-6 0ZM427.8 95c-.7-1-.6-1.8-1.1-1.5-1.6.7-2.8 0-3.2.5-.2.2.7 1.2.2 1.3-1 .3-1-1.1-.9-1.7.2-.7 1-1 1.7-1.9-1.6-.1-3.4 1.1-3.6 2.3q-.6 3.2 2.5 4.3c2.6 1 6.4-.4 7-3.4.2-1.2-1.7-2.2-2.4-2.5 0 1.2.7 2-.2 2.6ZM88.4 205.8H70.7c-1.1 0-1.4 2.5-.6 2.5h25.1c.8 0 .7-2 .2-2.2-1.1-.6-2.5.2-3.6-.6l4.1-.8c.8-1.3-1.2-2.1.2-3.7q-1 .4-1.3 0c-.4-.4-.7-1.6-.7-2 1.9-12.5 4-19.7 5.9-31.4.4-2.4 3-3.6 3.8-5.6l11.3-57.7c-8.6-1-17-.3-26 .1l-4.4 22.7c1.3 1.2 3 1 4.6 1a80 80 0 0 1 12.4.4c3.4.3 1.8 6.6 1.1 8.7s-2.6 3.3-4.8 3.3H82c-1.2 9.8-3.2 18.7-5 28L70.4 205l7.8.2 8.3-.3c.9 0 2-.4 2 1"/><path fill="#fff" d="M100.8 131.5c.5.1 1.1-1.3.9-1.4-1.7-.5-14 0-16 .7 1.7 3.3 4.9-1.2 15.1.7M505.6 160.1c.1-3.6-.8-7.1-1.8-10.7 0 3.8.8 7 1.8 10.7M99.1 181c.8 0 1.4-.6 1.5-1 .6-5.4 1.9-10.1 3-15.5q-1.2 1.2-1.6 3zM183.7 208.4l73 .1 24.5-.2h70.4l-4.6-2.8c-3-1.8-1.3-7.4 2-9q4.6-1.9 8.2 1c3.6 3 2.7 4.6 1.7 7.4 4.4.7 8.6 0 13 .1q6.9.3 14.7-.2c-4.4-8.7-7.6-17.2-11.2-25.6q-1.6-3.8-5.5-3.7l-64.7.1H164.9c-2.4 0-4.2 3-4.9 4.7l-10.5 24.4h14.7c4 0 7.7-.4 12 .4-1.3-4.2.5-7.5 4.4-8.9 3-1 7 .2 8.5 3.6.7 1.6 0 3.3 0 5.1 7.7-.5 13.4-.2 21 .1l15.5.6-31.8.2c-8 0-4.2 0-10 2.6"/><path fill="#fff" d="m96.7 198.4 3.4-16.5c-1.6-2.8-4.3 17-3.4 16.5M186.6 199c-1.6-1.9-3.9-1.8-5.7-1.3zM355.9 198c-1.9-.6-3.8-1-5.6-.2q3.9.1 4.2 3.7c2.8-1.2 1.5 2.2 3.4 1.5.5-.2 0-4.3-2-5M427.6 202c1.5 1 2.2 2.6 4.3 3.2.4-2.8-1.9-4.6-4.5-4.7a4 4 0 0 0-4.1 4.5zM112.5 204.4c-1-.6-1.5-1.5-2.3-2.6-1-1.4-3.5-1.3-5-.5a5 5 0 0 0-2.4 3.1q2.8-.4 4-2.3c2.2 1.3 2.5 4 5.7 2.3M106 208.1c.3-1.6-1.7-2.2-3.4-2.5-.5.7.2 1.8.8 2.3.6.6 2 .6 2.7.2ZM57.8 208.3c.2-1.2 0-1.7 0-2.4l-5.4-.2q-1.1 1.2-.6 2.6 3 .4 6 0M101.4 208.1c-.4-2.1-1-2.1-2.3-2.2-.7 0-1.3-.2-1.4.3q-.4.5-.3 2 2 .4 4 0M111 206.1c-1.8-.4-3.7.1-3.5 2 0 .5 1.9.4 2.4-.1s1.2-1 1-1.9M143.9 208.3c1.3.7 3.1-.5 3.1-2.1l-21-.2c-1.7 0-15.4-1.3-12.7 2.4l27.5-.1c1.2 0 1.5-1 3 0M183 208.3c-3.2 0-4.5-2-6-2.1-9.3-.9-18.3-.3-27.5-.2-.9 0-1.4 1.8-1.2 2.3zM386.4 206c-4.7-.6-9 0-13.5 0-5 0-9.9-.7-14.9.1l-3.3 2h32.6c.6 0-.1-2-1-2ZM421.8 208.2c.3-1.5-.6-2-1.8-2l-30.8-.1c-.2.9.3 2 1.3 2zM426.8 207.8c-.3-1.9-1.6-2-3-1.4.4 1.3 1.5 2.3 3 1.4M431.6 206.4q-3-.9-3.7 1.5c1.6.8 3.4.2 3.7-1.5"/><path d="M437.4 206.6c-.7-.6-2.2-.6-3.2 0-.6.3-.7 1.3-.3 1.4a7 7 0 0 0 3.6 0c.3-.1.3-1.1 0-1.4Z"/><path fill="#fff" d="M466.8 208.1c.4-.5.2-1.8-.3-1.8l-1.4-.1-25 .1c-.7 0-.7 1-.6 1.4q.2.4 1.2.5zM472 206.7q-1.3 0-2.3-.3c-.5 0-.5 1.1-.3 1.4h2.3c.4-.2 1.1-1 .3-1.1ZM486 208.2q.6-1.4-.3-2l-6 .1q-.6 1.2.4 1.9zM274.8 210H260c1.4 2.7 4.4 4 7.1 4.2 3 .2 6-1 7.7-4.2"/><path fill="#fff" d="M517.7 287.2c.5 3.6.3 6.3 1 9.4.3 2.2-1.2 4.4-.9 6.4 0 .6 1.4.5 1.6.3s.1-1 .6-1.7c.5 1 .4 2 1.7 1.8 3.4-.5 1-6.1 2.8-6.3 0 1.7-.4 3.2-.9 5.4 4-1.2 5.5-5.2 5-9.1a616 616 0 0 0-3.8-23l-5.6-31.2c-.9-5.3-1.5-10.4-3-15.8q.3-1.6-.7.2-1-2.4-3-3.1l3.7 22.2c-1.8-6.2-2.6-12.5-3.7-19.1-.4-2.6-.3-5.5-3.5-6 .3 2.3 1.6 3.3.2 4.5 0-3.1-.3-6-3.3-6.8 0 3.6 2.2 6.4 1.3 10l-2.1-10.5c-.2-1-1.4-2.1-2.1-1.1-.4.8-.7 0-.5-.5-1-3.2-3.4-3-6.3-3H276.9a10 10 0 0 1-11.6 6q-5-1-7.7-5.9l-218.9.2c-5 0-13.3 8.3-13.3 8.8l-2 10c-.6-3.4 1.1-6.3 1-9.7-3.9 2.4-5.8 2.9-6.2 7.3-.3 3.9-1.3 7.5-2 11.3l-4 22.7-6 33c-1.5 8.5 6 9.2 6 9.2l1-.8q.7 1.5 2.3 1.3l.3-15.4.5 15.3 3.5-.1.4-5.2c.8 1.8 0 3.6.5 5.4h476.4c6.3 0 11.9-.3 18 0l.5-12c.3 3.7.6 7.4-.1 11q-.4 1.1.6.8c.5 0 1.3-.6 1.3-1z"/><path fill="#fff" d="M13.2 305.7a10 10 0 0 1-7.6-4c-2-2.4-1.5-5.1-1-8.1L9 268.4c1.7-9.7 3.6-18.8 5-28.7l-3.1 12.7L2.3 297c-.5 2.4 0 4.8 1.5 6.4 2 2.4 7.4 2.8 9.4 2.2ZM523.1 305.8c3.6.7 9-1.4 9.2-6q0-7.1-1.7-14.3l-9-45.8c1.1 12.3 4 23.7 5.8 35.8.7 4.8 2 9.2 2.3 14 .5 7.4 2.8 11.6-6.6 16.3M7.3 311.6c0-1.6 0-2.9 1.2-3.5l.6 30.4.2 70c0 14.5 4 18.4 3.8 15.2q-.5-8.2-.6-16.2l-.2-18v-81.9c-3.9.1-7.2-.3-10.3-2.7l-.3 96.3c0 5-.1 9.3.9 14.3 1.4-.6.2-1.8 1-2.5.7 1-.2 1.9.6 2.4.6-1.7-.6-3 .7-4.2.1 2.6-.3 4.6.3 6.6-1-.6-.7-1.8-2-2a11 11 0 0 0 7.2 7.7c-2.7-5.2-2.5-10.3-2.5-16.1zM84 416.4c.7 1.2 1.5 2.1 2.4 1.8 1-.4 1.7-2.2 3-1.4-.8 1-3.2 1.5-2.3 2.7s2.7 2 4 3.2c.5.5 1.6-.7 1.7-1.3.1-.8-.8-1.5-1.4-1.7-1-.2-1.5.7-2.3 1.3-.6-1.4.7-1.3 1-2 0-.5-1.1-.8-.8-1.5 3.3 3 3.4-4 5.9.6-1-.3-1.5-.9-2.1-.4-.4.3-1.4 1-1 1.5.8 1.2 2.1 1 2.6 2 .4.7 1 1.6 1.8 1.5.6 0 1.4-1 1.3-1.6-.3-1.6-2.6-.9-2.6-2.2-.1-1.9 1.1.3 3.1-2.6.9 1.3-.9 1.2-1.2 2-.3 1 1 2 1.8 2q1.2-.2 2.2-1.8c1.2.1 6 7 6.4 3 0-.5-.4-1.4-1-1.6q-.7 0-1.8.3c.3-1.8 1.8-2.3 3.3-3.2-.4 1-1.3 1.5-.9 2.2s1.1 1.2 1.7 1q1-.5 1.3-1.4c.3-.8-.6-1.3-1.5-1.5-.9-.4-.5-1 .4-.8.8 1.2 2.4.9 3 1.3.6.3.3 2 1.6 2 .7 0 1.3-.7 2-1.2.8 1-.7 1.4-.6 2.1s1.3 1.4 2 1.5c1.1-1.8-.4-2.9-1.2-4.1-.3-.6 1-.8 1-.3q0 .4.6.8c.4-2.3-.5-4.2.4-6.2l.5 8.7c0 1.3-.7 2.8.3 4.1 2.4-1 2.5-3 2.5-5.6V313c0-2.4-.8-6.4-3.7-6.4l-75.9-.2c-2.4 1.8-3.3 3.6-3.3 6.5v79.6l.2 29c0 1.3 1.2 3 2.4 4v-10.7c1.8 2 .2 7 1 10.3 2.2.9 4.3.2 6.3.3 1.5.1 2.4.4 4-.5.2-.1 1.2.5 1.5 0 .2-.4.8-.8.5-1.3-.5-1-1.4-1.7-2.2-1.2q-1.2.7-.8 2.6c-2.3-1.2-3.8-3.5-5.7-5-1.3-1-.9 4.2-2 1.8-.2-.3-1-.6-.6-1.1.2-.3 1-.4 1.3-.8.7-.7-.6-1.3 0-2.4q.9 1.3 2.6.6c-.3 1-.6 1.5 0 2 2 1.8.5-.6 4.6-1.6-.3 1 .4 1.8 1.2 2 .4 0 1.2-.6 1.4-1.4.1-.4-.8-.7-1-1.5l1.8 1 1.4-.4q-.5 1.5.5 2 1 .8 1.8 0c.6-.7.2-1.2 0-2.1 1.3.7 1.8 0 2.8-.5.3-.2.8.5.2.6l-.7.7c.3.8 1.2 1.2 1.8 2 1.5-1 2.2-2.7 4.1-3.5.2 1-1 1.3-.7 1.9s.9 1 1.4 1.4c1 .5 2.2-2.2 3-1.9l1 .9c1 1.2 1.6 1.6 2.7.5.9-.9 1.4-1.4-.1-2.4 1-.5 1.4.2 2 .2q1.3-1.2 2.8-1c.8 0 1.3 1 2.2 1.4.6.4 1.2-.9 2-.7-.5.5-1.5 1.2-.9 2 .4.6 1.1 1.2 1.8.7s1.6-1 1.1-1.8q-.5-.7-2.2-1 .4-.9 1.2-1Z"/><path id="PlayBTN" fill="#fff" d="M210.9 425.2c.3-3.8-.2-6.5.5-9.4l.5 9.3c1.5-.3 2.6-2 2.6-3.7l.2-17.7v-92.6c0-2.8-2.3-4.9-5-4.9H136c-2.8 0-4.1 2.9-4.1 5.5l.1 109.6c0 1.7 1.6 2.7 2.3 3.5.6-1.4-.3-2.6.8-3.4.6 1-.2 3.3.9 3.9l55 .2z"/><path id="StopBTN" fill="#fff" d="M303.7 416c2 1.4.2 6.5 1.1 9.2 2.5-1.2 2.6-3.1 2.6-5.6l-.1-109.3c0-2.7-2.4-4.1-4.5-4.1h-74.3c-1.8.2-3.1 3.7-3.1 5.3l-.2 13.6.2 94.5c0 2 .3 5.6 3 5.6h75.4z"/><path id="RewindBTN" fill="#fff" d="m393.4 421 3.7-57 2.2-40.7q.3-6.2 1.1-12.3.3-2.3-1.3-3.7c-1-1.1-2-1-3.8-1l-73.3.2c-2.5 0-3.1 4.3-3 6.2l1.7 25.2 5 82.4c0 1.8.5 5 3 5h62.2c1.5 0 2.3-2.7 2.4-4.2"/><path id="LoadBTN" fill="#fff" d="M491.5 416.4c1 3.4 0 6 .3 8.9 2.4-.9 2.8-2.7 2.8-5.1V311.7c0-2-.8-4.8-2.6-5.3h-76.8c-3 .1-3.4 4.8-3.4 7V419c0 2.2.2 6 3.3 6l75.6.2z"/><path fill="#fff" d="m26.2 379.3-.1-41.5-.3-26.5c0-1.3.3-3.2-1.5-3.4-3.6-.4-7.2-.1-10.9-.2.4 1.5.5 2.4.5 4l.2 103.6.7 10 11.4.2zM320.6 371.3c-.7 4.7 0 9.1.1 13.9l.3 30-1.1-21.7-.3-21 .8-2.4-1.3-25c0-2.1.3-4-1-5.7-.3 4 .1 7.4.1 11.3l.2 34 .2 40.3c1.5.7 3.2.3 4.2-.7.6.7.9 1.4 2.1.8-1.2-1.5-1.3-3-1.4-4.8l-1.9-34.8q-.3-7.1-1-14.2ZM400.2 424.8c1.6-2.7.7-5.7.7-8.5v-64c0-2.6.5-5-.8-7.3-.6 2.2 0 4-.1 6.2l-1 14.7q-.6 5.3-.8 11l-1.9 42.5c0 1.6-1.5 3.6-.4 5.1.7.9 3.8 1.3 4.3.3ZM80 419.1c.4-.4-.9-1.4-1.4-1.6q-1.3-.2-2.3 1.4l2 2c.5-.8 1-1 1.7-1.8M111.8 422c.7-.6 1.5-1.2 1-1.7q-.7-.7-1.3-1.2c-.6-.1-1 .6-1.4 1q-1.1 1-.2 2c.5.5 1 .9 1.9 0ZM50.2 420c-.8 0-2 .8-1.8 1.5s1.2 1.5 1.8 1.4c.6 0 1.6-1 1.5-1.7 0-.5-.9-1.3-1.5-1.3ZM54.6 420c-1.4.6-1.3 1.5-.5 2 .4.3 1 1 1.5.7q1.2-.7.7-1.8c-.3-.5-1-1.3-1.7-1M62.6 422c2-.5 2 1.5 3 .8.4-.3 1.2-.8 1-1.6 0-.4-.7-1-1.3-1.3-1.2-.7-2.6 3.5-4 2.4 0-.5.6-1.4 0-1.8-.4-.2-1-1.2-1.5-.7a21 21 0 0 0-3.6 3.7c-.4.5.6 1.5 1.3 1.4q3.6-.3 7 .4c.1-1.5-1.3-2-2-3.3M74.4 424.6c.6-.8-.7-1.8-1.3-2-1.7-.4-2.1 2.9-3 2-1.6-1.5 2.8-1.6 1.9-3.2q-.8-1.4-1.7-1.5c-.8 0-2 1-1.7 1.4l1 2.4c-.8-.5-1.8-1.5-2.5-1-.5.4-1.2 1.2-.6 1.7 1.4 1.3 3.1.5 4.8.5.9 0 2.2.9 3.1-.3ZM79.7 423.7c-.3-1-1.3-1.5-1.8-1.3-.5.3-.8 1.4-1.9 1.1.4-1 1.7-2 1.3-2.5s-1.3-1.6-2-1.1q-.9.5-1.5 1.8c-.1.6 1 1.1 1.6 1.6 1 1 .6 2 1.8 1.8 1.1-.1 2.8 0 2.5-1.4ZM82.4 421.5c0-.6-1-1.6-1.7-1.7s-1.8 1.1-1.5 1.6q.7 1.1 1.7 1.3c.5 0 1.5-.5 1.5-1.2ZM86.7 422.6c1.4-1 1-1.6.3-2.2-1-.8-1.4-.4-2.2.3s-.4 1.3.6 2c.2.2.3.9.6.9s.4-.7.7-1ZM101 420c-.8.4-1.6 1.1-.8 1.7.5.4 1 1 1.5.8q1.3-.8 1-1.7c-.5-.5-1-1.2-1.7-.8M114.5 425c.9-.3 1.3-1.7.9-2.3-.3-.5-1.3-1.2-1.8-.8l-2.2 2c.7.7 1.8 1.4 3.1 1M88.5 422.4c-.9.2-1.6 1.3-1.3 1.8q.7.8 1.6.8c.9.1 1.6-.8 1.2-1.5-.2-.3-.7-1.3-1.5-1M95.4 424c-.1-.8-1-1.7-1.6-1.8s-1.3 1-1.6 1.7c-.2.8 1 1.2 1.6 1.2.5 0 1.8-.2 1.6-1M98.7 422.3q-1.6.9-1.4 1.8.8 1.2 1.9.8c.5-.2 1.5-.6 1.2-1.4-.2-.5-1.1-1.6-1.7-1.2M103.6 422.5c-.8.2-1.3 1-1.4 1.5-.1 1 1.1.8 1.6 1 .9.1 1.5-.9 1.3-1.4s-.8-1.3-1.5-1.1M106.8 424.6c1.8.9 2.5.2 2.9-.5.2-.4-.3-1.6-1-1.7-.8-.1-2 1.5-2 2.2M83.2 425c1 0 2-.4 1.8-1q-.4-1.1-1.5-1.3c-1.1-.2-1.7.5-1.8 1.2 0 .4.7 1.2 1.5 1.1Z"/><path d="M434.4 84.4q.8 2 .5 4.4c-.7-.6-.3-1.5-.8-2.4-1.6-.3-3.4.3-5-.7-.6-.4.1-1.5.2-1.9 1 0 .7 1.1 1.4 1.9 1.2-.6 3-.2 3.7-1.3Z"/><path d="M434.4 84.4c-3.5.2.6-6-2.2-4 1.2-1 1.8-2.7 3.3-2.7l-1.8 1.7c-.6.6.2.8.7 1.6.6.9-.4 2.4 0 3.3M523.9 412c-.5.5-1.3-.6-1.3-1.4l.4-73 .3-30c2 3.6.8 7 1 10.8l-.2 58.3zM521.4 332.4l-.3 50.2c0 8.1.2 15.6-.7 23.8v-97.6c1.3 5.4-.2 11 .6 16.7.3 2.3.4 4.3.4 6.9M524.3 426q2.2-3.6 6-5a7 7 0 0 1-6 5M506 420.9q-.6-6.5 0-13.5.8 6.5 0 13.5M495.6 240.8c-5.5 7-5.6 5.2-15.5 5.3l-61.8.4c-6.2.1-11-4.2-10.5-10.7.2-3.5-.6-7 .1-10.4.7-3.8 3.4-7.8 7.7-7.8h72.3c4.7 0 7.6 4.5 8 8.6a63 63 0 0 1-.3 14.6"/><path fill="#fff" d="M437.4 225q-3.8-.7-7.2 0c1.8 2.2 5.2 2.2 7.2 0M442.8 226.4c2 .6 5 1.1 5.9-1.3-2-.5-4.1-.1-6.1-.2 0 .6.4 1.3.1 1.5-.2 0-1.3-.6-1.4-.4-.5 1.6-.8 4 .4 5.7 1.6-1.5 1-3.5 1.1-5.3M466.3 231.6q.9-2.7.3-5.3c-.2-1-1.3 0-2 .1 2.5-2.6-5-1.5-5.5-1.4-.2 0 .2 1 0 1.2-.2 0-1-.3-1.1 0-.7 1.6-.7 4.1.6 5.5 1.5-1.1.4-3.3 1.2-4.6.7-.8 4-1 4.8-.3.7 1.6-.3 3.9 1.7 4.8ZM477.2 225c-2 0-4.9-1-6.8.5-1.7 1.2-1.2 4.8 0 6.2 1.3-1.8.4-3.5 1-5 1.9-.6 6 1 5.8-1.8M438 231.6c.6-2.1 1.1-4.6-.2-6.3-2 1.8-1.9 4.6.1 6.3M430.1 232c1.3-2 1.6-4.6-.4-6.2-.7 1.8-1 4 .4 6.1M449.3 226q-2.8 2.9.4 5.9c.5-.5 1.2-7.4-.4-5.9"/><path fill="#fff" d="M478.4 225.7c-2.1.6-2 1.9-1.9 3s.3 2.6 1.9 2.8q.3-2.8 0-5.8M429.9 238.7c2.1-2 1.4-4.7-.3-6.2-.4 2.2-1 4.6.2 6.2M438 238.6q.9-3-.2-6c-1.7 1.7-2 4.7.2 6M449.2 239.6c-.3-2.5-4-2-6.4-1.5 0-2 .4-4-1.4-5.4-.7 2-.3 3.8-.2 5.8 3.8-.9-2.6 1.4 8 1.1M458.3 239c2.2.6 5.2 1.2 7 .2 2-1.2 1.6-4.9.7-6.6-1.6 1.7-1.2 4-.3 6-2.6-.8-5.3-1.9-7.4.4ZM449.7 232.8c-1.8.5-1.5 2-1.5 3.3 0 .8.4 1.9 1.8 2 .1-1.8.3-3.4-.3-5.3M457.7 238.3c2.3-.7 2-1.9 1.8-3.2-.2-.7-.3-1.8-1.6-2-.4 1.7-.1 3.4-.2 5.2M469.9 239c2-2 1.8-5 0-6.1-.3 2-1.2 4 0 6M478.4 238.5q.3-2.7 0-5.5c-1.8.1-1.5 1.6-1.8 2.8-.2 1 0 2 1.8 2.7M478 239.2a5.5 5.5 0 0 0-7.6 0q3.9.8 7.5 0"/><path fill="#fff" d="M437.4 239.3c-.3-2-7.4-2.2-7 .3 2.6-.2 4.7.2 7-.3"/><path d="m75.7 272.7-17.8-.2c-3 0-5.8-1.8-6.2-4.9s-.2-6.1-.3-9.2a393 393 0 0 1 0-28.3c.2-3.5 2.7-6.5 6.5-6.5h39c2.6.5 3.9 4.6 4 6.7.1 12.3.4 24-.2 36.1-.1 3.5-2.5 6-6.2 6.2-6.2.5-12.4.1-18.8 0Z"/><path fill="#fff" d="M57.4 270.5c7.6.5 15 0 22.8 0 5.3 0 10.4.5 15.6-.8 2-.4 2.9-3.4 2.9-5.4-.1-11.2-.4-21.8.1-33 .1-2.6-1.9-5.4-4.8-5.4l-36.1-.2c-2.3 0-4 1-4.3 3.4-.4 4.2-.1 8.4 0 12.6 0 8-.5 15.9 0 23.8l.7-6.9c1.5 4.1-2.1 11.5 3 11.9Z"/><path d="M411 212.7c-2.7 1.5-5.3.7-8 .7l-44.1.1h-35.8c-1.3 0-2.5-.8-3.9-.5-2.3.7-4.6 1-6.8.1-1.4-.5-2.6.4-3.9.3-2.4-.2-4.8-.9-7.2.1l-10-1 89.1-.1h5.1l88.6.2c-3.7 1.2-7.7-.1-11.7.6a17 17 0 0 1-7.9-.1c1.4.4-16 0-11 .5l-6.2-.6c1.7.2-11.8 1-17.3.2-3-.4-6 1.3-8.9-.5ZM367.3 289.8l-2.4 8.7c-.3.9-2.8.5-3-.4l-3.3-13.1c1-.4 3-.6 3 .1l2 8.7c2.2-3.4 1-8.9 3.7-9.2q1.1 0 1.5 1.2l2 8.7 2-8.8c.3-1.2 1.3-1 2-1 1.3.1.9 1.4.7 2.5q-1.2 5.6-2.8 11.1c-.2.8-2.8 1-3 .2zM20.7 296.9a10 10 0 0 1-.1-4.8l5.3-36.4c.8-5.7 2.1-11 2.5-16.8 2.2-8.3 2.3-16.6 5.5-25l-9.4 59.3-1.6 9.6zM346.4 298.4c-5 2.6-3-5.8-7.4-4.7l-.6 5c0 .4-2 .3-2.5 0l-.4-13.7c3.7-.8 9.8-1.2 10.7 3.2q.3 2.6-2 4.8c0 2 1.8 3.3 2.1 5.4Z"/><path fill="#fff" d="M343 288.5c-.4-1.6-2.9-1.5-4.1-1.3q-.6 2.2.1 3.9c2 .5 4.7-.1 4-2.6"/><path d="M73.7 298.8c-5 2.3-3.7-6-7.4-5.2-1.6.4.4 5-1.4 5.2-.9.2-2.1.1-2.1-1v-13a20 20 0 0 1 8.2.4c1.7.6 1.8 2.7 2.1 3.8.6 1.8-1.4 2.8-1.6 4.1-.2 2 1.7 3.7 2.1 5.7Z"/><path fill="#fff" d="M70.1 289.7c.4-1.7-.8-2.5-1.5-2.5s-2.1-.6-2.6.2c-.5.6-.7 2.7 0 3.4 1 1 3.8.5 4.1-1"/><path d="M442.4 298.9c-3.5-1.5-4.4-5.6-3.9-8.9s3-5.7 6.3-5.5 5.7 3 5.8 6.5c0 2.4-.1 4.5-1.8 6.2-1.4 1.5-3.8 2.8-6.4 1.7"/><path fill="#fff" d="M446.9 295.3a8 8 0 0 0 0-6.7 3 3 0 0 0-2.7-1.6q-1.4 0-2.1 1.6c-1 2.4-.9 7.5 1.7 8 1 .1 2.4 0 3-1.3"/><path d="M276 291.9c0 4.2-2.1 7.4-6.1 7.3-3.7 0-6-3.2-6-7-.1-4 1.7-7.3 5.5-7.6 4.1-.4 6.7 2.7 6.7 7.2"/><path fill="#fff" d="M272.8 294.7c.4-2 .6-4.2-.3-6.1a3 3 0 0 0-3.1-1.6q-1.6.3-2.1 2.2c-.7 2.5-.6 7.4 2.6 7.5 1.3 0 2.6-.5 2.9-2Z"/><path d="M473.2 298.2c-2.2 1.1-4.6.8-7 .6L466 285c2.6-.7 5.9-1 8.3.7 2.2 1.5 2.7 4 2.6 6.6 0 2-1.2 4.6-3.7 5.8"/><path fill="#fff" d="M472.5 287.8c-.6-.7-3.2-1.3-3.3-.2-.4 2.9-.1 6.1 0 8.7 1.1.8 3.2.1 3.9-1 1.3-2 1-6-.6-7.5"/><path d="M246.8 299c-3.3.8-6.8-.7-7.4-4.1 0-.7 1.5-.5 2-.5.8 0 .8 1 1.6 1.7s3.6 1 4.4 0c2.3-3-6.4-2.7-7.4-6.7-.8-3.1 2.3-4.8 5-5s5.5 1.6 5.1 4.4c-.7.6-2.3-.3-3-1.1-1-1.3-4-1.3-4.2.7-.3 3 6.9 1.1 7.5 6.4q.3 3.2-3.6 4.3M181.5 296.6c-.9-1.2-4.6-1.1-5.2 0l-1 1.9c-.4.7-2 1-2.8.1l4.7-13.2c.3-1 1.7-.7 2.3-.6 1 0 1.2 1.1 1.6 2.2 1.4 4 3.3 7.6 4.3 11.5q-1.2.4-2.3.3c-1 0-.7-1.1-1.5-2.2Z"/><path fill="#fff" d="M180.5 293.4c-.5-1.9-.9-3.1-1.6-4.6q-1.2 2.2-1.5 4.3 1.5.6 3 .3"/><path d="M460.6 296.7c-.7-1.4-4.3-1.2-5.2-.2-.6.7-.7 1.8-1.3 2.3s-1.6.4-2.8.2l4.4-12.4q.3-1.3 1.3-1.8c.5-.2 1.8-.6 2.2.3l5.6 13.7c-2.1 1-3-.2-4.2-2.1"/><path fill="#fff" d="M459.5 293q-.7-2.5-1.7-4c-.6 1.5-1.2 2.6-1.6 4.3q1.6.8 3.3-.3"/><path d="m83.2 292.6-4.5.2q-.2 1.9 0 3.5c2 .6 6-.7 6.2 1.1.1.7.2 1.6-.8 1.6-2.9 0-5.5.3-8.5-.2l-.3-13.9c2.2-.2 9.7-1.4 9.8.8s-4.3 1-6 1.6c-.9.2-.9 2.7 0 3 1.8.6 5-.5 5.2 1 .1.5-.1 1.3-1 1.3M153 293.9c-1 .3.1 3.9-.8 4.9-.5.4-2.5.4-2.5-.5l-.2-13.4q3.8-.7 7.5 0c2.6.7 3.8 3 3.5 5.3-.7 4.6-6.3 3.3-7.5 3.6Z"/><path fill="#fff" d="M156.7 291c1.2-1 1.2-2.6 0-3.5a6 6 0 0 0-4-.3q-.3 2.1 0 4.1 2 .3 4-.2"/><path d="M89.8 288.8c-.6 2.5-1.1 7.9 2.4 8 2.7 0 2-2.4 4-2.9.5-.2 2 .1 1.8 1-.6 3.4-4.5 4.9-7.3 4.2-3.3-.9-4.6-4.2-4.6-7.6s1.9-6.3 5-7 6.7 1.3 6.8 4.8c-3.2 1.3-3-3-6.1-2.4q-1.4.2-2 2M281.7 293.9c-1 .4.2 3.7-.9 4.9-.3.3-2 .4-2.2-.2-.6-4.5-.2-9-.2-13.8 2.5 0 4.7-.4 7 0 2.6.4 4 3.1 3.7 5.3-.8 5-6.6 3.5-7.4 3.8"/><path fill="#fff" d="M284.3 291.3q2-.3 1.9-2.2c-.2-2.1-2.9-2.4-4.8-1.9q-.4 2.2 0 4 1.4.2 2.9 0Z"/><path d="M357.4 291.3c.1 2.7-4 .6-5.7 1.7-.8.6-.4 2.5-.1 3.4l6 .1c.5 0 1 2 .4 2.2-3 .7-6 .3-9.4.1v-14q4.6-.2 9 0c.6 0 .8 1.9.3 2-1.9.9-3.8 0-6 .4-.8.3-1 2.6-.3 3 1.8.8 5.8-.5 5.8 1.1ZM511.4 283.8c0 2.2 1.3 4.4.2 6.7l-1.3-10.7-5.8-42.6-3-20.4c3.7 15.8 5.4 31.8 7.7 48L511 276q.6 3.8.6 7.8M192.1 293.5l-.5 4.8c-.1 1-2.4 1-2.7 0-.4-1.7.4-3.4-.3-4.9l-4.1-8.3c3-2.5 4.4 3.4 5.6 6l3.2-6.2c.4-.8 2.4-.3 3 0zM375.4 232.1c-.6 5-8.3 5-12.5 4.5l3-9.2c2.6-.2 5.2-.5 7.5.4 1.8.8 2.2 2.7 2 4.3Z"/><path fill="#fff" d="M372.5 230.8c-.3-2.1-3.3-2.2-4.7-1.5q-1.2 2.5-1.3 5.5c2.6.8 6.5-.7 6-4"/><path d="M400.9 236.2c-2.8 2.5-5-5.3-7.6-3-.7.6-.3 2.4-1.1 3a3 3 0 0 1-2.7.3q1.3-4.8 3.1-9.2c3 .1 8.7-.9 9.5 1.7s-1.5 3.2-3.2 4.4z"/><path fill="#fff" d="M399.7 229.9c-1.9-1.3-5.9-1.7-5.8 1.1 1.8.5 4.6 1 5.8-1.1"/><path d="M255.9 298.5c-.8-3.8.2-7.2-.3-10.8-.1-1.3-4 .2-4.3-1.4-.3-2.6 4-1.4 10-1.7q1.2-.2 1.6.7c0 .5.1 1.4-.6 1.6-1.3.3-2.4 0-3.6.4l-.3 11c0 .8-2.3 1-2.5.2ZM385 233.7c1.6-3.6.8-7.2 4-6.2 1 .2-1 6.4-2.2 7.6-2.2 2.4-7.3 2.7-9.4-.1-1-1.3 1.4-7.3 1.8-7.5.7-.3 2.3-.4 2.3.6 0 1.9-1.9 3.5-1.6 5.7.3 2 4.2 1.6 5 0M431.4 296.3c2.5 1 6-.9 6.4 1.1.6 2.8-6.4 1.4-9.2 1.2v-13.5c.3-.4 2.4-.6 2.5-.1.6 3.7.3 7.5.3 11.3M170.8 296.5c1.1 0 1.1 2.4.5 2.5q-4.2.1-8.7-.2v-13.4c0-1 2.7-1 2.8 0q.3 5.6.1 11zM181.5 213.6l-63-.3 53-.4c1.6 0 2.8-.7 4.6 0 1.5.7 3.3-.7 5.4.7ZM196.8 212.8c9.5.7 14.8-.4 23.2.2 4.8.4 9.2-.6 14 .4l-52 .1 6.7-.9c2.7 1.1 5.5 0 8.1.2M521.1 298.7q-.7-4-.8-8.3l-.1-6c0-2.5-1.7-13-.7-14.6.5 2-.1 3.8 1 5.6-.6 2.4 0 4.4.3 6.7s-.4 4.5.7 6.7c-.4 3.4.3 6.6-.4 10M13.1 294.8l-.6 6.8c-1.2-5.3 1-14.5 1.6-20.1.8 2 0 3.8-.3 5.6q-.4 4-.7 7.7M259.3 215.5c6 3 7.8 2.6 14 .8-4 3.4-10.6 3.5-14-.8M9.7 301.6c-1.1-4.2 1-13.8 1.7-18.4.6 3.5-.7 6.6-1 10zM18.6 302.6q-.7-8.3 0-16.7.8 8.3 0 16.7M20.7 231c0-3.2 0-6.2 1.3-9.2q0 4.6-1.3 9.1M12.4 280c-.6-3.4.8-6.1 1.2-9.1.7 3.3-.8 6-1.2 9M505 226.1c-.4-2.7-1.8-5.4-1.2-8.7.3 2.7 1.6 4.7 1.2 8.7M244 213.3q-4.5.7-9.6 0 4.6-.7 9.6 0M118 213.3q-4.4.7-9.5 0 4.6-.7 9.6 0M108 213.3a29 29 0 0 1-9 0 29 29 0 0 1 9 0M246.7 108.4c-9.7-.2-15.8.3-25 .1-6.2 0-12.1-.6-18.5 0 1.7 3.5 1.9 9.8 4.6 10-5.3 1.7 4.5 1.3 5 12.1.4 6.2-3.4 11.6-9 14.4a23 23 0 0 1-22.5-.2q-6.2-3.9-7.1-10.6c-1-6.7 1.3-9.1 4.6-12.2q-.6-.9-.8-1.2c.5 2.3 1.2-8.6 1-8.4-9.6 5.7-15.7 18.4-10.4 29a21 21 0 0 0 18.6 11.8l77.3.2 35.5-.3 50.4.3q-1.4 1.5-3.8 1.4h-60.8l-23-.2-70.2.2c-2.5 0-4.7-.6-7.2-.2-1.4.2-1.8-.8-2.4-1.4-1.6-1.2-4 0-5.8-.9a22.4 22.4 0 0 1-7-34.1c2.8-3.3 6-5.6 9.7-7.8 2.3-5.7 8.6-9.1 14.7-7.9 3 .6 4.9 2.8 7.3 4.1 2.2 1.2 5 .5 7.5.5l18.7.4 12-.3h21.6c.9 0 1.2-1.6 2.2-1 .2.2-.4.7-.3 1 0 .4.5.2 1.1.2l69.9-.3c3.7-4 8.9-5.5 14-4.3 4.1 1 5.7 4.7 8.7 7 4.9 3.6 10 6.7 12.7 12.8q2.5 6.2 1.8 13.1c-1.2 12-10.4 18.7-22.1 19.3q2.5-1.7 5.3-2.6a21 21 0 0 0 15-14.5c3-9.2-2.8-21.8-12.2-26.2l.5 10.9c3.6 3 5.7 8 4.5 12.7-3.2 12.1-20 15.8-31.5 8.8-4.4-2.7-7.4-7-7.6-12.2-.2-5 2.3-10.1 7.1-12.7.3-3.6 1.1-6.8 2.5-10.5h-72.1z"/><path fill="#fff" d="M197.2 108c.4-4.3-6.5-4.7-9-3.4-1.5.9-2.3 1.2-2.6 2.4-.3 1.3 0 1.9 1 3.1 2.4 2.5 10.2 2.2 10.6-2M349.3 110q1.9-1.5 1.2-3.4c-.6-2-5.4-3.6-8-2.3-1.2.6-3.7 2-3 4 1.1 3.7 7 3.8 9.8 1.8Z"/><path fill="#fff" d="M180.5 130.4c-.1 1.8 1.4 3.2 2.6 4.4.2-4.4 0-7.9 1-11.5.9 2-.3 3.7-.3 5.6v6.7c.1.4 1 .8 1.5.9q.4 0 1-.9c.7 2 2.6 2.3 4.7 2.5 5.6.5 11.7-1.2 14.3-6.6 2-4-1.2-12.4-2.2-18.5a8 8 0 0 0-4.7-6.4c0 3-1.7 4.7-4.2 5.5s-5.7 1-8-.7c-1.2-1-.8-3-1.7-4.4-2.5 1.7-4.2 4.6-2.9 7.4.6-.4 1.2-1.4 1.5-.7.3.5 1.3.8 1 1.2q-.4.5-1.2 1.6 10 6.8 19.1-2.5c.4 1.5-.8 3-2.4 4-6 3.9-13.3 3-18.7-1.4zM337.4 117c7.3 4.9 15.7 1 15.8-.1q0-.7-.3-1.5.7.4 1 .6c1.1-.3.3-1.5.6-2 .1-.1 1 .3 1 0 .8-2.5-.7-5.1-3.2-6.7-1 4.6-5.6 6.5-10 5.1-2.3-.7-3.6-1.9-4-4.5-1 .9-2.2 1.3-3 2.2 2.4 1.5-1 1.4-1.2 2.9 0 .5.6.9.7 1.2.3 1.8 1.3 2 2.6 2.8Z"/><path fill="#fff" d="M352.8 127.3c1 3 .1 5.3 1.6 7.7 1.4-.5.6-1.6.4-2.6-.8-4.8-.6-9.4-.8-14.4a15 15 0 0 1-18.6-1.3c-1.6 2.8-1.6 5.3-2.6 7.7-.2-3.6 1.9-6.6 1-10.1q-2 8.2-3 16.2c-.2 1.8 2.2 3.5 3.1 4.5l3-12.7-1.6 13.7c5.7 3.1 12.8 3 18-.6.1-3.2-1-5.6-.5-8Z"/><path d="M355.9 130.5c.9-5.6 0-10.3-.1-15-1.9 2.9-1.1 5.9-1 9 .4 2.1-.2 4.4 1 6"/><path fill="#fff" d="M210.2 129.8q-.7-.4-1-.3c-.8.6-.7 3-.5 3.2s.8.6 1.3.3c.9-.3-.3-3.5.2-3.2ZM358.4 129.6c0 1.3.6 2 .2 2.8-.2.4-1.2.8-1.2 1.3 0 1.2 1 1.1 1.7.9 1.3-.5 1-6-.7-5Z"/><path fill="#fff" d="M186.2 141.8c.8.3 1.7.2 2.2.6.6.6 0 2 .5 2.6 1 1 3 .4 4.4.2 0-1.1-.6-1.7-.3-2.4 5.4 0 7.7-3.4 8.9.5a7 7 0 0 0 4.2-2.7c-4.6-2.2 3-6.6 2-10.8-3 8.8-14.9 12.4-22.2 8.5-2.6-1.3-5.1-2.6-8.2-1.5.6 1.8 1.5 3.7 3.2 4.5.8-1 .8-1.9 1.4-2.3 4 1.4.4 4.9 3.2 5.6.5 0 1.5.6 1.9-.3 0-.6-.8-1.3-1.2-2.5M329 138.2c.8-.7.3-1.8.7-2l1.8-.8q-1.5-2-2.6-4.8.3 1.2-.4 2.2c-.3.4-1.3.6-1.9 1-.2 1.5 1.1 3.6 2.5 4.4"/><path fill="#fff" d="M209.2 135.1c-.9-.4-3.3 3-2.4 3.7 1.2 1 3.4-3.1 2.3-3.7M341.6 142.7c3.9.5 8.3-2 9.4 1.5 1.4-.3 3-.8 3.7-2 0-.5-1.2-1.3-1-1.9q.4-.7 1.6-1.8c-1.3-1.2-3.2-.8-4.8-.1a18 18 0 0 1-18.3-2.6c-.6 1.3.6 1.1.9 1.9-1-.2-1.5-.8-2.1 0 1 1.4 2.4 2 3.8 2.9 1.2.6.7 2.1 1.3 2.9 1.2 1.3 5.5 2.5 6.1.7.1-.4-.6-.7-.6-1.5ZM356.7 141q2-2 2.6-4.3c-.3-.4-1.1-.3-1.4-.1-.6.3-2.4 4.2-1.2 4.5M334.3 142q-1.9-2.4-4.7-3c.8 1.8 2.3 3.4 4.7 3M200 144.3c1.8-1.3-4-1.7-5.2.3 1.4 1.5 3.6.7 5.2-.3"/><path fill="#fff" d="M348.4 144.7c2.2-2.4-7.5-.5-4.9.5 1.6 0 3.9.8 5-.5"/><path d="M309.3 151.2h-18l-64.5-.1c-2 0-2.7-1.7-2.6-3.3l1.7-31.4c0-2 1.5-2.3 3.2-2.3l74.4-.1q3.4-.2 6.7.6l2 33.3c0 1.6-.7 3.2-3 3.2Z"/><path fill="#fff" d="M250.2 149.8h4.1a31 31 0 0 0 1.5-31c-.4-.8-3.2-.6-2.5-2.3-.8 1 .2 1.5-.8 2q-1-3.6-4.3-2.6c-.2 0-1-.3-1.2 0s.6.8 0 1.3q-.5-1.4-2-1.6c-1 0-1.6 0-1.8 1.6-.7-.9-1.5-2-2.5-1.3-.1.1.5.9.4 1q-.2.4-.5 0c-1-2-2.7-.9-5.4-1.3-.1 1 1 1 .7 2-2-2.7-5-2.2-8.7-1.8l.2 5c0-.2 9.2 11.8-1.6 23.7q.1 2.5-.2 4.7c2.2 1 4.7.6 6.4.3 1.2-.2 3.6 1.4 4.2-1.2q0-1 .8-1 1-.2.9.8l-.5 1.3c1.2.9 3.5.4 4.7 0 .6 0 1.8 1 2.3.2l3.3-5.5c.3 2.6-1.4 3.7-2.5 5.6 1.3.2 3 .6 4.2-.2.1-1.4.8-1.3.8.3ZM308.5 122.4l.2-6.3c-1-1.1-4.3-.8-5.3.3-.7 1.2-1.2.6-.5-.5-1-1-2.3.3-3.3 0-1.3-.2-11.4-.7-12.4.3-.5.2-1.2-1-1.7-.7-5.6 3.4-7.1 22.2-3.7 27.4l4 6c1.1 1.6 3.9.5 5.3.7 4.7.6 9.5 0 14 0 2.1 0 4.1.8 6.2-.4-.8-1.7-.5-3.9-.6-5.6-6.8-2.3-6.3-16-2.2-21.2"/><path d="m259.1 117 .6-.5c1.6-.5-1.4-.6-1.5-.4-.4.7.7 2.4 1.8 2.2 1.6-.2 2.9.4 4-.4-1.8-.3-3.4.1-4.9-1M282.5 117.5q-2.1-1-4.6.6c1.4.3 3.1.8 4.6-.6"/><path fill="#fff" d="M275.8 121.4a45 45 0 0 0-11.3 0q5.9.6 11.3 0M226.6 140.6c3-3 3.5-16.9.2-16.9.2 6-1.4 12.3-.2 17M279.6 149.6a47 47 0 0 1-.6-25h-16.7a57 57 0 0 1 5.2 17.5l1.2 7.5q5.7 1 11 0M310.2 141.3l-1-16.5c-3.5 5.5-2.5 11.6 1 16.5M265.5 141c.3-4-1.4-7-1.9-10.5-1.2-1.4-1.5-3-2.2-4.4.2 1.9 0 3.7.6 5.5zM266.8 149.4l-4.9-15.7c-.4 5.8-.3 10.9-2.6 15.8 2.8.4 4.9.5 7.4 0"/><path fill="#fff" d="M283.3 149.6c-1.8-2-2.7-4.4-4.1-6.9-.2 1.1 1.9 9.2 4 7"/><path d="m135.4 93.2-10.1 58.4-2.7 14.2c-.3 1.5.8 4.6 2.7 4.6l14.7.2 154-.1 63.6-.2 49-.2c1.3 0 3.4.4 4-.4s2-2 1.8-3.6l-9.8-58.9c-1.2-6.6-1.9-13.4-3.4-20.2-3-3-7-4.2-9.2-7.8 3.6 2 7.7 5 10.1 8.1 2.1 6.8 1.9 13.8 3.6 20.6 1.2 4.7 1.4 9.3 2.2 14l4 22.7 3.4 22.1q.1 2.3-1.7 3.2c1.8.3 2.9-1.4 2.6-3.2l-9.7-59c-.6-3.5-3.1-20.4-3.9-21.9-2.1-4.1-7-6-10.7-8.8h-84.8c.5-1.7 2.2-1.3 3.6-1.3h16.1l50.6.2c4.7 0 9.3-.6 14 .5 4 1.1 9.6 5 11.6 8.7 3 5.5 2.1 11.8 3.7 17.6 1.6-1.1 3.2-3 5.3-4-1 2.4-3.3 2.9-5 4.8l10 62c.5 2.6-.3 5.8-3 6-8 .8-15.6.4-23.8.4H209.5c-3.2 0-5.9.2-9 0-5.8-.3-11.5 0-17.3 0l-18.8.2-26.3.2h-3.6c-4.2-.6-15 1.5-14.1-4 1 .9 1 2.6 2.7 2.3-3-1.8-.8-8.5-.2-11.8l5.2-31 7.3-39.7c1 1.4.4 3 0 5Z"/><path d="M152 100.5c-1.6 0-2.3 1.3-2.8-.6.9.4 1.8-.5 2.5-.4 4.6 1.1 19.5-.6 23.6 0 3.6.6 10.5 0 10.5 0 3.3.7 5.6 0 8.7 0l71.7-.2c2.4 0 4 0 6.9-.4-1.9-1.5-.6-4.4-1.4-5.5s-3.6-1-3.2-3.7c.1-.9-.8-3 .7-3.4s1.3 3.5 2.9 3.6c2.5 0 .5-4.4 2.4-5.7 1.6 1.4 1 3.2 1.6 4.8.2.5.9.7 1 .9 1.4 2-2.5 1.7-2.7 4-.1.8-.4 2.8.6 3l3-1.3c-1.1 1.3-2.5 2-3.8 3.4 7.4.8 16.1-.5 24.3.2 1.8 0 3.3-.5 5.1-.4l83.9.6c-29 1.4-57.6.4-86.6.7l-19.6.3c-2.9 0-5.7-.4-8.5 0-1.2.2-2 0-3.2 0H152Z"/><path d="M213.8 98c-2-2.5-.1-4.7 1-7.9-2.6-.8-5.2.3-6.8 2.4l1.7 3.1q.5 1.1-.3 1.9c-1.5 1.5-2.8-2.8-3.6-3-1.6 1-2.3 2.5-3.5 4-3-2.5 1.3-5 2.2-7-.9-1.4-1.9-3-.8-4.6 1.4.6 2 1.8 3 2.3 1.4.7 2.2-1.5 3.3-1.6 17.2-1.7 10 .2 12.7.5 1 .2 1.6-1.5 3.1-1s-.7 4.1 3.4 6c-2.2 2.4-.8 4.7-3.2 5q-.7 0-1.2-.9-.1-.5.5-1.7-1.9.1-3.6-.4c-.5.7-1.1 3.3-2.6 2.8-2.2-.8 1.9-6.6 2.4-8.4-1.2-.5-2.1-.2-3.3 0-1 0-3 4.9-3 8.3 0 .4-1.2.4-1.4.1M192.4 97.4c-1.9-1-.4-4-.2-6-2.3.2-5.1 4.4-8.2.7-1.3 2.2-1.6 4.4-3.4 6-3.8-1.5 2.4-12.1 4.3-13.2 1.7-1 3 2.8 2.6 4.4 3.2.5 4.2-2.6 6.2-4 1.2-1 2.6 2 2.3 3.4l-1.2 6.2c-.2.8-1 2.9-2.4 2.5ZM374.4 78.9c-1.2-.6-2 .4-3 .4H302q0-1 1-1.1h85.3c-3.2 1.3-6.2 0-9.4.7-1.4.4-2.9.7-4.5 0ZM347 94.6c-2 .2-3.3.6-4.4-.7-.6.8-1 4.7-3 3.7-.5-.2-1.2-1.2-.8-2 2.3-6.3 2.2-7.3 6.5-10.7 1.4-1.1 2.7 1.5 2.8 2.8.1 2.1.7 3.6 3 4.2-2.6 2.6 0 5-3.3 6.1-.7.3-1.1-.3-1.5-1s.3-1.1.6-2.4Z"/><path d="M344 91.8c0 .6 2 .3 1.9-.5-.1-.4-.1-1.1-.8-2-.3.6-1.2 1.3-1.1 2.5M305.2 90c1.8 1.1 3.6 3 2.5 5.2-1 1.9-5.4 3.9-6 2-1-3.3 2.4-.4 4.3-3.9-.8-2-4.8 0-5.2-2.7-.1-.9.2-2 1.4-2.5 3-1 6.9-3 8.5.2l1.5-1.7c2.2 2.8.3 4.3.3 10 0 .7-.6 1.2-.9 1.3-2.4.7-1.5-6.7-.8-8.4-2-.1-3.7-.6-5.6.4ZM119.4 167.4c-.4-3.4.3-6.3.9-9.6L132.1 91c.3-1.7.3-3.6 1.8-4.6l-11.4 64zM265.2 97q-.3 1-1 1c-2.5 1.2-.3-5-.4-6-1.3-.2-3 .5-4-.3-2-1.5-.8-4 .7-5.4s3.6-2.5 5.2-1c2.3 2.2 1.2 4.4.6 7zM326.7 93.8c-3 3 4.6-.2 5.1 2s-6.4 2.5-7.3 1.8c-2.8-2.3 1.5-5.4-.5-9.3 1.8-.7 8-2.6 8.6-.8.7 2.1-4.8 1.8-5.1 3 1 .5 3.4.1 3.4 1.6-.1 2-3.5 1-4.2 1.7M241.1 95c2.1.9 5.1-1.1 5.9 1 .6 1.8-5.7 2.6-7.3 1.6-2.2-1.3-.7-4 0-5.6.6-1.2-.5-2.4 0-3.7 2.2-.7 7.1-2.2 8.3-.7 1.4 1.8-6 2.2-5.2 3 1.3.6 3.2 0 3.4 1.6.2 2.1-5.4.6-5 2.8M229.6 96.6l.2-4.3c0-1.8 1.6-3.9 3-5s3.4-1 4.6-.2 1.9 2.3 1.4 4c-1 4-6.4 1.2-6.7 5.4q0 1.5-1.2 1.7c-.6 0-1.3-.9-1.3-1.6ZM323 92.4c.2 3.7-6.3 5.3-7.2 5.1-1.8-.3-.6-3.4-.4-4.6.4-2-.6-4.1 0-6.3 2.8.5 7.5 2.8 7.6 5.8"/><path d="M321.2 91.9q-1.4-2-3.9-2.4l.3 4.7q2.3-.2 3.6-2.3M137.5 69.9c1.4 1.7.7 4-.5 5.8-1.1 1.5-3.5 1.7-5.5 1.8-3 0-5.3-1.4-5.7-4-.5-3 1.2-4.6 4.1-5.6s5.4-.7 7.6 2"/><path fill="#fff" d="M136 74.1c1.2-1.2.3-3-.3-3.7-1.7-2-6-1.7-7.9.6-.6.8-1.3 2.8-.2 3.9 2 2 6.2 1.3 8.3-.8"/><path d="M409.9 75c-3.5 3.4-9.6 2.4-11.3-2-.8-1.8.3-3.6 1.3-4.6 2.5-2.3 7.9-1.9 9.9 1 1 1.3 1.6 4 0 5.6"/><path fill="#fff" d="M400.2 73.1c.7 2 3.2 2.7 5 2.7 2 0 4.1-1 4.5-3.4.3-2.2-4.4-5-6.6-3.6-.8.5-.5 1.5-1.4 2.3-1-1.1 1-1.5-.1-2.6-1 1.2-2 3-1.4 4.6Z"/><path d="M305.3 112.3a152 152 0 0 1-35.8 0zM200.5 91c-1.5 4-.5 6.6-2 7-3 .7-.8-9 .9-11.2 1.7.8 1.6 2.6 1 4.1ZM380 67.9h-38.6zM292.7 93.6l-6.6.5q-.9 0-1.3-.2c-3.8-1.7 6.5-3.6 8-1.5.2.2.1 1.2-.1 1.2M192.2 67.9H162zM258.7 84.4c1 1-.8 5.7-2.1 5.5-2.2-.3 0-5.3.8-6 .3-.3 1 .3 1.3.5M147 78.9A29 29 0 0 1 136 87c3.4-3 6.5-6 10.8-8.2M107.7 168.5c-.3-4.3.8-8.2 1.8-12.4.1 4.2-1 8.3-1.8 12.4M415.2 66c-.3-3.8 1.4-6.9 2.4-10.2.3 3.9-1.7 6.8-2.4 10.2M287 89.1c-2.6 1.5-4.2 3.7-6.9 4.8 1.5-2.6 4.2-3.2 6.1-5.4.6-.6 1.5-.4.9.6M420.1 67.7c.4-5.3 2.4-9.8 3.6-14.7 0 5.3-2.3 9.8-3.6 14.7M106.5 171.1c1-.2-.2 9.5-1.6 7.6.6-3 1.6-4.9 1.6-7.6M349.2 149.3c-2.6.1-5 1.4-7.8.5 2.6-.2 4.7-1.5 7.8-.5M409.6 61c-.4-2.4.7-4.3 1.3-6.3.4 2.5-.6 4.3-1.3 6.3M256.8 112.4q-3.4.8-7.3 0 3.4-.6 7.3 0M267.2 6.8c-1.5 0-2.2-.7-3.5-.3-3 1-6.2 0-9.2 0h-3.8c-2 .1-4 1-5.9 0q-6.7-.5-13.3 0L183.2 6l170.6-.1-13.7 1c-9.6.2-18 0-27.7 0zM34.1 160l12.5-64.4c2-4.8 1.3-9.8 3.8-14zM432.2 23.6l-53-.1c3.8-.8 7.6-.7 11.6-.7l35.3-.4c1.9 1.1 3.6 0 6 1.2M150.9 24H104c4.9-.7 9.4-.6 14.3-.7l39.3-.3c-2 1.5-4.3 1-6.8 1M484.7 140.6c1.2 5.7 2.5 10.7 2.4 16.2l-14.7-75.3zM71.4 40.6l-3.1 12 8.9-44.7zM493.9 126.4 483 72zM476.6 41.1c-1.5-6.6-3.5-13.4-4-21 1.5 6.7 3.3 13 4 21M454.3 33.5c-2-8.4-4.2-16.3-5.2-25.4q3.5 12.3 5.2 25.4M476.1 51.9l-3.9-18.2c-.6-4.8-2.7-9.1-2.4-14l3.1 13.4zM507.4 191.3l-7.1-34.6zM511.3 211.4q-1.7-5-2.2-10c-.3-2.6-1.9-4.7-.7-7.4zM357.7 8.8q-9.4.8-19 0 9.2-.7 19 0M38.5 203.6c1-9.5 3-18.5 5.2-28-.9 9.4-3.3 18.7-5.2 28M84.8 21.3c0-4.5 1.3-8.6 2.5-12.8-.1 4.5-1.2 8.6-2.5 12.8M72.1 23.7c-.8-2.8.5-5.2 1-7.7.8-1.8.3-3.7 1.4-5.3 0 4.7-1.9 8.6-2.4 13M481.7 66.5c-1.5-6.6-3.3-12.8-3.6-19.5 1.3 6.5 3.2 12.9 3.6 19.5M163.4 15.9c-.7-3.3.6-6.2 1.2-9.1.4 3.3-.7 6.1-1.2 9M373 17.2c-.6-2.7-1.5-5.4-1.3-8.8 1 2.6 1.4 4.8 1.3 8.8M497.8 145.3c-1.2-5-2.7-10.2-3-16 1.1 5 2.7 9.7 3 16M27.8 191.8c-.6 1.3-.3 2.5-.8 4-.8-1.4-.1-3 .2-4.5.7-1.5.3-2.9.8-4.5.8 1.5.2 3.3-.2 5M506 200.1c-.2-2.7-1.6-5.4-1-8.3.5 2.8 1.8 5 1 8.3M28 202q.8-8 3-15.8c-.2 5.4-1.6 10.4-3 15.7M52 73.1c-.6-2.9 1-5.1 1.1-7.8.8 2.9-.5 5.1-1.1 7.8M24 209c-.2 2.4 0 4.5-1.2 6.3q.3-7.2 2.5-14c.6 2.5-1 4.8-1.3 7.7M382.4 32.6a10 10 0 0 1-.7-5.2c1.7 1.3 1 3.5.7 5.2M83.2 31.5c-.7-2.2-.1-4 .7-5.8.5 2.2-.2 4-.7 5.7M212.2 355.2 212 379c0 3.7-.5 9.4.4 12.3-1.4 2.2-.2 4.4-1.4 6.7v-73c1.2 1.7.2 3.8.7 5.9 1 3.9-.1 16 0 19.1zM200.4 310l-42.7-.1c-3.6 0-7 .2-10.6-.4-.4-.1-1 .6-1.4.4-.3 0-.9-.5-.8-1h59.6a9 9 0 0 1-4 1ZM135.1 359.2c-.2-.7 0 12.6.2 11l-.6 6c.4-3.6.4 22.5-.4 21.8v-68.6c.3 2.3 1.1 5.3.8 7.7-.3 3.3 0 6 0 9v5.7c0 2.5-.7 4.6 0 7.4ZM186.3 420.6c-2.7 0-4.7-.2-7-.1l-5 .2c-4 0-7.6-.8-11.5-.2-1.4.2-3.2-.8-4.6.5-1-.7-2.3-.3-2.9-1.3h52.4q1 .2 1.1 1.2l-18.3-.2zM189.7 403.5c-3.3.8-3.7 4.6-2.5 7 .5 1 1.2 1.5 1.2 2.6-3.8-1.7-4.5-5.8-2.6-9.2 1-2 3.7-3.6 6-2 2.8 1.8 4.3 6.7 1.8 9.1-.6-1.7.7-3.6-.1-5-.6-.9-2-2.9-3.9-2.5ZM158.2 406.1c-.5-2-2.1-2.7-3.6-2.7s-2.5 1.4-3.2 3c-1 2.1-.5 3.9.7 6.3-2.7-1.2-3-4-2.4-6.3.6-2.7 2.7-5.3 5.6-5 2.5.2 3.9 2.7 4.2 4.4q.9 3.6-1.8 6.1c.5-1.8 1-3.6.5-5.8M206.6 383.2h-66.3zM171.7 403.4c-1.8 0-3 2.7-3 4 0 2.2 1 3.6 1.6 5.6-2.6-1.2-3.4-3.7-3-6.3.2-2.2 1.8-5.5 4.8-5.3 4.1.2 6.2 5.8 4 8.9.2-3-.4-6.9-4.4-6.9M184 423c-2.2 1.2-4.5.1-6.4.4-3.8.4-7.2.2-11-.2-2-.2-4.2.5-6.3-.7l42 .2c-6.2.8-11.9.2-18.3.3M159.3 422.8a29 29 0 0 1-9 0 29 29 0 0 1 9 0M492.6 392c-1 1.7 0 3.1-1.4 4.4l.7-79zM486.8 310l-67.4-.1q4.4-.9 9.3-.8l57-.3c.6 0 1.1.7 1 1.2M414.5 365.6l.3-7.8c0-3.4-.9-6.5.1-10-.2.8-.1-11.1.6-11.2v69.8q-1-5.1-1-10.6zM463.8 383.2c5.8 1 3.7-.7 10.2 0 1.8.2 3.2 0 5-.1s3.4 1 5-.3l4 1.2h-57.4c2.4-.6 14-.8 17.3-.8h8.4c2.4-.1 5.2-.5 7.5 0M470.4 403.5c-2.2-.3-3.5 2.3-3.8 3.6-.3 2 1 3.4 2.5 5.4-2 .7-2.7-1.3-3.5-2.3-1.6-1.7 0-8.9 4.3-9 2 0 3.8 1 4.6 3.1.9 2.2 1.5 5.2-1 6.5.6-3 .7-6.8-3.1-7.3M438.3 405.8q-1-2.3-3-2.4T432 405c-1.7 2.3-1 4.8.2 7.5-3-1.6-3.1-4.8-2-7.6q1.6-3.7 5.2-3.7c3.6 0 3.8 2 4.3 4.5.4 2.1.3 4.4-1.7 5.6.3-1.9 1-3.6.3-5.5M452 403.3c-2.1.2-3 2.3-3.3 3.8-.3 1.9.7 3.3 1.8 5.4-3.4-1.1-4-4.8-2.7-7.8q1.4-3.2 4.3-3.5 3 0 4.5 3c1.1 2.4 1.2 5-1 6.7.3-2 .9-3.3.2-5-.5-1-1.6-2.8-3.8-2.6ZM459.9 422.7c-3.3.1-6.3 1-9.3-.2-4.1-.3-8 .6-12.3-.5l50.3.1c-9.7 1.1-18.9 0-28.7.5M468.3 419.8c-4.3.4-8.5-.9-12.5.5l-6.3-1h39c-6.5 1-13 0-20.2.5M448.5 419.4q-10.1.7-20.7 0 10-.6 20.7 0M473.5 378.8q-7.2.6-15.1 0 7.4-.7 15.1 0M438.2 422.5q-2.9 1.4-5.8 0c2-.9 3.6-1 5.8 0M305.2 383.6c0 3.2.1 5.8-.4 8.8-.7 3.8.7 7.7-.6 11.2v-84.2l1 8.2c-1.4 2 0 3.8 0 5.8zM228.8 377.9c-.3 7.2 1.1 14.1-.7 21.1l-.3-67.2c0-1 .8-1.9.6-2.9-.4-1.7-1-3.2-.5-5 2 2.3.5 5.3.8 8 .4 3.9 0 7.7 0 11.6.4 12.2 0 22.2 0 34.4M299.3 308.9l-63.7.6c-.6 0-1.1-.8-1-1.3zM277.3 423.5c-4.5-1.3-9.2.3-12.9 0q-6.7-.9-13.3-.1l-19.5-.8H302c-6.8 1.2-13.9 0-21 .6-1.2.1-2.2.7-3.6.3M287 410.7c.4-3-.1-7.2-3.2-7.4q-2 0-3.2 2c-1.6 2.4-.4 4.7 1.6 7.6-3.8-1-4.7-4.7-3.4-7.9.8-2.2 2-3.9 4.4-3.8a5 5 0 0 1 4.7 3.5c.7 2.1 1 4.6-1 6M268.7 405.4q-1.3-2.3-3.3-2.2c-2 .1-2 1.1-2.8 2.4-1.4 2.4-.2 4.4 1.1 7-3.6-1.1-3.7-4.7-2.7-7.6q1-3.2 3.9-3.8 3.4-.1 5 3 1.7 3.8-.7 6.7c0-2 .4-3.7-.5-5.5M291.7 420c-4.4.6-18.5.2-23.9 0h-5.5c-2.5-.1-5 .9-7.8-.8h40.2c-.4 2-2 .6-3 .7M251.3 411.5c.8-3.2.8-7.8-2.6-8.2q-2 0-3.5 1.6c-1.8 2.3-.9 4.9.5 7.7-3.2-1.3-3.4-4.7-2.3-7.3q.9-2.6 2.5-3.5c1.5-.7 3.5-1 4.8.2 2.6 2.4 3.3 7 .6 9.4M285.9 384c-1.2.4-2.6-.9-3.5-.6-3 1.2-5.5.4-8.4.2-4-.2-8.2 1.3-12.3-.6h28.5c-1.3 1-2.8.2-4.3 1M258 383.7c-4.8.6-11 .5-15.8-.6l18.5-.2c-.3 2-1.6.6-2.7.8M298.5 383.1c-1.2 1.1-2.7.6-4.4.6-1.3 0-2.8 1.2-3.4-.8zM384.6 308.8c1.7.8 3.3.1 4.8 1.1h-51.3c1-.5 2.9-1 4-.8 2.7.5 5 0 7.7 0h4.5zM345.9 408c-.5-1-1.6-1.2-2.4-1.2q-1.5.2-2.2 1.6c-1.9 2.4-.7 4.4 1 7.2-3.9-.6-4.2-5-2.8-8q1.3-2.8 4-3.1 3 0 4 3c.6 2.5 1.5 5.7-1.3 7.5.2-2.6 1-4.8-.3-7M373.5 406.9c-1.8.5-2.4 3-2.3 4.3.1 1.7 1 2.9 2.4 4.5-3.8-.3-5-4.4-3.7-7.6.7-1.8 1.8-3.7 3.9-3.7s3.8 1.8 4.4 3.4q1.4 3.3-1 5.9c0-1.9.8-3 .2-4.4-.6-1.2-1.8-3-3.9-2.4ZM370.4 421c-10.5.8-20.6.3-30.7.2 4.7-.7 9-.3 13.8-.6 11-.8 21.9-.2 33.1-.2-5.2.9-10.5.2-16.3.6M362.4 413c-.8-1.6.6-4-1.3-5.4-.8-.7-2-1.2-3.1-.5-1.6 1-2 2.5-2.1 4s1 2.4 2 4.5c-2-.3-3-2-3.5-3.4a7 7 0 0 1 1-5.7c1.5-2 4.1-2.8 6-1 2 2 2.1 5.3 1 7.6M328.3 424c-.5-2.2 0-4.3-1-6.5.4-3-.6-10-.8-13.4l-.3-7-.4-8.6c-.2-2.7-1.1-5.3-.2-7.8.4 2 .2 3.7 1 5.6-.6 2 .2 3.7.3 5.6l.2 10c.1 4.3 1.4 10.7.8 15 .7 2.5 1.2 4.8.4 7.2M386.5 389l-51.8-.2 42.3-.4c1.4 0 2.7-1 4.1 0 1.7.5 3.3-.6 5.4.7M383.2 423.3h-49zM395.6 339.6c.6-3.2.2-6 .6-9l.5-5.6c.3-3-.3-5.6-.2-8.3 0-2.6 0-4.6-2.3-6.9 3.7 1 2.5 4.7 3 7.3.7 3 .4 5.5.1 8.5-.6 4.8.6 9.6-1.7 14M390.2 420.9c-.8-1.9.2-3.4.2-5.1l.2-6q.1-2.5.6-5.2c1 2.3 0 4.7-.1 7.3-.1 3.2 0 6.1-1 9ZM323.3 339q-.6-3.6-.7-6.8l-.2-7.7c0-3-2.2-11 .7-13 1.3.8-.2 1.7-.3 2.6q-.7 4.5 0 9c.5 2.5 0 4.9.3 7.5.3 2.9 1 5.7.2 8.4"/><path d="M343.8 408.4c-1.6.8-2 2.3-2.7 3.5-.6-1.5.5-3 1.7-3.7 1.3-.8 3 .4 3.2 2-1 0-1.1-1-2.2-1.8M261 190.5c-2.4-1-11.5.2-16.5-.9v9.3l45.6.7-46.2.8c-1.4-6.3.4-6 0-11.3l14-.1h31.2c1.2 2.4-14.6.3-15.2 1.4-1.9 1.6-3.7 3.2-6.2 3.4-3 .3-4.3-2.3-6.7-3.3"/><path fill="#fff" d="M272.3 190.4a13 13 0 0 0-9 0c2.9 2.5 6.4 1.6 9 0"/><path d="M291 186.3c-8.7.5-16.8.1-25.3 0-7.5 0-14.8.4-22-.6l17.4-1.3c2-1.4 3.8-3 6.5-3.1s4.3 2 6.7 3c-2.2 1 19.8.1 16.4.6.3 0 .8 1.3.3 1.4"/><path fill="#fff" d="M269 184c1.2.3 1.5 1.4 2.4.9-1.3-2.9-5.6-2.9-7.6-.5 2.1 1.2 4.2 1 6 .4-1-.4-1.7-.5-.7-.9Z"/><path d="M223.3 198.5c.3 5.7-6.5 4.9-11.6 4.5-1.1 0-2-.7-2.5-1.2-.9-1-1-7.8 2-8.7 3.1-.9 7-1 10.1.1 2.2.8 2 3.6 2 5.3"/><path fill="#fff" d="M210.6 201.7c1-2.7 0-4.8 1.2-7.1q-1.1-.4-1.5.1c.5-.7-1 8.3.3 7M217.1 201.3c1.2 1.1 4.2.4 4.5-1 .4-2 0-3.6 0-5.8-3.8 2-8-1.9-9.2 1 3 .1 5.6-.2 8.3.7l-8.5.1c.5.8-.3 1.6-.3 2.1.1 1.1 1.7 1 2.5 1 1.5-.4 1.7 1 2.7 2"/><path d="M323.9 202.5c-2.4 1-5.5.8-7.8.2-3-1-2.7-7.6-1.6-9q1.3-1.6 3.7-1.7h3.7q2 .2 2.9 1.3c.3.3 2.6 7.6-1 9.2Z"/><path fill="#fff" d="M322.6 195c-.9-1-9.4-2-7.1.7 4-2.5 4.2.8 7-.8M323.8 199c.4-2.2 1-3.8-.3-5.3-1 2 .3 3.6.3 5.4M317.2 199.9c1.2-.1 2.1.4 3.7.5l-1.9.8c1.7.8 3.2.5 4.4 0-.7-2.1-.3-3.9-1.3-5.6-2.2.9-4 .5-6.3.8.7 1 1.7 0 2.8.7-.7.8-1.6-.1-2.8.6.3.7 1-.1 1.7.6-1.4.3-2.5 1.3-2.3 3 1-.3 3.8.1 2-1.4Z"/><path d="M293.3 202.5c-1.3-1-2.7-.2-4.3-.2l-48.4.1c1-1.2 2.8-1.2 4.4-1.1 4.7.2 9-.3 13.5-.3H275c5.5 0 11-.3 16.5 0 .9.2 1.8-.3 1.8 1.5ZM345.8 205.5h-39.5zM275.7 197.1q-13.1.8-26.8 0 13.2-.6 26.8 0M241.4 189.7c1.4-.6 1.4 9.5.6 11.2-1.2-1.1-1-11.1-.6-11.3M291.7 199.8q-1.6-4.9-.5-10.5a22 22 0 0 1 .5 10.5M210.6 177.6q-7.7.8-15.7 0 7.6-.6 15.7 0M305.8 205.5q-7.3.8-15 0 7.2-.7 15 0M240.1 205.5q-6.5.8-13.5 0 6.5-.7 13.5 0M239.2 199.7q-.6-5.7 0-11.8.7 5.7 0 11.8M294.4 201.4a41 41 0 0 1 0-10.7q.7 5 0 10.7M339.8 179.9a29 29 0 0 1-9 0 29 29 0 0 1 9 0M41.2 330.1c.8.2.5 1 .8 1.2.2.2.8 0 .8.2q.1 1.1-.2 1c-1.6-.3-1 2.9-.7 4.8l2-2.3c-1.1 4-3.4 3-1.7 7.2.9-.9.8-2 2.1-1-3.9 1.7-2 4.4-2 6.4-.2 2.7-1.6 6 0 8.8.3.4 1.6-.5 1.8-.9.8-1-3.5-3.5-1-3.7-.6 0 2.6 3.3 3.1 4-.6.4-1.1 0-1.4 0 0 0-4.5 3.6-2.6 6 .8-.3 1.5-1.3 1.9-1.7.4-.8-.8-1.2-.8-2.3 1 0 1.5 1.5 2.1 1 1.3-1.2 2-2.6 3.8-3.8-1.5-1.6-3-2.2-3.7-4.4 3.6.7 4 6 5.6 2.8q.3-1-.9-1.9l-3.4-3.1c-.8 1.2-1.3 2.4-2.8 2.8.2-1.4-.6-2.1-1.2-3.3 1 .2 1.2 1.4 2 1.4.5 0 1.2-.8 1.5-1.5.5-1.1-2.2-1.2-2.4-2.6q0-.4 1.3-.6.4 0 .4 1 .7 1.2 1.8 1.1.9-.1 1.4-1.3c.2-.5-.6-1-1-1.6-.7-.6-1.3.2-2 .7-.5-1 1.2-2.5 1.8-2 .8.5 1.5 2.8 2.6 1.7s1.7-2.5 3-3.2c1.1-.6.8-1.6.1-2.2s-1.3-.4-2.1.4.4 1.1.9 2.5l-2.2-1c-.5-.1-1 .9-1.8 1.7-1-.7.3-1.2.8-2 .4-.7-1.2-2.4-2-2.2-1.3.3-1.5 2.3-3 2.3.3-1.7 1.8-2 2.7-3.3-1.2-1.2-2.6-1.7-3.5-3.5.9-.5 1.5.2 2-.2s1.4-1.4 1-2l-2.9-3.6c1.3.7 2.6 0 3.2-1.2.4-.7-1-2.2-1.8-2.2-1.5 0-1.4 2.1-3.3 2.2.3-1.4 1.8-1.8 2.6-3q-.6-1.5-2.5-2.4c.4-.4.6-1.1 1.5-1.4q.2 1.8 1.1 2.5c1 .7 1.6-.4 2.4-1.3.9-.9-.2-1.4-.9-1.9-1-.7-1.4.4-2.6.9 0-1.1 1-1 1.3-1.8.4-1-2.3-2.1-1.9-3 .2-.4 1-1.3 1.5-.7.2.3-.5 1.1-.1 1.5s1 1.4 1.7 1c1-.5 1.1-1.5 2-2.3 1.3.8 1.4 2.4 2.6 2.8.8 0 1.3-1.2 1.6-1.6.4-.6-.7-1.2-1.2-2.1 1.3-.3 1.3.7 1.8.9s.9-.5 2-.4q-1.1 1.6.2 2.7c.7.7 1.8.7 2.2-.7s-1.4-2-2.4-2.3c-.4-.3-.5-1.2-.7-1.6-1.8-3-2.5 2.4-4.8 1.6.6-3.5 3.7-1 2.7-4.5 1.3-1.2 1.6 2.7 3.4 2.8.7 0 1-1 2-.8-.2.8-1.2 1.3-1 2s1 1.1 1.4 1.3c.7.2 1.3-.6 1.6-1 .9-1.2-3-4.3-6-4.4l39-.2q6.1.1 12.1-.2 4-.4 7.5.5c-.7 1-1.8 0-2.2.7-.3.4.4 1.2.5 1.9q-1.5-.3-2.2.2c-1 1 0 1.6.7 2.5.8 1 1.1.2 1.8-.5q.8-.9-.4-2.1c1-.2 1.5.5 2 .3l1.8-1c.2 1-1.1 1.2-1.3 2 3 5 .6-1.1 4.3 5.6-.5.7-1.8 1.3-1.6 1.9.6 1.7 2.3 2.5 3.4 4v36.1l.3 21.8c0 2.7.4 5.1-.3 7.8-.7 3 .6 6.3-.5 9.5l-.4-19c0-1.3-1.8-2.8-2.8-3.6-.4-.4-1.4.7-1.4 1.2q.1 1 1 1.7c.7.4 1.1-.3 2.4-.4-1 1-.5 2-.8 3.4-1.1-1.2-1.9-3.2-3.7-3.4-1.2-.1-1.9 1.7-3 2-.7-.6-1.2-1.5-2-1.8-.6-.2-2 .7-2.2 1.7-.4 2.6 8.7.4 8 1.7l-21.5.3c.2-1 1-.7 1.5-1-.7-.7-1.2-2-2.2-1.7-.6.2-1.8 1-1.9 1.5q2.2.6.6 1.1l-34.2-.2 21.7-.4c.1-1-1.2-2.5-2.2-2.2-.8.3-1.2 1.2-2 1.2s-1.1-.7-1.8-1.2c-1-.9-1.9 1.1-2.8 1-1 0-1.6-1.8-2.6-1.6s-1.7 2-2.8 1.7c-.7-.3-1.1-1.4-1.7-1.5-1-.2-1.7 1.7-2.8 2s-1.4-2.5-3.1-1.3q-1.6 1-.4 2.4c-.7.4-1.2.2-2 .2-.4 0 .2-1 0-1.4l-2.3-2c-.7 1.2-2 2.4-3.3 1.5q-2.3-1.5-3.6-4.3c1.9 1 2.4 2.8 4.2 3.9.6.3 2-.9 1.9-1.6-.2-1-1.4-1.5-1.9-2.2-.9.6-1 1.7-2 1.4 0-1.2 1.3-1.3 1.1-2.2q-.2-.5-1.3-1.4c-.5-.5-1 .1-2 .6.5-1.4.6-2.2-.6-3.3 2.4.1 3 2.8 5.1 3.7.8.3 1.6-2 .5-2.8-.9-.6-1.4-1-2.7 0 .2-1.3.7-2.2-.3-2.8s-1.3 0-2.4.8c.7-4.5 4.9-3.3 2.7-5.8-.5-.6-1.7-.4-2 .2-.5 1 0 1.6.5 2.6-1.2.4-1.2-.7-1.9-1-1.2 1.6.2 3 .3 4.5.1 1.2-1.7 3-.2 4 .3 0 1.1-.4 1 .1s.1 1.2-.2 1.4c-.2 0-.9-.5-1.1-.3l-.7 18.1-.6-13.3v-49c0-1.2.5-2.1.4-3.3Z"/><path fill="#fff" d="M61.9 310.6c-.7-.8-2.8-.7-3.4 0-.4.5.8 1.9 1.5 2s2.3-1.4 1.9-2M67.2 310.6c-.6-1-2.7-.8-3.3-.1-.4.5.9 2 1.5 1.9.6 0 2.2-1.1 1.7-1.8M74.5 312.3c1.4-.2 2 .3 2.4-.4.2-.3 1.3-1 .7-1.5-1-.7-2.3-.3-3.5-.1-.1.6 1.1 1.1.2 2.1-1.3-1.6-2.9-3.4-4.9-2-.5.4.2 1.4.7 1.6.6.2 1.2-.3 2.2-.3-.8 1.8-2.1 2.9-3.6 4.2.7.7 1.2 1.9 2 2 1.3 0 1.2-2 2-2.5.5-.4 1.4-.4 1.8-.9.7-.8 0-1.5 0-2.2ZM85.5 313.6c0-.3-3.8-5.2-6-3.2-.4.6.6 1.5 1.1 1.6.8.3 1.4-.3 2.4-.3-.4.8-1.3 1.4-.7 2q.7 1.1 1.5 1.3c.6 0 1.6-.7 1.7-1.4ZM90.7 314.3c-1.3-1.6-4.5-6.1-6-3.6-.3.5.8 1.5 1.3 1.4s1-.5 2.2-.5c-.9 1.1-1.1 1.6-.6 2.3.7 1 1.4.6 2.6.6.2.6-.4 1.5 0 2s1 1.2 1.6.4c.3-.3.8-.9.7-1.3-.1-.8-1.4-.7-1.8-1.3M92.6 311c-.5-.9-2.4-1-3-.4-.4.5.7 1.5 1.2 1.8s2-.9 1.8-1.4M97.9 310.6c-1.7-.6-2.8-1-4.2-.3.6.6 1.1 2 2.2 2.2.8.1 1.6-1.2 2-2ZM104.2 311.9c1.2-.2 1.7.6 2 .3l1.8-1.4c-.9-.6-2.1-1.2-3.4-.8-.7.2-1.4 1.2-2.5 2-.2-.4.4-.8.4-1.6-.7-.9-3.3-.5-3.4.6 1 1.4 2.8 2.6 4 3.8.8.7 1.8-.6 2-1.3 0-.5-.7-1-.9-1.6ZM62.5 311.7c-.9.5-1.6 1.3-1 2.2.3.6 1.1 1.2 1.9.7s1.7-1 1-1.9c-.5-.4-1-1.3-1.9-1"/><path fill="#fff" d="M67.7 311.8q-1.6 1-1 2.3 1 2 2 .9c.8-.7 1.4-1.4 1-2.2-.5-.6-1.3-1.4-2-1M84.7 321.5c.6.6.8 1.6 1.7 1.2q.8-.4 1.4-1.4c.4-.8-6.5-7-7.6-8.1-.6-.6-1.4-2-2.1-1.4-.6.3-1.6 1.2-1.4 1.9s1.2 1.5 1.8 1.4c.8 0 1-1.2 2.2-1.2 0 .9-1.8 1.5-1.2 2.2zM93 311.8q-1.5 1.1-.6 2.3c.3.3.8 1 1.4.3.4-.4 1.3-1 .9-1.6-.3-.5-1-1.5-1.6-1M98 312c-1 .4-1.2 1.3-1 1.9.3.6 1 1.4 1.6.9.5-.3 1.2-1 1-1.6 0-.5-.8-1.5-1.5-1.2ZM65.2 314.3c-1.2.4-2 1.5-1.3 2.2.4.5 1 1.4 1.9 1.1.6-.2 1.8-1.2 1.3-2-.3-.5-1-1.6-1.9-1.3M86.3 314.3c-1 .2-1.8 1.3-1.5 1.9.2.5 1 1.5 1.7 1.4s1.3-1.2 1.4-1.8c.1-.5-.8-1.7-1.6-1.5M95.9 317c.7.3 1.4-.9 1.2-1.5a3 3 0 0 0-1.3-1.2c-.4-.3-1.2.1-1.4.8s.6 1.7 1.5 2M100.4 314.3c-1.2.6-1.5 1.7-.7 2.4.4.4 1 1.1 1.8.4.5-.4 1.5-1 .8-1.8-.5-.4-1.2-1.4-2-1ZM105.6 319.3c-.2 1.6-1.4 2-.4 2.7.5.3 1.1 1.3 1.7 1 .6-.5 1.4-1.4.8-2.1-1-1.3-2.5-2-3.1-3.7 1 0 1.6.8 2.3.3.4-.4 1.3-.9 1-1.6q-.3-.7-1.6-1.8c-.5-.6-1 .8-1.6 1.1s.2 1.3-.2 1.9c-.6 0-1.6-.5-2.2 0-.4.4-.3 1.7-.8 1.9-1 .5-2.1 1.4-1.7 2 .3.6 1.1 2 1.9 1.5 1.5-1 2.2-2.5 3.9-3.2ZM62 315.8c-.2-.9-1.6-1.5-2.4-1.3-1 .4-1.2 1.4-.7 2s1.1 1.5 1.8 1c.5-.2 1.4-.9 1.2-1.7M75.4 314.6c-.8.4-1.6 1.3-1 2 .3.6 1.2 1.3 1.8.8s1.4-1.2 1-1.9c-.4-.5-1.1-1.3-1.8-1M112.9 316.6q-.5-1.3-1.3-2c-.8-.8-1.9.8-1.9 1.6 0 .6 1 1.2 1.6 1.7.5.3 1.8-.4 1.6-1.3M49 318.2c-.2-.8-1.3-1.4-1.9-1.8-.5.8-1.8 1.4-1.3 2s1.4 1.5 1.9 1.4c.4 0 1.4-1.1 1.3-1.6M52 316.9c-.9.7-1.6 1.6-.7 2.2.7.6 1.2 1.5 2 1q1.5-1.2.8-2.2c-.6-.6-1.2-1.6-2-1M57.5 317c-1.3.5-1.5 1.6-1 2.3.5.4 1.1 1.5 2 1 .6-.5 1.2-1.4.9-2s-1.2-1.7-2-1.3M64.4 318.7q-.3-1.2-1.4-1.6c-.7-.3-1.9.9-1.7 1.5q.5 1 1.6 1.6c.5.3 1.6-.7 1.5-1.5M70.2 322.8c.8.7 1.8-.6 2-1q.3-1-.7-1.8-.6-.5-1.9-.2.5-1.6-.6-2.4c-.9-1-1.3-.3-2 .3s-1.2 1.7 0 2.1c1.5.7 2 1.9 3.2 3ZM76.2 319.4c-.8-.3-1 1.5-2.4 1.2.3-1.2 1.8-1.7 1-2.6-.5-.5-1.4-1.7-2-.8-.5.4-1.9 1.4-1 2 1.5 1 2.4 2.2 3.6 3.4.7.7 1.9-.8 2.1-1.4s-.4-1.4-1.3-1.8ZM78.8 316.9c-.4-.6-1.7.7-1.7 1.3s.4 1.2.9 1.6 1.5-.6 2.1-.3c0 .9-1.1 1.4-.5 2q1 1.1 1.9 1c3.6-.4-.6-2.4-2.7-5.6ZM88.6 316.8q-1.8 1.2-1.4 2 .8 1.2 1.6 1.1c.8-.3 1.6-1 1.4-1.8-.2-.5-.8-1.8-1.6-1.3ZM93.2 316.8q-1.5 1-.7 1.8 1.1 1 1.8.8 1.2-1 .7-1.7c-.5-.6-1-1.4-1.8-1M99.8 319.2c.7-.8-.3-1.5-.5-1.8q-.8-1.2-2-.2c-1.2 1 .1 1.5.6 2s1 .8 1.8 0"/><path fill="#fff" d="m110.5 318.5-1.7-1.8c-.8.8-2 1.5-1.6 2.2.5.8 1.3 1.9 2 1.6s1.9-1.3 1.3-2ZM113.8 317.5c-1 .4-1.8 1.4-1.2 1.9.4.2 1 1.3 1.5.9s1.2-1 1.1-1.6c-.1-.4-1-1.5-1.5-1.2M51.6 321q-.5-1.5-1.7-1.8c-.7-.1-1.6.9-1.5 1.5s.9 1.5 1.5 1.7 1.8-.6 1.7-1.4M91.8 321.9c.7-.7 1.4-1.3 1-2q-.6-.5-1.3-.9c-.5-.1-.9.5-1.3 1q-1 1 0 1.9c.3.3.7.8 1.6 0ZM95.9 319.1q-1.8 1.2-.7 2.2c.4.3 1 1 1.6.6.6-.3 1.1-1.2.7-1.7s-.8-1.6-1.6-1ZM55 323c.7.5 1.7-.9 2-1.5.1-.7-.8-1.7-1.4-2s-1.8.4-2 1.3q.1 1.1 1.5 2.1M60.2 319.7c-1.2.6-1.8 1.6-1.2 2.2.5.5 1.1 1.3 1.6 1 .7-.5 1.7-1.3 1.4-1.9-.2-.6-1.2-1.6-1.8-1.3M65.2 319.8q-1.7 1-1.3 1.7c.6.7 1.2 1.4 2 1.2.5-.1 1.3-1 1-1.6-.2-.4-1-1.6-1.7-1.3ZM115.1 329.5q-.5 2.1.4 2.7c.4.3 1.4.5 1.8-.2.5-1-1-2.4-.7-3.5.2-1 1.7-2.3.7-3.3l-3.4-3.6c-.8.4-1 2-2.1 1.5.2-1.1 1.3-1.5 1.2-2.2 0-.4-.7-.8-1-1s-1.2-.2-1.5.3c-1.7 3-4 2.7-2.5 4.6.3.3.8 1 1.5.5.9-.7 1-1.9 2.2-2.1.4 1.6 5 3.5 2.7 4-.6.1-2.4 1.2-1.8 2.3q.2.7 1.2.7c.4 0 .7-.6 1.3-.8ZM47.5 325.7c1.4-1.4 2-1.9 1.5-2.7-.3-.6-1.1-1.7-1.7-1.4s-1.6.9-1.9 1.8c.1.7 1.4 1.9 2.1 2.3ZM93.7 321.4c-1.2.6-2.1 1.6-1.5 2.4.3.4 1.1 1.3 1.8.9.5-.3 1.8-1.2 1.5-1.8-.3-.5-1.3-1.7-1.8-1.5ZM103.2 326c-1.3-1.4-2.7-2-3.6-3.8-.1-.4-.9-.8-1.1-.7q-.6.3-1 1c-.3 1 .5 1.5 1.2 2 .4.4 1.5-.3 1.9.1s-.6 1.5 0 2c.3.3.8 1 1.4 1 .5.1 1.6-1.2 1.2-1.6M54.6 324q-.9-1.8-1.9-2.1c-1-.3-1.6 1-1.4 1.6s1 1.2 1.5 1.7c.5.3 2-.7 1.7-1.3M73.1 322c-1.2.5-1.6 2-1 2.7.4.3.9 1.3 1.5.8s1.7-1.4 1.3-2.1c-.2-.5-1.1-1.5-1.8-1.3M78.2 322c-1 .4-1.7 1.5-1.2 2.4.3.5 1.1 1.4 1.9.8.5-.4 1.3-1 1-2 0-.5-.9-1.4-1.7-1.1M89 324.8c1-.9 1.5-1.5.6-2.3-.4-.3-.8-1-1.6-.3-.6.6-1.3 1.4-.7 2.1.2.4.9 1.3 1.7.5"/><path fill="#fff" d="M62.3 325.9c0-.4 2.5-1.4 2.7-1.8.2-.6-.7-.9-1-1.3-.6-.7-1.6-.8-2-.2-.3.3-.8.8-.6 1.3s1.2.6 1 1.9c-2-.8-2.7-2.3-4.2-3.5-.6-.5-1.7.8-1.9 1.5-.2.5 1 1 1.5 1.5.7.6 1.4-1.1 2.2-.8.4.7-1.2 1.3-1 1.9q.6 1.1 1.4 1.3c.6.2 1.3-.7 1.8-.3.3.3-.6.9-.6 1.2s.2.6.5 1q.9 1.2 1.9.7c.4-.3 1.2-.8.9-1.6-.8-1.8-3.2-.8-2.6-2.9ZM70.5 328c.8.6 2.4-1.3 1.6-2a33 33 0 0 0-3.8-3.7c-.6-.4-1.4.5-1.7 1s3.8 4.6 3.9 4.6M85.8 324.8c-1.2.8-1.2 1.6-1 2s.7 1 1.1.9 1.2-.8 1.4-1.5c-1.6-2-3-4.7-4.6-3.3q-.7.5-.2 1.2.7 1 1.8.7c.6-.2 1.3-.7 1.5 0ZM105.5 323.8c.2-.6-1.1-1.7-1.8-1.5-.9.3-1.5 1.1-1 1.6q.5.7 1.3 1.2c.4.2 1.2-.6 1.5-1.3M79.3 326.5c.4 1.5 1.8 1.5 2.3.9.3-.4 1.2-1 1-1.8-.2-.5-.9-1.3-1.5-1.2-.7 0-2 1.4-1.8 2.1M90.9 324.2q-2.1 1-1.4 2.3c.3.5 1 1.5 1.7 1 .6-.3 1.6-1.2 1.3-1.9-.1-.5-1-1.7-1.6-1.4M98.2 325.9c0-.8-1-1.5-1.6-1.8-.9-.4-2 .8-2 1.7 0 .7 1.2 1.7 2 1.8.5.1 1.7-.7 1.6-1.7M49.5 329.2c.6-1 2.9-1.6 3-2.8q-.1-.5-.7-.9c-.8-1-1.7-1.5-2.7-.6q-1.2 1-.2 2.7c-.8 0-1.2-.7-1.6-.5q-.9.6-1.7 1.5c-1 .9.6 1.9 1.2 2.3 1.1.7 2-.7 2.6-1.7M57.1 326a3 3 0 0 0-1.6-1.3c-.8 0-1.7 1-1.5 1.7q.5 1.4 2 1.4c.5 0 1.6-.9 1.1-1.7"/><path fill="#fff" d="M65.4 327.9c.7.7 1.2-.2 1.7-.7.3-.3.7-.8 0-1.4s-1-1.1-1.5-1c-.7.2-1.5.7-1.6 1.1q.2 1 1.4 2M74.2 326.3c-.4.8.8 1.6 1.4 1.7.7.2 1.3-.8 1.6-1.3.4-.7-.4-1.7-1.2-2-.5-.1-1.5 1-1.8 1.6ZM106.8 327.9c.6.2 1.3-1 1.2-1.5q-.1-1-1.1-1.6c-.4-.3-1.3 0-1.6.9s.7 1.9 1.5 2.2M111.4 325c-1 0-1.8 1.1-1.5 1.7s1.1 1.5 1.7 1.5c.7 0 1.4-1.2 1.4-1.8-.1-.5-.8-1.6-1.6-1.5M100.9 328.7c0-.7-1.1-2.1-1.7-2-.8.4-1.7 1.3-1.6 1.9.1.8 1 1.6 1.7 1.5.5-.1 1.6-.8 1.6-1.4M83.1 327c-1.1.5-1.5 1.6-1 2.3.4.4.9 1.1 1.7.8.6-.2 1.2-1.1 1-1.7s-1-1.7-1.7-1.4M88 327.1q-1.6 1-.8 2.2c.3.4 1 1 1.8.5.4-.3 1.3-1 .7-1.7-.3-.4-1-1.2-1.6-1M93.3 326.8c-1 .6-1.9 1.5-1.2 2.5.4.6 1.4 1.6 2.2.7.5-.5 1.9-1.3 1-2-.4-.5-1.3-1.6-2-1.2ZM105.8 329c-.2-.8-.8-1.8-1.6-2s-1.4 1-1.3 1.6q.3.8 1 1.2.7.6 2-.8M51 334c-.2-1.3 1.3-1.5 1-2.1l-.8-1.7c1-.3 1.5.7 2.3.2.4-.2.6-1 1.6-1l-1.6 2.3c.7 1.3 2 1.5 2.9 2.6.6.9 1.4 2 2.3 1.3s1.4-1.5.7-2.3-1.2-1-2.6-.4c0-1 .5-1.3.3-1.9l-3.7-3.6c-1.3-.3-1.7 1.7-2.5 2.3-1 .9-2.7 1.1-2.8 2.8 5 3 2.5 5.3 6.5 3.3l-1 1.7c-.2.4.9 1.2 1.3 1.3.6.2 1-.4 1.5-.7 1.3-.8.8-1.7.2-2.5-.3-.4-1.5.1-1.9-.5-.6-1-.4-2.1-1.6-2.3-.7-.1-1.3.6-2.1 1.1ZM62 330.8c-1.4-1-2.2-2.5-3.7-3.4-.7-.5-2 .9-1.8 1.6q.3.9 1.7 1.5c.5.3.9-.8 1.9-.8-.5 1.2-1.2 1.7-.7 2.4.6.8 1 1.4 1.8.8.6-.5 1.7-1.4.8-2ZM66.6 330.2c1.9.4 2.5.3 3.2-.8.4-.5-.4-1.2-.9-1.8s-1.7.2-1.9 1c-.2 1.2-.8 1.4-2 1.9-1.4.5-.6 1.6 0 2.1.9.8 1.3.4 1.8-.1.8-.8.2-1.5-.2-2.3ZM73 327.6c-1 .4-1.3 1.5-.9 2.2.3.4.7 1.2 1.5.7.4-.4 1.3-1 1.1-1.7 0-.5-1-1.5-1.6-1.2ZM78 327.5c-1 .5-1.6 1.5-1.3 1.9.5.5 1.2 1.2 1.6 1 .7-.3 1.5-1.1 1.3-1.8-.2-.4-1-1.5-1.6-1.1M108.6 327.5q-1.3 1.1-.6 1.8.8.8 1.4.7c.8-.3 1.3-1.2.7-1.7-.3-.2-.9-1.2-1.5-.8M94.6 331.5c.4 1 1.4 2 2.1 1.4.5-.5 1.6-1.2 1.5-2-.1-.4-1-1.4-1.6-1.5-.8-.2-2.3 1.3-2 2M79 334.6c.5-1.7 2-2 3-3.2.7-.6-.4-1.8-1-1.8s-1.2.7-1.6 1c-.6.7.3 1.2.3 2.5-1.2-.7-2-1-2.8 0q-.6.6.4 1.7c.4.3 1.4.8 1.7-.2M85.3 329.7c-1.2.8-1 1.7-.6 2.2q.9 1.3 1.6 1 1.5-1.1 1-2c-.3-.7-1.1-1.7-2-1.2ZM88.5 335.7c1.3 0 1.2-2.3 2-2.6 1.2-.3 2.4-1 2-2-.4-.8-1.6-2.1-2.3-1.3l-3.1 3.4c-.6.7.6 2.5 1.4 2.5M101.5 329.5c-1 .5-1.7 1.4-1.1 2.2.4.7 1.2 1.5 2 .9.7-.4 1.4-1.2 1-2-.4-.6-1-1.5-1.9-1Z"/><path fill="#fff" d="M103.2 337.2c.4 1.3-.7 1.5-.7 2q.2.8 1 1.1c.8.6 2.1-1.2 2.1-1.7 0-1-2.2-1-2.2-2.2 0-.5 5.3-4.6 4.5-5.9-.2-.4-.8-1-1.5-.8-.4.2-1.1.8-1 1.5.2.4 1.3.8.7 1.6l-2-.7c-.3-.2-1.4 1-1.4 1.5 0 .8 1.2.9 1 2.2-2.5-.8-3.7-4.2-4.7-3.8q-1.4.7-1.6 1.7c0 .8.7 1.7 1.5 1.8.8 0 1.1-1.2 2.4-1.1 0 1-1.6 1.1-1.5 2 .1.6 1.1 1.3 1.6 1.7.7.5 1.4-.6 1.8-1ZM111 329.9q-1.2.6-.8 1.6c.5.5 1 1.1 1.6.8q1.1-.7.7-1.5-.6-1.1-1.4-1M70.2 330.2c-1.2.8-.9 1.6-.4 2.1q.9 1 1.5.7 1.5-1 .8-2c-.5-.5-1-1.4-2-.8M75.3 330q-1.6 1-.9 2.1c.7 1.1 1.2 1 1.9.5.4-.3 1-1 .7-1.5s-1-1.4-1.7-1ZM83.4 332c-.7-.2-2 1-2 1.7s1 1.4 1.5 1.6c.9.5 1.1-1 2.4-1-.3 1.5-1.6 2-.8 2.8.4.5 1 1.6 1.8 1 .5-.2 1.3-1 1.3-1.6 0-.3-4-4.5-4.2-4.6M108.7 332.2c-1 .5-.9 1.6-.3 2.1.2.3.6 1 1.3.4.5-.4.8-1.3.4-1.9-.2-.3-.6-1-1.4-.6M63 332.5q-1.9 1.1-.8 2.4c.3.3 1 .7 1.7.3.5-.3 1.5-1 .9-1.8-.3-.3-1-1.4-1.8-1M68 332.6q-1.8 1-.8 2.2c.4.5 1 1 1.8.6.5-.3 1.4-1.4.8-2-.3-.3-1.2-1.1-1.8-.8M77 335.7c-3.9-3.3-3.7-4.1-4.9-2.3-.5.8.3 1.5.8 2 .8.8 1.3-1.3 2.1-.8.5.7-1.3 1.5-.7 2.1s1.3 1.4 1.9.9c.4-.4 1.6-1.2.8-1.9M94.4 340.5c.8-.3 1.2-1.6.9-2-.3-.5-.9-1.3-1.5-1.2-.6 0-1.2 1.4-1.8 1-.4-.6.9-1.3.9-1.9s-1.4-1-1-2c.7 0 1.4 1.6 2.2.9.4-.4 1.3-1 1-1.5s-1.2-1.7-1.8-1.6c.8-.1-5 4.5-4 4.8 1.5 1 3 1.8 3.7 3.6-1.2-.4-1.9-1-2.5-.4q-1.4 1.3-.3 2.4c2 2.5 1.4-1 4.2-2.1ZM113 332.4c-1 .7-.4 1.4.3 2q.4.4 1 0 1-.9.5-1.4c-.6-.5-1.1-1.2-1.9-.6ZM46.8 333q-2 1.2-1.2 2.3 1 1.6 1.8 1.1c.8-.5 1.7-1.4 1.4-2.1-.3-.6-1.2-1.7-2-1.3M111.4 334.3c-1 .3-1.4 1.3-1 1.9.4.3 1 1.2 1.7 1 .5-.2 1-1.1.8-1.7-.2-.4-.7-1.4-1.5-1.2M117.4 338l-.2-1.5c0-.8-.7-2.8-1.2-2.3q-1.1 1.2-.9 2c.1.5 1 .8.7 1.8-.8-.4-1.4-1.5-2.2-1-.4.2-1.2.9-.8 1.5.6.8 1.3 1.5 2 1.2-.2 0 2.5-2.9 2.6-1.8M67.5 336.7c0-.7-1-1.7-1.7-1.8-.6 0-1.7 1-1.6 1.5 0 .7 1 1.3 1.5 1.7s1.7-.4 1.8-1.4ZM82.3 339.8q1.5 1.5 2.4 0c.5-.5.4-1.6-.7-2-1.4-.5-1.8-1.7-2.7-2.8-.7-1-1.7 0-2 .6-.6.8.3 1.4 1 2 .5.4 1.2-.6 2-.3.3.5-.7 1-.8 1.3q.1.5.8 1.2Z"/><path fill="#fff" d="M97.8 336.5c-.2-.9-1.2-1.9-1.8-1.7-.8.2-1.3 1.3-1 1.8s.9 1.4 1.5 1.3 1.5-.6 1.3-1.4M107.4 337.2c.4-.6 1-1.2.7-1.6q-.6-.9-1-1c-.6-.2-1.1.4-1.5.8-.8.8-.4 1.4 0 1.8q.8 1 1.8 0M60.2 335c-1 .4-1.6 1.4-1 2.2.4.6 1.2 1.4 1.8.8s1.6-1.2 1.1-2q-.6-1.1-2-1ZM70.4 335.3q-1.5 1-.4 2.3.7.6 1.4 0 1.2-.7.7-1.5c-.4-.6-1-1.4-1.7-.9M49 336c-1.2.9-1 1.8-.3 2.4q1 1.1 1.8.5 1.6-1.2 1-2.2c-.7-.8-1.5-1.5-2.5-.7M78 337c-1.2.5-1.7 1.5-1 2.1.4.5.9 1.4 1.5 1s1.5-1.2 1.2-1.8-1-1.6-1.8-1.3M109.9 339.5q1.5-1.5.2-2.4-.8-.8-2 .3-.8 1.1-.3 1.9.8 1.1 2 .2ZM62.1 342c.4-.8-.9-1.7-1.7-2-.6-.4-1 1.1-2 1 .1-1.2 1.7-2 1-2.6-.4-.3-1-1-1.8-.7s-1.9 1.4-1.8 2.1l4.2 4.3q1.4-.9 2.1-2.1M62.7 337.4q-2 1.1-1 2.5.9 1.1 2.2.4c.5-.4 1.6-1 .9-1.9-.5-.5-1.3-1.5-2.1-1ZM69.5 339.6c.9-1 .1-1.5-.6-1.9q-.7-.4-1.6.6c-.8.7-.4 1.3.2 1.9q.8.7 2-.6ZM73 337.4q-1.7 1.2-.7 2.3c.3.3.8.9 1.5.4.4-.3 1.1-1 .8-1.6-.2-.5-.9-1.5-1.6-1M88.1 337.5q-1.7 1.3-.9 2.4t2 .5c.4-.3 1.2-1.3.8-1.9s-1.1-1.5-1.9-1M100.6 339.5c.4-.7-1-1.8-1.6-2s-1.4.8-1.5 1.2c-.2.7.5 1.3 1 1.5s1.7.3 2.1-.7M111.5 339.2c-1.1.6-2.2 1.7-1.5 2.3.4.4 1.3 1.3 1.9 1s1.6-1.3 1.4-2c-.2-.5-1.2-1.6-1.8-1.3ZM117.1 342.6c.5-1 .7-2.7-.4-3.4-.5-.3-1.5 1.1-1.4 1.7q.4 1.1 1.8 1.7M70.4 339.8q-1.5 1.3-.8 2.2.9 1.4 1.7.8c.7-.4 1.2-1.4.7-2-.4-.4-1-1.5-1.6-1M75.4 339.7q-1.5 1-1 2c.5.7 1.2 1.4 1.9 1 .7-.6 1.4-1.3.8-2-.3-.5-1-1.4-1.7-1M82.6 341.6c.3-.6-1.2-1.8-1.9-2s-1.7 1-1.6 1.7c.1.5 1 1.2 1.6 1.7.4.3 1.6-.5 2-1.4ZM96.4 340c-1 0-1.7 1.2-1.6 1.8s.9 1.4 1.6 1.3c.6-.1 1.3-1 1.5-1.7.1-.5-.7-1.6-1.6-1.4ZM106 339.7c-.7.5-1.4 1.5-1 2 .4.8 1.3 1.5 2 1s1.2-1.4.8-2.1c-.3-.5-1-1.4-1.7-.9M65.4 340.2c-1 .5-1.7 1.3-1.1 2s1.2 1.4 2 1 1.5-1.3.9-2.2c-.4-.4-1.1-1.2-1.8-.8M87.6 341.8c.1-.7-1.4-2-2-1.6-1.4 1-.9 1.9-.1 2.6s1.7.5 2-1ZM104 345.3c.9-.6 1.7-1.5 1-2.2s-1.7-.9-2.2-1.8c-.3-.7-.9-1.4-1.5-1-.3.2-1.3.7-1.1 1.2q.3 1 1 1.2c.5.1 1.4-.8 1.9-.4.2.5-.8 1.6-.5 2.3.2.4.7 1.2 1.3.7M54.7 340.7c-1 .3-2 1.5-1.5 2q1 1.4 2 1 1.5-.6 1.4-1.7c-.1-.7-1.1-1.6-2-1.3ZM97.2 344.3c.4 1.5 1.6 1.5 2.1.8.4-.4 1.3-1 1-1.7-.1-.4-.8-1.4-1.4-1.2-.7.1-2 1.5-1.7 2.1M108.8 342q-2 1.2-1.3 2.2c.5.5 1 1.5 1.6 1.1.7-.5 1.6-1.3 1.3-2-.2-.4-1.1-1.6-1.7-1.3ZM116.8 347.8q1.5-2.9-1.1-4.7c-.8-.6-1-2.1-2.1-1.1-.4.3-1.2.8-1 1.6 0 .5.7 1.3 1.3 1.4s1-1 1.9-1c0 1-1 1.5-.7 2.2.2.6 1 1.6 1.7 1.6M66.5 347.8c1-.9.7-1.6 0-2.3s-1.2.1-2.6 0q1.5-1.4.2-2.5-1.1-1.1-2.3.4-1.3 1-.6 2c.6.9 1.2.6 2.7.2q-1 1.6-.2 2.3 1.3 1.6 2.8 0M69 345.3c.8-.8 1.3-1.5.6-2.2q-1-1.1-2-.1c-1 .9-1.2 1.3-.6 2.1s1 1.3 2 .2ZM72.9 342.4c-1.3.6-1.2 1.8-.7 2.3.3.4 1 1.2 1.6.6.5-.4 1.1-1.2.9-1.8s-1-1.5-1.8-1.1ZM80.2 344.2c0-.9-1.4-2-2.2-1.8-1.1.3-1.4 1.5-.9 2s1 1.2 1.6 1.1c.5 0 1.6-.5 1.5-1.3M87.5 347.6c.2-.3.7-1 .2-1.6-2.5-2.1-3.6-3.8-4.6-3.2-.7.3-1.4.8-1.2 1.4-.2-.6 3.8 5.6 5.6 3.4M88.6 342.7c-1 .3-1.6 1.3-1.3 1.8s1 1.4 1.6 1.3c.7-.2 1.4-1 1.3-1.6s-.8-1.8-1.6-1.5M93.7 342.6q-1.7.8-1.5 2 .5 1.5 1.6 1.2 1.1-.6 1.4-1.6c.3-1-1-1.8-1.5-1.6ZM56.9 343.1q-2 1.4-.7 2.7c.3.4 1.3 1.2 2 .6.4-.5 1.3-1.4.8-2.1-.5-.6-1.2-1.7-2.1-1.2M55.3 346.1c-2.4-1.5-2-3.8-3.6-2.5-.4.3-1 1-1 1.6 0 .5.8 1.7 1.3 1.5l2-1c-.6 1.2-1.5 1.8-.5 2.8q1.2 1.3 2.4 0c.8-.8.9-1.5-.6-2.4M109.9 346.6c.4 1.2 1.4 1.4 2 .9.3-.4 1-1 1-1.6 0-.5-.5-1.3-1.3-1.4s-2 1.2-1.7 2.1"/><path fill="#fff" d="M72.4 351c2.4.4 2 2.4 3.6 2.8l2.8-3c.6-.6 2-1.1 1.6-1.8-.5-.7-1.1-1.6-1.7-1.6-.8 0-1.5 1-1.7 1.4-.3.8.9 1.4 1.1 2.3-1.9 0-.5-1.4-3.6-.5.9-1.3.4-2.3-.6-3s-1.5.3-2.7.8c.1-1.3 1.6-1.7.8-2.7-.4-.4-1-1.1-1.6-.6-.4.3-1.7 1.3-1.1 2 1 1.4 2.8 2 3.2 4.2-1.2-.1-1.2-1.2-2-1.2s-1 1.1-2.1 1c.3-.9 1.3-1.4 1.1-2.3q-.2-.8-1.3-1.1c-.6-.2-2.4 1.2-1.9 2.5q.3.5 1.2.9c1.4.5 1.5 2.6 2.9 3s1.7-1.7 2-3.2Z"/><path fill="#fff" d="M75.8 344.8c-1.3.5-2 1.6-1.2 2.2.5.4 1 1.5 1.7 1.1s1.8-1.3 1.3-2c-.3-.4-1.2-1.6-1.8-1.3M100.9 344.7c-1.3.5-1.4 1.7-.9 2.4.3.4.7 1.1 1.6.7.4-.2 1.2-1 1-1.6s-1-1.7-1.7-1.5M105.9 344.8q-1.9 1-.8 2.3c.3.3 1 1 1.7.5.4-.3 1.1-1.2.8-1.9-.2-.4-1-1.2-1.7-.9ZM82.8 347c.2-1-1.1-2-1.7-1.9s-1.7.7-1.5 1.5q.6 1.2 1.5 1.7c.5.2 1.6-.4 1.7-1.4M90.9 345.4q-1.8 1-.7 2.1c.4.4.8 1 1.4.4.4-.4 1.5-1 1-1.6-.4-.4-1.2-1.3-1.7-1ZM95.8 345.2c-1.1.5-1.4 1.5-1 2 .2.5 1 1.1 1.5.8s1.2-1 1.1-1.6c-.1-.5-.8-1.6-1.6-1.2M60 345.7c-1 .3-1.5 1.2-1.5 1.8q.2.9 1.3 1.3c1.1.4 1-1 2-1-.3 1-1.4 1.5-1 2.3.3.5 1.1 1.5 1.7 1.3.7-.2 1.4-1.1 1.4-1.7 0-.2-3.4-4.2-4-4ZM49.1 346.3q-1.7.9-.8 2 1.2 1.5 1.8.9 1.5-1 .9-2-.8-1.5-1.9-1M113.7 347c-1.4.6-1.8 1.7-1.2 2.2s1.3 1.6 1.8 1.3c.9-.5 1.7-1.5 1.3-2.2-.3-.5-1-1.7-2-1.3M85 352c.4.8 1 1.8 1.8 1.1.5-.3 1.2-.9 1.1-1.6 0-.5-.8-1-1.3-1.1-.7-.2-1 1-2.2.7.5-1 1.6-1.6.7-2.4-.5-.4-1-1.3-1.6-1-.7.5-1.5 1.4-1 2.1.7 1 2 1.1 2.5 2.2ZM88.6 347.8c-.9.2-1.2 1.3-1 1.8s.9 1.2 1.6 1c.5-.2 1-1.1 1-1.7-.2-.5-.8-1.3-1.6-1.1M93.6 347.7c-1 .2-1.7 1.2-1.3 1.8.2.4.8 1.1 1.4 1 .5 0 1.3-1 1.2-1.6-.1-.4-.6-1.3-1.3-1.2M99 350.2q1.2-.8 1.1-1.5a2 2 0 0 0-1-1.3q-.7-.3-1.5.6-1 1-.2 1.8c.3.4.7 1 1.6.4M105.6 352.6c.5 1 1.6 0 2-.5.6-.8 0-1.7-.8-2.2-.8-.7-1 .5-2.2.8.2-1.2 1-1.9.2-2.7-.5-.5-1.2-1-2.1-.2-2 1.7 1.2 1.8 2.9 4.8M109.9 351.6c.3.8.9 1.7 1.6 1.5.7-.3 1.5-1 1.5-1.7q-.2-1.2-1.4-1.7c-1.2-.5-1 1-2 1 .4-1.2.9-2 .3-2.7-.3-.4-1.1-1-1.8-.5-.4.2-1.1.9-.7 1.6.5 1.1 2 1.3 2.5 2.5ZM51.9 348.7c-1.3.5-1.4 1.7-.9 2.3.3.3 1 1 1.7.5.5-.3 1.2-1 .8-1.7-.3-.4-1-1.4-1.6-1.1M57 348.5c-1 .5-1.7 1.3-1.1 2 .4.6 1.2 1.6 1.9 1 .5-.6 1.3-1.4 1-2s-1-1.4-1.8-1M117.2 353.8c.5-1.5.6-3.5-.3-4.6-.9 0-1.8 1.6-1.7 2.3 0 .9 1 1.8 2 2.3M101 349.8c-1.3.6-2.2 1.6-1.4 2.2.5.4 1.1 1.5 1.7 1 .8-.4 1.8-1.1 1.4-1.9-.2-.6-1-1.8-1.8-1.3M64.9 350.6c-1 .5-1.9 1.6-1.6 2.2q.8 1.2 2 1c1.2-.2 1.6-1.3 1.3-2-.3-.4-1.1-1.5-1.7-1.2ZM81 350.3q-1.8 1-1 2.3c.7.7 1.3 1.4 2.1.3.4-.4 1.7-.8.9-1.5-.6-.5-1.2-1.5-2-1.1M91 350.2q-1.4.9-.8 1.9c.4.6.8 1.4 1.4.8s1.3-1.1 1-1.7-1-1.4-1.6-1ZM95.4 350.2q-1.5 1-.2 2.2c.5.4 1 .8 1.6.1q1-.8.5-1.6-.9-1-1.9-.7M54.6 351.1c-1 .3-1.7 1.2-1.5 1.8.2.5 1 1.4 1.5 1.2q1.3-.4 1.6-1.5c0-.5-1-1.6-1.6-1.5M59.3 350.9c-.8.6-1.7 1.5-1 2.2.7.6 1.3 1.7 2 .9s1.5-1.3 1-2-1.1-1.7-2-1.1M80.3 354.8c.5-.7-.6-1.8-1.3-2-.7-.5-1.1.5-2 1-.9.8.3 1.6 1 2.1.5.4 1.5-.3 2.2-1.1M88.6 352.7c-1 .3-1.3 1.3-1 2 .1.4.8 1 1.4.7.4-.2 1.2-.9 1.1-1.5 0-.4-.8-1.3-1.5-1.2M93.3 352.6q-1.3.9-1 1.8.9 1.2 1.8.8c.7-.6 1.3-1.2.8-1.8-.4-.5-1-1.3-1.7-.8M98 352.5q-1.6 1.3-.4 2.2c.4.4 1 1 1.5.6.7-.5 1.4-1.2.8-1.9-.4-.4-1-1.3-1.8-.9M103.8 356.2c.4-.5 1.6-1.2 1.5-2 0-.8-1-1.7-1.5-1.8-.7 0-1.4.9-1.6 1.4-.4.9.6 1.2 1.6 2.4ZM108.7 352.5q-2 1.1-1.1 2.2c.4.4 1 1.3 1.5 1 .8-.3 1.5-1.2 1.2-1.8-.2-.5-1-1.8-1.6-1.4M117.2 354.7c-1.6.7-1.7-2.5-3.3-2.3-.3 0-1.2.6-1.3 1.3-.2 1.2 1.4 2 2.5 2.3.4 1.2.6 2.3 2 3q.9-2 .1-4.3M69.4 355.2c.1-.7-1.1-2.2-1.8-2-.8 0-2 1.3-1.6 1.9s1 1.6 1.7 1.8c.5.2 1.6-.9 1.7-1.7M71.5 354.8c-.2.7 1 2 1.7 1.8.8-.2 1.7-1.2 1.8-1.9s-.8-1.8-1.6-1.7c-.7 0-1.6 1-1.9 1.8M87.8 356.5c-1.8-1.5-3.2-4-4.3-3.6-.5.1-1.4.7-1.2 1.5.1.5.9 1.3 1.5 1.6s1-1 1.9-1l-1 2c0 .3.9 1.2 1.3 1.2.6 0 1-.9 1.9-1.7ZM51.9 354q-1.6.8-.6 1.9c.4.4.7 1 1.5.4.4-.3 1-1 .6-1.5-.3-.4-.9-1.2-1.5-.9M56.8 353.6c-1.4.5-1.3 1.8-.9 2.4.3.3 1.1 1 1.8.5.4-.4 1.2-1 .8-1.8-.2-.4-1-1.3-1.7-1M62 353.6c-1 .3-1.5 1.3-1.1 2s1.2 1.5 1.9.9c.5-.4 1.4-1.3 1-2-.2-.5-1.1-1.2-1.8-1M90.9 355c-1 .4-1.3 1.5-1 2.1.4.4 1 1.3 1.7.7.4-.3 1.4-1 1.1-1.6s-1-1.5-1.8-1.2ZM95.9 354.8q-1.9 1.1-.7 2.2c.3.4.8 1 1.4.4.6-.4 1.6-.8.9-1.6-.4-.3-1-1.3-1.6-1M102.9 356.7c-.4-1-1.3-2-1.9-1.9-.8.2-1.8 1.4-1.4 2 .4.5 1 1.3 1.6 1.4s2-.8 1.6-1.6M77.5 356.9c-.4-.8-1.5-1.6-2-1.3q-1 .9-1.4 1.7c-.3.6.5 1.6 1.2 1.7s2.5-1.3 2.2-2.1M83 357.3c0-.9-.8-1.6-1.2-2-.7-.5-1.2.2-1.8.8q-1.1.9-.4 1.6c1.3 1.4 3.2 0 3.3-.4M106 355.2c-1 .5-1.7 1.4-1 2 .5.7 1.2 1.8 1.9 1 .6-.6 1.5-1.3 1-2s-1-1.4-1.9-1M111.5 358.2c.8.5 1.6-.7 1.7-1.4s-.7-1.4-1.2-1.6c-.7-.3-1.7.3-2 1.2-.2.5.7 1.3 1.5 1.8M51.3 357.6c0-.7-1-1.8-1.6-1.7s-1.5 1-1.3 1.6c.2.4 1 1.2 1.5 1.4s1.4-.6 1.4-1.3M64.7 355.9c-1.3.5-2 1.7-1.5 2.4.3.6 1.3 1.7 1.9 1.3.8-.5 1.8-1.3 1.7-2s-1.3-2.1-2.1-1.7ZM71.6 359.1c-.4 1.6.3 2.6 1.1 2.6 1 0 1.7-.9 1.9-1.4.3-1-.8-1.5-1.6-2-1.2-.7-1.4-2-2.7-2.7-1.1 2-2.8 3-4.3 4.3-.7.7.7 2 1.3 2.2.7.1 1.6-.9 2-1.4.8-1-1-1.1-.8-2.5 1.2.7 2 1.6 3 .9M56 358c.4-1-1.2-2.1-1.8-1.8-1.4.8-1 1.7-.2 2.5.6.5 1.6.8 2-.8M59 356.4c-1.3.8-1 1.6-.4 2.2s.9 1.1 1.5.6q1.4-1 .8-2c-.4-.5-1-1.4-2-.8M93.7 357.3c-1 .3-1.8 1.4-1.5 2.1.3.5 1.1 1.2 1.8 1 .5-.3 1.4-1.1 1.3-1.8-.1-.5-1-1.5-1.6-1.3M88 357.6q-1.4 1.3-.5 2.2.7 1 1.6.6c.7-.6 1.3-1.3.8-2-.4-.4-1-1.4-1.8-.8M100.3 359c0-.7-1.4-1.9-2.1-1.6-1 .4-1.5 1.4-.9 2 .4.3 1 1 1.5 1 .4-.1 1.4-.6 1.5-1.3M103.8 357.5q-2.2 1.2-1.3 2.3c.5.4 1 1.3 1.6 1 .8-.4 1.8-1 1.3-1.8-.3-.4-1.2-1.7-1.6-1.5M108.8 357.6q-2 1.2-1.2 2.1c.7.6 1.2 1.7 1.8 1.3.9-.5 1.4-1.5 1.2-2.2s-1-1.7-1.8-1.3M115 366.4q.2 1.7 2.2 2.5c.2-2.7.7-5.7 0-8.6-.5-1-2.3-2-3.1-2.6-.6-.2-2 1.7-1.5 2.2 1.4 1.6 3 2.7 4 4.6-.5.7-1.7 1.1-1.6 2M47.4 358.2c-1.1.4-1.7 1.3-1.3 1.9s1.1 1.3 1.8 1c.5-.1 1.3-.9 1.1-1.5s-1-1.6-1.6-1.4ZM81.4 363.2q1-.8 1-1.6c-.1-.2-3.6-3.8-4.1-3.6 0 0-2 1.5-1.7 2.1q.4 1 1.3 1.3c.5.2.8-.7 1.8-.7-.5 1.2-1 1.8-.5 2.4q.8 1.4 2.2.2ZM84.9 360c.7-1 0-1.6-.6-2s-1.1.4-1.6.7c-1 .7-.5 1.2.1 1.9s1.3.3 2-.7M52.3 361.5c.5.5 1.4-.7 1.6-1.3.1-.8-.8-1.5-1.5-1.7-.5-.1-1.3.6-1.5 1.3-.2.6.8 1 1.4 1.7ZM57.2 361.6c.8.3 1.5-.8 1.6-1.3q-.2-.9-1.3-1.6c-.8-.5-1.7.6-1.7 1.2s.5 1.4 1.5 1.7ZM63.7 360.5c0-.9-1.2-2-1.7-1.8-1 .2-1.6 1.3-1.2 2 .3.5 1.1 1.3 1.7 1.4s1.3-1 1.2-1.6M90.9 359.9c-1.2.4-1.5 1.5-1 2.2.4.4.9 1.2 1.6.8.5-.3 1.3-1 1-1.7-.1-.5-1-1.6-1.6-1.3M95.8 359.8q-1.7 1.2-.7 2.3c.3.3 1 1 1.7.5.4-.3 1.2-1 .7-1.7-.3-.4-1-1.4-1.7-1M86.8 362.8c.7-.7 1.3-1.3.6-2q-1-1.2-2.2-.1t-.5 1.9q1 1.3 2 .2M102.8 362c.3-.7-.8-1.6-1.4-1.8s-1.9.5-1.7 1.3 1 1.3 1.6 1.5c.4.2 1.2-.2 1.5-1ZM106.1 360.2c-1.2.6-2 1.7-1 2.4.6.3 1.2 1.2 1.8.9q1.3-.9 1-2c-.2-.7-1-1.6-1.8-1.3"/><path fill="#fff" d="M113.8 365.8c.6.3 1.5-.7 1.6-1.2 0-.5-.6-1-.9-1.3q-.7-.4-2 0 .7-1.5-.3-2.6c-.6-.7-1-.3-1.7.4-1.5 1.7 3.4 4.8 3.3 4.7ZM44.8 360.8c-1 .3-1.7 1.3-1.3 2.1.3.5 1.3 1.4 2 .8.4-.4 1.3-1.1 1-1.9-.3-.5-1-1.3-1.8-1M49.6 360.8c-1.4.7-1.1 1.7-.5 2.3.4.5 1 1.3 1.6.7.6-.5 1.4-1.4.8-2-.4-.4-1.1-1.4-1.9-1M56.5 362.6c0-.7-1-1.4-1.7-1.6-.8-.3-1.5 1-1.3 1.5.3.7.7 1.5 1.3 1.5s1.7-.6 1.6-1.4M59.8 364.3c.7.3 1.7-.9 1.6-1.5-.2-.6-1-1.6-1.6-1.7s-1.2.8-2 1.5c.7.4 1 1.3 2 1.7M75.3 361c-1.1.6-1.8 1.6-1.3 2.2.4.5 1.1 1.5 1.7 1s1.7-1.2 1.4-1.9c-.2-.5-1.2-1.6-1.8-1.2M64.6 361.4q-2 1.1-.7 2.3c.4.4.9 1.2 1.7.6.5-.4 1.4-1 .7-1.8-.3-.4-1-1.5-1.7-1.1ZM69.8 361.5c-1 .6-1.8 1.4-.9 2.3.6.5 1.2 1.3 1.7.8q1.3-1 1.2-2c-.2-.8-1.1-1.6-2-1.2M89.1 365.5c.7-.8 1.3-1.4.9-2-.3-.4-.6-1-1.3-1q-.7 0-1.3.9-.8 1 0 2c.4.3.9 1 1.7.1M93.3 362.5q-1.8 1-.8 2.2c.5.5 1.2 1 1.9.4.5-.4 1.2-1 .9-1.6-.5-.7-1.2-1.4-2-1ZM100.3 364.2c.1-.7-.7-1.5-1.5-1.8-.5-.2-1.5.8-1.6 1.3 0 .7 1 1.3 1.4 1.7.6.5 1.6-.2 1.8-1.2ZM103.6 365.5c.8.7 1.5 0 1.8-.5.6-.7 0-1.3-.5-1.7-1-.9-1.4-.6-2.2.1q-.9.8.9 2M42 366.7c.8 0 1.8-.9 1.9-1.8q0-1-1.8-1.8a8 8 0 0 0 0 3.6M47.3 363.2c-1.2.4-2 1.5-1.2 2.2.3.4 1 1.3 1.7 1s1.8-1 1.3-1.8c-.3-.5-1-1.7-1.8-1.4ZM54 364.9c-.1-.8-1-1.8-1.4-1.9q-1.3.7-1.3 1.8.2 1 1.4 1.4c.4.2 1.4-.6 1.3-1.3M84.7 363.6q-1.2-1.2-2.4-.3c-.6.5-1.4 1.2-1.1 1.8q.4.8 1.2 1.4c.8.6 3.3-1.9 2.2-2.9M111.6 368.5q2.1-1 .9-2.4l-3-3c-.6-.6-1.3.2-1.6.5-1.7 1.7 2 2.5 3.7 5M60.3 369.4c.4.4 1.5-1 1.5-1.7s-.8-1-1.7-1.6c-.5-.3-.7.8-2 .7q1.1-1.6.4-2.6-.6-1-1.7-.6c-.4.3-1.6 1-.8 1.6 1.7 1.3 2.8 2.7 4.3 4.2M62.4 363.9c-.9.2-1.8 1.2-1.5 1.8.3.5 1.2 1.2 1.7 1.2s1.4-1 1.4-1.5-.9-1.8-1.6-1.5M72.8 363.7c-.6-.1-1.4 1.3-1.5 2 0 .7.7 1.2 1.2 1l1.5-.3q-.7 1.5.4 2.5c.7.6 1.4-.1 2-.7 1.3-1.6-4-4.6-3.6-4.5M78.6 365.8q1.5-1 .2-2c-1.3-1-1.2-.4-1.9.3q-1.1 1.1.2 2 .6.6 1.5-.3ZM67 364.1q-1.7 1-.9 2c.7.6 1.3 1.3 1.9 1q1.5-1.1.8-2.1c-.4-.6-1-1.3-1.8-.9M89.2 366.8c-.2 1 1.1 1.7 1.9 1.8s1.3-1.2 1.6-1.8-.8-1.8-1.6-2c-.7 0-1.7 1.3-1.9 2ZM96 365q-1.9 1-.9 2.1c.5.4 1.1 1.3 1.8 1q1.2-.8.9-2c-.3-.5-1-1.6-1.8-1.2M48.5 367c-.3.8.7 1.9 1.3 2 .8.2 1.5-.8 1.8-1.5.2-.6-.3-1.7-1.2-1.9-.6-.1-1.5.8-1.9 1.5M86.4 368.4q1.6-1.4.5-2.5c-.6-.6-1.3-1-2.1 0-.7.8-1.3 1.4-.5 2 .6.7 1.2 1.3 2.1.5M103.3 366.8c.1-.7-1.6-1.9-2.2-1.6-1.7.8-1 1.7-.3 2.5.9.8 2.1 1 2.5-.9ZM108 367c-.2-.9-1-1.5-1.4-1.5-.6 0-1.3.6-1.3 1-.2.7.4 1 .9 1.5q.8.8 1.2.2c.2-.2.7-.4.6-1.1M57.5 371.5c.5.7 2-.6 2-1.2q-.2-1-1.1-1.6c-.7-.5-1.2.3-2.4.5.5-1.4.9-2 .2-2.7-.4-.4-1-1.1-1.8-.7-2.7 1.5 1 2.1 3.1 5.7M79.8 365.9q-1.8 1.3-.8 2.3c.5.5 1 1.2 1.8.6.5-.3 1.2-1.3.7-2-.3-.3-1-1.5-1.7-1M66.8 371.2c.4 1 1.4.4 1.8-.1q.8-.9-.3-1.7-.7-.5-2 .4c-.3-1 .3-1.2.3-1.6q0-.6-.7-1-1.2-1.4-2-.2c-1.4 1.6 1.7 1.6 3 4.2ZM69.8 366.7c-.8.3-1.5 1-1.1 1.7s1.2 1.4 1.8.9c.4-.4 1.2-1.1.8-1.8-.2-.4-1-1.1-1.5-.9ZM88.6 371.5c1-.9 1.7-1.8 1.3-2.4-.2-.4-1-1.3-1.6-1.3s-1.4.8-1.8 1.5c-.5 1 1.3 2.8 2 2.2M94.5 370.5c.5-.5 1.3-1 1-1.7q-.3-.8-1.3-1.2c-.7-.4-1.1.5-1.7 1-1 .8-.5 1.4.2 2.1q.7 1 1.8-.2M101 369.4c.1-.8-1.4-2-2.2-1.8s-1.6 1.4-1.2 2c.3.4 1 1.6 1.6 1.5s1.7-1 1.8-1.7M109.2 367.9c-.9.3-1.5 1.2-1.3 1.7s.9 1.3 1.4 1c.6-.2 1.5-1 1.3-1.6-.2-.5-.8-1.3-1.4-1.1ZM117.1 374c2-2.4-2.5-6.5-3.1-6.3q-.9.5-1.3 1.3c-.4.8 3 3.5 4.4 5M46.9 368.3q-2 1-.9 2.2c.4.5 1 1.6 1.8 1 .6-.4 1.2-1.3 1-2s-1-1.6-2-1.3M52.4 368.3c-1.3.5-2 1.5-1.3 2.2.6.5 1.2 1.4 2 1.2.8-.3 1.5-1.5 1.2-2.2-.2-.5-1.2-1.6-1.9-1.3M83.5 371c.9-.9 1.4-1.5.5-2.1-.6-.5-1.2-1-2-.2s-1.3 1.3-.6 2 1.2 1.3 2 .3ZM103.9 368q-1.7 1.2-.7 2.2c1 1 1.2 1.2 1.8.5.5-.5 1.2-1.1.8-1.6-.5-.7-1.2-1.4-2-1M62.4 368.7q-1.7 1-.8 2.3c.4.5 1 1 1.8.6.6-.2 1.4-1.1.8-1.8-.4-.4-1-1.5-1.8-1.1M73.7 370.6c.6-.8 0-1.2-.5-1.6s-.8-.6-1.4 0-1.2 1.2-.8 1.8c.3.4.7 1 1.1 1q.9 0 1.6-1.2M77 368.6q-1.6 1-1 2c.5.8 1.3 1.5 2 1q1.3-.8.9-2.1c-.3-.5-1-1.3-1.8-.9M91.4 373.5c.6-.1 1.3-1 1.2-1.4s-.6-1.5-1.3-1.6c-1.3-.1-2.6 2-1.6 3.6-1.3-.3-1.8-.9-2.6-.2-.7.6-1.3 1.4-.3 2.2 2.7 2.4 1.6-1.8 4.6-2.6M95.9 370.3c-1.4.8-1.4 2.1-.7 2.7.5.3 1 1 1.9.4.5-.4 1.4-1.2.9-1.9s-1.2-1.7-2.1-1.2M105.7 374c-.2-.9-1.1-1.1-1.7-.9s-.6 1.4-1.8.8c.7-1 1.8-1.6 1-2.6-.4-.4-1.1-1-1.8-.7s-1.7 1.3-.8 1.9c1.3.9 2 2 3 3.1.6.6 2.2-.8 2-1.5M106.6 370.5c-.8.3-1.5 1.2-1.1 1.8q.6 1 1.4.8c.5-.3 1.2-.9 1-1.5 0-.5-.8-1.3-1.3-1M111.1 370.4q-1.5 1-.4 2.3c.5.4 1 .8 1.6.3s1.2-1 .5-1.8c-.3-.4-1-1.3-1.7-.8M49.7 371c-1.2.7-1.9 1.6-1.2 2.2s1.3 1.5 1.8 1.2c.9-.5 1.6-1.6 1.3-2.2s-1.1-1.8-1.9-1.3M58.4 376.6c.5-.4 1.5-1.2 1.4-1.8s-1.2-1.2-1.7-1.3c-.7 0-.9 1.5-2.2 1 1-1.2 1.7-1.8.7-2.8-.8-.8-1.2-1.5-2.2-.3-.5.7-1.2 1.4 0 2.3 1.6 1.3 3.6 3.1 4 2.8M62 372.7c-.2-.7-1.3-1.5-1.8-1.5s-1.3 1-1.2 1.4c.2.5 1 1.2 1.4 1.4.5.1 1.7-.4 1.6-1.3M74.7 371.2c-1.1.4-1.8 1.4-1.2 2 .4.4 1 1.4 1.6 1.1s1.6-1.3 1.3-1.9c-.2-.4-1.1-1.4-1.7-1.2M80.4 374.1q1.5-1.2 1-2c-.5-.6-1.2-1.4-1.8-.8s-1.4 1.4-.9 2.1c.3.4 1 1.3 1.7.7M84.8 371q-2 1.2-.6 2.5c.4.4 1 1.4 1.7.5.5-.6 1.6-1.2 1-2-.5-.6-1.3-1.7-2.1-1.1ZM64.8 371.5q-1.4.8-.8 1.7 1 1.2 1.6.9 1.6-1 1-1.8c-.6-.5-1.1-1.2-1.8-.8ZM69.6 371.4c-1.2.5-1.2 1.4-.8 1.9s1 1.2 1.4 1q1.3-.8 1-1.7c-.3-.9-.8-1.6-1.6-1.2M108.8 372.8q-1.7 1.2-.7 2c1 .8 1 1 1.8.7.6-.4 1.2-1.4.6-2-.3-.3-1-1.1-1.7-.7M117.3 379c0-.8.7-3.2-.2-3.7-1.2-.5-1.5-1-2.1-2.1-.5-1-1.6-.3-2 .1q-.6 1.1.3 1.8c.8.8 1.3.5 2.5 0-.1 1-.7 1.5-.2 2.2q.3.4 1.7 1.7ZM95.3 374.9c.4-.9-1.2-2-2-1.8s-2.2 1.3-1.7 2.1 1.4 1.6 2 1.4q1-.2 1.7-1.7ZM99.6 376.2c.7-.4 1.8-1.2 1.5-1.8q-.6-1-1.4-1.4c-.6-.3-1.4.3-2 .8q-.8 1.2-.2 1.6.8 1.2 2 .8ZM53 377.2c2.5 2 4.4 5.1 5.5 4.4q1-.5 1-1.7-.2-1-1.4-1.4c-.7-.1-.8 1.3-2.1 1 .4-1 1.4-1.7 1-2.5-.3-.5-1.1-1.7-1.9-1.1l-1.7 1.3c0-1.4 1.5-1.8.8-2.6-.5-.4-1-1.3-1.6-1q-1 .3-1.4 1.4c-.2.8 1 1 1.2 2.2-1 .3-1.3-1.2-2.3-1.1-.6 0-1.3.9-1.6 1.5.2.8 1.3 1.4 1.8 2 1-1 1.4-1.7 2.7-2.4ZM62.6 373.7q-1.2.9-.8 1.8.8 1.4 1.5.8c.6-.7 1.5-1.2 1-1.9-.4-.4-1-1-1.7-.7ZM67.4 373.8c-1 .4-1.3 1.3-.8 1.8.3.3.8 1.3 1.5 1 .5-.2 1-1.2.8-1.6s-.9-1.4-1.5-1.2ZM72 373.9q-1.5 1-.8 1.7c.6.8 1.3 1.5 1.8 1.2q1.6-1 .7-2.1c-.3-.4-.9-1.2-1.6-.8M77 373.8q-1.8 1.3-.8 2.2c.5.4 1.1 1 1.8.7s1.2-1.3.6-2c-.3-.4-.9-1.4-1.6-.9ZM82 373.6c-1 .4-1.7 1.5-.9 2.4.5.5 1.2 1.8 2 .8.5-.6 1.5-1.4 1-2.1s-1.2-1.5-2-1.1M106.6 375.2c-1 .3-1.6 1.3-1.3 2.1.3.6 1.2 1.2 1.8.7.4-.3 1.2-1 1-1.7 0-.5-.9-1.2-1.5-1M111.4 375.4c-1.3.6-1.2 1.7-.5 2.1.4.3 1 1 1.5.6s1.3-1.3.9-1.8-1.1-1.3-1.9-1M60.2 376c-1.4.4-1.4 1.6-.9 2.3.4.3 1.1 1 1.7.4.5-.3 1.3-1 1-1.8-.3-.4-1.1-1.2-1.8-1ZM65.3 376c-1 .5-1.8 1.4-1.1 1.9.4.2.9 1 1.5.8s1.1-1 1-1.5-.9-1.4-1.5-1.2M81.4 378c0-.6-1.2-2-1.9-1.8s-1.4 1.3-1 1.7c.3.6.9 1.5 1.5 1.6.5 0 1.4-.6 1.4-1.4M91 379.4q1.5-1.2 1.3-2.2-.2-.5-1.4-1.2c-.9-.5-1.7 1-1.7 1.7 0 .8 1.1 2.3 1.9 1.7M97.8 377.8c.6-1-1.3-2.6-2.1-1.8-.8.6-1.7 1.3-1.3 2 .3.5 1 1.4 1.6 1.4q.9-.1 1.8-1.6ZM102.5 378q1.1-1.2 0-2-.8-.7-1.7.3-1.1 1.2 0 2 .8.5 1.7-.4ZM69.7 376.3q-1.5.9-.6 1.9c.5.5 1 1 1.6.5.5-.4 1-1 .7-1.4-.3-.6-1-1.3-1.7-1M74.7 376.5q-1.8 1-.9 2c.5.4 1.2.8 1.8.3.4-.3 1.2-.8.9-1.4s-1-1.3-1.9-.9M86.8 378c.5-.8-.6-1.3-1.1-1.6-.7-.3-1.8.3-2.1 1.2s.6 1.6 1.4 1.7q.8.1 1.8-1.3ZM108.8 377.7q-1.8 1.1-.9 2.3c.4.5 1.1 1.4 1.8.9.6-.6 1.2-1.3 1-2s-1.1-1.8-2-1.2M63.6 381q.9-.7 1-1.6-.1-.7-1.1-1-.6-.2-1.3.4-1.2 1-.5 1.7c.7.7 1 1 1.9.4M104.4 383.3c-1-2.7-2.9-2.7-4.6-2.3q1.3-1.5.1-2.5t-2.1.4q-.8.7-.8 1.4c0 .7.7.8 1 1.5-1-.2-1.7-1.2-2.3-.4-.5.5-1.5 1-1 2zM103.8 378c-1 .4-1.7 1.3-1.2 2.2.4.5 1.2 1.4 2 .7.5-.4 1.3-1.2 1-2-.3-.6-1-1.2-1.8-.9Z"/><path fill="#fff" d="M52.6 378.6c-1 .5-1.7 1.4-1.2 2s1.3 1.6 2 1 1.9-1.3 1-2c-.5-.3-1.1-1.4-1.9-1M68.3 381.2c1.7-1.1.6-2 0-2.4-.7-.7-1.8-.3-1.9.9 0 .6 1.4 1.8 2 1.5M72.6 381.6c.4.1 1.2-.8 1.3-1.3.1-.7-.7-1.1-1-1.5q-.9-.8-1.6.4c-.4.8.3 2 1.3 2.4ZM77 378.7c-.9.4-1.6 1.2-1 2q.6 1 1.7.8c1-.5 1.8-1 1-2-.4-.3-.9-1.2-1.7-.8M82.4 379c-1 .2-1.8 1.2-1.4 1.7q.7 1 1.6 1.1c.7 0 1.6-1 1.3-1.7-.2-.4-.7-1.3-1.5-1.2M87.6 378.7c-.9.2-1.9 1.3-1.6 2 .4.9 1.6 1.4 2.5 1 .6-.3 1.6-1 1-1.7-.3-.6-1-1.6-1.9-1.4M93 378.8q-1.8 1.1-1 2.2t1.6 1c1-.4 2-1.2 1.5-2-.4-.5-1.4-1.6-2-1.2M81.7 383c.1-1-1.3-1.8-2-1.6s-2.4.7-2 1.6c1.1.6 3 .5 4 0M87.5 383.2c-.5-1-2-2.2-2.5-1.6-.6.8-1.4.2-2 1.5q2 .2 4.5 0"/><path d="M99.9 411c.4-3.3-.3-7-3.3-7.2-1.1 0-2.6.7-3.3 1.8-1.7 2.5.2 4.8 1.6 7.5-4-.8-4.6-4.8-3.2-7.9 1-2 2.1-3.5 4.3-3.6q3.2 0 4.6 3.2c1.4 3.2 1.3 4.8-.7 6.3M82 411.4c.3-3 .5-6.3-2.4-7.5a3 3 0 0 0-3.3.7c-2.4 2.4-1.9 5.1.3 8.3-3.6-1-4-4.8-2.7-7.8q1.2-3 3.8-3.4 3.4-.3 5 2.8c1.1 2.3 1.2 5-.7 6.9ZM63.3 405q-1.5-1.8-3.8-.8c-3 1.2-2.9 5-1.6 8.7a6 6 0 0 1-1.6-7.7c1-2.2 3.7-4.6 6.6-3.1 3.3 1.7 4.6 7.7.7 10 1-2.5 1.7-4.6-.3-7.2M46.3 312q-.5 1.4-1 1.8c-.8.3-1.1-.8-1.7-1.7q1.4.2 2.7-.2M97.5 46l24.2.2c0 1.1-1 1.6-2 1.6l-6.2.2c-.3 1.3.9 2.1.5 3.5-.8-.8-.4-1.7-.8-3.4l-13.2-.2c-1 1.3 1 2.7 1.9 3.5 1.7 1.6 1.8 4.4 2.5 6.5.2.7-.8 1.7-1.1 1.2-1.2-1.8-1.5-3.7-2.3-5.5-.8 1.1-.7 2.3-2 2.4-1.4-3-1.7-5.8-2.7-8.6-.8-2.4-1.6-4.4-1.6-7 0-1.4-1.2-2.6-.3-4 1.2 1 1 2.5 2 3.8h33.9c.7 0 1.2.6 1.8.5s1-1.7 2.3-.5q-5.1 3.8-10.8 7.4l-14 9.6c1.2-2.4 3.7-3.2 5.7-4.6l10.4-7.6-22.7-.4c-1.5 0-3 .3-4-1l29.3-.4c.9 0 1.7-1.6 2.6-1.6L98 41.3c-.6 0-1.4.1-1.5.4-.6 1.5 1.7 1.6 1 4.4ZM58.7 135.1c-.9-1.3 2.4-15 2.8-16.6q1.3-6 2.4-12l3-15.5c1-1 1.4 0 .6.8l-5.2 26zM121.2 68c-2-4.5-3.1-9.5-4.5-14.6 2.5 4.6 3.4 9.3 4.5 14.7M119.3 52.7c.2-1.2 5.3 15.2 3.4 14.4zM84.9 52q-.7-7.3 0-15 .7 7.2 0 15M55.3 168c-.2-4.7 1.5-8.7 2.4-13 .1 4.7-1.6 8.7-2.4 13M67.6 90q.1-5.2 1.8-10.2.3 5.3-1.9 10.2M48.1 196.4c-.7-3.2.6-5.8 1.2-8.5.5 3.1-.9 5.7-1.2 8.5M76 49.3c-.8-2.4.9-4 1.8-5.6 0 2.6-1.6 3.7-1.9 5.6M88.8 120.6c-.7-3.5.5-6.5 1.2-9.6.6 3.5-1 6.4-1.2 9.6M81.5 178.4c-.3-2.9.5-5.4 1.2-8.3.4 2.8-.4 5.4-1.2 8.3M80.5 185.8c-.9-2.4 0-4.4.5-6.8.7 2.3-.4 4.5-.5 6.8M24 395.3c-.4 3.2-.1 6.6 0 9.9 0 1.5.9 3-.2 4.5-.2 1.5.7 3-.4 4.5v-33.9c2.3 1.4.5 3.6.3 5.4 1 3.3.8 6.3.3 9.6M24.2 422.6c-.2-2.5-1.4-4.7-.6-7.4.4 2.4 1.4 4.7.5 7.4M474 126.3l-12-63.7zM437.7 70.6c0 1.2.4 2 0 2.7-.1.5-1.2-.1-2 .9 1-1.8.8-11.7.1-14q1.3.7 1.8 1.4zM483.9 177.6c-1.1-5.3-2.8-10.9-3-17 1.3 5.3 2.8 10.3 3 17M440.2 55.3c0-3 1.5-5.2 2.5-7.8.1 3-1.3 5.2-2.5 7.8M458.8 49.8l-2-5.5c1.7 1 2.4 3.4 2 5.5M446.9 95c.5-7.2 2.6-13.6 4.2-20-.5 7.3-2.7 13.5-4.2 20M450.3 88.9c-.3-3 1-5.4 1.8-8 .3 3-1 5.4-1.8 8M445.3 85c-.4-2.5.6-4.3 1.2-6.3.5 2.4-.6 4.2-1.2 6.3M447.6 99.4c-.8-2.4.5-4.3 1.2-6 .3 2.6-1 4-1.2 6M88.9 99.7c0 1.6-4-12.2-2.2-12zM457.1 177.6c-1-5.7-3-11.6-3-18.1 1 5.7 2.9 11 3 18.1M453.2 173.2c-.4-2.7-1.9-5.3-1.2-9.1.2 2.8 1.6 5 1.2 9.1M10.9 392.3l-.5-46.4-.2-7q-.5-13 0-25.6c.2 3.3.7 6.4.7 9.7zM7 417.4c-.8-2.4-2-4.8-1.2-7.8.2 2.5 1.4 4.6 1.1 7.8M11.3 418c-.3-2-1-3.5-.6-5.6a6 6 0 0 1 .6 5.7M105.8 8.8c.9.9-.1 1.9.3 3.2q3.9.3 6-3.5 1.2 1.4 1 3c-.1 1.8-4.7 4.3-7.3 1.8-1-.9-1.9-2.6 0-4.5M152.1 8.9c2.1.5 1.2 2.3 1 3.3-.3 2-5.3 3-6.7 1.2-.9-1.2-1.2-2.9.1-4 .9.7 0 1.4.4 2.2 2.1.5 3.8-1.3 4.2-3.6q.7.7 1 2.3-2.7 1.1-3.8 3c1.9-.4 3 0 3.7-.7 1-1 .4-2.3.1-3.7M142 5.5q-10 .7-20.6 0 10-.7 20.6 0M417.1 16.7c-7 .2-14.2.6-21.7 0L385 16c6.1-.2 12.4-.6 18.7.1 4.4.5 8.5-.2 13.5.6M428.3 14.2c-3.2.3-5.3-2.5-5.2-3.6q0-1.2 1-1.8c1.2 2.3 5 4.1 6.7 1.1.9.6.4 1.8.2 2.5q-.8 1.6-2.7 1.8ZM390.8 10.2q.3 2.2-1.2 3.4c-1.7 1.4-5 .7-6.3-1-.7-1-1-2.5 0-3.6.3-.4 1.2-.4 1.8-1 .7 1.7 2.3 4.3 4.4 3.2q.2-.2 0-.6c0-.1-.6-.1-1-.4s.5-.7.8-1c.5-.5 1.3.3 1.5 1"/><path d="M388.6 12.6c-2.9-1-3.5-1.8-5.2-3q-.1 2.8 2.2 3.4c.8 0 2.3.4 3-.4M432.3 5.5c-7.7 1-14 1.1-21.8.6 6.8-.8 15-1.3 21.8-.6M424.5 15q-8.7.6-18 0 8.9-.8 18 0M430.6 3.8q-8.2.7-16.8 0 8.2-.7 16.8 0M432.9 16.6q-7.4.7-15.2 0 7.4-.6 15.2 0M399.4 398.2c-1.2 3-.2 5.2-.3 7.7l-.6 17.8-.2-31.9c1.7-1.4.3 8.5 1.1 6.3ZM399.1 378q-.7-3.6 0-8 .7 3.8 0 8M321.1 424.8q-.7-3.5 0-7.4.8 3.5 0 7.4M102.3 83.5c-.7-2.6-1.2-4.8-1.4-7.5 1 1.3.4 3 2 4 .4-1.4-.3-2.4-.2-3.4 2.3-1.5.7-3.8 1-6.2.2 1.3 1.5 2.3 2.6 3-.6 2.2-2.9 4.4-3 6.9-.1 1.2.2 2.4-1 3.2M155.1 45.3q-1.5-3.4-.5-7.3c0 2.5 1 4.4.5 7.3M389.6 46.5c-.6-3.3.6-6 .5-9 1 3.2 0 6-.5 9M422.4 67.7c.6-6 2.6-11.2 4.7-16.9-1 5.8-3 11.2-4.7 16.9M84.6 228c3.5 2-23.7 1.3-23.3.6zM60.9 254c1-.6 2.2-.3 2.7.8.3.6.3 1.8-.7 2.4q-1 .5-2.7-.5c-.6-.5-.4-2.1.7-2.7M84.2 247.2q1.6-.5 2.5.8a2 2 0 0 1-.8 2.7c-.8.5-2.1.4-2.5-1-.3-.6-.5-2 .8-2.5M65.9 247.4c1-.4 2 .1 2.3.7.7 1.1.2 2.3-.7 2.6q-2 .8-2.8-.7c-.4-1 0-2.2 1.2-2.6M60.8 241.1c.8-.5 2.2-.3 2.7.4s.5 1.9-.3 2.7c-.6.6-1.9.4-2.5-.2-.7-.8-.9-2.2.1-2.9M70.2 254q1.8-1 2.7.6c.4.8 0 2-1 2.7-.5.4-1.5.2-2.2-.5s-1-2 .4-2.8M75.3 247.3q1.6-.3 2.2 1.1.5 1.7-.8 2.3c-1 .5-2.5.2-2.7-.8-.2-1.1 0-2.4 1.3-2.6ZM84.3 234.5c1-.3 2 0 2.2.8.4.9.2 2-.8 2.4-.8.3-2 .4-2.5-.7-.3-.8 0-2.1 1-2.5M76 263.8c-1.7.2-2-1.3-1.7-2.4.2-.8 1.1-1.6 2.3-1.2.7.2.8 1.1.8 1.5.1.7-.2 2-1.5 2.1M74.7 234.7c1.1-.8 2.2-.3 2.4.5.2 1 .4 2-.5 2.4s-2 .4-2.3-.1c-.5-.9-.4-2.2.4-2.8ZM70.3 241c1-.6 2.2 0 2.7.9q.5 1-.8 2.3-1 .8-2.4-.5c-1.4-1.3-.8-2 .5-2.7M79.3 254c.8-.7 1.9-.6 2.5.4.4.6.6 1.7-.3 2.5q-1.3.9-2.5-.1c-.8-.8-.7-2.1.3-2.9M91.6 255.2c.3 1.4-1 1.9-1.7 2q-1.6.2-2-1.6c-.2-.8.3-1.7 1.4-1.8.7 0 2 .1 2.3 1.4ZM84.8 260.1c1.1-.3 1.9.6 2 1.3q.2 1.7-1 2.2-1.7.5-2.3-.8c-.3-1 .1-2.4 1.3-2.7M79.6 241.1c1.1-.6 2 0 2.4.9.3.7.1 1.8-.8 2.3q-1.2.4-2-.5c-.8-.8-1-2 .4-2.7M96 251.5q-.6-9.2 0-19 .8 9.2 0 19M66.5 260.1c1.1-.3 1.9.6 1.9 1.2q-.1 1.8-1.1 2.3c-1 .4-2 0-2.2-.8-.4-1.2.1-2.4 1.4-2.7M65.8 237.7c-1.2-.4-1-2.6 0-3.2s1.8-.1 2 .6c.2.5.7 1.2.4 1.9s-1.5 1.1-2.4.7M88.7 241.1q1.4-.6 2.3.4c.7.7.5 1.8-.2 2.5-.8.6-1.9.6-2.5-.3-.4-.7-.7-2 .4-2.6M93 267.4q-3.3 1.3-6.7.6c-.8-1.4 5.3-1 6.7-.6M97.7 239.2q-.7-4.5 0-9.5.8 4.4 0 9.5M74.6 267.9a29 29 0 0 1-9 0 29 29 0 0 1 9 0M83.5 268.2c-2.5-.2-4.7.3-7.3-.2 1.5-1 3.2 0 5-.5 1-.3 2-.8 2.3.7M90.8 269.6q-3.4.6-7.4 0 3.5-.7 7.4 0M181.8 131.7c-.6-2.2-.2-4.4.3-6.7.4-2-.5-3.7.3-5.6q.6 3 .1 6.7zM186.2 133.4a20 20 0 0 1 0-6.8c.6 2.1 1.1 4.4 0 6.8M198.8 140.8c-3.7.7-7 .4-10.6.1 1.2-1 8.8.4 10.3-.9.6-.5 1.3.6.3.8ZM348.1 141l-4.4.8c-1.5-.7-2.9-.5-4.5-.9 1.4-.9 2.9 0 4.5 0 1.3 0 2.4-.9 4.4 0M190.6 106.2c-.6 1.5 1.4 1.4 2.7 1.7-1.1 1-3.5.3-3.7-1-.1-1.2 1-1.5 1.7-1.5.8.1 1.6 0 2 1.2zM238.3 121.2c3.7 2.2 4.4 17.7 1 21.1 2-7.1 1.9-13.8-1-21M257 128.3l-.7-4c-.2-1.1-1-2.2-.4-3.2.8 2.6 2 4.6 1.2 7.2ZM244.4 123.1c-1-1.6-2.2-3.1-2.7-5.5a8 8 0 0 1 2.7 5.5M303.6 144.5c-3-2.6-2.5-6.7-3-10.4-1-5.1.4-11 4.1-14.8-1.9 4.6-4 8.2-3.6 13 .3 4 .9 7.7 2.5 12.1"/><path d="M303 130.9c-.4 6 1.7 10.9 3.7 15.9-5.1-6.5-5.1-15.2-2.9-22.5.7 2.3-.6 4.2-.8 6.6M293 143.7c-3.3.2-3.5-17.4-1.9-18.2 0 3.4-1 6.6-.1 9.9zM298 146.6c-4.4-3.5-4.2-13.4-3.7-18.9.9 2.9 0 5.9.4 9 0 3.6 2 6.2 3.2 10M295.5 123c-.7-2.5 1.2-3.7 2.4-5.3-.2 2.3-1 3.8-2.4 5.4M303 146.6c-1.6-1.3-3-3.6-2.6-6zM296.7 130q-1.2-3.4.6-6.8c0 2.5-.5 4.4-.6 6.9M297.7 135.6q-.7-3.4 0-7.3.8 3.4 0 7.3M235.3 131.2l-1.9-6.7q.1-1.3.9-2.3c.5 3.2 2 5.8 1 9M230 143.3c.6-3 2-4.8 2-7.2.8 2.8-.4 5.3-2 7.2M237 129.5c0-2.4-1-4-1.3-6.7a7 7 0 0 1 1.2 6.7M291.2 147.2a25 25 0 0 1-4-19 42 42 0 0 0 4 19M282.5 131c-.7 4.9 1.5 8.9 2 13.6a27 27 0 0 1-1.9-18c1 1.2 0 2.7-.1 4.3"/><path d="M286 144c-.2-1.7-1.7-3.6-1.2-5 .6-1.6-.4-2.4-.4-3.5 0-1.7 0-15.2 3.2-15.6-2.3 5-3 9.7-2 15 .4 1.7.2 3.6 1 5.5.6 1.2.5 2.9-.7 3.6M136.2 71.3c-4.4 2.3-2.8 3.7-4 3.6-1.7-.2.2-2-4.3-2 1.5-.5 2-2.3 2.8-3.2 1.7.4 3.3 1.6 5.5 1.6ZM407.6 73.6c-1 0-1.6-.7-2.2-.7-.5 0-1 1.1-1.8 1.4-1.5-1.1-.3-4.1 1.4-4.8q1.3-.4 1.9.2c-.9-1 2.5 3.8.7 4Z"/><path fill="#fff" d="M220.6 198.7c-2.4.9-5 .3-7.4-.6 2.7-.3 4.8.6 7.4.6"/></g></svg>