<svg xmlns="http://www.w3.org/2000/svg" id="Layer_2" fill="currentColor" viewBox="0 0 565.5 555.4"><g id="OpenNoTape"><path d="M155 555.3H20.5c-5 0-9.8-.8-13.7-3.5a16 16 0 0 1-6.6-13.5L0 426.5c0-6.8.7-12.1 2-18.6l20.7-104.7 20-101.4L57.5 128c2.2-10.9 3-24.3 17-24.4l6.3-.3-22.9-57.2-9.6-24.6c-2.4-6-3.4-12.6 1-18.1C51.2.9 54.3 0 58 0l138.5.2L508.8 0c4.2 0 7.7 1 9.7 4.6 2.6 4.6 2.6 10.3.7 15l-4.7 12.1-28.5 71.9c4 .2 7.3-.4 11 .7 4.1 1.2 8.8 5.3 9.8 10l29.5 151.4 26.3 134c1.2 5.9 2.9 11.3 2.9 17.3v120c0 6.5-3.5 13-8.5 16.2a19 19 0 0 1-10 2.2H238.5z"/><path fill="#fff" d="M206.3 6.3h304.5c2.1 0 2.8.5 5.1 1.4q-1.3-2.8-3.3-5.5l-34.4.2-343-.2H56.4c-1.3 0-3.4.7-3.8 1.5q-.7 1.7-.6 3.8L54 3.9l-1 2.9 9.8-.3zM517.5 9c.6-2.7-1.2-5-3-5.2zM406.3 115h9.3c.4 0 1-1.2.8-1.5-.2-.1-1-.7-1.3-.7h-8.8l-3.1 7.6 1.6-7.6c2.8-.9 9.8-1.3 11.6.1 2.8 2.3.7 7.3-.4 10.4h50.5l.5-1c.5-1.2-6.2-.3-10.8-1.6-1.2-.3-2.4-3.3-2-4.6l10-28.7a4 4 0 0 1 4-2.8l11 .3v2c0 1 4.7.8 3.5 5.4-2.7 10-3.1 3.5-1.7 18.2l36.9-94c.6-1.4.2-3.6-.6-4.5-2.5-3.1-5.6-3.7-9.6-3.7h-340L58.7 8q-3.2 0-5.9.9c-3.4 1-5.6 4.5-4.2 8.1L87.2 114c.3-5.2.7-9.5.2-14.3-.3-2.5-2-5.3-2.8-7.7-.7-2.3.3-3.3 1.7-4.7l2.7-2.7h14.8l10.8 30.5c.6 1.7-.1 5.6-2.1 6-3.5.4-7.5.2-10.7.1-.6 0-.8 2.1.1 2.1h53.6c-1-2.5-2.9-10.2.7-10.7 2.2-.3 6.1-.5 8.4-.5 2.6.1 4.3 8.1 4.3 10.1-3-3.2-1.2-9.5-5.1-9.3l-7 .2c-.5 0-1.5.6-1.6 1s1.1 1.3 1.7 1.2l8.5-.4 2 9.3c.8-.7 1.3-.8 2.6-.8h50.2l183.7-.2z"/><path fill="#fff" d="M102.6 86.2c-4.7-1.1-8.8-.6-13.2-.6l-1.4.8c-.1.1.6 1.3.3.5 5-.3 9.3.2 14.3-.7M478.5 86.3l-11-.4c-.2 0-1 0-1 .3l.1.8 1.4.1zM109.8 106.8q-2.6-10.4-6.7-20.3 2.3 10.4 6.7 20.3M106.6 102l-4.9-13.9-11.8.1 11.3 31.6 11.5-.1zM466.7 120.2l9.1-24.2c1-2.7 1.7-5 2.4-7.8l-11 .1-10.8 31.4zM109 192.9c-1.5-3.4-2.9-6.7-2.7-11l2.3 6.2-1.2-6.6 1.3 2-.5-6 1.5 4.8q.3-2-.2-4.2l-1.5-5.4c2.4.7.3 4.2 3 6.3l-.5-5 1.4 1.9c-1.4-5.8-3-10.7-5-16.2-1 1.4-1.2 2-2.2 2.7-2-7.8-5.9-14.5-5.6-22l.6-17.2a13 13 0 0 0-1.2-5.6l-6.6-17-1.3 38.2c-.2 6.6-.1 12.8-.9 19.2-1.1-15.6.3-30.5.6-45.9q0-5.2.5-10a7 7 0 0 0-.4-4.1L87 88.6q-1.3.6-1.6 1c-.3.4 0 1.6.1 2l3.8 7.5-.7 24.8c-.4 11.7-1 22.8-1 34.5 0 1.3 3.4 2.5 4.2 1.7-.3-4-.5-9 0-12.7.4 4.4.3 8.3 1.7 12.4l9.5 27.7 2-12q.3-2.2-.3-4.6c.4-.1 1.7-.8 1.7-1.4l.3-3.3 1.5 6.7-1.4-2 .4 4h-.7c-.3 0-.5 1.1-.5 1.4l-.2 5.6c-2 .5 1 7.5 2.3 11 .3 1 2.5 1.4 3.5.9 2-1-.2-9-.8-11.1l-.7 3.6c-.2 1 0 3 .2 4.2q-.7.3-.9.8zM440.7 186.4l4.7.1c-2 .5-3.1.5-5.3 1.2l9.5.8-8.3.4c-.7.4.2 1 1.6 1.3l-1.7.7.7 4.1 8.2.5-8.1.5 2 12.3c.3 1.4 2.1 3.2 3.5 3.2l15.5-.1-1.6-8.6q3-5 1.6-11.2l-2.9 6c7-20 1.8-3.2 1-18.8q-1.2 1.7-1.1.2l2.3-7.9-1.3 1.1q-.4 0-.5-.5l1-6c2.5 2.4 1.8 5.5 1.7 8.9-.2 4 .8 8 1.3 11.9l11.4-31.6c.2 1.6.3 3.7 1 4.7.3.5 2 .2 2.5-.2.3-.3 1-1.5 1-2.1l-.3-10.4-1.3-40.7c-.2-5-.3-9.2 2.7-13.6.6-.9.5-3-.8-3.1-1.3 3.4-2.9 6.8-3.8 10.2.2 2 .6 4.8.7 7l1.2 43c0 3.4-.3 6.6-2 9.2q.6-4.2.8-8l-1.6-49.7c-10.8 26.5-7.2 13.8-6.3 35.4 0 2.7-.1 4.5-1 7l-3 9c-2 5.8 0 3.5-3.6 10l-2.3-3-4 15.3c0 .4.4 1.7.6 2l.4-.3.8-1.4c.4 2.8.4 6 1.1 9s1.2 5.4 1 8.8l1.4-3.7c.2 2.5-1.3 4.4-2.2 6.3l1 5.9c-2-1.8 0-5-2-7-2.6 0-5-1-5.3-3.6l-1.5-11.2-10.9-.5c-.4.8-.9 1.3-.5 1.3h1.5q3.4 0 6.6.3l-8.2 1 9.3.8-8.7.3zM461.3 100.8q2.4-4 2.8-8.2a27 27 0 0 0-2.8 8.2M58.6 141.2l6.5-28.6c.8-3.5 5.5-6.2 8.6-6.3l8.5-.4c-4-.5-8.7-.7-12.7.5-5.2 1.5-7.1 6.2-8 11.2L34.2 255.3c3-9.7 4.4-19.7 6.6-30zM532 256.4l-12.4-64.7-8.7-45.4-5.5-28.8c-1-5.2-5.4-12.2-10.7-11.1 5.1 1.6 6.8 4.7 7.8 9.2l7.9 37.5 9.1 44 7.8 37.6c1.8 7.4 2.4 14.9 4.8 21.7"/><path fill="#fff" d="M30.2 328.5c1.4-.5 2.4-2 2.7-3.4l1.3.8c2-1.8 5.4-2.6 8.4-2 .7-5.5 1.5-10.2 2.5-15.6l18.5-92.2 8.6-42.2 4.8-24a12 12 0 0 1 9.3-9.8l.9-22.3-4.9-10.4H74c-1.4 0-7 2.5-7.6 5.5L51 186.4 23.6 320c-1 5.4-1.7 9.8-2.4 15.3q3.2-1.7 5-3.8l5.1-24.2c-.7 7.7-2.6 14.6-4 22.7 3.7 2.6 3.4-14.3 5.2-15.5-.2 5.3-1.7 9.2-2.3 14.1M535 326.8c-1.4-7.6-3.4-14.4-4-22l4.4 20.3c-.9 4.2 6.4 5 9.9 10q-.9-6.4-2.2-13.5l-6.9-33.4-27.7-136-7.7-37.7c-.7-3.7-3.4-6.8-7.2-7h-8.8c-1 3-3.8 6.1-3.8 9.3 0 8 .4 15.5.8 23.3 4.5 1.5 7.2 5 8.1 9.4l7.6 37.7 6.4 31.5 9 44.6 11.3 55.7.6 4.2q4.1.4 7 1.5l.5-2.2c.5 2.2.6 3.8 2.7 4.3ZM159.3 157.3l8-.1c-1.2-2.8-2.2-4.6-2.4-6.9-.6-8.8.5-17 1.1-25.9.2-2.6-1.4-5.4-1.9-8h-8.8l2.9 9.8c2.6-.3 4.6-.6 7.3.2-2.5 1.2-4.5.8-7.4.7a71 71 0 0 0 1.2 30.2M413.2 126.5l3.6-10.2-9.7-.1-1.7 5.9c-.4 1.3-.2 3.4.3 4.5z"/><path fill="#fff" d="m155.5 139.3 1.4-14-55.9-.2q-.5 7-.4 14.2zM404 139.2l-1.3-13.7-233.7-.2-1.2 14zM468 138.8l-.7-13.8h-52.7c.9 5.3 1.3 9 1.5 13.8zM405.1 157.3q3.8 0 7.4-.2c2.1-10.2 2.9-19.6.5-29.6l-6.8.4c.4 9 2.3 20.3-1 29.4"/><path d="M405.6 144.6q.6-6.1 0-12-.7 6.3 0 12"/><path fill="#fff" d="M168 156.7c.3-3.1-1.2-4-1.4-6l-.4-14.5c-.5 5.1-1 17.2 1.8 20.5M155.4 145.4q.4-2.3-.3-4.4h-54.2q.2 2.7.9 5c4.5-.3 8.1-.6 12.3-.6zM403.7 145.3q.7-2.2-.2-4.3H167.9l.1 4.4zM466.4 145.4l1.1-4.3-51.2-.1q-.2 2.4 0 4.3zM64.3 261.3l18.6-99c1.7-9.4 4.4-5.8 2.8-12.7l.4-4.2-2.6 1.5 2.5-2.4c.5-.4.1-2.3-.1-2.8l-5.6 3.7q-2.9 10.5-5 21.4l-9 45.7-19.5 95.9c-1.1 5.3-2 9.8-2.7 15l8.5.3zM510.6 293.8l5.4 29.7q3.6.1 7.4-.4l-35.4-172c-.8-4-2.2-6.8-6-8.8l.2 6.4c.1 2.3.6 4 1.4 6.3 1.9 5.9 3 11.7 4.1 18l16.5 87zM103.9 149.8c14.6-1 29-.8 43.7-.7l7.6.1c.5 0 .9-1.8.5-2l-1.6-.2-52.1-.2c.7 2.5 1 3.3 1.3 5.2h53.1q-.2-1.7-.8-1.8l-1.6.2c-16.7-.2-33.4.4-50.1-.6M403.6 149c.1-1 .4-2 0-2l-1.3.1-232.1-.1q-2 0-2.2.6c-.2.4.4 1.6 1.2 1.6l59.2-.2zM464.6 149.2c.5 0 1.2-2.1 1-2.2l-1.4-.1H417c-.5 0-1.3 1-1.3 1.4q0 .7 1.8.7zM403 152c.2-.4.5-1.6.2-1.6H176.6l-8.2-.3c-.1.4-.3 1.9.1 1.9h1.6l9.5-.4H398q3 .2 5 .3ZM439.8 151.9q11.3-.6 22.8 0l1.6-.1c.2 0 .2-.8.1-1.4H416c-.4 0-1 1.5-.6 1.5 6.3-.4 13-.4 19.2 0z"/><path d="M403.4 157.2q1.6-2.1 1.6-4.8l-2 2.2c-.4.4 0 2 .4 2.6"/><path fill="#fff" d="M451.7 177.7c2.6-3.4 2.8-7.3 4-11l3.8-11.4 3.2 1.5 1-3.1-7.6.3c-1.8 7-4.7 16.4-6.8 22.4-.2.4 1 1.3 1.2 1l.4-1 4.9-16.6c0 6.2-4.4 11.2-4.1 18ZM120.4 178l-6.2-22.6c-.1-.5-.4-1.5-.7-1.4l-1.9.1c1.6 5.1 3.4 9.8 4 15.2l-4.6-15.5h-6.4c-.3 0-.8 1.3-.7 1.5l.5.9.6-1.2 1.2 1.6c.2.3.6-.4.7-.7l.3-1.4 1.6 4.4 5.8 18.7zM123.2 177.8l-6-22.5c-.1-.7-.9-1.4-1.1-1.6s-1.4.6-1.3 1.2l5.6 19.5c.5 1.9 0 4.3 2.7 3.4ZM189.6 172a6 6 0 0 0-.3 5.3l5.6.2c-.3-2.2-.8-4.5-.6-6.4l.7-8.3c-6-.6-3.5-4.6-5-9h-18.7l-.3 6c-.1 1.7-1.8 2.3-3.3 2.2-2.6-.1-6.1 1-8.1-.7-1.3-1.9-1.8-4.8-2.6-7.5l-39.4.1 6.4 23.4c.1.4 1.5 1.1 1.6.8v-1.4l-3.5-12.6q-1.6-5-1.9-9.6 3.3 10.5 5.6 20.9c.2.8.7 3.3 1.6 2.5 1.6-1.5 2.6-4.8 2-6.8-1.7-5.8-3.5-11-4-16.6q2.6 8.5 4.5 16.7 3-.9 6-1l42.8-.1c4 0 9.5.1 11 1.8ZM209.5 155.6c-.3-2.5-10.2-1.9-10.7-.7 4-.5 7-.3 10.6.7M246.4 163.3c.2-.7 2.5-1.2 2.8-.6l2 4.2 1.6-4c.3-.7 2.8-.6 3.1 0l1.6 4 1.4-3.9c.2-.8 3-.8 3.2 0l1.5 4.6 1-3.5c.3-.6.8-1.5 1.2-1.8s2.2.4 2.4 1l2.5 7.7a29 29 0 0 0-.4-4.8c-.4-2 .8-3.7 2.7-4.1l.1-8.2h-56.4l-.8 7.6c.8.6 2.2 2 2.3 3l.8 5.9 1.8-7c0-.4.9-1.4 1.3-1.3s1.5.7 1.7 1.2l1.7 4.7 1.5-4.8c.1-.5 1.2-1.1 1.7-1.1.3 0 1.3.6 1.4 1l1.7 5.5 1.5-5.6c.2-.5 1.8-1 2.3-.7s1.2 1.1 1.3 1.7l1.5 4 1-3.9c.2-.8 1.4-2 2.2-1.9.6.1 1.7 1.1 1.9 1.8l1.3 4zM291.2 160.7c1.2-2.6 2-4.2 2.7-6.7h-19a11 11 0 0 0 1.6 6.8zM452.7 155.7l-4.8 15.8c.4-5.8 2.5-10.6 4-15.7l.5-1.5c.1-.3-1.2-.6-1.5-.5-1 .3-4.3 16.1-6 19 1-6.5 3.3-12.4 4.7-19l-2.2 1c-.2 0-.9-.7-1.2-.7l-8.6-.3-.9 2.6-.4-2.5h-21.5l-4.5 9.5-.6-1.4c-.3-.6-6.6 1.3-10.2-1.2l-.1-6.8h-104c0 3.2.2 5.9-.4 8.2-.4 1.4-3.4 2.6-4.7 3.6v9.2l4.5-.1q.5-2.6 1.2-3.8c.3-.7 2-1 3.2-1l98.2-.3.5-3 .5 3 35.1.2c.5 0 1.8.6 2 .2l.7-1.5c1.6 3 2.6 5.2 3.2 8.7h9.2l1.4-5.5 5.3-17.2c.2-.5-1.7-1.2-2-.8q-.1.7-.6 1.8M210.7 159.8c-1-3.2-4.3-4.3-7.3-4.1-2.7.1-6 1.2-7 4.1 3.8-3.6 11-3.7 14.3 0M501.6 291.4l6.1 32h6.9l-4.8-24.6-27-139.5c-.2-.7-1-2.2-1.2-2.4a7 7 0 0 1-2.9 5.2c-.4 1-1.4 3.6-1.2 4.8l2 9.5 12.5 65.2zM63.1 310.2l9-47.8 17.5-92.2c1.5-3.2 1-6.9-1.8-9.1l-2-3.1L74 219.5l-19.6 104 6.5.3z"/><path fill="#fff" d="M209.3 160.2a9 9 0 0 0-12.2.8c3.9-1.8 7.3-2 12.2-.8M293.7 160.5c-.7 2.5-19.2 3-19.3-.6-1 2.6 5 6 7 5.8l6.9-.5c-1.2.1 7.3-1.7 5.4-4.7"/><path fill="#fff" d="m206.7 161.8 2.8 1c-2.5-3-6.9-3.2-10.1-1.4zM464.2 203.6l3.5-11c.3-.8-.1-3-.3-4l6.5-18 3.7-9.5c-.8 0-1.8-.1-2 .3l-.8 1.5-9.2 24.9c1 10-4.3 9-2.4 18.3l1.2 5.7c1.6-2.7-1.2-5.2-.2-8.2M103.4 201.1c-1.4-4-.5-8-1.8-12l-9-26.7c-.1-.5-1.2-1.3-1.3-1.1l-.7.7 4 11.2 4.9 14.6c1.4 4.4 0 9.7 3.9 13.3Z"/><path fill="#fff" d="M210.7 167c-.6-5.6-13.2-5.7-14.2-1 4.4-2.9 10-3.4 14.2 1M214 162.9c-.4 0-1.5-.2-1.5.2l-.1 1.5-.4 7.7zM217.2 165.1c-.2-1.4-1-2.5-2.1-2.3 2.2 6.2 1 8.7 3 14.1.2.4 1.2 1.2 1.5 1l1-1.2c-1.8 2-3.4-11.4-3.4-11.6M238 173.6c-1.2-3.8-.5-7.6-3.4-10.7l3.3 15c2.1-1.7.7-2.7.1-4.3M226.6 176.2l-1.2-1.5-2.6-11.4q-1 .6-1 .8l.6 1.2c1.5 17 4.6 11.2 4.2 10.9M232.6 176.5 231 171c-.9-2.7.2-6-2.8-7.9l2.5 13.4c.1.4 1.4 1.4 1.6 1.1 0-.2.5-.9.4-1M243.2 166.8c-.3-1.4-.6-2.9-2-3.3l2.8 12.8c.1.4 1 1 1.3 1.3 2 1.4-1.4-8.2-2-10.8M252.2 175.4c-2.8-4.1-.9-8.7-4.4-12.3l2.2 12.7c.1.6.6 1.5 1 1.9.2.2 1.3-.4 1.4-.7s0-1.1-.2-1.6ZM258.1 175.7l-2.3-10.7c0-.4-.6-1.3-.8-1.6 0-.2-.8.2-.9.2 1.4 2.6 2.2 15.2 3.9 14 .2-.1.8-.6.7-.8zM264.6 175.7l-1.2-3.7c-1-3-.2-6.8-3.2-8.7l2.8 12.9c0 .5 1.2 1.5 1.3 1.2s.4-1.4.3-1.7ZM269 170.4l-1.4-6.4c0-.3-1.5-.8-1.5-.5v1c2.1 6.8 1.8 13 3.9 13.6 1.6.5-.4-5-1-7.7M274.8 178.1c.3-5-.2-9.9-2.8-14.5a68 68 0 0 0 2.8 14.5"/><path fill="#fff" d="M210 168.9c-2.7-5.5-10.2-5-13.6-.5q7.2-3.6 13.5.5M226.4 173.3q2.4-4.1 1.1-8.2c-1 3-1.8 5.5-1.1 8.2M246.3 172.7c1-3.1 1.2-5.3.7-7.6-1 2.8-1.7 5.4-.7 7.6M258.6 171.3c2-2 1.7-4.4.5-6.2-.4 2.3-.6 4-.5 6.2M264.6 171.4c1-1.8 2.2-3.8.5-6.4-.8 1.7-.6 3.5-.5 6.4M277.7 175.1l.1-10q-1.5 1.3-1.1 3.6zM213.9 172.3c.5-2 .8-3.8.8-6.5q-1.5 2.9-.8 6.5M220.6 175.6q2.4-4.8.4-9.6c-.7 4.2-2.1 6.6-.4 9.6M232.9 173.2c1.1-2.3 2.2-4.7 1-7.3q-1.6 3-1 7.2M239.4 170.6c2.4-1.3 1.8-2.6.7-4.5zM252.9 172.8c.5-2 .7-4 .2-7a7 7 0 0 0-.2 7M289 167c-3.6 0-6.8-.5-10.3.6l10 .1z"/><path fill="#fff" d="M208.7 170.5c-1.1-5-13-2.7-13.4 1a12 12 0 0 1 13.4-1M287.6 171.4l1.3-1.2c.2-.2-.8-1-1-1h-7.5c-.3 0-.9.7-1 1s.7 1 1 1zM494.6 307.5q-.8 3.7.2 7l.8 2.9 2.7-6.7c-.2 5.9-4.6 7.5-1.2 12.9l1-2.2.7 2.3 2.4-4.8-1 4.4 1.3-.8q.1 0 .2 0l1 1.3.7-2.4q.2 1.2.5 1.5l1.7.1-.6-4.2-1.2-5.3-3.9-21.4-8.5-44-8.5-43.7-1.4-7.2-3-15.7-2.2-12c-2.7 5.8-3.9 11-5.4 16.6-.7 3-2.2 5.8-.8 9.2l4.6-17.2c.1 4.2-5.6 19.7-3.9 21.2l2.5-9q1.2-4.6 2.6-8.7c.8 5.1-7.7 23.2-3.9 24l.7 5.6.7-2.6.9 2.9 3.2-12.3c1.6 2.2-4.5 12-1.2 14.3l1.3-4.8c.3 2.3-.5 4-1.2 6.2l16.3 88.4q1.1-2.1 2.1-4.9l-1.8 9q1.3 1.5 1.6 0Z"/><path fill="#fff" d="M202.3 173.2c-1.2 0-2.6 1.2-2.6 2.2 0 .8 1 2.5 1.8 2.5 1.7.2 3.3-.3 4.9-.5l7.1-.6c2-.2 2.8-3.6 1.7-5a7 7 0 0 1-1.7 3.5c-.6.6-2.5 1.1-3.4.6-1.3-2.3-2.9-4.4-5.1-5-4-1-8.8 1-9.1 4.6-.1.9.7 2.7 1.4 3.5a9 9 0 0 0 11.7 1c-1.3-2.2-9 1.8-10.3-3.2-.7-2.5 1.8-4.2 3.4-4.6q4.3-.7 4.9 3.6-1.4-2.6-4.7-2.6M74.5 299.9l1.4 1.6 9.2-50.7 3.6-1.2-.9-4.3-1 3.8c0-9.7 2-18.6 4-27.9-.5-3 1.8-8 1.6-9.2-1.2-6.9-3.8-13.9-4.2-20.9l4.7 18.6c.1.6.6 2.2 1 2l1.6-.9a43 43 0 0 1-5-18.4l4.5 17.3c3.5-14.7-1-11.8-1.4-23.4 1.2 3.8 1.2 7.8 3.2 11.6 1.5-5-4.3-14.1-3.2-18.7l1.8 7.4c.6 2.5 1 4.6 2.4 6.8.8-3.9-4.2-18.3-6.2-22.9-2 8.7-3.4 16.3-4.5 24.3 1 4.3 3 8.3 3.2 13.2-1.2-.8-2.2-10.3-3.6-11.7L83.6 211l-16.9 89.5v2l-2.9 13.1c-.6 3-.7 6.6 2.4 8.1l-.4-3.4c.5 1.7 2.5 6.1 2.4 1.3.8 2 1 1.7 2.2 2l-1.8-6.3 3.2 6.8-.7-6.2.6 2q0 .4 1.2 0l-2.6-9 2.8 6c2-3.8-3.2-10.5-2.6-13.2l3 8.6c.9-2.1.8-3.6.8-5 1.9-2 .8-5 .1-7.3Z"/><path fill="#fff" d="M103.7 251.6H87l-13.3 72h58.9l3.7-7.7 10.8-23.3a9 9 0 0 1 8.3-5.4H411c4.8.2 8.3 1.5 10.4 5.5l14.6 30.7h58.4l-15.6-84.2-4.3-23.5a3 3 0 0 0-3.2-2.5l-23.6-.1c-3.2 0-5.3-2-5.7-5l-5.5-35.9h-7.8l-132-.3v15.6c-1.5 2-4.6 2.4-6.9 3a18 18 0 0 1-9.8.2c-2.7-.7-6.6-.6-8-3.8l-.4-8q-2.3.1-3.2-.5c-1.7-2-.4-5-2-6.4l-.6 5c0 .6-1.1 1.8-1.8 1.8s-2-1-2.1-1.7l-1.4-4.9c-.4 1.6 0 7.1-3 6.7-.4 0-1.4-.9-1.5-1.4l-1.4-6.4-1 6.1c-.2.6-1 1.4-1.5 1.6-3.1 1.4-3.5-6.2-4-6.5l-1 5c0 .6-1.4 1.5-2 1.5s-1.7-1-1.8-1.5l-1.7-5.7-1 5.7c-.1.8-1.8 1.7-2.4 1.5s-1.5-1-1.6-1.6l-1.4-5-1.4 5.4c-.2.6-1.6 1.5-2.2 1.3s-1.6-1.1-1.7-1.8l-1.2-5-2 6.5c-2.8.6-3.4-2.2-4.1-3.9a10 10 0 0 1-3.5 4.8l-1 8.4c0 .7-1.8 1.8-2.4 1.8l-13.8-.2c-4.5 0-17.2 1.2-16.7-3l1.7-14.4-49.1-.1-6.2.1c-1.7 6.4-2.5 12-3.5 18.5l-3 19.4c-.2 1.5-3 3-4.6 3.1l-26.3.3-4.6 23c0 .5.7 2 .9 2q9-.2 18.4.9c1.8 2.8 1.2 12.8-5.2 12.4Z"/><path fill="#fff" d="m288.6 184.9.2-12.3-9.3-.1.3 12.5zM117.6 194.4c2.7-.5 5-.4 7.8-.2l1.2-8.9-7.4-.4 7.9-.6-7.9-.5 8.1-1-8.7-.8 9-.6-8.4-.6 8.4-.6-8.2-.7c-5.6-.5-2 8-5.6 13.8-.8 1.3-4 1.8-5.6 2.2l-1.2 4-2.2 6.8-1.3-2.8-1.7 8 17 .2a17 17 0 0 0 4.9-.9l1.4-16z"/><path d="M115.1 180.3c-1-1.7-2.7 0-2.8 1.7q-.1 1.5 2 2.9z"/><path fill="#fff" d="m455.4 193 1.7-4.3q-1.5-3.3-1.6-7l1.3 4.8c.7-1.3.5-4-.4-5.2-.5-.7-3.6-.4-3.7.5 0 1 .5 2.7 1 3.8l.9-2.9.7 4.8c0 .2-.6 1.2-.8 1l-.8-1q-.4 3.1 1.7 5.5ZM107 194.3l-1.8-8c-.7.5-.6 2.1-.1 3zM288 186.7a27 27 0 0 0-7.8 0q4.1.5 7.8 0"/><path d="M108 242.2c-.1-.8-1-1.7-1.6-1.7l-13.9.2c-.6 0-1.9 2-1.3 2 4 1 8.4-2.1 16.7-.5Z"/><path fill="#fff" d="M206.2 292.2h16.4l120 .1 68.5.1c1.4 0 3 .5 3.7 0 1-.6 1.9-2 1.6-3.8l-66.6.2h-189c-3.3 0-5.5 0-8.8.7q2 3 5 3zM151.3 293.7c.6.1 1.2-1.7.8-2.2-.4-.4-1.3-1-1.8-.6-.9.6-.3 2.6 1 2.8M434 323.1l-3.3-7-10.4-22.6c-.6-1.2-2-2.6-2.9-3.3l-1.7 2.5q4.9 8 8.6 16.6l5 11.5c.5 1 1 2.5 1.7 2.6.7 0 2.5-.1 3-.3M146.3 304.3l4.8-9.9-2.5-1.7-14.2 30.5c.6.3 2.2.6 2.8.5s1-1.3 1.3-2.1zM175.1 298.2c-.2-1.5.5-2.4 2-4.1h-21.6l-.5 2.6c-.4-1.1-.5-2.5-1-2.3-.4 0-1.6.8-1.8 1.2l-13 28H167c0-6 3.8-10.8 9.7-13zM246.5 323.5h27.2c2.6 4.7 7.2 7.3 12.3 5.9 2.7-.8 4.5-3.2 6.3-5.8l72.2-.2c-.8-4.8 1.4-9.5 5.6-12.5q4.2-3.2 9.7-2.6l2-11c.2-1 1.4-2.3 2.2-3.1H252.6L181 294c.7.8 2.1 1.9 2.3 2.8l2 12.2c8.1.4 14.6 6.4 14 14.7l15.7-.1c1-6 4.2-11.2 10.1-13v-10.2c0-1.9 2.1-4 3.6-4.3 1.7-.4 4.9 0 5.5 2 2.7 7.6-.4 11.8 3.4 12.8 5.8 1.5 9.2 6.8 8.8 12.5ZM421.7 322c-3.3-7-1.4-22.8-7.2-27.9l-26.4.1c5 3.4.6 8 .8 14.9a16 16 0 0 1 11.1 14.3h29l-9.4-19.2c-.9 6 2.2 11.7 2 17.8"/><path fill="#fff" d="M179.4 299c.8.2 2.4-1.3 2.3-2.1-.2-1-1.5-1.6-2.9-1.5-.7.1-2 1.4-1.9 2q.4 1 2.5 1.6ZM388.5 297.2c-.9-1.6-3.7-2.2-4.7-.8s1 3.3 2.3 3.3c1 0 3-1.4 2.4-2.5M232.6 298.6c-1.1-1.3-4.3-1.2-5 0-.4.4-.2 2.1.4 2.3l2.2.5c.6 0 1.9-.5 2.3-.9.3-.3.4-1.5 0-1.9M179.1 316.3c2.2.8 4.5.5 5.8-1l-2.7-16q-2.3 1-5.2 1zM381.5 315.9c.4.4 2.4.9 3.3.6s1.7-2.2 1.8-3.3c.2-3.3 1.1-6.4 1-9.4q-.1-1.9.4-3l-5-1.6-.7 8.1 1.5-6-.4 6.5q-.3 3.8-1.9 8ZM232.8 317.6l.4-6.3 1 5.6-.5-15.6c-2.7 2-4.3 1.7-7.3.4l1.3 15c.1 1.6 4.8 2.3 5.1 1M373.2 322.3c0 .4 1.4 1.6 1 1l.9-6.7q.2-3 2.2-5.8c-6.2.5-11 6-11.3 12.6h6.2c-.2-2.8 0-4.3 1-6.2zM192.7 323.6h5.5c0-6.1-3.6-11.5-10-12.4l2 3.5c2.6 2.2 3.2 4.9 2.5 9M395 321.2c.2.9.5 2.3 1 2.3l2.3-.1-.9-4.5-.8 2c-.5-4.5-3.9-8.2-8.2-9.6l2.7 4.9c3 5.4-.4 7.5 2.2 7.4.4 0 1.3 0 1.3-.3v-2q.6-2 .3-.1M173.1 323c-.3-3 1.7-9.1 3.8-11-3.7 0-11.8 11.7-7.2 11.4l.6-3.2.3 3.1c0 .7 2.5.3 2.5-.3"/><path fill="#fff" d="M177.6 319.4c3 1.7 6.4 1.5 9-.3a5 5 0 0 0 2.2-4 4 4 0 0 0-2.1-3.3c-.3 2.1-.2 4.1-1 5.3-.7.9-3.1 1.4-4.3 1.3-3-.2-3.9-2-4.3-5-2.3 1.5-1.8 4.7.5 6M224.2 323.7l14.5-.2.6-3.2.5 3c.1.6 2 0 2.5-.1 1-.3-2.4-5 0-5.4l1 5.6s1.5.3 1.5 0c-.3-4.2-3.5-10.6-8.8-11.3-1 2.4 4 3.8 1.8 7-1.8 2.5-4.5 3.4-7.4 3.5-2.6 0-5.5-1-6.8-4-.7-1.6 1.4-4 1.9-6.2-4.8 1.4-8.8 6.4-7.4 11.5q.8-1.4 1.2-3.1l.7 2.6 3-.2q.2-2.2 1.2.5M388.5 313.7c-.7 3.2-1.6 4.7-4.3 5-1.6.2-3.7-.2-4.7-1.5-.9-1-.6-3.5-.5-5-1.7-.2-3 2.5-2 4.5 2.1 4 8 5.1 11.3 2 1.5-1.5 2.3-4.2.2-5Z"/><path fill="#fff" d="M237 318c0-.7-.4-1.9-.6-2.6-1 3.3-2.7 4.4-5.4 4.4-2.4 0-3.8-1.6-5.8-4-.2.7-.4 2.5-.1 3 1.9 3.8 12 2.3 12-.9M191.2 323c1-2.2 0-4.8-1-6.3.4 3-.5 4.5-2.4 6.7.5.2 3 .4 3.4-.4"/><path fill="#fff" d="m178 323.6 7.9.1c1.8-1 3.2-2.5 3.4-4.6a11 11 0 0 1-12.4 1.7c-.2.6.5 2.7 1.1 2.8M388 321.8c-6.3.2-5.6.7-11.4-2 .2 1 1.9 3.6 3 3.7 12 .4 6.9-1.7 8.3-1.7M441.4 424.3h103.9l-.1-15.1.6 4.6c1 6.7-.4 6.9.5 10.3 1.9 7.2 1.6-11.1 1.4-12.2-.3-2.7-.5-4.6 0-6.9 1.3 6.5 1 12.5.3 19l5.8-.1c.5 0 .4-10.6.5-9.8l-.6-5.5q.7-2 .5-.1c.2 1.9.8 3.9.7 5.4l-.3 9.2c4.2-2 5.5-6.2 4.8-10.5l-12.9-73.1-3.9-3q.3 2.5.8 5.3l3.4 18.6q-.4 1.9-.6.1c-1.7-8-3.3-15.5-4-23.5q-.2-2.5-3.2-3.3c.7 4.3 1.5 7.7 1.7 12-2.4-4.4 0-14-5.4-14.6l2.8 13.4q-.7 1.9-.7 0c-1.7-4.7-1.5-14.2-4.1-16l-1 1.6q-.7-4.6-5.7-4.6H293.2c-2.4 4.2-5.7 6.7-10.3 6.6s-8-2.3-10.4-6.5H38.2l-11.8 9.2-1.2 9c-.5-2.9 0-5.2.8-8.2-3.5-1.7-3 11.7-4.5 13l1.4-11.2q-2.9 1-3.4 4.7l-13 73.6a7 7 0 0 0 3.5 7c0-11.3 2.4-24 4.8-34.7 1 3.4-8.5 38.2-1.7 35.8-.3-10.2.7-18.6 2.8-28.2-.3 10.3-3 17.8-2 28.2.6.4 2.3.5 2.7.2-.7-6.3-.8-12 .5-18.3 1.3.7-2.9 23.1 2.4 18a95 95 0 0 1 1-24c.4 1.6 0 3-.1 4.4l-.4 20.2 15.7.2h86z"/><path fill="#fff" d="M554.5 426.5c4 .7 8.7-2.3 8.8-6 .2-7.5-1.6-14.5-3-21.7l-7.5-36.8c1.2 10.9 3.6 21 5.3 31.8l3.3 20.7c.9 5.6-2.3 9.4-6.8 12M13.2 426.8c-3-1-5.9-2.3-7.2-4.2-2-2.7-1.7-5.3-1.2-8.3l6.1-34.5c1-5.2 2.2-10 2-15.5L2.4 416.9c-.7 3.5.2 7.4 3.7 8.9 2.2.8 5 1 7 1"/><path fill="#fff" d="m548.2 546.5-.4-9.5.2-99.4c0-3.2.1-5.8.3-9h-11.7c-1 0-2.4 1.2-2.4 2.5v122H547l.7-2.8q1.3 1 1.2 1.3l-.9 1.4c3.2-.5 7.3-.8 10.1-3.2a16 16 0 0 0 5.1-11.6v-113a16 16 0 0 1-8.6 3.5l.2 9.5-.2 55.9-.4 45.6a21 21 0 0 1-3.1 11.8l2-8.6v-48.7l.2-33.7.3-31.7h-3.8v24.7l-.2 78.3q-.1 3.4-.6 6.6c-.3 2.8 1 5.3-.8 8M9.5 458l.3 76.4c0 2.6.5 19.3 4 17.7l-.7-20.8V497l-.2-68.4c-4.2.3-7.4-.2-10.8-3l-.1 111c0 1.6.8 4.2 1 5.5a11 11 0 0 0 8 9c-2.8-4.8-2.6-9.7-2.6-15.2L7.8 437c0-2.8-.1-5 1-7.5zM82.4 544.4c-.7.7-1.7 1.6-1.5 2l1 1.3c.4.5 2 .5 2.3 0s.1-1.7-.3-2.2l-.3-.9c.9.7 1.4 1.4 1.7 1.2l2-1c-.4 1-1.1 1.6-.8 2 .6.6 1.6 1.7 2 1.3.6-.4 2-1.6 1.5-2l-2-1.7c-.3.3.2-.7.4-.5l1 .8c.3.3 1 1.2 1.3 1l1.8-.8q-.6 1.6-.2 2.6c.6 1 2 .7 2.7-.3q.6-1-.4-2.2H98l-1 1.5 3.3 2.9c.7.6 1.8 1.2 2.3.8.8-.5 1-2 .5-2.3s-1.9-.4-2.3-.4c0-.8-.4-2.2-1-2.8l-1-.8c-3.5-3.2 2.8 1.4 3.8 2.3l1.7 1.7c.4.4 1.8-.6 2-1.1s-.2-1.2-.6-2.2l4 3.3c.4.1 2.2-1.3 1.8-1.8l-1.8-2.2 2.9 1.6c1.4-.8 2-.9.4.4.2.7 1.3 2.3 2 2.1s2.5-1.7 2-2.3l-2.2-2.2c2.3 1 3.7 2.5 6 4.3l2.1-2.5.8-.2c.2 0 .3-.6.3-.9l.3-6q.6 3.3.7 6l.3 9q3-1.4 2.9-4.9V434.1c0-2.7-.9-6.7-4.1-6.7l-78.4-.2c-3.8 0-5.2 3.6-5.2 6.8v112c0 3 .3 5.6 3.2 7.3-.4-4.3-.6-8 0-12l.6 11.9 9.8-.1-7-7c1.8 0 2.5 1.2 3.6 2.2.3-.2 1.7-1.3 1.3-1.8l-1.5-2.5 5 3.8 1.6-.6q.3.2 0 .5l-.5 1.1 4 4c.2.4 1.8-.4 1.8-.9s-.5-1-1-1.5l-4.2-4.4c2.2.7 4.1 2.8 5.5 4.2.4.4 2.2 0 2.1-.7l-.6-2.6 4.4 4c.6.3 2.6-1.4 2.1-1.8l-3.8-4.1 2.1.8c.4.1.8-.6 1.4-1.3h1q-1.7 1.9-1.4 2.7c.2.4 1.7 1.3 2 1 1-.9 2.8-2.8 4.3-3.4-1.3 1.8-2.5 3-4.1 4.7l2.1 1.7c.4.3 2-.8 1.9-1.3l-.3-2 2.3.4c.1.8 1 2.1 1.7 2.6.6.3 2-1.1 2.2-1.8l-4.4-4.6 2.5 1c.5.3 1.6-1 2-1.3 1.1-.4 1.6-.4.3.2Z"/><path id="PlayButton" fill="#fff" d="M222.6 553.1c2 0-.6-8.2 1.5-10l-.2 9.8c3-.9 3.2-3.5 3.2-6.3V432.3c0-2.8-2.2-5.1-5-5.1l-78-.1c-2.1 0-4.5 2.3-4.5 4.4v115.1q-.2 4 2.5 6.3l.4-7.6.9 7.9z"/><path id="StopButton" fill="#fff" d="m321.8 542.6.5 10.5c2.3-.9 3-2.8 3-5.4v-116c0-2.9-2.2-4.6-4.9-4.6h-78.8c-2.6 2-3.2 4.3-3.2 7.6v113c0 1.8.7 5.4 3 5.4h79.9z"/><path fill="#fff" d="M520 543.7c.6 3.2.5 6 .3 9.4 2.5-.7 3-2.8 3-5.4V431.3c0-2.9-2-4-4.3-4h-79.6c-2.3 0-3.5 3.8-3.5 5.6v114.8c0 1.7.7 5.3 3 5.3h80.5z"/><path id="LoadButton" fill="#fff" d="m416.4 546.9 4.6-72.7 2.4-39.8c.1-2 .9-6.4-2.3-7l-80.6.2c-3.1.3-3 4.8-2.8 7l6.9 112.6c.1 1.9.2 5.8 3 5.8H414c2-1.2 2.2-3.6 2.3-6.2Z"/><path fill="#fff" d="M27.6 553.3 27.4 453l-.2-24-12.7-.2.2 37V530c.1 8 .1 15.5 1.1 23z"/><path d="m339.6 524.5.2 28.3c1 .4 3.5.5 3.8 0-2-5-1.4-10-1.7-15l-2.2-36.6-.6-7-.5-8.4-.7-13q-.3-4.7-.9-9.4l.1 56.3v31.6c0 .5.4 1.4.6 1.7s1.6-.1 1.5-.8l-.3-26.6-.7-17.3q-.3-7.6 0-14.8.7 5.1.9 10zM418.8 553h5.2l.2-8.2v-34.7l-.2-46q-.5 4.4-.7 9.3l-2.3 35.5-1.7 36z"/><path fill="#fff" d="M118.7 550.8c-.1.2-.6-.8-.4-1l1-.9c.6-.4-.5-2-1.2-2s-1.6 1-2.1 1.6c-.4.4 3 4.3 3.6 4.4s2.5-.3 2.6-.9c0-.6-.7-2.1-1.1-2.5s-1.6.6-2.4 1.3ZM123.7 549.8l.2-3.6c-1.6.7-2.5 2-2 2.6.3.4 1.4 1 1.8 1M54.8 549l-1.9-1.8c-.6.7-1.5 1.5-1.4 2s1 1.2 1.5 1.4 1.4-1 1.8-1.5M87.1 549.2c0-.6-1.2-1.9-1.8-1.8-.5 0-1.8 1.4-1.4 1.8l1.5 1.3c.4.3 1.7-.8 1.7-1.3M90.5 547.5c-.8.4-1.5 2.2-1 2.4s1.5.7 2 .6 1.4-1.5 1-2-1.6-1.3-2-1M98.2 549.2c0-.8-1.6-2.2-2.2-1.9s-1.6 1.9-1.1 2.2l1.7 1.2c.4.2 1.6-1 1.6-1.5ZM106.8 547.4c-.6.4-1.6 1.6-1.2 2s1.3 1.2 1.7 1q1-.8 1.4-1.7c0-.5-1.5-1.6-1.9-1.3M110.3 549.7l2.5.5c.4.1 1.3-1.2 1-1.6L112 547l-2.6 3c-.5.5-1.6 1.7-1.3 2.2.3.4 1.2.8 1.7.8s1.7-.8 1.5-1.3zM55.3 550c-.7 0-2 1.6-1.5 2q1.2.9 2.5 1c.6 0 1.1-1.5.8-2s-1.3-1-1.8-1M69.3 553.1l-3.4-3.5-2.2 3zM78.8 551.9c-.1-.7-1.6-2.1-2-1.7-.6.4-1.6 1.5-1.6 2 .4 1.1 3.9 1.3 3.6-.3M82.6 553c.4.1 2.2-.9 2-1.3l-1.2-1.6c-.3-.4-1.2.3-1.7.8l-.7 1.3c-.2.3.8.6 1.6.8M93.5 550.2c-.7.3-1.8 1.3-1.5 1.7.5.5 1.5 1.2 2 1.1s1.6-1 1.3-1.5-1.3-1.6-1.8-1.3ZM104 549.9c-.7.3-1.3 2-.9 2.4s1.3.5 1.7.4c.6-.1 1.4-1.2 1.1-1.7s-1.5-1.3-2-1.1M117 552.3 115 550c-.3-.4-1.7.7-1.7 1.2s1 1.7 1.5 1.5zM74.3 552.7l-2.5-2.6c-.5-.4-2.5 1.4-2.1 2 .8 1.2 3.6 1.2 4.6.6M87.6 550.2c-.7.4-1.4 2-.9 2.2q1.3.6 2.2.5c.9-.1 1-1.3.8-1.8s-1.6-1.2-2-.9M98.8 550.2c-.6.2-1.6 2-1 2.2.4.3 1.5.5 2 .4s1-1 1-1.5-1.5-1.3-2-1.1Z"/><path d="M455.3 207.9c-2.5 2.4-6.8 2.2-9.7.5-1.6-1-1.8-4.2-1.3-6.2.3-1.4 2.3-3 4.3-3.6 2.4-.8 5.1.2 6.5 1.9 1.6 1.8 2.4 5.2.1 7.4m-3.5-3.9 1.6-.8-2.7-1.9-3.2 2.8.4-3.4c1 .2 2.1.2 2.7-1-1.3-.2-3.5.5-4.6 1.4-.6.6-.8 2.8-.3 3.4 1.9 2.4 8 3.2 9.5-.6.7-1.6-1.9-4-3.4-3l2.2 1.8c.5.5-.2 2.8-.8 2.5-.4-.2-1.2-.8-1.4-1.2"/><path d="M451.8 204c-.8-.2-1.6-.6-1.8-.2l-.9 1.9c-.3.6-1.6-1-1.6-1.6l.8.3c1.2.5-.8.1 2-1.6.4-.3 1.1.7 1.5 1.2"/><path id="Duration" d="m516 363.5-73.6.3c-5.6 0-10.4-3.1-10.8-9.1-.3-4-.4-9 0-12.8.7-6.4 5.3-8.7 10.8-8.7l74.3.2c4.5 0 7.7 4.8 8 8.6.7 8 2.1 21.4-8.8 21.4M463 348c1.4-2 1.6-6-1-6.8-1.9-.6-4.8-.3-6.8-.1 1.7 3 5 1.6 7 1-.6 2.1-.7 4.2.8 6m12-6.7q-3.6-.5-7 0c1.7 2.6 5.1 2.4 7 0m10.8 1.3c2.4 0 5 1.4 6.8-1.4l-7-.4c0 .7.2 1.6 0 1.6h-1.4l.2 6c2.9-1.4 1.2-3.7 1.4-5.8m19.4-1.5q-3.9-.3-7.3 0c2 2.5 5.3 2.7 7.3 0m-49.3 4.7c.2-1.9 0-3.4-1.7-3.8v5.8q1.4.2 1.5-.2zm11.1 2.5c2.3-2.2 2-4.8 0-6.3a14 14 0 0 0 0 6.3m8.8 0q.7-3.5 0-6.3c-1.9 1.7-2.5 4.2 0 6.2m17.5-6.7c-2.5 1.8-1.7 4.6 0 6.7q1-3.2 0-6.7m4.1 6.8c1.6-2.3 1.5-5-.2-6.5q0 3.3.2 6.5m8.6-.4c.3-2.7.2-4.3-.1-6-2.5 1.5-2.3 4.9.1 6m-51.7 7.8c2.7-1.9 2.3-4.7 0-6.5zm9.2-.4q.7-3.4-.3-6c-1.6 1.9-2.5 4.4.2 6m3.3.5c2.7-2.1 2.2-5 0-6.4q-.2 3 0 6.4m9-.9q.6-2.9-.2-5.5c-2 1.7-2.1 4.6.2 5.5m8.6.4c2.9-2 2.2-4.8 0-5.8zm9 0q.4-3.2 0-6.2c-1.9 2-2.5 4.5 0 6.2m12 1c-2.2-2.8-5.3-1.5-7.7-.8.9-1.9 1.4-4.6-.6-6-.6 1.8-1.5 5.8 1 6.7 2 .6 5.2.3 7.4.2m.5-1q.6-3-.1-6c-1.6 1.6-2.7 4.3 0 6m-43.1.9c-2.7-2.4-6.2-2.3-7.8.2q4 .3 7.8-.2m12.7.2c-2.3-2.6-6.2-2.7-8 .1zm17.3-.2c-2.6-2.2-5.9-2.3-8 0q4.4.7 8 0"/><path d="M78 391.5H61.6c-3.7-.1-7-2.5-7-6.5l-.3-18.5.3-19.7c0-4.1 2.9-7.1 7-7.1h40.7c3 0 4.5 4.8 4.5 7v38c0 3.3-2.2 6.5-6 6.7-7.4.5-15 .2-22.7.1m20.8-2.3c3.1 0 5.6-2.2 5.5-5.4l-.4-23c0-4.2-1-8.2-.4-12.3l1 3-.1-5.7c-.2-1.6-2.9-3.8-4.8-3.8H59.3c-1.3.8-2.8 3.1-2.8 4.7L57 386c1-4.3 0-8.6.9-13.3q.3 6 .1 12.5c-.2 6.2 5.8 4.2 14.2 4.2zM435.6 328.8l-9.9.2h-53.3l-5.4-.4-6.5.1-7.9.3c-6.6.2-11.4-.8-16.3-.2q-3 .3-6-.2c-7.8-.4-15.1.4-23-.7h200.5c-7.5 1-15.3.4-23.2.8l-8.1-.1H467l-10.5.3c-6.4.1-8.4-.2-14-.1zM388.6 410.4l-2.3 8.3c-.2.8-2.8 1-3.3.2l-3.2-13.9c-.1-.8 2.9-.9 3 0l2 9.1 2.4-8.9c.1-.5 1.3-1.2 1.8-1s1.2 1 1.3 1.5l2.1 8.4 2.3-9.2c.2-.8 3-.5 2.9.2l-3.2 13.6c-.3 1.2-3.2.7-3.5-.3-.7-3-1.2-4.8-2.3-8ZM21.6 421.6q-.5-5.4.3-11.2l6.6-43c2-13 3.4-25.7 7.4-38.4l-13.4 84.2zM363.9 419.2c-1.5 0-2-7-5.3-5.1l-.3 5-3 .2-.1-15h6.8c1.7 0 3.8 1.7 4.2 3a5 5 0 0 1-2.2 5.8l2.8 6zm-1.1-11.5c-.6-.8-3.2-1.1-3.9-.6-.8.6-.8 3.8.2 4s2.8 0 3.5-.4.8-2.1.2-3M75.4 419.4c-1.8 0-2.3-6.2-5.2-5.7-1.7 1.1.2 4-1.3 5.6-.4.4-2.6 0-2.6-.8v-14.2h7.2c1.7 0 3.7 2.1 3.9 3.5q.5 3-2.3 5.3l2.8 6zM74 407.7c-.8-1-3.7-1.3-4.2-.4s-.2 4 .7 4c.7 0 2.4-.4 3.3-.6s.8-2.2.2-3ZM475.8 416.5c-1 1.8-3 3-4.4 3.1-2 .3-4.3-.3-5.6-1.9a10 10 0 0 1-.4-11c1-1.7 3.2-2.6 5-2.6 1.9 0 4.2 1 5.3 3a10 10 0 0 1 0 9.5m-2.6-8c-.3-.8-2-1.9-2.8-1.9s-2.5 1-2.8 2c-.9 3.2-.9 8.2 2.8 8.4 3.1.2 4-4.5 2.8-8.5M292.2 411.9c0 4.4-2.3 7.7-6.3 7.8s-6.6-3.4-6.7-7.5 2-8 6.1-8.1 7 3 6.9 7.8m-3.5-3c-.2-1.2-2.3-2.4-3.4-2.2-3.4.4-3 5.2-2.6 7.9.1 1.2 2 2.4 3.2 2.5 3.5 0 3.5-5 2.9-8.2M501 418.6c-2.3 1.1-5.3.9-7.7.7l-.1-14.9c2.7-.3 5.8-.4 8.1.8 2.7 1.4 3.4 4.2 3.4 6.7s-.9 5.3-3.8 6.7m-1-11.2c-.8-.6-3-.7-3.7 0v9.2c1.4.5 3.6 0 4.2-.9 1.8-2.4 1.4-6.8-.5-8.3M260.4 419.7c-3.4.4-6.6-1.5-7-4.5.1-.4 2-1 2.3-.6l1.5 1.7c1 1 4.4 1.3 4.7-.6.3-3.2-10.2-3-7.8-8.6 1.7-3.9 7.7-3.9 10-1 .4.5.7 1.8.6 2.3-.2 1.8-3.5-1.5-5.3-2-.8-.1-2.9 1.3-2.5 2 1.7 3 8 1.9 8 7q-.2 3.7-4.5 4.2ZM89 412.7l-5.8.2v3.9h5.5c.4 0 1.3.6 1.4 1s-.6 1.7-1 1.7l-9.2-.1v-15l8.7-.2c.5 0 1.5.8 1.5 1.3s-.9 1.4-1.4 1.4h-5.4v3.4l5.5.2zM169.8 410c-.5 4.5-5.3 3.9-8.2 4-.6.1 0 2.4-.7 5.2-.2.6-2.7 0-2.7-.6v-14.2q4.4-.4 7.7 0c3 .5 4.1 3.4 3.9 5.6Zm-3.7.8c.7-.4.7-3 0-3.3s-1.8-.6-3.5-.8c-1.3-.1-1.6 3.2-.8 4.4.5.9 3 .5 4.3-.3M192.2 417c-.8-1.3-4.7-1.1-5.7-.1l-1.2 2.3c-.3.7-2.7.1-2.9-.4l5.1-13.7c.3-.6 1.6-1 2-1a4 4 0 0 1 1.9 1.9l4.8 13-2.3.4c-.6.1-1.2-1.5-1.7-2.5m-1-3.5-2-5.1-1.7 5zM487.5 417c-.7-1.2-4.5-1.2-5.6-.2l-1.3 2.3c-.3.5-2.2.3-3 0l4.7-13c.3-.9 1.4-1.9 2.2-2 .8 0 1.8 1.1 2.1 2l5 13-2.3.3c-.6.1-1.1-1.1-1.8-2.3m-1-3.7-2-4.9-1.7 5.2zM94.7 414.8c0 1 2.1 2.3 3 2.3 1.1 0 2.3-1.4 2.9-2.5.3-.7 2.5-.4 3 0-.2 3.6-3.8 5.4-7 5-3.6-.4-5.4-3.7-5.4-7.5 0-3 1-6.2 3.7-7.4s6.6-.5 8 2.3c.4.5.8 2.3.3 2.4-3.6.6-2.3-2.7-5.4-2.8-4-.3-3.3 5.3-3 8.2M306 409.5c-.5 6.2-8 3.8-8 4.8l-.4 2.7-.5 2.3c-.1.6-2.5 0-2.5-.7v-14.2q4-.4 7.5.1c3.5.5 4 3.1 3.9 5m-3.4.6c.5-1.3-.3-2.9-1-3s-2.9-.4-3.6 0c-.9.4-.8 3.3 0 4 .8 1 4 .7 4.7-1M377.8 412.8h-5.9v3.8l7 .3v2.5h-10l-.1-15 8.2-.2c.4 0 1.8.2 1.8.6l-.2 2-6.8.1v3.4l6 .1zM202.1 328.3h4.6l51.8.6H102.7l53.6-.5h28.6zM541.6 405.1q.6 3.5.1 7.1L538 384l-8.3-56q2.3 7.4 3.5 15.4l7.5 52.6zM207.7 404.6 203 414c-.4 1 0 3.5-.1 5l-3 .2c-.2-1.7.2-4.5-.4-5.7l-4.4-9c.6-.3 2.9-.4 3.3.4l3 5.7 3-5.8c.3-.7 2.4-.6 3.3-.2M273.5 418.7c0 .7-2.4.8-3 .4v-12c-1-.1-2.8-.2-4-.5-.6-.1-.4-2.3.3-2.3h10.8c.5 0 .8 2 .5 2.3l-4.4.4zM397.3 348.1c-.2 5.7-8.6 6-13.3 5.2l3.1-9.7a34 34 0 0 1 7.5.4c1.6.3 2.8 2.8 2.7 4.1m-3.3-1.6c-.6-1.2-4.3-1.6-4.8-.6l-1.6 5.4c1.3.5 3.5.3 5-.4 1.1-.6 2.1-2.6 1.4-4.4M424 353c-4 1.8-3-3-6.8-3.6-2-.3-1.6 4-2.6 4h-2.5l3.2-9.7c3-.2 6.7-.1 9 .4.9.2 1.8 2.6 1.1 3.2l-3 2.6zm-1-6.5c-1.9-1.7-6-2-6.2.9 1.5 1 4.8.7 6.2-.9M181.1 416.8c.7 0 .8 2.6.1 2.6h-9.1l-.2-14.8h3.2l.1 12.2zM409.4 344.3c.2-.5 2.1-.8 2.5-.5.6.4-1.2 7-2.9 8.3a7.6 7.6 0 0 1-10-.4c-.1-1.5 1.5-8 2.7-8.2 4.6-.8-.3 4.2.5 7.4.4 1.6 4.5 1.2 5-.4zM461 416.9l2 .2q.6.5.2 2.3l-9.7-.1.2-14.6c0-.7 2.9-.3 2.9.4v11.5zM551.6 407.8c.5 4.9.9 9.2-.5 13.8l-.4-12.9-.5-7.2c-.3-3.6-.7-6.9-.3-10.6l.9 6 .3 5.2zM289 332c-3.9 3.5-11 3.7-14.8-1a17 17 0 0 0 14.8 1M29.8 348.6q.4-9 2.7-17.2-.7 8.8-2.7 17.2M101.7 328.8q-5.2.6-10.8 0 5.2-.7 10.8 0M534.3 340.7a12 12 0 0 1-.8-7q.6 3.5.8 7"/><g id="CasettePins"><path d="M384.2 243.7c0 4.3-2.4 8.2-5.8 10.7-8.2 6-19 6.3-27.7 1.2-5.7-3.3-9-9.4-8-16 .6-4.5 4-7.9 7-10.7.3-3 2-9.4 3.5-11.5 2.9-4 8-6.7 13.1-6.1s10.2 4.6 11.8 9.6c.9 2.6.3 5.8.9 8.5.2 1.1.3 1.7 0 2.9 2.7 2.7 5.2 6.6 5.2 11.4m-13.2-26c.2-.7-.2-2.8-1-3.3-2.3-1.5-6-2-8.7-.6-1 .5-2.1 2-2.1 3s1 2.8 1.9 3.2c3.4 1.4 9 1.1 9.9-2.3m4 7.6-.2-1.5c0 .2 1.4 0 1.3-.2l-1.5-2.8.9.4 1.2.5c-1-2-2-3.4-3.8-5.2q-.8 2.2-1.5 3.3a8.6 8.6 0 0 1-13.3-.9l-5 3.6c4.5 7.6 14 8.8 20.6 4.4l.2-1.2c0-.2 1-.2 1-.4m-1.2 15 .4 5.7c.3 0 1.2-1.2 1.1-1.8l-1-16.2c-6.3 3.9-13.5 3.5-19.3-1.4l-3.3 8.7 2-9.3c0-.5-.4-1.6-.7-2l-3.3 16.7c-.3 1.8 2.4 4.4 3.7 5l2.8-11.7-1.5 12.9c6 3.3 12.8 3.3 18.8-.3l-.6-8.4q0-2.5.2-4.7zm2.3 3.6c1.8-7.2.4-12.3.8-18.6l-2 2.3zm-2.4 6c-6.8 3.6-15.4 4.2-21.7-1.1 6 3.1 13 4 19.6 1.5 2.3-.9 4.6-2 5.4-4.5-8 7.3-19.3 7-26.8-.3-1.8-1.7-3.6-2.3-3-6-.6 2-.6 3.8-.7 6.5l-1.1-6c-1.2 3.7.3 7.7 3.6 10.3 8 6.4 19.4 6.6 27.9 1-.4-1-.6-1.2-.4-1.5l1-1.9zM224.2 247.3c-4.4 11.7-22.4 15.6-33.2 8.3-3.9-2.6-6-6.4-6.7-10-1-5.5 1.7-9 4-13.1l1.7-12.1c.7-5.1 7-9 12.3-9.2 8.8-.2 14.1 6.8 15.3 14.8.2 1.2 1.2 2.5.7 4 6.2 3.5 8.5 10.5 5.9 17.3Zm-15.8-28.9c1.4-1.9-1-4.7-3-5a12 12 0 0 0-7.6.8c-1 .4-2 3-1.5 3.8 2.5 4 9 4.5 12 .4m-15.3 9.1c0 5.4-.2 10.1-1 15l.2-6.6c0-3.3.2-6.4-.4-9.7q-1 7.6-1 15c0 6.2 14.8 12.5 24.3 4 2.2-2 3.6-4.9 3-7.9l-2.1-9.2-1.6-5.9c-.7-2.6-1.4-5-4.6-6-.1.6-.5 2.5-1 3.3-2.7 2.7-7.8 3.6-11.1 1.8l-2.6 2.3 1.6-2.6-1.7-4.8c-2 1.7-4 4.4-3.4 7.2q.8.4 1 .7v1.4l2.9-2-2 2.8c6.7 5.1 14.9 3.2 20.5-2.8-2.3 8-15 8.7-21 4Zm-3.4 19.4 3 5 3.2 1.6c6.5 3.4 16.4 2.3 21.3-2.9 3.4-3.5 4-8.6 3.3-13-1.4 8.7-9 14-18.3 13.7q2.6.6 5.7.4 3.1-.8 6.4-2a21 21 0 0 1-24.6-2.8Zm12.1 4.2c-3.5-.8-6.5-2.2-10-4 2.4 2.8 6.3 4.6 10 4"/></g><path d="M327.3 224.7H241l-2.1 37c-1.8-2.4-.8-5-1-7.5l1.3-25.4c.2-3.4 1.6-5.3 5.3-5.3h83.8c1 12.4 2.5 24.6 1.4 37.4-2-12-1.6-24-2.3-36.2M327.3 263l-75.9-.2c-4.5 0-7.8-.4-11.9-.8l32.5-.3h57.2c.1.3-.8 1.3-2 1.3M412.3 194.3h-61.9zM372.8 174.3q-24 .7-49 0 24.2-.7 49 0M177 174.9q-19.6.6-40 0 19.7-.7 40 0M482.3 282.7l-5.6-32a310 310 0 0 1 5.6 32M360.5 177.2q-12.8.7-26 0 12.6-.6 26 0M477.9 277.5l-.9-4.8c-.6-3.7-1.5-7.1-1.4-11l5.7 32.4c-1.6-5.2-2.3-10.7-3.4-16.6M164.1 177.2q-11.1.7-23 0a193 193 0 0 1 23 0M158.2 180.8q-10.9.6-22.4 0 10.9-.7 22.4 0M111.2 320.4c-3.8.2-7 .4-10.9.3.8-.4 2.3-1 3-1h11.3c-.5 1.6-2 .6-3.4.7ZM370.5 260.8c-3.5 1.8-14 .9-17.2-1.2 3.5.4 6.7 1.5 10.1 1.4zM487 308.7q-2-7.2-2.6-15.7c1.2 4.9 2.2 9.5 2.7 15.7M120.6 258.4c.6-8.9 2.2-17.2 3.9-25.3-.9 9-2.2 17.1-4 25.3"/><path d="M242.2 247.7q-.6-5.7 0-11.8.6 5.7 0 11.8M203 194.3q-5.6.6-11.8 0 5.6-.6 11.9 0M217 258.3q-3.7 3-8.7 2.8zM123.4 320l-8.7.6c2.7-1.8 5.4-1 8.6-.6M84.7 300.7q-.4-3.4.7-7 .5 3.3-.7 7M426.3 205.9q-1-3.9-.8-7.8 1 4 .8 7.7M322.4 244.8q-.6-4 0-8.4.6 4 0 8.4M413.7 67.2c1-3.7 2-6.8 1.5-10.5-.2-1-2.7-1.9-4.2-1.9H249l-85.3.1c-2.3-.7-5.9-.4-6.8 2-.8 2.3.2 5.6.8 8l10 42c-3.3-5.7-3.7-11.7-5.3-17.7-2.6-9.6-4.9-18.7-6.9-28.4-.4-2.2.4-6.4 2.9-7l92.4-.1H265l22-.2h125.8c3.8 0 4.6 5.7 3.9 8.5L406 104.5c-1.1 4.3-4.3 5.8-8.5 5.8H172c-2.5 0-4-2-4.3-3.4 3 1.6 5 2.3 8.4 2.3h219.6c3.4 0 5.8-.9 8.4-2.5zM158.7 11.8h-11.9l-41-.1-7.8-.1-7.5-.2c-2 0-3.6.3-5.4 0-5.5-.3-10.5.3-16-.7h208.3c-11.2 1.1-22 .2-33 .6l-4.2.2c-3 0-6.2.7-9.2 0-2.3-.5-4.4.3-6.8.3zM481.2 11.8l-60.3-.3-28.7-.7 102.8-.1zM245 120.8h-6l-4.8-.1-2.6-.1H220c-3.9-.1-7.4-.4-11.3.2l-3.5-1h94.5c-.4.9-12 .7-13.7.7l-11 .3H245ZM360.3 120.3 349 120h-5.5c-3.7 0-7-.3-11.2-.8h49.3c-4.6 2-9.2.3-13.7.8q-3.6.4-7.6.1M71.5 64.1c-3.9-8.6-6.9-17.8-10.5-27l-5.3-15.3c-1-3-3-7.1.2-9.6-1.6 3.3-.8 6 .3 9.1zM111.8 45.5q15.3-16.6 32.4-32.4a485 485 0 0 1-32.4 32.4M447.4 103.3 434 103l-8.7-.8h28q-2.5 1.2-5.8 1.1M496.7 62.5q5-15.7 11.7-30.6c-3.4 10.5-7 20.5-11.7 30.6M451.3 122.6c-5.7 0-10.9.3-16.4-.1l-10.1-.8 25.1-.2c.4 0 1.3 1 1.4 1.1M451.7 99.5h-29.4l12.4-.6 7.9-.2zM148.2 121.2q-12.6.7-26 0 12.6-.7 26 0M158.8 102.3q-8.6.7-17.7 0 8.6-.6 17.7 0M102.4 54.7q2.5-3.3 6.4-6.4a15 15 0 0 1-6.4 6.4M194.8 120q-4.4.6-9.5 0 4.5-.6 9.5 0M204.8 120a34 34 0 0 1-9 0 34 34 0 0 1 9 0M423 102.3q-3.7.6-7.8 0 3.7-.5 7.8 0M223 519l.1-57.8.1-3.7 1-11.2v76.8zM141.8 472.6l.1-8c0-2 .4-4-.1-6l1-7.6V525l-1-7.9zM221 547.7c-16 1.6-31 .3-46.6.7l-4.4-.3c-2.3.4-4.7.4-7.1-.9zM203.7 431H170c-1.8 0-3.9-.6-5.6-.4-4.1-.1-8 0-12.2-.6h64.4c-4 1.4-8.3 1-12.9 1ZM203 551.3h-30.6c-4.5-1.1-9 1.2-13.5-1h56zM200.6 530.1c-2.4.5-3.5 2.6-3.4 4.5 0 1.4 1.2 3.3 2.3 5.3-3.8-.8-4.8-5-3.3-8.5.7-1.8 2.4-3.5 4.2-3.6a5 5 0 0 1 5 3.4c.8 2.2 1.6 5.2-.9 7q.4-2.9.2-5.2c-.2-1.3-2.4-3.2-4.1-2.9M167.3 538.3q.4-2.7.3-5.2c-.2-1.2-2-3-3.5-3-1.8 0-3.7 1.7-4.2 3-.5 1.6.1 4.2.8 6.4-3.3-1.7-3.2-6.2-1-9.2 1.1-1.7 3.2-2.7 5.1-2.4s3.6 2.4 4 4.5.3 4.7-1.5 5.9M218.3 508.6h-70.7zM183 530c-2.4-.6-5.4 2.4-4.7 4.7l1.5 5.1c-2.9-1.6-3.8-5.1-2.4-8.3.8-2 2.6-3.7 4.7-3.7s4 1.5 4.7 3.7c.7 2 1 4.4-.6 5.8-.1-3 .4-6.2-3.3-7.3M200.7 503.9q-3.7.6-7.8 0 3.7-.6 7.8 0M186 503.9q-3.7.6-7.8 0 3.7-.6 7.8 0M440 461.1v69l-1.1 3v-78.4c3 1-.8 3.3 1.1 6.4M521.4 473v15.6q.1 5.1-.5 10.2l-.5 23.7v-86.2l.9 9.4V473M515.2 430.6l-71 .4c3-.6 6.4-.5 9.8-.8s7-.3 10.5-.3c16.9.4 33.4-1 50.7.7M505.3 508.5l5.3-.1c2.2 0 4.3-.2 6.2 1H457c6.5-1 13.2-.3 20-.7l3.7-.2c8.2-.5 10.6.3 15.2 0 3.1-.1 5.9 0 9.3 0ZM494 550.4l-5.1.2c-6.3.3-12.4-.5-18.8-.3l-5.4.2h-4.4c-1.2 0-2 .2-2.6-1l59 .1-4 .9q-4.6-.5-8.9-.3zM504.5 547.5l-6.1-.1q-7-.2-14 0h-3.8l-35.9-.6h72zM498.3 530c-1.3-.4-3.6 1.1-4.1 2.2-.7 1.4-.5 3.4.2 4.7l1.7 3c-4.1-1.1-4.7-5.1-3.3-8.5.6-1.6 1.9-3.2 3.1-3.5 1.8-.4 4 0 5 1.4 2.1 2.4 3 6.4.1 8.7.6-3 1.2-6.4-2.7-8M463.3 538.6c1-2.5 1.8-6.9-1.5-8.4-1-.4-3 0-3.8.6-2.6 2.4-2.4 5.4-.7 8.7-3.2-1.6-3-5-2-7.9.8-2.3 2.7-3.9 5-3.9s4.3 1.8 4.9 4.4c.4 2.3.5 5-1.9 6.5M482.2 532.2c-.2-1.1-2.5-2.5-3.5-2.4-1.5.1-3 1.4-3.7 3.2-.7 2 .4 4.2 1.3 6.6-3-1.5-3.7-5-2.4-8.1.8-2 2.3-3.6 4.2-3.8a5 5 0 0 1 5.2 3.3q1.4 3.1-.3 6.2zM501.4 503.9q-10.1.6-20.7 0 10.1-.7 20.7 0M321.8 520.9l-.2-5 .1-62q.1-6.8.9-12.8v87.6c-1.1-3.2-.7-5.1-.8-7.8M317 429.8c-21 1.4-42 .3-63.2.7-1.5 0-2.8-.3-5.2-1zM301.2 551c1.4.3-20.1.3-23.3.2l-4.1-.2c-7.7-.3-6.2.7-12.6-.1l-15.8-.6h74.4c-4.6.7-9 .4-13.5.6q-2.5.6-5.1 0M313 546.7l-.9 1.1-39.4-.1c-3 0-6 .5-8.8-.9zM241.3 515.7c-.8-2-.1-4-.1-5.8v-34c0-2.2-.4-4.3 0-6.5l.5-24.8.3 47.1v4.3l-.2 34.8zM303.6 533c-.3-2-2.7-3.3-4.1-3-1.8.2-3.7 2-3.5 4.3.1 1.8 1.3 3.7 2.4 5.6-3.5-.8-4.7-4.7-3.4-8.2.6-1.6 1.7-3.4 3-3.7 1.7-.5 4-.2 5 1 2.1 2.2 3 5.5 1.2 8.4zM265.8 531.8c-.3-1.3-3-2.1-4-1.8s-2.5 1.6-3 3c-.9 2.1-.3 4 .8 6.4-2.8-1.6-3.4-5-1.9-8.3.7-1.4 2.3-3 3.6-3.2s4 .2 4.7 1.4c1.8 2.6 2.4 5.8.5 8.4-.1-1.9-.1-3.6-.7-6M285.3 537.3c-.1-3-.8-7.6-4.2-7.5-1 0-2.7 1.1-3.2 2.2-1.3 2.4-.3 4.8.6 7.5-3.1-1.6-3.5-5-2.2-8.2.6-1.6 2-3.2 3.2-3.4 2-.4 4.2.2 5.3 1.8 1.5 2.4 2.2 5.6.4 7.6M302.7 509h-9.5c-6.7 0-8.2.7-14.3 0l-20.5-.5h58.5l-8.8.7zM299 504.6l-9.6.4c3-1.5 6.4-1 9.6-.4"/><path d="m280.8 532-3.1 2.3a8 8 0 0 1 2-2.8c.9-.5 2.7-.4 3.5.7zM406.7 430c1.6 0 3.7.5 5.1 1l-54.3-.2 24.1-.8zM394 548.7c-12 .6-23.4.3-35.4.1l7.7-.6q3.7-.4 7.4-.3l35.1.1zM367 537.3c0-1.5-1-3.4-2.3-3.8q-2.6-.4-4 2.3c-1.2 2.6 0 4.7 1.6 7-3.9-.6-4.5-4.6-3.3-7.8a7 7 0 0 1 2.8-3.5c1.2-.7 4-.3 4.7.7 1.8 2.9 3.2 6.9 0 9.9zM399.4 536.9c-.2-2.3-2.5-4.3-4.7-3-1.3.7-2.3 3.1-2 4.7s1.6 3.1 3 4.5c-1.8-.2-3.6-1.4-4.1-2.6-1.8-3.9.6-8.6 2.9-9.2 1.4-.4 3.7.3 4.6 1.4 1.7 2.3 2.4 5.4.5 8.2zM383.1 536.6c0-.9-1.1-2.7-2-3s-2.8.4-3.5 1.2c-2.2 2.5-.6 5 1 8-3.9-1-4.6-5.4-2.9-8.9a6 6 0 0 1 3.4-2.7c1.3-.2 3.6.7 4.1 2 1.2 2.5 1.7 5.6-.1 7.6zM409.9 551.3l-57.1-.2 46.5-.5 5.2-.4zM347.2 550.7l-.7-8.2-.6-7.7-.6-9.4-.6-8.9q-.3-4.8 0-9.5l.8 8.4.6 9.3.6 10 .7 9zM342.3 469.9q0-4.6-.3-9.3l-.6-6.6-.6-8.3c-.3-4.5-1.8-12 2.1-14.1-1 3-1.7 5.6-1.5 8.9l.6 11.2.6 5.3.2 12.2c.7 1 .8 1.6-.6.7M409.3 514.7l-55.4-.1 44.8-.5c1.7 0 3.3-.3 4.8-.1zM418.3 470.5l.3-5.3.4-7.6.7-8.8.3-12.2c1 5.2.8 10.4.4 15.6l-.5 6.6-.6 7q-.2 1.8-1 4.8M413.1 549c-.6-4.4.2-14.3 1.4-19.5q0 5.4-.5 11.2zM335.9 313.5h-6.5l-4.4-.2q-5-.1-10.1.2l-6.4-.9h43.7c1.7 1-9.2.8-10.6.8zM255.8 318.5a34 34 0 0 1 0-9 34 34 0 0 1 0 9M310 307.3a34 34 0 0 1 0-9 34 34 0 0 1 0 9M312.4 305.5q-.6-4 0-8.3.6 3.9 0 8.3M260 309.7a27 27 0 0 1 0-7.8q.4 3.7 0 7.8M34.7 280.2q-.5-2.9.3-5.4l3.5-17.2 15.8-75.4c-1.5 11.7-4 22.6-6.5 34.2zM78.5 130c-2.2 11.2-4 21.9-7 32l10.2-51.3c-.2 6.7-1.8 12.6-3.2 19.3M24 331.5c0-5.9 1.7-11.3 3-17 1-4.9 1.6-9.7 3.3-14.2zM41 317.3c1.7-13.6 4.5-26.6 7.5-39.6-1.8 13.6-4.8 26.5-7.6 39.6M79 116.7l-3.8 15.5c.6-7.1 2.3-13.5 3.8-20.2zM73 119.8q-.5-5.5 2-10.2zM54.5 181.5q.4-4.1 1.5-8.2.5 4.3-1.5 8.2M59.7 504.9l-.9 1.2c-.1.2-.8-.4-1-.6-1-.5 3.2-1.3 2.5-2.7l-1-2.3c3.2 1.3 3.9 5 5.5 3.3.3-.4 1-1.6.7-2-.3-.5-1.5-.8-2.4-1l-.2-1.4c-.1-.4-1.5-1-1.7-1l-4.4 4.2 1.2 2.5-2.2-1.3c-.4-.2-1.6.8-1.4 1.3s.7 1.5 1.1 1.8 1.5-.6 2.6-1.1l-.9 2q0 .2.6 1.5h-2.3c-.5 0 0-1.2-.2-1.6l-3.3-3.2 2.8-.9c.5-.1-.3-1.5-.7-2s-2-.6-2.2 0v2.5c-.4-.2-1.6-1-2-.5l-1.7 2.4-2.7-3 2.6 1c.6.3 1.8-1.2 1.4-1.6l-1.6-1.5c-.4-.4-1.6.3-2.2.4l.7-1.5c.2-.4-.3-1-.6-1.7l1.6.7c.5.2 2-1.2 1.7-1.7l-1.2-1.6c-.6-.8-2.9 1.5-3.7 3.7-.3.8.8 2.5 1.2 3.1-.4.7-1 2.2-1 3a167 167 0 0 1-1 19l-.3-30.7v-18.9l.4-26.9c.6 2.1.3 4.1.4 6.3l1.5-1.2q-.2 2.1 1 3.2c.7.7 2.8-.3 2.6-1.5-.2-1-1.7-2.1-2.8-3l3.2-3c-1.4-2-3-4.3-5.6-5.2l1.3-1.6q1.1 2 1.9 2.8c1-.7 2.2-2 2.3-2.7l-3.2-3.1-1.2-1.2c-.2-.2-.2-.9.2-1l1.4-.8v2.2c0 .5 1.4.6 1.8.3s1-1.6.7-1.9-1-.6-2-1l-.7-1.6 3.5-.8c-.4.4-1.3 1.7-1.1 2.2.3.6 1.8 1 2.3 1l.6 2.1c.2.5 1.5.7 2 .5s1.3-1.5 1-1.9l-4.8-4.7c1.5.5 2.7 1.2 3.5 1.1 1.1-.1 1.5-1.5.7-3h37.4l25.5.2-1.3.7q-.4.2-.3.5l1.3 1.5-1.8-.2c-.5 0-.5-.6-.9-1.8-1-.4-3.4.3-4.5.9l-2.6-1c-.7-.2-1.9.7-2 1.1.7.9 1.6 1.8 2 1.5l2.3-1.5-1.4 2.6c-.4.7 1.7 1.5 2.2 2 .7.8 1.8 2.1 2.6 2.7.2.3 1.3-.9 1.6-1.1 1.8-1.3-4-2.4-4.3-6.1l2.2 1.5c.4.3 1.5-.7 1.9-1q-1.2 2.3-.4 3c.7.8 1.9 1.3 2.5.8 1.1-.8 1.4-1.5.5-3l1.8.8 3.7 4.6c.3.4 1.5 1.3 1.2 1.6l-1.3 1.7q.3-1.8 0-2.7c-.4-.6-1.8-.5-2.6-.4.1-.6.4-1.6.2-2-.2-.6-1.4-1.3-2-1.2s-1.6 1.3-1.4 1.9c.5 1 2 1.8 3.1 1.6l-.1 1.3c-.2 1.3 1.7.1 3.6 3.7l2.5-1.1v47.2L125 526c-1-3.3-1-6.3-1-9.6l.2-10.6c-.2-.3-1.5-.2-1.6.1l-.2 2.5-3.9-3.6-2.8 3-2.7-2.7c-.6.3-2 1.6-2.5 2.5.9 1.8 7-.7 8.4 1.6l-59.7.2 1.3-.8q.4-.4.2-1l-1-.8 3.5-.8-2 2.6H76c2 0 3.5-.1 5.3-.5l-2-1.8q-1.5.8-2.3 1.2c-.7 0-1.9-1-2.7-1.6l-2.7 1.8-2.4-1.9c-.6-.4-1.9 1-2.8 1.8l-3.8-3-1.5-1.1c-.3-.3-1.2.9-1.5 1.3m.1-73.1c-.6-.7-2.4-.8-3.8-.4 0 .5 1.3 1.9 2 2.3.5.3 2.3-1.5 1.8-2m2.4 2q1.6.1 2.5-.4c.4-.3 1-1.6 1-2-3.4-1.6-6.7 2.5-6.6 3.5.2 1.4 1.2 0 3.5 3.3.3.5 1.5 1.3 1.8 1l1.2-1.4c.5-.6-3-2-3.5-4m9.5-2.4q-2.4-.4-4.3.3c-.2.7 1.3 2.4 2 2q.7-.3 2.3-2.3m5.2 0h-3.8c.1.9 1 2.2 1.8 2.2.6 0 1.6-1.2 2-2.2m1 1c1.6.8 2.6 1.7 3 1.3l1.5-1.8c-1.7-1.6-4-.7-5.4 1.1-.5.5-1.4 1.7-1.1 2.1s1.3 1.3 1.8 1.5 1.4-1.1 1.7-1.6zm10.5-1.3-4.6.3c0 .7 1.4 2.3 2.2 2.3q1-.1 2.4-2.6m5 .4L89 431q1.3 2.1 2.5 2.7c.6.3 1.8-1.4 2-2.3m4.5.4c-.6-.7-3.1-.9-3.4-.1l2 2c.4.4 1.8-1.5 1.4-1.9Zm5.3-.3c-.5-.6-2.9-.5-3.4 0s.9 2.2 1.6 2.2 2.2-1.7 1.8-2.2m-46.1 3.2a5 5 0 0 0-1.6-1.8c-.6-.3-2.1 1.3-1.7 1.8l1.5 1.6c.4.4 2-1 1.8-1.6m9.1-1.7c-.8.2-2 2-1.5 2.4s1.5 1.4 2 1.2c.7-.2 1.6-1.4 1.5-2 0-.7-1.4-1.8-2-1.6m5.5-.2c-1 .6-1.6 2.3-1.1 2.7.5.6 1.4 1.4 2 1 .7-.6 1.4-1.5 1.3-2.2s-1.7-1.8-2.2-1.4m11.1 0c-1 .7-1.9 2.1-1.3 2.6.7.6 1.4 1.4 2 1.1.7-.5 1.7-1.5 1.5-2.2s-1.7-1.8-2.2-1.5m8 2.4c-.6-.5-1.6-2.8-2.3-2.4-.8.5-1.7 1.4-1.7 2s1 1.5 1.5 1.4l2-.5q-1 1.6-.3 2.5c.7.6 1.8 1.1 2.2.7.4-.6 1.4-1.8 1-2.1zm3.2-2c-.6.2-2 1.6-1.5 2l1.7 1c.5.3 1.8-1.2 1.4-1.7-.2-.4-1.1-1.4-1.6-1.3m4.7.1c-.5.1-1.5 1.5-1.1 1.9s1.4 1 1.8 1 1-1.4.9-1.8-1-1.2-1.6-1.1m5.3-.2c-.7.1-2 1.6-1.6 2q1 .8 1.7 1c.6.3 1.6-1 1.4-1.6-.1-.5-1-1.4-1.5-1.4m-46 2.5c-.9.3-2 1.7-1.4 2.1q1.2 1.1 2 1.3c.7 0 1.8-1.5 1.5-2s-1.5-1.6-2-1.4m10.8.1c-.8.4-1.7 2.1-1.2 2.7s1.8 1.3 2.3.8c.6-.6 1.7-1.6 1.3-2.2s-1.9-1.5-2.4-1.3Zm5.3.2c-1 .8-1.4 2.1-.9 2.4q1.6 1 2.4.6c.7-.4 1.4-1.6 1-2.1s-2-1.4-2.5-1m5.7 0c-.7.5-1.4 2.1-.8 2.5s1.6 1 2 .6c.5-.4 1.2-1.5 1-2s-1.7-1.5-2.2-1.1m5.5-.2c-1 .5-1.6 2-1 2.7s2 1 2.4.5c.5-.6 1.3-1.5 1-2s-1.9-1.5-2.4-1.2m11 0c-.5.5-1.4 1.5-1.1 2s1.5 1.3 1.9.9 1-1.3 1-1.9c0-.4-1.4-1.3-1.7-1m4.6.2c-.5.3-1 1.7-.6 1.9.5.3 1.4.9 1.8.6s1-1 1-1.5-1.7-1.3-2.2-1Zm5-.1c-.8.6-1 2-.5 2.3q1.6 1.2 2 .8c.7-.8 1.4-1.8 1-2.2s-2-1.2-2.5-1m-54 4c-.3-.8-1.4-2-2-2-.5.2-1.8 1.3-1.4 1.7l1.5 1.6c.4.4 2.1-.9 1.9-1.4m3.4-1.6c-1 .3-2 1.9-1.1 2.5.6.5 1.4 1.3 2 1s1.5-1.5 1.2-2-1.5-1.6-2-1.5m5.6.3c-1 .1-2 1.7-1.4 2.2s1.4 1.3 2 1.2 1.9-1.5 1.6-2-1.7-1.5-2.2-1.4m16.6-.1c-.8.2-2 1.9-1.5 2.3.6.5 1.5 1.4 2 1.3.6-.3 1.7-1.5 1.4-2.1-.2-.5-1.4-1.7-2-1.5Zm5.3 0c-.8.2-1.5 2-1 2.5q.6.8 1.6 1c.6 0 1.5-1.7 1.2-2.2-.3-.4-1.3-1.3-1.8-1.2m4 2.2c.2.8 2 1.8 2.3 1.3l1.5-1.8c.3-.4-1.2-1.7-1.7-1.9-.8-.2-2.4 1.7-2.2 2.4m6.9-2.4c-.7.6-1.6 1.7-1.4 2.3s1.7 1.2 2.2.9c.6-.5 1.3-1.5 1-2s-1.4-1.5-1.8-1.2m4.9 0c-.6.4-1.3 1.9-.9 2.1.6.4 1.7.8 2.1.5s1.1-1.1 1-1.6-1.8-1.3-2.2-1m10.6 4.8-4-4c-.4-.4-1-1-1.3-1s-1.3.7-1.4 1c-.2.8 1.3 2.8 2.1 2.4l1.9-1c-.4 1-1.6 2-1.2 2.4l2 1.8c.4.3 1.6-1.1 1.9-1.6Zm.4-1c.5.5 2-1.1 1.9-1.8s-1.2-1.8-1.9-2c-.6 0-1.4 1-2 2zm-41.4-1.4c.2-.8-1.6-2.4-2.3-2-1.3 1-1.1 2-.4 2.8 1 .9 2.4.6 2.7-.8m3.5-2c-.7.5-1.9 1.8-1.4 2.3.6.7 1.5 1.8 2 1.4.8-.7 1.7-1.6 1.6-2.3-.2-.5-1.7-1.7-2.2-1.4m44 4.2c.6-1.5 1.3-2.4 1.1-3-.2-.5-1.6-1.7-1.9-1.3l-1.6 2 4 4.2c.6.4 2.3-.6 2.4-1.3s-1-1.7-1.6-2c-.6-.1-1.5.8-2.3 1.4m-60.9-.2-1.8-2c-.5 0-2.4 1.2-2 1.7l2 2c.4.4 1.8-1.4 1.8-1.7m40 .2c.4.5 1.7 1.8 2 1.3.5-.4 1.3-1.3 1.6-1.8s-1.1-1.7-1.7-1.7c-.7.1-2.3 1.6-1.9 2.2Zm8.5-.4c.2-.7-1.5-2.1-2.1-1.8-1 .6-1.1 1.9-.3 2.6s2 .6 2.4-.8m-43.1-.1c-.7-.9-2.3-1.5-2.8-1-.3.4-.7 1.8-.3 2.2.4.6 1.6 1.1 2.2 1s1.2-1.8.8-2.2m3.6-1c-.8 0-2.2 1.7-1.4 2.3q.9.8 1.9 1c.7 0 1.7-1.2 1.5-1.8s-1.4-1.6-2-1.6m9.1 2.3c.5.6 1.8 1.5 2.2 1.2q1-.9 1.6-1.8c.6-.9-1.2-1.8-1.8-1.7-.8.1-2.4 1.6-2 2.3m7.2-2.4c-.7.3-1.8 1.7-1.4 2.2s1.7 1.3 2.2 1 1.4-1.6 1-2.1c-.2-.5-1.4-1.3-1.8-1m5.1.1c-.7.7-1.4 2.2-.9 2.5q1.3.6 2 .6c.7 0 1.3-1.7 1-2.1s-1.7-1.3-2-1m4.2 1.9c0 .5 1.3 1.7 1.7 1.3l1.7-1.5c.4-.4-.7-1.9-1.3-2-.7 0-2 1.5-2.1 2.2m22.9-1.9c-.7.4-2 2-1.5 2.3.8.5 1.5 1.2 2 1.1s1.9-1.4 1.5-2c-.4-.4-1.5-1.7-2-1.4m-43 3.4c.6.4 2-1.2 1.7-1.7-.5-.6-1.4-1.5-2-1.5-.5 0-1.7 1.2-1.4 1.6zM50 443.2c-1 .5-2.2 2-1.8 2.6s1.6 1.8 2.3 1.6c.7-.4 1.9-1.6 1.7-2.3s-1.5-2.3-2.2-2m50.5 2.6c.5-.4.5-2-.1-2.5q-1-.4-2.3.8c-.5.4-.4 2 .1 2.5q.6.5 2.3-.8m-42.8 0-1.5-2.2c-.6.1-2.2 1-1.9 1.5l1.3 2c.3.3 2.4-.8 2-1.3m19.9-1.8c-.6.1-2 1.7-1.7 2.3s1.4 1.7 2 1.4 1.5-1.4 1.6-2-1.3-1.8-1.9-1.7m5.2 0c-.7 0-1.8 1.7-1.4 2.2.6.5 1.5 1.3 2 1.2.7-.1 1.7-1.5 1.5-2-.3-.6-1.5-1.5-2-1.4Zm9 2c.7.6 1.8 1.5 2.2 1.1l1.6-1.7c.3-.4-1.1-2-1.6-1.8-.8.3-2.2 1.7-2.2 2.3m14.3.6c.7-1.1.2-2-.3-2.4-.6-.5-1.9-.8-2.6-.2-.4.4.4 1.7.8 2.2.3.4 1.9.9 2.1.4m-42.8-.8c0-.4-1.3-1.6-1.8-1.8s-2.2 1-2 1.5 1.1 1.4 1.6 1.9 2-.8 2.2-1.6m3.2-1.8c-.8.6-1.6 2-1.2 2.4.7.6 1.7 1.5 2.2 1 .6-.7 1.5-1.7 1-2.1-.5-.6-1.5-1.6-2-1.3m7.3 1.4-2-1.5c-.7 1-1.5 2-1 2.4.6.7 1.6 1.4 2.2 1.2.5-.2 1.2-1.7.8-2m14.4-1.1c-.6.3-1.5 1.7-1 2s1.1 1 1.6.9 1.3-1.2 1.2-1.7-1.4-1.5-1.8-1.2m21.7 3c.5.4 1.7-.7 1.8-1.3s-1-2-1.5-1.9q-.8.2-2 1.2zm7.6 2.5c.4.5 1.7.1 1.8-.4s.1-2.3-.4-2.3l-2.3.3c.1-.6.2-2 0-2.5s-1.8-.8-2.2-.4c-2 2.2-.4.8 3.1 5.3m2.6-5.6c-.7.6-1.3 2.1-.8 2.4s1.4 1 1.8.6q.9-1 1-2c-.1-.4-1.6-1.3-2-1m-15.5 3.6c-.5-.6-1.7-1.8-2.4-2s-2.7 1.3-2.2 2 1.5 1.9 2.1 2.1 1.8-1.3 2.5-2m-48.3 5.5c1-1 2-2.3 1.7-2.7l-1.5-1.4c-.3-.3-1.3.7-1.7.8.3-1.4.4-2.5-.6-3.5q-1-.7-2.7.8c-.7.7 0 2 1 2.8zm38.3-4.8c.3.8 2 1.7 2.3 1.2L98 448c.3-.5-1-1.6-1.4-1.7-.8-.4-2.5 1.5-2.2 2.3m-33.8 0c0-.8-1.7-2-2.5-1.8-.7.1-1.5 1.7-1 2l1.7 1.3c.4.3 1.8-1 1.8-1.5Zm3.1-1.8c-.8.4-1.7 2-1.1 2.3.6.4 1.4 1.3 1.9 1 .6-.2 1.7-1.4 1.3-1.8s-1.6-1.7-2-1.5m5.5.1c-.9.3-2 1.9-1.4 2.4s1.4 1.2 2 1 1.8-1.5 1.5-2-1.6-1.5-2.1-1.4m7.4 1.8L75 447c-.6-.3-2.2 1-1.8 1.7.3.5 1.1 1.4 1.6 1.8s2-1.3 1.8-1.8m3.2-1.8c-.8.4-1.5 2-1.2 2.4s1.5 1.4 2 1 1.4-1.4 1.3-2-1.5-1.6-2-1.4Zm5.3-.1c-.6.6-1.4 2.1-.9 2.4.6.4 1.6.9 2 .6.5-.4 1.2-1.5 1-2-.3-.5-1.7-1.3-2-1m5.3 0c-.7.5-1.3 2-.9 2.4s1.4.8 1.8.5 1.1-1.3 1-1.8-1.5-1.3-1.9-1m15.8 2q2 1.4 2.6.5.6-1.1-.3-2.2c-.4-.4-1.6-.5-2-.2s-.8 1.6-.3 1.9Zm8-.2a5 5 0 0 0-1.6-1.8c-.5-.2-2 1.3-1.6 1.6l1.7 1.8c.4.4 1.7-1.1 1.5-1.6m9.7 1.8.1-3c0-.4-1-.8-1.2-.6l-1.4 1.6c-.6.7 2 2.4 2.5 2Zm-25.3-1.6c-.8.4-2 2.2-1.5 2.8s1.8 1.4 2.4 1c.7-.3 1.8-1.5 1.4-2.1-.3-.6-1.7-2-2.3-1.7m-10.5.5c-.8.3-2 1.5-1.6 2s1.3 1.4 1.8 1.2 1.4-1.4 1.3-2c0-.4-1-1.4-1.5-1.2m16.6-.3c-.7.4-2 1.7-1.7 2.2.5.7 1.6 2 2.1 1.5.7-.5 2-1.7 1.8-2.3s-1.7-1.7-2.2-1.4m7.2 2c-.2-.6-1.3-1.6-1.9-1.7s-1.7 1.2-1.4 1.6l1.6 1.5c.3.4 1.9-1 1.7-1.4m-62.6-1.4c-1 .4-2 2.2-1 3 .7.5 2 1 2.6.5s1.6-1.6 1.1-2.2-2-1.6-2.8-1.3m12.7 8.9q1.5-1.7 1.1-2.5-.8-1.2-1.7-1l-1.8 1c.4-.8 1.3-1.6 1-2l-1.1-2.3q1.8 1 2.5 1.1c.6 0 1.7-1.5 1.3-1.9l-1.7-1.5c-.4-.3-1.3 1-1.7 1.4l-3.3 3.2c.2.7 1.9 1.8 2.6 2.4s1.8 3.1 2.8 2Zm6.9-6.5c-.5-.8-1.2-2-1.9-2.4-.4-.3-2 .8-2 1.4s.7 1.7 1.2 1.7l2.1-.1c0 .6-.2 1.9.1 2.4s1.6.7 2 .3c.6-.5 1.1-1.8.6-2.1zm3-2.3c-.7.2-2 2-1.3 2.5.5.3 1.4 1 2 .9s1.5-1.3 1.4-2c-.1-.5-1.4-1.6-2-1.4Zm5.5 0c-.8.4-1.9 1.7-1.4 2.1s1.2 1.2 1.7 1.2 1.5-1.3 1.4-1.9-1.3-1.6-1.8-1.4m3.7 1.9c0 .6 1.7 1.6 2 1.2l1.5-1.8c.4-.3-1-1.5-1.5-1.5-.7 0-2 1.4-2 2m11.5-2c-.6.3-1.1 1.8-.7 2q1.3.7 2 .7c.8 0 1.3-1.4 1-1.8s-1.9-1.2-2.3-1Zm22.5 0c-.5-.2-1.5 1.6-1 2s1.3.7 1.8.9 1.3-1.7.8-2zm4.7.2c-.6.4-1.1 1.9-.7 2.2.3.3 1.3.8 1.6.5s1-1.3 1-1.8-1.5-1.2-1.9-1m-12.3 1.9c-.8.3-2 1.8-1.7 2.4s1.5 1.7 2 1.4 1.8-1.4 1.8-2-1.5-2-2.1-1.8m-23.7 2.7c.7 1.2 2.3.8 2.9-.1.4-.6-.2-2-1.1-2.2-.7-.2-2.3 1.6-1.9 2.3m6.5-2.5c-1 .2-1.4 2-1 2.6.4.4 1.6 1 2 .7a4 4 0 0 0 1-2.1c0-.5-1.5-1.3-2-1.2m6 3.7c.5.4 2-1.3 1.7-1.8l-1.6-2c-.3-.3-1.8.8-2 1.3s1.2 2 1.9 2.5m5.3-3.7c-1 .6-2 2.2-1.5 2.6.6.5 1.7 1.6 2.2 1.3.6-.5 1.5-1.7 1.5-2.4s-1.7-1.8-2.2-1.5Zm11.1.2c-.6.3-1.3 1.7-1 2q1 .8 1.7.9c.7 0 1.3-1.2 1.1-1.7s-1.4-1.5-1.8-1.2m4.7.2c-.5.1-.8 2-.4 2.2s1 .3 1.8.3c.4 0 .7-1.1.4-1.6s-1.3-1-1.8-.9m5-.2c-.5.2-1 1.9-.6 2.3.3.4 1.3.9 1.6.4l.7-1.7c0-.5-1.2-1.1-1.7-1m-67.7 2.5c.6-.5-1-2.6-1.8-2.4s-1.9 1.5-2 2.2c-.2.6 1 1.5 1.8 2.1zm8.9-2.1c-.7.4-1.1 2-.6 2.5s1.6.7 2 .3c.8-.5 1.1-1.7.7-2-.6-.4-1.7-1-2.1-.8m10.7 0c-.6.5-1.4 2-.9 2.3.6.3 1.7.7 2.2.5s1-1.2.8-1.7-1.6-1.4-2-1.1m5.6 0c-.8.2-1.7 1.7-1.2 2.1.3.3 1.3 1.4 1.6 1l1.2-1.7c.3-.4-1.2-1.7-1.6-1.5m7.7 2c-1 .6-1.7 2-1.3 2.6s1.6 1.4 2.1 1 1.4-1.6 1.3-2.2-1.6-1.7-2.1-1.4m5.7 0c-.8.2-2 2-1.5 2.5s1.5 1.2 2 1.2c.8 0 2-1.6 1.6-2.2-.4-.4-1.5-1.6-2.1-1.5m17.2 0c-.7.2-2.2 1.4-1.9 2s1.4 2 2 1.6 1.3-1.4 1.6-1.9-1-1.8-1.7-1.7m4.6.2c-.6.3-1.3 1.8-.8 2 .5.4 1.3.9 1.7.6.5-.2 1.2-1.2 1-1.7-.3-.4-1.5-1.1-1.9-1Zm-57 2.4-2.2-2.4-2.2 2c-.5.6 1 2.4 1.6 2.5s1.5-.8 2.8-2m8.6-2.1c-.8.3-1.8 1.6-1.4 2 .5.5 1.4 1.4 2 1.2s1.6-1.1 1.5-1.7-1.5-1.8-2-1.5Zm4.2 2.4q1.6 1 2.5.4c.4-.3.6-1.3.3-1.7-.5-.8-1.9-1.3-2.4-.8-.6.7-1 1.7-.4 2.1Zm6.5-2.4c-.7.4-2 1.7-1.5 2.1q1 .9 1.7 1c.6 0 1.7-1.2 1.5-1.8-.2-.4-1.3-1.5-1.7-1.3m4.8-.1c-.6.2-1.4 1.7-1.2 2.3s1.6 1 2.1.8 1.3-1.5 1-2c-.2-.5-1.4-1.3-1.9-1.1m18.6 1.9c-.1-.8-1.4-2.2-2-2s-1.7 1.5-1.3 1.9l1.6 1.6c.3.3 1.8-1 1.7-1.5Zm3.3-1.9c-1 .8-1.5 2.3-1 2.6.7.6 2 1 2.4.6.6-.5 1.3-1.6 1-2.2s-2-1.4-2.4-1m15.6 0c-.5.3-.4 2.1 0 2.3q.8.2 1.5 0c.4-.3.7-1.2.4-1.6-.2-.3-1.6-1-2-.7m-75.6 4.8q2.4-1.5 2-2.8c-.2-.7-1.4-1.6-2.2-1.7zm5.5-4.2c-.9.5-2 2-1.4 2.5.4.5 1.6 1.6 2 1.2.6-.4 1.4-1.5 1.5-2.2.1-.5-1.5-1.7-2-1.4m61.6 4c.7 1.4 2.3.9 3-.2.4-.6-.2-2.2-1-2.4-.8 0-2.3 1.8-2 2.6m-46.8 1.5c.7-.5 1.8-2 1.3-2.4-.5-.5-1.5-1.4-2-1-.6.6-1.4 2-1.1 2.5.1.5 1.4 1.2 1.8.9m15.4-3.4c-.8.1-1.7 2-1.2 2.4.5.2 1.5.5 2 .5s1.2-1.3 1-1.8c-.3-.5-1.3-1.2-1.8-1.1m5.3-.2c-.7.3-1.9 1.6-1.5 2 .5.6 1.2 1.4 1.8 1.4s1.5-1.1 1.4-1.7-1.2-2-1.7-1.7m5.3 0c-1 .5-2 2-1.4 2.5s1.6 1.5 2.2 1.3c.7-.4 1.6-1.7 1.4-2.4-.3-.5-1.7-1.7-2.2-1.4m6 0c-1 .5-2.1 2-1.6 2.5s1.5 1.3 2 1.2c.7-.2 2-1.6 1.5-2.2-.3-.4-1.5-1.7-2-1.4Zm9.3 1.9c-.3.6 1.5 2.2 1.9 1.8l1.7-2c.3-.3-1-1.6-1.5-1.7s-1.8 1.2-2.1 1.9Zm11.6-2c-.5.5-.8 1.6-.4 1.9.7.4 1.5 1 1.8.6q1-1 .8-1.7c-.2-.7-1.8-1.3-2.2-.9Zm7 4.4a7 7 0 0 0-1.1-4.4c-.5-.3-2.2 1.2-1.7 1.6zm-69.8-1.4a6 6 0 0 0-2-2.5c-.8 1-2 2.3-1.6 2.8s1.4 1.3 1.9 1.6 1.8-1.4 1.7-2m2.2.1c0 .6 1.9 1.7 2.2 1.2l1.7-1.8c.4-.5-1.2-1.8-1.8-2-.7 0-2 1.5-2 2.6Zm12.4-2.7c-.7.3-1.5 1.8-1 2.2s1.6 1.3 2.1 1c.7-.6 1.4-1.7 1-2.2-.2-.4-1.6-1.2-2-1m8.4 2.4-2.2-2.2c-.4-.4-1.6.4-2 .8s.5 2 1 1.9l2.4-.5q-.7 1.3-.7 2.2c.1.4 1.4 1.4 1.7 1l1.3-1.4c.3-.3-1-1.2-1.4-1.7Zm23.7-2.2c-.6.3-1 2-.5 2.5s1.6.7 2.2.3c.5-.4.7-1.6.3-2s-1.5-1-2-.9m-54.4.5c-.8 0-2.1 1.6-1.7 2.2s1.5 1.7 2.1 1.4 2-1.5 1.7-2.2c-.2-.5-1.6-1.5-2.2-1.4m69.5 4.1c.9-.8 1-2 .3-2.6s-1.7-.3-2.6.5c-.5.5-.4 1.8.1 2.2.5.3 1.8.3 2.2 0m3.6-2.7c-.5 0-.9 1.9-.4 2s1.5.5 2 .4.7-1.7.2-2c-.3-.2-1.4-.5-1.8-.4m-53.5.4c-.7.2-1.8 1.8-1.4 2.4s1.7 1.1 2.3.9 1.5-1.7 1.1-2.2-1.5-1.3-2-1.1m4.2 2c.5.8 2 1.4 2.3.9s.9-1.4.7-1.9c-.1-.6-1.5-1.2-2-.8-.3.3-1.3 1.5-1 1.9Zm11.6-2c-.7.3-1.5 1.7-1 2 .6.5 1.7 1 2.1.7s1-1.2.8-1.7-1.4-1.3-1.9-1M90 462c0-.7-1.7-2-2.4-2-.5.2-1.6 1.8-1.2 2.2l2 1.5c.4.3 1.6-1.2 1.6-1.7m3.5-1.7c-.9.5-2 2-1.4 2.3.6.5 1.5 1.6 2 1.2s1.5-1.6 1.5-2.3c0-.5-1.6-1.5-2.1-1.2m5.8 0c-.9.3-2 1.5-1.6 2 .5.5 1.3 1.7 1.9 1.5s1.4-1.2 1.5-1.8-1.2-2-1.8-1.8m5.4 0c-.8.4-2 1.6-1.6 2 .4.5 1.2 1.2 1.7 1.1s1.5-1.2 1.5-1.8c0-.5-1.2-1.4-1.6-1.2m3.6 1.6c-.2.5 1.4 1.9 1.8 1.4l1.4-1.5c.4-.3-.7-2-1.2-2-.6.3-1.8 1.4-2 2Zm-58.5-.8c-.8 0-2.2 1.8-1.7 2.2s1.4 1.8 2 1.6 1.7-1.3 1.7-2-1.4-2-2-1.8m12.7 2c.5-.5.4-1.8 0-2.3-.6-.4-2-.2-2.6.5-.8.7-.7 2 0 2.5.5.4 1.9 0 2.6-.7m-17.5 13 4.2-4.8L47 469q-.8-.9-2.1-3l2.4 1.7 1.9-1.6c.4-.4-.9-1.9-1.5-2l-2-.2c.1-.4.3-1.5 0-1.9s-1.4-.8-1.6-.6c-.2 1.7-.1 3.3.4 3.8-.5 1.6-1 4.5.8 6.2q-1 .8-1.2 2.4l.2 5.6c0 1 2.2 3.1 3.8 3.2.5 0 1.1-1.5.8-1.8-1.1-1.1-3-3.3-3.9-4.7m11.4-9.5q1.5.2 2.6 0c.5-.3 1-1.9.5-2.2-3.3-2.5-3.5-4-4.5-3.2-.5.3-1.2 1.3-1.2 1.8s1 1.8 1.6 1.6l2.1-1a27 27 0 0 1-3.7 4.5c-.4.4.6 2 1.2 1.9s1.8-.7 1.7-1.2zm63-2c.5-.5.3-1.9-.3-2.5-.4-.5-1.5 0-2.4.8-.4.4-.2 1.9.4 2.4q.8.5 2.3-.8m4.8.8-.6-3.9q-1.7 1.3-1.7 2.1c.1.5.7.8 2.3 1.8m-49.7-2.8c-.7.4-1.3 2-1 2.4s1.6.9 2 .6q.9-.7.9-1.8c-.1-.5-1.4-1.4-1.8-1.2Zm5.4 0c-.7.5-1.8 1.7-1.4 2 .5.5 1.6 1.2 2.1 1s1.3-1 1.3-1.6-1.5-1.7-2-1.4m7.5 1.9c-.3-.7-1.6-2-2.2-2s-1.8 1.8-1.3 2.2l2 1.5c.4.4 1.7-1.3 1.5-1.7m23.4.1c.2.7 2.1 1.5 2.4 1l1-1.7c.3-.4-1-1.5-1.5-1.5-.7-.1-2.1 1.5-2 2.2Zm-42.6 2.3c-.3-.4-1.3-1.6-1.6-1.5l-1.3.8c.4-1 .2-2.6-.7-3.2-.7-.4-2.3.7-2.8 1.6-.4.6 1 1.6 1.7 2.2l2.4 2.8c.8-.3 2.8-1.9 2.3-2.7m2-1c.8-.7 1.4-2 1-2.3-.6-.4-1.9-.8-2.3-.6-.7.5-1.4 2-.9 2.4.6.5 1.8 1 2.2.6m20.2-2.7c-.6.6-1 2-.5 2.3.6.4 1.5 1.2 1.9.9.5-.6 1-1.8.8-2.3-.3-.4-1.7-1.2-2.2-.9Zm5.9-.2c-.7.4-1.9 1.8-1.4 2.2.6.6 1.6 1.3 2.2 1.1s1.5-1.3 1.4-1.9-1.7-1.7-2.2-1.4Zm5.3 0c-.7.5-1.3 2.2-.9 2.6s1.4.8 1.8.5 1.1-1.3 1-2c0-.4-1.5-1.3-1.9-1m5.5 0c-.7.3-1.6 1.7-1.2 2.1.3.4 1.6 1 2 .6s.7-1 1-1.6c.2-.4-1.4-1.4-1.8-1.1Zm-54.4.9c-.8.2-2.2 2-1.8 2.4s1.6 1.4 2.1 1.2c.7-.2 1.5-1.4 1.5-2s-1.2-1.8-1.8-1.6m66.2 2.6c-.2.6 1.6 2 2 1.5l1.6-1.9c.4-.4-1-1.9-1.7-1.8s-1.7 1.4-2 2.2m-4.1-1.6c-.8.7-1.6 2.1-1.2 2.5.5.5 1.7 1.4 2 1q1-1 1.3-2.1c.3-1.1-1.7-1.7-2.1-1.4m-42 3.6c.8-.7 1.2-2 .8-2.5q-1.2-1.1-2.6 0c-.4.4-.6 1.8-.3 2.2s1.6.6 2 .3m4.1-3.2c-.7.4-1.4 1.9-.9 2.2.7.6 1.6 1.4 2 1 .8-.7 1.4-1.7 1-2.2-.2-.4-1.6-1.2-2-1Zm5.4 0c-.7.4-1.5 2.1-.8 2.5q1.5 1 2.3.7c.6-.4 1.3-1.6.9-2-.5-.6-1.8-1.4-2.4-1.1m8 2.4c.2-.7-1.4-2.3-2-2.1s-1.8 1.7-1.4 2l1.7 1.6c.3.3 1.5-.9 1.6-1.5Zm14.3-2.2c-.8.3-2 1.6-1.6 2s1.3 1.3 1.7 1.1c.6-.2 1.4-1.1 1.5-1.7s-1.2-1.5-1.6-1.4m4.7-.1c-.7.4-1.3 2-.8 2.5.3.3 1.3.9 1.6.5a4 4 0 0 0 1.1-1.8c0-.5-1.5-1.5-2-1.2m-48.8.7c-1.1.6-2.1 2-1.6 2.5.8.6 1.7 1.3 2.3 1.2.6-.3 1.6-1.6 1.4-2.2s-1.6-1.7-2.1-1.5m32.7-.1c-.8.3-1.1 2.2-.4 2.5q1 .4 1.8.4c.6-.1 1.3-1.6.9-2-.3-.4-1.8-1.1-2.3-.9m5.5 0c-1 .6-1.3 2-.7 2.4s1.3.8 1.7.5c.5-.5 1.2-1.6 1.1-2.1s-1.7-1.2-2.1-.9m-49 .8c-.6.3-2 1.9-1.4 2.3s1.6 1.5 2 1.2c.6-.4 1.8-1.5 1.5-2.1-.2-.5-1.5-1.7-2-1.4m74.3 4.9v-5.1l-2.8 2.5zm-8-2.2c0 .6 1.3 2 1.8 1.6l2-1.7c.4-.3-1.1-1.7-1.7-1.9s-1.8 1.3-2 2m-41.5-1.7c-1 .5-2 2-1.5 2.5s1.5 1.3 2 1c.6-.2 1.8-1.3 1.6-2-.2-.5-1.6-1.7-2-1.5m7.7 1.9c-.3-.8-1.6-2-2.2-1.9s-1.8 1.8-1.3 2.2l2 1.6c.3.4 1.6-1.4 1.5-2M107 468c-.7.3-2.1 1.7-1.6 2q.9.8 1.8 1.2c.6 0 1.5-1.3 1.4-2 0-.4-1.1-1.5-1.6-1.3m4.9-.2c-.7.4-1.7 1.8-1.2 2.2.7.6 1.7 1.3 2.2 1 .7-.5 1.4-1.9 1-2.3s-1.6-1.1-2-.9m-41.3 3c.5-.5 0-2.3-.7-2.5q-1-.2-2.3 1c-.6.4-.4 1.7.1 2.4q1.2 1 2.9-1Zm17.1-.7c0-.6-1.3-1.9-2-1.9-.5 0-2 1.4-1.6 1.8l1.8 1.7c.4.3 1.8-1 1.8-1.6m3.3-1.6c-.8.4-1.5 2.1-1 2.5s1.6.7 2 .6c.6-.2 1.4-1.4 1-2-.3-.4-1.5-1.2-2-1m5.3 0c-.6.2-1.4 1.7-1.1 2s1.3 1.4 1.7 1 1-1.2 1.3-1.7-1.4-1.5-2-1.3m4.7 0c-.8.7-1 2-.5 2.3q1.3 1 1.8.5c.5-.5 1.2-1.7 1-2.3 0-.4-1.8-.8-2.3-.5m-43.5.5c-.9.4-1.6 2.1-1.2 2.6s1.5 1.4 2 1c.6-.5 1.4-1.5 1.4-2.1s-1.7-1.8-2.2-1.5m3.8 2q2.1 1.6 2.6 1.1l1.2-1.7c.3-.4-1.2-1.8-1.5-1.6zm-9-1.5c-.5.2-1.6 1.7-1.3 2.2s1.5 1.2 2 .9 1.4-1.5 1.2-2c-.3-.4-1.4-1.2-1.8-1m67.7.7c-.9.6-1.6 2.5-.9 3 .5.4 1.7.9 2.2.5s1.5-1.7 1-2.2-1.8-1.5-2.3-1.3Zm-47.7 4.1c.6-.6 1.7-1.7 1.4-2l-1.5-1.6c-.3-.3-1.4.6-2 1.1-.4.4-.4 1.7 0 2s1.7.9 2.1.5m4.8-3.7c-.8.5-1.8 2.1-1.2 2.7s1.8 1.6 2.4 1c.8-.6 1.5-1.7 1.1-2.3s-1.7-1.7-2.3-1.4Zm6.2 3.8c.5.4 2-1.2 1.8-1.8s-1.3-1.6-2-1.8c-.5-.2-1.7 1.2-1.5 1.8.1.4 1 1.4 1.7 1.8m15.5-3.4c-.7.4-1.4 1.8-1 2.3.2.4 1.4.9 1.8.6s1-1.2 1-1.8c-.1-.4-1.4-1.3-1.8-1m6.2 2.7c.5-.5 1.2-2 .8-2.3-.5-.5-2-1-2.3-.4q-.8 1.5-.5 2.3c.1.4 1.6.7 2 .4m3.9-3c-.6.5-.9 2-.4 2.6.4.5 1.6.7 2.1.2s.9-1.6.4-2-1.6-1-2.1-.7m5.7-.2c-.7.4-1.4 1.8-1 2.3s1.6 1.3 2 1c.6-.6 1.2-1.5 1-2.1-.2-.5-1.5-1.4-2-1.2Zm-48.8.9c-.8.5-2 2-1.5 2.4s1.5 1.4 2 1.1 1.4-1.4 1.4-2-1.5-1.8-2-1.5m22.4-.2c-.7.5-1.4 1.7-1 2.2.6.5 1.6 1.2 2.1.9.6-.5 1.4-1.7 1-2.1s-1.7-1.3-2-1Zm5.3 0c-.5.5-1.3 1.8-.9 2.2s1.6.9 2 .6 1-1.2.9-1.7-1.6-1.4-2-1ZM48.7 473c-.3.4 0 2 .5 2l2.1-.1c0 .7-.1 1.8.2 2.3.2.4 1.2 1 1.5.6s1.5-1.3 1.2-1.7c-4.4-3.6-3.7-5.3-5.5-3.1m5.8-.9c-.8.4-1.4 2-.8 2.4s1.6.8 2 .7c.7-.1 1.3-1.7.9-2.2-.4-.4-1.6-1-2-.9m6-.3c-.7.3-1.9 1.6-1.6 2.2.3.5 1.7 1.6 2 1.2l1.5-2c.3-.5-1.4-1.6-2-1.4m63.8 6-.3-5.3c-.8.4-2.3 1.7-2.3 2.6 0 .8 1.5 2.2 2.6 2.8Zm-17.7-4.6c-.7.4-1.7 2-1.2 2.6.5.5 1.4 1.3 1.9.9.7-.5 1.5-1.5 1.4-2.1s-1.5-1.7-2-1.4m5.7 0c-.8.3-2.1 1.7-1.6 2.1a5 5 0 0 0 1.8 1.1c.6.1 1.8-1.2 1.5-1.8-.2-.5-1.2-1.6-1.7-1.4Zm7.4 1.7-1.8-1.7c-.5-.5-2.1 1.2-1.8 1.8s1.2 1.5 1.8 1.9c.5.2 1.8-1.4 1.8-2m-52.8.7c-.3.5.9 2 1.5 2q.8-.2 2-1.4c.6-.6-.5-2-1.3-2.3-.6-.2-1.6.9-2.2 1.7m7.2-2c-1 .5-2.1 2-1.5 2.6.8.7 2 1.7 2.4 1.2.7-.6 1.7-1.6 1.6-2.2s-1.9-2-2.5-1.6Zm1.2 5c.6.8 1.8 2.4 2.2 2l2-1.8c.5-.4-.6-1.4-1-2.5.8.2 2 1.5 2.4 1l1.6-1.8c.3-.4-1.2-1.9-1.8-1.9-1 0-2 1.7-2.6 2.4-.8.7-2.8 1.9-2.8 2.6m10.4-4.9c-1 .3-1.5 2.2-1 2.6s1.5.7 2 .6c.6-.2 1.4-1.5 1-2-.2-.5-1.5-1.3-2-1.1m5.5.1c-.7.1-1.8 1.8-1.3 2.2.5.3 1.3 1 1.8.8s1.4-1.4 1.2-1.9-1.2-1.2-1.7-1m5 0c-.6.2-1.3 1.7-1 2 .5.3 1.2 1 1.7.8s1.1-1.1 1.2-1.6-1.4-1.5-1.9-1.3m5-.2c-.6.3-1.4 1.7-1 2 .5.5 1.5 1.3 2 1 .5-.5 1.3-1.6 1-2-.3-.5-1.6-1.2-2-1ZM49.8 480c.3.3 1.6-.1 1.7-.6 0-.3-.2-1.3-.5-1.6l-3.1-3.3c-.5-.6-2.4 1.4-1.9 1.7zm14-2.5c.7-.7 1.5-2 1.1-2.3l-1.4-1c-.4-.3-1.1.5-1.6 1-.4.3-.3 1.6 0 2 .2.5 1.5.7 1.9.3m-6.4-2.9c-.6.3-1.4 1.8-1 2.2s1.5 1.4 1.9 1q1-1.1 1-2c0-.6-1.4-1.4-1.9-1.2m36.5 1.5c-.6.2-1.9 1.5-1.6 2 .3.3 1.3 1.3 1.7 1 .5-.2 1.1-1 1.4-1.5s-1-1.6-1.5-1.5m4.8 0c-.7.3-1.4 2-.9 2.3q.9.6 1.8.6c.5-.3 1.3-1.3 1-1.8s-1.5-1.4-2-1.1m5.2 0c-.7 0-1.4 2-.8 2.3q.8.6 1.7.6c.6-.1 1.3-1.2 1-1.7-.2-.4-1.4-1.4-1.9-1.3Zm5.4-.2c-.8.6-1.7 2-1.2 2.4.7.5 1.4 1.5 1.9 1.1.6-.5 1.3-1.5 1.4-2.1s-1.6-1.7-2.1-1.4m5.3 0c-1 .4-1.5 2.2-.9 2.6s1.6.8 2 .7c.7-.2 1.3-1.6 1-2.2-.2-.5-1.6-1.3-2.1-1Zm5.3.3c-.6.5-1 2.2-.4 2.5.8.5 1.5 1 2 .6.6-.6 1.5-1.8 1-2.2-.7-.6-2-1.4-2.6-1m-54.2.6c-.8.3-2 1.8-1.7 2.4s1.6 1.4 2 1.1c.7-.3 1.7-1.3 1.7-2s-1.4-1.6-2-1.5m8.3 1.6c-.6-.5-1.8-1.5-2.5-1.8-.5-.3-2 1.3-1.8 1.9s1 1.8 1.6 2 1.4-1 2.7-2.1m8.9-2c-.7.2-1.7 1.9-1.3 2.4s1.7 1.3 2.2 1 1.5-1.7 1.2-2.2-1.6-1.3-2.1-1.2m5.1.2c-.6.6-1 1.9-.4 2.2.8.4 1.5.9 2 .5q1-1 1-1.8c0-.8-2-1.3-2.5-1Zm-33 .7c-.7 0-1.6 1.8-1.1 2l1.7 1c.4.2 1.3-1.2 1.2-1.7s-1.3-1.4-1.8-1.3m5-.1c-.7.3-1.6 1.7-1.2 2.1s1.6 1.4 2.1 1 1.3-1.6 1-2.1-1.5-1.2-2-1Zm52.2 1.4c-.8.1-1.8 1.8-1.4 2.4.3.4 1.4 1.3 2 1.2s1.5-1.5 1.4-2.2c-.1-.5-1.4-1.5-2-1.4Zm11.4 3.5c1-.7 1-3.2 0-4l-2 2.2c-.4.5 1.5 2.1 2 1.8m-39.7-.4 2 .5c.4.1 1.2-.7 1.8-1.2.4-.3-.4-1.6-1-2-.4-.3-1.5.5-2 1-2.7 3.1-4.6 3.4-3.3 5 .3.3 1.4.7 1.8.4.6-.6 1.4-1.3 1.3-1.7zm7.9 0c.5-.6 1-2 .7-2.4s-1.5-.7-1.7-.3c-.4.5-.9 1.4-1 1.8s1.6 1.2 2 .9m3.9-2.9c-.8.7-1.2 1.9-.7 2.1q1.4 1 2 .7 1-1 1-1.9c0-.9-2-1.2-2.3-.9m5.4 0c-.7.3-1.3 1.7-.7 2s1.6 1 2 .7c.5-.5 1.1-1.4 1-1.8s-1.9-1.2-2.3-1m5 0c-.8.6-.9 2.2-.3 2.5.6.4 1.4 1 1.8.6.6-.5 1.3-1.7 1-2.1-.5-.5-2-1.2-2.5-1m10.6 2.4c.5.5 1.6 1.1 2 .8s1.5-1.3 1.1-1.7l-1.4-1.5c-.3-.3-1.6.4-2 .7s-.2 1.4.3 1.7m-62.4.3c-.2-.7-1.1-1.8-1.6-1.8s-1.6.7-1.4 1.2l1.2 2c.2.4 1.9-1 1.8-1.4Zm8.4-1.8c-.7.4-1.7 1.9-1.3 2.3.6.4 1.5 1.5 2 1.2.5-.5 1.4-1.5 1.2-2.1 0-.5-1.4-1.7-2-1.4Zm5.5-.2c-.9.6-2 2-1.5 2.5.6.7 1.9 1.7 2.4 1.3.6-.6 1.5-1.5 1.4-2.2s-1.8-2-2.3-1.6m8.6 1.9c-.5-.6-1.8-2.2-2.5-2-.9.4-2.2 1.8-1.8 2.3s1.3 1.4 1.9 1.7 1.4-1 2.4-2m4.3 1.2c.8-.8 1.2-2 .7-2.6s-2-.7-2.5-.2q-1.4 1.5-.5 2.5 1.3 1.4 2.3.3m-24-2.5c-.4.2-1 1.9-.4 2.3.4.3 1.3.9 1.6.5q.9-.9 1-1.8c0-.5-1.6-1.3-2.1-1Zm29.7 3.3c-.2.4 1.6 1.6 1.9 1.2l1.4-1.6c.3-.4-.5-1-1.2-1.7a6 6 0 0 0-2 2Zm6.5-2c-.9.2-1.4 2-.8 2.3.4.4 1.3.9 1.8.6s1-1.3 1-2c0-.4-1.5-1.1-2-1m5.3-.1c-.7.3-1.3 2-.8 2.4s1.4.8 1.8.5 1.2-1.3 1-1.9c0-.5-1.5-1.2-2-1m7.4 1.7c0-.6-1.3-2-1.9-1.8-.5 0-1.7 1.4-1.3 1.8l1.4 1.3c.4.4 1.8-.8 1.8-1.3m3.4-1.5c-.9.4-1.5 2-1 2.3s1.6.8 2.1.8c.6-.1 1-1.5.7-2s-1.4-1.4-1.8-1.1m5.8 0c-.7.2-2 1.8-1.5 2.3s1.5 1.5 2 1.2c.7-.2 1.6-1.4 1.5-2s-1.5-1.8-2-1.6M47.4 488c.6.4 2.3-1.5 1.7-2.1l-1.7-1.7-2.6-2.6c-.6 1.1-1 3.7-.2 4.3zm5.3-.2c.4.5 2-1.4 1.5-2l-2.8-2.9c-.5-.5-1.3-1.1-1.7-.8s-1.6 1.3-1.2 1.6l1.6 1.3q1 .8 2.5 2.7m69.3 1.7v2.2c-.1.4 1 1 1.7 1.2.6-1.6.6-4 .2-5.4-.2-.7.7-2.6.3-3l-2-1.9c-.4-.4-1.7-1-2.2-.8s-1.1 1.4-.8 2 1.3 1.5 1.8 1.1l1.8-1.6-1 2.4c-.6 1.4 2.4 2.6 1.5 3-.4.2-1.2.6-1 .4-.2-.9-1.4-2.4-1.8-2l-1.6 1.3c-.4.4 1 1.9 1.5 1.7zm-66.9-7.1c-.7 0-1.6 1.7-1 2q.7 1 1.5 1c.8 0 1.3-1.2 1.2-1.7s-1.2-1.4-1.7-1.3m7 2c0-1.1-1.7-2.4-2.3-2s-1.4 1.8-1 2.2l1.8 1c.3.3 1.4-.8 1.4-1.2Zm5.9-.2-2.1-1.8c-.5-.4-2 1.2-1.9 1.9s1.2 1.7 1.9 1.7 1.4-1 2-1.8m6 .2-2.5-2.5-2.3 2.4c.7.8 1.9 2.3 2.4 1.9zm1.4.2c.4.7 1.8 2 2.2 1.5l1.6-2c.3-.3-1-1.7-1.5-1.7-.9-.2-2.7 1.4-2.3 2.2Zm20.9-.8c-.8.2-2 1.5-1.6 2 .5.5 1.3 1.3 1.8 1.2s1.5-1.3 1.6-1.9c0-.5-1.3-1.4-1.8-1.3m5.3 0c-.7.1-2 1.6-1.5 2s1.5 1.3 2 1.1 1.4-1 1.4-1.6-1.4-1.6-2-1.5m-15 3c.6-.3.5-2 0-2.3s-1.8 0-2.2.5c-.6.8-1.2 1.5-1 2s1 1.3 1.4 1zm3.9-2.8c-.7.4-1.5 1.9-1.2 2.4s1.7 1.3 2.2.8 1.4-1.5 1.2-2.1c-.2-.5-1.8-1.4-2.2-1.1m18.3 2c.2-1.5-1.7-2.6-2.8-1.7s-.1 2 .6 2.7c.5.6 2.1-.1 2.2-1m5.6 0c0-.5-1.2-1.7-1.7-2-.5-.2-2.1 1.5-1.7 1.9l1.7 1.9c.4.4 1.7-1 1.7-1.7m3.3-1.7c-.7.6-1.4 2-1.1 2.5s1.4 1.2 1.8.8 1.1-1.3 1.2-1.8-1.5-1.8-2-1.5m-60.3.8c-.8.2-1.2 1.8-.7 2.2.5.3 1.4.9 1.8.7.6-.2 1.3-1.6.9-2s-1.5-1-2-1m20.8 1.9c-.2.5 1.4 2 1.8 1.6q.9-1 1.5-2c.3-.3-.9-1.6-1.4-1.6-.6 0-1.7 1.3-2 2Zm-13.3.1c0-.6-1.5-2-2.1-2-.5.2-1.6 1.6-1.3 2l1.6 1.5c.3.4 1.7-.9 1.8-1.5m5.7.2c-.2-.7-1.4-2-2-2s-2.1 1.5-1.7 2 1.4 1.2 2 1.5c.4.3 1.9-1 1.7-1.5m2 .5c.8 1 2.2 1.3 3 .5.9-1 .3-2.5-.8-3-.9-.3-2.8 1.7-2.2 2.6Zm13.4 1.7c1.2 2 2.4 1 3.2 0 .7-.8.4-2.4-.8-2.7-1-.3-3 1.9-2.4 2.7m5.7-1.2c-.3.5 1.3 2 1.8 1.7s1.3-1 2-1.7c.3-.4-1-1.9-1.6-1.8s-1.8 1.2-2.2 1.8m7-1.8c-.7.1-1.5 1.8-1 2.2s1.6 1.3 2 1c.7-.4 1.5-1.7 1.2-2.2-.4-.4-1.6-1.2-2.1-1m7.5 2c0-.8-1.4-2.1-2-2s-1.7 1.4-1.3 1.8l1.6 1.6c.3.4 1.8-.9 1.8-1.4m3.8 1.7c.4.4 2.1-1.2 1.8-1.7s-1-1.2-1.7-1.7c-.4-.4-1.4 1-2 1.6zm-64.3.3q.2 1.6 1 2.8c.4.5 1.8-.5 2.3-1 .3-.6-.6-1.6-1.2-2.2l-3.3-3.3-.2 9.7c1.2-.5 2.5-1.8 2-2.4l-1.4-2.1c-.3-.4.8-1.8.8-1.5m4.8.2c.5-.5 1.9-1.9 1.5-2.2l-1.5-1.4c-.3-.4-1.4.8-1.9 1.3-.3.3 0 1.2.2 1.6.4.4 1.4 1 1.7.7m6.7-1.7a5 5 0 0 0-1.8-1.8c-.5-.2-2 1.3-1.5 1.7l1.6 1.6c.4.4 1.8-1 1.7-1.5m58-1.8c-.7 0-1.6 1.8-1.1 2.1l1.7 1c.5.2 1.4-1.2 1.1-1.7s-1.2-1.4-1.8-1.4m-52.8 2.4c0-.6-1.4-1.9-2-2-.5-.2-1.6 1.4-1.2 1.7l1.6 1.6c.3.3 1.6-.8 1.6-1.3m5.4.4c.2-.7-1.3-2-2-2s-1.7 1.5-1.3 2l1.6 1.4c.4.3 1.6-.8 1.7-1.4m7.5.3c.2.5 1.8 1 2.2.7s1-1.2 1.1-1.7c0-.5-1-1.3-1.4-1.3-.8 0-2 1.5-1.9 2.3m7.2.4c.8-.4 1.6-2 1.1-2.5-.4-.3-1.7-.8-2-.3q-.8 1.2-.8 2c0 .7 1.3 1 1.7.8m-11.3-2.4c-.8.4-1.6 1.8-1.2 2.2.7.5 1.7 1.2 2.3 1s1.2-1.7.9-2.2c-.3-.4-1.5-1.2-2-1m25 .8c-.8 0-2 1.8-1.7 2.5s1.6 1.4 2.1 1.2c.6-.4 1.4-1.4 1.7-2.1.2-.6-1.4-1.6-2-1.6m5.4 0c-.8.4-1.7 1.9-1.2 2.3s1.4 1.6 1.9 1.3c.7-.5 1.8-1.7 1.4-2.2-.3-.5-1.6-1.7-2-1.4M51 491.5c-.3.5.8 2 1.4 2s1.6-1 2.3-1.6c.5-.5-.7-2-1.4-2.2s-1.8 1-2.3 1.8m40.2 1.6c.6-.6 1.6-1.8 1.3-2.1l-1.5-1.5c-.4-.3-1.5.7-2 1.2-.3.4-.2 1.6 0 2s1.8.8 2.1.4Zm18-1.7c0-.7-1.5-2.2-2.1-2s-1.7 1.6-1.3 2l1.5 1.6c.4.3 1.8-1 1.9-1.6m3.6-1.5c-.7 0-2 1.5-1.5 2s1.3.9 1.8 1c.5.3 1.6-1.2 1.4-1.8-.2-.4-1.2-1.3-1.7-1.2Zm4.8 0c-.7.5-1.2 1.8-.8 2.2s1.5.9 1.9.6c.5-.3 1-1.4.8-2-.3-.3-1.5-1.1-1.9-.8ZM56.4 496l3.4-3.3c.5-.5-.1-1.7-.9-2.4-.5-.5-1.9.3-2.5 1l1.7 2.8c-1.1-.8-2.2-1.9-2.9-1.5-.8.5-1.9 1.8-1.5 2.4.6.8 2.1 1.6 2.7 1m28.1-5.8c-.8.4-1.9 2-1.3 2.4s1.4 1.3 1.9 1 1.6-1.3 1.5-1.9-1.6-1.8-2-1.5m-19.2 2.4c.2-.8-1.7-2.3-2.3-1.9-1.2.7-1.2 2-.4 2.6 1 .8 2.3.6 2.7-.8m5.4.2c0-.6-1.3-1.8-2-1.8-.4 0-1.6 1.2-1.3 1.6L69 494c.4.3 1.7-.7 1.8-1.2m1.9.2c.2.5 1.6 1.5 2 1s.9-1.3 1-1.7-1-1.5-1.5-1.3-1.7 1.4-1.5 2m7.8.3c.7-.8.6-2.2 0-2.5-.3-.2-1.3 0-2 .3s-.8 1.6-.4 2.1q1 1.3 2.3.1m10.9 1.2c0 .6 1.6 2.2 2 1.7l2-2c.5-.4-1-1.8-1.7-1.9-.8-.2-2.3 1.3-2.3 2.2Zm9.7-.6c.5-.7-1.7-2.5-2.3-2-.8.9-2 1.9-1.6 2.3l2 1.7c.3.3 1.3-1 2-2m3.5-1.8c-.7.3-1.8 2-1.3 2.3.7.6 1.5 1.5 2 1.3.7-.3 1.8-1.6 1.5-2.2-.3-.5-1.6-1.6-2.2-1.4m16 .2c-.6.3-1.7 1.4-1.4 1.9s1.2 1.4 1.7 1.3 1.5-1 1.5-1.6-1.2-1.7-1.7-1.5ZM50 496.5l2.1-2-2.1-2.2-2 2.1zm35.8-1.8c-.2.6 1.3 2 1.7 1.6l1.8-1.8c.3-.4-1-1.9-1.5-1.8-.7 0-1.9 1.3-2 2Zm23.7-2.2c-.6.5-.7 2.2-.3 2.6.6.4 1.7.7 2 .2.6-.6 1-1.7.6-2-.4-.5-1.9-1-2.3-.8Zm5.6 0c-.8.5-1.3 2.1-.8 2.5s1.4.7 1.7.4q.9-.7 1-1.8c0-.5-1.5-1.4-2-1.1ZM62.9 495c0-.8-1.7-2.3-2.3-2q-1.8 1.4-.4 2.8c1 .8 2.4.6 2.7-.8m3.3-1.6c-1 0-1.5 2-.9 2.4q.8.5 1.9.5c1 0 1.2-1.3.9-1.8s-1.4-1.1-1.9-1.1m10.1 0c-.5.2-1.6 1.7-1.2 2s1.4 1.3 1.9 1 1.1-1.3 1.1-1.8-1.2-1.3-1.8-1.2m5.1-.3c-.7.5-1.3 2.1-.8 2.6.3.4 1.6 1 2 .6s1-1.5 1-2.1-1.7-1.5-2.2-1.1m-10.2.6c-.8.3-1.4 1.6-1 2 .6.4 1.5 1 2 .7s1-1.2.8-1.6-1.4-1.2-1.8-1Zm23 3.8c.6.9 2.2 1.7 2.6 1.2l1.3-1.8c.3-.5-1.1-1.7-1.6-2-.8-.3-2.7 1.8-2.3 2.6m7.4-2.6c-.8.5-2 2.2-1.4 2.6.7.6 1.6 1.5 2 1.2 1-.6 1.9-1.7 1.7-2.3s-1.7-1.9-2.3-1.5Zm5.9.1c-.8.3-1.8 1.7-1.3 2.1q1 .9 1.8 1.2c.6.2 1.7-1.5 1.4-2s-1.4-1.5-2-1.3m5.3 0c-.7.2-1.8 1.7-1.4 2 .3.4 1.1 1.2 1.6 1.2s1.5-1.2 1.4-1.8c0-.5-1.2-1.4-1.6-1.3Zm4.8 0c-.6.5-1.1 2-.6 2.3q.9.6 1.8.6c.5-.1 1.1-1.5.7-2-.3-.3-1.5-1.1-1.9-.8Zm6.2 3.7q.6-1.8-.2-4c-.8.5-2.1 1.6-1.8 2zm-69-1.4c-.2-.5-1.3-1.6-1.8-1.9-.6-.4-2.4 1.3-2 1.8s1.3 1.5 2 2c.4.3 1.7-1.3 1.7-1.9m3.4-1.7c-.8.2-1.7 2-1.2 2.4.7.6 1.9 1.4 2.4 1 .7-.5 1.6-1.8 1-2.3-.4-.4-1.6-1.3-2.2-1.1m27.1 3.4c.7-.7 1-2.3.6-2.7s-1.5-.8-1.9-.5c-.6.6-1.3 2-1 2.5s1.8 1.2 2.3.7m4.7-3.6c-.7.2-2.2 1.7-1.7 2.2.6.7 1.5 1.7 2.2 1.4s1.9-1.5 1.6-2.1c-.3-.5-1.5-1.6-2.1-1.5m-26.5.6c-.8.5-1.4 1.8-.9 2q1.3 1 2.1.8c.8-.2 1.2-1.5.8-1.9s-1.6-1.1-2-.9m5 .1c-.7.5-1 2-.6 2.3.5.4 1.3 1 1.6.6q1-1 1-1.8c0-.5-1.6-1.3-2-1.1m5.1 0c-.6.6-1.4 1.6-1 2 .7.6 1.6 1.4 2 1 .5-.6 1.3-1.6.9-2-.4-.5-1.5-1.3-1.9-1Zm5.2-.1c-.7.3-1.5 1.8-1.1 2.2.6.6 1.6 1.3 2 1 .7-.5 1.5-1.7 1.1-2.2-.2-.4-1.6-1.3-2-1m36.4 1.5c-1 .2-1.4 2-.8 2.3s1.4.7 1.9.7c.5-.1 1.4-1.7 1-2s-1.6-1-2.1-1m5.3 0c-.7.1-1.5 2-1 2.3.3.4 1.5.9 2 .7s1.2-1.3.8-1.8c-.2-.4-1.3-1.2-1.8-1.1M52 499.9l-2-2.2-2 2.4 2.5 1.8c.5.3 2-1.6 1.5-2m40.8-1.7c-1 .3-2.1 2-1.6 2.5.7.5 1.7 1.3 2.3 1.1.7-.1 1.7-1.6 1.5-2.2s-1.6-1.6-2.2-1.4m5.9-.1c-1 .3-2.1 2-1.6 2.5.7.5 1.6 1.4 2.1 1.1.7-.3 1.9-1.5 1.7-2.2-.1-.6-1.6-1.6-2.2-1.4m7.3 2.8c1.5-1 .6-2.6-.2-3-.6-.3-2 .4-2.6 1-.3.5 0 1.8.4 2s2 .3 2.4 0m4-3c-.6.1-1.5 1.6-1.2 2s1.5 1.4 1.9 1c.5-.6 1.2-1.3 1.1-2 0-.4-1.4-1.2-1.8-1Zm-54.7.6c-.9.4-1.6 2-1 2.5s1.6 1.3 2.2 1c.8-.6 1.6-1.9 1.1-2.4s-1.8-1.3-2.3-1.1m11 .1c-.7.5-1.4 1.7-1 2s1.2 1.2 1.6 1c.4-.4 1-1.3 1.2-1.8s-1.4-1.5-1.8-1.2m10 .1c-.7.3-1.3 2-.9 2.4s1.4.8 1.8.7c.6-.3 1.3-1.5 1-2-.3-.3-1.5-1.3-2-1m5.3 0c-.8.4-1.8 1.9-1.3 2.3s1.4 1.3 1.8 1c.6-.3 1.6-1.3 1.5-1.9s-1.5-1.6-2-1.4m5.2-.2c-.8.5-1.7 2.1-1.2 2.6s1.5 1.4 2 1c.6-.5 1.6-1.6 1.6-2.2-.1-.6-1.9-1.8-2.4-1.4m-16.3.7c-.4.4-.3 1.9.3 2.1.4.3 1.4.2 1.7-.1.5-.5.8-1.4.4-1.7-.7-.4-2-.7-2.4-.3Zm37.6 4.3c.8-.6 1.3-2 .7-2.5q-.7-.6-2.2.1c-.5.3-.7 1.8-.4 2.2s1.4.6 1.9.2m6.3-1.2c.3-.4-.4-1.9-.9-2s-1.5.3-2.2 1c-.5.4.3 1.8.9 2.2.4.3 1.6-.5 2.2-1.2m3.4-2c-.6.5-1.4 1.7-.9 2 .7.5 1.5 1.2 2 1 .6-.3 1.2-1.7.8-2.1s-1.5-1.2-1.9-1Zm6.1 3.1c.5-.7.3-3.4-.4-3.3s-1.9 1.4-1.6 2 1.7 1.8 2 1.3m-55.3-2.2c-.6.3-1.1 1.9-.6 2.2.4.3 1.3.7 1.8.6s1.1-1.4.7-1.8c-.3-.4-1.4-1.2-1.9-1Zm7.3 1.7q-.9-1.2-1.8-1.7c-.9-.5-1.9 1.3-1.5 1.7l1.6 1.4c.4.4 2-1 1.6-1.4m19.8-1.9c-.7.4-1.9 2-1.4 2.5s1.6 1.5 2.1 1.2 1.6-1.5 1.4-2.2c-.1-.5-1.6-1.7-2.1-1.5Zm8 1.7c.5-.7-1.6-2.4-2.3-2-.8.6-1.9 2-1.5 2.4s1.3 1.2 1.9 1.5c.4.2 1.3-1 1.9-1.9Zm-22.9-.2c-.3-.4-1.9-1.6-2.2-1.2l-1 1.4c-.2.3.8 1.1 1.2 1.6.3.3 1.1.3 1.4 0s1-1.5.6-1.8m5.4.9c-.1-.8-1.4-2.6-2-2.2-.6.6-1.8 1.7-1.4 2l1.6 1.5c.3.4 1.8-.8 1.8-1.4Zm3.1-2c-1 .9-1.3 2.2-.7 2.5q1.5 1 2.2.6c.7-.6 1.5-1.6 1.1-2-.3-.7-2-1.4-2.6-1m26.1 1.3c-.7.4-2 1.6-1.6 2.1.5.7 1.5 1.7 2 1.4.8-.5 1.8-1.5 1.7-2.1s-1.6-1.6-2-1.4Zm-49.1.8c-.6.1-1.6 2-1.2 2.5s1.3 1 1.8.8 1.4-1.3 1.4-1.8-1.4-1.5-2-1.5m36.6 2.5c1 1.5 2.1.5 3-.3.6-.7.1-2-1-2.4-.8-.2-2.5 2-2 2.7m6.5-2.8c-.7.4-1.5 2-.9 2.4.6.5 1.7.9 2.1.5s1.2-1.3 1-1.8-1.7-1.4-2.2-1.2Zm13.4 1.5c-.4-.8-1.4-1.8-2-1.7s-1.7 1.3-1.3 1.6l1.8 1.6c.4.2 1.7-1.1 1.5-1.5m-51 2.2c.6 0 1.9-1.3 1.5-1.7l-1.6-1.6c-.2-.2-1.4.9-1.4 1.3 0 .6 1 2 1.6 2m4.6-3c-.6.3-1.3 1.6-.9 2 .5.5 1.6 1.4 2 1 .5-.5 1.3-1.7 1-2s-1.6-1-2-1m7.2 1.9c-.3-.5-1.4-1.7-1.7-1.9-.5.3-1.9 1.3-1.5 1.7L82 507c.3.4 2-1 1.6-1.4M87 504c-.8.3-1.6 2-1 2.3s1.5.7 2 .6 1.2-1.5.9-2c-.4-.3-1.5-1.1-2-1m5.8-.3c-.8.4-2 1.7-1.6 2.2s1.6 1.4 2.2 1.2 1.6-1.2 1.5-1.8-1.5-1.8-2.1-1.6m5.8 0c-.7.3-1.8 2-1.3 2.3s1.4 1.3 1.8 1c.6-.3 1.6-1.2 1.6-1.8 0-.5-1.6-1.7-2.1-1.5m11 4.2-2.5-2.4-2.6 2.7c2.3.3 3.5.2 5.1-.3Zm-11.9 0c-.6-.8-1.6-2-2-1.6L94 508c.7 1 3 .7 3.7-.1m-10.9.5c-.7-1-1.9-2.2-2.4-1.8l-1.9 1.8zm5.4 0q-1.8-2.2-2.5-1.9l-1.6 1.7q2.6.4 4 .1Zm11.6-.4c-1-1-1.9-1.9-2.4-1.7s-1.1 1.1-1.6 1.9a5 5 0 0 0 4-.2M98.5 533.6l3.5-1.8c1.3-.4 2.6 1.8 2.4 2.9a7 7 0 0 0-2-2.2c-1-.5-2.5.6-3.2 2l-1-.9c-.4 2.2.6 4.3 2.1 6.6-3.7-.8-4.6-4.9-3.3-8.2.6-1.5 1.7-3.1 2.8-3.5 1.5-.5 4-.2 5 .7 2.4 2.4 3 6.2 1.3 8.7q-.4-2.9-1-5.3c-.3-1.2-2.7-2.3-3.7-2.1-1.4.3-2.8 1.7-2.9 3.1M68 533.7c0-1-1-2.6-1.8-2.9s-3-.2-3.6.3c-2.8 2-2.9 5.5-1 8.8-3-1.6-3.3-4.9-2.2-7.8s4.6-5.2 7.6-3.2c2.8 2 3.7 6.5 1.4 9.4zM84.6 530.7c-2.3-1.3-5.6.8-5.5 3.6q.1 2.5 1.2 5.6c-2.7-1.6-3.4-5-2.2-8 .7-1.6 2-3.3 3.3-3.6 1.6-.4 4.1.2 5 1.5 1.9 2.5 2.6 5.9.6 8.2-.2-2.8.4-5.7-2.4-7.3"/><path d="m67.3 534.8-1.4-1.9c-.4-.5-1.7-.1-3.1 0 .2-.6 1.7-1.2 2.6-1 1.2.1 2.2 1.5 2 2.9M537.3 305.2c1.8 8.8 3.5 16.4 4.5 25.5l-9.2-44.1-16.1-79.4-17-85 17.6 84.2 6.7 33.5zM505.7 216l13.2 68.1L497 176.5c3.6 12.6 6 25.6 8.6 39.5M498.8 130.9c2.2 10.5 4.5 20.6 5.9 30.7l-8.7-41.3c1.4 3.5 2 6.8 2.8 10.6M537.3 319.4q.7 3.2.4 6.2l-6.2-32zM493.4 122q-1.2-4.2-1.3-8.8c1 2.9 1.6 5.4 1.3 8.8M495.8 170.4q-1.2-4.2-1.4-8.8c1 2.9 1.7 5.4 1.4 8.8M487 126.4a12 12 0 0 1-1.3-8q.9 4 1.3 8M550.6 502.9q.5-7.7 0-14.9-.7-6 .2-12l.5-46.2.1 102.7c-1.8-4-1.2-24-.9-29.6M535.2 547.8c.5.3-.7-7.5.3-8.9l.4-16.5.3 25.9zM339.1 137.4h-59c-1.8 0-3.8.7-5.3-1.1H393c-3.3 1.9-7.2 1-11 1zM274.3 136.6c-4 .9-7 .4-10.6-.1q5.2-.6 10.6.1M257.3 136.5q-3.7.6-7.8 0 3.7-.5 7.8 0M442 174q1.2-9.7 5.1-18.3Q445 165 442 174M440.1 169.2q.7-5.5 2.8-10.6-.4 5.6-2.8 10.6M431.3 163.4q0-3.6 1.5-6.6 0 3.7-1.5 6.6M437.3 167q-.3-3.5 1.5-5.9a18 18 0 0 1-1.5 5.9M24.8 522.8v-4l.5-15.3v37.8q-.5-8.9-.5-18.5M17.2 549q-2-3-.7-6.6.6 3.4.7 6.6M474 208.1a70 70 0 0 1 5-20.4zM473.2 202.4q.8-8.2 3.3-15.3a61 61 0 0 1-3.4 15.3M66.9 220a716 716 0 0 1 10-48.8c-2.8 17-6.3 32.9-10 48.8M51.8 299q-.5-2.7.3-5.3l5.2-26c-1.1 10.8-3.5 21-5.5 31.4M54.6 301.4c1.7-13.3 4.3-25.8 7.4-39q-3 19.5-7.4 39M47.5 319.7q1-9.2 3.3-17.8-.7 9.2-3.3 17.8M74.6 197.5q.8-8.2 2.7-15.7a68 68 0 0 1-2.7 15.6M82.1 149.8c.1 1.6-1.3 4.3-2.3 6l2-10.2zM50.4 322q.5-6.2 2-11.9.3 6.4-2 12M63.3 256q1.4-11 4-21.4a128 128 0 0 1-4 21.4M127.4 172.5a51 51 0 0 1-3.9-14.5c1.6 4.5 3 8.7 4 14.5M133.9 167.2c-1-2.6-2-5.3-2.2-8.6 1.2 2.5 2 4.7 2.2 8.6M136.2 166.7c-.8-2-1.4-3.8-1.5-6.7.9 1.9 1.4 3.2 1.5 6.7M11.8 531.2c-.7-8.3.4-17-.5-25.9l-.5-4.9.2-64.7.6 38.1zM7.7 545.8q-2.4-4.5-1.3-9.8z"/><path d="M5.2 544.8q-1.4-3-1.2-6.8a9 9 0 0 1 1.2 6.8M506 259.3l-9.6-47.3-8.7-47c3 9 3.9 18 6 27.4zM516 311a494 494 0 0 1-8.1-42c3.1 13.4 6 26.9 8.1 42M519.5 314.2c.7 3 1.4 5.9.8 8.7l-6-33.4zM486.4 158.7l-2.2-6.5-.5-1.3c-.1-.3.4-.1 1.3-.2l-1.3-5c2.5 1.7 2.5 4.7 1.9 7.6.4 1.6 1.2 3.5.8 5.4M517.8 321.3a12 12 0 0 1-.8-7q.6 3.4.8 7M210.1 291.7l-10.7-.3-36.5-.5h69.7zM411.6 290.6h-45.3c7.1-1 16.1-.3 24.2-.6zM417.4 314.3l-.6-4.6c-.5-3.8-1.5-7.4-1.3-11.4l2.3 11.9zM413.9 307.9q-1-3.8-.8-7.8a16 16 0 0 1 .8 7.8M153.8 300.1c1 3.2-2 16.7-2.5 18.8zM156 310.2q-.3-6 1.5-11.9-.3 6-1.5 12M97.2 135.1q-.6-5.7 0-11.9.6 5.7 0 12M93.7 124.5a27 27 0 0 1 0-7.8q.5 3.7 0 7.8M95.5 135.1l-1-4.9 1.3-1.2zM151.7 137.1a460 460 0 0 1-36 0 460 460 0 0 1 36 0M462.5 136.5h-43.7zM474.5 133.4q-.4-4 0-8.4.6 4 0 8.4M450.7 193.3l-8.8.3c2.9-1.2 5.8-1 8.8-.3M123.5 203q-.4 6.2-6 6.6a5.7 5.7 0 0 1-6.3-4.7c-.6-2.8 1.6-5.3 4.6-6.1 3.4-.8 6.7.8 7.7 4.1m-10.7 1.5c1.2 1.8 3.5 2.4 5.3 2.1 1.4-.1 3.8-1.8 4.3-3.2.2-.6-.8-2.2-1.4-2.5s-2-.8-2.3-.3l-.9 1.5c-.1.3-1-.5-.8-.8q0-.2.9-1c.4 0-1-.3-1.4-.4-1-.2-.3 2.7-.2 2.8l1.8.9-4.4 1.6c-.6-.9 0-3 .8-4.4-1.4 0-2.8 2.2-1.7 3.7M101.4 93.4q-.2 2-.6 2.7c-.5.7-3.6 1.6-5.5-.5-.6-.6-.2-2.8.6-3.3 1.6-.8 3.5-.1 5.5 1.1M104 112.7c-1 .8-.4.9.5 1q2 1.2 3.6 1.9-1.2 2.7-4.4 1.4c-.8-.3-1.8-1.8-1.7-2.8.1-.7 1.3-1.4 2-1.5"/><path d="M108 115.6c-.1-2-2-3.2-4-2.9 1-.7 2.6-.6 3.5.1 1.1.9 1 1.7.5 2.8"/><path fill="#fff" d="M163.7 151q-.7-4.4-.6-9 1.7 4.5.6 9"/><path d="M473.5 93.8c.1 0 .8 1.8.5 2.4-.7 1.4-3.6 2.8-6 1.6-.7-.4-1.2-2.3-1-3.2s2-2 3.1-2c.6 0 2.7.2 2.5.8l-1 3.2c.5 0 .8-.6 1.9-2.8M462 116l3 .5c.3 0-.6-1-.4-1.3l.7-.7c.3-.2 1.6 1 1.4 1.2-.6 1-2.4 1.8-3.4 2-1 0-3.1-1.2-2.9-2.7.4-2 3.6-2.6 5-2.2l-3.5 1.4q2.8 1.2.7.5-2.2 1.3-.6 1.4ZM422 550.7c-1.6-8.3-.7-16-.5-23.9l.6-20.9zM422.7 503.6q-.8-4.1 0-8.9.4 4.2 0 9M407.7 151l.8-8.3q1 4.3-.8 8.3M412.7 151c-.5-2-1-4.4.7-6zM93.1 191.8c.6 2.4 1.5 4.5 1.3 7-1.5-4.9-3.3-9.5-3.3-14.9zM425.8 308.7c-2.5-3.9-5-8.3-6.3-13.4 2.3 4.2 4.4 8 6.3 13.4M228.7 316.2l-.8-6.7q-.3-2.8.1-5.9l.6 5.4q.4 3.7.1 7.2M233.3 311.2c-1.3-2.3-1-4.6-.5-7q.6 3.4.5 7M143.4 307.3q1-4 3.4-7.8-.6 4.1-3.4 7.8M182.8 310.2q-1.5-4.4-1.4-9 1.4 4.5 1.4 9M84.7 345.6H67.3q-1.5 0-2.3-1.2h24.3zM101.3 368.7V348q2.1 10.3 0 20.8M89.3 386.5q-12.8.8-26 0 12.6-.6 26 0M89 364.8c1.1-.4 2.7.2 2.8.8.2.9 0 2.4-.8 2.7-.6.3-2.1.1-2.6-.4s-.1-2.9.7-3.1M75.1 357.7c1-.1 2.2 1.1 2.2 1.9s-.9 2.2-1.6 2.1c-.9 0-2-.7-2.3-1.3-.3-.8.5-2.6 1.7-2.7M64.6 371.8c.7-.4 2.3 0 2.6.7s-.1 2.3-.8 2.7-2-.1-2.7-.7c-.5-.6 0-2.4.9-2.8ZM69.8 364.8c1 0 2.3.5 2.5 1.1.2 1-.2 2.3-1 2.6-1 .3-2.6-.1-2.8-.9-.2-1 .5-2.8 1.3-2.8M89.3 378.4c.9-.2 2.3.4 2.5 1s-.2 2.2-.8 2.6-2.5-.2-2.7-1 .3-2.5 1-2.6ZM74.7 371.5c.6-.2 2.2.5 2.4 1.2s-.2 2.3-.9 2.6c-.8.3-2.3-.2-2.7-.8-.4-.8.2-2.5 1.2-3ZM79.8 364.8c.8-.2 2.2.6 2.3 1.3s-.7 2.4-1.5 2.5c-.6.2-2-.5-2.3-1.1-.4-.8.2-2.5 1.5-2.7M88.8 351.3c.8-.3 2.5 0 2.8.6s0 2.3-.6 2.7-2 .2-2.6-.2-.3-2.8.4-3.1M84.2 371.7c.6-.4 2.2.1 2.4.7.3.7-.1 2.4-.8 2.8-.6.4-2-.2-2.5-.9s0-2.1.9-2.6M94.1 371.7c.6-.3 2.2.3 2.6.9s-.1 2.2-1 2.6c-.6.4-2-.1-2.5-.7s0-2.4 1-2.8ZM64.6 358.1c.6-.4 2.4 0 2.7.6s-.1 2.3-.8 3c-.6.5-2-.2-2.6-1-.5-.5-.1-2 .7-2.6M69.2 351.3c1-.5 2.7-.1 2.8.5.2.7 0 2.5-.6 2.8s-2 .2-2.5-.3-.3-2.6.3-3ZM94.2 358c.5-.3 2.2.4 2.4 1s-.3 2.1-1 2.6-2-.3-2.4-.9c-.5-.7 0-2.2 1-2.7M70 378.4c1-.2 2.3.4 2.3 1 0 .9-.5 2.4-1.1 2.7s-2-.3-2.4-1 .3-2.6 1.1-2.7M79.4 351.1c.4-.4 2.2.4 2.3 1 .2.7 0 2.2-.7 2.5s-2 0-2.4-.5c-.6-.5-.2-2 .8-3ZM80 378.4c1-.1 2 .6 2 1.3s-.3 2.3-1 2.4c-.8.2-2.3-.3-2.4-1-.3-.8.5-2.7 1.3-2.7M84 358.2c.8-.2 2.3-.2 2.5.4s.3 2.2-.2 2.7-2.3.2-2.8-.4-.2-2.4.5-2.7ZM80.3 387.4l.7 1.1c-2.5.2-4.7.3-7.7-.5 2.7-.7 4.6-.6 7-.6M73.4 387.6a5 5 0 0 1-6.8 0zM98.6 386q-3.4 1.1-7.7.6c2.3-.8 4.5-1.2 7.7-.7M194.5 245.4q-.6-4.9 0-10.2.6 4.9 0 10.2M197.4 244.8l-.8-9q1.7 4.5.8 9M204.3 216h-1.6q-.5 0-1 .3c-.2.1.8.7 1.7 1.1l-2 .1c-.6 0-1-2.2-.4-2.3l2.1-.2c.4-.1 1.3 1 1.2 1M231.6 70.4q-.3-2.7 0-5.6l2.2 18.2 2 18.6 2-2-.6 3.6h95.5q2.8 0 5-.3l-1.7-3.7-22.3.1-25.8.2-40.5-.3q-5.2 0-9.5.2l-1-11.3-2.3-23.2c0-.3.2-1.3 0-1.5l-1.6-.8a16 16 0 0 1 5.4-.7h33.1l67-.2q2.6.1 3.6 1.7l-2-.1-2.8 27-.7 8.3c-.1.8 1.3 2.4 2 2.5l4.5-36.9c-.2 9.6-1.3 18.6-2.5 28l-1.4 11.6c-3.1.2-5.4.5-8.3.5h-91.6c-1.2 0-4-.5-4.1-1.7L232.6 81l-.5-5.4zm85 27.9h18.9l3.4-35-103.4-.2 3.5 35.3c2.3 0 4 0 6.1-.3l71.6.2ZM392.4 91.7c-7 9.9-23.5 13-34 4.8-6-4.8-7-12.9-2.4-19.2a24.4 24.4 0 0 1 32.2-6.1c7.3 4.7 9 13.6 4.2 20.5m-1-6.5a8 8 0 0 0 .4-8c-6-10.3-22.5-10-31.6-2.6-2.7 2.3-5.1 5.6-4.6 9.2.7 4.5 4.5 7.6 8.6 9.3 9.1 3.7 21.5 1.3 27.3-7.9m-25.8 13.3c7.1 1.9 14.4 1.5 20-2.8l1.5-1.2c.3-.2-.6-1.7-.9-1.6-8 4.2-18.7 4.9-26.5-.6-.3.4-1 1.7-.6 2.1l1.5 1.7.8-1.8c.5 2.8 1.9 3.6 4.3 4.2ZM213.4 98a25 25 0 0 1-30.2-4.4c-3.4-3.4-4.8-8-4-12.8.5-3.9 3.3-7.6 7.4-10a24.5 24.5 0 0 1 30.6 5.1c6 7.2 4.5 17.4-3.8 22.2m-7.7-3.6c6-.9 13-5.3 12.8-11.7s-7-10.4-12.2-12.1a22 22 0 0 0-21.6 3.6c-4.2 3.5-4.5 8.7-1 13 5.4 6 13.3 8.3 22 7.2m-13.4 3.5c7.8 3.1 20 2.3 24.4-6.2-.8-.2-1.8.6-2.8 1.2a27 27 0 0 1-26.5-.5c-2.2 2.7 3.5 4.5 3.4 4.7l.8-1.6zM408.8 56.7a64 64 0 0 1-11.5.6L279 57zM352.2 107a873 873 0 0 1-50.1 0 873 873 0 0 1 50.1 0M379.3 107q-13 .8-26.6 0 13-.6 26.6 0M205.4 107q-4.5.8-9.5 0 4.5-.4 9.5 0"/><path d="M205.4 102.3a34 34 0 0 1-9 0q4.4-.5 9 0M385 66l-6.4-1.4q3.6-.9 6.5 1.5M377.5 102.4q-3.8.4-8.3 0 3.6-.8 8.3 0M308 101.8q-4.5.6-9.5 0 4.4-.6 9.5 0"/></g></svg>