<svg xmlns="http://www.w3.org/2000/svg" id="Layer_2" viewBox="0 0 340.2 433.6"><g id="Layer_1-2"><g id="Ye603L.tif" fill="#c45a5a"><path d="m160.1 433.5-13.7.2-28.1-.3-42.6-.6-22.3-.5c-4-.1-7.7-.8-11.8-.4.3-1.4 1.5-1.6 2.8-1.4 3.6.5 6.9-.3 10.5-.4l41-.5 22.8-.7c-13.3-3.1-26.5-5.5-38.6-11.7a81 81 0 0 1-10.2-6.6c-6.3-4.6-8.1-10.7-7.8-17.8.2-5 1.2-8.4 4.7-12.2 10.8-11.4 38-18 53.9-20.3 7.5-1.1 14.5-3 22.2-3.1 1.3 0 2.6-1.2 3.3-2.1 3.6-5 4.9-10.8 5.1-16.9.5-12.8-.7-28.3-2.9-41l-3.7-21-4.4-22.6c-1.7-8.6-2.7-17-5-25.4-2.1-7.8 15.4-13 12-28-2.2-10-9.1-10.3-13.5-16-1.9-2.3-3-4-6.6-4.3a59 59 0 0 1-16.7-4.4c-2.9-1.1-5.7-1.6-8.5-2.5-9.3-3-17.5-6.8-26.3-11a157 157 0 0 1-45.5-32A105 105 0 0 1 1.6 38.3c1-5.5.9-13.5 5-17.8 7-7.8 37.1-12 48.3-13.6 23.7-3.5 47-5.4 70.8-6l25-.7q14.8-.4 29.7 0l33.3.6c22.7.4 77 4.9 97.9 10.8 3.4 1 7.2 1 10.5 2.5 12.1 5.1 13.6 5 15.4 14.4 3 16.2 3.7 31.9 1 48.2A107 107 0 0 1 303 137c-4.9 4.3-9.5 8.2-14.9 11.5-5.2 3.3-9.9 7-15.4 9.6l-20.6 10c-4.6 2.1-9.6 3.4-14.5 5.2q-13.4 5-27.4 7.5c-8.4 7.3-3.4 4.5-13.3 11.6-4.5 3.2-5.9 16.3.2 22.8l8.2 8.8c-1.4 15.4-7.7 38.8-10 53.4l-3.3 20.4c-2.4 15.1-2 15.7-2.6 30.5-.4 11-1 19.2 6.7 28.3 23.2 2.9 58 7.7 75.7 22 6.9 5.6 7.8 14.4 6 22-2.9 12-23.6 20.3-35.2 23.2-7.2 1.9-14 4-21.2 5.1l26.6.7 38.6.6c4.2 0 8 0 12.4 1-4.8 1-9.1.9-13.7 1l-17.4.7-46.6.5c-15 .2-29.5.1-44.4.1zM194 45l38.7-1.4c21.6-.8 42.6-3.3 63.8-6.4 6-1 11.3-2.3 17-3.6q8.6-1.7 15.9-6c1-.6 1.8-.8 2-1.6 1-4.2-7.8-6.7-8.9-7.2l-3.8-1.8c-11.6-5.3-25-5.3-38-7l-23.8-2.9c-5.9-.7-11.5-.4-17.4-.9A722 722 0 0 0 182 4.2h-36c-18 0-35.2.9-53.4 2.3a487 487 0 0 0-65.1 9.3C23.4 16.8 8 21.2 9.3 26c.3 1 1.6 2.3 3 2.8l7 3A221 221 0 0 0 54 38.2c.6-6.5-.4-12.9 2.6-19.1 1.3 3.5-2 18-.6 19.6.7.8 15.7 1.8 19.3 2.4 19.1 3.2 97.3 4.6 118.8 3.8ZM6 36.7c-3 27-.5 52 15.1 75 13.6 19.8 35.4 36.3 57.6 46.7 3.2 1.5 5.8 3.3 9 4.6 9.3 3.4 18 7.3 27.7 9.7a199 199 0 0 0 75 6.4l8.3-.5c2.4-.2 4.2-.9 6.4-1.3l15.3-3.1c5-1 9.4-2.8 14.2-4.3 17.2-5 41.2-17.5 55.5-28q3.7-3 7.3-6.2c31.3-26.7 42.4-58.3 37.2-98.3-5 3.2-9.7 5.5-15.6 5.4 5-2.2 9.7-3.9 14-7.1 1.4-1 .8-3.8-.2-5.2-8.3 7-35 11-47 12.6a771 771 0 0 1-94.3 6c-15.5.3-30.3.7-45.7 0l-42.6-1.6-13.5-1c-13.4-.8-32.7-2.7-45.9-5-5-.8-9.5-2-14.5-3.2a67 67 0 0 1-21.5-7.5c-1.2 1-1.4 3.8-.2 4.3Q21 41.4 36 44.3a428 428 0 0 0 65.2 7.2l10.3.5c5 .3 9.8 1 14.7 1l29.3.6 50.9.6q-3 .6-5.6 1l-9.8.5-27.6.6-38-.7-27-1.3C75 53.2 27 48.3 6 36.7m196 145.7c-2-1.6-3.6.4-5.4.5a228 228 0 0 1-58.5-1c2.2 2.8 4.7 5.5 7.6 6.6 11 4.3 34.8 4 47 1 3.8-1 7-4.1 9.3-7M155.7 207c.4-4.7-1-8.5-2-12.1-6-3-2 1.3-1.8 10.2 0 1.4 3.2 2.9 3.8 1.9m5 1.5c4.9 2.4 22.8 1 27.6-1.7-.2-4.1-.1-8 1.9-12.2-2.2-1.3-4 0-6 .2q-14 1.3-27.7.3l.7 8c.2 2-.5 4.2 1.7 5.5l.9-13c2.4 4.2 1.3 8.4.8 12.9m-16.5 12.8c9.7.6 9.9 11.7 12.5 8.2 1.6-2.3 3.9-3 6.3-4 12.9-5.5 21.4 5 22.5 3.9 3.2-3.1 2.5-5.8 10.6-8l-7.6-11.6c-6.9 4.1-25 4-32.4 1.5-.8 2-1.2 3.6-2.9 3.9.4-1.4 1.4-2.2 1-3-.2-.6-.8-1.6-2-1.4-1.5.2-3.6 3.8-2.2 4.9 4 3 11.1 2.4 12.2 4.3-5.3 1.1-9.9-1-14.6-2.7-1.5 1.2-2.3 2.3-3.4 4m9.6 19c.2-7.2-4.4-17.2-12.5-15.8-1.1.2-2.1 1-2 1.8.2 4.3 11.5-3.7 13 26.4q0 1.6 1 2.5c4.9 3 .2-6 .5-15m46.2-12.6c.8-.2 1.7-1.4 1.4-2-.3-.8-1.6-1.2-2.6-1.4-7.4-1-11.9 9.1-12.1 15.4q-.2 7.8-1.8 15.4c7 2.6-1-23.6 15-27.4m-26.7 18.8 2.3-16c1.7 5.3-2.3 18 .1 21.6.2-8.1 2.8-13.9 3.4-22.5-6.4-2.2-6-3.6-14.5-1.5l2.3 18c.8 5.9-2.3 10.7-8.6 12.3.1 1.5.1 2.8.8 4.3q7.4-2.7 11.1-9.2 3.7 6.3 10.6 8.8c5.3-6.1-9-2.6-7.6-15.8m-23.4 7.4c1.4-5.5-.2-9.6-1-14.2s-3.3-9-8.4-10.1c-1.3 1.7 1 2.6 2.2 3.6 4.8 3.8 6.6 10.3 6.2 16.2q-.2 2.8 1 4.5m15.3-2c1-3.1 0-5.3-.2-7.7l-1-14.8c-4.9-1-.7 11.1 0 14.3.5 2.9-.2 5.8 1.2 8.3m32-18.3c1.2-1.2 2.7-2.3 2.7-4.1-5.2 1.5-7 5.6-8 10.2-1.2 4.9-3.1 9.6-1.9 14.4 3-6.4-.3-12.7 7.2-20.5m-38.9 21.6c7.8 3.1 1.3-21.4 1.3-24-1.5 1-2.1 2.1-3.2 3.3 0 7 .9 13.6 2 20.7m23.3.1c2.2-4.4 1.7-9.7 2-14.2.5-5.8 1.8-6.5-1.9-9.8-.3-.3-1.3.5-1.3 1 0 3.4-1 6.6-1.5 10.1l-1 9c-.2 2 2.1 4.8 3.7 4m17.5-21.7c-3.7 3-4.5 7.2-5 11.5-.3 2.5-2.1 5-.5 7.3 2.3 3.4 5.5-17.1 5.5-18.8Zm-51.9 18.1c1-3.5-1-6.6-1.4-9.7-.5-3-1.2-6.1-4.3-7.5-.7 1.5.7 2.7.9 4q.5 4.3 1.4 8.4c.2 1.2-.4 2.8.5 3.7.6.7 2.1 2.7 3 1.1m8.9 11c.6-2-.3-3.3-.9-4.9l-9.2-3.1c-1-.4-.7 2.6.3 3.1 3.2 1.7 6 3.2 9.8 4.9m38.7-7.8c-2.5-.6-4.7 1.6-6.7 2-2.9.7-4.4 3-3.5 5.4 4-2 12.2-3.6 10.2-7.5m-9.2 14.9 4-1.7c2-.8 3.7-2 4-4-1-.2-1.5 1-2.9.3 1.1-1.4 2.6-1.6 3-3.4-2.3.3-4 1.9-6.2 2.8-1.7.6-4.2 1.2-3.6 3.3l7.5-2.8c-2 2.2-4.5 2.6-7 3.6q-1.2.6-.5 1.7.3.5 1.7.2Zm-30.9-3.2q1.5.6 1.8-.1c.2-2.5-6.2-3.7-9.4-5.2-.4 1 .5 1.7 1.4 2.2zm5.8 4c4.6-.8 7-4.5 8.5-8.1-2.3 1-3.1 3-5.6 3.8.9-1.9 3-2.4 3.4-5l-7.7 5c1 1.2 2.1.4 3.7 1-.7 1-2.7 1.5-2.3 3.3m16-4.2c1.7-.1 2.3 1.6 3.7 1.8.7 0 1-2.4.2-2.8-2.5-1.4-5-2.4-7.1-4.3 0 1.3 1.2 1.8 1 3l-2.9-1.7c-.3 3 7.7 9.1 8.8 8.3 3-2-4.2-2.2-3.6-4.3Zm-29.4-1.7c2.6 3.2 6.1 4.4 9.5 5.9 2.8-3-8-5.5-9.5-5.9m22.9 13.1c2.8.2 6.6-2.4 6-4.5-.8-2.7-3.8-4-5.6-6.4-1.9 2.2-4.7 3.2-5.7 5.9-.6 1.8 2.9 4.9 5.3 5M154.3 366c3.8-9 7-17 7.5-26q.6-9.5 0-18.8l-4-44.3c-.5-4.4-6.6-5-9.6-7.8l2.5 13.8c3 17.4 4.8 31.4 5.4 49.2.2 7.4-2 22.4-8.8 28.2q4.6 2 7 5.7m29.7-5.3c.8 2.2.7 4.4 3 5q2.2-3.8 6.2-5.3-9.4-12.2-9-27c.6-12.4 1.2-24.5 3.3-36.7 1.3-8.2 3.8-19 4-26.8-2.5 1.2-2.3 3.8-3.5 6.2 0-1.4.5-2.8-.1-4.2-1.8.9-3.3 1.4-4.9 2.4 0 4.5-1 8.5-1.4 12.9l-1 14.4c-1.6 23.1-5.1 35.8 3.4 59.1m-.5 5.7c-2.9-9.3-6-16.6-7.2-25-1-11.8.5-23.1 1.4-34.8l1.7-24.5c.3-3 1.1-5.7.1-8.6-2.8 3-5.3 8-10.5 7-3.8-.7-6.4-4-8-7.6-1.3 3-.1 5.9 0 9.2l1 13.7c1.1 17.5 5.3 41.5-1 59l-4.3 12.1c3.6-2.5 7.9-2.6 12.2-3 5.4-.7 9.7 1 14.6 2.5m89.7 25.5c2.8-8.6-14.4-16.6-21.2-19.4-12.3-4.9-25.3-7-38.5-9.1-4.3-.7-8-1.9-12-1.6 5.3 2.9 9.1 7.1 9.8 12.6.4 3.2-.6 5.3-3 7.2a40 40 0 0 1-18.4 7 104 104 0 0 1-39-.1c-7.7-1.5-15.6-3.4-21.1-9-2.6-2.5-.3-6.9 1-9.6 1.8-4 5.7-5.6 9.3-8.3-6.8.2-12.8 1.8-19.3 2.9q-15.4 2.5-30.3 7.2c-4.7 1.6-8.7 4-13 6.1-3 1.5-5 3.9-7.3 6-3.4 3.2-4.3 7.6-1.1 11.5C90.7 421.8 182 423 215.6 417l13.7-2.5c12.3-2.3 40-10.4 44-22.6m-122.5-18.3c1.7-1.6.6-3.1 1.7-4.5-1-2.6-2.8-5.6-5.7-6.6-1.7-.6-3.3 1.6-4.7 2.7 4.3 1 7.6 3.8 8.7 8.4Zm39-1.7c2.5-3.7 5-5.6 9.1-6.7-1.3-.8-2.6-2.7-4.2-2.7-2.7 0-4.7 2.5-5.7 4.6-1.4 1.7-1.2 3.9.8 4.8m-41 3.4c1.4-5.1-5.8-9.7-9.5-8.2-1.2.5-3 1.6-3.6 3.5 3.8 2.2 9.2 5 13.2 4.7m26.7-4.6 11.8 2.5c.4-3.3-2.4-3.8-5.1-4.6a39 39 0 0 0-28.5 1.7c-.6.3-.7 2.1-.4 2.6 1.5 1.9 11.1-4.5 22.2-2.2Zm29.6 0c-1.5-2.9-5-5.2-8-3.6-2 1-6.6 5.9-5.4 7.4 2 2.3 11-1.8 13.4-3.7m.5 1.3c-11.5 11.2-56.8 8.8-66.7 2.8-1.6-1-2.6-2.7-4.4-3.2-.7 1.5-1.8 4.7-.7 5.8 4.6 4.6 10.8 5.4 16.8 6.7A100 100 0 0 0 196 383c3-.8 5.7-1.3 8.2-3.4 1.3-1.1 2.9-2 2.9-3.6 0-1.2 0-3.4-1.6-4m-15.7 4.3c-12.4-4.8-18.4-6-30.4-2.9-2.8.8-5.9.5-7.5 3.4 12.7 1.3 25.3 2 37.9-.5m-84 45.3c22 5.7 49 7.8 72.1 7.3 15.6-.4 30.6-2.2 45.9-4.7 5.5-.8 10.3-2 15.5-3.7l10.5-3.2c7-2.2 18.9-8.7 23.1-15.8-4.2 1.5-7 5.1-11.2 7q-14.9 6.3-30.8 10a198 198 0 0 1-35.6 4.7l-13.7.5q-34 1-67.6-4.4c-7.9-1.4-28-7.5-34.6-10.7-4-1.9-6.9-5-11-6.5 4.2 10 27.6 17 37.4 19.5"/><path d="M242.6 58c-.6 5-2.3 6.8-1.3 10.7-2-1.1-3.4-1.6-3.2-3.7-2 2.6-1.8-.8-5.8-3-.9-.8 0-2.4-.5-3.5-1 .3-.5 1-.6 2.5-2-.8-3.3-2.5-2.6-5.1-1.6.1.1 1-.9 2l-3.9-5c1.7 0 3-.6 4.4-.3.3 1.7 1.2 1.5.8 0 0-.8 1-.7 1-.3s-.5 1.3.2 1.5c.4.1.5-1 1-1.5.3-.2.7.5 1.1.7 3.2-2.8 7.7-2.8 11.7-2.4 1.3.1 10.8.4 10.3 3.2l.8-.9c.6 0 .4 1.1.7 1.2l7.5 2.3c.5.7.2 1.7.9 2.2.6-.8.2-1.7.7-2 2-1.3 2.2 4 4 2.8.6-.3.7-2.6 1.6-2 2 1.6 1 4 1.8 6.4q1.6-2.6 0-5.6c-.1-.8 1.7-1.2 2.6-.7 2.3 1.1 1.9 3 3 1.6 1.4-1.9 2 8 3.6 9.3 1.7-4.7-5.8-9.7.9-13.3q2.7-1.6 4.6-4a97 97 0 0 0 9.4-6.7c3-2 14.5-3 14.8 1.1.6-1 1-2 2-1.8 1.3.3 2.6 1 1.6 2.3-.4.6-1.6.7-1.6 1.2 0 .7 1 1.2.1 2.4-1-.9-1-2.2-2.3-2.9-.7 1.7 1.3 2.3 1.6 3.5.3 1.6-1 3.4-1.8 4.8-.8-1-1.2-2.3-2.7-3 .6 3 1 5.7-1 8.6-1.2-2.3-1.4-4.7-2.9-6.8-.6 3.7 3.6 5.7.5 10l-5.5 7.7c-2.3 3.3-5.5 4.2-8.8 5.7-1.7.8-1.9 1.9-4.1 1.7s-4.2 1-6.5-.2c-1.4-.7-3.6.5-4.2 1.6q-.7 0-1.3-.5c-.5-.2-.5 1-1 1-2.1-.2-4.8.5-6.4-.4s-3.6-.2-5.4-1c-1.3-.5-.9-2-1.4-3.3-1 .5-.1 1.3-.2 2-2.5-.4-2.2-2.4-2.6-4.6-1.2 1.3.2 2.7-.6 4.7-2.4-1-.4-2.8-1.3-5.3-1.2 1.1 0 2.7-.9 3.6q-2-.3-2.6-2c-.1-.5.6-1.4-.3-2.9-.5 1 .4 2-.7 2.7-.3-3-3.7-4.3-5.7-6.6-.1 1.3.6 2.5-.7 3.3-1.4-7.6 1.2-6.3.2-10.6-.7 1.7-.7 3.4-2.3 4.7.1-2.8 1.4-4.7.2-7.1Zm68.7-5.5a4 4 0 0 0-2.5-3q.7 2.6 2.5 3m-4.5-.4c-.8-1-.8-1.4-1-2.1-.8.4-.7 1.4-.2 2 .2.3.8 1 1.2.1m-14.8 5c-.2-2.5-1.7-3.4-3.3-4.5a8 8 0 0 0 3.3 4.6m-2.3.3c.7-.6-1-3-2-2.5-1.4-.2-2.3-.2-1 .5-.2 1 .3 1.6.6 2 .5 1.2 1.6.6 2.4 0m-5.4 2.4c1 .8 0 1.9 1.7 2.2-1.4-3-2.6-3.8-2-6.6-2.6 5.1-1.9 6.2.3 10.2-.1-2.6-1.7-4.2 0-5.8ZM254 58.3q2.4-.7 2-2.4c-1 .6-2.1 1.3-2 2.4m-20.3 3.9c1.5-1.8 1.6-3.7 1.3-5.7-.6 1.8-1.6 3.5-1.3 5.7m1.8.1c1-1.8 2-3.3 1.6-5.1-1.5 1.5-1.7 3.4-1.6 5.1m68-1.4c.6-.1.5-1.3 0-1.7-.2-.2-.5-1-1.3-.2q.8 1.3 1.3 1.9Zm-63 2.2q.9-2.4 0-3.3-.8 1.9 0 3.3m36 0q1.4-1.2 1-1.6-.1-.4-1-1c-.6.6-.6 2 0 2.6M246 67c.7-2.4 1.4-3.5.9-5.3q-2 2.5-1 5.2m53.2-1.4c.4 0 1.5-1 1.1-1.5l-1-1.7a5 5 0 0 0-.1 3.2m-1.8 1.4c.4-2-.5-2.7-.8-4-.7 1.4-.8 3.2.8 4m-30 2q1-3.1 0-4.7a8 8 0 0 0 0 4.6m-19.3-.7q1-2.4 0-3.3-.7 1.9 0 3.3m14.5 1.3q1-3.1 0-4.6a8 8 0 0 0 0 4.6m-.7 9.1q1-2.4 0-3.3-.7 2 0 3.3M215.2 90.5c-3 1.4-6.4-.1-9.5 1.5-20.3-.3-46.6 1.4-66.4.2l-9.1-.6-41.9-2.2c1 4.4 2.6 7.7 4.1 11.3a151 151 0 0 0 29.4 47.2c3.3 3.8 7.6 6.3 10.3 10.4a124 124 0 0 1-26.4-29.7c-5-7.3-9-14.4-12.1-22.6-2.2-5.5-4.7-10.7-6-16.8l-24-2.4c-7-.8-13.6-2.6-20.7-2.5a148 148 0 0 0 29.4 47.9c-11.5-7.5-26.6-32.2-29.7-43.9-2.5-9.1-2.4-3.9-17.5-8.8l-8.5-2.8c-.7 1.9.8 3.3 1.3 5a92 92 0 0 0 16 31.2l12.7 16.5c-8-3.9-18.8-20.1-23.3-27.7-3-5.1-4.7-10.4-6.9-15.8a82 82 0 0 1-4.4-36c2 4.8.8 11.7 2.5 17.5 2.6.5 4-1.3 6-1.9l9.7-3c2-.6 4.6-.1 6.2-1.7.4-.3.4-1.1.8-1.4.3-.1.7 1.2 1 1.2l17.3-2.1c1.9-.2 3.3 1 5.6.6-.6-1.4-2 .2-3-1.2 6.4-.7 12.8-1.8 19.5-1.4 4.1.2 16.9-1.5 22.2-.3-17.7 1-34 2.7-51.4 5.4-3.4.5-6.9.3-10 1.9-1 .4-.3 2.4 0 3.4 4.5 0 9.3-3.1 13-1.5-4.6 1-8.6 1-13 2.6.4 2.2.6 5.4 2.7 6.8 2 1.5 4.8.6 6.8 1.6-2.2 1.1-4.1-.6-6.2-.3-1.3.2-.9 2.4-.6 3.4s1.7 1.6 3.2 1.8L55.7 83q8.1 1.3 16.4 2.2l13.7 1.2c.7 0 1.3-1 1.7-.8.6.2 1 1 1.8 1.1l37.8 2.7c5.8.4 11.1.7 17 .7zM37 69c-.3 0-4.6.5-4.4 2.2 0 .8.9 1.3 1.4 2.2-1.7.4-3.3-1.6-2.6-2.8 1.3-2.1 3.8-2.2 5.6-3.5 1.1-.8 0-3.6-1.5-3.3a64 64 0 0 0-19.8 6.5c.3 1 0 3 1.3 3.6a86 86 0 0 0 22.7 6.6c1-3-1.1-5.2-3.7-6 1-.5 1.7-.4 1.9-.8.5-1 .2-4.4-1-4.7ZM321.2 95c-5.3 11-16 27.7-27 34.7 1.3-3.8 4.1-5.7 6.3-8.6q9-10.3 16-22l6.1-13.8a78 78 0 0 0 5.6-33.2q1 .1 1.4 1.2l.1 11.8c-2 1.9-1.2 4.2-1.6 6.5-1.3 8-3.3 15.9-6.9 23.3M256 155.5c-7 3.9-12.7 6.3-21 8.2l25.7-12.8c8.5-4.2 14-9.4 22.8-13.5-10.4 9.8-16 11.6-27.5 18Z"/><path d="M100.2 62c-4.8.3-17.8 2.6-22 1.3l20.2-2.2q12-1.5 24-1.4c1.8 0 3.9-1.8 5.5.4-3 1-5.8-.2-8.7.5-1.9.5-3.7.4-5.6.5zM173.1 175.8c-5.7-.4-10.5.7-18-1l20.1-.4c5.4-.1 10.5-.8 15.8-.8 2 0 4-1.2 5.7-.1-8 1.9-15.5 2.8-23.6 2.3M117 167.3c-8-2.3-15.8-4.6-23.2-8.2l-9.6-4.6c-4-2-8-4-11.6-6.7 4.1 1 7 3.6 10.6 5.2l16 7.1c6 2.7 12.2 4.2 17.9 7.2M243 152.3l16.6-11.8c3-2 4.9-5 8.3-6.6a58 58 0 0 1-25 18.4M125.4 142.8c-2 1.2-13-15.5-14.8-18.3-3.3-5-6.3-10-8-16.3l6.7 12.3a139 139 0 0 0 16 22.3M179.9 86.5c-7.4-2-11.8 1.6-21.3-.6-4.5-.4-8.7.7-13.2-.5h41zM206.2 105.5c-1.7 1.1-3.4 1.2-4.3 0q-1.4-1.6.9-3.5 1.7-1.3 3 .3c.6.7 1.8 2.1.3 3.2M255.7 136.5c-3 3-6 5.7-9.9 7.3l9.1-8q1.1-.4.8.7M40.8 100.7c1.1.8 0 2.1-.7 2.4-1 .5-2.1.7-2.8-.4-.4-.8-.7-2.1.8-2.3.5-.1 1.1.5 1.4.7.5.4 1-.6 1.4-.4ZM120.5 128.2A38 38 0 0 1 113 115c3.2 4.3 5.3 8.8 7.5 13.2M212.9 111.6c1-1 2.4-.8 3.5-2.2q1.1 1.5-.3 3-2 1.6-3.2-.8M203.9 145.8c-.5.6-1.3.4-1.5.2q-.6-.7-.3-1.7t1.2-1.1q.7 0 1.3.7.5.6-.7 2M208.4 171.3c-1-.2-.5-.9.4-1.1q.8-1.1 1.7-.6 1 .7.3 1.6c-.6.5-1 .5-2.4.1M97.4 151.4c-1.2.2-2.3-1.2-2.1-2.1q1.5.4 2 .7c.4 0 .5 1.3 0 1.4M129.4 128.2c-1.7-2-3.6-3.6-4-6.4a13 13 0 0 1 4 6.4M64.4 76.2c.2.8-2.7 1-2.8-.1 0-.8 2.4-1.3 2.8 0M87 83.3c-2-2.5-2-5.6-1.4-8.5.2 2.9 1 5.4 1.5 8.5M215.1 98.5c0 .4-.7.8-.8 1-.3.2.4 1 .1 1.2-1.1.6-1.2-.6-1.2-1.5s1-1.4 1.9-.7M36.4 57.8a6 6 0 0 1 0-4q1 1.3 0 4M204.7 85q-1.7.6-2.4 0c-.2-.3.7-1 1-1 .5-.3 1.8.7 1.4 1M140.6 85q-1.9.6-4.2 0c1-.7 2.1-.7 4.2 0M207.9 120.5c.2-.3 1.1 0 1.5 0q.6 0 .4.9c-.3.5-.8.2-1 .3-.6.2-1.6-.3-1-1.2M225 90.2q-1.4.6-3.5 0 1-1 3.5 0M62.3 15.4c-18.8 2.7-29.4 4-48 11.5-1.2-4.5 19.2-8.8 22.5-9.6a162 162 0 0 1 17.4-3c6.7-1 13-2.4 20-2 2.7.2 5.3-.6 7.9-1.1 8.6-1.6 17.1-1.5 25.9-1.8l25.3-.7a436 436 0 0 1 26-.1l-13.8 1-12.5.2c-5.4.1-16.4 1.3-22.4 1.6-16.3.9-32.2 1.7-48.4 4M325.8 26.1c-7.8-2.6-7.6-3.5-16.2-5.5l-9.4-2.1q-3.4-1-6.8-1.4L283.3 16l-32.1-3.2c2-1.6 4.3 0 6.5 0q11.7 0 23.2 1.5l19.6 2.9q6.4.7 12.4 2.8c2.2.8 13.4 3.2 12.9 6.1ZM236.8 34.1q-.1 1.5-1.4 1.6l.2-22.8c1 1.5.4 3.1 1.2 4.6zM230.3 31c-2-6-.5-12.2-1.8-20.1 1.7 1.6 1.8 3.6 2.1 5.8zM50.2 22.6c1 .4-.5 9.9-.8 12.5-.2-4-.8-8.2.8-12.5M60.6 32.6c-.8-3 .2-5.2.7-8q1.1 4-.7 8M241.2 26.6a10 10 0 0 1 0-4.6c1.6 1 2 3.2 0 4.6M150.3 413.4c-5.6.2-11 .9-16.6 0l-20.6-3.2c-4.7-.7-9-2.2-13.6-3.5a52 52 0 0 1-20-10.1c-4.8-4.3-4.2-10.4.4-14 4.6-3.7 13-7.6 18.6-8.6 2.7-.5 5-3.2 8.3-1.6-4.2.5-7.6 2.2-11.5 3.7-5.5 2.2-18 7.1-17.4 14.3.8 7.8 17.3 12.8 24.6 14.7l10.8 2.7 15.8 2.8zM255.2 399.6c2.9-2.7 7-5 7-9.4.2-7.5-10.8-11.7-16.6-13.6-2.1-.8-4-2-6.3-2.6-5.7-1.4-10.8-3.6-16.5-4.3 2.9-2 18.1 2.9 21 4 7.6 2.7 23.6 8.2 20 18.6a12 12 0 0 1-8.6 7.2M216 378.6c4 8.5-19.9 16-25.6 14.4q3.8-.3 7.7-2c6.6-2.5 15.2-5.1 18-12.4M126.5 382.7c-1.2.3-2-1-2.4-1.6-.7-1-.6-2.6.6-3.3 1 1.4-.1 2.7 1.8 4.9M167.9 414.2a4.5 4.5 0 0 1-5.4.2c1.6-1.5 3.4-2 5.4-.2M173.8 319c-.4 3.5.6 6.6-.5 10a229 229 0 0 1 1.1-34.6c.5-2.4-.6-4.8 1.3-6.6.7 1.7-.6 3-.6 4.6q.3 10.2-.6 20.2c-.2 2 .4 4.1-.7 6.3M176.3 356.8c.6.4-.3 1.2-.6 1.4-3.5-.3-7 .8-10.8-.6 3.9-1.6 7.2 0 11.4-.8M188.4 216.8c1 3.4-9.3 4-11.7 2.8zM181.7 324.4c-1.1-2.6.4-4.8.4-7.2q-.1-5 .6-9.7l1.3-10c.6-5.2.5-10.3 2.7-15l-.5 6.7-2.6 20.8c-.4 2.7-.5 12.7-1.9 14.4M155.2 351.8l2.5-11.4c1.3-6 .5-12.3 0-18.6l-.7-7.9q-.5-4.5-.5-9.2c.1-5.7-2.5-11-1.8-17 1.7 7.8 3 18.6 3.7 26.9l.6 7.9c.6 7.6.3 23-3.8 29.3M177 383c4 .1 7.3-1.8 10.7-1a82 82 0 0 1-44.4-2 5 5 0 0 1 3.8.1c10.4 4 18.6 2.6 29.9 2.9ZM181.8 205.1a6 6 0 0 1 .7-6.5c-.1 2.3.4 4.1-.7 6.5M187.2 186.8c-4.5 4-31.4 2.7-35.6 0 12.2.8 23.6.7 35.6 0"/></g></g></svg>