<svg xmlns="http://www.w3.org/2000/svg" id="Layer_2" viewBox="0 0 365 434.6"><g id="OpenNoTape"><g id="PBTlTq.tif"><path d="M19.5 47.2A45 45 0 0 1 8.4 32.3c-2.1-4-4.1-8.4-2-12.7 1 3 .5 4.8 2 6.8 1 1.4 13.8 26.1 16 17.5.8.7.3 1.6.6 2.7 5.6 1 11.6-1.4 14.6-6.6a12 12 0 0 0 1.1-8.7c-1.4-5.6-6.3-18.4-10.2-21.6-1.7-1.5-5.3-1.2-7.3-.7A29 29 0 0 0 6.9 20C6 15.2 15 10 17.8 8.5Q23.6 5.3 30 7.4c.8 0 .7-1.1.2-1.3C18.7.8 5.5 9.8 4.2 19.4q-1.3 9.2 3 17.5c3.7 7 6.8 13.8 9 21.4a76 76 0 0 0 7.4 16l9.5 16.9c4.9 8.7 8 13.5 11.2 23.4q4.3 12.4 9.3 24.4c.5 1.2.1 2.5 1.7 3-.2-3-1.3-6.7-2-10.3.4-.8 1.3-.7 1.5 0 .1 3.4 1.3 6.1 1.8 9.1 2 13.2 7.6 17.2 12.8 27q1 2.1 2.3 4c4.3 6.2 7.5 13 11.3 19.6 4.8 8.5 8.5 17.3 12.3 26.3 2.2 5 8 22.5 6.8 28-3.5-2.8-4-14-7.2-18.4.7 10.6 2.5 10.3.3 21.4q-.5 1.8-1.9 2.6c.8-8 .7-17.7-2.2-25.4 1-1.2-1-1.2-1-.3 1.2 7.7 2.3 8.5-.2 15.8.7 1.8-1.7 2-1.5.3 2.3-2.7.7-17 .5-17.3l-7.8-12-4.2-6.6-9-14.2-2.6-7.4a40 40 0 0 0-7.6-9.1l-9.6-7.5q-1-1 .4-1.4l9.9 6.4q.3 1.5 1.1 0c-1.1-1-2-1.6-3-3-1-1.2 0-2.3 1.2-1.2 2.3 2.4 3.7 4.8 5.7 7.4 2.6 2-3-6.5-2-5.4-4.5-4.8-.9-2.8-6.4-6.7-1.6-.4-1.2-1.1.4-1.2l4.7 3.1c1.2.9 1.3 2.8 3 3.3.2-2-1.5-2.3-2.2-3.6-1.7-2.9-2.5-6.8-5-9.2-2.8-.9-6.7-.4-9.7 0l-7.3 1.1c-4.1.6-8.3 1.6-10.6 4.6-.4.5 2 .7 1.4 1.7q-.4.7-1.1 1c-3.5 1.1-8 5.1-10.8 7.6-7 6.1-4.2 8-5.4 16.8-.4 1-.2 1.7 1 1.2-.2-2.7 5-11.6 7.4-12-.6 3.2-3.1 5.1-4 8.1-1.8 6-6.7 7.4 1 22.7q1.7 3.8 4 7.4l7.5 11c2.3 3.4 4.1 6.7 6.3 10l10 16.2c3 4.7 5.8 9.1 8.3 14l7.4 15q3.2 5.9 7.1 11.4c2.2 3.2 6.7 6.7 9.6 9.4l5.5 5.2c2 1.8 4 3.1 6.1 4.8l4.3 3.4q4.6 3.6 8.5 7.7l10.6 11.9c1.2 1.4 8.9 9.7 6.2 11.5-7.6-5.7-12-13.2-18.8-19-5.6-4.7-8.8-8.1-15.6-12.8-1-.1-1 .5-.3.9 1 .9 1 2.3 1.5 3.3l5.3 8.5a27 27 0 0 0 8.4 9.2c5.1 4 15.5 10.2 21.4 13.3l15.6 8q2.9 1.7 5.8 3.6l4.9 2.8c9.5 5.5 19.6 14.7 32.1 19.3l7.3 2.7c8.8 3.2 29.5 5.6 43.3 11.4l6 2.5q2.3 1 4.4 2c.5.3 18.4 9.5 13.7 9.7l-8.4-4.7-5.8-2.8q-5.3-2.7-11-5c-2.4-.8-5-.9-7.2-2.9-1-.4-1.1 1-.2 1.4q2 .8 4 1.4a58 58 0 0 1 12 6.7l15.8 11c5.8 3.9 13 4.8 19.8 5.6 1.2.1 1.2 2.3 2 2.7 2 1.1 11.8 5.4 10.6 7.7-.9 1.6-11.6-4.7-13.7-5.8-3-1.6-11.8-2.2-17-4.6-6.1-2.8-11.3-6.6-16.9-10.2l-6-4c-2.7-1.7-12.8-6.4-16.1-7.6l-10-3.8-17-4.8A88 88 0 0 1 163 382l-15-9.7-9-5.7-3.8-2.3-7.5-4-6.6-3.5-8-4.3c-7.5-4-15.2-9-21.4-14.9-5.5-5.2-7.2-9.5-10.4-16l-3.2-6.8c-1.7-3.5-4.5-6-7-9q-6-7.4-11.2-15.1c-2.4-3.6-4-7.4-5.8-11.3-.6-1.6-1.7-2.9-2.3-4.5-2.5-6.7-12.7-24-17.2-29.7-2.2-2.8-3.9-5.8-6-8.7l-9-13.3-4.8-6.8c-1.1-1.6-1.7-3.5-2.7-5-2.6-4-3.5-8.4-3.7-13.3l-.7-14.6c-.4-7.8 4-15 9.6-19.8 3.8-3.2 7.1-7 11.8-9.1 6.2-3 17.4-4.2 24.8-4.4-10.6-20-13.2-37.1-24.4-57.1l-7.2-12.9c-3.5-6.2-7-11.3-9.7-16.5l-3-5.6C4.9 48.9 2.2 39 .3 28.7c-.5-2.9.1-5.7 0-8.5 0-2.4 1-4.3 1.5-6.3 1.3-4.3 4.1-6.7 7.6-9S16.1.6 20.4.1C26-.4 31.6.4 36 4.2q10.6 9.3 17.5 22l19 36.3Q78 73 84.6 82.7l9.9 14.8c6.2 9.4 13 18 16.8 28.9 3-11.4 6.8-11.9 15.6-16.3 2-1 3.6-2.3 5.8-2.8q8.3-1.6 16.2 1.7a42 42 0 0 1 11.9 6.7c.6.6 1.8.8 2.3 0 .8-1.4 1-3 1.9-4.4 2.1-3.2 5.2-6 8.6-7.6 3.9-1.8 8-1.2 12-.9 7.3.6 15.3 2.4 20.8 7.5q2.3 1.8 4.6 3.9 3.6 3.6 6.9 7.7l17.4 23.4c1.4 1.8 7.6 9 9.1 10l18.2 13.4a87 87 0 0 1 16.7 19.7q3 4 6 7.8l3.8 4.8c7.8 10 13 16.2 19.7 27.4 6 9.9 8 16 11.9 26.6l2.9 8 4.3 12.5c1.8 5.1 5.9 9.1 11 10.9 5.3 1.8 8.1 5.1 11.2 9.5 2.4 3.5 12.2 5.4 14.9 8.5-2.6 0-2.8-1.1-5.6-1.5-5.2-1.1 6.2 4.3 5 4.7-3.5.9-9.6-4.4-10-2.7-.6 2.5 8.6 9 6.8 13.4-1.3 0-1.9-5.1-4-4.3q-.2.2.1 1l1.4 5.6c.2.7-2 18.1-2.5 21.1l-1.6 8.3a68 68 0 0 1-3.2 12.2c-1.8 4.7-3.4 9.3-6 13.8-.5 1-1.4.9-1.1-.3.9-.1 5.9-14.7 5.7-13.8q1.3-6.2 3.3-12.2c0 .2 1.9-12.4 2.5-14.5.4-1.5-.4-3-.2-4.6a39 39 0 0 0-7.3-24c-2.2-2.8-3.7-6-6.3-8.4-2-2-4.7-2.4-7.3-3.4-5.9-2.5-12.4-7.8-14.1-14l-3.2-11.3c-5.6-20.5-7.9-29.5-20.8-47q-4.9-6.6-10-13-4.6-5.1-8.5-10.8l-6.7-10.3c-1.8-2.6-5.8-10.2-7.6-11.3-1.6-.9-3.1-1.4-4.3-2.9-1.6-1.8-3.7-2.8-5-4.7-.6.7-.3 1.1-.1 1.7.1 1.3-.3 2-1.2 1-1.5-7.1-5-5.7-8-9.6-1 1.3.3 1.6.7 2.3a198 198 0 0 1 4.4 12.5c0 .7-.7.8-1 .2-2.4-6-.8-4-3.9-9.5l-3.7-6.6c-1-.7-.7.4 0 1.2-.3.6 1.7 5 2.2 6.4.5.8.1 1.5-.8.9-3-4.4-3.4-6.4-5.8-10.7-2.2-3.8-9.4-13.6-12.5-16.7l-11.5-11.5-5.3-4.7a51 51 0 0 0-12.2-7c-.6-.4-.4-1.5.4-1.7 9.7 2.8 14.7 8.3 21.6 15 .5.5 1.3.8 1.5 0-1.6-2.6-3.1-4.5-5.3-6.1l-7.5-5.6a29 29 0 0 0-11.8-5.6c-3.7-.7-16.9 2.3-13.5 0q1-.4 4.6-1.3 5.9-1.7 12.2 0c1.5.2 1.8-.6.2-1l-8.1-1.8 3.2-1.5c-12.1-3-7 .3-12.4 1.6-2.4.6-3 3.5-8.1 2.5-1.6.9-2.5 2.4-3.8 3.8-.7.7-2-.2-2.5.1-1.2.7-1 2.8 0 3.6l2-.1c.6 1.6-.2 3.3 1.7 4.5.8-3 4.3-8 7-9.5.5-.2.7-.7 1-.6 1.8 1-1 1.4-3.7 5.7l-3.6 6c1.7 2.5 2.5 5.2 3.7 8 2 4.9 5.3 9 6.8 13 .9 2.1 2.5 3.7 3.6 5.7l3.3 5.8c1.5 2.7.6 11.3 13 21.5l8.6 7q.8 1 .4 1.7c-1.2 2.2-5.5-1.1-8-2.6l-.3 3.4q-2.8-1.2-4.3-3.4c-3.5-4.6-7.8-1.9-16.2-18.6-.8-1.4-4.5-6.9-2.3-6.8 4.3 6 6 11.8 11.6 17.7.2-3.7-2.1-6-3.7-8.8l-4-6.8-3.9-7-7-13.6q-1.3-2.2-2.4-4.6l-4.6-8.3c-2.1-3.8-6.3-5.5-9.6-8.1-.8-2.5 5 2.5 4-.2-1.3-3.4-10-7.8-13.3-8.9-1.7-.5-3.3-.7-5-1.8-1.8-.1-1.7 2.1.1 1.4 3.2.9 5.6 2.4 8 3.8-2.6.4-4.5-.1-6.9-.5-8.9-1.4-15 1.5-20.5 8.1q-1.3 1.7-3.9.6c-1 3-1.7 7-.7 10.4 1.9 6.3 2.6 12.8 5.2 18.6l5.8 12.7c2.5 5.5 7.5 14 11 19 .9 1.2 2 2 2.8 3.4 1.1 1.9 3 3 4.6 4.4l4 3.7c2 1.8 4.2 3.2 6 5.2 1.2 3.5-7.7-2.7-8.5-3.4-.6-.5-.9-1.7-2-.8l9.7 10.8q.8.5 1 1c-1.1 4-16.6-13.4-18-15.7a454 454 0 0 1-22.4-42.3l-2.7-5.7a161 161 0 0 1-6.8-15.6c-2.9-8.3-7.6-15-12.2-22.3L87 96q-4-5.9-7.9-12.1-4.4-7.4-8.3-14.9l-2.3-4.6-13.7-27.8C53.5 34 40.9 15.2 39 13.4L35.4 10c-.5-1.1-1.2-.3-.8.6 4 5 6 10.7 7.8 16.6 2.1 6.6.7 14.7-5.2 18.8-4.7 3.3-13 5-17.7 1.2Z"/><path d="m85.3 209.7-1.6-2.5-2.6-4-8.6-13.8-2.5-7q-.5-1.3-2-3.3a6 6 0 0 0 1-2.3q3.3 5.2 6.2 10.9l3.4 6.2q5.7 10 10 20.8zM174.8 109h-.6l2.7-1.3q-.7.3-1 .8-.8.5-1.1.5M212.2 123.4c-1.2-5.4-12-11.4-11.2-8.1-.4-1.5 10.6 8.3 11.2 8"/><path d="M212.2 123.4c-1.2-5.4-12-11.4-11.2-8.1-.4-1.5 10.6 8.3 11.2 8M127.9 117.6c.2-2.5-8 3.4-6.7 4.5 3.8-1.8 3-3.3 6.7-4.5"/><path d="M127.9 117.6c.2-2.5-8 3.4-6.7 4.5 3.8-1.8 3-3.3 6.7-4.5M66.3 174.7l5.9 14.4c-.4 1 1.1 1.7.5.7 1-3.5-3-13.8-6.4-15"/><path d="m66.3 174.7 5.9 14.4c-.4 1 1.1 1.7.5.7 1-3.5-3-13.8-6.4-15M85.6 210.3c1.3-.5.2-1.2 0-1.7-2.5-5.2-4.7-10.2-8-15-2 2.1 6.2 14.1 8 16.7"/><path d="M85.6 210.3c1.3-.5.2-1.2 0-1.7-2.5-5.2-4.7-10.2-8-15-2 2.1 6.2 14.1 8 16.7M254.8 215.4c-.3 3.2-.5 5 .3 7.5-.2 1.5-1 1.7-1 0-3.8-7.2.4-15-3.5-21l-.9 3.4c-.5 1-1.2.2-1.4-.8-2-8.5-10.4-15.5-17.3-20-3.5-2.2-6.5-.3-6.9-1.4-.5-1.5 5.9-2.4 11.7 2.4 2 1.5 3.7 1.4 6 1.7s4 2.9 5.7 4.4c1 1 2.2 1.3 3 2.4q2.9 4.3 4 9.4l2.5 10.5c.7 2.7 1.6 5.2 1 8.3-1.9-1.4-1.9-3.5-3-5.3.4-.9-.6-2.2-.2-1.5ZM122.8 315.4c2.3 1.2 7.7 2.5 10.5 4-1.6.9-2.8.2-4-.3-3.6-1.4-7-2-10.7-3.1l-5.9-1.8-5.5-1.5-11.7-2.8c-4.1-1-7.6-3.2-11.2-5-8.4-3.9-9.1-12.7-9.8-20.5-.3-2.6-1.1-5-.6-8-.3-1.5 1-1.6.6 0 1.1 2.5.8 4.8 1 7.2.2 2.8 1.7 5.2 2.1 8q.8 3.4 2.8 6.4c6.2 10.3 33.3 12.6 42.4 17.4Z"/><path d="M122.8 315.4c2.3 1.2 7.7 2.5 10.5 4-1.6.9-2.8.2-4-.3-3.6-1.4-7-2-10.7-3.1l-5.9-1.8-5.5-1.5-11.7-2.8c-4.1-1-7.6-3.2-11.2-5-8.4-3.9-9.1-12.7-9.8-20.5-.3-2.6-1.1-5-.6-8-.3-1.5 1-1.6.6 0 1.1 2.5.8 4.8 1 7.2.2 2.8 1.7 5.2 2.1 8q.8 3.4 2.8 6.4c6.2 10.3 33.3 12.6 42.4 17.4ZM273.7 201.5c6.6 11.9 8.8 11 15.6 20.6l1 1.4q3.8 2.7 6.3 7.4 1.5 2.5 2 5.2 1.1.2 1.6-.5c.2-.3-.3-.5-.3-1.4-1.5-1.4-1.9-3.3-2.7-5a83 83 0 0 0-11.8-16.8l-5.4-6.2a44 44 0 0 1-3.6-4.8l-7.4-11.2c-.3-.4-1.3.3-1 1z"/><path d="M273.7 201.5c6.6 11.9 8.8 11 15.6 20.6l1 1.4q3.8 2.7 6.3 7.4 1.5 2.5 2 5.2 1.1.2 1.6-.5c.2-.3-.3-.5-.3-1.4-1.5-1.4-1.9-3.3-2.7-5a83 83 0 0 0-11.8-16.8l-5.4-6.2a44 44 0 0 1-3.6-4.8l-7.4-11.2c-.3-.4-1.3.3-1 1zM325.6 304.6c-2.4 4 2 4.1.7 9.8-3.7-2-.5-4.2-3.7-7.7-4-4.5-6.3-9.6-8-15.2-1-3.4-2.9-6.5-2.6-10.3 0-1.7-.6-3-.7-4.7l-.3-9-2.8-9.8c-1.3-4.3-3.5-8-4-12.7l2.6 3.7c1.5 2 1.7 4.5 2.8 6.7 4.2 8.1 1.8 7.4 2.9 13.7.6 3.8-.2 7.5.3 11.4.3 2.3 1.7 4.2 2.2 6.3.6 3 1.2 5.3 3.4 7.4 1.6 1.6 2.2 7 3.9 8.3 1 .7 3 .8 3.3 2.1Z"/><path d="M325.6 304.6c-2.4 4 2 4.1.7 9.8-3.7-2-.5-4.2-3.7-7.7-4-4.5-6.3-9.6-8-15.2-1-3.4-2.9-6.5-2.6-10.3 0-1.7-.6-3-.7-4.7l-.3-9-2.8-9.8c-1.3-4.3-3.5-8-4-12.7l2.6 3.7c1.5 2 1.7 4.5 2.8 6.7 4.2 8.1 1.8 7.4 2.9 13.7.6 3.8-.2 7.5.3 11.4.3 2.3 1.7 4.2 2.2 6.3.6 3 1.2 5.3 3.4 7.4 1.6 1.6 2.2 7 3.9 8.3 1 .7 3 .8 3.3 2.1ZM148 243.8l-9.5-4.7c-.7-.3-1.7-1.5-1-1.8l5.2 1.2c-.3-3.1-3.3-1.7-4-5 7.5 1.3 22.8 13.3 19.9 22.7-4-5.4-3.5-8.9-10.6-12.3Z"/><path d="m148 243.8-9.5-4.7c-.7-.3-1.7-1.5-1-1.8l5.2 1.2c-.3-3.1-3.3-1.7-4-5 7.5 1.3 22.8 13.3 19.9 22.7-4-5.4-3.5-8.9-10.6-12.3ZM343.7 368.3c-1.2 3-9.7 19.3-12.5 20.9-.3-2 1.4-2.8 2-4.2 2-5.2 4.2-8.1 6.6-13.3l4.1-9q2-4.6 3.6-9.5c4.4-12 2.2-12.1 5.6-22.7 1.3 1.5-1 9-1 10.9 0 2.2-.7 3.9-1.1 5.9q-1.2 5.9-3.5 11.8z"/><path d="M343.7 368.3c-1.2 3-9.7 19.3-12.5 20.9-.3-2 1.4-2.8 2-4.2 2-5.2 4.2-8.1 6.6-13.3l4.1-9q2-4.6 3.6-9.5c4.4-12 2.2-12.1 5.6-22.7 1.3 1.5-1 9-1 10.9 0 2.2-.7 3.9-1.1 5.9q-1.2 5.9-3.5 11.8zM210.3 234.6c0 2 1.1 3.3.5 5.1-2.6-.8-1.8-9.5-3-12.5-1-2.7-3.1-4.9-5-7.2q-5.6-7.5-13.8-12.2c-1.7-1-3.2-2.2-5.3-2.4-1.5-1.2-3-1.6-5.2-2.2 1.7-1 3.5-.4 5.3.5l8.6 4.5c4.2 2.2 5.7 5.4 12.8 8.6 2.5 1.1 5 10.8 5 11.5z"/><path d="M210.3 234.6c0 2 1.1 3.3.5 5.1-2.6-.8-1.8-9.5-3-12.5-1-2.7-3.1-4.9-5-7.2q-5.6-7.5-13.8-12.2c-1.7-1-3.2-2.2-5.3-2.4-1.5-1.2-3-1.6-5.2-2.2 1.7-1 3.5-.4 5.3.5l8.6 4.5c4.2 2.2 5.7 5.4 12.8 8.6 2.5 1.1 5 10.8 5 11.5zM135 280.3q1.2 1.2 3.2 2.2c.7.9-.2 1.5-1 1.1a52 52 0 0 1-14-10.2c-1.9-2-3-4.8-4.3-7.3-4.9-9.4-2-14.4-2.8-22.1-.2-1.7 2-1.8 1.7-.1q-1.4 3.4-.8 6.6l2.8 12c1.4 6 5.5 10.7 10.8 13.4l6 3c1 .5.1 1-1.6 1.3"/><path d="M135 280.3q1.2 1.2 3.2 2.2c.7.9-.2 1.5-1 1.1a52 52 0 0 1-14-10.2c-1.9-2-3-4.8-4.3-7.3-4.9-9.4-2-14.4-2.8-22.1-.2-1.7 2-1.8 1.7-.1q-1.4 3.4-.8 6.6l2.8 12c1.4 6 5.5 10.7 10.8 13.4l6 3c1 .5.1 1-1.6 1.3M224.5 244c.4 1 4 9.6 2.3 8-2.5-5.7-5.3-8.4-7.2-15q-1-2.7-2.3-5.3a32 32 0 0 0-10.6-14.7c-.8-.7-1.6-2.5-.4-3 8.3 4 13.3 17.2 16.3 25z"/><path d="M224.5 244c.4 1 4 9.6 2.3 8-2.5-5.7-5.3-8.4-7.2-15q-1-2.7-2.3-5.3a32 32 0 0 0-10.6-14.7c-.8-.7-1.6-2.5-.4-3 8.3 4 13.3 17.2 16.3 25zM169.5 264c2.5 4.8 7.4 7.7 8.7 13a47 47 0 0 1-13.5-16.6c-1-2-1-4.5-2-6.5l-5.5-10c-5-9-7.6-6-10.1-10.6 7.5 2.8 7.8 7 11.4 9.6.8.6 5.2 9.7 6 11.1z"/><path d="M169.5 264c2.5 4.8 7.4 7.7 8.7 13a47 47 0 0 1-13.5-16.6c-1-2-1-4.5-2-6.5l-5.5-10c-5-9-7.6-6-10.1-10.6 7.5 2.8 7.8 7 11.4 9.6.8.6 5.2 9.7 6 11.1zM341.9 338.3c-.3 4-.5 7.8-1.8 11-1.5 1.1-1 2.7-1.5 4.5-1.6.3 1.5-13.5 1.6-14 .7-7 .2-14.5-2-21l-4-12.9c3.5 1.4 5.5 10 5.6 13.8 0-.1 2.8 7.1 2 18.6Z"/><path d="M341.9 338.3c-.3 4-.5 7.8-1.8 11-1.5 1.1-1 2.7-1.5 4.5-1.6.3 1.5-13.5 1.6-14 .7-7 .2-14.5-2-21l-4-12.9c3.5 1.4 5.5 10 5.6 13.8 0-.1 2.8 7.1 2 18.6ZM305.2 407.2a94 94 0 0 1-20.6 11.6c-.7-2.6 1.7-3 3.4-3.7 7.2-3 13.5-7.3 19.7-11.7 1.8-1.3 3.1-3.3 5.7-3.4-1.9 3.4-5.2 5-8.2 7.1"/><path d="M305.2 407.2a94 94 0 0 1-20.6 11.6c-.7-2.6 1.7-3 3.4-3.7 7.2-3 13.5-7.3 19.7-11.7 1.8-1.3 3.1-3.3 5.7-3.4-1.9 3.4-5.2 5-8.2 7.1M117.7 270.5c-3.7-1.4-6.3-26.4-5-29.3 1.2 1.8.1 3.6.5 5.4l1 5.2c.3 2 .2 3.7.6 5.6l1.8 8.8c.3 1.2 1.5 2 1 4.3Z"/><path d="M117.7 270.5c-3.7-1.4-6.3-26.4-5-29.3 1.2 1.8.1 3.6.5 5.4l1 5.2c.3 2 .2 3.7.6 5.6l1.8 8.8c.3 1.2 1.5 2 1 4.3ZM188 379.4c-2 1.4-3.9 0-6-.5l-5.2-1.5-8-1.4-2-1.2c-2.2-1.2-4.7-1-6.8-2.3 2.3-1 3.9.5 5.8 1 2.4.5 4.7.4 7 1.2l5.5 1.6c1.6.5 2.9 1.5 4.7 1.4 1.4 1.3 3 1.2 5 1.7"/><path d="M188 379.4c-2 1.4-3.9 0-6-.5l-5.2-1.5-8-1.4-2-1.2c-2.2-1.2-4.7-1-6.8-2.3 2.3-1 3.9.5 5.8 1 2.4.5 4.7.4 7 1.2l5.5 1.6c1.6.5 2.9 1.5 4.7 1.4 1.4 1.3 3 1.2 5 1.7M89.2 194.8c.3 1 0 2.1-.9 1.4l-3.7-7.3-3.1-5.4-2.3-3.9c-1.6-2.6-4.2-4.4-4.6-7.8 2 1.4 2.5 3.6 4 5.3 3.3 3.5 4.7 8.2 7.2 11.3 1.4 1.8 2 4.2 3.4 6.4Z"/><path d="M89.2 194.8c.3 1 0 2.1-.9 1.4l-3.7-7.3-3.1-5.4-2.3-3.9c-1.6-2.6-4.2-4.4-4.6-7.8 2 1.4 2.5 3.6 4 5.3 3.3 3.5 4.7 8.2 7.2 11.3 1.4 1.8 2 4.2 3.4 6.4ZM222.1 278.3c-5.7-3.7-10-4.6-14-10.4l-3.2-4.4c-2.4-3.5-5.9-6-9-8.8-1.7-1.7-6.4-3.4-6-4.6.3-.8 1-.5 1.6-.3 3.3 1.3 5.4 3.7 7.8 6.2l5.6 6c6.9 7.1 7.4 8.3 16.7 14 .7.6 1.5 1.2.5 2.3"/><path d="M222.1 278.3c-5.7-3.7-10-4.6-14-10.4l-3.2-4.4c-2.4-3.5-5.9-6-9-8.8-1.7-1.7-6.4-3.4-6-4.6.3-.8 1-.5 1.6-.3 3.3 1.3 5.4 3.7 7.8 6.2l5.6 6c6.9 7.1 7.4 8.3 16.7 14 .7.6 1.5 1.2.5 2.3M38.6 236.8c.4.8 5.1 7.6 3.4 6.8-2.5-2-6.9-10.6-8.8-14.2-1.4-2.7-3.4-5-4.2-8.2 0-.8.8-.8 1.3-.3.6 2.6 1.8 4.6 3.1 6.8l2.7 4.3z"/><path d="M38.6 236.8c.4.8 5.1 7.6 3.4 6.8-2.5-2-6.9-10.6-8.8-14.2-1.4-2.7-3.4-5-4.2-8.2 0-.8.8-.8 1.3-.3.6 2.6 1.8 4.6 3.1 6.8l2.7 4.3zM77.7 151.4c4.4-1.3 10-2.7 13.6-6.7 2.6-2.6 3.4-7 5-6.6a19 19 0 0 1-13.9 13.1c-1.3.4-2.4 1.3-4.7.2"/><path d="M77.7 151.4c4.4-1.3 10-2.7 13.6-6.7 2.6-2.6 3.4-7 5-6.6a19 19 0 0 1-13.9 13.1c-1.3.4-2.4 1.3-4.7.2M235.9 180.5c3 .1 8 2.9 6.1 4.1-5.9-1-12.3-3-15.7-8.2 3.6 1.2 5.9 4 9.6 4.1"/><path d="M235.9 180.5c3 .1 8 2.9 6.1 4.1-5.9-1-12.3-3-15.7-8.2 3.6 1.2 5.9 4 9.6 4.1M197.7 385.9c-5.8 1.1-12-3.2-18.6-5-.5-.3-.5-1.1.2-1.1l7.6 2.5c3.5 1 6.8 1.1 10.8 3.6"/><path d="M197.7 385.9c-5.8 1.1-12-3.2-18.6-5-.5-.3-.5-1.1.2-1.1l7.6 2.5c3.5 1 6.8 1.1 10.8 3.6M141 119c-5.4 2.6-6.6.4-14.5 5.4-2 1.2-2.7 3.6-5.2 4.3 2-5.2 14.1-11.5 19.6-9.7"/><path d="M141 119c-5.4 2.6-6.6.4-14.5 5.4-2 1.2-2.7 3.6-5.2 4.3 2-5.2 14.1-11.5 19.6-9.7M333.5 326.8c0 .7-.8 1.3-1.6 1.5l.2-17.9q1.3 1.8 1.3 4z"/><path d="M333.5 326.8c0 .7-.8 1.3-1.6 1.5l.2-17.9q1.3 1.8 1.3 4zM318 280c.3 1.2 0 2.6-2 3.2-1.3-5.3-2-10.2-1.7-15.9 1.7 1.5 1.1 3.5 1.7 5.5z"/><path d="M318 280c.3 1.2 0 2.6-2 3.2-1.3-5.3-2-10.2-1.7-15.9 1.7 1.5 1.1 3.5 1.7 5.5zM74 144.8c1.7-1.7 4.2-2.1 6.7-3 1.3-.5 2.2-1.5 3.4-2 3-1.4 4.4-4.2 6.5-6.6.5 2.6-1.8 3.7-3 5.5-4 3-7.8 5.8-13.6 6"/><path d="M74 144.8c1.7-1.7 4.2-2.1 6.7-3 1.3-.5 2.2-1.5 3.4-2 3-1.4 4.4-4.2 6.5-6.6.5 2.6-1.8 3.7-3 5.5-4 3-7.8 5.8-13.6 6M81 214.8c0 1.7-.9 2.3-1 .6-1.7-1.9-2.6-3.8-3.9-5.7l-4.2-6.5c-.9-1.3-2.3-2.6-1.6-4.6 2.3 3.8 4.4 7.1 7 10.7 1.1 1.6 1.5 3.9 3.7 5.5Z"/><path d="M81 214.8c0 1.7-.9 2.3-1 .6-1.7-1.9-2.6-3.8-3.9-5.7l-4.2-6.5c-.9-1.3-2.3-2.6-1.6-4.6 2.3 3.8 4.4 7.1 7 10.7 1.1 1.6 1.5 3.9 3.7 5.5ZM138.2 177.3c.5.9 1.8 1.2 1 2.3a52 52 0 0 1-7.8-13.6c-.5-1.4-1.8-2.3-1.2-4.2 1.4.4 2 4 3.9 7.6z"/><path d="M138.2 177.3c.5.9 1.8 1.2 1 2.3a52 52 0 0 1-7.8-13.6c-.5-1.4-1.8-2.3-1.2-4.2 1.4.4 2 4 3.9 7.6zM109.7 144l-2.3-6.3c-2.2-5.9-3.5-6.2-6.7-11 1.5-.8 1.5.2 2 1 2.3 2.5 8.3 12 7 16.4"/><path d="m109.7 144-2.3-6.3c-2.2-5.9-3.5-6.2-6.7-11 1.5-.8 1.5.2 2 1 2.3 2.5 8.3 12 7 16.4M100.9 275.8c-1.9 0-2.4-1.7-3.6-2.6a32 32 0 0 0-8.2-4.9c-1.2-.4-2.7.1-3-1.8 5.8 1.3 12.8 3.4 14.8 9.3"/><path d="M100.9 275.8c-1.9 0-2.4-1.7-3.6-2.6a32 32 0 0 0-8.2-4.9c-1.2-.4-2.7.1-3-1.8 5.8 1.3 12.8 3.4 14.8 9.3M31.8 177.4c-5.6 4-7.2 4.7-11.8 9.3 0-2.8 2.6-3.5 4-5.4q2.5-3.4 6.7-5c1.3 0 2 .2 1 1.1"/><path d="M31.8 177.4c-5.6 4-7.2 4.7-11.8 9.3 0-2.8 2.6-3.5 4-5.4q2.5-3.4 6.7-5c1.3 0 2 .2 1 1.1M283.5 420.6c3-.1-3.8 5.3-10 2.5 3.4-2 6.5-2.4 10-2.5"/><path d="M283.5 420.6c3-.1-3.8 5.3-10 2.5 3.4-2 6.5-2.4 10-2.5M329.4 323c-.2 5-1.1-14.5-1.3-8.6 0-2.5-.4-4.8.3-7q.7 2.1 1 4l.8 6.1c.3 1.7-.8 3.5-.9 5.4Z"/><path d="M329.4 323c-.2 5-1.1-14.5-1.3-8.6 0-2.5-.4-4.8.3-7q.7 2.1 1 4l.8 6.1c.3 1.7-.8 3.5-.9 5.4ZM99.3 277.3c-2.4.1-2.5-1.6-3.7-2.5-2.5-.7-4.5-1.9-6.9-3-1.2-.7-3-.3-3.3-2.1q2.4.3 4.3 1.1l6.3 3c1.1 1.3 2.4 2 3.3 3.5Z"/><path d="M99.3 277.3c-2.4.1-2.5-1.6-3.7-2.5-2.5-.7-4.5-1.9-6.9-3-1.2-.7-3-.3-3.3-2.1q2.4.3 4.3 1.1l6.3 3c1.1 1.3 2.4 2 3.3 3.5ZM255 174.9c1.4-.1 5.2 14.9 3.3 14.8l-1.2-4.6c-.8-3.4-2.1-6.4-2.2-10.2Z"/><path d="M255 174.9c1.4-.1 5.2 14.9 3.3 14.8l-1.2-4.6c-.8-3.4-2.1-6.4-2.2-10.2ZM16.3 180c-1 .7-1.2-.2-1-1.2.3-1.2 1.9-1.8 2.5-2.9q2.4-4 6.7-6.6c.9-1.1 2-.3.9.8a16 16 0 0 0-6.2 5.8c-.8 1.4-2.5 2.2-3 4.1Z"/><path d="M16.3 180c-1 .7-1.2-.2-1-1.2.3-1.2 1.9-1.8 2.5-2.9q2.4-4 6.7-6.6c.9-1.1 2-.3.9.8a16 16 0 0 0-6.2 5.8c-.8 1.4-2.5 2.2-3 4.1ZM22.9 212.5c.5 1 0 2.1-.8 1.4a25 25 0 0 1-3-7.3c-.5-2-2.3-3.2-2.2-5.5 2 1.4 2.3 3.8 3.3 6z"/><path d="M22.9 212.5c.5 1 0 2.1-.8 1.4a25 25 0 0 1-3-7.3c-.5-2-2.3-3.2-2.2-5.5 2 1.4 2.3 3.8 3.3 6zM71.8 292c-.5-2 0-3.6-1-5.4.5-4.8-2-7.6-.4-10.8.7 1.7.5 3.2 1.3 4.7q-.7 3.6.7 7c-.4 1.6.5 3-.6 4.5"/><path d="M71.8 292c-.5-2 0-3.6-1-5.4.5-4.8-2-7.6-.4-10.8.7 1.7.5 3.2 1.3 4.7q-.7 3.6.7 7c-.4 1.6.5 3-.6 4.5M325.2 296.8c-2.2 1.3-7.5-8.7-6-9.5.6 2.6 8.5 9.4 6 9.5"/><path d="M325.2 296.8c-2.2 1.3-7.5-8.7-6-9.5.6 2.6 8.5 9.4 6 9.5M46 108.7c-2.1-.7-3.7-8.1-6.2-11.6 0-1.6.9-1.8 1-.3 2.3 4 3.4 6.6 5.2 11.9"/><path d="M46 108.7c-2.1-.7-3.7-8.1-6.2-11.6 0-1.6.9-1.8 1-.3 2.3 4 3.4 6.6 5.2 11.9M190.3 159.7c0 2.2-7.4-11-5.2-9.5 2.2 2.9 4 5.7 5.2 9.5"/><path d="M190.3 159.7c0 2.2-7.4-11-5.2-9.5 2.2 2.9 4 5.7 5.2 9.5"/></g></g></svg>