<?xml version="1.0" encoding="UTF-8"?><svg id="Layer_2" xmlns="http://www.w3.org/2000/svg" viewBox="0 0 364.99 434.55"><g id="OpenNoTape"><g id="PBTlTq.tif"><path d="M19.48,47.18c-5.11-4.15-8.23-9.4-11.09-14.88-2.13-4.07-4.13-8.37-2.02-12.68,1.03,2.93.48,4.74,1.97,6.78,1.02,1.39,13.9,26.1,15.99,17.53.89.63.34,1.61.71,2.67,5.6.92,11.58-1.43,14.58-6.56,1.49-2.55,1.86-5.93,1.12-8.79-1.44-5.54-6.32-18.33-10.22-21.56-1.75-1.45-5.29-1.15-7.36-.67-6.76,1.54-11.74,5.41-16.23,10.84-1.06-4.69,7.99-9.84,10.85-11.33,3.83-2,7.95-2.64,12.25-1.15.72-.01.69-1.08.16-1.32C18.7.75,5.54,9.81,4.17,19.41c-.86,6.06.24,12.11,3.09,17.51,3.66,6.92,6.76,13.79,8.96,21.38,1.68,5.78,4.47,10.85,7.4,16.06l9.44,16.81c4.92,8.77,8.01,13.55,11.27,23.46,2.76,8.38,5.97,16.23,9.3,24.4.47,1.14.09,2.48,1.63,2.88-.19-2.96-1.26-6.57-1.87-10.18.27-.85,1.21-.76,1.44.05.07,3.28,1.3,6.05,1.78,9.04,2.08,13.16,7.58,17.15,12.82,27.05.74,1.41,1.33,2.61,2.24,3.92,4.36,6.26,7.53,12.94,11.32,19.61,4.85,8.55,8.46,17.27,12.32,26.27,2.14,4.99,8,22.54,6.8,27.96-3.5-2.69-4.08-13.88-7.26-18.33.76,10.62,2.57,10.33.32,21.39-.24,1.19-.96,2.05-1.84,2.64.8-8.01.66-17.71-2.19-25.45.94-1.19-1.11-1.15-1.03-.24,1.22,7.68,2.34,8.51-.24,15.8.77,1.8-1.62,1.91-1.44.23,2.28-2.67.68-16.96.45-17.31l-7.74-11.98c-1.46-2.26-2.85-4.32-4.26-6.57l-8.9-14.23-2.7-7.41c-.54-1.49-5.25-7.23-7.6-9.07l-9.58-7.52c-.63-.5-.45-1.17.45-1.36l9.81,6.35c.14,1.1.78,1.04,1.17-.04-1.15-.87-2.1-1.58-3-2.91-1.08-1.21.06-2.29,1.21-1.2,2.22,2.34,3.71,4.78,5.66,7.38,2.59,2-3.03-6.5-1.99-5.39-4.51-4.82-.88-2.85-6.43-6.73-1.54-.37-1.16-1.13.41-1.18l4.69,3.13c1.26.84,1.32,2.81,3.03,3.22.21-1.93-1.46-2.22-2.21-3.52-1.7-2.93-2.48-6.84-4.97-9.25-2.78-.86-6.7-.4-9.7.05l-7.3,1.08c-4.16.62-8.37,1.54-10.63,4.62-.36.49,1.96.67,1.38,1.65-.26.43-.56.83-1.1,1-3.47,1.13-7.93,5.15-10.76,7.62-7.02,6.14-4.17,8.03-5.4,16.78-.41,1.01-.24,1.72.97,1.17-.17-2.65,5.01-11.53,7.42-11.98-.63,3.25-3.13,5.16-4.02,8.14-1.78,5.93-6.65,7.42.95,22.64,1.31,2.62,2.46,5.06,4.07,7.43l7.53,11.07c2.24,3.3,4.11,6.6,6.22,9.99l10.05,16.16c2.91,4.67,5.81,9.13,8.27,14.08l7.42,14.92c2.02,4.07,4.62,7.59,7.1,11.36,2.16,3.28,6.72,6.74,9.59,9.44l5.55,5.23c1.9,1.8,4.05,3.07,6.08,4.73l4.24,3.48c3.02,2.48,5.9,4.78,8.52,7.7l10.6,11.82c1.24,1.39,8.92,9.78,6.19,11.56-7.54-5.71-11.93-13.22-18.8-18.99-5.6-4.7-8.73-8.17-15.53-12.88-.98-.06-1.13.52-.31.95,1.01.89.88,2.25,1.51,3.27l5.25,8.52c2.7,4.38,3.91,5.73,8.37,9.17,5.16,3.98,15.53,10.21,21.46,13.29l15.55,8.08c2.11,1.1,3.8,2.37,5.8,3.53l4.91,2.84c9.5,5.5,19.59,14.74,32.17,19.34l7.29,2.66c8.8,3.22,29.51,5.58,43.29,11.4l5.99,2.53c1.51.64,2.89,1.13,4.35,1.94.54.3,18.4,9.52,13.72,9.71l-8.42-4.66-5.74-2.83c-3.67-1.81-7.25-3.53-11.09-4.92-2.35-.85-4.88-.96-7.14-2.94-1.02-.47-1.1.95-.25,1.34,1.45.65,2.69.91,3.97,1.4,4.37,1.69,8.17,4.06,11.99,6.69l15.91,10.95c5.8,3.99,12.91,4.9,19.8,5.68,1.21.14,1.22,2.32,1.95,2.72,2.02,1.1,11.78,5.44,10.61,7.66-.87,1.65-11.57-4.67-13.71-5.78-2.96-1.54-11.79-2.21-17.03-4.6-6.09-2.77-11.24-6.62-16.82-10.22l-6.05-3.91c-2.72-1.76-12.75-6.43-16.11-7.69l-10.04-3.78-16.87-4.82c-10.23-2.92-17.51-5.81-26.28-11.5l-14.98-9.71-8.94-5.65c-1.27-.8-2.51-1.64-3.83-2.32l-7.55-3.93-6.54-3.51-8.02-4.33c-7.56-4.09-15.24-9-21.44-14.92-5.47-5.22-7.19-9.46-10.35-16l-3.27-6.76c-1.69-3.49-4.48-6.11-6.96-9.07-4.09-4.9-7.62-9.87-11.2-15.11-2.42-3.54-4.04-7.31-5.75-11.24-.68-1.57-1.77-2.89-2.39-4.56-2.46-6.66-12.68-24.04-17.18-29.7-2.22-2.79-3.87-5.78-5.89-8.7l-9.15-13.22-4.76-6.88c-1.1-1.59-1.66-3.43-2.68-5-2.61-4.02-3.48-8.36-3.72-13.23l-.72-14.61c-.39-7.86,4.02-15.09,9.67-19.84,3.81-3.2,7.08-6.9,11.74-9.08,6.28-2.94,17.46-4.23,24.85-4.44-10.58-19.98-13.24-37.09-24.44-57.09l-7.2-12.86c-3.45-6.17-7.03-11.34-9.7-16.52l-2.88-5.6C4.84,48.88,2.14,38.98.22,28.67c-.53-2.83.09-5.71.02-8.5-.06-2.36.93-4.31,1.5-6.28,1.26-4.32,4.08-6.71,7.56-9.08S16.05.68,20.45.18c5.42-.61,11.06.2,15.45,4.03,7.09,6.18,13.06,13.44,17.5,21.93l19.03,36.38c3.72,7.12,7.71,13.58,12.15,20.22l9.9,14.8c6.25,9.33,12.98,18.03,16.85,28.86,3.01-11.38,6.72-11.89,15.6-16.32,1.91-.95,3.59-2.31,5.75-2.77,5.5-1.19,11.07-.45,16.19,1.71,4.33,1.82,8.31,3.62,11.88,6.72.69.6,1.84.72,2.33-.08.83-1.39.95-2.97,1.89-4.35,2.18-3.19,5.19-5.97,8.67-7.63,3.82-1.82,7.88-1.19,11.92-.86,7.36.61,15.37,2.38,20.84,7.43,1.47,1.35,3.14,2.4,4.58,3.9,2.46,2.55,4.75,4.91,6.9,7.78l17.47,23.36c1.36,1.82,7.53,8.93,9.07,10.05l18.22,13.36c6.24,4.58,12.27,13.31,16.69,19.73,1.87,2.71,4.02,5.15,6.06,7.76l3.72,4.76c7.84,10.03,12.93,16.26,19.69,27.46,5.96,9.87,8,15.91,11.89,26.58l2.9,7.95,4.32,12.58c1.75,5.11,5.88,9.13,10.92,10.86,5.36,1.85,8.18,5.16,11.3,9.56,2.42,3.41,12.2,5.35,14.84,8.44-2.52.07-2.75-1.08-5.54-1.48-5.18-1.14,6.13,4.34,5.04,4.67-3.6.89-9.63-4.4-10.07-2.64-.62,2.46,8.63,9.05,6.83,13.35-1.37-.06-1.88-5.13-4.03-4.27-.21.08,0,.54.11.99l1.35,5.58c.19.76-1.91,18.14-2.49,21.12l-1.62,8.28c-.86,4.41-1.59,8.12-3.19,12.25-1.8,4.64-3.32,9.27-5.96,13.74-.54,1.12-1.44.88-1.12-.32.9-.09,5.91-14.63,5.72-13.78.92-4.19,1.87-8.07,3.32-12.17-.06.17,1.88-12.41,2.44-14.49.41-1.5-.39-3.05-.19-4.58.93-7.18-3.02-18.81-7.32-24.09-2.2-2.7-3.64-5.95-6.21-8.38-2.07-1.96-4.78-2.35-7.33-3.41-5.87-2.45-12.44-7.77-14.13-13.86l-3.16-11.42c-5.65-20.44-7.92-29.43-20.87-46.92-3.3-4.46-6.41-8.77-9.97-12.99-2.98-3.53-5.89-6.96-8.44-10.83l-6.79-10.32c-1.72-2.61-5.72-10.23-7.57-11.28-1.6-.9-3.08-1.45-4.29-2.89-1.55-1.84-3.71-2.82-5.06-4.7-.57.68-.24,1.08-.05,1.63.17,1.3-.28,1.96-1.16,1.03-1.5-7.13-5.02-5.68-8.05-9.62-1.01,1.3.3,1.58.7,2.34.67,1.29,3.65,9.89,4.47,12.47-.03.74-.7.79-1.13.16-2.27-5.87-.7-3.95-3.78-9.46l-3.68-6.6c-.96-.65-.75.41-.08,1.23-.28.61,1.74,5.03,2.25,6.35.48.79.12,1.58-.79.93-2.96-4.41-3.45-6.39-5.87-10.69-2.15-3.82-9.31-13.63-12.41-16.7l-11.54-11.48c-1.7-1.69-3.41-3.29-5.26-4.78-1.14-.92-10.39-7.17-12.29-7.01-.51-.36-.35-1.45.49-1.61,9.68,2.76,14.63,8.25,21.58,14.97.52.5,1.29.76,1.43.08-1.52-2.71-3.08-4.61-5.27-6.23l-7.53-5.55c-3.53-2.6-7.35-4.83-11.76-5.62-3.69-.67-16.88,2.28-13.53.07.63-.41,2.36-.7,4.63-1.4,3.87-1.2,8-.98,12.19.1,1.5.14,1.79-.68.2-.96l-8.09-1.87,3.17-1.52c-12.08-2.92-7.01.25-12.32,1.56-2.49.62-3.02,3.54-8.17,2.52-1.58.92-2.52,2.43-3.8,3.79-.7.75-1.95-.17-2.48.14-1.19.71-.96,2.76,0,3.6l2.06-.16c.51,1.64-.21,3.33,1.66,4.59.81-3.1,4.28-8.06,6.91-9.51.61-.21.78-.72,1.02-.59,1.81.96-.96,1.39-3.63,5.7l-3.63,5.87c1.72,2.61,2.52,5.28,3.68,8.14,1.95,4.82,5.3,8.99,6.86,12.95.84,2.13,2.51,3.7,3.6,5.67l3.23,5.84c1.5,2.71.68,11.25,13.09,21.52l8.53,7.05c.58.48.61,1.21.39,1.63-1.16,2.14-5.46-1.16-8.05-2.66l-.18,3.45c-2.01-.83-3.28-2.02-4.31-3.38-3.51-4.62-7.82-1.92-16.26-18.59-.73-1.44-4.47-6.9-2.25-6.86,4.27,6.1,5.98,11.83,11.62,17.69.12-3.63-2.15-5.95-3.75-8.71l-3.96-6.87-3.89-6.94-7.11-13.6c-.83-1.58-1.51-3.11-2.36-4.64l-4.59-8.31c-2.1-3.82-6.26-5.52-9.53-8.11-.82-2.48,4.89,2.49,3.89-.21-1.25-3.39-9.89-7.72-13.28-8.84-1.61-.53-3.24-.73-4.95-1.85-1.76-.08-1.68,2.16.13,1.46,3.21.85,5.55,2.32,7.95,3.77-2.54.37-4.53-.13-6.89-.5-8.85-1.42-14.91,1.53-20.5,8.1-1.04,1.23-2.11,1.31-3.85.55-.97,2.96-1.78,7.02-.75,10.48,1.87,6.3,2.59,12.76,5.24,18.57l5.79,12.71c2.48,5.45,7.49,13.91,10.98,18.95.86,1.24,1.97,2.11,2.77,3.44,1.13,1.86,3.09,2.94,4.66,4.41l3.97,3.68c1.99,1.85,4.24,3.16,6.08,5.19,1.07,3.47-7.83-2.71-8.55-3.37-.6-.55-.89-1.69-2.09-.77l9.8,10.71c.39.42,1.04.64.94.99-1.1,4.02-16.55-13.31-17.98-15.64-8.34-13.63-15.49-27.77-22.4-42.3l-2.72-5.72c-2.45-5.14-4.87-10.23-6.77-15.61-2.92-8.29-7.62-14.96-12.26-22.31l-7.79-12.33c-2.6-4.12-5.41-7.9-7.87-12.15-2.89-4.99-5.67-9.74-8.28-14.88l-2.34-4.61-13.72-27.84c-1.32-2.69-13.96-21.5-15.84-23.27l-3.61-3.4c-.46-1.13-1.21-.25-.76.59,3.89,5.07,5.86,10.69,7.74,16.58,2.13,6.69.74,14.74-5.18,18.87-4.75,3.31-12.99,4.99-17.73,1.14Z"/><path d="M85.32,209.65c-.54-.83-1.06-1.63-1.58-2.43-.89-1.35-1.76-2.68-2.64-4.08l-8.62-13.78-2.52-6.92c-.31-.85-1.04-2.03-1.98-3.32.14-.18.26-.36.38-.56.34-.59.56-1.17.65-1.75,2.24,3.47,4.19,7.09,6.24,10.88,1.09,2.01,2.21,4.09,3.38,6.17,3.84,6.77,6.88,13.66,9.98,20.88l-3.29-5.09ZM174.77,109.09c-.12,0-.3,0-.54-.04.51-.33,1.04-.62,1.57-.88.36-.17.73-.31,1.13-.42-.44.28-.8.56-1.11.8q-.7.54-1.04.54Z"/><path d="M212.18,123.37c-1.17-5.41-12.02-11.4-11.23-8.09-.36-1.51,10.68,8.32,11.23,8.09Z"/><path d="M212.18,123.37c-1.17-5.41-12.02-11.4-11.23-8.09-.36-1.51,10.68,8.32,11.23,8.09Z"/><path d="M127.86,117.6c.23-2.53-7.9,3.44-6.61,4.54,3.78-1.81,3-3.36,6.61-4.54Z"/><path d="M127.86,117.6c.23-2.53-7.9,3.44-6.61,4.54,3.78-1.81,3-3.36,6.61-4.54Z"/><path d="M66.34,174.74l5.82,14.38c-.34,1.05,1.15,1.64.55.63,1.02-3.42-3.05-13.7-6.37-15.01Z"/><path d="M66.34,174.74l5.82,14.38c-.34,1.05,1.15,1.64.55.63,1.02-3.42-3.05-13.7-6.37-15.01Z"/><path d="M85.6,210.32c1.33-.52.2-1.17-.05-1.7-2.45-5.26-4.63-10.23-7.98-15.08-1.9,2.19,6.26,14.16,8.03,16.79Z"/><path d="M85.6,210.32c1.33-.52.2-1.17-.05-1.7-2.45-5.26-4.63-10.23-7.98-15.08-1.9,2.19,6.26,14.16,8.03,16.79Z"/><path d="M254.78,215.37c-.26,3.23-.49,5.07.28,7.51-.13,1.57-.98,1.72-1,.11-3.79-7.34.4-15.11-3.48-21.14l-.84,3.49c-.58.96-1.22.16-1.45-.86-1.9-8.45-10.36-15.51-17.34-20.02-3.41-2.2-6.43-.23-6.83-1.33-.55-1.51,5.83-2.4,11.68,2.34,1.91,1.55,3.66,1.45,6.01,1.76s4.05,2.82,5.65,4.36c.99.95,2.26,1.32,3.04,2.37,2.08,2.82,3.19,6.01,4.01,9.41l2.54,10.51c.66,2.71,1.58,5.24,1.02,8.29-1.93-1.32-1.95-3.46-3.08-5.3.37-.85-.55-2.16-.21-1.51Z"/><path d="M122.8,315.4c2.32,1.23,7.74,2.5,10.45,4.01-1.54.89-2.79.23-4.03-.27-3.5-1.41-6.96-2.05-10.57-3.15l-5.92-1.8-5.5-1.51-11.75-2.74c-4.11-.96-7.54-3.25-11.23-4.99-8.33-3.91-9.05-12.75-9.79-20.58-.24-2.56-1.11-4.99-.52-7.92-.35-1.55.93-1.61.58.03,1.1,2.44.74,4.73.95,7.1.24,2.8,1.72,5.26,2.13,7.97.38,2.5,1.56,4.39,2.79,6.44,6.21,10.33,33.26,12.58,42.42,17.42Z"/><path d="M122.8,315.4c2.32,1.23,7.74,2.5,10.45,4.01-1.54.89-2.79.23-4.03-.27-3.5-1.41-6.96-2.05-10.57-3.15l-5.92-1.8-5.5-1.51-11.75-2.74c-4.11-.96-7.54-3.25-11.23-4.99-8.33-3.91-9.05-12.75-9.79-20.58-.24-2.56-1.11-4.99-.52-7.92-.35-1.55.93-1.61.58.03,1.1,2.44.74,4.73.95,7.1.24,2.8,1.72,5.26,2.13,7.97.38,2.5,1.56,4.39,2.79,6.44,6.21,10.33,33.26,12.58,42.42,17.42Z"/><path d="M273.73,201.46c6.53,11.89,8.78,11.11,15.56,20.65.32.46.63.91.95,1.36,2.55,1.84,4.75,4.31,6.4,7.42.89,1.68,1.56,3.43,2.05,5.22.57.17,1.26-.13,1.52-.54.17-.27-.35-.51-.34-1.36-1.44-1.46-1.83-3.27-2.7-4.98-3.17-6.23-7.24-11.62-11.78-16.83l-5.42-6.21c-1.3-1.49-2.49-3.13-3.59-4.81l-7.35-11.14c-.3-.45-1.31.28-.98.88l5.69,10.36Z"/><path d="M273.73,201.46c6.53,11.89,8.78,11.11,15.56,20.65.32.46.63.91.95,1.36,2.55,1.84,4.75,4.31,6.4,7.42.89,1.68,1.56,3.43,2.05,5.22.57.17,1.26-.13,1.52-.54.17-.27-.35-.51-.34-1.36-1.44-1.46-1.83-3.27-2.7-4.98-3.17-6.23-7.24-11.62-11.78-16.83l-5.42-6.21c-1.3-1.49-2.49-3.13-3.59-4.81l-7.35-11.14c-.3-.45-1.31.28-.98.88l5.69,10.36Z"/><path d="M325.6,304.64c-2.43,3.91,2.05,4.1.73,9.74-3.78-1.89-.54-4.14-3.75-7.69-4.01-4.45-6.33-9.56-7.98-15.23-.99-3.4-2.9-6.49-2.65-10.24.11-1.67-.6-3.1-.65-4.71l-.32-9.06-2.8-9.7c-1.26-4.37-3.46-8.01-4-12.75l2.66,3.71c1.46,2.03,1.66,4.47,2.77,6.64,4.15,8.18,1.78,7.44,2.87,13.76.65,3.77-.16,7.52.3,11.36.27,2.29,1.7,4.21,2.19,6.37.65,2.88,1.25,5.25,3.39,7.37,1.65,1.63,2.2,6.96,3.92,8.28.96.74,3.04.84,3.33,2.14Z"/><path d="M325.6,304.64c-2.43,3.91,2.05,4.1.73,9.74-3.78-1.89-.54-4.14-3.75-7.69-4.01-4.45-6.33-9.56-7.98-15.23-.99-3.4-2.9-6.49-2.65-10.24.11-1.67-.6-3.1-.65-4.71l-.32-9.06-2.8-9.7c-1.26-4.37-3.46-8.01-4-12.75l2.66,3.71c1.46,2.03,1.66,4.47,2.77,6.64,4.15,8.18,1.78,7.44,2.87,13.76.65,3.77-.16,7.52.3,11.36.27,2.29,1.7,4.21,2.19,6.37.65,2.88,1.25,5.25,3.39,7.37,1.65,1.63,2.2,6.96,3.92,8.28.96.74,3.04.84,3.33,2.14Z"/><path d="M148.02,243.84l-9.52-4.7c-.75-.37-1.7-1.51-.96-1.84l5.18,1.22c-.37-3.17-3.3-1.77-4.11-5.02,7.6,1.31,22.9,13.32,19.97,22.73-3.95-5.41-3.47-8.89-10.55-12.38Z"/><path d="M148.02,243.84l-9.52-4.7c-.75-.37-1.7-1.51-.96-1.84l5.18,1.22c-.37-3.17-3.3-1.77-4.11-5.02,7.6,1.31,22.9,13.32,19.97,22.73-3.95-5.41-3.47-8.89-10.55-12.38Z"/><path d="M343.71,368.3c-1.23,2.97-9.74,19.31-12.5,20.88-.28-1.94,1.37-2.74,1.95-4.2,2.04-5.19,4.26-8.08,6.62-13.25l4.12-9.03c1.44-3.15,2.37-6.25,3.57-9.46,4.48-11.95,2.28-12.14,5.65-22.72,1.28,1.5-.99,8.93-.98,10.83.02,2.27-.74,3.9-1.15,5.9-.85,4.14-1.83,7.87-3.46,11.81l-3.82,9.24Z"/><path d="M343.71,368.3c-1.23,2.97-9.74,19.31-12.5,20.88-.28-1.94,1.37-2.74,1.95-4.2,2.04-5.19,4.26-8.08,6.62-13.25l4.12-9.03c1.44-3.15,2.37-6.25,3.57-9.46,4.48-11.95,2.28-12.14,5.65-22.72,1.28,1.5-.99,8.93-.98,10.83.02,2.27-.74,3.9-1.15,5.9-.85,4.14-1.83,7.87-3.46,11.81l-3.82,9.24Z"/><path d="M210.31,234.6c.04,1.96,1.09,3.27.52,5.11-2.61-.77-1.8-9.49-3-12.47-1.12-2.79-3.17-4.92-4.96-7.26-3.85-5.05-8.33-9.12-13.91-12.19-1.71-.94-3.14-2.24-5.28-2.35-1.51-1.23-3.07-1.69-5.14-2.28,1.62-1.02,3.49-.33,5.23.57l8.59,4.42c4.28,2.21,5.69,5.49,12.87,8.68,2.47,1.1,4.93,10.73,4.95,11.49l.13,6.29Z"/><path d="M210.31,234.6c.04,1.96,1.09,3.27.52,5.11-2.61-.77-1.8-9.49-3-12.47-1.12-2.79-3.17-4.92-4.96-7.26-3.85-5.05-8.33-9.12-13.91-12.19-1.71-.94-3.14-2.24-5.28-2.35-1.51-1.23-3.07-1.69-5.14-2.28,1.62-1.02,3.49-.33,5.23.57l8.59,4.42c4.28,2.21,5.69,5.49,12.87,8.68,2.47,1.1,4.93,10.73,4.95,11.49l.13,6.29Z"/><path d="M135.03,280.25c.73.93,1.78,1.49,3.12,2.29.76.84-.11,1.41-.99,1.08-5.07-2.68-9.89-5.92-13.87-10.17-1.96-2.09-3.02-4.82-4.35-7.36-4.93-9.43-1.98-14.34-2.82-22.1-.18-1.67,1.91-1.75,1.64-.09-.8,2.27-1.24,4.47-.74,6.61l2.81,12.07c1.38,5.93,5.43,10.58,10.8,13.32l5.91,3.01c1,.51.19,1.04-1.52,1.34Z"/><path d="M135.03,280.25c.73.93,1.78,1.49,3.12,2.29.76.84-.11,1.41-.99,1.08-5.07-2.68-9.89-5.92-13.87-10.17-1.96-2.09-3.02-4.82-4.35-7.36-4.93-9.43-1.98-14.34-2.82-22.1-.18-1.67,1.91-1.75,1.64-.09-.8,2.27-1.24,4.47-.74,6.61l2.81,12.07c1.38,5.93,5.43,10.58,10.8,13.32l5.91,3.01c1,.51.19,1.04-1.52,1.34Z"/><path d="M224.51,244.07c.38.99,3.94,9.52,2.3,7.99-2.49-5.72-5.33-8.45-7.24-15-.57-1.95-1.56-3.55-2.27-5.41-2.22-5.83-5.55-10.88-10.55-14.69-.89-.68-1.66-2.42-.44-3,8.33,4.02,13.29,17.23,16.3,25.13l1.9,4.98Z"/><path d="M224.51,244.07c.38.99,3.94,9.52,2.3,7.99-2.49-5.72-5.33-8.45-7.24-15-.57-1.95-1.56-3.55-2.27-5.41-2.22-5.83-5.55-10.88-10.55-14.69-.89-.68-1.66-2.42-.44-3,8.33,4.02,13.29,17.23,16.3,25.13l1.9,4.98Z"/><path d="M169.54,264.01c2.47,4.82,7.33,7.67,8.68,13-6.08-4.48-10.19-10.26-13.52-16.64-1.05-2.02-.93-4.5-2.03-6.49l-5.42-9.89c-4.99-9.12-7.61-6.09-10.17-10.67,7.52,2.8,7.83,6.89,11.43,9.58.81.61,5.18,9.7,5.92,11.14l5.11,9.97Z"/><path d="M169.54,264.01c2.47,4.82,7.33,7.67,8.68,13-6.08-4.48-10.19-10.26-13.52-16.64-1.05-2.02-.93-4.5-2.03-6.49l-5.42-9.89c-4.99-9.12-7.61-6.09-10.17-10.67,7.52,2.8,7.83,6.89,11.43,9.58.81.61,5.18,9.7,5.92,11.14l5.11,9.97Z"/><path d="M341.85,338.27c-.27,4.01-.49,7.83-1.8,10.99-1.44,1.19-.87,2.76-1.45,4.51-1.64.3,1.54-13.47,1.6-14.05.73-6.91.18-14.46-1.93-21.01l-4.12-12.78c3.51,1.39,5.51,9.97,5.6,13.74,0-.09,2.85,7.14,2.1,18.58Z"/><path d="M341.85,338.27c-.27,4.01-.49,7.83-1.8,10.99-1.44,1.19-.87,2.76-1.45,4.51-1.64.3,1.54-13.47,1.6-14.05.73-6.91.18-14.46-1.93-21.01l-4.12-12.78c3.51,1.39,5.51,9.97,5.6,13.74,0-.09,2.85,7.14,2.1,18.58Z"/><path d="M305.21,407.15c-6.26,4.67-12.81,8.45-20.56,11.68-.77-2.61,1.63-3.03,3.4-3.76,7.18-2.96,13.42-7.22,19.7-11.68,1.8-1.28,3.05-3.28,5.7-3.44-1.91,3.41-5.24,4.96-8.23,7.19Z"/><path d="M305.21,407.15c-6.26,4.67-12.81,8.45-20.56,11.68-.77-2.61,1.63-3.03,3.4-3.76,7.18-2.96,13.42-7.22,19.7-11.68,1.8-1.28,3.05-3.28,5.7-3.44-1.91,3.41-5.24,4.96-8.23,7.19Z"/><path d="M117.66,270.5c-3.66-1.37-6.24-26.39-5.01-29.32,1.24,1.82.19,3.61.53,5.43l.97,5.22c.36,1.94.24,3.66.63,5.55l1.85,8.83c.26,1.24,1.49,1.96,1.02,4.29Z"/><path d="M117.66,270.5c-3.66-1.37-6.24-26.39-5.01-29.32,1.24,1.82.19,3.61.53,5.43l.97,5.22c.36,1.94.24,3.66.63,5.55l1.85,8.83c.26,1.24,1.49,1.96,1.02,4.29Z"/><path d="M187.96,379.42c-1.93,1.33-3.85.02-5.95-.57l-5.2-1.48-8.01-1.4-2.01-1.17c-2.15-1.25-4.71-1.01-6.76-2.35,2.29-.94,3.82.54,5.77,1.01,2.38.57,4.74.48,7.08,1.2l5.44,1.67c1.62.5,2.88,1.5,4.7,1.37,1.41,1.32,3,1.2,4.94,1.72Z"/><path d="M187.96,379.42c-1.93,1.33-3.85.02-5.95-.57l-5.2-1.48-8.01-1.4-2.01-1.17c-2.15-1.25-4.71-1.01-6.76-2.35,2.29-.94,3.82.54,5.77,1.01,2.38.57,4.74.48,7.08,1.2l5.44,1.67c1.62.5,2.88,1.5,4.7,1.37,1.41,1.32,3,1.2,4.94,1.72Z"/><path d="M89.22,194.75c.31,1.1,0,2.16-.87,1.43l-3.77-7.31c-.97-1.89-1.97-3.56-3.08-5.4l-2.33-3.87c-1.56-2.6-4.2-4.39-4.55-7.82,2.05,1.39,2.44,3.6,4.04,5.33,3.26,3.53,4.61,8.14,7.16,11.31,1.42,1.76,1.92,4.13,3.41,6.34Z"/><path d="M89.22,194.75c.31,1.1,0,2.16-.87,1.43l-3.77-7.31c-.97-1.89-1.97-3.56-3.08-5.4l-2.33-3.87c-1.56-2.6-4.2-4.39-4.55-7.82,2.05,1.39,2.44,3.6,4.04,5.33,3.26,3.53,4.61,8.14,7.16,11.31,1.42,1.76,1.92,4.13,3.41,6.34Z"/><path d="M222.11,278.34c-5.71-3.77-10.03-4.65-14.05-10.39l-3.14-4.48c-2.43-3.47-5.88-5.88-8.93-8.76-1.77-1.67-6.53-3.4-6.07-4.65.28-.75.89-.5,1.56-.24,3.28,1.27,5.4,3.67,7.78,6.18l5.64,5.92c6.87,7.22,7.35,8.37,16.73,14,.66.67,1.43,1.3.48,2.43Z"/><path d="M222.11,278.34c-5.71-3.77-10.03-4.65-14.05-10.39l-3.14-4.48c-2.43-3.47-5.88-5.88-8.93-8.76-1.77-1.67-6.53-3.4-6.07-4.65.28-.75.89-.5,1.56-.24,3.28,1.27,5.4,3.67,7.78,6.18l5.64,5.92c6.87,7.22,7.35,8.37,16.73,14,.66.67,1.43,1.3.48,2.43Z"/><path d="M38.57,236.82c.43.83,5.15,7.62,3.43,6.8-2.5-2.07-6.9-10.62-8.78-14.2-1.43-2.72-3.38-5.04-4.22-8.27.08-.74.82-.77,1.25-.22.69,2.52,1.83,4.54,3.19,6.77l2.62,4.3,2.51,4.82Z"/><path d="M38.57,236.82c.43.83,5.15,7.62,3.43,6.8-2.5-2.07-6.9-10.62-8.78-14.2-1.43-2.72-3.38-5.04-4.22-8.27.08-.74.82-.77,1.25-.22.69,2.52,1.83,4.54,3.19,6.77l2.62,4.3,2.51,4.82Z"/><path d="M77.72,151.41c4.37-1.32,9.89-2.75,13.63-6.66,2.54-2.65,3.4-6.97,4.99-6.66-1.77,6.75-7.25,11.37-13.9,13.12-1.33.35-2.44,1.31-4.72.2Z"/><path d="M77.72,151.41c4.37-1.32,9.89-2.75,13.63-6.66,2.54-2.65,3.4-6.97,4.99-6.66-1.77,6.75-7.25,11.37-13.9,13.12-1.33.35-2.44,1.31-4.72.2Z"/><path d="M235.9,180.5c2.92.1,7.95,2.89,6.13,4.14-5.92-1.1-12.37-3.09-15.72-8.2,3.6,1.18,5.85,3.93,9.59,4.06Z"/><path d="M235.9,180.5c2.92.1,7.95,2.89,6.13,4.14-5.92-1.1-12.37-3.09-15.72-8.2,3.6,1.18,5.85,3.93,9.59,4.06Z"/><path d="M197.68,385.85c-5.81,1.17-12.06-3.2-18.54-4.87-.57-.42-.55-1.19.2-1.21l7.61,2.48c3.46,1.13,6.72,1.16,10.73,3.6Z"/><path d="M197.68,385.85c-5.81,1.17-12.06-3.2-18.54-4.87-.57-.42-.55-1.19.2-1.21l7.61,2.48c3.46,1.13,6.72,1.16,10.73,3.6Z"/><path d="M140.95,119c-5.38,2.59-6.58.39-14.47,5.38-1.95,1.23-2.63,3.61-5.15,4.29,1.95-5.18,14.07-11.42,19.62-9.67Z"/><path d="M140.95,119c-5.38,2.59-6.58.39-14.47,5.38-1.95,1.23-2.63,3.61-5.15,4.29,1.95-5.18,14.07-11.42,19.62-9.67Z"/><path d="M333.48,326.8c0,.68-.82,1.32-1.54,1.47l.14-17.83c.81,1.07,1.32,2.53,1.33,3.96l.07,12.4Z"/><path d="M333.48,326.8c0,.68-.82,1.32-1.54,1.47l.14-17.83c.81,1.07,1.32,2.53,1.33,3.96l.07,12.4Z"/><path d="M317.99,280.04c.32,1.16.05,2.53-1.93,3.11-1.36-5.25-2.09-10.2-1.74-15.84,1.67,1.47,1.09,3.49,1.64,5.46l2.04,7.27Z"/><path d="M317.99,280.04c.32,1.16.05,2.53-1.93,3.11-1.36-5.25-2.09-10.2-1.74-15.84,1.67,1.47,1.09,3.49,1.64,5.46l2.04,7.27Z"/><path d="M74.02,144.76c1.71-1.66,4.17-2.1,6.69-3,1.25-.45,2.19-1.45,3.41-1.99,3.03-1.34,4.37-4.15,6.48-6.56.48,2.6-1.77,3.71-2.99,5.46-3.92,2.94-7.79,5.86-13.59,6.08Z"/><path d="M74.02,144.76c1.71-1.66,4.17-2.1,6.69-3,1.25-.45,2.19-1.45,3.41-1.99,3.03-1.34,4.37-4.15,6.48-6.56.48,2.6-1.77,3.71-2.99,5.46-3.92,2.94-7.79,5.86-13.59,6.08Z"/><path d="M80.98,214.75c-.06,1.8-.85,2.36-1.03.7-1.67-1.95-2.59-3.88-3.83-5.79l-4.23-6.51c-.84-1.29-2.26-2.57-1.54-4.51,2.21,3.72,4.4,7.06,6.93,10.62,1.16,1.63,1.53,3.89,3.69,5.5Z"/><path d="M80.98,214.75c-.06,1.8-.85,2.36-1.03.7-1.67-1.95-2.59-3.88-3.83-5.79l-4.23-6.51c-.84-1.29-2.26-2.57-1.54-4.51,2.21,3.72,4.4,7.06,6.93,10.62,1.16,1.63,1.53,3.89,3.69,5.5Z"/><path d="M138.24,177.26c.48.91,1.71,1.22.87,2.38-1.85-.71-6.89-11.52-7.72-13.68-.54-1.39-1.84-2.26-1.18-4.12,1.37.39,1.96,3.95,3.89,7.58l4.15,7.84Z"/><path d="M138.24,177.26c.48.91,1.71,1.22.87,2.38-1.85-.71-6.89-11.52-7.72-13.68-.54-1.39-1.84-2.26-1.18-4.12,1.37.39,1.96,3.95,3.89,7.58l4.15,7.84Z"/><path d="M109.7,144.08l-2.34-6.39c-2.15-5.88-3.48-6.18-6.67-11.06,1.54-.69,1.51.25,1.97,1.05,2.3,2.52,8.37,11.93,7.04,16.4Z"/><path d="M109.7,144.08l-2.34-6.39c-2.15-5.88-3.48-6.18-6.67-11.06,1.54-.69,1.51.25,1.97,1.05,2.3,2.52,8.37,11.93,7.04,16.4Z"/><path d="M100.89,275.81c-1.84-.1-2.37-1.72-3.55-2.62-2.52-1.93-5.16-3.72-8.22-4.86-1.18-.44-2.76.12-2.94-1.82,5.76,1.26,12.67,3.38,14.71,9.31Z"/><path d="M100.89,275.81c-1.84-.1-2.37-1.72-3.55-2.62-2.52-1.93-5.16-3.72-8.22-4.86-1.18-.44-2.76.12-2.94-1.82,5.76,1.26,12.67,3.38,14.71,9.31Z"/><path d="M31.77,177.42c-5.52,3.95-7.17,4.73-11.8,9.27.06-2.84,2.68-3.46,3.99-5.39,1.59-2.33,4.12-3.88,6.78-4.94,1.23-.15,1.98.15,1.03,1.06Z"/><path d="M31.77,177.42c-5.52,3.95-7.17,4.73-11.8,9.27.06-2.84,2.68-3.46,3.99-5.39,1.59-2.33,4.12-3.88,6.78-4.94,1.23-.15,1.98.15,1.03,1.06Z"/><path d="M283.47,420.58c3.08-.09-3.79,5.35-10.01,2.57,3.45-1.98,6.53-2.48,10.01-2.57Z"/><path d="M283.47,420.58c3.08-.09-3.79,5.35-10.01,2.57,3.45-1.98,6.53-2.48,10.01-2.57Z"/><path d="M329.35,322.94c-.17,4.99-1.1-14.44-1.24-8.54.06-2.55-.4-4.81.33-6.99.47,1.44.79,2.75.96,4.04l.83,6.05c.23,1.68-.87,3.46-.89,5.43Z"/><path d="M329.35,322.94c-.17,4.99-1.1-14.44-1.24-8.54.06-2.55-.4-4.81.33-6.99.47,1.44.79,2.75.96,4.04l.83,6.05c.23,1.68-.87,3.46-.89,5.43Z"/><path d="M99.28,277.32c-2.42.12-2.5-1.66-3.64-2.5-2.5-.67-4.57-1.88-6.92-3.06-1.26-.63-2.95-.23-3.36-2.1,1.67.35,2.99.56,4.35,1.19l6.26,2.9c1.18,1.33,2.46,2.1,3.3,3.57Z"/><path d="M99.28,277.32c-2.42.12-2.5-1.66-3.64-2.5-2.5-.67-4.57-1.88-6.92-3.06-1.26-.63-2.95-.23-3.36-2.1,1.67.35,2.99.56,4.35,1.19l6.26,2.9c1.18,1.33,2.46,2.1,3.3,3.57Z"/><path d="M254.93,174.87c1.46-.07,5.28,14.92,3.39,14.83l-1.17-4.6c-.87-3.43-2.15-6.41-2.22-10.22Z"/><path d="M254.93,174.87c1.46-.07,5.28,14.92,3.39,14.83l-1.17-4.6c-.87-3.43-2.15-6.41-2.22-10.22Z"/><path d="M16.26,180.04c-.97.67-1.2-.27-.96-1.28.28-1.2,1.85-1.74,2.46-2.83,1.57-2.81,3.9-4.81,6.74-6.62.87-1.11,2.09-.33.9.76-2.79,1.49-4.63,3.42-6.17,5.83-.87,1.37-2.49,2.23-2.98,4.14Z"/><path d="M16.26,180.04c-.97.67-1.2-.27-.96-1.28.28-1.2,1.85-1.74,2.46-2.83,1.57-2.81,3.9-4.81,6.74-6.62.87-1.11,2.09-.33.9.76-2.79,1.49-4.63,3.42-6.17,5.83-.87,1.37-2.49,2.23-2.98,4.14Z"/><path d="M22.88,212.53c.49,1.01.09,2.11-.77,1.38-1.49-2.39-2.37-4.74-3.01-7.28-.51-2.02-2.26-3.23-2.2-5.58,2.07,1.45,2.25,3.86,3.3,6l2.68,5.48Z"/><path d="M22.88,212.53c.49,1.01.09,2.11-.77,1.38-1.49-2.39-2.37-4.74-3.01-7.28-.51-2.02-2.26-3.23-2.2-5.58,2.07,1.45,2.25,3.86,3.3,6l2.68,5.48Z"/><path d="M71.8,291.99c-.55-1.97.06-3.63-1-5.43.5-4.77-1.91-7.55-.4-10.75.66,1.74.5,3.17,1.26,4.7-.34,2.45-.22,4.64.76,6.92-.43,1.62.53,3.09-.62,4.57Z"/><path d="M71.8,291.99c-.55-1.97.06-3.63-1-5.43.5-4.77-1.91-7.55-.4-10.75.66,1.74.5,3.17,1.26,4.7-.34,2.45-.22,4.64.76,6.92-.43,1.62.53,3.09-.62,4.57Z"/><path d="M325.21,296.77c-2.22,1.37-7.47-8.66-6-9.46.64,2.61,8.5,9.41,6,9.46Z"/><path d="M325.21,296.77c-2.22,1.37-7.47-8.66-6-9.46.64,2.61,8.5,9.41,6,9.46Z"/><path d="M45.97,108.68c-2.09-.72-3.67-8.1-6.13-11.63,0-1.52.84-1.77.99-.24,2.27,4.06,3.35,6.6,5.14,11.86Z"/><path d="M45.97,108.68c-2.09-.72-3.67-8.1-6.13-11.63,0-1.52.84-1.77.99-.24,2.27,4.06,3.35,6.6,5.14,11.86Z"/><path d="M190.26,159.66c.13,2.2-7.31-11-5.15-9.48,2.15,2.89,4.08,5.69,5.15,9.48Z"/><path d="M190.26,159.66c.13,2.2-7.31-11-5.15-9.48,2.15,2.89,4.08,5.69,5.15,9.48Z"/></g></g></svg>