<svg xmlns="http://www.w3.org/2000/svg" id="Make2D_Visible_Curves" viewBox="0 0 1723.3 1291.1"><path id="POLYLINE" d="m1359.4 1020.4 210.8-519.9h60.9l5.3-.1 5.2-.2 5-.4 5-.5 4.7-.6 2.3-.4 2.3-.5 2.3-.4 2.2-.5 2.1-.5 2.2-.6 2.1-.6 2-.7 2.1-.7 2-.7 1.9-.7 1.9-.8 1.9-.9 1.8-.8 1.9-.9 1.7-1 1.7-1 1.7-1 1.7-1 1.6-1.1 1.6-1.2 1.5-1.1 1.5-1.2 1.5-1.3 1.4-1.2 1.4-1.3 1.3-1.3 1.2-1.4 1.3-1.4 1.1-1.4 1.2-1.4 1-1.5 1.1-1.5.9-1.5 1-1.6.8-1.6.9-1.6.8-1.6.7-1.7.7-1.7.6-1.8.6-1.7.6-1.8.5-1.9.4-1.8.4-1.9.4-2 .3-1.9.3-2 .2-2 .2-2.1.1-2v-2.1l.1-2.2v-1.4l-.1-1.5-.1-1.4-.1-1.3-.2-1.4-.1-1.3-.3-1.4-.2-1.3-.3-1.2-.3-1.3-.4-1.2-.4-1.2-.4-1.2-.4-1.1-.5-1.2-.6-1.1-.5-1.1-.6-1-.6-1.1-.7-1-.7-1-.7-.9-.8-1-.8-.9-.8-.9-.9-.9-.9-.9-.9-.8-1-.8-1-.8-1-.8-1.1-.7-1.1-.7-1.1-.7-1.2-.7-1.2-.7-1.2-.6-1.3-.6-1.3-.6-1.3-.5-1.4-.6-1.4-.5-1.4-.5-1.5-.4-1.5-.5-1.5-.4-1.6-.4-1.6-.4-3.3-.7-3.5-.6-3.6-.5-3.7-.4-3.8-.3-4-.2-4.2-.2h-106.4l-20.4.5h-3.1l-2.9.2-2.9.2-2.9.3-1.4.2-1.4.2-1.4.3-1.3.2-1.4.3-1.3.3-1.3.3-1.3.4-1.3.4-1.3.4-1.3.4-1.2.4-1.2.5-1.3.5-1.2.5-1.1.6-1.2.5-1.2.6-1.1.6-1.2.6-1.1.7-1.1.7-1.1.7-1 .7-1.1.7-1.1.8-1 .8-1 .8-1 .8-1 .9-1 .9-.9.9-1 .9-.9 1-.9.9-.9 1-.9 1-.9 1.1-.8 1-.9 1.1-.8 1.1-.8 1.2-.8 1.1-.8 1.2-1.5 2.4-1.5 2.5-1.4 2.7-1.4 2.7-1.3 2.7-1.2 2.9-143.1 352-25.9-332-.4-4.6-.5-4.4-.7-4.3-.7-4.1-.8-4-.5-2-.5-1.9-.5-1.8-.5-1.9-.6-1.8-.6-1.7-.6-1.7-.7-1.7-.7-1.7-.7-1.6-.7-1.6-.8-1.5-.8-1.5-.8-1.5-.9-1.4-.9-1.4-.9-1.4-.9-1.3-1-1.3-1-1.2-1-1.3-1-1.1-1.1-1.2-1.1-1.1-1.1-1.1-1.2-1-1.2-1-1.2-.9-1.2-1-1.3-.9-1.3-.8-1.3-.8-1.3-.8-1.4-.8-1.4-.7-1.5-.6-1.4-.7-1.5-.6-1.5-.5-1.6-.6-1.6-.4-1.6-.5-1.6-.4-1.6-.4-1.7-.3-1.7-.3-1.8-.3-1.7-.3-1.8-.2-1.9-.1-1.8-.1-1.9-.1-1.9-.1h-3.6l-1.7.1h-1.6l-1.6.2-1.7.1-1.6.2-1.6.2-1.6.2-1.5.3-1.6.3-1.5.3-1.5.4-1.6.4-1.5.4-1.4.5-1.5.5-1.5.5-1.4.6-1.5.6-1.4.6-1.4.6-1.4.7-1.4.7-1.3.8-1.4.8-1.3.8-1.4.8-1.3.9-1.3.9-1.3.9-1.2 1-1.3 1-1.2 1.1-1.3 1-1.2 1.1-1.2 1.2-1.2 1.1-1.2 1.2-1.2 1.2-1.1 1.3-1.1 1.3-1.2 1.3-2.2 2.8-2.1 2.8-2.2 3-2 3.2-2 3.2-2 3.4-1.8 3.5-1.9 3.6-1.8 3.8-1.7 3.9-1.7 4-197.4 486-6.6 16-6.5 15.3-6.4 14.8-6.4 14.1-6.3 13.5-6.3 12.9-6.2 12.3-3.1 5.9-3.1 5.8-3 5.6-3.1 5.4-3 5.3-3 5.2-3 5-3 4.8-2.9 4.7-3 4.6-2.9 4.3-2.9 4.3-2.9 4.1-2.9 3.9-2.9 3.8-2.9 3.6-2.8 3.5-2.8 3.3-2.9 3.2-2.8 3-2.9 3-2.9 2.9-3 2.8-2.9 2.7-3 2.6-3.1 2.4-3 2.4-3.1 2.3-3.1 2.2-3.2 2.1-3.1 1.9-3.2 1.9-3.2 1.8-3.3 1.6-3.3 1.6-3.3 1.5-3.3 1.4-3.4 1.2-3.4 1.2-3.4 1-3.4 1-3.5.9-3.5.7-3.5.7-3.6.5-3.6.5-3.6.4-3.6.2-3.7.2h-6.8l-3.2-.1-3.1-.2-3.1-.2-3-.3-2.9-.3-3-.5-2.8-.4-2.9-.6-2.8-.6-2.7-.6-2.8-.8-2.6-.8-2.6-.8-2.6-1-2.6-1-2.5-1-2.4-1.1-2.4-1.2-2.4-1.2-2.3-1.4-2.3-1.3-2.2-1.5-2.2-1.5-2.1-1.5-2.2-1.6-2-1.7-2-1.8-2-1.8-1.9-1.9-1.9-1.9-1.9-2-1.8-2.1-1.7-2.1-1.7-2.2-1.6-2.2-1.6-2.2-1.5-2.3-1.4-2.4-1.4-2.4-1.4-2.4-1.2-2.5-1.3-2.5-1.1-2.6-1.1-2.7-1.1-2.6-1-2.8-.9-2.7-.9-2.9-.8-2.8-.8-2.9-.7-3-.7-3-.6-3.1-.5-3.1-.5-3.1-.4-3.2-.4-3.3-.3-3.3-.3-3.3-.2-3.4-.1-3.4-.1-3.5v-6.8l.1-3.4.1-3.3.2-3.3.3-3.3.3-3.3.4-3.2.4-3.3.5-3.3.6-3.2.6-3.3.6-3.2.8-3.2.7-3.2.9-3.2.9-3.2.9-3.2 1.1-3.2 1-3.2 1.2-3.1 1.1-3.2 1.3-3.1 1.3-3.2 1.4-3.1 2.9-6.2 3.1-6.2 3.3-6.2 3.6-6.1 3.8-6 4-5.9 4.1-5.8 4.3-5.6 4.4-5.4 4.6-5.4 4.7-5.1 5-5 5-4.9 5.3-4.8 5.4-4.6 5.6-4.4 5.7-4.3 5.9-4.2 6-4 6.2-3.9 3.9-2.2 3.9-2.2 4-2.2 4-2 4.2-2.1 4.2-2 4.3-1.9 4.3-1.9 4.5-1.8 4.5-1.8 4.6-1.7 4.6-1.7 4.8-1.6 4.8-1.6 4.9-1.5 4.9-1.4 5.1-1.4 5.1-1.4 5.2-1.3 5.3-1.2 5.3-1.2 5.4-1.2 5.5-1.1 5.6-1 5.6-1 5.7-.9 5.8-.9 5.9-.8 5.9-.8 6-.7 6.1-.7 6.2-.6 5.5-.6 5.3-.6 5.1-.7 4.9-.8 4.7-.9 4.5-1 4.3-1 4.2-1.2 3.9-1.2 1.9-.6 1.8-.7 1.8-.7 1.7-.7 1.7-.7 1.6-.8 1.6-.8 1.6-.7 1.5-.9 1.4-.8 1.4-.9 1.3-.8 1.3-.9 1.3-1 1.2-.9 1.1-1 1.1-1 1.1-1 1.1-1.1 1-1.1.9-1.1 1-1.2.9-1.2.8-1.2.8-1.2.8-1.3.7-1.3.7-1.3.7-1.4.6-1.4.6-1.4.6-1.4.5-1.5.5-1.5.4-1.5.4-1.6.4-1.6.3-1.6.3-1.7.2-1.6.2-1.8.2-1.7.1-1.8.1-1.8.1-1.8v-3.7l-.1-1.8-.1-1.7-.2-1.8-.2-1.7-.3-1.7-.3-1.7-.3-1.7-.4-1.6-.5-1.6-.5-1.6-.5-1.6-.6-1.5-.7-1.5-.7-1.5-.7-1.5-.8-1.4-.8-1.5-.9-1.4-.9-1.3-1-1.4-1-1.3-1.1-1.3-1.1-1.3-1.2-1.2-1.2-1.3-1.3-1.2-1.3-1.2-1.4-1.1-1.4-1.1-1.4-1.2-1.5-1-1.6-1.1-1.5-1-1.7-1-1.6-1-1.7-.9-1.7-.9-1.7-.8-1.8-.9-1.8-.8-1.9-.7-1.9-.7-1.9-.7-2-.7-1.9-.6-2.1-.6-2-.5-2.1-.6-2.1-.4-2.2-.5-2.2-.4-4.5-.8-4.6-.6-4.7-.4-4.9-.4-5.1-.2h-10.1l-4.9.1-5 .2-5 .2-5 .3-5 .4-5 .4-5 .5-5 .6-5 .7-5.1.7-5 .8-5 .8-5.1.9-5.1 1-5 1.1-5.1 1.1-5.1 1.2-5.1 1.3-5.1 1.3-5.1 1.4-5.1 1.5-5.1 1.5-5.1 1.6-5.2 1.7-5.1 1.7-5.1 1.8-5.2 1.9-5.2 1.9-5.1 2-5.2 2.1-5.2 2.2-5.1 2.2-5.1 2.2-5.1 2.3-5 2.3-4.9 2.4-4.9 2.4-4.8 2.4-4.8 2.5-4.7 2.6-4.7 2.6-4.6 2.6-4.6 2.6-4.5 2.7-4.4 2.8-4.4 2.8-4.3 2.8-4.3 2.9-4.2 2.9-4.2 2.9-4.1 3-4.1 3.1-4 3.1-3.9 3.1-3.9 3.2-3.9 3.2-3.8 3.2-3.7 3.3-3.7 3.3-3.6 3.4-3.6 3.4-3.5 3.5-3.4 3.5-6.3 6.6-6.2 6.7-5.9 6.7-5.7 6.8-5.5 6.9-5.3 7-5.1 7-4.9 7.1-4.8 7.1-4.5 7.3-4.3 7.3-4.1 7.3-3.9 7.5-3.7 7.5-3.5 7.6-3.3 7.6-3.1 7.7-2.9 7.8-2.8 7.9-2.5 7.9-2.3 8-2.1 8-1.9 8.2-1.7 8.2-1.5 8.2-1.3 8.4-1.1 8.4-.9 8.4-.7 8.6-.5 8.6-.3 8.7-.1 8.7.1 6.6.2 6.4.3 6.4.4 6.3.6 6.2.7 6.2.8 6.1 1 6 1 5.9 1.2 5.8 1.4 5.8 1.4 5.7 1.6 5.6 1.7 5.5 1.9 5.5 2 5.4 2.1 5.3 2.2 5.2 2.3 5.1 2.5 5.1 2.6 5 2.7 4.9 2.9 4.9 3 4.7 3.1 4.7 3.2 4.7 3.4 4.5 3.5 4.4 3.6 4.4 3.8 4.3 3.8 4.3 4 4.1 4.2 4.1 4.1 3.9 4.3 3.8 4.3 3.6 4.4 3.6 4.5 3.4 4.6 3.2 4.7 3.2 4.7 3 4.8 2.9 4.9 2.8 4.9 2.6 5 2.5 5.2 2.4 5.1 2.2 5.3 2.2 5.4 2 5.4 1.8 5.5 1.8 5.5 1.6 5.7 1.4 5.7 1.4 5.8 1.2 5.9 1.1 6 1 6 .8 6.1.7 6.2.6 6.3.4 6.4.4 6.4.1 6.5.1h6.1l6.1-.2 6-.3 6-.4 5.9-.5 5.9-.7 5.9-.7 5.8-.9 5.7-.9 5.8-1.1 5.6-1.2 5.7-1.4 5.6-1.4 5.5-1.5 5.5-1.7 5.5-1.8 5.4-1.9 5.4-2 5.3-2.1 5.3-2.3 5.2-2.3 5.2-2.5 5.2-2.6 5.1-2.7 5-2.8 5.1-2.9 4.9-3.1 5-3.1 4.9-3.3 4.8-3.4 4.8-3.5 4.8-3.6 6.4-5.2 6.3-5.3 6.2-5.4 6-5.5 5.8-5.6 5.7-5.7 5.6-5.9 5.4-6 5.2-6 5.1-6.2 4.9-6.4 4.8-6.4 4.6-6.5 4.5-6.7 4.3-6.8 4.1-6.9 4.2-7.3 4.5-8.1 4.7-8.9 4.9-9.6 5.1-10.5 5.4-11.2 5.6-11.9 5.8-12.8 6.1-13.5 6.3-14.3 6.6-15.1 6.8-15.8 7-16.6 7.3-17.4 7.5-18.1 7.7-19 104.2-257.2 22.9 300.6.6 7 .7 6.6.8 6.5.9 6.1 1 5.8 1.1 5.6 1.1 5.3 1.3 5.1 1.4 4.7.7 2.3.7 2.2.8 2.1.7 2.1.9 2 .8 1.9.8 1.9.9 1.8.9 1.7.9 1.6 1 1.6.9 1.5 1 1.5.5.7.6.7.5.6.5.7.5.6.6.6.6.7.5.6.6.6.6.6.6.6.6.5.7.6.6.5.7.6.6.5.7.5.7.5 1.4 1 1.4 1 1.5.9 1.5.8 1.6.8 1.6.8 1.7.7 1.7.7 1.8.7 1.8.6 1.8.5 1.9.6 1.9.5 2 .4 2 .4 2.1.3 2.1.4 2.1.2 2.2.3 2.2.2 2.3.1 2.3.1 2.4.1h2.4l3-.1 3-.1 2.9-.2 2.9-.4 1.4-.2 1.4-.2 1.4-.2 1.3-.3 1.4-.3 1.3-.3 1.4-.4 1.3-.3 1.3-.4 1.3-.4 1.3-.5 1.2-.4 1.3-.5 1.2-.5 1.3-.6 1.2-.5 1.2-.6 1.2-.6 1.1-.6 1.2-.7 1.1-.6 1.2-.7 1.1-.8 1.1-.7 1.1-.8 1.1-.8 1-.8 1.1-.8 1-.9 1-.9 1-.9 1-.9 1-1 1-.9 1-1 .9-1.1.9-1 .9-1.1 1-1.1.8-1.1 1.8-2.3 1.7-2.4 1.6-2.5 1.6-2.6 1.5-2.7 1.5-2.8 1.4-2.9z"/><path d="m993 147-.2-4-.2-4-.3-3.8-.4-3.9-.5-3.8-.6-3.8-.6-3.7-.8-3.7-.8-3.6-1-3.7-1-3.5-1.1-3.5-1.2-3.5L983 95l-1.3-3.3-1.5-3.4-1.6-3.3-1.6-3.3-1.7-3.2-1.8-3.2-2-3.1-2-3.1-2-3-2.2-3-2.2-3-2.4-3-2.4-2.9-2.6-2.8-2.6-2.8-2.7-2.8-2.8-2.7-2.8-2.6-3-2.6-2.9-2.5-3-2.4-3-2.3-3-2.2-3.2-2.2-3.2-2-3.2-2-3.3-2-3.3-1.7-3.3-1.8-3.4-1.6-3.5-1.6-3.4-1.4-3.6-1.4-3.5-1.3-3.7-1.2-3.6-1.2-3.7-1-3.8-1-3.8-.9-3.8-.8-4-.7-3.8-.6-4-.6-4-.4-4.1-.4-4.1-.3-4.2-.2-4.2-.2h-8.4l-4.1.2-4.2.2-4 .2-4 .4-4 .4-4 .5-4 .6-3.9.7-3.9.7-3.8.9-3.8.9-3.8 1-3.7 1-3.7 1.2-3.7 1.2-3.6 1.3-3.6 1.4-3.6 1.4-3.5 1.6-3.5 1.6-3.5 1.7-3.4 1.8-3.4 1.8-3.4 2-3.3 2-3.3 2-3.3 2.2-3.2 2.3-3.2 2.3-3.2 2.4-3.1 2.5-3.1 2.5-3 2.7-3.1 2.7-3 2.8-3 2.9-3 3-2.8 3-2.9 3.1-2.8 3.2-2.8 3.3-2.8 3.3-2.7 3.4-2.7 3.5-2.7 3.6-2.6 3.7-2.6 3.8-2.5 3.8-2.6 3.9-2.5 4-2.4 4-2.4 4.2-2.4 4.2-2.4 4.3-2.3 4.4-2.3 4.4-2.3 4.5-2.2 4.7-2.2 4.6-2.2 4.8-2 4.9-2.2 4.9-2 5-23 56.3h-85.2l-5.3.1-5.2.2-5 .4-5 .5-4.8.7-2.3.3-2.3.5-2.2.4-2.2.5-2.2.5-2.1.6-2.1.6-2 .7-2.1.6-2 .7-2 .8-1.9.8-1.9.8-1.8.9-1.8.8-1.8 1-1.7 1-1.7 1-1.7 1-1.6 1-1.6 1.2-1.5 1.1-1.5 1.2-1.5 1.2-1.4 1.3-1.3 1.2-1.3 1.3-1.3 1.3-1.2 1.4-1.2 1.3-1.1 1.4-1 1.5-1.1 1.4-1 1.5-1 1.5-.8 1.5-.8 1.6-.8 1.6-.8 1.6-.7 1.6-.6 1.7-.6 1.7-.5 1.7-.5 1.7-.5 1.8-.4 1.8-.4 1.8-.3 1.9-.2 1.8-.2 2-.2 1.9-.1 2-.1 2v5l.1 1.4.1 1.5.1 1.4.2 1.4.1 1.4.2 1.4.3 1.3.2 1.3.3 1.3.3 1.3.4 1.2.3 1.3.4 1.1.5 1.2.4 1.2.5 1 .5 1.2.5 1 .6 1.1.6 1 .6 1 .6 1 .7 1 .7.9.7.9.8.9.7.8.8.8.9.9.8.7 1 .8.8.7 1 .7 1 .7 1 .7 1 .6 1 .6 1 .6 1.2.6 1.1.5 1.2.6 1.2.4 1.2.5 1.2.5 1.3.4 1.3.4 1.3.4 1.3.3 1.4.3 1.4.3 1.5.3 1.4.3 1.5.2 1.5.2 3.1.3 3.2.3 3.4.1h76.7l-149 367.4H232.4l-5.7.2-5.7.1-5.5.2-5.5.3-5.4.3-5.4.4-5.2.5-5.2.5-5 .6-5.1.6-5 .8-4.9.7-4.8.9-4.7.9-4.6.9-4.6 1-4.5 1-4.4 1.2-4.4 1.2-4.2 1.3-4.2 1.3-4.1 1.4-4 1.4-4 1.5-4 1.6-3.8 1.6-3.7 1.7-3.7 1.7-3.5 1.9-3.6 1.8-3.4 2-5.2 3-5 3.4-4.9 3.4-4.7 3.6-4.7 3.7-4.4 3.9-4.4 4-4.2 4.2-4 4.4-4 4.5-3.8 4.6-3.7 4.8-3.5 5-3.4 5-3.3 5.3-3 5.4-3 5.6-2.8 5.5-2.6 5.6-2.4 5.7-2.2 5.7-2 5.8-1.8 5.8-1.6 5.8-1.4 6-1.3 5.9-1 6-.9 6-.7 6.2-.4 6.2L0 892l-.1 6.3v5l.2 5 .3 4.8.4 4.9.5 4.8.6 4.7.7 4.7.8 4.6 1 4.6 1 4.6 1.2 4.4 1.3 4.4 1.4 4.4 1.5 4.3 1.6 4.2 1.7 4.2 1.9 4.1 2 4.1 2 4 2.2 4 2.3 4 2.4 3.8 2.5 3.8 2.6 3.7 2.7 3.7 2.9 3.6 3 3.6 3 3.5 3.2 3.5 3.2 3.4 3.4 3.4 3.6 3.3 3.6 3.2 3.6 3 3.7 3.1 3.8 3 3.9 2.7 3.9 2.7 4 2.7 4 2.5 4 2.4 4.2 2.3 4.2 2.2 4.2 2 4.3 2 4.4 2 4.5 1.7 4.5 1.7 4.5 1.6 4.6 1.5 4.7 1.4 4.7 1.2 4.8 1.2 4.9 1 4.9 1 5 1 5 .7 5 .7 5.2.5 5.2.5 5.3.3 5.3.3 5.4.1h12.2l6.7-.2 6.7-.4 6.5-.5 6.6-.7 6.5-.8 6.4-1 6.4-1 6.4-1.3 6.3-1.5 6.2-1.5 6.2-1.7 6.2-1.9 6-2 6.1-2.2 6-2.3 6-2.4 5.9-2.6 5.9-2.8 5.8-2.9 5.7-3 5.7-3.2 5.7-3.4 5.6-3.5 5.6-3.6 5.5-3.8 5.5-4 5.4-4.1 5.4-4.2 5.3-4.4 5.3-4.6 5.2-4.7 4-3.6 3.8-3.7 3.7-3.8 3.7-3.7 3.6-3.7 3.4-3.8 3.4-3.8 3.3-3.8 3.2-3.8 3.1-3.8 3-3.8 3-4 2.7-3.8 2.8-3.9 2.6-3.9 2.5-3.9 2.6-4.1 2.7-4.5 2.8-4.8 2.8-5.2 3-5.5 3.2-6 3.3-6.2 3.3-6.7 7.1-14.4 7.6-15.8 8-17.2 8.5-18.8 6-14h376.2l5.2-.2 5-.4 5-.5 4.7-.7 2.3-.3 2.3-.5 2.3-.4 2.2-.5 2.1-.5 2.2-.6 2-.6 2.1-.6 2-.7 2-.7 2-.8 2-.8 1.8-.8 1.8-.8 1.8-1 1.8-.9 1.7-1 1.7-1 1.7-1 1.6-1 1.6-1.2 1.5-1.1 1.5-1.2 1.5-1.2 1.4-1.2 1.4-1.3 1.3-1.3 1.2-1.3 1.3-1.4 1.1-1.4 1.2-1.4 1-1.5 1-1.4 1-1.6 1-1.5.8-1.6.9-1.6.8-1.6.7-1.7.7-1.6.6-1.8.6-1.7.6-1.8.5-1.8.4-1.8.4-2 .4-1.8.3-2 .3-2 .2-1.9.2-2v-2l.1-2.1v-6.5l-.2-1.4-.2-1.4-.1-1.4-.3-1.3-.2-1.3-.3-1.3-.3-1.3-.4-1.2-.4-1.3-.4-1.2-.5-1.1-.4-1.2-.6-1.1-.5-1.1-.6-1.1-.6-1.1-.7-1-.7-1-.7-1-.8-1-.8-1-.8-.9-.9-.9-.9-.9-.9-.8-1-.8-1-.9-1-.7-1-.8-1.2-.7-1-.7-1.3-.7-1.2-.7-1.2-.6-1.3-.7-1.3-.6-1.3-.5-1.4-.6-1.4-.5-1.4-.5-1.5-.5-1.5-.5-1.5-.4-1.6-.4-1.6-.4-1.7-.3-1.6-.4-3.5-.6-3.6-.5-3.7-.4-3.8-.4-4-.2-4.2-.1H554.3L704 336.8h58.9l6.4-.2 6.4-.2 6.3-.4 6.2-.4 6.2-.6 6-.6 6-.8 6-.8 5.8-1 5.8-1 5.7-1.2 5.6-1.3 5.5-1.3 5.5-1.5 5.4-1.5 5.3-1.7 5.2-1.8 5.1-1.8 5.1-2 5-2 5-2.2 4.8-2.3 4.7-2.4 4.7-2.4 4.6-2.6 4.6-2.7 4.4-2.7 4.4-3 4.3-2.9 4.2-3 4.2-3.2 4-3.3 4-3.3 3.8-3.4 3.6-3.4 3.5-3.5 3.5-3.6 3.2-3.6 3.2-3.7 3-3.7 2.9-3.8 2.8-3.9 2.6-4 2.5-3.9 2.4-4 2.2-4.2 2.1-4.1 2-4.3 1.9-4.2 1.7-4.4 1.6-4.4 1.5-4.5 1.4-4.5 1.2-4.6 1-4.6 1-4.8.9-4.7.7-4.9.6-4.9.4-5 .3-5 .2-5V147ZM362 840.5l-3.6 7.5-3.6 7.4-3.7 7.1-4 7-3.9 6.7-4 6.5-4.3 6.3-4.3 6.1-4.4 6-4.5 5.6-4.7 5.5-4.7 5.3-4.9 5.1-5 5-5 4.6-2.6 2.2-2.6 2.2-2.6 2.1-2.6 2-2.6 2-2.6 2-2.6 1.8-2.6 1.7-2.6 1.7-2.7 1.6-2.6 1.5-2.6 1.5-2.7 1.4-2.7 1.3-2.6 1.3-2.7 1.2-2.7 1-2.6 1.1-2.7 1-2.7.9-2.7.8-2.7.7-2.7.7-2.8.6-2.7.6-2.7.4-2.8.4-2.7.4-2.7.2-2.8.2-2.8.1H208l-2-.1-2-.2-1.9-.1-1.9-.2-1.9-.3-1.8-.3-1.9-.3-1.8-.3-1.8-.4-1.8-.5-1.7-.4-1.8-.5-1.7-.6-1.7-.6-1.7-.6-1.6-.6-1.6-.7-1.6-.8-1.6-.7-1.6-.8-1.5-.9-1.6-.9-1.5-.9-1.4-1-1.5-1-1.4-1-1.4-1-1.4-1.1-1.4-1.2-1.4-1.2-1.3-1.2-1.3-1.2-1.2-1.2-1.2-1.3-1.1-1.3-1.1-1.3-1.1-1.3-1-1.3-1-1.4-1-1.4-.9-1.3-.8-1.5-.8-1.4-.8-1.4-.7-1.5-.7-1.5-.7-1.5-.6-1.5-.6-1.5-.5-1.5-.5-1.6-.4-1.6-.4-1.6-.4-1.6-.3-1.7-.2-1.6-.3-1.7-.2-1.7-.1-1.7-.1-1.7v-1.8l-.1-1.8v-4.2l.2-2 .2-2.1.2-2 .3-2 .3-2 .3-1.9.4-1.9.5-1.8.5-1.8.5-1.8.6-1.7.7-1.8.7-1.6.7-1.7.8-1.6.8-1.5.9-1.6 1-1.5 1-1.5 1-1.4 1-1.4 1.1-1.4 1.2-1.3 1.2-1.3 1.3-1.3 1.3-1.2 1.4-1.2 1.4-1.2 1.4-1.1 1.5-1.1 1.6-1 1.6-1.1 1.6-1 1.7-1 1.8-.9 1.7-.9 1.9-.9 1.9-.8 1.9-.8 2-.7 2-.8 2-.7 2.2-.6 2.2-.7 2.2-.5 2.3-.6 2.3-.5 2.3-.5 4.9-.9 5-.7 5.3-.6 5.5-.5 5.6-.4 5.8-.2h137.1zm503.8-685.3v1.7l-.2 1.6-.2 1.6-.2 1.7-.3 1.5-.3 1.6-.4 1.6-.4 1.5-.5 1.6-.6 1.5-.6 1.5-.6 1.5-.7 1.4-.8 1.5-.8 1.4-.9 1.4-.9 1.4-1 1.4-1 1.4-1 1.3-1.1 1.4-1.2 1.3-1.2 1.3-1.3 1.3-1.3 1.3-1.4 1.2-1.4 1.3-1.5 1.2-1.6 1.2-1.6 1.2-1.6 1.2-1.7 1.1-1.7 1.1-1.7 1-1.7 1.1-1.8 1-1.8 1-1.8 1-1.8.8-1.8.9-2 .8-1.8.8-2 .7-1.8.7-2 .7-2 .7-2 .6-2 .5-2 .6-2 .5-2.1.4-2.1.4-2.1.4-2.2.4-2.1.3-2.2.2-2.2.3-4.5.4-4.5.2h-27.6l14-34.4 1.8-4.2 1.7-4.2 1.8-4 1.9-4 1.8-3.7 1.8-3.6 1.9-3.4 1.8-3.4 1.9-3.2 1.9-3 1.9-3 1.9-2.8 1.9-2.6 1.9-2.6 2-2.3 1.8-2.3 2-2.1 1-1 1-1 1-1 1-.8 1-.9 1-.8 1-.8 1-.8 1-.7 1-.7 1-.7 1-.6 1-.6 1-.6 1-.5 1-.5 1-.5 1-.4 1-.4 1.1-.3 1-.4 1-.2 1.1-.3 1-.2 1.1-.2 1-.2h1.1l1-.2h5.6l1.1.1 1 .1 1.2.1 1 .1 1 .2 1 .2 1 .1 1 .2 1 .3 1 .2.8.3 1 .2.8.3.9.4.8.3.9.4.8.3.8.4.8.5.7.4.8.5.7.4.7.5.7.6.6.5.7.6.6.5.6.6.6.6.6.7.5.6.6.7.5.7.5.7.5.7.5.8.4.7.4.8.4.8.4.9.4.8.4.9.3.9.3.9.3.9.3 1 .3.9.2 1 .2 1 .3 1 .1 1 .2 1 .2 1.2.1 1 .1 1.2.2 2.3.1 2.4v4.1Z"/></svg>