<svg xmlns="http://www.w3.org/2000/svg" id="Make2D_Visible_Curves" viewBox="0 0 5614.9 1083.7"><path d="M1297 621.7v-2.6l-.2-1.4-.1-1.3-.2-1.2-.2-1.3-.2-1.2-.3-1.2-.3-1.2-.3-1.1-.4-1.2-.3-1-.4-1.2-.5-1-.5-1.1-.5-1-.5-1-.6-1-.6-1-.6-1-.7-.9-.7-.8-.7-1-.7-.8-.8-.8-.8-.8-.9-.8-.8-.8-1-.7-.9-.8-1-.7-1-.6-1-.7-1-.6-1.1-.7-1.1-.6-1.2-.5-1.2-.6-1.2-.5-1.2-.5-1.3-.5-1.3-.5-1.3-.4-1.4-.4-1.4-.4-1.4-.4-1.5-.4-1.5-.3-1.5-.3-3.1-.6-3.3-.5-3.3-.4-3.5-.3-3.7-.2-3.7-.1h-151.9l-3.5-.1-3.3-.1-3.3-.2-3.1-.2-3-.4-3-.4-2.8-.4-2.7-.6-1.3-.3-1.3-.3-1.2-.4-1.2-.3-1.2-.4-1.2-.4-1.2-.4-1-.4-1.2-.5-1-.4-1-.5-1-.5-1-.5-1-.6-.9-.5-.9-.6-.9-.6-.8-.6-.8-.6-.8-.7-.7-.7-.8-.6-.7-.7-.6-.8-.7-.7-.6-.8-.6-.7-.6-.8-.5-.8-.5-.9-.5-.8-.4-.9-.5-.9-.4-.9-.3-.9-.4-1-.3-.9-.3-1-.3-1-.2-1-.2-1-.2-1-.1-1.1-.1-1.1-.1-1.1-.1-1.1v-2.3h99.6l7.4-.1 7.2-.2 7-.4 6.7-.5 6.5-.6 6.3-.8 6-1 5.8-1 5.5-1.3 2.7-.6 2.6-.7 2.6-.8 2.5-.8 2.5-.8 2.4-.8 2.3-.9 2.3-1 2.2-.9 2.2-1 2-1 2.1-1 2-1.1 2-1.2 3.3-2 3.3-2.2 3.1-2.2 3-2.2 3-2.4 2.9-2.4 2.7-2.4 2.6-2.6 2.6-2.6 2.4-2.6 1.1-1.4 1.2-1.4 1-1.4 1.2-1.4 1-1.4 1-1.5 1-1.4 1-1.5 1-1.5.9-1.5.9-1.6.9-1.5.8-1.6.8-1.6.8-1.6.8-1.6.7-1.6.7-1.7 1.4-3.3 1.2-3.4 1.1-3.5 1-3.6 1-3.6.7-3.7.7-3.8.6-3.8.5-3.9.4-4 .3-4 .1-4.1v-7.6l-.1-3.5-.2-3.3-.3-3.4-.3-3.3-.4-3.2-.5-3.3-.6-3.1-.7-3.2-.7-3-.8-3-1-3-.9-3-1-3-1.1-2.8-1.2-2.9-1.3-2.8-1.4-2.7-1.4-2.7-1.5-2.7-1.6-2.6-1.7-2.6-1.7-2.5-1.8-2.5-2-2.5-1.9-2.4-2-2.3-2.2-2.4-2.2-2.2-2.3-2.3-2.3-2.2-2.5-2.1-2.5-2.1-2.5-2-2.6-2-2.7-2-2.7-1.8-2.7-1.7-2.8-1.7-2.9-1.7-2.9-1.5-3-1.5-3-1.5-3-1.3-3-1.3-3.2-1.3-3.2-1.1-3.3-1.1-3.3-1-3.3-1-3.4-1-3.5-.8-3.5-.7-3.5-.7-3.6-.7-3.7-.5-3.7-.5-3.7-.5-3.9-.3-3.8-.3-4-.3-3.9-.1-4-.1h-9.6l-5.6.2-5.5.3-5.4.5-5.4.6-5.3.8-5.3.9-5.3 1-5.2 1.1-5.1 1.3-5.1 1.5-5 1.5-5 1.7-5 1.9-5 2-4.8 2-4.8 2.3-4.8 2.4-4.7 2.5-4.7 2.7-4.6 2.8-4.6 2.9-4.5 3-4.5 3.3-4.4 3.3-4.4 3.5-4.3 3.6-4.3 3.8-4.2 3.8-4.2 4-4.1 4.2-4.1 4.3-4 4.4-4 4.4-3.7 4.5-3.6 4.6-3.5 4.6-3.3 4.6-3.3 4.7-3.1 4.8-3 4.8-2.8 4.8-2.8 4.9-2.6 5-2.5 5-2.3 5-2.2 5.1-2.1 5.2-2 5.2-1.8 5.3-1.8 5.3-1.5 5.4-1.5 5.4-1.3 5.5-1.2 5.5-1.1 5.5-1 5.7-.8 5.7-.7 5.7-.6 5.8-.4 5.8-.3 5.9-.2 6V544l.3 4.5.2 4.4.4 4.4.4 4.3.6 4.2.6 4.2.6 4 .8 4 .8 4 1 3.9 1 3.8 1 3.7 1.2 3.7 1.3 3.5 1.3 3.6 1.4 3.4 1.5 3.4 1.6 3.3 1.6 3.2 1.7 3.2 1.8 3.1 2 3 2 3 2 2.9 2 2.8 2.3 2.8 2.3 2.6 2.4 2.7 2.4 2.5 2.5 2.5 2.6 2.4 2.7 2.3 2.8 2.2 2.8 2.2 3 2 2.9 2 3 2 3.1 1.9 3.2 1.8 3.3 1.7 3.4 1.6 3.4 1.6 3.5 1.4 3.5 1.4 3.7 1.4 3.7 1.2 3.8 1.2 3.8 1.1 4 1 4 1 4 .9 4.2.8 4.2.7 4.3.6 4.4.6 4.4.5 4.5.4 4.6.3 4.7.3 4.7.2 4.8.1h151l4.7-.2 4.6-.3 4.5-.5 4.4-.6 2.1-.4 2.1-.3 2-.4 2.1-.5 2-.5 2-.5 1.9-.5 1.9-.6 1.8-.6 1.8-.7 1.8-.7 1.8-.7 1.7-.7 1.7-.8 1.6-.8 1.6-.8 1.6-1 1.5-.8 1.5-1 1.5-1 1.5-1 1.4-1 1.3-1 1.3-1.2 1.3-1 1.2-1.2 1.2-1.2 1.2-1.2 1-1.2 1.1-1.3 1-1.3 1-1.3 1-1.3.9-1.4.8-1.4.8-1.4.8-1.4.7-1.5.6-1.5.7-1.5.6-1.6.5-1.5.5-1.6.4-1.7.4-1.6.4-1.7.3-1.7.3-1.7.3-1.8.1-1.8.2-1.8.1-1.8v-5.1Zm-241.5-174.1 1.7-3 1.7-2.9 1.8-2.8 1.8-2.6 1.9-2.6 1.9-2.5 2-2.4 1.9-2.3 2-2.2 2-2 2.1-2 2.2-2 1-.9 1.1-.8 1.1-1 1.2-.8 1-.8 1.2-.8 1.1-.7 1.2-.8 1.1-.7 1.2-.7 1.1-.7 1.2-.6 1.2-.6 1.2-.6 1.2-.6 1.3-.5 1.2-.6 1.2-.5 1.3-.4 1.2-.5 1.3-.4 1.3-.4 1.3-.4 1.3-.3 1.3-.4 1.3-.3 1.3-.3 1.3-.2 1.4-.2 1.3-.3 1.4-.1 1.4-.2 1.3-.1 1.4-.1 1.4-.1h1.4l2.9-.1h4l1.9.2 1.8.2 1.8.2.9.2.8.1.9.2.8.1.8.2.8.2.8.2.7.3.8.2.7.3.7.2.7.3.7.3.6.3.7.3.6.3.7.4.6.3.6.4.5.4.6.4.5.4.6.4.5.4.5.5.5.4.4.5.5.5.4.5.4.5.5.5.3.6.4.5.4.6.3.5.4.6.3.6.3.6.3.7.2.6.3.7.2.6.2.7.2.7.2.7.2.7.2.7.1.8.2.7v.8l.2.8v.8l.1.8.1 1.2v2.8l-.1.3v.4l-.1.3v.3l-.1.3-.1.4v.3l-.2.3v.3l-.2.3v.3l-.2.4-.1.3-.1.3-.2.3-.1.3-.2.2-.1.3-.2.3-.1.3-.2.3-.2.3-.2.2-.2.3-.2.3-.2.3-.2.2-.2.3-.2.2-.3.3-.2.2-.3.3-.2.2-.3.3-.2.2-.3.3-.3.2-.6.5-.6.4-.6.5-.7.4-.7.4-.7.4-.7.4-.8.4-.8.4-.8.3-.9.4-.9.3-.9.3-.9.3-1 .3-1 .3-1 .3-2 .5-2.2.5-2.4.5-2.4.3-2.5.4-2.7.3-2.7.2-2.8.2-6 .3-6.5.1h-54.8zM4727.1 344.7v-2.3l-.2-1.2-.1-1.2-.2-1.1-.2-1.2-.2-1.1-.2-1.1-.3-1.1-.3-1.1-.3-1.1-.4-1.1-.4-1-.4-1.1-.4-1-.5-1-.5-1.1-.5-1-.6-1-.6-1-.6-1-.7-1-.6-.9-.7-1-.8-.8-.7-1-.8-.9-.8-.9-.9-.9-.9-.8-.9-.9-.9-.8-1-.8-.9-.8-1-.8-1-.7-1-.7-1-.7-1-.7-1-.6-1-.6-1-.6-1-.5-1.2-.6-1-.5-1.1-.4-1.1-.5-1.2-.4-1-.4-1.2-.4-1.2-.3-1.2-.3-1.1-.3-1.2-.2-1.2-.2-1.3-.3-1.2-.1-1.2-.2h-1.3l-1.2-.2h-9.2l-2.6.3-2.5.2-2.5.4-2.5.4-2.4.5-2.4.6-2.4.6-1.2.4-1.1.4-1.1.4-1.2.4-1.1.4-1.1.5-1.1.5-1.2.5-1 .5-1.1.5-1 .6-1.2.6-1 .6-1 .6-1 .6-1 .7-1.1.6-1 .7-2 1.4-2 1.6-1.8 1.6-1.9 1.6-1.8 1.8-1.8 1.8-1.7 2-1.8 2-1.6 2-1.7 2.1-1.6 2.2-1.5 2.3-1.6 2.4-1.4 2.5-2-2.5-2-2.4-2-2.3-2.1-2.2-2.2-2.1-2.2-2-2.3-2-2.3-2-2.5-1.8-2.4-1.8-2.6-1.6-2.6-1.6-2.6-1.6-2.7-1.4-2.8-1.4-2.9-1.2-2.9-1.3-3-1-3-1.1-3-1-3.2-.9-3.2-.8-3.2-.8-3.3-.6-3.4-.6-3.5-.5-3.5-.4-3.5-.4-3.6-.3-3.7-.2h-3.8l-3.8-.1h-5.2l-5.2.3-5.1.4-5.1.5-5.1.6-5 .9-5.1 1-5 1-5 1.3-4.9 1.4-4.9 1.6-4.9 1.7-4.8 2-4.8 2-4.8 2.1-4.7 2.3-4.7 2.5-4.7 2.6-4.6 2.8-4.6 2.9-4.6 3-4.5 3.3-4.5 3.4-4.5 3.5-4.5 3.7-4.4 3.8-4.4 4-4.3 4-4.3 4.3-4.3 4.5-4.3 4.5-4.2 4.7-4.1 4.9-4 4.8-4 4.9-3.7 5-3.6 4.9-3.5 5-3.3 5-3.2 5.1-3.1 5.1-3 5.2-2.8 5.2-2.7 5.2-2.6 5.2-2.4 5.3-2.3 5.4-2.2 5.3-2 5.5-2 5.4-1.7 5.5-1.6 5.5-1.5 5.6-1.4 5.6-1.3 5.6-1 5.7-1 5.7-1 5.7-.6 5.8-.6 5.8-.5 5.8-.3 6-.2 5.9v13.3l.2 3.6.2 3.5.3 3.5.4 3.5.4 3.4.5 3.4.5 3.3.6 3.3.7 3.3.8 3.2.8 3.1.8 3.1 1 3.1 1 3 1 3 1.2 3 1.2 2.9 1.2 2.8 1.4 2.8 1.4 2.8 1.4 2.7 1.5 2.7 1.6 2.6 1.7 2.6 1.7 2.6 1.8 2.5 1.8 2.4 2 2.4 2 2.4 2 2.3 2 2.3 2.2 2.2 2.1 2.1 2.3 2 2.2 2 2.3 2 2.3 1.8 2.4 1.8 2.4 1.7 2.5 1.6 2.4 1.6 2.6 1.4 2.5 1.4 2.6 1.4 2.7 1.2 2.7 1.2 2.7 1.1 2.7 1 2.8 1 2.9 1 2.9.8 2.9.7 3 .7 3 .6 3 .6 3 .4 3.2.4 3.1.4 3.2.2 3.3.2h3.2l3.4.1h3.5l1.7-.1 1.8-.2 1.8-.1 1.8-.2 1.7-.3 1.8-.3 1.8-.3 1.8-.3 1.9-.4 1.8-.4 1.8-.5 1.9-.5 3.7-1.1 3.7-1.3 3.7-1.4 3.8-1.5 3.8-1.7 3.8-1.9 3.9-2 3.9-2.1 3.9-2.3-15.5 38.9h-118.2l-5.4.2-5.3.2-5.2.3-5.2.3-5.1.4-5 .4-5 .5-5 .5-4.8.6-4.7.7-4.7.7-4.6.8-4.6.8-4.5 1-4.4.9-4.3 1-4.3 1-4.2 1.2-4 1.1-4.1 1.3-4 1.3-4 1.3-3.8 1.4-3.7 1.5-3.7 1.5-3.6 1.6-3.6 1.6-3.5 1.7-3.4 1.8-3.3 1.8-5.3 3-5.1 3.2-5 3.4-5 3.4-4.6 3.6-4.6 3.7-4.4 3.8-4.3 4-4.2 4.1-4 4.2-3.9 4.4-3.7 4.5-3.6 4.6-3.4 4.8-3.3 4.8-3.2 5-3 5.1-2.7 5.2-2.6 5.2-2.5 5.2-2.2 5.3-2 5.3-1.8 5.4-.9 2.7-.8 2.7-.7 2.7-.7 2.8-.7 2.7-.6 2.8-.5 2.7-.5 2.8-.9 5.6-.7 5.6-.4 5.7-.3 5.8-.1 5.7v4.5l.2 4.3.2 4.4.4 4.3.4 4.2.6 4.2.6 4.2.8 4 .8 4.1 1 4 1 4 1.2 4 1.2 3.8 1.4 3.8 1.4 3.8 1.6 3.7 1.6 3.7 1.8 3.6 1.8 3.6 2 3.6 2 3.5 2.2 3.4 2.2 3.4 2.4 3.4 2.4 3.3 2.5 3.2 2.7 3.3 2.7 3.1 2.9 3.2 2.9 3 3 3 3.2 3 3.2 3 3.3 2.8 3.3 2.7 3.4 2.6 3.4 2.6 3.5 2.4 3.5 2.4 3.5 2.3 3.7 2.1 3.6 2.1 3.8 2 3.7 1.9 3.8 1.8 4 1.7 3.8 1.6 4 1.6 4 1.4 4 1.3 4.2 1.3 4.2 1.1 4.2 1.1 4.3 1 4.3.9 4.4.7 4.4.7 4.5.6 4.5.5 4.5.5 4.7.3 4.6.2 4.8.2h9.3l4.5-.2 4.5-.2 4.5-.3 4.4-.4 4.4-.5 4.3-.6 4.4-.7 4.3-.8 4.2-.9 4.2-1 4.2-1 4.2-1.1 4-1.2 4.2-1.4 4-1.4 4-1.5 4-1.6 4-1.7 3.9-1.8 3.8-1.8 3.9-2 3.8-2 3.8-2.2 3.7-2.2 3.7-2.3 3.7-2.5 3.6-2.5 3.6-2.6 3.6-2.7 3.5-2.7 3.5-3 3.5-2.9 3.4-3 3.4-3.2 3.4-3.2 3.3-3.4 3.3-3.4 3.2-3.5 3.3-3.6 3.2-3.7 3.1-3.8 3.1-3.9 3.1-4 3-4 3-4.2 3-4.2 3-4.3 3-4.5 2.8-4.5 2.9-4.6 2.8-4.7 2.8-4.8 2.7-4.9 2.7-5 2.7-5 2.6-5.2 2.6-5.2 2.6-5.4 2.6-5.4 2.5-5.5 2.4-5.6 2.5-5.7 2.4-5.8 20.9-51.4h87.6l4.7-.2 4.6-.4 4.5-.4 4.3-.6 2.1-.4 2-.4 2.1-.4 2-.5 2-.4 2-.6 1.9-.5 1.9-.6 1.8-.6 1.9-.7 1.7-.7 1.8-.7 1.7-.8 1.7-.7 1.6-.9 1.7-.8 1.5-1 1.6-.8 1.5-1 1.5-1 1.4-1 1.5-1 1.3-1.2 1.4-1 1.3-1.2 1.2-1.2 1.2-1.2 1.2-1.2 1-1.2 1.2-1.3 1-1.3 1-1.3 1-1.4.8-1.3.9-1.4.8-1.4.8-1.5.7-1.5.7-1.5.6-1.5.6-1.5.5-1.6.5-1.6.5-1.7.4-1.6.4-1.7.3-1.7.3-1.7.2-1.8.2-1.8.2-1.8V749l.2-1.9v-4.6l-.2-1.3v-1.3l-.2-1.3-.2-1.2-.2-1.2-.2-1.3-.3-1.1-.3-1.2-.3-1.2-.3-1-.4-1.2-.5-1-.4-1.1-.5-1-.5-1-.5-1-.6-1-.6-1-.6-1-.7-.8-.7-1-.7-.8-.8-.9-.8-.8-.8-.8-.8-.8-1-.7-.8-.8-1-.7-1-.7-1-.6-1-.7-1-.6-1.2-.6-1-.6-1.2-.6-1.2-.5-1.3-.6-1.2-.5-1.3-.4-1.3-.5-1.3-.4-1.4-.5-1.4-.4-1.5-.3-1.4-.4-1.5-.3-1.6-.3-3.1-.6-3.3-.5-3.4-.4-3.5-.3-3.7-.2-3.7-.1H4589l125-308.1 3.1-7.7 2.6-7.2 2.3-6.7 1-3.2.8-3 .8-2.9.6-2.7.6-2.7.4-2.5.4-2.4.1-1.1.1-1.1.1-1.1v-1l.1-1v-2.3Zm-311.5 483.4-4 8.5-3.8 8-3.9 7.9-3.8 7.4-3.7 7.1-3.8 6.8-3.7 6.4-3.6 6.1-3.7 5.8-3.5 5.4-3.6 5-3.5 4.8-3.4 4.4-1.8 2-1.7 2-1.7 2-1.7 1.8-1.6 1.7-1.8 1.7-1.7 1.7-1.7 1.6-1.8 1.5-1.8 1.5-1.8 1.4-1.8 1.3-1.8 1.3-1.8 1.3-2 1.2-1.8 1.1-1.9 1-2 1.1-1.9 1-2 1-1.9.8-2 .8-2 .7-2 .7-2 .7-2.1.5-2 .6-2.2.4-2 .5-2.2.3-2.2.3-2.1.3-2.2.2-2.2.1h-2.2l-2.3.1h-3l-1.5-.1-1.6-.1-1.4-.2-1.5-.2-1.5-.2-1.4-.2-1.4-.3-1.5-.3-1.3-.3-1.4-.4-1.4-.4-1.3-.4-1.4-.5-1.3-.5-1.3-.5-1.3-.6-1.2-.6-1.3-.6-1.2-.7-1.3-.7-1.2-.7-1.2-.7-1.1-.8-1.2-.8-1.1-.9-1.2-.9-1-.9-1.2-1-1-1-1.1-1-1-1-1-1-1-1-1-1.2-1-1-.8-1.2-.8-1-.8-1.2-.8-1.1-.8-1.2-.7-1.2-.6-1.2-.7-1.2-.6-1.2-.6-1.2-.5-1.2-.5-1.3-.5-1.3-.5-1.2-.4-1.3-.4-1.3-.3-1.4-.3-1.3-.3-1.3-.3-1.4-.2-1.4-.2-1.4-.1-1.4-.1-1.4-.1-1.4v-7.1l.1-2.1.2-2 .2-2 .3-2 .3-2 .4-2 .4-1.8.4-1.9.5-1.8.6-1.8.6-1.8.6-1.7.7-1.7.8-1.7.8-1.6.8-1.7 1-1.6.9-1.5 1-1.5 1-1.5 1-1.5 1.2-1.5 1.2-1.4 1.2-1.3 1.3-1.4 1.3-1.3 1.4-1.3 1.4-1.3 1.5-1.2 1.5-1.2 1.6-1.2 1.6-1.1 1.6-1 1.7-1.1 1.7-1 1.8-1 1.8-1 1.8-.9 1.9-.9 1.9-.8 2-.8 2-.7 2-.8 2-.6 2.2-.7 2.1-.6 2.2-.6 2.2-.5 2.3-.5 2.3-.5 2.4-.4 2.4-.4 4.9-.7 5-.5 5.2-.4 5.4-.2h91.8zm154-395v1.6l-.2 1.1-.1 1.1-.2 1.2-.2 1.2-.2 1.2-.3 1.3-.4 1.3-.3 1.3-.4 1.3-.5 1.4-1 3-1.2 3-40.4 98.7-.3.8-.4.8-.4.8-.4.8-.4.8-.4.7-.4.8-.5.7-.5.7-.5.7-.5.7-.5.7-.5.7-.6.6-.5.6-.6.7-.6.6-.6.6-.6.6-.7.5-.6.6-.7.6-.7.5-.7.5-.7.5-.8.5-.7.5-.8.5-.7.4-.8.5-.9.4-.8.4-.8.4-.9.4-.9.4-.8.4-1 .3-.9.4-1.8.6-2 .6-2 .5-2 .5-2.2.5-2.2.4-2.2.3-2.3.3-2.4.2-2.4.2-2.5.1-2.6.1h-7.1l-1.4-.2h-1.4l-1.4-.2-1.4-.2-1.4-.2-1.3-.2-1.3-.2-1.3-.3-1.2-.3-1.2-.3-1.2-.4-1.2-.3-1.2-.4-1.1-.4-1.1-.5-1.1-.5-1-.5-1.1-.5-1-.5-1-.6-1-.6-1-.6-.8-.7-1-.7-.8-.7-.8-.7-.9-.8-.8-.7-.8-.8-.7-.9-.7-.8-.7-.9-.7-1-.7-.8-.6-1-.6-1-.6-1-.5-1-.6-1-.5-1.2-.5-1-.5-1.2-.4-1.2-.4-1.2-.4-1.2-.4-1.2-.3-1.3-.3-1.3-.4-1.3-.2-1.3-.3-1.4-.2-1.4-.2-1.4-.2-1.5-.1-1.4-.3-3-.1-3.2v-8.9l.2-2.8.2-2.9.3-2.8.4-2.8.4-2.8.5-2.8.5-2.8.6-2.8.7-2.8.7-2.7.8-2.8.9-2.7.9-2.7 1-2.8 1-2.7 1.2-2.7 1.1-2.7 1.3-2.7 1.3-2.6 1.4-2.7 1.4-2.7 1.5-2.6 1.5-2.7 1.7-2.6 1.7-2.6 1.7-2.6 1.8-2.6 2-2.6 3.9-5.2 4-5 2.1-2.3 2-2.3 2.1-2.2 2.1-2.2 2.1-2 2.1-2 2-1.9 2.2-1.8 2.1-1.7 2.1-1.7 2.1-1.5 2.2-1.5 2-1.4 2.2-1.4 2.2-1.2 2.1-1.2 2.2-1 2.1-1 2.2-1 2.2-.8 2.2-.8 2.2-.6 2.2-.6 1-.3 1.2-.3 1-.2 1.2-.2 1-.2 1.2-.2 1.1-.1 1.1-.1 1.1-.2h1.1l1.1-.1h8.3l2.3.2 1.2.2 1.2.1 1 .2 1.2.2 1.1.2 1.1.2 1.1.2 1 .3 1.1.3 1 .3 1.1.3 1 .3 1 .4 1 .4 1 .4 1 .4.9.4 1 .5.9.5.9.5.9.5.8.5 1 .6.8.6.8.6.9.6.8.6.8.6.7.7.8.6.7.7.6.7.7.7.6.7.6.7.6.7.6.7.5.8.5.7.5.8.4.7.5.8.4.8.3.8.4.8.3.8.3.8.3.8.2.9.2.8.2.9.2.8.1 1 .2.8v1l.1.8v2.4ZM4847.8 457.1l16.9-41.9h51.9l-5.3 6-5 5.8-4.9 5.7-4.6 5.5-4.5 5.5-4.2 5.3-4.1 5.3-3.8 5.1-3.7 4.9-3.4 4.9-3.2 4.8-3.1 4.6-2.8 4.5-2.6 4.4-2.4 4.3-2.2 4.2-2.1 4.1-1.9 4.2-1.8 4.1-1.7 4.2-1.5 4.2-1.4 4.2-1.2 4.2-1.2 4.2-1 4.2-.8 4.3-.7 4.3-.6 4.3-.5 4.3-.3 4.3-.2 4.3-.1 4.4v3.4l.1 3.4.2 3.3.2 3.3.3 3.2.3 3.2.4 3.2.5 3.1.5 3.1.6 3.1.6 3 .8 2.9.7 3 .9 2.9.9 2.8.9 2.8 1 2.8 1.1 2.7 1.2 2.7 1.2 2.7 1.2 2.6 1.4 2.5 1.4 2.6 1.4 2.4 1.5 2.5 1.6 2.4 1.6 2.4 1.7 2.3 1.8 2.3 1.8 2.2 1.9 2.3 2 2.1 2 2.1 2 2.1 2.1 2 2.1 1.9 2.1 1.8 2.2 1.8 2.2 1.7 2.2 1.7 2.3 1.5 2.3 1.6 2.4 1.4 2.4 1.4 2.4 1.3 2.4 1.2 2.5 1.2 2.6 1.1 2.5 1.1 2.6.9 2.7.9 2.6.9 2.7.8 2.8.7 2.8.6 2.8.6 2.8.5 2.9.4 2.9.4 3 .3 3 .2 3 .2 3.1.1h105.7l4.8-.2 4.6-.4 4.5-.4 4.4-.6 2.1-.4 2.1-.4 2-.4 2.1-.4 2-.5 1.9-.5 1.9-.6 1.9-.5 1.9-.7 1.8-.6 1.8-.7 1.7-.7 1.7-.7 1.7-.8 1.7-.8 1.6-.9 1.6-.8 1.5-1 1.5-.9 1.5-1 1.4-1 1.4-1 1.4-1.1 1.3-1.1 1.3-1.1 1.2-1.2 1.2-1.2 1.2-1.2 1.1-1.2 1-1.3 1-1.3 1-1.3 1-1.3.8-1.4.9-1.4.8-1.4.7-1.5.8-1.5.6-1.5.7-1.5.5-1.6.6-1.6.5-1.6.4-1.6.5-1.7.3-1.7.3-1.7.3-1.8.3-1.8.2-1.8.1-1.8.1-1.9.1-1.9v-3.2l-.1-1.4v-1.3l-.1-1.3-.2-1.3-.2-1.2-.2-1.3-.2-1.2-.2-1.2-.3-1.1-.4-1.2-.3-1.1-.4-1.1-.4-1.1-.5-1-.5-1.1-.5-1-.5-1-.6-1-.6-.9-.6-1-.7-.9-.7-.9-.7-.8-.8-.9-.7-.8-.9-.8-.8-.8-.9-.7-.9-.8-.9-.7-1-.7-1-.7-1.1-.6-1-.6-1.1-.7-1.2-.5-1.1-.6-1.2-.6-1.2-.5-1.3-.5-1.3-.5-1.3-.4-1.3-.5-1.4-.4-1.4-.4-1.4-.4-1.5-.3-1.5-.3-1.5-.4-3.2-.5-3.3-.5-3.4-.4-3.5-.3-3.6-.2-3.8-.1-3.9-.1H5006l-2.8-.1-2.6-.2-1.3-.1-1.3-.2-1.2-.2-1.2-.2-1.2-.2-1.2-.2-1.1-.3-1.2-.2-1.1-.3-1.1-.3-1-.4-1.1-.3-1-.4-1-.4-1-.4-.9-.4-1-.5-.9-.5-.8-.5-.9-.5-.8-.5-.9-.6-.8-.5-.7-.6-.8-.7-.7-.6-.7-.7-.7-.6-.7-.7-.6-.7-.6-.8-.6-.7-.6-.8-.5-.8-.5-.8-.6-.9-.4-.8-.5-.9-.4-.9-.4-.9-.4-1-.4-.9-.4-1-.3-1-.3-1-.3-1.1-.2-1-.3-1.1-.2-1.1-.2-1.1-.1-1.2-.2-1.1-.1-1.2-.1-1.2-.1-1.2v-1.3l-.1-1.2v-2.6l.1-1.3.1-1.4.1-1.3.2-1.4.2-1.4.3-1.4.3-1.4.3-1.4.4-1.5.4-1.5.4-1.5.5-1.5.5-1.5.6-1.5.6-1.6 1.3-3.1 1.5-3.2 1.6-3.3 1.8-3.4 1.9-3.4 2.1-3.5 2.2-3.6 2.4-3.6 2.6-3.7 2.7-3.8 2.9-3.8 3-3.9 3.2-3.9 3.3-4.1 3.5-4.1 3.6-4.1 3.8-4.3 4-4.3 4.1-4.3 4.2-4.5 4.4-4.5 4.6-4.5 4.7-4.7 4.9-4.7 5.5-5h5.1l4.9-.2 4.8-.3 4.6-.4 4.4-.6 4.3-.7 2.1-.4 2-.4 2-.4 2-.5 1.9-.5 1.9-.6 1.8-.5 1.8-.6 1.8-.7 1.7-.6 1.7-.7 1.6-.8 1.6-.7 1.5-.8 1.6-.8 1.4-.9 1.5-.9 1.4-.9 1.3-.9 1.3-1 1.3-1 1.2-1 1.2-1.1 1.2-1.1 1.1-1.1 1.1-1.2 1-1.2 1-1.2.9-1.2.9-1.3.9-1.3.8-1.4.8-1.4.8-1.4.7-1.4.6-1.5.7-1.5.6-1.5.5-1.6.5-1.5.5-1.7.4-1.6.4-1.7.3-1.7.3-1.8.3-1.8.2-1.8.2-1.8.1-1.9.1-1.9.1-1.9v-4.8l-.1-1.4-.1-1.3-.2-1.3-.2-1.4-.2-1.2-.2-1.3-.3-1.3-.3-1.2-.3-1.2-.4-1.1-.4-1.2-.4-1.1-.5-1.1-.5-1.1-.5-1.1-.5-1-.6-1.1-.7-.9-.6-1-.7-1-.7-.9-.8-.9-.7-.9-.9-.9-.8-.8-.9-.8-.9-.8-.9-.8-1-.7-1-.8-1-.7-1.1-.6-1.1-.7-1.1-.6-1.2-.7-1.2-.6-1.2-.5-1.3-.6-1.3-.5-1.3-.5-1.4-.5-1.3-.4-1.5-.5-1.4-.4-1.5-.4-1.5-.4-1.6-.3-1.5-.3-3.3-.6-3.4-.5-3.5-.4-3.6-.3-3.8-.2-3.9-.2h-120.6l-5.6-.1-5.1-.1-4.4-.2-2.1-.2-1.9-.2-1.8-.2-1.6-.2-1.5-.2-.7-.2-.7-.1-.6-.2-.6-.1-.5-.2-.6-.1-.5-.2-.2-.1-.2-.1h-.2l-.2-.1-.2-.1-.2-.1-.2-.1-.2-.1-.2-.1-.2-.1-.2-.1-.1-.2-.2-.1-.2-.1-.2-.1-.1-.2-.2-.1-.2-.2-.1-.1-.2-.2-.2-.1-.1-.2-.2-.1-.2-.2-.3-.4-.3-.3-.3-.4-.3-.4-.3-.5-.3-.4-.3-.4-.2-.5-.3-.5-.3-.5-.2-.6-.3-.5-.2-.6-.3-.6-.2-.5-.5-1.3-.4-1.3-.4-1.4-.4-1.5-4-15.4-.6-2.2-.6-2-.3-1.1-.3-1-.4-.9-.4-1-.3-.9-.4-1-.5-.9-.4-.9-.4-.9-.5-.8-.4-.9-.5-.8-.5-.8-.5-.8-.5-.8-.6-.7-.5-.8-.6-.7-.6-.7-.6-.7-.6-.7-.6-.6-.6-.7-.7-.6-.6-.6-.7-.6-.7-.5-.7-.6-.7-.5-.7-.6-.8-.5-.7-.4-.8-.5-.8-.5-.8-.4-.8-.4-.8-.4-.9-.4-.8-.4-.9-.3-.9-.3-.9-.4-.9-.3-.9-.2-.9-.3-1-.2-.9-.3-1-.2-1-.2-1-.2-1-.1-1.1-.2-2.1-.2-2.2-.2-2.2-.1h-4.6l-1.1.1-1.2.1-1.1.1-1.1.1-1.1.2-1.1.2-1.1.2-1.1.2-1.1.3-1.1.3-1 .3-1.1.3-1.1.3-1 .4-1 .4-1.1.5-1 .4-1 .5-1 .5-1 .5-.9.6-1 .6-1 .6-.9.6-1 .6-.9.7-1 .7-.9.7-.9.8-.9.8-.9.8-.9.8-.9.8-.9.9-.8.9-.9.9-.8 1-.9.9-1.6 2.1-1.7 2.1-1.5 2.2-1.6 2.3-1.5 2.4-1.5 2.5-1.5 2.6-1.4 2.7-1.4 2.8-1.4 2.9-1.3 3-1.3 3.1-56.3 139.1-2.6 6.6-2.2 6.1-1.9 5.6-1.5 5.1-.7 2.4-.5 2.2-.5 2.2-.4 2-.3 1.8-.1.9-.1.9-.1.8v.8l-.1.8v1.9l.1 1.3.1 1.2.1 1.2.1 1.2.1 1.1.2 1.2.3 1.2.2 1.1.3 1.1.3 1.1.3 1.1.4 1.1.4 1.1.4 1.1.5 1 .4 1 .6 1.1.5 1 .6 1 .6 1 .6.9.6 1 .7 1 .7.9.8.9.8.9.8.9.8.9.9.9.9.8.9.9.9.8 1 .8.9.8 1 .7 1 .8 1 .7 1.1.6 1 .7 1.1.6 1.1.6 1 .6 1.1.5 1.2.5 1.1.5 1.1.4 1.2.5 1.2.4 1.2.4 1.2.3 1.2.4 1.2.3 1.3.2 1.2.3 1.3.2 1.3.2 1.3.2 1.3.1 1.4.1 1.3.1 1.4.1h5.1l1.1-.1 1.1-.1 1.1-.1 1.2-.1 1.1-.2 1.1-.2 1.1-.3 1-.2 1.1-.3 1.1-.3 1.1-.4 1-.3 1.1-.4 1-.4 1.1-.5 1-.5 1-.5 1.1-.5 1-.6 1-.6 1-.6 1-.6.9-.7 1-.7 1-.7 1-.7.9-.8 1-.8.9-.9 1-.8.9-.9.9-.9.9-1 .9-.9 1.8-2 1.8-2.2 1.8-2.2 1.7-2.3 1.7-2.5 1.6-2.6 1.7-2.6 1.6-2.8 1.6-2.9 1.5-3 1.6-3.1 1.5-3.2 1.4-3.3zM2601 621.7v-2.6l-.2-1.4-.1-1.3-.2-1.2-.2-1.3-.2-1.2-.3-1.2-.3-1.2-.3-1.1-.3-1.2-.4-1-.4-1.2-.5-1-.4-1.1-.5-1-.6-1-.6-1-.6-1-.6-1-.6-.9-.7-.8-.8-1-.7-.8-.8-.8-.8-.8-.8-.8-.9-.8-.9-.7-1-.8-1-.7-1-.6-1-.7-1-.6-1-.7-1.2-.6-1.2-.5-1.1-.6-1.3-.5-1.2-.5-1.3-.5-1.3-.5-1.3-.4-1.4-.4-1.4-.4-1.4-.4-1.4-.4-1.5-.3-1.6-.3-3-.6-3.3-.5-3.4-.4-3.5-.3-3.6-.2-3.8-.1h-151.8l-3.5-.1-3.4-.1-3.3-.2-3-.2-3.1-.4-3-.4-2.8-.4-2.7-.6-1.3-.3-1.2-.3-1.3-.4-1.2-.3-1.2-.4-1.2-.4-1.1-.4-1.1-.4-1.1-.5-1-.4-1.1-.5-1-.5-1-.5-1-.6-.9-.5-.9-.6-.8-.6-.9-.6-.8-.6-.8-.7-.7-.7-.7-.6-.7-.7-.7-.8-.7-.7-.6-.8-.6-.7-.5-.8-.6-.8-.5-.9-.5-.8-.4-.9-.4-.9-.4-.9-.4-.9-.4-1-.3-.9-.3-1-.2-1-.3-1-.2-1-.1-1-.2-1.1-.1-1.1-.1-1.1v-1.1l-.1-1.2v-1.1h99.7l7.4-.1 7.2-.2 7-.4 6.6-.5 6.5-.6 6.3-.8 6-1 5.8-1 5.5-1.3 2.7-.6 2.7-.7 2.5-.8 2.5-.8 2.5-.8 2.4-.8 2.3-.9 2.3-1 2.2-.9 2.2-1 2.1-1 2-1 2-1.1 2-1.2 3.3-2 3.3-2.2 3.2-2.2 3-2.2 3-2.4 2.8-2.4 2.7-2.4 2.7-2.6 2.5-2.6 2.4-2.6 1.2-1.4 1.1-1.4 1.1-1.4 1-1.4 1.1-1.4 1-1.5 1-1.4 1-1.5 1-1.5 1-1.5.8-1.6.9-1.5.8-1.6.9-1.6.7-1.6.8-1.6.7-1.6.8-1.7 1.3-3.3 1.2-3.4 1.1-3.5 1-3.6 1-3.6.8-3.7.7-3.8.6-3.8.4-3.9.4-4 .3-4 .1-4.1.1-4.2v-3.4l-.2-3.5-.2-3.3-.2-3.4-.4-3.3-.4-3.2-.5-3.3-.6-3.1-.6-3.2-.8-3-.8-3-.9-3-1-3-1-3-1.1-2.8-1.2-2.9-1.3-2.8-1.3-2.7-1.5-2.7-1.5-2.7-1.6-2.6-1.6-2.6-1.8-2.5-1.8-2.5-1.9-2.5-2-2.4-2-2.3-2.1-2.4-2.2-2.2-2.3-2.3-2.4-2.2-2.4-2.1-2.5-2.1-2.6-2-2.6-2-2.6-2-2.7-1.8-2.8-1.7-2.8-1.7-2.8-1.7-3-1.5-2.9-1.5-3-1.5-3-1.3-3.1-1.3-3.2-1.3-3.2-1.1-3.2-1.1-3.3-1-3.4-1-3.4-1-3.4-.8-3.5-.7-3.6-.7-3.6-.7-3.7-.5-3.7-.5-3.7-.5-3.8-.3-3.9-.3-3.9-.3-4-.1-4-.1h-9.6l-5.6.2-5.4.3-5.5.5-5.4.6-5.3.8-5.3.9-5.3 1-5.2 1.1-5.1 1.3-5.1 1.5-5 1.5-5 1.7-5 1.9-5 2-4.8 2-4.8 2.3-4.8 2.4-4.7 2.5-4.7 2.7-4.6 2.8-4.5 2.9-4.6 3-4.4 3.3-4.5 3.3-4.4 3.5-4.3 3.6-4.3 3.8-4.2 3.8-4.2 4-4.1 4.2-4.1 4.3-4 4.4-3.9 4.4-3.7 4.5-3.7 4.6-3.5 4.6-3.3 4.6-3.3 4.7-3 4.8-3 4.8-3 4.8-2.7 4.9-2.6 5-2.4 5-2.4 5-2.2 5.1-2.1 5.2-2 5.2-1.8 5.3-1.7 5.3-1.6 5.4-1.5 5.4-1.3 5.5-1.2 5.5-1.1 5.5-1 5.7-.8 5.7-.7 5.7-.5 5.8-.5 5.8-.3 5.9-.2 6v10.5l.1 4.6.2 4.5.3 4.4.3 4.4.5 4.3.5 4.2.6 4.2.7 4 .7 4 .9 4 .9 3.9 1 3.8 1 3.7 1.2 3.7 1.3 3.5 1.3 3.6 1.4 3.4 1.5 3.4 1.6 3.3 1.6 3.2 1.8 3.2 1.8 3.1 1.9 3 2 3 2 2.9 2.1 2.8 2.2 2.8 2.3 2.6 2.4 2.7 2.4 2.5 2.6 2.5 2.6 2.4 2.6 2.3 2.8 2.2 2.8 2.2 3 2 2.9 2 3 2 3.2 1.9 3.2 1.8 3.2 1.7 3.4 1.6 3.4 1.6 3.5 1.4 3.5 1.4 3.7 1.4 3.7 1.2 3.8 1.2 3.8 1.1 4 1 4 1 4 .9 4.2.8 4.2.7 4.3.6 4.4.6 4.4.5 4.5.4 4.6.3 4.7.3 4.7.2 4.9.1h150.9l4.7-.2 4.7-.3 4.5-.5 4.3-.6 2.1-.4 2.1-.3 2.1-.4 2-.5 2-.5 2-.5 1.9-.5 1.9-.6 1.8-.6 1.9-.7 1.7-.7 1.8-.7 1.7-.7 1.7-.8 1.6-.8 1.6-.8 1.6-1 1.6-.8 1.5-1 1.4-1 1.5-1 1.4-1 1.3-1 1.4-1.2 1.2-1 1.3-1.2 1.2-1.2 1.1-1.2 1.1-1.2 1-1.3 1-1.3 1-1.3 1-1.3.9-1.4.8-1.4.8-1.4.8-1.4.7-1.5.7-1.5.6-1.5.6-1.6.5-1.5.5-1.6.5-1.7.4-1.6.3-1.7.4-1.7.2-1.7.3-1.8.2-1.8.1-1.8.1-1.8.1-1.9V622Zm-241.5-174.1 1.7-3 1.8-2.9 1.8-2.8 1.8-2.6 1.8-2.6 2-2.5 1.9-2.4 2-2.3 2-2.2 2-2 2-2 2.2-2 1.1-.9 1-.8 1.2-1 1.1-.8 1.1-.8 1.1-.8 1.2-.7 1.1-.8 1.2-.7 1.1-.7 1.2-.7 1.2-.6 1.2-.6 1.2-.6 1.2-.6 1.2-.5 1.2-.6 1.3-.5 1.2-.4 1.3-.5 1.2-.4 1.3-.4 1.3-.4 1.3-.3 1.3-.4 1.3-.3 1.3-.3 1.4-.2 1.3-.2 1.4-.3 1.3-.1 1.4-.2 1.4-.1 1.4-.1 1.4-.1h1.4l2.8-.1h4l2 .2 1.8.2 1.7.2.9.2.9.1.8.2.8.1.8.2.8.2.8.2.8.3.7.2.7.3.7.2.7.3.7.3.7.3.6.3.7.3.6.4.6.3.6.4.6.4.5.4.6.4.5.4.5.4.5.5.5.4.5.5.4.5.5.5.4.5.4.5.4.6.4.5.3.6.4.5.3.6.3.6.3.6.3.7.3.6.2.7.3.6.2.7.2.7.2.7.2.7.1.7.2.8.1.7.1.8.1.8.1.8v.8l.2 1.2v2.4l-.1.4v.3l-.1.4v.3l-.1.3v.3l-.2.4v.3l-.1.3-.1.3-.1.3-.1.3-.1.4-.2.3v.3l-.2.3-.2.3-.1.2-.2.3-.1.3-.2.3-.2.3-.1.3-.2.2-.2.3-.2.3-.2.3-.2.2-.3.3-.2.2-.2.3-.3.2-.2.3-.3.2-.2.3-.3.2-.3.3-.2.2-.6.5-.6.4-.7.5-.6.4-.7.4-.7.4-.8.4-.7.4-.8.4-.9.3-.8.4-.9.3-.9.3-1 .3-.9.3-1 .3-1 .3-2 .5-2.3.5-2.3.5-2.4.3-2.6.4-2.6.3-2.7.2-2.9.2-6 .3-6.5.1H2358zM5615 621.3l-.1-1.4-.1-1.3-.1-1.3-.1-1.3-.2-1.2-.2-1.3-.2-1.2-.3-1.2-.3-1.1-.3-1.2-.4-1.1-.3-1.1-.5-1-.4-1.1-.5-1-.5-1.1-.5-1-.6-1-.6-1-.6-.9-.7-.9-.7-.9-.7-.8-.7-.9-.8-.8-.8-.8-.9-.8-.8-.7-1-.8-.9-.7-1-.7-1-.7-1-.6-1-.6-1.1-.6-1.2-.6-1.1-.6-1.2-.6-1.2-.5-1.2-.5-1.3-.5-1.3-.4-1.3-.5-1.4-.4-1.4-.4-1.4-.4-1.5-.3-1.5-.3-1.5-.3-3.1-.6-3.3-.5-3.3-.4-3.5-.3-3.7-.2-3.7-.1h-58.7l77.3-191 1.8-4.7.9-2.3.8-2.3.7-2.3.6-2.2.6-2.1.6-2.1.4-2 .4-2.1.4-2 .3-2 .2-1.8.1-1.9.1-1.8v-5.5l-.2-1.3-.1-1.2-.2-1.2-.2-1.2-.2-1.2-.2-1.1-.3-1.2-.3-1.1-.3-1.2-.4-1-.4-1.2-.4-1-.4-1.2-.5-1-.5-1.1-.5-1-.6-1-.6-1-.6-1.1-.7-1-.6-1-.7-1-.8-.9-.7-1-.8-.9-.8-.9-.9-.9-.9-.9-.9-.8-.9-1-1-.7-.9-.8-1-.8-1-.8-1-.7-1-.7-1-.7-1-.6-1-.6-1.1-.6-1.1-.6-1.1-.5-1.1-.5-1.1-.5-1.2-.4-1.1-.4-1.2-.4-1.2-.4-1.2-.3-1.2-.4-1.2-.2-1.2-.3-1.3-.2-1.3-.2-1.2-.2-1.3-.2h-1.3l-1.4-.2h-1.3l-1.3-.1h-3.9l-2.5.1-2.4.2-2.5.3-2.4.3-2.3.4-2.3.5-2.3.5-2.3.6-2.3.7-2.2.8-2.1.8-2.2 1-2.1 1-2.1 1-2 1.1-2.1 1.2-2 1.3-2 1.4-2 1.4-1.8 1.5-1.9 1.6-1.8 1.6-1.8 1.7-1.8 1.8-1.8 1.9-1.7 1.9-1.7 2-1.6 2-1.7 2.2-1.6 2.3-1.5 2.3-1.9-2.8-2-2.6-2-2.6-2-2.4-2.2-2.4-2.2-2.3-2.2-2.2-2.4-2.1-2.4-2-2.5-2-2.5-1.9-2.6-1.8-2.7-1.7-2.7-1.6-2.9-1.5-2.8-1.4-3-1.3-3-1.3-3-1.2-3.2-1-3.2-1-3.3-1-3.4-.8-3.4-.7-3.5-.7-3.5-.5-3.6-.5-3.7-.4-3.8-.3-3.8-.2-3.9-.2h-9.1l-5.2.3-5.1.4-5.1.5-5 .6-5 .9-5 1-5 1-5 1.3-4.8 1.4-4.8 1.5-4.9 1.7-4.7 1.9-4.8 2-4.7 2-4.7 2.4-4.6 2.4-4.7 2.6-4.5 2.7-4.6 2.9-4.5 3-4.5 3.2-4.4 3.3-4.4 3.5-4.4 3.6-4.4 3.8-4.3 3.9-4.3 4-4.2 4.2-4.2 4.4-4.2 4.5-4.2 4.6-4 4.8-4 4.7-3.8 4.9-3.6 4.8-3.6 5-3.4 4.9-3.3 5-3.2 5-3 5-2.9 5.1-2.8 5.1-2.6 5.2-2.5 5.2-2.4 5.3-2.3 5.3-2.1 5.3-2 5.4-1.9 5.4-1.7 5.4-1.6 5.5-1.5 5.5-1.3 5.6-1.3 5.6-1 5.7-1 5.7-.9 5.7-.7 5.8-.6 5.8-.4 5.8-.3 5.9-.2 5.9-.1 6v3.9l.1 3.9.2 3.8.2 3.8.3 3.7.4 3.7.4 3.7.5 3.6.6 3.6.6 3.5.7 3.4.7 3.4.9 3.4.8 3.3 1 3.3 1 3.2 1 3.2 1.2 3.1 1.3 3.1 1.2 3 1.4 3 1.4 3 1.5 2.9 1.5 2.8 1.6 2.8 1.7 2.8 1.8 2.7 1.8 2.6 1.8 2.6 2 2.6 2 2.5 2 2.5 2.2 2.4 2.1 2.3 2.2 2.3 2.3 2.2 2.3 2 2.3 2 2.4 2 2.4 2 2.4 1.7 2.5 1.7 2.6 1.7 2.6 1.5 2.6 1.5 2.6 1.4 2.7 1.4 2.8 1.2 2.8 1.2 2.8 1.1 2.9 1 2.9 1 3 .9 3 .8 3 .7 3 .7 3.1.5 3.2.5 3.2.5 3.2.3 3.3.3 3.3.2h3.4l3.4.1h59l2.2-.1 2.2-.2 2.2-.2 2.2-.3 2.2-.4 2.2-.4 2.2-.5 2.3-.5 2.2-.6 2.2-.7 2.3-.8 2.2-.8 2.3-.9 2.2-1 2.3-1 2.2-1 2.3-1.1 2.3-1.2 2.2-1.3 2.3-1.4 2.3-1.4 2.3-1.4 2.3-1.6 2.3-1.6 2.3-1.6 4.6-3.5 4.7-3.8 4.6-4 1 2 1 2 .6 1 .6.9.5 1 .6.9.6.9.6.9.6.8.7.9.6.8.7.9.7.8.7.8.7.7.7.8.7.7.8.8.7.7.8.7.8.6.8.7.8.6.8.7.8.6.9.6.8.6 1 .5.8.6 1 .5.8.5 1 .5 1 .5.9.4 1 .5 1 .4 1 .4 1 .4 1 .4 1 .4 1 .3 1.1.4 2.2.6 2.2.5 2.3.5 2.3.5 2.4.3 2.4.3 2.5.2 2.6.2h2.6l2.6.1h68.7l4.7-.3 4.6-.3 4.5-.5 4.3-.6 2.1-.3 2-.4 2.1-.4 2-.5 2-.5 2-.5 1.9-.5 1.9-.6 1.8-.6 1.8-.7 1.8-.7 1.8-.7 1.7-.8 1.7-.8 1.6-.8 1.6-.8 1.6-1 1.6-.9 1.5-1 1.5-.9 1.4-1 1.4-1 1.4-1.2 1.4-1 1.2-1.2 1.3-1.2 1.2-1.2 1.2-1.2 1-1.2 1.1-1.3 1-1.3 1-1.3 1-1.4 1-1.3.8-1.4.8-1.5.7-1.4.8-1.5.6-1.5.7-1.5.6-1.6.5-1.5.5-1.6.5-1.7.4-1.6.4-1.7.3-1.7.3-1.8.2-1.7.2-1.8.2-1.8v-1.8l.1-1.9v-3.3Zm-190-187.4v2.2l-.2 1.6-.2 1.6-.3 1.6-.3 1.7-.3 1.7-.4 1.7-.5 1.8-.5 1.9-.6 1.8-.6 2-.7 2-.7 2-1.7 4.1-34.9 86.2-.8 2-1 2-.4 1-.5 1-.5 1-.6.9-.5.9-.5.9-.6.8-.6.9-.6.8-.6.9-.6.8-.6.8-.6.7-.7.8-.7.7-.6.7-.7.8-.8.7-.7.6-.7.7-.8.6-.7.7-.8.6-.8.6-.8.6-.8.5-.8.6-.9.5-.8.5-1 .5-.8.5-.9.4-.9.5-1 .4-.9.4-1 .4-.9.4-1 .4-1 .3-1 .4-1 .3-1 .3-1 .3-1 .3-2.2.4-2.2.5-2.3.3-2.3.3-2.4.2-2.4.2-2.5.1h-18.8l-1.2-.2h-1.2l-1.2-.2-1.1-.2-1.2-.2-1-.2-1.2-.2-1-.3-1.1-.3-1-.3-1-.3-1-.4-1-.4-1-.4-1-.4-.9-.5-.9-.5-.9-.5-.8-.5-.9-.6-.8-.6-.8-.6-.8-.6-.7-.7-.8-.7-.7-.7-.7-.7-.7-.8-.6-.8-.7-.8-.6-.8-.6-.9-.6-.9-.5-.9-.6-1-.5-.9-.5-1-.4-1-.5-1-.4-1.1-.4-1.1-.4-1.1-.4-1.2-.3-1.1-.4-1.2-.3-1.3-.3-1.2-.2-1.3-.3-1.3-.2-1.3-.2-1.3-.4-2.8-.3-2.8-.2-3v-3l-.1-3.2V527l.1-2.9.2-2.8.2-2.8.3-2.8.4-2.8.4-2.8.5-2.8.6-2.8.6-2.8.7-2.7.8-2.8.8-2.8 1-2.7 1-2.8 1-2.7 1-2.8 1.3-2.7 1.2-2.7 1.3-2.7 1.4-2.8 1.4-2.7 1.5-2.7 1.6-2.7 1.7-2.7 1.7-2.7 1.8-2.6 1.8-2.7 2-2.7 1.9-2.6 4.2-5.3 4.3-5.2 2.1-2.4 2.2-2.4 2.2-2.3 2.1-2.1 2.2-2.2 2.2-2 2.2-2 2.2-1.8 2.2-1.8 2.1-1.7 2.2-1.6 2.2-1.5 2.3-1.5 2.2-1.3 2.2-1.3 2.2-1.2 2.2-1.1 2.2-1 2.3-1 2.2-.9 2.2-.8 2.3-.7 2.2-.6 1.2-.3 1-.2 1.2-.3 1.1-.2 1.2-.2 1.1-.2 1.1-.1 1.2-.2h1l1.2-.2h2.3l1.1-.1h4.6l1.1.1 1.1.1 1.1.1 1.1.2 1 .1 1.1.2 1.1.2 1 .2 1.1.2 1 .2 1 .3 1 .3 1 .3 1 .3 1 .3 1 .4.9.4 1 .4.8.4 1 .4.9.5.9.5.9.5.8.5 1 .5.8.6.8.6.9.5.8.7.8.6.8.6.8.7.7.6.7.7.7.6.6.7.7.7.6.6.6.7.5.7.5.7.5.7.5.7.5.8.4.7.4.7.4.8.3.7.3.8.3.7.3.8.3.8.2.8.2.8.1.8.2.8.1.8.1.8v.8l.1.8v1.6ZM1944.1 327.5l94.7-233.3 3-7.6 2.7-7.1 1.1-3.4 1.1-3.3 1-3.1.8-3 .8-2.9.6-2.8.6-2.7.5-2.5.3-2.4.2-1.2.1-1.1.1-1.1v-1.1l.1-1v-2.2l-.1-1.2-.1-1.2-.1-1.2-.1-1.2-.1-1.1-.2-1.2-.2-1.1-.3-1.1-.3-1.1-.3-1.1-.3-1.1-.4-1.1-.3-1.1-.5-1-.4-1-.5-1.1-.5-1-.5-1-.6-1-.6-1-.6-1-.6-.9-.7-1-.7-.9-.7-.9-.8-1-.8-.9-.8-.9-.9-.9-.8-.8-.9-.9-1-.8-.9-.8-.9-.8-1-.8-1-.7-.9-.7-1-.7-1-.7-1.1-.6-1-.6-1-.6-1.1-.5-1-.6-1.1-.5-1.1-.4-1.1-.5-1.1-.4-1.1-.4-1.1-.3-1.2-.4-1.1-.3-1.2-.3-1.1-.2-1.2-.2-1.2-.2-1.2-.2-1.2-.2-1.3-.1-1.2-.1h-1.2l-1.3-.1h-2.8l-1.5.1-1.6.1-1.5.1-1.5.1-1.4.2-1.5.2-1.5.3-1.4.3-1.5.3-1.4.3-1.4.4-1.5.4-1.4.5-1.4.5-1.3.5-1.4.6-1.4.5-1.3.7-1.4.6-1.3.7-1.3.7-1.3.8-1.3.8-1.3.8-1.3.9-1.3.8-1.3 1-1.2.9-1.2 1-1.3 1-1.2 1.1-1.2 1.1-1.2 1.1-1.2 1.2-1.2 1.2-1.1 1.2-1.2 1.3-2.3 2.6-2.2 2.7-2.2 2.9-2.2 3-2.1 3.2-2.1 3.3-2 3.4-2 3.6-2 3.7-1.9 3.8-1.9 4-1.8 4.1-1.8 4.2-222.4 548.3-1.7 4.7-.8 2.3-.7 2.2-.7 2.2-.6 2.1-.6 2.2-.5 2-.4 2.1-.4 2-.3 1.9-.3 1.9-.2 1.9-.1 1.9-.1 1.8v4l.1 1.1.1 1.2.1 1.1.2 1.1.1 1 .3 1.1.2 1.1.3 1 .3 1.1.3 1 .3 1 .4 1 .4 1 .5 1 .4 1 .5.9.6 1 .5.9.6 1 .6.9.6.9.7.9.7.9.7.9.7.9.8.8.8.9.9.8.8.8.9.8.9.8.9.8 1 .8.9.7 1 .7.9.6 1 .7 1 .6 1 .6 1 .6 1.1.5 1 .5 1 .5 1.1.5 1.1.4 1.1.5 1.1.3 1.1.4 1.1.4 1.1.3 1.2.3 1.1.2 1.2.3 1.2.2 1.2.2 1.2.1 1.2.2 1.2.1 1.2.1h1.3l1.2.1h2.9l1.6-.1h1.6l1.6-.2 1.6-.1 1.5-.2 1.5-.2 1.6-.2 1.5-.3 1.5-.3 1.5-.3 1.5-.4 1.4-.4 1.5-.4 1.4-.5 1.4-.5 1.5-.5 1.4-.6 1.3-.6 1.4-.6 1.4-.6 1.3-.7 1.4-.7 1.3-.8 1.3-.8 1.3-.8 1.3-.8 1.3-.9 1.3-.9 1.2-1 1.3-.9 1.2-1 1.2-1.1 1.2-1 1.2-1.1 1.2-1.2 1.2-1.1 1.1-1.2 1.2-1.3 1.1-1.2 1.1-1.3 1.1-1.3 2.2-2.8 2.1-2.8 2.1-3 2-3.2 2-3.2 1.9-3.4 1.9-3.5 1.8-3.6 1.8-3.8 1.7-3.9 1.7-4 55.8-137.1 2.2-5.3 2.2-5.2 2.3-5 2.3-4.8 2.3-4.7 2.3-4.5 2.4-4.3 2.4-4.1 2.5-4 2.5-3.8 2.5-3.7 2.5-3.4 2.6-3.3 2.6-3.2 2.6-2.9 1.3-1.5 1.4-1.3 1.3-1.4 1.4-1.3 1.3-1.2 1.4-1.2 1.4-1.2 1.4-1.1 1.4-1.1 1.3-1 1.5-1 1.4-1 1.4-.9 1.4-.9 1.5-.8 1.4-.8 1.5-.7 1.4-.7 1.5-.7 1.5-.6 1.4-.5 1.5-.6 1.5-.5 1.5-.4 1.6-.4 1.5-.4 1.5-.3 1.5-.3 1.6-.2 1.5-.2 1.6-.1 1.6-.1 1.6-.1h3.9l2.2.1 2.2.1 2.1.2 2.1.3 1.9.3 1 .1.9.2.9.2.9.2.9.3.9.2.8.3.8.2.8.3.8.3.8.3.7.4.8.3.7.4.7.3.6.4.7.4.6.4.7.4.6.5.5.4.6.5.5.5.6.5.5.5.5.5.4.5.5.6.4.5.4.6.4.6.4.6.4.6.3.7.4.6.3.7.2.6.3.7.3.7.2.7.2.8.2.7.2.8.1.7.2.8.1.8.1.8.1.8v.9l.1.8v3.9l-.1.8-.1.8-.1.8-.2 1.6-.3 1.8-.4 1.8-.4 1.9-.5 2-.6 2-.6 2.2-1.4 4.5-1.8 4.9-1.9 5.2-45.9 112.6-2.7 6.9-1.2 3.3-1.1 3.2-1.1 3.1-.9 3.1-.8 3-.8 2.9-.7 2.8-.6 2.7-.5 2.7-.4 2.6-.3 2.5-.2 2.5-.1 1.2v1.1l-.1 1.2v2.8l.1 1.6.1 1.6.2 1.6.2 1.6.2 1.5.3 1.6.3 1.5.3 1.5.4 1.5.5 1.5.5 1.5.5 1.4.6 1.5.6 1.4.6 1.4.7 1.4.8 1.3.8 1.4.8 1.3.9 1.3.9 1.3.9 1.3 1 1.3 1.1 1.3 1 1.2 1.2 1.2 1.1 1.2 1.2 1.2 1.3 1.2 1.3 1.2 1.3 1.1 1.4 1.1 1.4 1.1 1.4 1.1 1.4 1 1.4 1 1.5.9 1.5.9 1.5.9 1.5.8 1.6.8 1.5.8 1.6.7 1.6.7 1.6.7 1.7.6 1.6.6 1.7.5 1.7.5 1.8.5 1.7.5 1.8.4 1.8.3 1.8.4 1.8.3 1.8.2 1.9.3 1.9.2 1.9.1 1.9.2h1.9l2 .1H2116l4.8-.2 4.6-.4 4.5-.4 4.4-.6 2.1-.4 2.1-.4 2.1-.4 2-.4 2-.5 1.9-.5 2-.6 1.9-.5 1.8-.7 1.8-.6 1.8-.7 1.8-.7 1.7-.7 1.7-.8 1.6-.8 1.6-.9 1.6-.8 1.5-1 1.5-.9 1.5-1 1.4-1 1.5-1 1.3-1.1 1.3-1.1 1.3-1.1 1.3-1.2 1.1-1.2 1.2-1.2 1.1-1.2 1.1-1.2 1-1.3 1-1.3.9-1.4.9-1.3.8-1.4.8-1.4.8-1.5.7-1.4.7-1.5.6-1.6.6-1.5.5-1.6.5-1.6.5-1.6.4-1.6.3-1.7.4-1.7.3-1.8.2-1.7.2-1.8.1-1.8.1-1.8.1-1.9v-4.6l-.1-1.3-.1-1.4-.1-1.2-.2-1.3-.2-1.3-.2-1.2-.3-1.2-.3-1.2-.3-1.1-.4-1.2-.4-1.1-.4-1.1-.4-1-.5-1.1-.5-1-.5-1-.6-1-.6-1-.6-.9-.7-.9-.7-.9-.7-.9-.7-.9-.8-.8-.8-.8-.9-.8-.9-.8-.9-.7-.9-.8-1-.7-1-.6-1-.7-1-.6-1.1-.7-1.2-.6-1.1-.5-1.2-.6-1.2-.5-1.2-.5-1.3-.5-1.3-.5-1.4-.4-1.3-.4-1.4-.4-1.4-.4-1.5-.4-1.5-.3-1.5-.3-3.1-.6-3.3-.5-3.4-.4-3.4-.3-3.7-.2-3.7-.1-3.9-.1h-57.3l52.3-130.6 1.5-3.6 1.3-3.6 1.3-3.6 1.2-3.6 1.1-3.5.9-3.5.9-3.4.8-3.4.7-3.4.6-3.4.5-3.3.5-3.2.3-3.3.2-3.2.2-3.2v-5.7l-.1-2.5-.2-2.5-.2-2.5-.2-2.5-.4-2.4-.4-2.4-.4-2.4-.5-2.3-.6-2.3-.6-2.3-.7-2.3-.8-2.2-.8-2.2-.8-2.1-1-2.2-.9-2.1-1.1-2.1-1.1-2-1.2-2.1-1.2-2-1.3-1.9-1.3-2-1.4-1.9-1.5-1.9-1.5-1.8-1.6-1.8-1.7-1.8-1.7-1.8-1.7-1.7-1.9-1.8-1.9-1.6-1.9-1.7-2-1.6-2-1.5-2-1.5-2.1-1.4-2.1-1.4-2.1-1.3-2.2-1.3-2.2-1.2-2.2-1.2-2.3-1.1-2.3-1.1-2.3-1-2.4-1-2.4-.9-2.4-.8-2.5-.8-2.5-.8-2.5-.7-2.6-.7-2.6-.6-2.6-.5-2.7-.5-2.7-.4-2.7-.4-2.8-.4-2.8-.3-2.9-.2-2.8-.2-2.9-.1-3-.1h-5.1l-2.2.1-2.2.1-2.2.2-2.3.3-2.3.3-2.4.4-2.4.4-2.4.4-2.4.6-2.5.6-2.6.6-5.2 1.4-5.3 1.7-5.4 1.9-5.6 2.1-5.8 2.3-5.9 2.6-6 2.8-6.2 3-6.3 3.2z"/><path d="M4276.5 621.7v-1.3l-.1-1.3-.1-1.4-.2-1.3-.2-1.2-.2-1.3-.2-1.2-.2-1.2-.3-1.2-.4-1.1-.3-1.2-.4-1-.4-1.2-.4-1-.5-1.1-.5-1-.6-1-.5-1-.6-1-.7-1-.6-.9-.7-.8-.7-1-.8-.8-.8-.8-.8-.8-.8-.8-.9-.8-.9-.7-1-.8-.9-.7-1-.6-1-.7-1-.6-1.2-.7-1.1-.6-1.1-.5-1.2-.6-1.2-.5-1.3-.5-1.2-.5-1.3-.5-1.4-.4-1.3-.4-1.4-.4-1.5-.4-1.4-.4-1.5-.3-1.5-.3-3.2-.6-3.2-.5-3.4-.4-3.5-.3-3.6-.2-3.7-.1h-152l-3.4-.1-3.4-.1-3.2-.2-3.2-.2-3-.4-3-.4-2.7-.4-2.7-.6-1.3-.3-1.3-.3-1.3-.4-1.2-.3-1.2-.4-1.2-.4-1.1-.4-1.1-.4-1.1-.5-1-.4-1.1-.5-1-.5-1-.5-1-.6-.8-.5-1-.6-.8-.6-.8-.6-.9-.6-.7-.7-.8-.7-.7-.6-.7-.7-.7-.8-.6-.7-.7-.8-.6-.7-.5-.8-.6-.8-.5-.9-.4-.8-.5-.9-.4-.9-.4-.9-.4-.9-.3-1-.4-.9-.2-1-.3-1-.2-1-.2-1-.2-1-.2-1.1-.1-1.1-.1-1.1v-1.1l-.1-1.2v-1.1h99.7l7.4-.1 7.2-.2 7-.4 6.7-.5 6.5-.6 6.2-.8 6-1 5.8-1 5.6-1.3 2.7-.6 2.6-.7 2.6-.8 2.5-.8 2.4-.8 2.4-.8 2.4-.9 2.2-1 2.3-.9 2.1-1 2.1-1 2-1 2-1.1 2-1.2 3.4-2 3.2-2.2 3.2-2.2 3-2.2 3-2.4 2.8-2.4 2.8-2.4 2.6-2.6 2.5-2.6 2.4-2.6 1.2-1.4 1.1-1.4 1.1-1.4 1.1-1.4 1-1.4 1-1.5 1-1.4 1-1.5 1-1.5 1-1.5.8-1.6 1-1.5.8-1.6.8-1.6.8-1.6.7-1.6.8-1.6.7-1.7 1.3-3.3 1.2-3.4 1.2-3.5 1-3.6.9-3.6.8-3.7.7-3.8.6-3.8.5-3.9.3-4 .3-4 .2-4.1v-7.6l-.1-3.5-.2-3.3-.3-3.4-.4-3.3-.4-3.2-.5-3.3-.6-3.1-.6-3.2-.8-3-.8-3-.9-3-1-3-1-3-1.1-2.8-1.2-2.9-1.3-2.8-1.3-2.7-1.5-2.7-1.5-2.7-1.6-2.6-1.6-2.6-1.8-2.5-1.8-2.5-1.9-2.5-2-2.4-2-2.3-2.1-2.4-2.2-2.2-2.3-2.3-2.4-2.2-2.4-2.1-2.5-2.1-2.6-2-2.6-2-2.6-2-2.7-1.8-2.8-1.7-2.8-1.7-2.8-1.7-3-1.5-2.9-1.5-3-1.5-3-1.3-3.1-1.3-3.2-1.3-3.2-1.1-3.2-1.1-3.3-1-3.4-1-3.4-1-3.4-.8-3.5-.7-3.6-.7-3.6-.7-3.6-.5-3.7-.5-3.8-.5-3.8-.3-3.9-.3-3.9-.3-4-.1-4-.1h-9.6l-5.5.2-5.5.3-5.5.5-5.4.6-5.3.8-5.3.9-5.2 1-5.2 1.1-5.2 1.3-5 1.5-5.1 1.5-5 1.7-5 1.9-5 2-4.8 2-4.8 2.3-4.7 2.4-4.8 2.5-4.6 2.7-4.7 2.8-4.5 2.9-4.5 3-4.5 3.3-4.5 3.3-4.3 3.5-4.4 3.6-4.2 3.8-4.3 3.8-4.2 4-4.1 4.2-4 4.3-4 4.4-4 4.4-3.7 4.5-3.6 4.6-3.5 4.6-3.4 4.6-3.2 4.7-3.2 4.8-3 4.8-2.8 4.8-2.7 4.9-2.6 5-2.5 5-2.4 5-2.2 5.1-2 5.2-2 5.2-1.9 5.3-1.7 5.3-1.6 5.4-1.5 5.4-1.3 5.5-1.2 5.5-1 5.5-1 5.7-.9 5.7-.7 5.7-.5 5.8-.5 5.8-.3 5.9-.2 6v10.5l.1 4.6.2 4.5.3 4.4.4 4.4.4 4.3.5 4.2.6 4.2.7 4 .8 4 .8 4 1 3.9 1 3.8 1 3.7 1.2 3.7 1.2 3.5 1.3 3.6 1.4 3.4 1.5 3.4 1.6 3.3 1.6 3.2 1.8 3.2 1.8 3.1 1.9 3 2 3 2 2.9 2.1 2.8 2.2 2.8 2.3 2.6 2.4 2.7 2.4 2.5 2.6 2.5 2.6 2.4 2.7 2.3 2.7 2.2 2.8 2.2 3 2 3 2 3 2 3 1.9 3.3 1.8 3.3 1.7 3.3 1.6 3.4 1.6 3.5 1.4 3.6 1.4 3.6 1.4 3.7 1.2 3.8 1.2 3.9 1.1 3.9 1 4 1 4 .9 4.2.8 4.2.7 4.3.6 4.4.6 4.4.5 4.6.4 4.6.3 4.6.3 4.8.2 4.8.1h150.9l4.7-.2 4.7-.3 4.5-.5 4.3-.6 2.2-.4 2-.3 2.1-.4 2-.5 2-.5 2-.5 2-.5 1.8-.6 1.9-.6 1.8-.7 1.8-.7 1.7-.7 1.7-.7 1.7-.8 1.6-.8 1.7-.8 1.5-1 1.6-.8 1.5-1 1.5-1 1.4-1 1.4-1 1.4-1 1.3-1.2 1.3-1 1.2-1.2 1.2-1.2 1.1-1.2 1.1-1.2 1-1.3 1.1-1.3 1-1.3 1-1.3.8-1.4.8-1.4.8-1.4.8-1.4.7-1.5.7-1.5.6-1.5.6-1.6.5-1.5.5-1.6.5-1.7.4-1.6.4-1.7.3-1.7.3-1.7.2-1.8.2-1.8.1-1.8.1-1.8.1-1.9V622Zm-241.6-174.1 1.7-3 1.8-2.9 1.8-2.8 1.8-2.6 1.8-2.6 2-2.5 1.9-2.4 2-2.3 2-2.2 2-2 2.1-2 2.1-2 1.1-.9 1.1-.8 1.1-1 1.1-.8 1.1-.8 1.2-.8 1-.7 1.2-.8 1.2-.7 1.1-.7 1.2-.7 1.2-.6 1.2-.6 1.2-.6 1.2-.6 1.2-.5 1.2-.6 1.3-.5 1.2-.4 1.3-.5 1.3-.4 1.2-.4 1.3-.4 1.3-.3 1.3-.4 1.3-.3 1.4-.3 1.3-.2 1.3-.2 1.4-.3 1.3-.1 1.4-.2 1.4-.1 1.4-.1 1.4-.1h1.4l2.8-.1h4l2 .2 1.8.2 1.8.2.8.2.9.1.8.2.8.1.8.2.8.2.8.2.8.3.7.2.7.3.8.2.7.3.6.3.7.3.7.3.6.3.6.4.6.3.6.4.6.4.6.4.5.4.5.4.5.4.5.5.5.4.5.5.4.5.5.5.4.5.4.5.4.6.4.5.3.6.4.5.3.6.3.6.3.6.3.7.3.6.2.7.3.6.2.7.2.7.2.7.2.7.1.7.2.8.1.7.1.8.1.8.1.8v.8l.2 1.2v2.4l-.1.4v.3l-.1.4v.3l-.1.3v.3l-.2.4v.3l-.1.3-.1.3-.1.3-.1.3-.1.4-.2.3v.3l-.2.3-.2.3-.1.2-.2.3-.1.3-.2.3-.2.3-.1.3-.2.2-.2.3-.2.3-.2.3-.2.2-.3.3-.2.2-.2.3-.3.2-.2.3-.3.2-.2.3-.3.2-.3.3-.2.2-.6.5-.6.4-.7.5-.6.4-.7.4-.7.4-.8.4-.7.4-.8.4-.9.3-.8.4-.9.3-.9.3-1 .3-.9.3-1 .3-1 .3-2 .5-2.3.5-2.3.5-2.4.3-2.6.4-2.6.3-2.7.2-2.9.2-6 .3-6.5.1h-54.8zM3684.3 646l210.9-519.9h60.8l5.3-.1 5.2-.2 5.1-.3 4.9-.6 4.7-.6 2.4-.4 2.2-.4 2.3-.5 2.2-.5 2.2-.5 2.1-.6 2.1-.6 2.1-.7 2-.7 2-.7 2-.7 1.9-.8 1.8-.9 1.9-.8 1.8-.9 1.8-1 1.7-1 1.7-1 1.6-1 1.7-1.1 1.5-1.2 1.6-1.1 1.5-1.2 1.4-1.2 1.4-1.3 1.4-1.3 1.3-1.3 1.3-1.4 1.2-1.3 1.2-1.5 1.1-1.4 1.1-1.5 1-1.5 1-1.5.9-1.6.9-1.6.8-1.6.8-1.6.7-1.7.7-1.7.7-1.8.6-1.7.5-1.8.5-1.9.5-1.8.4-1.9.3-1.9.3-2 .3-2 .2-2 .2-2 .1-2.1.1-2.1v-3.6l-.1-1.4v-1.4l-.2-1.4-.1-1.4-.2-1.3-.2-1.3-.3-1.3-.3-1.3-.3-1.3-.3-1.2-.4-1.2-.5-1.2-.4-1.1-.5-1.1-.5-1.2-.6-1-.6-1.1-.6-1.1-.7-1-.7-1-.7-.9-.7-1-.8-.9-.9-.9-.8-.9-.9-.9-1-.8-.9-.8-1-.8-1-.8-1.1-.7-1.1-.7-1.1-.7-1.2-.7-1.2-.6-1.3-.7-1.2-.6-1.3-.6-1.4-.5-1.3-.6-1.4-.5-1.5-.5-1.4-.4-1.5-.5-1.6-.4-1.6-.4-1.6-.4-3.3-.7-3.4-.6-3.6-.5-3.7-.4-3.9-.3-4-.2-4.1-.2h-106.5l-20.4.5h-3l-3 .2-2.9.2-2.9.3-1.4.2-1.4.2-1.3.3-1.4.2-1.3.3-1.4.3-1.3.4-1.3.3-1.3.4-1.3.4-1.2.4-1.3.5-1.2.4-1.2.5-1.2.5-1.2.6-1.2.5-1.1.6-1.2.6-1.1.7-1.1.6-1.1.7-1.1.7-1.1.7-1.1.7-1 .8-1 .8-1.1.8-1 .8-1 .9-.9.9-1 .9-.9.9-1 1-.9.9-.9 1-.9 1-.8 1.1-.9 1.1-.8 1-.9 1.1-.8 1.2-.8 1.1-.8 1.2-1.5 2.4-1.5 2.6-1.4 2.6-1.4 2.7-1.3 2.8-1.2 2.8-143.1 352-25.9-332-.4-4.6-.5-4.4-.6-4.3-.7-4.1-.9-4-.5-2-.4-1.9-.6-1.8-.5-1.9-.6-1.8-.6-1.7-.6-1.7-.7-1.7-.7-1.7-.7-1.6-.7-1.6-.8-1.5-.8-1.5-.8-1.5-.8-1.4-.9-1.4-.9-1.4-1-1.3-.9-1.3-1-1.2-1-1.2-1.1-1.2-1.1-1.2-1.1-1.1-1.1-1-1.1-1.1-1.2-1-1.2-.9-1.3-1-1.2-.9-1.3-.8-1.4-.8-1.3-.8-1.4-.7-1.4-.7-1.4-.7-1.5-.7-1.5-.6-1.5-.5-1.5-.5-1.6-.5-1.6-.5-1.6-.4-1.7-.4-1.7-.3-1.7-.3-1.7-.3-1.8-.2-1.8-.2-1.8-.2-1.9-.1-1.8-.1-1.9-.1h-3.7l-1.6.1h-1.7l-1.6.2-1.6.1-1.6.2-1.6.2-1.6.2-1.6.3-1.5.3-1.6.3-1.5.4-1.5.4-1.5.4-1.5.5-1.5.5-1.4.5-1.5.6-1.4.6-1.5.6-1.4.6-1.4.7-1.3.7-1.4.8-1.4.8-1.3.8-1.3.8-1.3.9-1.3.9-1.3 1-1.3.9-1.3 1-1.2 1.1-1.2 1-1.3 1.1-1.2 1.2-1.2 1.1-1.1 1.2-1.2 1.3-1.2 1.2-1.1 1.3-1.1 1.3-2.2 2.8-2.2 2.8-2.1 3-2.1 3.2-2 3.2-1.9 3.4-1.9 3.5-1.8 3.6-1.8 3.8-1.8 3.9-1.6 4-197.4 486-6.6 16-6.5 15.3-6.5 14.8-6.4 14.1-6.3 13.5-6.3 12.9-6.2 12.3-3.1 5.9-3 5.8-3.1 5.6-3 5.4-3.1 5.3-3 5.2-3 5-2.9 4.8-3 4.7-3 4.6-2.9 4.4-2.9 4.2-2.9 4.1-2.9 3.9-2.9 3.8-2.8 3.6-2.9 3.5-2.8 3.3-2.8 3.2-2.9 3.1-2.9 2.9-2.9 2.9-2.9 2.8-3 2.7-3 2.6-3 2.5-3.1 2.3-3.1 2.3-3.1 2.2-3.1 2.1-3.2 1.9-3.2 1.9-3.2 1.8-3.3 1.7-3.2 1.5-3.3 1.5-3.4 1.4-3.3 1.2-3.4 1.2-3.4 1.1-3.5.9-3.5.9-3.5.7-3.5.7-3.5.6-3.6.4-3.6.4-3.7.2-3.6.2h-6.9l-3.2-.1-3.1-.2-3-.2-3-.3-3-.3-2.9-.4-2.9-.5-2.9-.6-2.7-.6-2.8-.6-2.7-.8-2.7-.8-2.6-.8-2.6-1-2.5-.9-2.5-1.1-2.5-1.1-2.4-1.2-2.3-1.2-2.4-1.3-2.2-1.4-2.3-1.4-2.2-1.5-2.1-1.6-2.1-1.6-2.1-1.7-2-1.8-2-1.8-1.9-1.9-1.9-1.9-1.8-2-1.8-2.1-1.8-2.1-1.6-2.2-1.7-2.2-1.5-2.2-1.5-2.3-1.5-2.4-1.4-2.4-1.3-2.4-1.3-2.5-1.2-2.5-1.2-2.6-1.1-2.6-1.1-2.7-1-2.8-.9-2.7-.9-2.8-.8-2.9-.8-2.9-.7-3-.6-3-.6-3.1-.6-3.1-.5-3.1-.4-3.2-.4-3.2-.3-3.3-.2-3.4-.2-3.4-.2-3.4-.1-3.5v-6.8l.1-3.4.2-3.3.2-3.3.2-3.3.4-3.3.3-3.2.5-3.3.5-3.3.5-3.2.6-3.2.7-3.3.7-3.2.8-3.2.8-3.2.9-3.2 1-3.2 1-3.2 1.1-3.2 1.1-3.1 1.2-3.2 1.2-3.1 1.3-3.2 1.4-3.1 2.9-6.2 3.1-6.2 3.4-6.2 3.6-6.1 3.8-6 3.9-5.9 4.1-5.8 4.3-5.6 4.4-5.4 4.6-5.3 4.8-5.2 4.9-5 5.1-4.9 5.2-4.8 5.4-4.6 5.6-4.4 5.7-4.3 5.9-4.2 6.1-4 6.2-3.9 3.8-2.2 3.9-2.2 4-2.1 4.1-2.1 4.1-2.1 4.2-2 4.3-1.9 4.4-1.9 4.4-1.8 4.5-1.8 4.6-1.7 4.7-1.7 4.7-1.6 4.8-1.5 4.9-1.6 5-1.4 5-1.4 5.1-1.4 5.2-1.3 5.3-1.2 5.3-1.2 5.4-1.2 5.5-1.1 5.6-1 5.6-1 5.7-.9 5.8-.9 5.9-.8 5.9-.8 6-.7 6.1-.7 6.2-.6 5.5-.6 5.3-.6 5.1-.7 4.9-.8 4.7-.9 4.6-1 4.3-1 4.1-1.1 3.9-1.3 1.9-.6 1.8-.7 1.8-.7 1.8-.7 1.6-.7 1.7-.8 1.6-.7 1.5-.8 1.5-.9 1.4-.8 1.4-.9 1.4-.8 1.3-.9 1.2-1 1.2-.9 1.1-1 1.2-1 1.1-1 1-1.1 1-1.1 1-1.1.9-1.2.9-1.2.8-1.2.9-1.2.7-1.3.8-1.3.7-1.3.6-1.4.7-1.4.6-1.4.5-1.4.5-1.5.5-1.5.4-1.5.4-1.6.4-1.6.3-1.6.3-1.7.3-1.6.2-1.7.1-1.8.2-1.7.1-1.8V370l-.1-1.8-.1-1.7-.1-1.8-.3-1.7-.2-1.7-.3-1.7-.4-1.7-.4-1.6-.5-1.6-.5-1.6-.5-1.6-.6-1.5-.6-1.5-.7-1.5-.8-1.5-.8-1.4-.8-1.4-.9-1.4-.9-1.4-1-1.4-1-1.3-1.1-1.3-1.1-1.3-1.2-1.2-1.2-1.3-1.3-1.2-1.3-1.1-1.3-1.2-1.4-1.1-1.5-1.1-1.5-1.1-1.5-1.1-1.6-1-1.6-1-1.7-1-1.6-.9-1.8-.9-1.7-.8-1.8-.9-1.8-.7-1.9-.8-1.8-.7-2-.7-1.9-.7-2-.6-2-.6-2.1-.5-2.1-.6-2.1-.4-2.1-.5-2.2-.4-4.5-.8-4.6-.6-4.8-.4-4.9-.4-5-.2h-10.1l-5 .1-5 .2-5 .2-4.9.3-5 .4-5 .4-5.1.6-5 .5-5 .7-5 .7-5.1.8-5 .8-5.1.9-5 1-5.1 1.1-5.1 1.1-5 1.2-5.1 1.3-5.1 1.3-5.1 1.4-5.1 1.5-5.2 1.5-5.1 1.6-5.1 1.7-5.2 1.7-5.1 1.8-5.2 1.9-5.1 1.9-5.2 2-5.2 2.1-5.1 2.2-5.2 2.2-5.1 2.2-5.1 2.3-5 2.3-4.9 2.4-4.9 2.4-4.8 2.5-4.8 2.4-4.7 2.6-4.7 2.6-4.6 2.6-4.5 2.6-4.5 2.8-4.5 2.7-4.4 2.8-4.3 2.8-4.3 2.9-4.2 2.9-4.2 3-4.1 3-4.1 3-4 3.1-3.9 3.1-3.9 3.2-3.8 3.2-3.8 3.2-3.8 3.3-3.6 3.3-3.6 3.4-3.6 3.4-3.5 3.5-3.5 3.5-6.3 6.6-6.1 6.7-5.9 6.7-5.7 6.8-5.6 6.9-5.3 7-5.1 7-4.9 7.1-4.7 7.1-4.5 7.3-4.3 7.3-4.2 7.3-3.9 7.5-3.7 7.5-3.5 7.6-3.3 7.6-3.1 7.7-2.9 7.8-2.7 7.9-2.5 7.9-2.3 8-2.1 8-1.9 8.2-1.7 8.2-1.6 8.2-1.3 8.4-1.1 8.4-.9 8.4-.7 8.6-.5 8.6-.3 8.7-.1 8.7.1 6.6.2 6.4.3 6.4.5 6.3.5 6.2.7 6.2.8 6.1 1 6 1.1 5.9 1.2 5.8 1.3 5.8 1.5 5.7 1.6 5.6 1.7 5.5 1.8 5.5 2 5.4 2.1 5.3 2.2 5.2 2.4 5.2 2.4 5 2.6 5 2.8 4.9 2.8 4.9 3 4.8 3.1 4.6 3.3 4.7 3.3 4.5 3.5 4.5 3.7 4.3 3.7 4.3 3.9 4.3 4 4.1 4.1 4.1 4.2 3.9 4.2 3.8 4.4 3.6 4.4 3.6 4.5 3.4 4.5 3.3 4.7 3.1 4.7 3 4.8 2.9 4.9 2.8 4.9 2.6 5.1 2.5 5.1 2.4 5.2 2.2 5.2 2.2 5.4 2 5.4 1.8 5.5 1.8 5.6 1.6 5.6 1.4 5.8 1.4 5.8 1.2 5.9 1.1 5.9 1 6.1.8 6.1.7 6.2.6 6.2.4 6.4.4 6.4.2h12.6l6.1-.2 6-.3 6-.4 6-.5 5.9-.6 5.8-.8 5.8-.9 5.8-.9 5.7-1.1 5.7-1.2 5.6-1.4 5.6-1.4 5.6-1.5 5.5-1.7 5.4-1.8 5.4-1.9 5.4-2 5.3-2.1 5.3-2.3 5.2-2.3 5.2-2.5 5.2-2.6 5.1-2.7 5.1-2.8 5-2.9 5-3.1 4.9-3.1 4.9-3.3 4.8-3.4 4.8-3.5 4.8-3.6 6.5-5.2 6.3-5.2 6.1-5.4 6-5.6 5.9-5.6 5.7-5.7 5.5-5.9 5.4-6 5.2-6 5.1-6.2 5-6.4 4.7-6.4 4.6-6.5 4.5-6.7 4.3-6.8 4.2-6.9 4.2-7.3 4.4-8.1 4.7-8.9 4.9-9.6 5.1-10.5 5.4-11.2 5.6-11.9 5.9-12.8 6.1-13.5 6.3-14.3 6.5-15.1 6.8-15.8 7.1-16.6 7.2-17.4 7.5-18.1 7.7-19 104.2-257.2 23 300.6.6 7 .7 6.7.8 6.4.8 6.1 1 5.9 1.1 5.5 1.2 5.3 1.2 5.1 1.4 4.7.7 2.3.7 2.2.8 2.1.8 2.1.8 2 .8 1.9.9 1.9.8 1.8.9 1.7 1 1.6.9 1.6 1 1.5 1 1.5.5.7.5.7.5.6.5.7.6.6.5.7.6.6.6.6.6.6.6.6.6.6.6.5.6.6.7.5.6.6.7.5.6.5.7.5 1.4 1 1.5 1 1.5.9 1.5.8 1.6.8 1.6.8 1.6.7 1.8.7 1.7.7 1.8.6 1.8.6 1.9.5 1.9.5 2 .4 2 .4 2.1.4 2.1.3 2.1.2 2.2.3 2.3.2 2.2.1 2.4.1 2.3.1h2.4l3.1-.1 2.9-.1 2.9-.2 2.9-.4 1.4-.2 1.4-.2 1.4-.2 1.4-.3 1.3-.3 1.4-.3 1.3-.4 1.3-.3 1.3-.4 1.3-.4 1.3-.5 1.3-.4 1.2-.5 1.3-.5 1.2-.5 1.2-.6 1.2-.6 1.2-.6 1.2-.6 1.1-.7 1.2-.6 1.1-.7 1.1-.7 1.1-.8 1.1-.8 1.1-.8 1.1-.8 1-.8 1-.9 1.1-.9 1-.9 1-.9 1-.9.9-1 1-1 .9-1.1 1-1 .9-1.1.9-1.1.9-1.1 1.7-2.3 1.7-2.4 1.6-2.5 1.6-2.6 1.6-2.7 1.4-2.8 1.4-2.9zM1601.6 687.4l4.8-.1 4.7-.2 4.6-.3 4.4-.5 4.3-.6 2.1-.3 2-.4 2.1-.4 2-.5 1.9-.5 2-.5 1.9-.5 1.9-.6 1.8-.6 1.8-.7 1.8-.7 1.7-.7 1.8-.8 1.6-.8 1.7-.8 1.6-.8 1.6-.9 1.6-1 1.5-.9 1.5-1 1.5-1 1.4-1.1 1.4-1.1 1.3-1.1 1.4-1.1 1.2-1.2 1.2-1.2 1.2-1.2 1.1-1.2 1.1-1.3 1.1-1.3 1-1.3.9-1.3.9-1.4.9-1.4.8-1.4.8-1.4.7-1.5.7-1.4.6-1.6.6-1.5.6-1.5.5-1.6.5-1.6.4-1.7.4-1.6.3-1.7.3-1.7.2-1.8.2-1.7.2-1.8.1-1.8.1-1.8v-3.3l-.1-1.3-.1-1.3-.1-1.4-.1-1.2-.2-1.3-.2-1.3-.2-1.2-.3-1.2-.3-1.2-.3-1.1-.3-1.2-.4-1.1-.4-1.1-.5-1-.5-1.1-.5-1-.5-1-.6-1-.6-1-.6-.9-.7-.9-.7-.9-.7-.9-.8-.9-.8-.8-.8-.8-.8-.8-.9-.8-.9-.7-1-.8-.9-.7-1-.6-1.1-.7-1-.6-1.1-.7-1.2-.6-1.1-.5-1.2-.6-1.2-.5-1.3-.5-1.3-.5-1.3-.5-1.3-.4-1.4-.4-1.4-.4-1.5-.4-1.4-.4-1.5-.3-1.6-.3-3.1-.6-3.3-.5-3.4-.4-3.5-.3-3.7-.2-3.7-.1-3.9-.1H1522l-6.1-.2-5.9-.3-5.7-.4-5.4-.5-5.2-.6-4.9-.8-4.7-.8-2.3-.5-2.2-.5-2.2-.5-2.1-.6-2-.6-2-.6-1.9-.6-1.8-.7-1.8-.7-1.8-.8-1.7-.7-1.6-.8-1.5-.8-1.5-.9-1.5-.9-1.4-.9-.6-.4-.7-.5-.6-.5-.7-.5-.6-.5-.6-.5-.6-.5-.6-.6-.6-.5-.6-.6-.6-.5-.5-.6-.6-.6-.5-.6-.5-.6-.6-.6-.5-.6-.4-.7-.5-.6-.5-.7-.5-.6-.4-.7-.4-.7-.5-.7-.8-1.4-.8-1.5-.7-1.5-.7-1.5-.7-1.6-.6-1.6-.6-1.7-.5-1.7-.5-1.8-.4-1.8-.4-1.8-.4-1.9-.3-1.9-.3-1.9-.2-2-.2-2-.2-2.1-.1-2.1v-7l.1-2.6.1-2.6.2-2.6.2-2.6.3-2.6.3-2.5.4-2.5.5-2.6.5-2.5.5-2.4.6-2.5.7-2.5.7-2.4.7-2.4.8-2.4.9-2.4.9-2.4 1-2.4 1-2.3 1-2.3 1.2-2.3 1.1-2.3 1.3-2.3 1.2-2.3 1.4-2.2 1.3-2.3 1.5-2.2 1.5-2.2 1.5-2.2 1.6-2.2 1.6-2.1 1.7-2.1 1.7-2.1 1.7-2 1.7-1.9 1.7-1.8 1.7-1.8 1.8-1.7 1.7-1.7 1.8-1.5 1.7-1.6 1.8-1.4 1.8-1.4 1.8-1.3 1.9-1.2 1.8-1.2 1.8-1.1 1.9-1.1 1.8-.9 1.9-.9 1.9-.9 1.9-.8 1.9-.7 1.9-.6 1.9-.6 2-.5 1.9-.4 2-.4 2-.3 2-.2 2-.2 2-.1h4.1l2.1.1 1 .1.9.1 1 .1 1 .1.9.2.9.1.9.2.9.2.8.2.9.3.8.2.8.3.8.2.8.3.8.4.7.3.8.3.7.4.7.4.7.4.6.4.7.4.6.5.6.5.6.4.6.5.5.6.6.5.5.6.5.5.5.6.5.6.5.6.4.7.4.6.4.7.4.7.4.7.4.7.3.8.4.7.3.8.3.8.2.8.3.8.2.9.3.8.2.9.2.9.1.9.2 1 .1.9.2 1 .1.9.1 1 .1 1.1.1 2v4.7l-.1 2.6-.2 2.6-.2 2.7v13.6l.1 1.3.1 1.3.1 1.2.1 1.3.1 1.2.2 1.2.2 1.1.2 1.2.2 1.1.3 1.1.3 1.1.3 1 .3 1.1.4 1 .3 1 .4.9.4 1 .5.9.4.9.5.9.5.9.5.8.6.9.6.8.6.8.6.7.6.8.7.7.6.7.8.7.7.6.7.7.8.6.8.6.8.6.9.5.8.5.9.6.9.4.9.5 1 .5 1 .4 1 .4 1 .4 1 .4 1.1.3 1.1.3 1.1.3 1.1.3 1.2.3 1.1.2 1.2.2 1.3.2 1.2.2 1.3.2 1.3.1 2.6.2 2.7.1 2.8.1h1.8l1.8-.1 1.8-.1 1.7-.2 1.7-.2 1.7-.3 1.7-.3 1.7-.3 1.6-.4 1.6-.4 1.6-.5 1.6-.5 1.5-.6 1.5-.7 1.6-.6 1.4-.7 1.5-.8 1.5-.8 1.4-.9 1.4-.9 1.4-.9 1.4-1 1.3-1.1 1.3-1 1.3-1.2 1.3-1.2 1.3-1.2 1.2-1.2 1.3-1.4 1.2-1.3 1.1-1.4 1.2-1.5 1.1-1.5 1.1-1.5 1.1-1.6 1-1.5 1-1.6 1-1.6.9-1.7.9-1.7.8-1.7.8-1.7.8-1.7.7-1.8.7-1.8.7-1.8.6-1.9.6-1.9.6-1.9.5-1.9.5-2 .5-2 .4-2 .3-2 .4-2.1.3-2 .3-2.2.2-2.1.4-4.3.2-4.5v-7.8l-.1-3.3-.2-3.2-.2-3.2-.4-3.1-.3-3.1-.5-3-.6-3-.6-3-.7-2.9-.7-2.9-.8-2.9-.9-2.8-1-2.8-1.1-2.7-1.1-2.7-1.2-2.7-1.2-2.6-1.4-2.6-1.4-2.5-1.4-2.5-1.6-2.5-1.6-2.4-1.7-2.4-1.8-2.4-1.8-2.3-1.9-2.2-2-2.3-2-2.2-2.2-2.1-2.2-2.1-2.2-2.1-2.4-2-2.3-2-2.4-1.9-2.5-1.8-2.5-1.8-2.5-1.7-2.6-1.6-2.7-1.6-2.6-1.5-2.7-1.5-2.8-1.3-2.8-1.4-2.8-1.2-2.9-1.2-2.9-1.1-3-1.1-3-1-3.1-.9-3.1-.9-3.1-.8-3.2-.7-3.2-.7-3.3-.6-3.3-.5-3.4-.5-3.4-.4-3.4-.4-3.5-.3-3.5-.2-3.6-.2-3.6-.1h-3.6l-5.4.1-5.4.2-5.3.3-5.3.5-5.2.6-5.2.7-5.1.9-5.1 1-5.1 1.1-5 1.3-4.9 1.4-4.9 1.6-4.9 1.6-4.8 1.9-4.8 1.9-4.8 2.1-4.7 2.2-4.6 2.4-4.6 2.4-4.6 2.7-4.5 2.7-4.5 2.9-4.4 3-4.4 3.2-4.4 3.3-4.3 3.4-4.2 3.6-4.3 3.7-4.1 3.8-4.2 4-4 4.1-4.1 4.2-3.9 4.3-3.9 4.4-3.7 4.4-3.6 4.5-3.4 4.5-3.3 4.5-3.2 4.7-3.1 4.6-3 4.7-2.8 4.8-2.7 4.8-2.6 4.8-2.4 4.9-2.3 5-2.2 4.9-2.1 5.1-2 5.1-1.8 5.1-1.7 5.2-1.6 5.2-1.4 5.3-1.3 5.3-1.2 5.4-1.1 5.4-.9 5.5-.8 5.5-.7 5.6-.6 5.6-.4 5.6-.3 5.7-.2 5.8-.1 5.8v4.3l.2 4.3.1 4.3.3 4.1.4 4.2.4 4.1.5 4 .6 4 .6 3.9.7 3.9.8 3.8.9 3.8 1 3.7 1 3.7 1.1 3.6 1.2 3.6 1.2 3.5 1.4 3.5 1.4 3.4 1.5 3.4 1.6 3.3 1.6 3.3 1.7 3.2 1.8 3.2 1.9 3.1 1.9 3.1 2.1 3 2.1 3 2.1 2.9 2.3 2.9 2.3 2.8 2.4 2.8 2.5 2.6 2.5 2.7 2.6 2.5 2.6 2.4 2.6 2.4 2.7 2.3 2.8 2.1 2.8 2.1 2.8 2.1 2.9 1.9 2.9 1.8 2.9 1.8 3.1 1.7 3 1.5 3.1 1.5 3.2 1.5 3.2 1.3 3.2 1.2 3.3 1.2 3.3 1 3.4 1 3.4.9 3.5.8 3.5.8 3.5.6 3.6.6 3.7.4 3.7.4 3.7.3 3.8.2 3.8.2h148.4M993 147l-.2-4-.2-4-.3-3.8-.4-3.9-.5-3.8-.6-3.8-.6-3.7-.8-3.7-.8-3.6-1-3.7-1-3.5-1.1-3.5-1.2-3.5L983 95l-1.3-3.3-1.5-3.4-1.6-3.3-1.6-3.3-1.7-3.2-1.8-3.2-2-3.1-2-3.1-2-3-2.2-3-2.2-3-2.4-3-2.4-2.9-2.6-2.8-2.6-2.8-2.7-2.8-2.8-2.7-2.8-2.6-3-2.6-2.9-2.5-3-2.4-3-2.3-3-2.2-3.2-2.2-3.2-2-3.2-2-3.3-2-3.3-1.7-3.3-1.8-3.4-1.6-3.5-1.6-3.4-1.4-3.6-1.4-3.5-1.3-3.7-1.3-3.6-1.1-3.7-1-3.8-1-3.8-.9-3.8-.8-4-.7-3.8-.7-4-.5-4-.5-4.1-.3-4.1-.3-4.2-.2-4.2-.2h-8.4l-4.1.2-4.1.2-4.1.2-4 .4-4 .4-4 .5-4 .6-3.9.7-3.9.7-3.8.9-3.8.9-3.8 1-3.7 1-3.7 1.2-3.7 1.2-3.6 1.3-3.6 1.4-3.6 1.4-3.5 1.6-3.5 1.6-3.5 1.7-3.4 1.8-3.4 1.8-3.4 2-3.3 2-3.3 2-3.3 2.2-3.2 2.3-3.2 2.3-3.2 2.4-3.1 2.5-3.1 2.5-3.1 2.7-3 2.7-3 2.8-3 2.9-3 3-2.8 3-2.9 3-2.8 3.3-2.8 3.3-2.8 3.3-2.7 3.4-2.7 3.5-2.7 3.6-2.6 3.7-2.6 3.8-2.5 3.8-2.6 3.9-2.5 4-2.4 4-2.4 4.2-2.4 4.2-2.4 4.3-2.3 4.4-2.3 4.4-2.3 4.5-2.2 4.7-2.2 4.6-2.2 4.8-2 4.9-2.2 4.9-2 5-23 56.3h-85.2l-5.3.1-5.2.2-5.1.4-4.9.5-4.8.7-2.3.3-2.3.5-2.2.4-2.2.5-2.2.5-2.1.6-2.1.6-2.1.6-2 .7-2 .7-2 .8-1.9.8-1.9.8-1.8.8-1.8 1-1.8.9-1.7 1-1.7 1-1.7 1-1.6 1-1.6 1.2-1.5 1.1-1.5 1.2-1.5 1.2-1.4 1.2-1.3 1.3-1.3 1.3-1.3 1.3-1.2 1.4-1.2 1.3-1.1 1.4-1 1.4-1.1 1.5-1 1.5-1 1.5-.8 1.5-.8 1.6-.8 1.5-.8 1.6-.7 1.7-.6 1.7-.6 1.6-.6 1.8-.5 1.7-.4 1.8-.4 1.8-.4 1.8-.3 1.8-.2 2-.3 1.8-.1 2-.1 2-.1 1.9v6.5l.2 1.5.1 1.4.2 1.4.1 1.4.2 1.4.3 1.3.2 1.3.3 1.3.3 1.3.4 1.2.3 1.2.4 1.2.5 1.2.4 1.2.5 1 .5 1.2.5 1 .6 1 .6 1.1.6 1 .6 1 .7 1 .7.9.7.9.8.9.7.8.8.8.9.9.8.7 1 .8.8.7 1 .7 1 .7 1 .7 1 .6 1 .6 1 .6 1.2.6 1.1.5 1.2.6 1.2.4 1.2.5 1.2.5 1.3.4 1.3.4 1.3.4 1.3.3 1.4.3 1.4.3 1.4.3 1.5.3 1.5.2 1.5.2 3.1.3 3.2.3 3.4.1h76.7l-149 367.5H226.7l-5.7.2-5.5.2-5.5.3-5.4.3-5.4.4-5.2.5-5.2.5-5.1.6-5 .6-5 .8-4.9.7-4.8.9-4.7.9-4.6.9-4.6 1-4.5 1-4.4 1.2-4.4 1.2-4.2 1.3-4.2 1.3-4.2 1.4-4 1.4-4 1.5-3.9 1.6-3.8 1.6-3.7 1.7-3.7 1.7-3.6 1.9-3.5 1.8-3.4 2-5.2 3-5 3.4-4.9 3.4-4.7 3.6-4.7 3.7-4.4 3.9-4.4 4-4.2 4.2-4 4.4-4 4.5-3.8 4.6-3.7 4.8-3.5 5-3.4 5-3.3 5.3-3 5.4-3 5.6-2.8 5.5-2.6 5.6-2.4 5.7-2.2 5.7-2 5.8-1.8 5.8-1.6 5.8-1.4 6-1.3 5.9-1 6-.9 6-.7 6.2-.4 6.2L0 892l-.1 6.3v5l.2 5 .3 4.8.4 4.9.5 4.8.6 4.7.7 4.7.8 4.6 1 4.6 1 4.6 1.2 4.4 1.3 4.4 1.4 4.4 1.5 4.3 1.6 4.2 1.7 4.2 1.9 4.1 2 4.1 2 4 2.2 4 2.2 4 2.4 3.8 2.6 3.8 2.6 3.7 2.7 3.7 2.8 3.6 3 3.6 3 3.5 3.2 3.5 3.3 3.4 3.4 3.4 3.5 3.3 3.6 3.2 3.7 3 3.7 3.1 3.8 3 3.8 2.7 4 2.7 4 2.7 4 2.5 4 2.4 4.1 2.3 4.2 2.2 4.3 2 4.3 2 4.4 2 4.4 1.7 4.5 1.7 4.6 1.6 4.6 1.5 4.7 1.4 4.7 1.2 4.8 1.2 4.9 1 4.9 1 5 1 5 .7 5 .7 5.2.5 5.2.5 5.3.3 5.3.3 5.4.1h12.2l6.7-.2 6.6-.4 6.6-.5 6.6-.7 6.5-.8 6.4-1 6.4-1 6.3-1.3 6.3-1.5 6.3-1.5 6.2-1.7 6.1-1.9 6.1-2 6.1-2.2 6-2.3 6-2.4 5.9-2.6 5.8-2.8 5.8-2.9 5.8-3 5.7-3.2 5.7-3.4 5.6-3.5 5.6-3.6 5.5-3.8 5.5-4 5.4-4.1 5.4-4.2 5.3-4.4 5.3-4.6 5.2-4.7 4-3.6 3.8-3.7 3.7-3.8 3.7-3.7 3.6-3.7 3.4-3.8 3.4-3.8 3.3-3.8 3.2-3.8 3-3.8 3.1-3.8 3-4 2.7-3.8 2.8-3.9 2.6-3.9 2.5-3.9 2.6-4.1 2.7-4.5 2.7-4.8 3-5.2 3-5.5 3-6 3.3-6.2 3.4-6.7 7.1-14.4 7.6-15.8 8-17.2 8.5-18.8 6-14h376.2l5.2-.2 5-.4 5-.5 4.7-.7 2.3-.3 2.3-.5 2.2-.4 2.3-.5 2.1-.5 2.2-.6 2-.6 2.1-.6 2-.7 2-.7 2-.8 2-.8 1.8-.8 1.8-.8 1.8-1 1.8-.9 1.7-1 1.7-1 1.7-1 1.6-1 1.6-1.2 1.5-1.1 1.5-1.2 1.5-1.2 1.4-1.2 1.4-1.3 1.3-1.3 1.2-1.3 1.2-1.4 1.2-1.4 1.1-1.4 1.1-1.5 1-1.4 1-1.6 1-1.5.8-1.6.9-1.6.7-1.6.8-1.7.7-1.6.6-1.8.6-1.7.6-1.8.5-1.8.4-1.8.4-2 .4-1.8.3-2 .3-2 .2-1.9.1-2 .2-2v-7.1l-.1-1.5-.1-1.4-.2-1.4-.2-1.4-.2-1.3-.2-1.3-.3-1.3-.3-1.3-.4-1.2-.4-1.3-.4-1.2-.5-1.1-.5-1.2-.5-1.1-.5-1.1-.6-1.1-.7-1.1-.6-1-.7-1-.7-1-.8-1-.8-1-.8-.9-.9-.9-.9-.9-1-.8-.9-.8-1-.9-1-.7-1-.8-1.2-.7-1.1-.7-1.2-.7-1.2-.7-1.2-.6-1.3-.7-1.3-.6-1.3-.5-1.4-.6-1.4-.5-1.4-.5-1.5-.5-1.5-.5-1.6-.4-1.5-.4-1.6-.4-1.7-.3-1.6-.4-3.5-.6-3.6-.5-3.7-.4-3.9-.4-4-.2-4-.1H554.2L704 336.8h58.8l6.5-.2 6.4-.2 6.3-.4 6.2-.4 6.2-.6 6-.6 6-.8 6-.8 5.8-1 5.8-1 5.6-1.2 5.7-1.3 5.5-1.3 5.5-1.5 5.3-1.6 5.3-1.6 5.3-1.8 5.1-1.8 5-2 5-2 5-2.2 4.8-2.3 4.8-2.4 4.7-2.4 4.6-2.6 4.6-2.7 4.4-2.8 4.4-2.8 4.3-3 4.2-3 4.2-3.2 4-3.3 4-3.3 3.7-3.4 3.7-3.4 3.5-3.5 3.4-3.6 3.3-3.6 3.2-3.7 3-3.7 2.9-3.8 2.7-3.9 2.7-4 2.5-4 2.4-4 2.2-4 2.1-4.2 2-4.3 1.9-4.3 1.7-4.3 1.6-4.4 1.5-4.5 1.3-4.5 1.3-4.6 1-4.7 1-4.7.9-4.8.7-4.8.5-4.9.5-5 .3-5 .2-5V147ZM362 840.5l-3.6 7.5-3.6 7.4-3.7 7.1-4 7-3.9 6.7-4 6.5-4.3 6.3-4.3 6.1-4.4 6-4.5 5.6-4.7 5.5-4.7 5.3-4.9 5.1-5 5-5 4.6-2.6 2.2-2.6 2.2-2.6 2.1-2.6 2-2.6 2-2.6 2-2.6 1.8-2.6 1.7-2.6 1.7-2.7 1.6-2.6 1.5-2.6 1.5-2.7 1.4-2.7 1.3-2.6 1.3-2.7 1.2-2.7 1-2.6 1.1-2.7 1-2.7.9-2.7.8-2.7.7-2.7.7-2.8.6-2.7.6-2.7.4-2.8.4-2.7.4-2.7.2-2.8.2-2.8.1H208l-2-.1-2-.2-1.9-.1-1.9-.2-1.9-.3-1.8-.3-1.9-.3-1.8-.3-1.8-.4-1.8-.5-1.7-.4-1.8-.5-1.7-.6-1.7-.6-1.7-.6-1.6-.6-1.6-.7-1.6-.8-1.6-.7-1.6-.8-1.5-.9-1.6-.9-1.5-.9-1.4-1-1.5-1-1.4-1-1.4-1-1.4-1.1-1.4-1.2-1.4-1.2-1.3-1.2-1.3-1.2-1.2-1.2-1.2-1.3-1.1-1.3-1.1-1.3-1.1-1.3-1-1.3-1-1.4-1-1.4-.9-1.3-.8-1.5-.8-1.4-.8-1.4-.7-1.5-.7-1.5-.7-1.5-.6-1.5-.6-1.5-.5-1.5-.5-1.6-.4-1.6-.4-1.6-.4-1.6-.3-1.7-.2-1.6-.3-1.7-.2-1.7-.1-1.7-.1-1.7v-1.8l-.1-1.8v-4.2l.2-2 .2-2.1.2-2 .3-2 .3-2 .3-1.9.4-1.9.5-1.8.5-1.8.5-1.8.6-1.7.7-1.8.7-1.6.7-1.7.8-1.6.8-1.5.9-1.6 1-1.5 1-1.5 1-1.4 1-1.4 1.1-1.4 1.2-1.3 1.2-1.3 1.3-1.3 1.3-1.2 1.4-1.2 1.4-1.2 1.4-1.1 1.5-1.1 1.6-1 1.6-1.1 1.6-1 1.7-1 1.8-.9 1.7-.9 1.9-.9 1.9-.8 1.9-.8 2-.7 2-.8 2-.7 2.2-.6 2.2-.7 2.2-.5 2.3-.6 2.3-.5 2.3-.5 4.9-.9 5-.7 5.3-.6 5.5-.5 5.6-.4 5.8-.2h137.1zm503.8-685.3v1.7l-.2 1.6-.2 1.6-.2 1.7-.3 1.5-.3 1.6-.4 1.6-.4 1.5-.5 1.6-.6 1.5-.6 1.5-.6 1.5-.7 1.4-.8 1.5-.8 1.4-.9 1.4-.9 1.4-1 1.4-1 1.4-1 1.3-1.1 1.4-1.2 1.3-1.2 1.3-1.3 1.3-1.3 1.3-1.4 1.2-1.4 1.3-1.5 1.2-1.6 1.2-1.6 1.2-1.6 1.2-1.7 1.1-1.7 1.1-1.7 1-1.7 1.1-1.8 1-1.8 1-1.8 1-1.8.8-1.8.9-2 .8-1.8.8-2 .7-1.8.7-2 .7-2 .7-2 .6-2 .5-2 .6-2 .5-2.1.4-2.1.4-2.1.4-2.2.4-2.1.3-2.2.2-2.2.3-4.5.4-4.5.2h-27.6l14-34.4 1.8-4.2 1.8-4.2 1.8-4 1.8-4 1.8-3.7 1.8-3.6 1.9-3.4 1.8-3.4 1.9-3.2 1.9-3 1.9-3 1.9-2.8 1.9-2.6 1.9-2.6 2-2.3 1.9-2.3 2-2.1.9-1 1-1 1-1 1-.8 1-.9 1-.8 1-.8 1-.8 1-.7 1-.7 1-.7 1-.6 1-.6 1-.6 1-.5 1-.5 1-.5 1-.4 1.1-.4 1-.3 1-.4 1.1-.2 1-.3 1-.2 1.1-.2 1-.2h1.1l1-.2h5.6l1.1.1 1.1.1 1 .1 1.1.1 1 .2 1 .2 1 .2 1 .2 1 .2 1 .2.8.3 1 .3.8.3 1 .3.8.3.8.4.8.4.8.4.8.4.7.4.8.5.7.5.7.5.7.5.6.5.7.6.6.5.6.6.6.6.6.7.6.6.5.7.5.7.5.7.5.7.5.8.4.7.4.8.5.8.3.9.4.8.4.9.3.9.3.9.3 1 .3.9.3 1 .2.9.3 1 .2 1 .2 1 .1 1.1.2 1 .1 1.2.1 1.1.2 2.3.1 2.4v4.1"/></svg>