<?xml version="1.0" encoding="UTF-8"?><svg id="Make2D_Visible_Curves" xmlns="http://www.w3.org/2000/svg" viewBox="0 0 1723.27 1291.11"><g id="POLYLINE"><polygon points="1359.37 1020.43 1570.23 500.51 1631.05 500.51 1636.39 500.43 1641.59 500.21 1646.64 499.84 1651.55 499.32 1656.3 498.66 1658.62 498.27 1660.91 497.84 1663.16 497.38 1665.37 496.88 1667.54 496.35 1669.68 495.77 1671.78 495.16 1673.84 494.51 1675.87 493.83 1677.86 493.11 1679.81 492.35 1681.72 491.55 1683.6 490.72 1685.44 489.85 1687.25 488.95 1689.01 488 1690.74 487.02 1692.44 486 1694.09 484.95 1695.71 483.86 1697.29 482.73 1698.84 481.56 1700.34 480.37 1701.8 479.14 1703.2 477.88 1704.56 476.59 1705.88 475.27 1707.14 473.92 1708.36 472.54 1709.53 471.13 1710.65 469.69 1711.72 468.22 1712.75 466.72 1713.72 465.18 1714.65 463.62 1715.54 462.03 1716.37 460.41 1717.16 458.76 1717.9 457.08 1718.59 455.37 1719.23 453.62 1719.83 451.85 1720.38 450.05 1720.88 448.21 1721.33 446.35 1721.74 444.46 1722.1 442.54 1722.41 440.58 1722.67 438.6 1722.88 436.58 1723.05 434.54 1723.17 432.47 1723.24 430.36 1723.27 428.23 1723.25 426.77 1723.2 425.34 1723.11 423.94 1722.99 422.55 1722.84 421.19 1722.66 419.85 1722.44 418.54 1722.18 417.24 1721.89 415.97 1721.57 414.73 1721.22 413.5 1720.83 412.3 1720.41 411.12 1719.95 409.97 1719.46 408.84 1718.93 407.73 1718.38 406.64 1717.78 405.58 1717.16 404.53 1716.5 403.52 1715.8 402.52 1715.08 401.55 1714.32 400.6 1713.52 399.67 1712.69 398.77 1711.83 397.89 1710.93 397.03 1710 396.2 1709.04 395.38 1708.04 394.59 1707.01 393.83 1705.94 393.08 1704.84 392.36 1703.71 391.67 1702.54 390.99 1701.34 390.34 1700.11 389.71 1698.84 389.1 1697.54 388.52 1696.2 387.96 1694.83 387.42 1693.42 386.91 1691.99 386.41 1690.51 385.95 1689.01 385.5 1687.47 385.08 1685.9 384.68 1684.29 384.3 1680.97 383.61 1677.52 383.02 1673.94 382.51 1670.22 382.1 1666.36 381.78 1662.37 381.55 1658.24 381.41 1653.98 381.37 1551.79 381.37 1531.35 381.87 1528.32 381.91 1525.36 382.05 1522.45 382.28 1519.59 382.6 1518.19 382.79 1516.8 383.01 1515.42 383.25 1514.06 383.52 1512.72 383.8 1511.38 384.11 1510.06 384.44 1508.76 384.8 1507.47 385.17 1506.2 385.57 1504.93 386 1503.69 386.44 1502.46 386.91 1501.24 387.4 1500.03 387.92 1498.85 388.46 1497.67 389.02 1496.51 389.6 1495.36 390.21 1494.23 390.84 1493.11 391.49 1492.01 392.16 1490.92 392.86 1489.85 393.58 1488.79 394.33 1487.74 395.09 1486.71 395.88 1485.7 396.69 1484.69 397.53 1483.71 398.39 1482.73 399.27 1481.77 400.17 1480.83 401.1 1479.9 402.05 1478.98 403.02 1478.08 404.02 1477.19 405.03 1476.32 406.07 1475.46 407.14 1474.61 408.23 1473.78 409.33 1472.97 410.47 1472.17 411.62 1471.38 412.8 1469.85 415.23 1468.38 417.74 1466.96 420.35 1465.6 423.05 1464.3 425.84 1463.06 428.73 1319.99 780.66 1294.07 448.66 1293.67 444.1 1293.16 439.67 1292.54 435.39 1291.81 431.26 1290.97 427.27 1290.51 425.33 1290.01 423.42 1289.5 421.56 1288.95 419.72 1288.38 417.93 1287.78 416.17 1287.15 414.45 1286.49 412.76 1285.8 411.11 1285.09 409.5 1284.35 407.92 1283.58 406.38 1282.79 404.87 1281.96 403.4 1281.11 401.97 1280.23 400.57 1279.33 399.21 1278.39 397.89 1277.43 396.6 1276.44 395.35 1275.42 394.14 1274.38 392.96 1273.31 391.82 1272.2 390.71 1271.08 389.64 1269.92 388.61 1268.74 387.61 1267.52 386.65 1266.28 385.72 1265.02 384.84 1263.72 383.98 1262.4 383.17 1261.05 382.39 1259.67 381.64 1258.26 380.94 1256.83 380.27 1255.37 379.63 1253.88 379.03 1252.36 378.47 1250.82 377.94 1249.24 377.45 1247.64 377 1246.02 376.58 1244.36 376.2 1242.68 375.86 1240.96 375.55 1239.23 375.28 1237.46 375.04 1235.66 374.84 1233.84 374.68 1231.99 374.55 1230.11 374.46 1228.21 374.41 1226.27 374.39 1224.6 374.41 1222.94 374.45 1221.29 374.53 1219.65 374.65 1218.03 374.79 1216.42 374.96 1214.83 375.17 1213.24 375.41 1211.68 375.68 1210.12 375.98 1208.58 376.32 1207.05 376.69 1205.53 377.08 1204.03 377.52 1202.55 377.98 1201.07 378.47 1199.61 379 1198.16 379.56 1196.73 380.15 1195.3 380.77 1193.9 381.42 1192.5 382.11 1191.12 382.82 1189.75 383.57 1188.4 384.35 1187.06 385.17 1185.73 386.01 1184.42 386.89 1183.11 387.8 1181.83 388.74 1180.55 389.71 1179.29 390.72 1178.05 391.75 1176.81 392.82 1175.59 393.92 1174.38 395.05 1173.19 396.22 1172.01 397.41 1170.84 398.64 1169.69 399.9 1168.55 401.19 1167.42 402.51 1165.21 405.26 1163.05 408.13 1160.94 411.12 1158.89 414.25 1156.89 417.5 1154.94 420.88 1153.05 424.39 1151.21 428.02 1149.43 431.78 1147.7 435.67 1146.02 439.69 948.62 925.72 942.04 941.67 935.53 957.02 929.08 971.75 922.68 985.88 916.35 999.39 910.08 1012.29 903.86 1024.58 900.78 1030.49 897.71 1036.25 894.66 1041.86 891.62 1047.32 888.6 1052.62 885.59 1057.78 882.59 1062.77 879.62 1067.62 876.65 1072.31 873.71 1076.85 870.77 1081.24 867.85 1085.47 864.95 1089.55 862.06 1093.48 859.19 1097.25 856.34 1100.88 853.49 1104.35 850.67 1107.66 847.83 1110.85 844.97 1113.94 842.08 1116.93 839.17 1119.81 836.22 1122.6 833.25 1125.28 830.25 1127.86 827.22 1130.34 824.17 1132.72 821.08 1135 817.97 1137.18 814.83 1139.25 811.67 1141.23 808.47 1143.1 805.25 1144.87 802 1146.54 798.72 1148.11 795.42 1149.58 792.09 1150.95 788.73 1152.22 785.34 1153.38 781.92 1154.44 778.48 1155.4 775.01 1156.27 771.51 1157.02 767.98 1157.68 764.42 1158.24 760.84 1158.7 757.23 1159.05 753.59 1159.3 749.93 1159.45 746.23 1159.51 743.05 1159.47 739.9 1159.38 736.8 1159.22 733.74 1159 730.73 1158.71 727.76 1158.36 724.83 1157.94 721.95 1157.46 719.11 1156.92 716.31 1156.32 713.56 1155.65 710.84 1154.91 708.18 1154.12 705.55 1153.26 702.97 1152.33 700.43 1151.34 697.94 1150.29 695.49 1149.17 693.08 1147.99 690.72 1146.75 688.4 1145.44 686.12 1144.07 683.89 1142.64 681.69 1141.14 679.55 1139.58 677.44 1137.95 675.38 1136.26 673.36 1134.51 671.39 1132.69 669.46 1130.81 667.57 1128.86 665.73 1126.85 663.93 1124.79 662.2 1122.68 660.52 1120.52 658.89 1118.31 657.33 1116.06 655.82 1113.76 654.36 1111.41 652.97 1109.02 651.63 1106.58 650.35 1104.09 649.12 1101.55 647.96 1098.97 646.85 1096.34 645.79 1093.66 644.8 1090.93 643.86 1088.16 642.97 1085.34 642.15 1082.47 641.38 1079.56 640.67 1076.6 640.01 1073.59 639.41 1070.53 638.87 1067.43 638.39 1064.28 637.96 1061.08 637.59 1057.84 637.28 1054.54 637.02 1051.21 636.82 1047.82 636.68 1044.39 636.59 1040.9 636.57 1037.38 636.6 1034.05 636.68 1030.73 636.83 1027.41 637.03 1024.11 637.29 1020.82 637.61 1017.53 637.99 1014.26 638.42 1010.99 638.91 1007.73 639.46 1004.48 640.07 1001.24 640.74 998 641.46 994.78 642.24 991.56 643.08 988.36 643.98 985.16 644.94 981.97 645.95 978.79 647.02 975.62 648.15 972.46 649.34 969.3 650.59 966.16 651.89 963.02 653.25 959.89 656.15 953.66 659.27 947.47 662.63 941.31 666.23 935.19 670.01 929.15 673.96 923.26 678.08 917.52 682.35 911.91 686.78 906.46 691.38 901.14 696.14 895.97 701.06 890.95 706.14 886.06 711.38 881.33 716.79 876.73 722.35 872.28 728.08 867.98 733.97 863.82 740.02 859.8 746.23 855.93 750.07 853.68 753.98 851.48 757.97 849.34 762.04 847.25 766.17 845.21 770.39 843.23 774.68 841.3 779.04 839.42 783.48 837.59 787.99 835.81 792.58 834.09 797.24 832.42 801.98 830.8 806.79 829.24 811.68 827.73 816.64 826.27 821.68 824.86 826.79 823.51 831.98 822.2 837.25 820.96 842.58 819.76 848 818.62 853.48 817.52 859.05 816.48 864.68 815.5 870.4 814.56 876.18 813.68 882.05 812.86 887.98 812.08 894 811.36 900.08 810.69 906.25 810.07 911.76 809.53 917.07 808.9 922.18 808.19 927.09 807.39 931.8 806.5 936.32 805.53 940.64 804.48 944.75 803.34 948.67 802.11 950.56 801.47 952.4 800.8 954.18 800.11 955.92 799.4 957.61 798.67 959.24 797.92 960.83 797.14 962.37 796.35 963.86 795.53 965.29 794.69 966.68 793.83 968.02 792.95 969.31 792.05 970.55 791.12 971.75 790.18 972.91 789.2 974.03 788.19 975.11 787.15 976.15 786.09 977.16 784.99 978.13 783.87 979.06 782.71 979.95 781.53 980.8 780.32 981.62 779.08 982.4 777.81 983.14 776.51 983.84 775.18 984.51 773.82 985.13 772.43 985.72 771.01 986.27 769.57 986.78 768.09 987.26 766.59 987.7 765.06 988.09 763.49 988.45 761.9 988.78 760.28 989.06 758.63 989.31 756.95 989.52 755.24 989.69 753.5 989.82 751.74 989.92 749.94 989.97 748.12 989.99 746.26 989.97 744.43 989.9 742.63 989.78 740.85 989.61 739.1 989.4 737.37 989.13 735.66 988.82 733.98 988.47 732.32 988.06 730.68 987.61 729.07 987.11 727.48 986.56 725.92 985.96 724.38 985.32 722.86 984.63 721.37 983.89 719.9 983.1 718.46 982.26 717.04 981.38 715.64 980.45 714.27 979.47 712.92 978.45 711.59 977.37 710.29 976.25 709.01 975.08 707.76 973.87 706.53 972.6 705.32 971.29 704.14 969.93 702.98 968.52 701.85 967.07 700.74 965.57 699.65 964.02 698.59 962.45 697.57 960.83 696.58 959.19 695.62 957.51 694.7 955.79 693.81 954.05 692.95 952.26 692.13 950.45 691.34 948.6 690.58 946.71 689.86 944.79 689.17 942.84 688.52 940.85 687.9 938.83 687.31 936.78 686.75 934.69 686.23 932.57 685.75 930.41 685.29 928.22 684.87 923.73 684.13 919.11 683.53 914.36 683.06 909.46 682.72 904.43 682.52 899.27 682.45 894.31 682.49 889.35 682.59 884.37 682.76 879.39 683 874.41 683.31 869.41 683.68 864.41 684.12 859.4 684.64 854.39 685.21 849.37 685.86 844.34 686.58 839.3 687.36 834.25 688.21 829.2 689.13 824.14 690.12 819.07 691.18 814 692.3 808.92 693.5 803.83 694.76 798.73 696.09 793.63 697.48 788.52 698.95 783.4 700.48 778.28 702.08 773.14 703.75 768 705.49 762.86 707.3 757.7 709.17 752.54 711.11 747.37 713.12 742.19 715.2 737.01 717.35 731.85 719.55 726.75 721.79 721.7 724.08 716.7 726.41 711.76 728.78 706.88 731.19 702.05 733.64 697.27 736.14 692.55 738.67 687.89 741.25 683.28 743.87 678.72 746.53 674.22 749.24 669.78 751.98 665.39 754.77 661.05 757.6 656.77 760.47 652.55 763.39 648.38 766.34 644.27 769.34 640.21 772.38 636.2 775.46 632.25 778.58 628.36 781.75 624.52 784.95 620.73 788.2 617 791.49 613.33 794.82 609.71 798.2 606.14 801.61 602.63 805.07 599.18 808.57 592.86 815.18 586.74 821.86 580.83 828.6 575.11 835.42 569.6 842.3 564.28 849.26 559.17 856.28 554.25 863.37 549.54 870.54 545.03 877.77 540.72 885.07 536.6 892.43 532.69 899.87 528.98 907.38 525.47 914.95 522.16 922.6 519.06 930.31 516.15 938.1 513.44 945.95 510.93 953.87 508.63 961.86 506.52 969.92 504.61 978.05 502.91 986.25 501.41 994.52 500.1 1002.85 499 1011.26 498.1 1019.73 497.39 1028.28 496.89 1036.89 496.59 1045.57 496.49 1054.32 496.56 1060.86 496.75 1067.32 497.06 1073.7 497.51 1080 498.08 1086.23 498.78 1092.38 499.6 1098.46 500.56 1104.45 501.64 1110.37 502.84 1116.22 504.18 1121.98 505.64 1127.67 507.23 1133.28 508.94 1138.82 510.79 1144.28 512.75 1149.66 514.85 1154.96 517.07 1160.19 519.43 1165.34 521.9 1170.42 524.51 1175.41 527.24 1180.33 530.1 1185.18 533.08 1189.94 536.2 1194.63 539.44 1199.25 542.8 1203.78 546.3 1208.24 549.92 1212.62 553.67 1216.93 557.54 1221.15 561.54 1225.31 565.65 1229.35 569.83 1233.27 574.09 1237.06 578.43 1240.73 582.84 1244.26 587.33 1247.67 591.9 1250.94 596.55 1254.09 601.27 1257.11 606.07 1260 610.95 1262.77 615.91 1265.4 620.94 1267.91 626.05 1270.29 631.24 1272.54 636.5 1274.66 641.85 1276.65 647.27 1278.51 652.76 1280.25 658.34 1281.85 663.99 1283.33 669.72 1284.68 675.53 1285.9 681.41 1286.99 687.38 1287.96 693.42 1288.79 699.53 1289.5 705.73 1290.08 712 1290.53 718.35 1290.85 724.77 1291.04 731.28 1291.11 737.39 1291.05 743.47 1290.88 749.49 1290.59 755.48 1290.19 761.42 1289.67 767.32 1289.04 773.17 1288.29 778.98 1287.43 784.74 1286.45 790.46 1285.36 796.14 1284.16 801.78 1282.83 807.37 1281.4 812.91 1279.85 818.41 1278.18 823.87 1276.4 829.29 1274.5 834.66 1272.49 839.98 1270.37 845.27 1268.13 850.51 1265.77 855.7 1263.3 860.86 1260.72 865.96 1258.02 871.03 1255.2 876.05 1252.27 881.02 1249.23 885.96 1246.07 890.85 1242.8 895.69 1239.41 900.49 1235.9 905.25 1232.28 911.72 1227.12 918.03 1221.84 924.19 1216.44 930.19 1210.93 936.04 1205.3 941.74 1199.56 947.28 1193.7 952.67 1187.73 957.9 1181.65 962.98 1175.45 967.91 1169.13 972.69 1162.7 977.31 1156.15 981.77 1149.49 986.08 1142.72 990.24 1135.83 994.44 1128.49 998.88 1120.39 1003.55 1111.51 1008.45 1101.85 1013.59 1091.43 1018.97 1080.23 1024.58 1068.25 1030.43 1055.51 1036.52 1041.99 1042.84 1027.7 1049.39 1012.63 1056.18 996.8 1063.21 980.19 1070.47 962.8 1077.97 944.65 1085.7 925.72 1189.89 668.5 1212.82 969.08 1213.42 976.05 1214.12 982.74 1214.92 989.15 1215.81 995.29 1216.79 1001.14 1217.86 1006.73 1219.03 1012.03 1220.29 1017.06 1221.65 1021.82 1222.36 1024.09 1223.1 1026.29 1223.86 1028.43 1224.64 1030.49 1225.45 1032.49 1226.27 1034.42 1227.13 1036.27 1228 1038.06 1228.9 1039.78 1229.83 1041.43 1230.77 1043.02 1231.74 1044.53 1232.74 1045.97 1233.24 1046.67 1233.75 1047.35 1234.27 1048.01 1234.8 1048.66 1235.34 1049.31 1235.9 1049.94 1236.46 1050.56 1237.03 1051.18 1237.62 1051.78 1238.22 1052.37 1238.82 1052.95 1239.44 1053.52 1240.07 1054.08 1240.71 1054.63 1241.36 1055.17 1242.02 1055.7 1242.7 1056.22 1243.38 1056.72 1244.78 1057.71 1246.22 1058.65 1247.71 1059.55 1249.24 1060.41 1250.82 1061.22 1252.44 1062 1254.1 1062.73 1255.81 1063.42 1257.56 1064.07 1259.36 1064.68 1261.19 1065.24 1263.08 1065.77 1265 1066.25 1266.97 1066.69 1268.99 1067.09 1271.05 1067.44 1273.15 1067.76 1275.29 1068.03 1277.48 1068.26 1279.71 1068.45 1281.99 1068.59 1284.31 1068.7 1286.68 1068.76 1289.08 1068.78 1292.11 1068.73 1295.08 1068.59 1298 1068.36 1300.87 1068.03 1302.28 1067.82 1303.68 1067.6 1305.07 1067.35 1306.44 1067.08 1307.8 1066.79 1309.14 1066.47 1310.48 1066.12 1311.8 1065.76 1313.1 1065.37 1314.39 1064.96 1315.67 1064.52 1316.94 1064.06 1318.19 1063.57 1319.43 1063.07 1320.66 1062.54 1321.87 1061.98 1323.07 1061.4 1324.25 1060.8 1325.42 1060.18 1326.58 1059.53 1327.73 1058.85 1328.86 1058.16 1329.98 1057.44 1331.08 1056.69 1332.17 1055.93 1333.25 1055.13 1334.32 1054.32 1335.37 1053.48 1336.41 1052.62 1337.43 1051.73 1338.44 1050.83 1339.44 1049.89 1340.42 1048.94 1341.39 1047.96 1342.35 1046.95 1343.3 1045.93 1344.23 1044.88 1345.14 1043.8 1346.05 1042.7 1346.94 1041.58 1348.68 1039.27 1350.37 1036.86 1352 1034.36 1353.58 1031.76 1355.11 1029.07 1356.58 1026.28 1358 1023.4 1359.37 1020.43"/></g><path d="M992.94,147.01l-.13-3.99-.22-3.94-.31-3.9-.4-3.86-.49-3.82-.58-3.77-.66-3.73-.75-3.69-.84-3.65-.93-3.61-1.02-3.56-1.11-3.52-1.2-3.48-1.28-3.44-1.37-3.39-1.46-3.35-1.55-3.31-1.64-3.27-1.73-3.22-1.82-3.18-1.9-3.14-1.99-3.1-2.08-3.05-2.17-3.01-2.26-2.97-2.35-2.93-2.44-2.89-2.53-2.84-2.61-2.8-2.7-2.76-2.79-2.72-2.86-2.65-2.9-2.57-2.95-2.48-2.99-2.4-3.04-2.32-3.08-2.23-3.13-2.15-3.17-2.06-3.22-1.98-3.26-1.89-3.31-1.81-3.35-1.73-3.39-1.64-3.44-1.56-3.48-1.47-3.53-1.39-3.57-1.31-3.62-1.22-3.66-1.14-3.71-1.05-3.75-.97-3.8-.88-3.84-.8-3.89-.72-3.93-.63-3.98-.55-4.02-.46-4.07-.38-4.11-.29-4.16-.21-4.2-.13-4.25-.04-4.17.04-4.14.12-4.11.2-4.07.28-4.04.35-4.01.43-3.97.51-3.94.59-3.9.67-3.87.75-3.84.83-3.8.91-3.77.99-3.74,1.06-3.7,1.14-3.67,1.22-3.64,1.3-3.6,1.38-3.57,1.46-3.54,1.54-3.5,1.62-3.47,1.7-3.43,1.77-3.4,1.85-3.37,1.93-3.33,2.01-3.3,2.09-3.27,2.17-3.23,2.25-3.2,2.33-3.17,2.41-3.13,2.48-3.1,2.56-3.07,2.64-3.03,2.72-3,2.8-2.96,2.88-2.93,2.96-2.9,3.04-2.86,3.11-2.83,3.19-2.8,3.27-2.76,3.35-2.73,3.43-2.7,3.51-2.66,3.59-2.63,3.67-2.59,3.75-2.56,3.82-2.53,3.9-2.49,3.98-2.46,4.06-2.43,4.14-2.39,4.22-2.36,4.3-2.33,4.38-2.29,4.46-2.26,4.53-2.23,4.61-2.19,4.69-2.16,4.77-2.12,4.85-2.09,4.93-2.06,5.01-22.93,56.33h-85.24l-5.35.07-5.2.22-5.05.37-4.9.51-4.76.66-2.32.38-2.29.42-2.25.46-2.21.49-2.17.53-2.14.57-2.1.6-2.06.64-2.03.68-1.99.71-1.95.75-1.92.78-1.88.82-1.84.86-1.8.89-1.77.93-1.73.97-1.69,1-1.66,1.04-1.62,1.08-1.58,1.11-1.55,1.15-1.5,1.18-1.46,1.21-1.41,1.24-1.36,1.26-1.31,1.29-1.26,1.32-1.22,1.34-1.17,1.37-1.12,1.4-1.07,1.42-1.03,1.45-.98,1.48-.93,1.5-.88,1.53-.83,1.56-.79,1.58-.74,1.61-.69,1.64-.64,1.66-.6,1.69-.55,1.72-.5,1.74-.45,1.77-.41,1.8-.36,1.82-.31,1.85-.26,1.88-.21,1.9-.17,1.93-.12,1.96-.07,1.98-.02,2.01v1.53s.05,1.51.05,1.51l.07,1.48.1,1.46.12,1.43.15,1.41.18,1.39.2,1.36.23,1.34.26,1.31.29,1.29.31,1.27.34,1.24.37,1.22.4,1.19.42,1.17.45,1.14.48,1.12.5,1.1.53,1.07.56,1.05.59,1.02.61,1,.64.98.67.95.7.93.72.9.75.88.78.86.8.83.83.81.86.78.89.76.91.73.94.71.97.69.99.66,1.02.64,1.05.61,1.08.59,1.1.57,1.13.54,1.16.52,1.19.49,1.21.47,1.24.45,1.27.42,1.29.4,1.32.37,1.35.35,1.38.33,1.4.3,1.43.28,1.46.25,1.49.23,1.51.2,3.11.34,3.22.24,3.33.14,3.43.05h73.28l-149.05,367.38h-175.97l-5.79.03-5.71.09-5.64.15-5.56.21-5.48.28-5.41.34-5.33.4-5.26.46-5.18.52-5.1.58-5.03.64-4.95.71-4.88.77-4.8.83-4.72.89-4.65.95-4.57,1.01-4.5,1.07-4.42,1.13-4.35,1.2-4.27,1.26-4.19,1.32-4.12,1.38-4.04,1.44-3.97,1.5-3.89,1.56-3.81,1.63-3.74,1.69-3.66,1.75-3.59,1.81-3.51,1.87-3.43,1.93-5.17,3.13-5.03,3.28-4.89,3.43-4.76,3.58-4.62,3.74-4.48,3.89-4.35,4.04-4.21,4.19-4.08,4.34-3.94,4.5-3.8,4.65-3.67,4.8-3.53,4.95-3.39,5.1-3.26,5.26-3.12,5.41-2.96,5.51-2.77,5.56-2.58,5.61-2.39,5.66-2.19,5.71-2,5.76-1.81,5.81-1.62,5.86-1.43,5.91-1.24,5.96-1.05,6.01-.86,6.07-.67,6.12-.48,6.17-.29,6.22-.1,6.27.06,5.02.17,4.96.28,4.91.39,4.85.5,4.8.61,4.74.72,4.69.84,4.63.95,4.58,1.06,4.52,1.17,4.46,1.28,4.41,1.39,4.35,1.5,4.3,1.62,4.24,1.73,4.19,1.84,4.13,1.95,4.08,2.06,4.02,2.17,3.97,2.29,3.91,2.4,3.85,2.51,3.8,2.62,3.74,2.73,3.69,2.84,3.63,2.95,3.58,3.07,3.52,3.18,3.47,3.29,3.41,3.4,3.35,3.51,3.3,3.6,3.22,3.66,3.12,3.72,3.02,3.78,2.91,3.84,2.81,3.9,2.71,3.96,2.61,4.02,2.5,4.08,2.4,4.14,2.3,4.2,2.2,4.26,2.1,4.32,1.99,4.38,1.89,4.44,1.79,4.5,1.69,4.56,1.58,4.62,1.48,4.68,1.38,4.73,1.28,4.79,1.18,4.85,1.07,4.91.97,4.97.87,5.03.77,5.09.66,5.15.56,5.21.46,5.27.36,5.33.26,5.39.15,5.45.05,6.74-.07,6.69-.22,6.64-.37,6.59-.52,6.54-.67,6.49-.82,6.44-.97,6.4-1.12,6.35-1.27,6.3-1.42,6.25-1.56,6.2-1.71,6.15-1.86,6.1-2.01,6.05-2.16,6.01-2.31,5.96-2.46,5.91-2.61,5.86-2.76,5.81-2.9,5.76-3.05,5.71-3.2,5.67-3.35,5.62-3.5,5.57-3.65,5.52-3.8,5.47-3.95,5.42-4.1,5.37-4.25,5.32-4.39,5.28-4.54,5.23-4.69,3.94-3.68,3.85-3.7,3.75-3.72,3.66-3.73,3.57-3.75,3.47-3.76,3.38-3.78,3.29-3.79,3.19-3.81,3.1-3.82,3.01-3.84,2.91-3.86,2.82-3.87,2.73-3.89,2.63-3.9,2.54-3.92,2.55-4.11,2.67-4.47,2.78-4.83,2.9-5.19,3.02-5.56,3.14-5.92,3.25-6.28,3.37-6.64,7.09-14.37,7.56-15.82,8.02-17.27,8.49-18.72,5.98-13.96h370.87l5.35-.07,5.2-.22,5.05-.37,4.9-.51,4.76-.66,2.32-.38,2.29-.42,2.25-.46,2.21-.49,2.17-.53,2.14-.57,2.1-.6,2.06-.64,2.03-.68,1.99-.71,1.95-.75,1.92-.78,1.88-.82,1.84-.86,1.8-.89,1.77-.93,1.73-.97,1.69-1,1.66-1.04,1.62-1.08,1.58-1.11,1.55-1.15,1.5-1.18,1.46-1.21,1.41-1.24,1.36-1.27,1.31-1.3,1.26-1.33,1.22-1.36,1.17-1.39,1.12-1.42,1.07-1.45,1.03-1.48.98-1.51.93-1.54.88-1.57.83-1.6.79-1.63.74-1.66.69-1.69.64-1.72.6-1.75.55-1.78.5-1.81.45-1.84.41-1.87.36-1.9.31-1.93.26-1.96.21-1.98.17-2.01.12-2.04.07-2.07.02-2.1-.02-1.48-.05-1.46-.08-1.44-.12-1.41-.15-1.39-.19-1.37-.22-1.34-.25-1.32-.29-1.3-.32-1.27-.36-1.25-.39-1.23-.42-1.2-.46-1.18-.49-1.16-.52-1.13-.56-1.11-.59-1.09-.63-1.06-.66-1.04-.69-1.02-.73-.99-.76-.97-.8-.95-.83-.92-.86-.9-.9-.88-.93-.85-.96-.83-1-.81-1.03-.78-1.07-.76-1.1-.74-1.13-.71-1.17-.69-1.2-.67-1.23-.64-1.27-.62-1.3-.6-1.34-.57-1.37-.55-1.4-.53-1.44-.5-1.47-.48-1.51-.46-1.54-.43-1.57-.41-1.61-.39-1.64-.36-1.67-.34-3.45-.61-3.59-.51-3.72-.42-3.86-.33-3.99-.23-4.13-.14-4.26-.05h-345.45l149.55-367.38h52.34l6.54-.05,6.46-.15,6.38-.25,6.3-.35,6.23-.45,6.15-.55,6.07-.65,6-.76,5.92-.86,5.84-.96,5.77-1.06,5.69-1.16,5.61-1.26,5.54-1.36,5.46-1.46,5.38-1.56,5.3-1.66,5.23-1.76,5.15-1.86,5.07-1.96,5-2.07,4.92-2.17,4.84-2.27,4.77-2.37,4.69-2.47,4.61-2.57,4.54-2.67,4.46-2.77,4.38-2.87,4.3-2.97,4.23-3.07,4.15-3.17,4.05-3.26,3.92-3.32,3.79-3.38,3.66-3.44,3.53-3.5,3.41-3.56,3.28-3.62,3.15-3.68,3.02-3.74,2.89-3.8,2.76-3.86,2.63-3.92,2.51-3.99,2.38-4.05,2.25-4.11,2.12-4.17,1.99-4.23,1.86-4.29,1.73-4.35,1.61-4.41,1.48-4.47,1.35-4.53,1.22-4.59,1.09-4.65.96-4.72.84-4.78.71-4.84.58-4.9.45-4.96.32-5.02.19-5.08.06-5.14-.04-4.03ZM361.97,840.5l-3.53,7.54-3.64,7.34-3.75,7.14-3.86,6.93-3.98,6.73-4.09,6.52-4.2,6.32-4.31,6.11-4.42,5.91-4.53,5.7-4.64,5.5-4.75,5.3-4.86,5.09-4.97,4.89-5.09,4.68-2.57,2.25-2.58,2.18-2.59,2.11-2.59,2.04-2.6,1.97-2.61,1.9-2.61,1.82-2.62,1.75-2.62,1.68-2.63,1.61-2.64,1.54-2.64,1.47-2.65,1.4-2.66,1.32-2.66,1.25-2.67,1.18-2.67,1.11-2.68,1.04-2.69.97-2.69.89-2.7.82-2.71.75-2.71.68-2.72.61-2.73.54-2.73.47-2.74.39-2.74.32-2.75.25-2.76.18-2.76.11-2.77.04-2.01-.02-1.99-.06-1.97-.09-1.95-.13-1.93-.17-1.91-.21-1.89-.24-1.86-.28-1.84-.32-1.82-.36-1.8-.39-1.78-.43-1.76-.47-1.74-.51-1.71-.54-1.69-.58-1.67-.62-1.65-.66-1.63-.69-1.61-.73-1.59-.77-1.56-.81-1.54-.84-1.52-.88-1.5-.92-1.48-.96-1.46-.99-1.44-1.03-1.41-1.07-1.39-1.11-1.37-1.14-1.35-1.18-1.32-1.21-1.28-1.23-1.24-1.24-1.19-1.26-1.15-1.28-1.11-1.3-1.07-1.32-1.03-1.33-.98-1.35-.94-1.37-.9-1.39-.86-1.41-.82-1.42-.77-1.44-.73-1.46-.69-1.48-.65-1.5-.61-1.51-.57-1.53-.52-1.55-.48-1.57-.44-1.59-.4-1.6-.36-1.62-.31-1.64-.27-1.66-.23-1.68-.19-1.69-.15-1.71-.1-1.73-.06-1.75-.02-1.77.02-2.15.07-2.11.12-2.08.17-2.05.21-2.01.26-1.98.31-1.95.36-1.91.41-1.88.45-1.84.5-1.81.55-1.78.6-1.74.64-1.71.69-1.67.74-1.64.79-1.61.83-1.57.88-1.54.93-1.51.98-1.47,1.03-1.44,1.07-1.4,1.12-1.37,1.17-1.34,1.22-1.3,1.26-1.27,1.31-1.23,1.36-1.2,1.41-1.17,1.46-1.13,1.5-1.1,1.55-1.07,1.6-1.03,1.65-1,1.69-.96,1.74-.93,1.79-.9,1.84-.86,1.88-.83,1.93-.79,1.98-.76,2.03-.73,2.08-.69,2.12-.66,2.17-.63,2.22-.59,2.27-.56,2.31-.52,2.36-.49,4.87-.88,5.06-.74,5.25-.61,5.44-.47,5.63-.34,5.82-.2,6.01-.07h131.1l-3.42,7.75ZM865.84,155.21l-.08,1.66-.13,1.64-.18,1.63-.23,1.61-.29,1.59-.34,1.58-.39,1.56-.44,1.55-.49,1.53-.55,1.51-.6,1.5-.65,1.48-.7,1.47-.76,1.45-.81,1.43-.86,1.42-.91,1.4-.96,1.39-1.02,1.37-1.07,1.35-1.12,1.34-1.17,1.32-1.22,1.3-1.28,1.29-1.33,1.27-1.38,1.26-1.43,1.24-1.48,1.22-1.54,1.21-1.59,1.19-1.64,1.18-1.68,1.15-1.7,1.11-1.72,1.08-1.74,1.04-1.76,1-1.78.97-1.8.93-1.82.89-1.84.86-1.87.82-1.89.78-1.91.75-1.93.71-1.95.68-1.97.64-1.99.6-2.01.57-2.03.53-2.05.49-2.08.46-2.1.42-2.12.38-2.14.35-2.16.31-2.18.27-2.2.24-4.46.37-4.55.22-4.63.07h-22.93l13.96-34.4,1.78-4.29,1.79-4.16,1.8-4.02,1.81-3.88,1.82-3.75,1.83-3.61,1.85-3.48,1.86-3.34,1.87-3.2,1.88-3.07,1.89-2.93,1.9-2.79,1.91-2.66,1.92-2.52,1.93-2.39,1.94-2.25,1.95-2.11.98-1.01.98-.97.99-.94.99-.9.99-.87.99-.83,1-.8,1-.77,1-.73,1-.7,1.01-.66,1.01-.63,1.01-.6,1.02-.56,1.02-.53,1.02-.49,1.02-.46,1.03-.43,1.03-.39,1.03-.36,1.03-.32,1.04-.29,1.04-.26,1.04-.22,1.04-.19,1.05-.15,1.05-.12,1.05-.09,1.06-.05,1.06-.02,2.3.04,1.12.05,1.1.07,1.09.09,1.07.11,1.05.13,1.03.15,1.01.17.99.18.98.2.96.22.94.24.92.26.9.28.89.3.87.32.85.34.83.36.81.38.79.4.78.42.76.44.74.46.72.48.7.5.68.52.67.54.65.55.63.57.61.59.59.61.58.63.56.65.54.67.52.69.5.71.48.73.47.75.45.77.43.79.41.81.39.83.37.85.36.87.34.89.32.91.3.92.28.94.26.96.25.98.23,1,.21,1.02.19,1.04.17,1.06.16,1.08.14,1.1.12,1.12.18,2.3.11,2.38.04,2.45-.03,1.67Z"/></svg>