<svg xmlns="http://www.w3.org/2000/svg" viewBox="0 0 5614.94 1083.71">
<path data-neon="0" d="M1297.04,621.73l-.05-1.35-.08-1.33-.11-1.31-.14-1.29-.17-1.27-.2-1.25-.23-1.22-.26-1.2-.29-1.18-.32-1.16-.35-1.14-.38-1.12-.41-1.09-.44-1.07-.48-1.05-.51-1.03-.54-1.01-.57-.99-.6-.96-.63-.94-.66-.92-.69-.9-.72-.88-.75-.86-.78-.83-.81-.81-.84-.79-.87-.77-.9-.75-.94-.73-.97-.7-1-.68-1.03-.66-1.06-.64-1.09-.62-1.12-.6-1.15-.57-1.18-.55-1.21-.53-1.24-.51-1.27-.49-1.3-.47-1.33-.44-1.36-.42-1.4-.4-1.43-.38-1.46-.36-1.49-.34-1.52-.31-3.13-.56-3.25-.48-3.37-.39-3.5-.3-3.62-.22-3.74-.13-3.86-.04h-148.05l-3.47-.04-3.36-.11-3.25-.18-3.14-.26-3.03-.33-2.92-.4-2.81-.47-2.7-.55-1.31-.3-1.28-.32-1.25-.34-1.22-.36-1.2-.37-1.17-.39-1.14-.41-1.11-.43-1.09-.45-1.06-.47-1.03-.48-1-.5-.98-.52-.95-.54-.92-.56-.89-.57-.87-.59-.84-.61-.81-.63-.78-.65-.76-.67-.73-.68-.7-.7-.67-.72-.65-.74-.62-.76-.59-.78-.56-.79-.54-.81-.51-.83-.48-.85-.45-.87-.43-.89-.4-.9-.37-.92-.34-.94-.32-.96-.29-.98-.26-1-.23-1.01-.21-1.03-.18-1.05-.15-1.07-.12-1.09-.1-1.1-.07-1.12-.04-1.14v-1.16s99.68,0,99.68,0l7.42-.07,7.19-.22,6.96-.36,6.72-.5,6.49-.65,6.25-.79,6.02-.94,5.79-1.08,5.55-1.22,2.69-.67,2.63-.7,2.57-.74,2.51-.77,2.46-.81,2.4-.85,2.34-.88,2.28-.92,2.22-.95,2.16-.99,2.1-1.03,2.05-1.06,1.99-1.1,1.93-1.13,3.37-2.06,3.27-2.13,3.16-2.2,3.05-2.26,2.95-2.33,2.84-2.4,2.73-2.47,2.62-2.54,2.52-2.6,2.41-2.67,1.16-1.36,1.14-1.38,1.11-1.4,1.08-1.41,1.06-1.43,1.03-1.45,1-1.46.98-1.48.95-1.5.92-1.52.9-1.53.87-1.55.84-1.57.82-1.58.79-1.6.76-1.62.74-1.63.71-1.65,1.34-3.35,1.23-3.42,1.12-3.49,1.02-3.56.91-3.63.8-3.69.7-3.76.59-3.83.48-3.9.37-3.97.27-4.04.16-4.1.05-4.17-.04-3.47-.12-3.43-.19-3.38-.27-3.34-.35-3.3-.43-3.26-.5-3.21-.58-3.17-.66-3.13-.74-3.09-.81-3.04-.89-3-.97-2.96-1.04-2.92-1.12-2.88-1.2-2.83-1.28-2.79-1.35-2.75-1.43-2.71-1.51-2.66-1.59-2.62-1.66-2.58-1.74-2.54-1.82-2.49-1.9-2.45-1.97-2.41-2.05-2.37-2.13-2.32-2.21-2.28-2.28-2.24-2.36-2.2-2.44-2.16-2.5-2.1-2.55-2.03-2.6-1.97-2.65-1.9-2.7-1.83-2.75-1.77-2.8-1.7-2.85-1.63-2.9-1.57-2.95-1.5-3-1.43-3.05-1.37-3.1-1.3-3.15-1.23-3.2-1.17-3.25-1.1-3.3-1.03-3.35-.97-3.4-.9-3.45-.83-3.5-.77-3.55-.7-3.6-.63-3.66-.57-3.71-.5-3.76-.43-3.81-.37-3.86-.3-3.91-.23-3.96-.17-4.01-.1-4.06-.03-5.58.07-5.54.2-5.49.34-5.44.48-5.39.61-5.34.75-5.29.89-5.25,1.02-5.2,1.16-5.15,1.29-5.1,1.43-5.05,1.57-5.01,1.7-4.96,1.84-4.91,1.98-4.86,2.11-4.81,2.25-4.76,2.39-4.72,2.52-4.67,2.66-4.62,2.79-4.57,2.93-4.52,3.07-4.48,3.2-4.43,3.34-4.38,3.48-4.33,3.61-4.28,3.75-4.23,3.88-4.19,4.02-4.14,4.16-4.09,4.29-4,4.39-3.88,4.44-3.75,4.49-3.62,4.54-3.49,4.59-3.37,4.65-3.24,4.7-3.11,4.75-2.99,4.8-2.86,4.85-2.73,4.9-2.6,4.96-2.48,5.01-2.35,5.06-2.22,5.11-2.1,5.16-1.97,5.21-1.84,5.26-1.72,5.32-1.59,5.37-1.46,5.42-1.33,5.47-1.21,5.52-1.08,5.57-.95,5.63-.83,5.68-.7,5.73-.57,5.78-.44,5.83-.32,5.88-.19,5.94-.06,5.99.04,4.64.12,4.57.2,4.5.28,4.43.36,4.36.44,4.29.52,4.22.6,4.15.68,4.08.76,4.01.84,3.94.92,3.87,1,3.8,1.08,3.73,1.16,3.66,1.25,3.59,1.33,3.52,1.41,3.45,1.49,3.38,1.57,3.31,1.65,3.24,1.73,3.17,1.81,3.1,1.89,3.03,1.97,2.96,2.05,2.89,2.13,2.82,2.21,2.75,2.29,2.68,2.37,2.61,2.45,2.54,2.53,2.47,2.61,2.39,2.68,2.32,2.75,2.24,2.83,2.16,2.9,2.09,2.97,2.01,3.05,1.94,3.12,1.86,3.2,1.78,3.27,1.71,3.34,1.63,3.42,1.56,3.49,1.48,3.56,1.41,3.64,1.33,3.71,1.25,3.78,1.18,3.86,1.1,3.93,1.03,4,.95,4.08.87,4.15.8,4.22.72,4.3.65,4.37.57,4.44.49,4.52.42,4.59.34,4.67.27,4.74.19,4.81.11,4.89.04h141.07l4.92-.07,4.78-.2,4.64-.33,4.5-.46,4.36-.6,2.13-.35,2.09-.38,2.06-.41,2.03-.45,1.99-.48,1.96-.51,1.92-.55,1.89-.58,1.85-.61,1.82-.65,1.78-.68,1.75-.71,1.71-.74,1.68-.78,1.65-.81,1.61-.84,1.58-.88,1.54-.91,1.51-.94,1.47-.98,1.44-1.01,1.4-1.04,1.36-1.07,1.32-1.1,1.28-1.12,1.23-1.15,1.19-1.18,1.15-1.2,1.1-1.23,1.06-1.26,1.02-1.28.97-1.31.93-1.34.89-1.36.84-1.39.8-1.41.76-1.44.71-1.47.67-1.49.63-1.52.58-1.55.54-1.57.5-1.6.45-1.62.41-1.65.37-1.68.32-1.7.28-1.73.24-1.76.19-1.78.15-1.81.11-1.83.06-1.86.02-1.89-.02-1.38ZM1055.47,447.56l1.71-2.97,1.75-2.87,1.78-2.77,1.82-2.68,1.86-2.58,1.9-2.48,1.94-2.39,1.97-2.29,2.01-2.19,2.05-2.09,2.09-2,2.13-1.9,1.08-.91,1.09-.89,1.1-.86,1.11-.84,1.12-.82,1.12-.79,1.13-.77,1.14-.74,1.15-.72,1.16-.69,1.17-.67,1.18-.65,1.19-.62,1.2-.6,1.21-.57,1.22-.55,1.23-.52,1.24-.5,1.25-.47,1.26-.45,1.27-.43,1.28-.4,1.29-.38,1.3-.35,1.31-.33,1.31-.3,1.32-.28,1.33-.26,1.34-.23,1.35-.21,1.36-.18,1.37-.16,1.38-.13,1.39-.11,1.4-.08,1.41-.06,2.85-.05,2.03.03,1.96.08,1.9.13,1.84.18,1.78.23.87.14.85.15.84.16.82.17.81.19.79.2.78.21.76.23.74.24.73.25.71.26.7.28.68.29.67.3.65.32.64.33.62.34.61.35.59.37.58.38.56.39.55.41.53.42.51.43.5.45.48.46.47.47.45.48.44.5.42.51.41.52.39.54.38.55.36.56.35.57.33.59.31.6.3.61.28.63.27.64.25.65.24.66.22.68.21.69.19.7.18.72.16.73.15.74.13.75.12.77.1.78.09.79.07.81.07,1.18v.36s.02.36.02.36v.71s-.02.35-.02.35l-.02.35-.03.34-.03.34-.04.34-.05.34-.05.33-.06.33-.07.33-.07.32-.08.32-.09.32-.09.32-.1.31-.11.31-.11.31-.12.3-.13.3-.13.3-.14.3-.15.29-.15.29-.16.29-.17.28-.17.28-.18.28-.19.28-.19.27-.2.27-.21.27-.21.26-.22.26-.23.26-.23.26-.24.25-.25.25-.25.25-.26.24-.27.24-.27.24-.28.24-.58.46-.61.45-.64.44-.66.43-.69.42-.72.41-.74.39-.77.38-.8.37-.82.36-.85.35-.88.34-.9.33-.93.31-.96.3-.98.29-1.01.28-2.1.53-2.21.48-2.32.43-2.42.39-2.53.34-2.64.3-2.74.25-2.85.21-6.02.27-6.45.09h-54.83l1.67-3.07Z"/>
<path data-neon="1" d="M4727.13,344.74l-.04-1.2-.07-1.19-.1-1.18-.13-1.16-.16-1.15-.19-1.14-.22-1.13-.24-1.12-.27-1.11-.3-1.1-.33-1.09-.36-1.07-.39-1.06-.42-1.05-.45-1.04-.47-1.03-.5-1.02-.53-1.01-.56-1-.59-.99-.62-.97-.65-.96-.68-.95-.7-.94-.73-.93-.76-.92-.79-.91-.82-.9-.85-.88-.88-.87-.9-.86-.93-.84-.94-.82-.95-.79-.96-.76-.97-.74-.99-.71-1-.68-1.01-.66-1.02-.63-1.03-.6-1.05-.58-1.06-.55-1.07-.52-1.08-.5-1.1-.47-1.11-.44-1.12-.42-1.13-.39-1.14-.36-1.16-.33-1.17-.31-1.18-.28-1.19-.25-1.21-.23-1.22-.2-1.23-.17-1.24-.15-1.25-.12-1.27-.09-1.28-.07-1.29-.04h-1.3s-2.66.03-2.66.03l-2.62.12-2.58.19-2.55.27-2.51.35-2.47.43-2.43.51-2.39.58-2.36.66-1.16.36-1.15.38-1.15.4-1.14.42-1.13.44-1.12.46-1.11.48-1.1.5-1.09.52-1.08.54-1.07.55-1.06.57-1.05.59-1.04.61-1.03.63-1.02.65-1.01.67-1,.69-1.98,1.44-1.94,1.52-1.9,1.6-1.86,1.67-1.83,1.75-1.79,1.83-1.75,1.91-1.71,1.99-1.67,2.06-1.64,2.14-1.6,2.22-1.56,2.3-1.52,2.38-1.48,2.45-1.93-2.45-1.99-2.38-2.05-2.3-2.11-2.22-2.17-2.14-2.23-2.06-2.29-1.99-2.35-1.91-2.41-1.83-2.47-1.75-2.53-1.67-2.59-1.6-2.66-1.52-2.72-1.44-2.78-1.36-2.84-1.29-2.9-1.21-2.96-1.13-3.02-1.05-3.08-.97-3.14-.9-3.2-.82-3.26-.74-3.32-.66-3.38-.58-3.44-.51-3.5-.43-3.56-.35-3.62-.27-3.68-.19-3.74-.12-3.8-.04-5.22.07-5.19.22-5.15.38-5.12.52-5.09.67-5.06.82-5.03.97-4.99,1.12-4.96,1.27-4.93,1.42-4.9,1.57-4.86,1.72-4.83,1.87-4.8,2.02-4.77,2.17-4.74,2.32-4.7,2.47-4.67,2.62-4.64,2.77-4.61,2.92-4.58,3.07-4.54,3.22-4.51,3.37-4.48,3.52-4.45,3.67-4.41,3.82-4.38,3.97-4.35,4.12-4.32,4.27-4.29,4.42-4.25,4.57-4.22,4.72-4.14,4.82-4.01,4.85-3.88,4.89-3.75,4.93-3.61,4.96-3.48,5-3.35,5.04-3.22,5.08-3.09,5.11-2.96,5.15-2.83,5.19-2.69,5.22-2.56,5.26-2.43,5.3-2.3,5.33-2.17,5.37-2.04,5.41-1.91,5.45-1.77,5.48-1.64,5.52-1.51,5.56-1.38,5.59-1.25,5.63-1.12,5.67-.99,5.7-.85,5.74-.72,5.78-.59,5.82-.46,5.85-.33,5.89-.2,5.93-.07,5.96.03,3.69.1,3.64.16,3.6.23,3.55.29,3.51.36,3.47.42,3.42.49,3.38.55,3.34.61,3.29.68,3.25.74,3.2.81,3.16.87,3.12.94,3.07,1,3.03,1.07,2.98,1.13,2.94,1.2,2.9,1.26,2.85,1.33,2.81,1.39,2.77,1.46,2.72,1.52,2.68,1.59,2.63,1.65,2.59,1.72,2.55,1.78,2.5,1.85,2.46,1.91,2.42,1.97,2.37,2.04,2.33,2.09,2.27,2.13,2.2,2.17,2.13,2.21,2.05,2.25,1.98,2.29,1.91,2.33,1.84,2.37,1.77,2.41,1.69,2.45,1.62,2.49,1.55,2.53,1.48,2.56,1.4,2.6,1.33,2.64,1.26,2.68,1.19,2.72,1.12,2.76,1.04,2.8.97,2.84.9,2.88.83,2.92.76,2.96.68,3,.61,3.04.54,3.08.47,3.12.4,3.16.32,3.2.25,3.24.18,3.27.11,3.31.04,1.75-.02,1.75-.06,1.76-.09,1.77-.13,1.78-.17,1.78-.2,1.79-.24,1.8-.28,1.8-.31,1.81-.35,1.82-.39,1.82-.43,1.83-.46,1.84-.5,3.69-1.11,3.72-1.26,3.75-1.41,3.78-1.55,3.8-1.7,3.83-1.85,3.86-2,3.88-2.15,3.91-2.29-15.45,38.88h-107.17l-5.54.03-5.47.09-5.4.14-5.33.2-5.26.26-5.19.32-5.11.37-5.04.43-4.97.49-4.9.55-4.83.6-4.76.66-4.69.72-4.62.78-4.55.83-4.48.89-4.4.95-4.33,1.01-4.26,1.06-4.19,1.12-4.12,1.18-4.05,1.24-3.98,1.29-3.91,1.35-3.84,1.41-3.76,1.46-3.69,1.52-3.62,1.58-3.55,1.64-3.48,1.69-3.41,1.75-3.34,1.81-5.29,3.06-5.15,3.19-5,3.32-4.86,3.45-4.72,3.58-4.58,3.71-4.43,3.84-4.29,3.97-4.15,4.1-4.01,4.23-3.87,4.36-3.72,4.49-3.58,4.62-3.44,4.75-3.3,4.88-3.16,5.01-2.99,5.1-2.8,5.15-2.6,5.19-2.41,5.23-2.22,5.28-2.02,5.32-1.83,5.37-.84,2.7-.8,2.71-.75,2.72-.7,2.74-.65,2.75-.6,2.76-.55,2.77-.51,2.78-.87,5.59-.67,5.64-.48,5.68-.29,5.73-.1,5.77.05,4.43.15,4.39.25,4.34.35,4.29.45,4.24.55,4.2.65,4.15.75,4.1.85,4.06.95,4.01,1.05,3.96,1.15,3.92,1.25,3.87,1.35,3.82,1.45,3.78,1.55,3.73,1.65,3.68,1.75,3.64,1.85,3.59,1.95,3.54,2.05,3.5,2.15,3.45,2.25,3.4,2.35,3.36,2.44,3.31,2.54,3.26,2.64,3.22,2.74,3.17,2.84,3.12,2.94,3.08,3.04,3.03,3.14,2.98,3.22,2.91,3.27,2.82,3.32,2.73,3.37,2.64,3.42,2.54,3.47,2.45,3.52,2.36,3.57,2.27,3.62,2.17,3.67,2.08,3.72,1.99,3.77,1.9,3.82,1.8,3.87,1.71,3.92,1.62,3.97,1.53,4.02,1.43,4.07,1.34,4.12,1.25,4.17,1.16,4.22,1.06,4.27.97,4.32.88,4.37.79,4.42.69,4.47.6,4.52.51,4.57.42,4.62.32,4.67.23,4.72.14,4.77.05,4.56-.05,4.53-.14,4.49-.23,4.46-.32,4.43-.41,4.39-.5,4.36-.59,4.32-.68,4.29-.78,4.25-.87,4.22-.96,4.19-1.05,4.15-1.14,4.12-1.23,4.08-1.32,4.05-1.41,4.01-1.51,3.98-1.6,3.95-1.69,3.91-1.78,3.88-1.87,3.84-1.96,3.81-2.05,3.77-2.14,3.74-2.24,3.7-2.33,3.67-2.42,3.64-2.51,3.6-2.6,3.57-2.69,3.53-2.78,3.5-2.88,3.46-2.97,3.43-3.06,3.4-3.15,3.36-3.24,3.33-3.33,3.29-3.42,3.26-3.51,3.22-3.61,3.19-3.7,3.16-3.79,3.12-3.88,3.09-3.97,3.05-4.06,3.02-4.15,2.98-4.24,2.95-4.34,2.92-4.43,2.88-4.52,2.85-4.61,2.81-4.7,2.78-4.79,2.74-4.88,2.71-4.97,2.68-5.07,2.64-5.16,2.61-5.25,2.57-5.34,2.54-5.43,2.5-5.52,2.47-5.61,2.43-5.7,2.4-5.8,20.94-51.34h82.75l4.86-.07,4.72-.2,4.59-.34,4.46-.47,4.33-.6,2.11-.35,2.08-.39,2.05-.42,2.01-.45,1.98-.49,1.95-.52,1.92-.55,1.88-.59,1.85-.62,1.82-.66,1.78-.69,1.75-.72,1.72-.76,1.68-.79,1.65-.82,1.62-.86,1.58-.89,1.55-.92,1.52-.96,1.48-.99,1.45-1.02,1.42-1.06,1.38-1.09,1.34-1.11,1.29-1.14,1.25-1.17,1.2-1.19,1.16-1.22,1.12-1.24,1.07-1.27,1.03-1.29.99-1.32.94-1.35.9-1.37.85-1.4.81-1.42.77-1.45.72-1.47.68-1.5.64-1.53.59-1.55.55-1.58.5-1.6.46-1.63.42-1.66.37-1.68.33-1.71.28-1.73.24-1.76.2-1.78.15-1.81.11-1.84.07-1.86.02-1.89-.02-1.36-.05-1.34-.08-1.32-.11-1.3-.14-1.27-.17-1.25-.2-1.23-.23-1.21-.26-1.19-.29-1.17-.32-1.15-.36-1.12-.39-1.1-.42-1.08-.45-1.06-.48-1.04-.51-1.02-.54-1-.57-.97-.6-.95-.63-.93-.66-.91-.7-.89-.73-.87-.76-.85-.79-.82-.82-.8-.85-.78-.88-.76-.91-.74-.94-.72-.97-.7-1-.67-1.04-.65-1.07-.63-1.1-.61-1.13-.59-1.16-.57-1.19-.55-1.22-.52-1.25-.5-1.28-.48-1.31-.46-1.34-.44-1.38-.42-1.41-.4-1.44-.38-1.47-.35-1.5-.33-1.53-.31-3.15-.56-3.28-.47-3.4-.39-3.52-.3-3.65-.21-3.77-.13-3.89-.04h-59.82l125.12-308.06,3.04-7.72,2.63-7.2,2.23-6.69.96-3.15.86-3.02.76-2.9.66-2.77.56-2.64.46-2.51.35-2.38.14-1.14.11-1.11.09-1.08.06-1.05.04-1.01v-.98s0-1.21,0-1.21ZM4415.61,828.09l-3.93,8.46-3.89,8.13-3.85,7.79-3.81,7.45-3.77,7.11-3.73,6.77-3.7,6.43-3.66,6.09-3.62,5.75-3.58,5.42-3.54,5.08-3.5,4.74-3.46,4.4-1.72,2.07-1.71,1.99-1.7,1.9-1.69,1.82-1.69,1.75-1.71,1.69-1.73,1.64-1.74,1.58-1.76,1.53-1.78,1.47-1.8,1.42-1.81,1.36-1.83,1.3-1.85,1.25-1.87,1.19-1.88,1.14-1.9,1.08-1.92,1.03-1.94.97-1.95.92-1.97.86-1.99.8-2.01.75-2.02.69-2.04.64-2.06.58-2.08.53-2.09.47-2.11.42-2.13.36-2.15.31-2.16.25-2.18.19-2.2.14-2.22.08-2.23.03-1.55-.02-1.53-.05-1.52-.08-1.5-.11-1.49-.14-1.47-.18-1.46-.21-1.44-.24-1.43-.27-1.41-.31-1.39-.34-1.38-.37-1.36-.4-1.35-.43-1.33-.47-1.32-.5-1.3-.53-1.29-.56-1.27-.59-1.25-.63-1.24-.66-1.22-.69-1.21-.72-1.19-.75-1.18-.79-1.16-.82-1.15-.85-1.13-.88-1.11-.92-1.1-.95-1.08-.98-1.07-1.01-1.04-1.04-1.01-1.05-.98-1.06-.94-1.08-.91-1.09-.88-1.1-.84-1.12-.81-1.13-.78-1.14-.74-1.16-.71-1.17-.68-1.18-.65-1.2-.61-1.21-.58-1.23-.55-1.24-.51-1.25-.48-1.27-.45-1.28-.41-1.29-.38-1.31-.35-1.32-.31-1.33-.28-1.35-.25-1.36-.22-1.38-.18-1.39-.15-1.4-.12-1.42-.08-1.43-.05-1.44-.02-1.46.02-2.13.07-2.1.12-2.07.17-2.04.22-2.01.27-1.98.31-1.95.36-1.92.41-1.89.46-1.86.51-1.83.55-1.8.6-1.77.65-1.74.7-1.71.75-1.68.8-1.65.84-1.62.89-1.59.94-1.56.99-1.53,1.04-1.5,1.08-1.47,1.13-1.44,1.18-1.41,1.23-1.38,1.28-1.35,1.33-1.32,1.37-1.29,1.42-1.26,1.47-1.23,1.52-1.2,1.56-1.17,1.6-1.13,1.64-1.09,1.68-1.05,1.72-1.02,1.76-.98,1.8-.94,1.84-.91,1.88-.87,1.92-.83,1.96-.8,2-.76,2.03-.72,2.07-.68,2.11-.65,2.15-.61,2.19-.57,2.23-.54,2.27-.5,2.31-.46,2.35-.43,2.39-.39,4.9-.67,5.06-.52,5.21-.37,5.37-.22,5.53-.07h86.24l-3.97,8.8ZM4569.61,433.19v.51s-.04.52-.04.52l-.03.53-.1,1.08-.14,1.12-.18,1.15-.21,1.19-.25,1.22-.29,1.26-.33,1.29-.37,1.33-.41,1.36-.45,1.4-1.01,2.91-1.17,3.05-40.38,98.7-.35.82-.37.81-.38.79-.4.78-.41.77-.43.75-.44.74-.46.73-.47.72-.49.7-.5.69-.52.68-.53.66-.55.65-.57.64-.58.63-.6.61-.61.6-.63.59-.64.57-.66.56-.67.55-.69.54-.7.52-.72.51-.73.5-.75.48-.76.47-.78.46-.8.45-.81.43-.83.42-.84.41-.86.39-.87.38-.89.37-.9.35-.92.34-1.88.65-1.94.59-2,.54-2.07.49-2.13.44-2.19.39-2.25.34-2.31.28-2.37.23-2.43.18-2.49.13-2.56.08-2.62.03-3.01-.05-1.47-.06-1.44-.09-1.42-.11-1.4-.14-1.37-.17-1.35-.19-1.32-.22-1.3-.24-1.28-.27-1.25-.29-1.23-.32-1.2-.34-1.18-.37-1.16-.4-1.13-.42-1.11-.45-1.09-.47-1.06-.5-1.04-.52-1.01-.55-.99-.58-.97-.6-.94-.63-.92-.65-.89-.68-.87-.7-.85-.73-.82-.75-.8-.78-.78-.8-.75-.83-.73-.86-.7-.88-.68-.91-.66-.93-.63-.96-.61-.98-.58-1.01-.56-1.03-.54-1.06-.51-1.09-.49-1.11-.47-1.14-.44-1.16-.42-1.19-.39-1.21-.37-1.24-.35-1.27-.32-1.29-.3-1.32-.27-1.34-.25-1.37-.23-1.39-.2-1.42-.18-1.44-.16-1.47-.24-3.02-.14-3.12-.05-3.22.03-2.86.1-2.85.16-2.84.22-2.83.29-2.82.35-2.82.41-2.81.48-2.8.54-2.79.61-2.78.67-2.77.73-2.76.8-2.75.86-2.74.92-2.73.99-2.72,1.05-2.71,1.12-2.7,1.18-2.7,1.24-2.69,1.31-2.68,1.37-2.67,1.43-2.66,1.5-2.65,1.56-2.64,1.63-2.63,1.69-2.62,1.75-2.61,1.82-2.6,1.88-2.59,3.95-5.16,4.09-4.98,2.06-2.37,2.06-2.29,2.07-2.21,2.08-2.13,2.08-2.05,2.09-1.97,2.09-1.89,2.1-1.81,2.11-1.73,2.11-1.65,2.12-1.57,2.13-1.49,2.13-1.41,2.14-1.33,2.15-1.25,2.15-1.16,2.16-1.08,2.16-1,2.17-.92,2.18-.84,2.18-.76,2.19-.68,2.2-.6,1.1-.27,1.1-.25,1.1-.23,1.1-.21,1.11-.19,1.11-.17,1.11-.15,1.11-.13,1.11-.11,1.11-.09,1.12-.07,1.12-.05,1.12-.03h1.12s2.47.03,2.47.03l2.41.12,2.36.19,1.16.13,1.15.15,1.13.17,1.12.19,1.11.2,1.1.22,1.08.24,1.07.26,1.06.28,1.04.3,1.03.32,1.02.34,1,.36.99.38.98.4.96.42.95.44.94.46.92.48.91.5.9.52.88.54.87.55.86.57.85.59.83.61.81.63.79.64.76.65.74.66.71.67.68.68.66.69.63.7.61.71.58.72.55.73.53.73.5.74.48.75.45.76.43.77.4.78.37.79.35.8.32.81.3.82.27.83.25.84.22.85.19.86.17.87.14.88.12.89.09.9.06.91.04.92v.93s0,.5,0,.5Z"/>
<path data-neon="2" d="M4847.77,457.11 L4864.72,415.24 L4916.56,415.24 L4911.31,421.16 L4906.25,426.97 L4901.4,432.66 L4896.75,438.23 L4892.3,443.69 L4888.06,449.03 L4884.01,454.25 L4880.17,459.35 L4876.54,464.34 L4873.1,469.22 L4869.87,473.97 L4866.84,478.61 L4864.01,483.13 L4861.39,487.53 L4858.97,491.82 L4856.75,495.99 L4854.69,500.11 L4852.77,504.25 L4850.99,508.4 L4849.33,512.57 L4847.81,516.75 L4846.42,520.95 L4845.16,525.16 L4844.03,529.39 L4843.04,533.64 L4842.18,537.9 L4841.45,542.17 L4840.86,546.46 L4840.39,550.77 L4840.06,555.09 L4839.86,559.43 L4839.8,563.79 L4839.83,567.19 L4839.92,570.56 L4840.08,573.89 L4840.29,577.18 L4840.57,580.42 L4840.91,583.63 L4841.31,586.8 L4841.78,589.93 L4842.3,593.01 L4842.89,596.06 L4843.54,599.07 L4844.25,602.04 L4845.02,604.97 L4845.86,607.85 L4846.75,610.7 L4847.71,613.51 L4848.73,616.28 L4849.81,619.01 L4850.96,621.7 L4852.16,624.35 L4853.43,626.95 L4854.76,629.52 L4856.15,632.05 L4857.6,634.54 L4859.12,636.99 L4860.69,639.4 L4862.33,641.77 L4864.03,644.1 L4865.79,646.39 L4867.62,648.64 L4869.5,650.85 L4871.45,653.02 L4873.45,655.13 L4875.48,657.18 L4877.55,659.16 L4879.65,661.08 L4881.79,662.93 L4883.96,664.71 L4886.17,666.42 L4888.42,668.06 L4890.7,669.64 L4893.01,671.15 L4895.36,672.6 L4897.75,673.98 L4900.17,675.29 L4902.63,676.53 L4905.12,677.7 L4907.65,678.81 L4910.22,679.85 L4912.82,680.83 L4915.45,681.74 L4918.13,682.57 L4920.83,683.35 L4923.58,684.05 L4926.35,684.69 L4929.17,685.26 L4932.02,685.77 L4934.9,686.2 L4937.82,686.57 L4940.78,686.87 L4943.77,687.11 L4946.79,687.28 L4949.86,687.38 L4952.95,687.41 L5050.66,687.41 L5055.57,687.35 L5060.35,687.15 L5064.99,686.82 L5069.49,686.35 L5073.85,685.76 L5075.98,685.41 L5078.08,685.03 L5080.14,684.61 L5082.16,684.17 L5084.16,683.69 L5086.11,683.17 L5088.03,682.63 L5089.92,682.05 L5091.77,681.44 L5093.59,680.79 L5095.38,680.11 L5097.13,679.4 L5098.84,678.66 L5100.52,677.88 L5102.17,677.07 L5103.78,676.22 L5105.35,675.35 L5106.9,674.44 L5108.4,673.49 L5109.88,672.52 L5111.31,671.51 L5112.72,670.46 L5114.08,669.39 L5115.4,668.29 L5116.68,667.16 L5117.92,666.01 L5119.11,664.83 L5120.26,663.62 L5121.36,662.38 L5122.42,661.12 L5123.44,659.83 L5124.42,658.51 L5125.35,657.16 L5126.24,655.79 L5127.08,654.39 L5127.88,652.96 L5128.64,651.51 L5129.36,650.03 L5130.03,648.52 L5130.66,646.98 L5131.24,645.42 L5131.78,643.83 L5132.28,642.21 L5132.73,640.56 L5133.15,638.89 L5133.51,637.19 L5133.84,635.46 L5134.12,633.71 L5134.36,631.93 L5134.55,630.12 L5134.71,628.28 L5134.81,626.42 L5134.88,624.53 L5134.9,622.61 L5134.89,621.25 L5134.84,619.91 L5134.76,618.59 L5134.65,617.3 L5134.51,616.02 L5134.34,614.77 L5134.14,613.54 L5133.91,612.33 L5133.65,611.14 L5133.36,609.97 L5133.03,608.83 L5132.68,607.7 L5132.29,606.6 L5131.87,605.52 L5131.42,604.46 L5130.94,603.42 L5130.43,602.4 L5129.89,601.4 L5129.32,600.43 L5128.72,599.48 L5128.09,598.54 L5127.42,597.63 L5126.72,596.74 L5126,595.88 L5125.24,595.03 L5124.45,594.21 L5123.63,593.4 L5122.78,592.62 L5121.9,591.86 L5120.99,591.12 L5120.05,590.4 L5119.07,589.71 L5118.07,589.03 L5117.03,588.38 L5115.97,587.75 L5114.87,587.14 L5113.74,586.55 L5112.58,585.98 L5111.39,585.44 L5110.17,584.91 L5108.92,584.41 L5107.64,583.93 L5106.32,583.46 L5104.98,583.03 L5103.6,582.61 L5102.2,582.21 L5100.76,581.84 L5099.29,581.48 L5097.79,581.15 L5096.26,580.84 L5093.11,580.28 L5089.83,579.81 L5086.43,579.43 L5082.91,579.13 L5079.26,578.91 L5075.49,578.78 L5071.59,578.74 L5008.78,578.74 L5005.96,578.7 L5003.23,578.58 L5000.59,578.38 L4999.3,578.25 L4998.04,578.1 L4996.79,577.92 L4995.57,577.73 L4994.37,577.52 L4993.2,577.29 L4992.05,577.03 L4990.91,576.76 L4989.81,576.47 L4988.72,576.16 L4987.66,575.82 L4986.62,575.47 L4985.6,575.1 L4984.6,574.7 L4983.63,574.29 L4982.67,573.85 L4981.74,573.4 L4980.84,572.92 L4979.95,572.43 L4979.09,571.91 L4978.25,571.38 L4977.43,570.82 L4976.64,570.25 L4975.87,569.65 L4975.12,569.03 L4974.39,568.4 L4973.68,567.74 L4973,567.06 L4972.34,566.37 L4971.7,565.65 L4971.09,564.91 L4970.49,564.16 L4969.92,563.38 L4969.37,562.58 L4968.85,561.76 L4968.34,560.92 L4967.86,560.06 L4967.4,559.19 L4966.97,558.29 L4966.55,557.37 L4966.16,556.43 L4965.79,555.47 L4965.44,554.49 L4965.12,553.49 L4964.82,552.47 L4964.54,551.43 L4964.28,550.37 L4964.04,549.29 L4963.83,548.19 L4963.64,547.06 L4963.47,545.92 L4963.33,544.76 L4963.2,543.58 L4963.1,542.38 L4963.02,541.16 L4962.97,539.91 L4962.93,538.65 L4962.92,537.37 L4962.94,536.07 L4963,534.75 L4963.1,533.41 L4963.23,532.06 L4963.41,530.69 L4963.62,529.31 L4963.87,527.91 L4964.16,526.49 L4964.49,525.05 L4964.86,523.6 L4965.27,522.13 L4965.71,520.64 L4966.19,519.14 L4966.72,517.62 L4967.28,516.08 L4967.88,514.53 L4969.19,511.37 L4970.66,508.15 L4972.29,504.86 L4974.07,501.5 L4976,498.07 L4978.09,494.58 L4980.34,491.02 L4982.74,487.39 L4985.29,483.7 L4988,479.94 L4990.87,476.11 L4993.88,472.21 L4997.06,468.25 L5000.39,464.22 L5003.87,460.12 L5007.51,455.96 L5011.3,451.73 L5015.25,447.43 L5019.35,443.06 L5023.61,438.63 L5028.02,434.13 L5032.59,429.56 L5037.31,424.93 L5042.18,420.22 L5047.67,415.24 L5052.76,415.18 L5057.69,414.99 L5062.45,414.68 L5067.06,414.25 L5071.5,413.69 L5075.79,413.01 L5077.87,412.63 L5079.91,412.21 L5081.91,411.76 L5083.87,411.28 L5085.79,410.77 L5087.67,410.23 L5089.51,409.66 L5091.3,409.06 L5093.06,408.42 L5094.78,407.76 L5096.45,407.06 L5098.09,406.34 L5099.69,405.58 L5101.24,404.79 L5102.76,403.97 L5104.23,403.12 L5105.67,402.24 L5107.06,401.33 L5108.41,400.39 L5109.73,399.41 L5111,398.41 L5112.23,397.37 L5113.42,396.31 L5114.58,395.21 L5115.69,394.08 L5116.76,392.92 L5117.79,391.73 L5118.78,390.51 L5119.73,389.26 L5120.64,387.97 L5121.51,386.66 L5122.33,385.32 L5123.12,383.94 L5123.87,382.53 L5124.58,381.1 L5125.24,379.63 L5125.87,378.13 L5126.46,376.6 L5127,375.04 L5127.51,373.45 L5127.97,371.82 L5128.39,370.17 L5128.78,368.48 L5129.12,366.77 L5129.42,365.02 L5129.69,363.24 L5129.91,361.44 L5130.09,359.6 L5130.23,357.73 L5130.33,355.83 L5130.39,353.89 L5130.41,351.93 L5130.4,350.51 L5130.35,349.11 L5130.27,347.73 L5130.16,346.38 L5130.02,345.05 L5129.84,343.74 L5129.63,342.45 L5129.39,341.18 L5129.12,339.94 L5128.82,338.72 L5128.49,337.52 L5128.12,336.35 L5127.72,335.19 L5127.29,334.06 L5126.83,332.95 L5126.33,331.87 L5125.81,330.8 L5125.25,329.76 L5124.66,328.74 L5124.04,327.75 L5123.38,326.77 L5122.7,325.82 L5121.98,324.89 L5121.23,323.98 L5120.45,323.1 L5119.64,322.24 L5118.79,321.4 L5117.92,320.58 L5117.01,319.79 L5116.07,319.01 L5115.09,318.26 L5114.09,317.54 L5113.05,316.83 L5111.98,316.15 L5110.88,315.49 L5109.75,314.85 L5108.59,314.23 L5107.39,313.64 L5106.17,313.07 L5104.91,312.52 L5103.62,311.99 L5102.29,311.49 L5100.94,311.01 L5099.55,310.55 L5098.13,310.11 L5096.68,309.7 L5095.2,309.31 L5093.68,308.94 L5092.14,308.59 L5090.56,308.26 L5087.31,307.68 L5083.93,307.19 L5080.42,306.79 L5076.78,306.47 L5073.02,306.25 L5069.13,306.12 L5065.11,306.07 L4948.47,306.07 L4942.88,306.02 L4937.84,305.88 L4933.35,305.65 L4931.31,305.5 L4929.4,305.32 L4927.63,305.12 L4926,304.9 L4924.5,304.66 L4923.8,304.53 L4923.14,304.39 L4922.51,304.24 L4921.91,304.1 L4921.35,303.94 L4920.82,303.78 L4920.33,303.61 L4920.1,303.53 L4919.87,303.44 L4919.66,303.35 L4919.45,303.26 L4919.25,303.17 L4919.06,303.08 L4918.87,302.98 L4918.69,302.88 L4918.5,302.78 L4918.32,302.67 L4918.14,302.56 L4917.96,302.44 L4917.78,302.32 L4917.61,302.19 L4917.43,302.06 L4917.26,301.93 L4917.09,301.79 L4916.92,301.64 L4916.75,301.49 L4916.58,301.34 L4916.42,301.18 L4916.25,301.02 L4916.09,300.86 L4915.93,300.69 L4915.61,300.33 L4915.3,299.96 L4914.99,299.57 L4914.69,299.17 L4914.4,298.74 L4914.11,298.3 L4913.82,297.85 L4913.55,297.37 L4913.27,296.88 L4913.01,296.36 L4912.75,295.84 L4912.49,295.29 L4912.25,294.73 L4912,294.14 L4911.77,293.55 L4911.31,292.3 L4910.88,290.98 L4910.47,289.59 L4910.08,288.12 L4906.1,272.67 L4905.54,270.52 L4904.93,268.45 L4904.6,267.43 L4904.26,266.44 L4903.9,265.46 L4903.53,264.49 L4903.15,263.55 L4902.75,262.62 L4902.34,261.71 L4901.92,260.81 L4901.48,259.94 L4901.03,259.08 L4900.56,258.23 L4900.08,257.41 L4899.59,256.6 L4899.08,255.8 L4898.56,255.03 L4898.03,254.27 L4897.48,253.53 L4896.91,252.81 L4896.34,252.1 L4895.74,251.41 L4895.14,250.74 L4894.52,250.08 L4893.89,249.44 L4893.24,248.82 L4892.58,248.21 L4891.91,247.63 L4891.22,247.05 L4890.52,246.5 L4889.8,245.96 L4889.07,245.44 L4888.33,244.94 L4887.57,244.46 L4886.8,243.99 L4886.02,243.54 L4885.22,243.1 L4884.4,242.68 L4883.58,242.28 L4882.74,241.9 L4881.88,241.53 L4881.01,241.19 L4880.13,240.85 L4879.24,240.54 L4878.33,240.24 L4877.4,239.96 L4876.46,239.69 L4875.51,239.45 L4874.55,239.22 L4873.57,239 L4872.57,238.81 L4871.57,238.63 L4870.55,238.47 L4869.51,238.32 L4867.4,238.08 L4865.23,237.91 L4863.01,237.81 L4860.73,237.78 L4859.57,237.79 L4858.41,237.83 L4857.27,237.89 L4856.13,237.97 L4855,238.08 L4853.87,238.22 L4852.76,238.38 L4851.65,238.56 L4850.55,238.77 L4849.46,239.01 L4848.38,239.26 L4847.31,239.55 L4846.25,239.85 L4845.19,240.19 L4844.14,240.54 L4843.1,240.92 L4842.07,241.33 L4841.04,241.76 L4840.03,242.22 L4839.02,242.69 L4838.02,243.2 L4837.03,243.73 L4836.05,244.28 L4835.08,244.86 L4834.11,245.46 L4833.15,246.09 L4832.21,246.74 L4831.26,247.41 L4830.33,248.12 L4829.41,248.84 L4828.49,249.59 L4827.58,250.36 L4826.69,251.16 L4825.79,251.99 L4824.91,252.84 L4824.04,253.71 L4823.17,254.61 L4822.31,255.53 L4821.46,256.47 L4820.62,257.44 L4818.96,259.46 L4817.34,261.57 L4815.75,263.79 L4814.19,266.1 L4812.66,268.51 L4811.17,271.01 L4809.71,273.62 L4808.28,276.32 L4806.89,279.13 L4805.53,282.03 L4804.2,285.03 L4802.91,288.12 L4746.58,427.2 L4744.01,433.81 L4741.78,439.91 L4739.9,445.52 L4738.36,450.63 L4737.71,453 L4737.16,455.24 L4736.69,457.36 L4736.3,459.35 L4736,461.22 L4735.88,462.11 L4735.79,462.97 L4735.71,463.79 L4735.66,464.59 L4735.62,465.35 L4735.61,466.08 L4735.63,467.32 L4735.67,468.55 L4735.75,469.77 L4735.85,470.97 L4735.98,472.16 L4736.14,473.33 L4736.33,474.5 L4736.55,475.65 L4736.8,476.79 L4737.07,477.91 L4737.38,479.03 L4737.72,480.13 L4738.08,481.22 L4738.48,482.29 L4738.9,483.35 L4739.35,484.4 L4739.83,485.44 L4740.35,486.47 L4740.89,487.48 L4741.46,488.48 L4742.05,489.46 L4742.68,490.44 L4743.34,491.4 L4744.03,492.35 L4744.74,493.28 L4745.49,494.21 L4746.26,495.12 L4747.06,496.02 L4747.9,496.9 L4748.76,497.77 L4749.65,498.64 L4750.57,499.48 L4751.51,500.31 L4752.47,501.11 L4753.44,501.89 L4754.42,502.64 L4755.42,503.36 L4756.44,504.06 L4757.47,504.73 L4758.51,505.37 L4759.57,505.99 L4760.65,506.58 L4761.73,507.15 L4762.84,507.68 L4763.95,508.2 L4765.09,508.68 L4766.23,509.14 L4767.39,509.58 L4768.57,509.98 L4769.76,510.37 L4770.96,510.72 L4772.18,511.05 L4773.42,511.35 L4774.67,511.63 L4775.93,511.88 L4777.21,512.1 L4778.5,512.3 L4779.81,512.47 L4781.13,512.61 L4782.46,512.73 L4783.81,512.82 L4785.18,512.89 L4786.56,512.93 L4787.96,512.94 L4789.1,512.93 L4790.25,512.89 L4791.38,512.82 L4792.51,512.72 L4793.63,512.6 L4794.75,512.45 L4795.86,512.27 L4796.96,512.07 L4798.05,511.84 L4799.14,511.58 L4800.22,511.29 L4801.3,510.98 L4802.36,510.64 L4803.43,510.27 L4804.48,509.87 L4805.53,509.45 L4806.57,509 L4807.6,508.53 L4808.63,508.02 L4809.65,507.49 L4810.66,506.93 L4811.67,506.34 L4812.67,505.73 L4813.66,505.09 L4814.64,504.42 L4815.62,503.73 L4816.6,503.01 L4817.56,502.26 L4818.52,501.48 L4819.47,500.67 L4820.42,499.84 L4821.35,498.98 L4822.28,498.1 L4823.21,497.18 L4824.13,496.24 L4825.04,495.28 L4826.84,493.26 L4828.61,491.13 L4830.36,488.9 L4832.08,486.55 L4833.77,484.1 L4835.44,481.54 L4837.07,478.87 L4838.68,476.09 L4840.27,473.2 L4841.82,470.2 L4843.35,467.09 L4844.85,463.87 L4846.33,460.55 L4847.77,457.11 Z"/>
<path data-neon="3" d="M2601.08,621.73l-.05-1.35-.08-1.33-.11-1.31-.14-1.29-.17-1.27-.2-1.25-.23-1.22-.26-1.2-.29-1.18-.32-1.16-.35-1.14-.38-1.12-.41-1.09-.44-1.07-.48-1.05-.51-1.03-.54-1.01-.57-.99-.6-.96-.63-.94-.66-.92-.69-.9-.72-.88-.75-.86-.78-.83-.81-.81-.84-.79-.87-.77-.9-.75-.94-.73-.97-.7-1-.68-1.03-.66-1.06-.64-1.09-.62-1.12-.6-1.15-.57-1.18-.55-1.21-.53-1.24-.51-1.27-.49-1.3-.47-1.33-.44-1.36-.42-1.4-.4-1.43-.38-1.46-.36-1.49-.34-1.52-.31-3.13-.56-3.25-.48-3.37-.39-3.5-.3-3.62-.22-3.74-.13-3.86-.04h-148.05l-3.47-.04-3.36-.11-3.25-.18-3.14-.26-3.03-.33-2.92-.4-2.81-.47-2.7-.55-1.31-.3-1.28-.32-1.25-.34-1.22-.36-1.2-.37-1.17-.39-1.14-.41-1.11-.43-1.09-.45-1.06-.47-1.03-.48-1-.5-.98-.52-.95-.54-.92-.56-.89-.57-.87-.59-.84-.61-.81-.63-.78-.65-.76-.67-.73-.68-.7-.7-.67-.72-.65-.74-.62-.76-.59-.78-.56-.79-.54-.81-.51-.83-.48-.85-.45-.87-.43-.89-.4-.9-.37-.92-.34-.94-.32-.96-.29-.98-.26-1-.23-1.01-.21-1.03-.18-1.05-.15-1.07-.12-1.09-.1-1.1-.07-1.12-.04-1.14v-1.16s99.68,0,99.68,0l7.42-.07,7.19-.22,6.96-.36,6.72-.5,6.49-.65,6.25-.79,6.02-.94,5.79-1.08,5.55-1.22,2.69-.67,2.63-.7,2.57-.74,2.51-.77,2.46-.81,2.4-.85,2.34-.88,2.28-.92,2.22-.95,2.16-.99,2.1-1.03,2.05-1.06,1.99-1.1,1.93-1.13,3.37-2.06,3.27-2.13,3.16-2.2,3.05-2.26,2.95-2.33,2.84-2.4,2.73-2.47,2.62-2.54,2.52-2.6,2.41-2.67,1.16-1.36,1.14-1.38,1.11-1.4,1.08-1.41,1.06-1.43,1.03-1.45,1-1.46.98-1.48.95-1.5.92-1.52.9-1.53.87-1.55.84-1.57.82-1.58.79-1.6.76-1.62.74-1.63.71-1.65,1.34-3.35,1.23-3.42,1.12-3.49,1.02-3.56.91-3.63.8-3.69.7-3.76.59-3.83.48-3.9.37-3.97.27-4.04.16-4.1.05-4.17-.04-3.47-.12-3.43-.19-3.38-.27-3.34-.35-3.3-.43-3.26-.5-3.21-.58-3.17-.66-3.13-.74-3.09-.81-3.04-.89-3-.97-2.96-1.04-2.92-1.12-2.88-1.2-2.83-1.28-2.79-1.35-2.75-1.43-2.71-1.51-2.66-1.59-2.62-1.66-2.58-1.74-2.54-1.82-2.49-1.9-2.45-1.97-2.41-2.05-2.37-2.13-2.32-2.21-2.28-2.28-2.24-2.36-2.2-2.44-2.16-2.5-2.1-2.55-2.03-2.6-1.97-2.65-1.9-2.7-1.83-2.75-1.77-2.8-1.7-2.85-1.63-2.9-1.57-2.95-1.5-3-1.43-3.05-1.37-3.1-1.3-3.15-1.23-3.2-1.17-3.25-1.1-3.3-1.03-3.35-.97-3.4-.9-3.45-.83-3.5-.77-3.55-.7-3.61-.63-3.66-.57-3.71-.5-3.76-.43-3.81-.37-3.86-.3-3.91-.23-3.96-.17-4.01-.1-4.06-.03-5.58.07-5.54.2-5.49.34-5.44.48-5.39.61-5.34.75-5.29.89-5.25,1.02-5.2,1.16-5.15,1.29-5.1,1.43-5.05,1.57-5.01,1.7-4.96,1.84-4.91,1.98-4.86,2.11-4.81,2.25-4.76,2.39-4.72,2.52-4.67,2.66-4.62,2.79-4.57,2.93-4.52,3.07-4.48,3.2-4.43,3.34-4.38,3.48-4.33,3.61-4.28,3.75-4.23,3.88-4.19,4.02-4.14,4.16-4.09,4.29-4,4.39-3.88,4.44-3.75,4.49-3.62,4.54-3.49,4.59-3.37,4.65-3.24,4.7-3.11,4.75-2.99,4.8-2.86,4.85-2.73,4.9-2.6,4.96-2.48,5.01-2.35,5.06-2.22,5.11-2.1,5.16-1.97,5.21-1.84,5.26-1.72,5.32-1.59,5.37-1.46,5.42-1.33,5.47-1.21,5.52-1.08,5.57-.95,5.63-.83,5.68-.7,5.73-.57,5.78-.44,5.83-.32,5.88-.19,5.94-.06,5.99.04,4.64.12,4.57.2,4.5.28,4.43.36,4.36.44,4.29.52,4.22.6,4.15.68,4.08.76,4.01.84,3.94.92,3.87,1,3.8,1.08,3.73,1.16,3.66,1.24,3.59,1.33,3.52,1.41,3.45,1.49,3.38,1.57,3.31,1.65,3.24,1.73,3.17,1.81,3.1,1.89,3.03,1.97,2.96,2.05,2.89,2.13,2.82,2.21,2.75,2.29,2.68,2.37,2.61,2.45,2.54,2.53,2.47,2.61,2.39,2.68,2.32,2.75,2.24,2.83,2.16,2.9,2.09,2.97,2.01,3.05,1.94,3.12,1.86,3.2,1.78,3.27,1.71,3.34,1.63,3.42,1.56,3.49,1.48,3.56,1.41,3.64,1.33,3.71,1.25,3.78,1.18,3.86,1.1,3.93,1.03,4,.95,4.08.87,4.15.8,4.22.72,4.3.65,4.37.57,4.44.49,4.52.42,4.59.34,4.67.27,4.74.19,4.81.11,4.89.04h141.07l4.92-.07,4.78-.2,4.64-.33,4.5-.46,4.36-.6,2.13-.35,2.09-.38,2.06-.41,2.03-.45,1.99-.48,1.96-.51,1.92-.55,1.89-.58,1.85-.61,1.82-.65,1.78-.68,1.75-.71,1.71-.74,1.68-.78,1.65-.81,1.61-.84,1.58-.88,1.54-.91,1.51-.94,1.47-.98,1.44-1.01,1.4-1.04,1.36-1.07,1.32-1.1,1.28-1.12,1.23-1.15,1.19-1.18,1.15-1.2,1.1-1.23,1.06-1.26,1.02-1.28.97-1.31.93-1.34.89-1.36.84-1.39.8-1.41.76-1.44.71-1.47.67-1.49.63-1.52.58-1.55.54-1.57.5-1.6.45-1.62.41-1.65.37-1.68.32-1.7.28-1.73.24-1.76.2-1.78.15-1.81.11-1.83.07-1.86.02-1.89-.02-1.38ZM2359.51,447.56l1.71-2.97,1.75-2.87,1.78-2.77,1.82-2.68,1.86-2.58,1.9-2.48,1.94-2.39,1.97-2.29,2.01-2.19,2.05-2.09,2.09-2,2.13-1.9,1.08-.91,1.09-.89,1.1-.86,1.11-.84,1.12-.82,1.12-.79,1.13-.77,1.14-.74,1.15-.72,1.16-.69,1.17-.67,1.18-.65,1.19-.62,1.2-.6,1.21-.57,1.22-.55,1.23-.52,1.24-.5,1.25-.47,1.26-.45,1.27-.43,1.28-.4,1.29-.38,1.3-.35,1.3-.33,1.31-.3,1.32-.28,1.33-.26,1.34-.23,1.35-.21,1.36-.18,1.37-.16,1.38-.13,1.39-.11,1.4-.08,1.41-.06,2.85-.05,2.03.03,1.96.08,1.9.13,1.84.18,1.78.23.87.14.85.15.84.16.82.17.81.19.79.2.78.21.76.23.74.24.73.25.71.26.7.28.68.29.67.3.65.32.64.33.62.34.61.35.59.37.58.38.56.39.55.41.53.42.51.43.5.45.48.46.47.47.45.48.44.5.42.51.41.52.39.54.38.55.36.56.35.57.33.59.32.6.3.61.28.63.27.64.25.65.24.66.22.68.21.69.19.7.18.72.16.73.15.74.13.75.12.77.1.78.09.79.07.81.07,1.18v.36s.02.36.02.36v.36s0,.35,0,.35v.35s-.03.35-.03.35l-.03.34-.03.34-.04.34-.05.34-.05.33-.06.33-.07.33-.07.32-.08.32-.09.32-.09.32-.1.31-.11.31-.11.31-.12.3-.13.3-.13.3-.14.3-.15.29-.15.29-.16.29-.17.28-.17.28-.18.28-.19.28-.19.27-.2.27-.21.27-.21.26-.22.26-.23.26-.23.26-.24.25-.25.25-.25.25-.26.24-.27.24-.27.24-.28.24-.58.46-.61.45-.64.44-.66.43-.69.42-.72.41-.74.39-.77.38-.8.37-.82.36-.85.35-.88.34-.9.33-.93.31-.96.3-.98.29-1.01.28-2.1.53-2.21.48-2.32.43-2.42.39-2.53.34-2.64.3-2.74.25-2.85.21-6.02.27-6.45.09h-54.83l1.67-3.07Z"/>
<path data-neon="4" d="M5614.93,621.25l-.05-1.34-.08-1.32-.11-1.3-.14-1.27-.17-1.25-.2-1.23-.23-1.21-.26-1.19-.29-1.17-.32-1.15-.35-1.12-.38-1.1-.41-1.08-.44-1.06-.48-1.04-.51-1.02-.54-1-.57-.97-.6-.95-.63-.93-.66-.91-.69-.89-.72-.87-.75-.85-.78-.82-.81-.8-.84-.78-.87-.76-.9-.74-.94-.72-.97-.7-1-.67-1.03-.65-1.06-.63-1.09-.61-1.12-.59-1.15-.57-1.18-.55-1.21-.52-1.24-.5-1.27-.48-1.3-.46-1.33-.44-1.36-.42-1.4-.4-1.43-.37-1.46-.35-1.49-.33-1.52-.31-3.13-.56-3.25-.47-3.37-.39-3.5-.3-3.62-.21-3.74-.13-3.86-.04h-54.83l77.27-190.92,1.87-4.77.84-2.32.78-2.28.72-2.24.65-2.19.59-2.15.53-2.11.47-2.07.41-2.02.34-1.98.28-1.94.22-1.89.16-1.85.09-1.81.03-1.77v-1.27s-.06-1.26-.06-1.26l-.07-1.25-.1-1.23-.13-1.22-.16-1.21-.19-1.2-.22-1.18-.24-1.17-.27-1.16-.3-1.14-.33-1.13-.36-1.12-.39-1.11-.42-1.09-.45-1.08-.47-1.07-.5-1.06-.53-1.04-.56-1.03-.59-1.02-.62-1.01-.65-.99-.68-.98-.7-.97-.73-.95-.76-.94-.79-.93-.82-.92-.85-.9-.88-.89-.9-.88-.93-.86-.94-.83-.95-.8-.97-.78-.98-.75-1-.72-1.01-.7-1.03-.67-1.04-.64-1.05-.61-1.07-.59-1.08-.56-1.1-.53-1.11-.5-1.12-.48-1.14-.45-1.15-.42-1.17-.4-1.18-.37-1.19-.34-1.21-.31-1.22-.29-1.24-.26-1.25-.23-1.26-.2-1.28-.18-1.29-.15-1.31-.12-1.32-.1-1.34-.07-1.35-.04h-1.36s-2.51.02-2.51.02l-2.48.11-2.45.18-2.42.26-2.39.33-2.36.4-2.33.47-2.3.55-2.27.62-2.24.69-2.21.77-2.18.84-2.15.91-2.12.99-2.09,1.06-2.06,1.13-2.03,1.2-2,1.28-1.97,1.35-1.94,1.42-1.9,1.5-1.87,1.57-1.84,1.64-1.81,1.72-1.78,1.79-1.75,1.86-1.72,1.94-1.69,2.01-1.66,2.08-1.63,2.15-1.6,2.23-1.57,2.3-1.87-2.73-1.94-2.64-2.01-2.56-2.07-2.47-2.14-2.38-2.21-2.3-2.27-2.21-2.34-2.12-2.41-2.04-2.48-1.95-2.54-1.86-2.61-1.78-2.68-1.69-2.75-1.6-2.81-1.52-2.88-1.43-2.95-1.34-3.01-1.26-3.08-1.17-3.15-1.08-3.22-1-3.28-.91-3.35-.82-3.42-.74-3.48-.65-3.55-.56-3.62-.48-3.69-.39-3.75-.3-3.82-.22-3.89-.13-3.95-.04-5.19.07-5.15.22-5.12.37-5.09.52-5.05.66-5.02.81-4.98.96-4.95,1.11-4.92,1.25-4.88,1.4-4.85,1.55-4.82,1.7-4.78,1.84-4.75,1.99-4.72,2.14-4.68,2.29-4.65,2.43-4.62,2.58-4.58,2.73-4.55,2.88-4.51,3.02-4.48,3.17-4.45,3.32-4.41,3.47-4.38,3.61-4.35,3.76-4.31,3.91-4.28,4.06-4.25,4.2-4.21,4.35-4.18,4.5-4.15,4.65-4.06,4.74-3.93,4.78-3.81,4.82-3.68,4.86-3.55,4.9-3.42,4.94-3.29,4.98-3.16,5.02-3.03,5.06-2.9,5.09-2.77,5.13-2.64,5.17-2.52,5.21-2.39,5.25-2.26,5.29-2.13,5.33-2,5.37-1.87,5.41-1.74,5.45-1.61,5.49-1.48,5.53-1.35,5.57-1.23,5.61-1.1,5.65-.97,5.69-.84,5.73-.71,5.76-.58,5.8-.45,5.84-.32,5.88-.19,5.92-.06,5.96.03,3.93.1,3.89.16,3.84.23,3.79.3,3.74.36,3.7.43,3.65.49,3.6.56,3.56.62,3.51.69,3.46.76,3.41.82,3.37.89,3.32.95,3.27,1.02,3.22,1.08,3.18,1.15,3.13,1.22,3.08,1.28,3.04,1.35,2.99,1.41,2.94,1.48,2.89,1.54,2.85,1.61,2.8,1.68,2.75,1.74,2.71,1.81,2.66,1.87,2.61,1.94,2.56,2,2.52,2.07,2.47,2.12,2.41,2.17,2.33,2.21,2.25,2.25,2.18,2.29,2.1,2.33,2.03,2.37,1.95,2.41,1.87,2.45,1.8,2.5,1.72,2.54,1.64,2.58,1.57,2.62,1.49,2.66,1.41,2.7,1.34,2.74,1.26,2.79,1.18,2.83,1.11,2.87,1.03,2.91.96,2.95.88,2.99.8,3.03.73,3.08.65,3.12.57,3.16.5,3.2.42,3.24.34,3.28.27,3.32.19,3.36.11,3.41.04h56.83l2.18-.03,2.19-.1,2.19-.16,2.2-.23,2.2-.29,2.21-.36,2.21-.42,2.22-.49,2.22-.55,2.23-.62,2.23-.68,2.24-.75,2.24-.82,2.25-.88,2.25-.95,2.26-1.01,2.26-1.08,2.27-1.14,2.27-1.21,2.28-1.27,2.28-1.34,2.29-1.4,2.29-1.47,2.3-1.53,2.3-1.6,2.3-1.66,4.62-3.52,4.64-3.78,4.66-4.04.99,2.05,1.05,1.99.54.97.56.95.57.94.58.92.6.91.61.89.62.87.64.86.65.84.66.82.68.81.69.79.7.77.72.76.73.74.74.73.76.71.77.69.78.68.8.66.81.64.82.63.84.61.85.6.86.58.88.56.89.55.9.53.92.51.93.5.94.48.96.46.97.45.98.43,1,.42,1.01.4,1.02.38,1.04.37,1.05.35,1.07.33,2.17.62,2.22.55,2.28.49,2.33.42,2.38.36,2.44.29,2.49.23,2.55.16,2.6.1,2.65.03h63.81l4.86-.07,4.72-.2,4.59-.34,4.46-.47,4.33-.6,2.11-.35,2.08-.39,2.05-.42,2.01-.45,1.98-.49,1.95-.52,1.92-.55,1.88-.59,1.85-.62,1.82-.66,1.78-.69,1.75-.72,1.72-.76,1.68-.79,1.65-.82,1.62-.86,1.58-.89,1.55-.92,1.52-.96,1.48-.99,1.45-1.02,1.42-1.06,1.38-1.09,1.34-1.11,1.29-1.14,1.25-1.17,1.2-1.19,1.16-1.22,1.12-1.24,1.07-1.27,1.03-1.29.99-1.32.94-1.35.9-1.37.85-1.4.81-1.42.77-1.45.72-1.47.68-1.5.64-1.53.59-1.55.55-1.58.5-1.6.46-1.63.42-1.66.37-1.68.33-1.71.28-1.73.24-1.76.2-1.78.15-1.81.11-1.84.07-1.86.02-1.89-.02-1.36ZM5425.01,433.91l-.02.73-.08,1.5-.14,1.54-.19,1.58-.25,1.63-.3,1.67-.35,1.71-.41,1.75-.46,1.8-.52,1.84-.57,1.88-.63,1.93-.68,1.97-.74,2.01-1.64,4.15-34.89,86.24-.87,2.05-.92,1.99-.48.97-.49.95-.51.94-.52.92-.53.91-.55.89-.56.87-.57.86-.59.84-.6.82-.61.81-.63.79-.64.77-.66.76-.67.74-.68.73-.7.71-.71.69-.72.68-.74.66-.75.64-.76.63-.78.61-.79.6-.8.58-.82.56-.83.55-.84.53-.86.51-.87.5-.88.48-.9.46-.91.45-.92.43-.94.42-.95.4-.96.38-.98.37-.99.35-1,.33-1.02.32-1.03.3-1.04.29-1.06.27-2.15.49-2.21.42-2.26.36-2.31.29-2.37.23-2.42.16-2.47.1-2.53.03h-13.75s-1.26-.05-1.26-.05l-1.24-.06-1.22-.09-1.2-.11-1.18-.14-1.16-.16-1.14-.19-1.12-.21-1.1-.24-1.08-.26-1.06-.29-1.04-.31-1.02-.34-1-.36-.98-.39-.96-.41-.94-.44-.92-.46-.9-.49-.88-.51-.86-.54-.84-.56-.82-.59-.8-.61-.78-.64-.76-.66-.74-.69-.72-.71-.7-.74-.68-.76-.66-.79-.64-.81-.62-.84-.6-.86-.58-.89-.56-.92-.54-.94-.52-.97-.49-.99-.47-1.02-.45-1.04-.43-1.07-.41-1.09-.39-1.12-.37-1.14-.35-1.17-.33-1.19-.31-1.22-.29-1.24-.27-1.27-.25-1.29-.23-1.32-.21-1.34-.36-2.76-.28-2.86-.2-2.96-.12-3.06-.04-3.16.03-2.83.1-2.83.17-2.82.24-2.81.3-2.81.37-2.8.44-2.8.5-2.79.57-2.79.64-2.78.71-2.77.77-2.77.84-2.76.91-2.76.97-2.75,1.04-2.74,1.11-2.74,1.18-2.73,1.24-2.73,1.31-2.72,1.38-2.72,1.44-2.71,1.51-2.7,1.58-2.7,1.65-2.69,1.71-2.69,1.78-2.68,1.85-2.67,1.91-2.67,1.98-2.66,4.17-5.31,4.31-5.13,2.16-2.44,2.16-2.36,2.17-2.28,2.17-2.19,2.18-2.11,2.18-2.03,2.18-1.94,2.19-1.86,2.19-1.78,2.19-1.7,2.2-1.61,2.2-1.53,2.21-1.45,2.21-1.37,2.21-1.28,2.22-1.2,2.22-1.12,2.23-1.03,2.23-.95,2.23-.87,2.24-.79,2.24-.7,2.25-.62,1.12-.28,1.12-.26,1.13-.24,1.13-.22,1.13-.2,1.13-.18,1.13-.16,1.13-.13,1.13-.11,1.13-.09,1.13-.07,1.13-.05,1.14-.03h1.14s2.29.03,2.29.03l1.13.05,1.12.07,1.11.09,1.1.11,1.09.13,1.08.15,1.07.17,1.06.18,1.05.2,1.04.22,1.02.24,1.01.26,1,.28.99.3.98.32.97.34.96.36.95.38.94.4.93.42.92.44.91.46.9.48.89.5.88.52.87.54.86.55.85.57.84.59.83.61.81.63.79.63.76.64.74.65.71.65.68.66.66.67.63.67.61.68.58.69.55.69.53.7.5.71.48.72.45.72.43.73.4.74.37.74.35.75.32.76.3.76.27.77.25.78.22.78.19.79.17.8.14.8.12.81.09.82.06.82.04.83v.84s0,.72,0,.72Z"/>
<path data-neon="5" d="M1944.09,327.51 L2038.81,94.21 L2041.84,86.6 L2044.48,79.48 L2045.64,76.1 L2046.7,72.83 L2047.67,69.69 L2048.53,66.67 L2049.29,63.77 L2049.94,60.99 L2050.5,58.34 L2050.96,55.8 L2051.31,53.38 L2051.45,52.22 L2051.56,51.09 L2051.65,49.98 L2051.72,48.91 L2051.75,47.87 L2051.77,46.86 L2051.75,45.65 L2051.71,44.45 L2051.64,43.26 L2051.54,42.09 L2051.41,40.92 L2051.25,39.77 L2051.06,38.63 L2050.85,37.5 L2050.6,36.38 L2050.33,35.27 L2050.03,34.17 L2049.7,33.08 L2049.34,32.01 L2048.95,30.94 L2048.54,29.89 L2048.09,28.85 L2047.62,27.82 L2047.11,26.8 L2046.58,25.79 L2046.02,24.8 L2045.43,23.81 L2044.82,22.84 L2044.17,21.87 L2043.5,20.92 L2042.79,19.98 L2042.06,19.05 L2041.3,18.13 L2040.51,17.23 L2039.69,16.33 L2038.84,15.44 L2037.97,14.57 L2037.06,13.71 L2036.14,12.86 L2035.2,12.05 L2034.25,11.26 L2033.3,10.5 L2032.33,9.76 L2031.35,9.05 L2030.35,8.37 L2029.35,7.71 L2028.34,7.08 L2027.31,6.48 L2026.27,5.9 L2025.23,5.35 L2024.17,4.83 L2023.1,4.34 L2022.02,3.87 L2020.92,3.43 L2019.82,3.01 L2018.7,2.62 L2017.58,2.26 L2016.44,1.93 L2015.29,1.62 L2014.13,1.34 L2012.96,1.08 L2011.78,.86 L2010.59,.66 L2009.38,.48 L2008.17,.33 L2006.94,.21 L2005.7,.12 L2004.45,.05 L2003.19,.01 L2001.92,0 L2000.38,.02 L1998.85,.07 L1997.34,.15 L1995.83,.27 L1994.34,.42 L1992.85,.6 L1991.37,.82 L1989.91,1.07 L1988.45,1.36 L1987.01,1.68 L1985.57,2.03 L1984.15,2.42 L1982.73,2.84 L1981.33,3.29 L1979.94,3.78 L1978.55,4.3 L1977.18,4.85 L1975.82,5.44 L1974.46,6.06 L1973.12,6.72 L1971.79,7.41 L1970.46,8.13 L1969.15,8.88 L1967.85,9.67 L1966.56,10.5 L1965.28,11.35 L1964.01,12.24 L1962.74,13.17 L1961.49,14.12 L1960.25,15.12 L1959.02,16.14 L1957.8,17.2 L1956.59,18.29 L1955.39,19.41 L1954.2,20.57 L1953.02,21.77 L1951.86,22.99 L1950.7,24.25 L1948.41,26.87 L1946.16,29.63 L1943.96,32.51 L1941.79,35.54 L1939.67,38.69 L1937.59,41.99 L1935.55,45.41 L1933.55,48.97 L1931.59,52.67 L1929.67,56.5 L1927.79,60.46 L1925.95,64.56 L1924.15,68.79 L1701.83,617.13 L1700.08,621.78 L1699.29,624.05 L1698.56,626.28 L1697.89,628.48 L1697.27,630.63 L1696.72,632.75 L1696.22,634.82 L1695.78,636.86 L1695.4,638.86 L1695.08,640.82 L1694.82,642.74 L1694.62,644.62 L1694.47,646.46 L1694.38,648.26 L1694.35,650.03 L1694.37,651.17 L1694.41,652.31 L1694.48,653.44 L1694.58,654.55 L1694.71,655.66 L1694.86,656.75 L1695.04,657.83 L1695.26,658.9 L1695.5,659.97 L1695.76,661.02 L1696.06,662.06 L1696.39,663.09 L1696.74,664.11 L1697.12,665.11 L1697.53,666.11 L1697.97,667.1 L1698.43,668.07 L1698.93,669.04 L1699.45,669.99 L1700,670.94 L1700.58,671.87 L1701.19,672.79 L1701.82,673.71 L1702.48,674.61 L1703.18,675.5 L1703.9,676.38 L1704.64,677.25 L1705.42,678.1 L1706.23,678.95 L1707.06,679.79 L1707.92,680.61 L1708.81,681.43 L1709.72,682.23 L1710.64,683 L1711.57,683.75 L1712.52,684.47 L1713.47,685.16 L1714.44,685.83 L1715.42,686.48 L1716.41,687.1 L1717.41,687.7 L1718.43,688.26 L1719.45,688.81 L1720.49,689.33 L1721.54,689.82 L1722.6,690.29 L1723.68,690.73 L1724.76,691.15 L1725.86,691.54 L1726.96,691.91 L1728.08,692.25 L1729.22,692.57 L1730.36,692.86 L1731.51,693.12 L1732.68,693.37 L1733.86,693.58 L1735.05,693.77 L1736.25,693.93 L1737.46,694.07 L1738.69,694.19 L1739.92,694.28 L1741.17,694.34 L1742.43,694.38 L1743.7,694.39 L1745.32,694.37 L1746.92,694.33 L1748.51,694.25 L1750.08,694.14 L1751.65,693.99 L1753.2,693.82 L1754.74,693.61 L1756.27,693.37 L1757.78,693.1 L1759.28,692.8 L1760.77,692.46 L1762.25,692.09 L1763.72,691.7 L1765.17,691.27 L1766.61,690.8 L1768.04,690.31 L1769.45,689.78 L1770.85,689.23 L1772.24,688.64 L1773.62,688.01 L1774.99,687.36 L1776.34,686.67 L1777.68,685.96 L1779.01,685.21 L1780.33,684.43 L1781.63,683.61 L1782.92,682.77 L1784.2,681.89 L1785.47,680.98 L1786.72,680.04 L1787.96,679.07 L1789.19,678.07 L1790.41,677.03 L1791.61,675.96 L1792.8,674.86 L1793.98,673.73 L1795.15,672.56 L1796.3,671.37 L1797.45,670.14 L1798.58,668.88 L1799.69,667.59 L1800.8,666.27 L1802.97,663.53 L1805.09,660.66 L1807.17,657.66 L1809.19,654.53 L1811.16,651.28 L1813.09,647.9 L1814.96,644.39 L1816.79,640.76 L1818.56,637 L1820.29,633.11 L1821.97,629.09 L1877.8,492.01 L1879.99,486.67 L1882.22,481.5 L1884.48,476.5 L1886.77,471.68 L1889.09,467.02 L1891.44,462.53 L1893.83,458.21 L1896.24,454.06 L1898.69,450.08 L1901.16,446.27 L1903.67,442.62 L1906.21,439.15 L1908.78,435.85 L1911.38,432.71 L1914.01,429.75 L1915.34,428.33 L1916.68,426.95 L1918.02,425.62 L1919.37,424.33 L1920.73,423.08 L1922.1,421.87 L1923.47,420.71 L1924.86,419.58 L1926.25,418.5 L1927.64,417.47 L1929.05,416.47 L1930.46,415.52 L1931.89,414.61 L1933.31,413.74 L1934.75,412.91 L1936.2,412.13 L1937.65,411.39 L1939.11,410.69 L1940.58,410.03 L1942.05,409.42 L1943.54,408.85 L1945.03,408.32 L1946.53,407.83 L1948.04,407.39 L1949.55,406.98 L1951.07,406.62 L1952.6,406.31 L1954.14,406.03 L1955.69,405.8 L1957.24,405.61 L1958.8,405.46 L1960.37,405.35 L1961.95,405.29 L1963.54,405.27 L1965.87,405.3 L1968.12,405.38 L1970.31,405.52 L1972.41,405.71 L1974.45,405.96 L1976.41,406.27 L1977.36,406.44 L1978.3,406.63 L1979.21,406.83 L1980.11,407.04 L1980.99,407.27 L1981.85,407.52 L1982.69,407.77 L1983.51,408.04 L1984.32,408.33 L1985.1,408.63 L1985.87,408.94 L1986.62,409.26 L1987.35,409.6 L1988.06,409.96 L1988.76,410.33 L1989.43,410.71 L1990.09,411.1 L1990.73,411.51 L1991.35,411.94 L1991.95,412.37 L1992.53,412.82 L1993.1,413.29 L1993.64,413.77 L1994.17,414.26 L1994.68,414.77 L1995.17,415.29 L1995.64,415.82 L1996.09,416.37 L1996.53,416.93 L1996.94,417.51 L1997.34,418.1 L1997.72,418.7 L1998.08,419.32 L1998.42,419.95 L1998.75,420.59 L1999.05,421.25 L1999.34,421.92 L1999.61,422.61 L1999.86,423.31 L2000.09,424.03 L2000.3,424.75 L2000.5,425.5 L2000.67,426.25 L2000.83,427.02 L2000.97,427.81 L2001.09,428.6 L2001.19,429.42 L2001.27,430.24 L2001.34,431.08 L2001.38,431.93 L2001.41,432.8 L2001.42,433.68 L2001.41,434.38 L2001.39,435.09 L2001.35,435.83 L2001.29,436.59 L2001.21,437.37 L2001.12,438.16 L2000.89,439.82 L2000.59,441.56 L2000.23,443.38 L1999.8,445.28 L1999.3,447.27 L1998.74,449.33 L1998.11,451.48 L1996.65,456.02 L1994.93,460.89 L1992.95,466.08 L1947.09,578.74 L1944.4,585.56 L1943.19,588.86 L1942.07,592.08 L1941.04,595.22 L1940.1,598.28 L1939.25,601.26 L1938.49,604.16 L1937.81,606.99 L1937.23,609.74 L1936.74,612.41 L1936.34,615.01 L1936.02,617.52 L1935.8,619.96 L1935.72,621.15 L1935.66,622.32 L1935.63,623.47 L1935.62,624.6 L1935.64,626.25 L1935.7,627.87 L1935.81,629.48 L1935.96,631.08 L1936.15,632.66 L1936.38,634.22 L1936.66,635.77 L1936.98,637.3 L1937.34,638.81 L1937.74,640.31 L1938.18,641.79 L1938.67,643.26 L1939.2,644.71 L1939.77,646.15 L1940.38,647.56 L1941.04,648.97 L1941.74,650.35 L1942.48,651.72 L1943.26,653.08 L1944.09,654.41 L1944.96,655.74 L1945.87,657.04 L1946.82,658.33 L1947.82,659.61 L1948.85,660.86 L1949.93,662.1 L1951.06,663.33 L1952.22,664.54 L1953.43,665.73 L1954.68,666.91 L1955.97,668.07 L1957.3,669.22 L1958.67,670.34 L1960.05,671.42 L1961.46,672.47 L1962.88,673.48 L1964.33,674.46 L1965.79,675.4 L1967.28,676.31 L1968.78,677.18 L1970.31,678.01 L1971.85,678.81 L1973.42,679.58 L1975,680.3 L1976.61,681 L1978.23,681.65 L1979.88,682.28 L1981.54,682.86 L1983.23,683.41 L1984.93,683.93 L1986.66,684.41 L1988.4,684.85 L1990.17,685.26 L1991.95,685.63 L1993.75,685.97 L1995.58,686.27 L1997.42,686.54 L1999.29,686.77 L2001.17,686.97 L2003.08,687.13 L2005,687.25 L2006.94,687.34 L2008.91,687.39 L2010.89,687.41 L2111.09,687.41 L2116,687.35 L2120.78,687.15 L2125.42,686.82 L2129.92,686.35 L2134.28,685.76 L2136.41,685.41 L2138.51,685.03 L2140.57,684.61 L2142.59,684.17 L2144.58,683.69 L2146.54,683.17 L2148.46,682.63 L2150.35,682.05 L2152.2,681.44 L2154.02,680.79 L2155.81,680.11 L2157.56,679.4 L2159.27,678.66 L2160.95,677.88 L2162.6,677.07 L2164.21,676.22 L2165.78,675.35 L2167.33,674.44 L2168.83,673.49 L2170.31,672.52 L2171.74,671.51 L2173.15,670.46 L2174.51,669.39 L2175.83,668.29 L2177.11,667.17 L2178.35,666.02 L2179.54,664.84 L2180.69,663.63 L2181.79,662.4 L2182.85,661.15 L2183.87,659.87 L2184.85,658.56 L2185.78,657.22 L2186.67,655.86 L2187.51,654.47 L2188.31,653.06 L2189.07,651.62 L2189.79,650.15 L2190.46,648.66 L2191.09,647.14 L2191.67,645.59 L2192.21,644.02 L2192.71,642.42 L2193.16,640.8 L2193.58,639.15 L2193.94,637.47 L2194.27,635.77 L2194.55,634.04 L2194.79,632.28 L2194.98,630.5 L2195.14,628.69 L2195.24,626.86 L2195.31,624.99 L2195.33,623.11 L2195.32,621.73 L2195.27,620.38 L2195.19,619.05 L2195.09,617.73 L2194.95,616.45 L2194.78,615.18 L2194.58,613.93 L2194.35,612.71 L2194.09,611.51 L2193.8,610.33 L2193.48,609.17 L2193.12,608.03 L2192.74,606.91 L2192.33,605.82 L2191.88,604.75 L2191.41,603.7 L2190.9,602.67 L2190.36,601.66 L2189.8,600.68 L2189.2,599.71 L2188.57,598.77 L2187.91,597.85 L2187.22,596.95 L2186.5,596.07 L2185.75,595.22 L2184.97,594.38 L2184.15,593.57 L2183.31,592.78 L2182.43,592.01 L2181.53,591.26 L2180.59,590.54 L2179.63,589.83 L2178.63,589.15 L2177.6,588.49 L2176.55,587.85 L2175.46,587.23 L2174.34,586.64 L2173.19,586.06 L2172.01,585.51 L2170.8,584.98 L2169.55,584.47 L2168.28,583.98 L2166.98,583.52 L2165.64,583.07 L2164.28,582.65 L2162.88,582.25 L2161.46,581.87 L2160,581.51 L2158.51,581.18 L2157,580.86 L2153.87,580.3 L2150.62,579.83 L2147.24,579.44 L2143.75,579.13 L2140.13,578.92 L2136.39,578.79 L2132.52,578.74 L2075.2,578.74 L2127.54,448.14 L2128.99,444.48 L2130.34,440.86 L2131.6,437.27 L2132.77,433.71 L2133.85,430.2 L2134.83,426.71 L2135.72,423.26 L2136.51,419.85 L2137.21,416.47 L2137.82,413.13 L2138.33,409.82 L2138.75,406.55 L2139.08,403.31 L2139.31,400.1 L2139.45,396.94 L2139.5,393.8 L2139.47,391.23 L2139.38,388.69 L2139.23,386.18 L2139.02,383.69 L2138.75,381.23 L2138.42,378.81 L2138.03,376.41 L2137.58,374.04 L2137.08,371.69 L2136.51,369.38 L2135.88,367.1 L2135.19,364.84 L2134.44,362.61 L2133.63,360.42 L2132.76,358.25 L2131.84,356.11 L2130.85,353.99 L2129.8,351.91 L2128.69,349.86 L2127.53,347.83 L2126.3,345.83 L2125.01,343.86 L2123.66,341.92 L2122.26,340.01 L2120.79,338.13 L2119.26,336.28 L2117.68,334.45 L2116.03,332.66 L2114.32,330.89 L2112.56,329.15 L2110.73,327.44 L2108.84,325.76 L2106.91,324.12 L2104.94,322.53 L2102.94,320.99 L2100.91,319.51 L2098.84,318.08 L2096.74,316.7 L2094.61,315.37 L2092.44,314.09 L2090.24,312.87 L2088,311.7 L2085.73,310.58 L2083.43,309.51 L2081.1,308.49 L2078.73,307.53 L2076.32,306.62 L2073.89,305.76 L2071.42,304.95 L2068.91,304.2 L2066.38,303.49 L2063.8,302.84 L2061.2,302.24 L2058.56,301.7 L2055.89,301.2 L2053.18,300.76 L2050.45,300.37 L2047.67,300.03 L2044.87,299.74 L2042.03,299.51 L2039.15,299.33 L2036.25,299.2 L2033.31,299.12 L2030.33,299.09 L2028.2,299.12 L2026.02,299.2 L2023.81,299.34 L2021.57,299.54 L2019.29,299.79 L2016.97,300.09 L2014.62,300.45 L2012.23,300.87 L2009.81,301.34 L2007.35,301.87 L2004.85,302.45 L2002.32,303.09 L1997.14,304.53 L1991.82,306.19 L1986.36,308.08 L1980.76,310.19 L1975.01,312.52 L1969.11,315.07 L1963.07,317.85 L1956.89,320.85 L1950.56,324.06 L1944.09,327.51 Z"/>
<path data-neon="6" d="M4276.49,621.73l-.05-1.35-.08-1.33-.11-1.31-.14-1.29-.17-1.27-.2-1.25-.23-1.22-.26-1.2-.29-1.18-.32-1.16-.35-1.14-.38-1.12-.41-1.09-.44-1.07-.48-1.05-.51-1.03-.54-1.01-.57-.99-.6-.96-.63-.94-.66-.92-.69-.9-.72-.88-.75-.86-.78-.83-.81-.81-.84-.79-.87-.77-.9-.75-.94-.73-.97-.7-1-.68-1.03-.66-1.06-.64-1.09-.62-1.12-.6-1.15-.57-1.18-.55-1.21-.53-1.24-.51-1.27-.49-1.3-.47-1.33-.44-1.36-.42-1.4-.4-1.43-.38-1.46-.36-1.49-.34-1.52-.31-3.13-.56-3.25-.48-3.37-.39-3.5-.3-3.62-.22-3.74-.13-3.86-.04h-148.05l-3.47-.04-3.36-.11-3.25-.18-3.14-.26-3.03-.33-2.92-.4-2.81-.47-2.7-.55-1.31-.3-1.28-.32-1.25-.34-1.22-.36-1.2-.37-1.17-.39-1.14-.41-1.11-.43-1.09-.45-1.06-.47-1.03-.48-1-.5-.98-.52-.95-.54-.92-.56-.89-.57-.87-.59-.84-.61-.81-.63-.78-.65-.76-.67-.73-.68-.7-.7-.67-.72-.65-.74-.62-.76-.59-.78-.56-.79-.54-.81-.51-.83-.48-.85-.45-.87-.43-.89-.4-.9-.37-.92-.34-.94-.32-.96-.29-.98-.26-1-.23-1.01-.21-1.03-.18-1.05-.15-1.07-.12-1.09-.1-1.1-.07-1.12-.04-1.14v-1.16s99.68,0,99.68,0l7.42-.07,7.19-.22,6.96-.36,6.72-.5,6.49-.65,6.25-.79,6.02-.94,5.79-1.08,5.55-1.22,2.69-.67,2.63-.7,2.57-.74,2.51-.77,2.46-.81,2.4-.85,2.34-.88,2.28-.92,2.22-.95,2.16-.99,2.1-1.03,2.05-1.06,1.99-1.1,1.93-1.13,3.37-2.06,3.27-2.13,3.16-2.2,3.05-2.26,2.95-2.33,2.84-2.4,2.73-2.47,2.62-2.54,2.52-2.6,2.41-2.67,1.16-1.36,1.14-1.38,1.11-1.4,1.08-1.41,1.06-1.43,1.03-1.45,1-1.46.98-1.48.95-1.5.92-1.52.9-1.53.87-1.55.84-1.57.82-1.58.79-1.6.76-1.62.74-1.63.71-1.65,1.34-3.35,1.23-3.42,1.12-3.49,1.02-3.56.91-3.63.8-3.69.7-3.76.59-3.83.48-3.9.37-3.97.27-4.04.16-4.1.05-4.17-.04-3.47-.12-3.43-.19-3.38-.27-3.34-.35-3.3-.43-3.26-.5-3.21-.58-3.17-.66-3.13-.74-3.09-.81-3.04-.89-3-.97-2.96-1.04-2.92-1.12-2.88-1.2-2.83-1.28-2.79-1.35-2.75-1.43-2.71-1.51-2.66-1.59-2.62-1.66-2.58-1.74-2.54-1.82-2.49-1.9-2.45-1.97-2.41-2.05-2.37-2.13-2.32-2.21-2.28-2.28-2.24-2.36-2.2-2.44-2.16-2.5-2.1-2.55-2.03-2.6-1.97-2.65-1.9-2.7-1.83-2.75-1.77-2.8-1.7-2.85-1.63-2.9-1.57-2.95-1.5-3-1.43-3.05-1.37-3.1-1.3-3.15-1.23-3.2-1.17-3.25-1.1-3.3-1.03-3.35-.97-3.4-.9-3.45-.83-3.5-.77-3.55-.7-3.6-.63-3.66-.57-3.71-.5-3.76-.43-3.81-.37-3.86-.3-3.91-.23-3.96-.17-4.01-.1-4.06-.03-5.58.07-5.54.2-5.49.34-5.44.48-5.39.61-5.34.75-5.29.89-5.25,1.02-5.2,1.16-5.15,1.29-5.1,1.43-5.05,1.57-5.01,1.7-4.96,1.84-4.91,1.98-4.86,2.11-4.81,2.25-4.76,2.39-4.72,2.52-4.67,2.66-4.62,2.79-4.57,2.93-4.52,3.07-4.48,3.2-4.43,3.34-4.38,3.48-4.33,3.61-4.28,3.75-4.23,3.88-4.19,4.02-4.14,4.16-4.09,4.29-4,4.39-3.88,4.44-3.75,4.49-3.62,4.54-3.49,4.59-3.37,4.65-3.24,4.7-3.11,4.75-2.99,4.8-2.86,4.85-2.73,4.9-2.6,4.96-2.48,5.01-2.35,5.06-2.22,5.11-2.1,5.16-1.97,5.21-1.84,5.26-1.72,5.32-1.59,5.37-1.46,5.42-1.33,5.47-1.21,5.52-1.08,5.57-.95,5.63-.83,5.68-.7,5.73-.57,5.78-.44,5.83-.32,5.88-.19,5.94-.06,5.99.04,4.64.12,4.57.2,4.5.28,4.43.36,4.36.44,4.29.52,4.22.6,4.15.68,4.08.76,4.01.84,3.94.92,3.87,1,3.8,1.08,3.73,1.16,3.66,1.24,3.59,1.33,3.52,1.41,3.45,1.49,3.38,1.57,3.31,1.65,3.24,1.73,3.17,1.81,3.1,1.89,3.03,1.97,2.96,2.05,2.89,2.13,2.82,2.21,2.75,2.29,2.68,2.37,2.61,2.45,2.54,2.53,2.47,2.61,2.39,2.68,2.32,2.75,2.24,2.83,2.16,2.9,2.09,2.97,2.01,3.05,1.94,3.12,1.86,3.2,1.78,3.27,1.71,3.34,1.63,3.42,1.56,3.49,1.48,3.56,1.41,3.64,1.33,3.71,1.25,3.78,1.18,3.86,1.1,3.93,1.03,4,.95,4.08.87,4.15.8,4.22.72,4.3.65,4.37.57,4.44.49,4.52.42,4.59.34,4.67.27,4.74.19,4.81.11,4.89.04h141.07l4.92-.07,4.78-.2,4.64-.33,4.5-.46,4.36-.6,2.13-.35,2.09-.38,2.06-.41,2.03-.45,1.99-.48,1.96-.51,1.92-.55,1.89-.58,1.85-.61,1.82-.65,1.78-.68,1.75-.71,1.71-.74,1.68-.78,1.65-.81,1.61-.84,1.58-.88,1.54-.91,1.51-.94,1.47-.98,1.44-1.01,1.4-1.04,1.36-1.07,1.32-1.1,1.28-1.12,1.23-1.15,1.19-1.18,1.15-1.2,1.1-1.23,1.06-1.26,1.02-1.28.97-1.31.93-1.34.89-1.36.84-1.39.8-1.41.76-1.44.71-1.47.67-1.49.63-1.52.58-1.55.54-1.57.5-1.6.45-1.62.41-1.65.37-1.68.32-1.7.28-1.73.24-1.76.19-1.78.15-1.81.11-1.83.06-1.86.02-1.89-.02-1.38ZM4034.92,447.56l1.71-2.97,1.75-2.87,1.78-2.77,1.82-2.68,1.86-2.58,1.9-2.48,1.94-2.39,1.97-2.29,2.01-2.19,2.05-2.09,2.09-2,2.13-1.9,1.08-.91,1.09-.89,1.1-.86,1.11-.84,1.12-.82,1.12-.79,1.13-.77,1.14-.74,1.15-.72,1.16-.69,1.17-.67,1.18-.65,1.19-.62,1.2-.6,1.21-.57,1.22-.55,1.23-.52,1.24-.5,1.25-.47,1.26-.45,1.27-.43,1.28-.4,1.29-.38,1.3-.35,1.31-.33,1.31-.3,1.32-.28,1.33-.26,1.34-.23,1.35-.21,1.36-.18,1.37-.16,1.38-.13,1.39-.11,1.4-.08,1.41-.06,2.85-.05,2.03.03,1.96.08,1.9.13,1.84.18,1.78.23.87.14.85.15.84.16.82.17.81.19.79.2.78.21.76.23.74.24.73.25.71.26.7.28.68.29.67.3.65.32.64.33.62.34.61.35.59.37.58.38.56.39.55.41.53.42.51.43.5.45.48.46.47.47.45.48.44.5.42.51.41.52.39.54.38.55.36.56.35.57.33.59.32.6.3.61.28.63.27.64.25.65.24.66.22.68.21.69.19.7.18.72.16.73.15.74.13.75.12.77.1.78.08.79.07.81.07,1.18v.36s.02.36.02.36v.71s-.02.35-.02.35l-.02.35-.03.34-.03.34-.04.34-.05.34-.05.33-.06.33-.07.33-.07.32-.08.32-.09.32-.09.32-.1.31-.11.31-.11.31-.12.3-.13.3-.13.3-.14.3-.15.29-.15.29-.16.29-.17.28-.17.28-.18.28-.19.28-.19.27-.2.27-.21.27-.21.26-.22.26-.23.26-.23.26-.24.25-.25.25-.25.25-.26.24-.27.24-.27.24-.28.24-.58.46-.61.45-.64.44-.66.43-.69.42-.72.41-.74.39-.77.38-.8.37-.82.36-.85.35-.88.34-.9.33-.93.31-.96.3-.98.29-1.01.28-2.1.53-2.21.48-2.32.43-2.42.39-2.53.34-2.64.3-2.74.25-2.85.21-6.02.27-6.45.09h-54.83l1.67-3.07Z"/>
<path data-neon="7" d="M3684.31,646.04 L3895.17,126.12 L3955.98,126.12 L3961.33,126.04 L3966.53,125.82 L3971.58,125.45 L3976.48,124.93 L3981.24,124.27 L3983.56,123.88 L3985.84,123.45 L3988.09,122.99 L3990.3,122.49 L3992.48,121.95 L3994.62,121.38 L3996.72,120.77 L3998.78,120.12 L4000.8,119.44 L4002.79,118.72 L4004.75,117.96 L4006.66,117.16 L4008.54,116.33 L4010.38,115.46 L4012.18,114.56 L4013.95,113.61 L4015.68,112.63 L4017.37,111.61 L4019.03,110.56 L4020.65,109.47 L4022.23,108.34 L4023.78,107.17 L4025.28,105.98 L4026.73,104.75 L4028.14,103.49 L4029.5,102.2 L4030.81,100.88 L4032.08,99.53 L4033.29,98.15 L4034.46,96.74 L4035.58,95.3 L4036.66,93.83 L4037.68,92.33 L4038.66,90.79 L4039.59,89.23 L4040.47,87.64 L4041.31,86.02 L4042.1,84.37 L4042.84,82.69 L4043.53,80.97 L4044.17,79.23 L4044.77,77.46 L4045.32,75.66 L4045.82,73.82 L4046.27,71.96 L4046.68,70.07 L4047.03,68.15 L4047.34,66.19 L4047.61,64.21 L4047.82,62.19 L4047.99,60.15 L4048.11,58.08 L4048.18,55.97 L4048.2,53.84 L4048.19,52.38 L4048.13,50.95 L4048.05,49.55 L4047.93,48.16 L4047.78,46.8 L4047.59,45.46 L4047.37,44.15 L4047.12,42.85 L4046.83,41.58 L4046.51,40.34 L4046.16,39.11 L4045.77,37.91 L4045.34,36.73 L4044.89,35.58 L4044.4,34.45 L4043.87,33.34 L4043.31,32.25 L4042.72,31.19 L4042.1,30.14 L4041.44,29.13 L4040.74,28.13 L4040.01,27.16 L4039.25,26.21 L4038.46,25.28 L4037.63,24.38 L4036.77,23.5 L4035.87,22.64 L4034.94,21.8 L4033.98,20.99 L4032.98,20.2 L4031.95,19.44 L4030.88,18.69 L4029.78,17.97 L4028.65,17.27 L4027.48,16.6 L4026.28,15.95 L4025.04,15.32 L4023.78,14.71 L4022.47,14.13 L4021.14,13.57 L4019.77,13.03 L4018.36,12.52 L4016.92,12.02 L4015.45,11.55 L4013.95,11.11 L4012.41,10.69 L4010.83,10.28 L4009.23,9.91 L4005.91,9.22 L4002.46,8.63 L3998.87,8.12 L3995.15,7.71 L3991.3,7.39 L3987.3,7.16 L3983.18,7.02 L3978.91,6.98 L3876.72,6.98 L3856.29,7.48 L3853.26,7.52 L3850.29,7.66 L3847.38,7.89 L3844.53,8.21 L3843.13,8.4 L3841.74,8.62 L3840.36,8.86 L3839,9.12 L3837.65,9.41 L3836.32,9.72 L3835,10.05 L3833.7,10.41 L3832.41,10.78 L3831.13,11.18 L3829.87,11.61 L3828.63,12.05 L3827.39,12.52 L3826.18,13.01 L3824.97,13.53 L3823.78,14.07 L3822.61,14.63 L3821.45,15.21 L3820.3,15.82 L3819.17,16.45 L3818.05,17.1 L3816.95,17.77 L3815.86,18.47 L3814.79,19.19 L3813.73,19.94 L3812.68,20.7 L3811.65,21.49 L3810.63,22.3 L3809.63,23.14 L3808.64,24 L3807.67,24.88 L3806.71,25.78 L3805.76,26.71 L3804.83,27.66 L3803.92,28.63 L3803.02,29.62 L3802.13,30.64 L3801.25,31.68 L3800.4,32.75 L3799.55,33.83 L3798.72,34.94 L3797.91,36.08 L3797.1,37.23 L3796.32,38.41 L3794.79,40.84 L3793.31,43.35 L3791.9,45.96 L3790.54,48.66 L3789.24,51.45 L3787.99,54.33 L3644.93,406.27 L3619.01,74.27 L3618.61,69.7 L3618.1,65.28 L3617.48,61 L3616.75,56.87 L3615.91,52.88 L3615.44,50.94 L3614.95,49.03 L3614.43,47.16 L3613.89,45.33 L3613.31,43.54 L3612.71,41.78 L3612.08,40.06 L3611.43,38.37 L3610.74,36.72 L3610.03,35.11 L3609.29,33.53 L3608.52,31.99 L3607.73,30.48 L3606.9,29.01 L3606.05,27.58 L3605.17,26.18 L3604.27,24.82 L3603.33,23.5 L3602.37,22.21 L3601.38,20.96 L3600.36,19.75 L3599.32,18.57 L3598.24,17.43 L3597.14,16.32 L3596.01,15.25 L3594.86,14.22 L3593.67,13.22 L3592.46,12.26 L3591.22,11.33 L3589.95,10.44 L3588.66,9.59 L3587.34,8.78 L3585.99,8 L3584.61,7.25 L3583.2,6.55 L3581.77,5.88 L3580.31,5.24 L3578.82,4.64 L3577.3,4.08 L3575.75,3.55 L3574.18,3.06 L3572.58,2.61 L3570.95,2.19 L3569.3,1.81 L3567.61,1.47 L3565.9,1.16 L3564.16,.89 L3562.4,.65 L3560.6,.45 L3558.78,.29 L3556.93,.16 L3555.05,.07 L3553.15,.02 L3551.21,0 L3549.54,.02 L3547.87,.06 L3546.23,.14 L3544.59,.26 L3542.97,.4 L3541.36,.57 L3539.76,.78 L3538.18,1.02 L3536.61,1.29 L3535.06,1.59 L3533.52,1.93 L3531.99,2.3 L3530.47,2.69 L3528.97,3.12 L3527.48,3.59 L3526.01,4.08 L3524.55,4.61 L3523.1,5.17 L3521.66,5.76 L3520.24,6.38 L3518.83,7.03 L3517.44,7.72 L3516.06,8.43 L3514.69,9.18 L3513.34,9.96 L3511.99,10.78 L3510.67,11.62 L3509.35,12.5 L3508.05,13.41 L3506.76,14.35 L3505.49,15.32 L3504.23,16.33 L3502.98,17.36 L3501.75,18.43 L3500.53,19.53 L3499.32,20.66 L3498.13,21.83 L3496.95,23.02 L3495.78,24.25 L3494.63,25.51 L3493.49,26.8 L3492.36,28.12 L3490.15,30.87 L3487.99,33.73 L3485.88,36.73 L3483.83,39.86 L3481.83,43.11 L3479.88,46.49 L3477.99,50 L3476.15,53.63 L3474.37,57.39 L3472.63,61.28 L3470.96,65.3 L3273.56,551.33 L3266.98,567.28 L3260.47,582.63 L3254.01,597.36 L3247.62,611.49 L3241.29,625 L3235.01,637.9 L3228.8,650.19 L3225.72,656.1 L3222.65,661.86 L3219.59,667.47 L3216.56,672.93 L3213.53,678.23 L3210.52,683.38 L3207.53,688.38 L3204.55,693.23 L3201.59,697.92 L3198.64,702.46 L3195.71,706.85 L3192.79,711.08 L3189.89,715.16 L3187,719.09 L3184.13,722.86 L3181.27,726.49 L3178.43,729.96 L3175.6,733.27 L3172.77,736.46 L3169.91,739.55 L3167.02,742.54 L3164.1,745.42 L3161.16,748.21 L3158.19,750.89 L3155.19,753.47 L3152.16,755.95 L3149.1,758.33 L3146.02,760.61 L3142.91,762.79 L3139.77,764.86 L3136.6,766.84 L3133.41,768.71 L3130.19,770.48 L3126.94,772.15 L3123.66,773.72 L3120.36,775.19 L3117.02,776.56 L3113.66,777.82 L3110.27,778.99 L3106.86,780.05 L3103.41,781.01 L3099.94,781.87 L3096.44,782.63 L3092.92,783.29 L3089.36,783.85 L3085.78,784.3 L3082.17,784.66 L3078.53,784.91 L3074.86,785.06 L3071.17,785.11 L3067.98,785.08 L3064.84,784.99 L3061.74,784.83 L3058.68,784.6 L3055.67,784.32 L3052.7,783.97 L3049.77,783.55 L3046.88,783.07 L3044.04,782.53 L3041.25,781.93 L3038.49,781.26 L3035.78,780.52 L3033.11,779.73 L3030.49,778.87 L3027.91,777.94 L3025.37,776.95 L3022.88,775.9 L3020.43,774.78 L3018.02,773.6 L3015.66,772.36 L3013.33,771.05 L3011.06,769.68 L3008.82,768.25 L3006.63,766.75 L3004.48,765.19 L3002.38,763.56 L3000.32,761.87 L2998.3,760.12 L2996.33,758.3 L2994.4,756.42 L2992.51,754.47 L2990.66,752.46 L2988.87,750.4 L2987.13,748.29 L2985.45,746.13 L2983.83,743.92 L2982.26,741.67 L2980.75,739.37 L2979.3,737.02 L2977.91,734.63 L2976.57,732.19 L2975.29,729.7 L2974.06,727.16 L2972.89,724.58 L2971.78,721.95 L2970.73,719.27 L2969.73,716.54 L2968.79,713.77 L2967.91,710.95 L2967.09,708.08 L2966.32,705.17 L2965.6,702.21 L2964.95,699.2 L2964.35,696.14 L2963.81,693.04 L2963.33,689.89 L2962.9,686.69 L2962.53,683.45 L2962.22,680.15 L2961.96,676.82 L2961.76,673.43 L2961.62,669.99 L2961.53,666.51 L2961.5,662.99 L2961.53,659.66 L2961.62,656.34 L2961.76,653.02 L2961.97,649.72 L2962.23,646.43 L2962.55,643.14 L2962.92,639.87 L2963.36,636.6 L2963.85,633.34 L2964.4,630.09 L2965.01,626.85 L2965.67,623.61 L2966.4,620.39 L2967.18,617.17 L2968.02,613.97 L2968.92,610.77 L2969.87,607.58 L2970.89,604.4 L2971.96,601.23 L2973.09,598.07 L2974.28,594.91 L2975.52,591.77 L2976.83,588.63 L2978.19,585.5 L2981.08,579.27 L2984.21,573.08 L2987.57,566.92 L2991.16,560.8 L2994.95,554.76 L2998.9,548.87 L3003.01,543.13 L3007.29,537.52 L3011.72,532.07 L3016.32,526.75 L3021.08,521.58 L3026,516.56 L3031.08,511.67 L3036.32,506.94 L3041.72,502.34 L3047.29,497.89 L3053.02,493.59 L3058.91,489.43 L3064.96,485.41 L3071.17,481.54 L3075.01,479.29 L3078.92,477.09 L3082.91,474.95 L3086.97,472.86 L3091.11,470.82 L3095.33,468.84 L3099.61,466.9 L3103.98,465.02 L3108.42,463.2 L3112.93,461.42 L3117.52,459.7 L3122.18,458.03 L3126.92,456.41 L3131.73,454.85 L3136.62,453.34 L3141.58,451.88 L3146.62,450.47 L3151.73,449.12 L3156.92,447.81 L3162.18,446.57 L3167.52,445.37 L3172.93,444.22 L3178.42,443.13 L3183.98,442.09 L3189.62,441.11 L3195.33,440.17 L3201.12,439.29 L3206.98,438.46 L3212.92,437.69 L3218.93,436.97 L3225.02,436.29 L3231.18,435.68 L3236.69,435.14 L3242,434.51 L3247.11,433.8 L3252.03,433 L3256.74,432.11 L3261.26,431.14 L3265.57,430.09 L3269.69,428.95 L3273.61,427.72 L3275.5,427.07 L3277.33,426.41 L3279.12,425.72 L3280.86,425.01 L3282.54,424.28 L3284.18,423.53 L3285.77,422.75 L3287.3,421.96 L3288.79,421.14 L3290.23,420.3 L3291.62,419.44 L3292.96,418.56 L3294.25,417.66 L3295.49,416.73 L3296.69,415.78 L3297.84,414.81 L3298.96,413.8 L3300.05,412.76 L3301.09,411.7 L3302.1,410.6 L3303.06,409.48 L3303.99,408.32 L3304.89,407.14 L3305.74,405.93 L3306.56,404.69 L3307.34,403.42 L3308.08,402.12 L3308.78,400.79 L3309.44,399.43 L3310.07,398.04 L3310.66,396.62 L3311.21,395.18 L3311.72,393.7 L3312.2,392.2 L3312.63,390.67 L3313.03,389.1 L3313.39,387.51 L3313.71,385.89 L3314,384.24 L3314.25,382.56 L3314.46,380.85 L3314.63,379.11 L3314.76,377.35 L3314.85,375.55 L3314.91,373.73 L3314.93,371.87 L3314.91,370.04 L3314.83,368.24 L3314.72,366.46 L3314.55,364.71 L3314.33,362.98 L3314.07,361.27 L3313.76,359.59 L3313.4,357.93 L3313,356.29 L3312.54,354.68 L3312.04,353.09 L3311.5,351.53 L3310.9,349.99 L3310.25,348.47 L3309.56,346.98 L3308.82,345.51 L3308.04,344.07 L3307.2,342.65 L3306.32,341.25 L3305.39,339.88 L3304.41,338.53 L3303.38,337.2 L3302.31,335.9 L3301.19,334.62 L3300.02,333.37 L3298.81,332.14 L3297.54,330.93 L3296.23,329.75 L3294.87,328.59 L3293.46,327.46 L3292.01,326.35 L3290.5,325.26 L3288.96,324.2 L3287.38,323.18 L3285.77,322.19 L3284.13,321.23 L3282.45,320.31 L3280.73,319.42 L3278.98,318.56 L3277.2,317.74 L3275.38,316.95 L3273.53,316.19 L3271.65,315.47 L3269.73,314.78 L3267.78,314.13 L3265.79,313.51 L3263.77,312.92 L3261.72,312.36 L3259.63,311.84 L3257.5,311.36 L3255.35,310.9 L3253.16,310.48 L3248.67,309.74 L3244.05,309.14 L3239.29,308.67 L3234.4,308.33 L3229.37,308.13 L3224.21,308.06 L3219.25,308.1 L3214.28,308.2 L3209.31,308.37 L3204.33,308.61 L3199.35,308.92 L3194.35,309.29 L3189.35,309.73 L3184.34,310.25 L3179.33,310.82 L3174.3,311.47 L3169.27,312.19 L3164.24,312.97 L3159.19,313.82 L3154.14,314.74 L3149.08,315.73 L3144.01,316.79 L3138.94,317.91 L3133.86,319.1 L3128.77,320.37 L3123.67,321.69 L3118.57,323.09 L3113.46,324.56 L3108.34,326.09 L3103.21,327.69 L3098.08,329.36 L3092.94,331.1 L3087.79,332.91 L3082.64,334.78 L3077.48,336.72 L3072.31,338.73 L3067.13,340.81 L3061.95,342.96 L3056.79,345.16 L3051.68,347.4 L3046.63,349.69 L3041.64,352.02 L3036.7,354.39 L3031.81,356.8 L3026.98,359.25 L3022.21,361.74 L3017.49,364.28 L3012.83,366.86 L3008.22,369.48 L3003.66,372.14 L2999.16,374.85 L2994.72,377.59 L2990.33,380.38 L2985.99,383.21 L2981.71,386.08 L2977.49,389 L2973.32,391.95 L2969.2,394.95 L2965.14,397.99 L2961.14,401.07 L2957.19,404.19 L2953.29,407.36 L2949.45,410.56 L2945.67,413.81 L2941.94,417.1 L2938.27,420.43 L2934.65,423.81 L2931.08,427.22 L2927.57,430.68 L2924.12,434.18 L2917.8,440.79 L2911.68,447.47 L2905.77,454.21 L2900.05,461.03 L2894.53,467.91 L2889.22,474.87 L2884.1,481.89 L2879.19,488.98 L2874.48,496.14 L2869.97,503.38 L2865.65,510.67 L2861.54,518.04 L2857.63,525.48 L2853.92,532.99 L2850.41,540.56 L2847.1,548.21 L2843.99,555.92 L2841.08,563.71 L2838.38,571.56 L2835.87,579.48 L2833.56,587.47 L2831.46,595.53 L2829.55,603.66 L2827.85,611.86 L2826.34,620.13 L2825.04,628.46 L2823.94,636.87 L2823.03,645.34 L2822.33,653.89 L2821.83,662.5 L2821.53,671.18 L2821.43,679.93 L2821.49,686.47 L2821.68,692.93 L2822,699.31 L2822.45,705.61 L2823.02,711.84 L2823.72,717.99 L2824.54,724.07 L2825.49,730.06 L2826.57,735.98 L2827.78,741.83 L2829.12,747.59 L2830.58,753.28 L2832.17,758.89 L2833.88,764.43 L2835.72,769.89 L2837.69,775.27 L2839.79,780.57 L2842.01,785.8 L2844.36,790.95 L2846.84,796.03 L2849.44,801.02 L2852.18,805.94 L2855.04,810.79 L2858.02,815.55 L2861.13,820.24 L2864.37,824.86 L2867.74,829.39 L2871.23,833.85 L2874.86,838.23 L2878.6,842.54 L2882.48,846.76 L2886.48,850.92 L2890.59,854.96 L2894.77,858.88 L2899.03,862.67 L2903.36,866.34 L2907.78,869.87 L2912.27,873.28 L2916.84,876.55 L2921.48,879.7 L2926.21,882.72 L2931.01,885.61 L2935.89,888.38 L2940.84,891.01 L2945.88,893.52 L2950.99,895.9 L2956.18,898.14 L2961.44,900.27 L2966.78,902.26 L2972.2,904.12 L2977.7,905.86 L2983.28,907.46 L2988.93,908.94 L2994.66,910.29 L3000.47,911.51 L3006.35,912.6 L3012.31,913.57 L3018.35,914.4 L3024.47,915.11 L3030.66,915.69 L3036.94,916.14 L3043.29,916.46 L3049.71,916.65 L3056.22,916.72 L3062.33,916.66 L3068.4,916.49 L3074.43,916.2 L3080.42,915.8 L3086.36,915.28 L3092.25,914.65 L3098.11,913.9 L3103.91,913.04 L3109.68,912.06 L3115.4,910.97 L3121.08,909.76 L3126.71,908.44 L3132.3,907.01 L3137.85,905.46 L3143.35,903.79 L3148.81,902.01 L3154.22,900.11 L3159.6,898.1 L3164.92,895.98 L3170.21,893.74 L3175.44,891.38 L3180.64,888.91 L3185.79,886.33 L3190.9,883.63 L3195.96,880.81 L3200.99,877.88 L3205.96,874.84 L3210.89,871.68 L3215.78,868.41 L3220.63,865.02 L3225.43,861.51 L3230.19,857.89 L3236.65,852.73 L3242.96,847.45 L3249.12,842.05 L3255.13,836.54 L3260.98,830.91 L3266.67,825.17 L3272.22,819.31 L3277.61,813.34 L3282.84,807.26 L3287.92,801.05 L3292.85,794.74 L3297.62,788.31 L3302.24,781.76 L3306.71,775.1 L3311.02,768.33 L3315.18,761.44 L3319.38,754.1 L3323.81,746 L3328.48,737.12 L3333.39,727.46 L3338.53,717.04 L3343.91,705.84 L3349.52,693.86 L3355.37,681.12 L3361.45,667.6 L3367.77,653.31 L3374.33,638.24 L3381.12,622.41 L3388.15,605.8 L3395.41,588.41 L3402.91,570.25 L3410.64,551.33 L3514.82,294.11 L3537.75,594.69 L3538.36,601.66 L3539.06,608.35 L3539.86,614.76 L3540.74,620.9 L3541.73,626.75 L3542.8,632.34 L3543.97,637.64 L3545.23,642.67 L3546.59,647.43 L3547.3,649.7 L3548.03,651.9 L3548.79,654.04 L3549.58,656.1 L3550.38,658.1 L3551.21,660.03 L3552.06,661.88 L3552.94,663.67 L3553.84,665.39 L3554.76,667.04 L3555.71,668.63 L3556.68,670.14 L3557.67,671.58 L3558.18,672.28 L3558.69,672.96 L3559.21,673.62 L3559.74,674.27 L3560.28,674.92 L3560.83,675.55 L3561.4,676.17 L3561.97,676.79 L3562.56,677.39 L3563.15,677.98 L3563.76,678.56 L3564.38,679.13 L3565.01,679.69 L3565.65,680.24 L3566.3,680.78 L3566.96,681.31 L3567.63,681.83 L3568.32,682.33 L3569.72,683.32 L3571.16,684.26 L3572.65,685.16 L3574.18,686.02 L3575.76,686.83 L3577.38,687.61 L3579.04,688.34 L3580.75,689.03 L3582.5,689.68 L3584.29,690.29 L3586.13,690.85 L3588.01,691.38 L3589.94,691.86 L3591.91,692.3 L3593.92,692.7 L3595.98,693.05 L3598.08,693.36 L3600.23,693.64 L3602.42,693.87 L3604.65,694.06 L3606.93,694.2 L3609.25,694.31 L3611.61,694.37 L3614.02,694.39 L3617.05,694.34 L3620.02,694.2 L3622.94,693.97 L3625.81,693.64 L3627.22,693.43 L3628.62,693.21 L3630,692.96 L3631.38,692.69 L3632.74,692.4 L3634.08,692.08 L3635.41,691.73 L3636.73,691.37 L3638.04,690.98 L3639.33,690.57 L3640.61,690.13 L3641.88,689.67 L3643.13,689.18 L3644.37,688.68 L3645.59,688.15 L3646.8,687.59 L3648,687.01 L3649.19,686.41 L3650.36,685.78 L3651.52,685.14 L3652.66,684.46 L3653.8,683.77 L3654.91,683.05 L3656.02,682.3 L3657.11,681.53 L3658.19,680.74 L3659.25,679.93 L3660.3,679.09 L3661.34,678.23 L3662.37,677.34 L3663.38,676.44 L3664.38,675.5 L3665.36,674.55 L3666.33,673.57 L3667.29,672.56 L3668.23,671.54 L3669.16,670.49 L3670.08,669.41 L3670.99,668.31 L3671.88,667.19 L3673.62,664.88 L3675.31,662.47 L3676.94,659.97 L3678.52,657.37 L3680.05,654.68 L3681.52,651.89 L3682.94,649.01 L3684.31,646.04 Z"/>
<path data-neon="8" d="M1601.63,687.41 L1606.43,687.34 L1611.1,687.14 L1615.65,686.81 L1620.06,686.34 L1624.35,685.73 L1626.45,685.38 L1628.52,684.99 L1630.55,684.57 L1632.56,684.12 L1634.53,683.63 L1636.47,683.11 L1638.37,682.56 L1640.25,681.97 L1642.1,681.35 L1643.91,680.69 L1645.69,680.01 L1647.44,679.28 L1649.16,678.53 L1650.84,677.74 L1652.5,676.92 L1654.12,676.06 L1655.71,675.17 L1657.27,674.24 L1658.8,673.29 L1660.3,672.3 L1661.76,671.27 L1663.2,670.21 L1664.59,669.13 L1665.94,668.01 L1667.25,666.88 L1668.51,665.72 L1669.73,664.53 L1670.91,663.32 L1672.04,662.08 L1673.12,660.82 L1674.16,659.53 L1675.16,658.22 L1676.11,656.89 L1677.02,655.53 L1677.88,654.14 L1678.7,652.73 L1679.48,651.3 L1680.21,649.84 L1680.89,648.35 L1681.54,646.84 L1682.14,645.31 L1682.69,643.75 L1683.2,642.17 L1683.66,640.56 L1684.08,638.93 L1684.46,637.27 L1684.79,635.58 L1685.08,633.88 L1685.32,632.14 L1685.52,630.39 L1685.68,628.6 L1685.79,626.8 L1685.86,624.96 L1685.88,623.11 L1685.86,621.73 L1685.82,620.38 L1685.74,619.05 L1685.63,617.73 L1685.49,616.45 L1685.32,615.18 L1685.12,613.93 L1684.89,612.71 L1684.63,611.51 L1684.33,610.33 L1684.01,609.17 L1683.65,608.03 L1683.27,606.91 L1682.85,605.82 L1682.4,604.75 L1681.92,603.7 L1681.41,602.67 L1680.87,601.66 L1680.3,600.68 L1679.7,599.71 L1679.06,598.77 L1678.4,597.85 L1677.7,596.95 L1676.98,596.07 L1676.22,595.22 L1675.43,594.38 L1674.61,593.57 L1673.76,592.78 L1672.88,592.01 L1671.97,591.26 L1671.03,590.54 L1670.05,589.83 L1669.05,589.15 L1668.01,588.49 L1666.95,587.85 L1665.85,587.23 L1664.72,586.64 L1663.56,586.06 L1662.37,585.51 L1661.15,584.98 L1659.9,584.47 L1658.61,583.98 L1657.3,583.52 L1655.96,583.07 L1654.58,582.65 L1653.17,582.25 L1651.74,581.87 L1650.27,581.51 L1648.77,581.18 L1647.24,580.86 L1644.09,580.3 L1640.81,579.83 L1637.41,579.44 L1633.88,579.13 L1630.24,578.92 L1626.47,578.79 L1622.57,578.74 L1528.36,578.74 L1521.99,578.68 L1515.87,578.51 L1509.98,578.22 L1504.32,577.82 L1498.9,577.31 L1493.72,576.67 L1488.77,575.93 L1484.05,575.07 L1481.79,574.59 L1479.58,574.09 L1477.43,573.56 L1475.33,573 L1473.3,572.41 L1471.33,571.79 L1469.41,571.15 L1467.56,570.47 L1465.76,569.77 L1464.02,569.03 L1462.34,568.27 L1460.72,567.48 L1459.16,566.66 L1457.66,565.82 L1456.22,564.94 L1454.83,564.04 L1454.16,563.57 L1453.5,563.1 L1452.85,562.61 L1452.2,562.12 L1451.57,561.61 L1450.96,561.1 L1450.35,560.57 L1449.75,560.04 L1449.16,559.49 L1448.58,558.94 L1448.02,558.37 L1447.46,557.79 L1446.92,557.21 L1446.38,556.61 L1445.86,556.01 L1445.34,555.39 L1444.84,554.76 L1444.35,554.13 L1443.87,553.48 L1443.4,552.83 L1442.93,552.16 L1442.48,551.48 L1442.05,550.8 L1441.62,550.1 L1440.79,548.67 L1440.01,547.21 L1439.27,545.7 L1438.57,544.16 L1437.91,542.57 L1437.3,540.95 L1436.73,539.28 L1436.2,537.57 L1435.71,535.83 L1435.26,534.04 L1434.86,532.21 L1434.5,530.34 L1434.18,528.43 L1433.91,526.48 L1433.68,524.49 L1433.49,522.46 L1433.34,520.39 L1433.23,518.28 L1433.17,516.13 L1433.15,513.94 L1433.17,511.3 L1433.25,508.67 L1433.38,506.06 L1433.56,503.47 L1433.8,500.89 L1434.08,498.33 L1434.42,495.78 L1434.81,493.25 L1435.26,490.74 L1435.75,488.24 L1436.3,485.75 L1436.9,483.28 L1437.55,480.83 L1438.25,478.39 L1439.01,475.97 L1439.81,473.56 L1440.67,471.17 L1441.58,468.79 L1442.55,466.43 L1443.56,464.09 L1444.63,461.76 L1445.75,459.45 L1446.92,457.15 L1448.15,454.87 L1449.42,452.6 L1450.75,450.35 L1452.13,448.12 L1453.56,445.9 L1455.05,443.69 L1456.59,441.5 L1458.17,439.33 L1459.82,437.17 L1461.49,435.06 L1463.17,433.01 L1464.87,431.03 L1466.57,429.11 L1468.29,427.26 L1470.02,425.48 L1471.76,423.77 L1473.51,422.12 L1475.27,420.55 L1477.04,419.03 L1478.83,417.59 L1480.62,416.21 L1482.43,414.9 L1484.25,413.66 L1486.08,412.48 L1487.92,411.38 L1489.77,410.33 L1491.63,409.36 L1493.51,408.45 L1495.39,407.61 L1497.29,406.84 L1499.19,406.14 L1501.11,405.5 L1503.04,404.93 L1504.98,404.42 L1506.94,403.99 L1508.9,403.62 L1510.88,403.31 L1512.86,403.08 L1514.86,402.91 L1516.87,402.81 L1518.89,402.78 L1521,402.81 L1523.05,402.91 L1524.05,402.99 L1525.03,403.08 L1526,403.19 L1526.95,403.32 L1527.88,403.47 L1528.79,403.63 L1529.69,403.81 L1530.57,404 L1531.44,404.22 L1532.29,404.45 L1533.12,404.69 L1533.93,404.96 L1534.73,405.24 L1535.51,405.54 L1536.28,405.85 L1537.02,406.18 L1537.75,406.53 L1538.47,406.9 L1539.17,407.28 L1539.85,407.68 L1540.51,408.1 L1541.16,408.54 L1541.79,408.99 L1542.4,409.46 L1542.99,409.94 L1543.57,410.44 L1544.14,410.96 L1544.68,411.5 L1545.21,412.05 L1545.72,412.62 L1546.22,413.21 L1546.7,413.82 L1547.16,414.44 L1547.6,415.08 L1548.03,415.73 L1548.44,416.41 L1548.84,417.1 L1549.22,417.8 L1549.58,418.53 L1549.92,419.27 L1550.25,420.03 L1550.56,420.8 L1550.85,421.6 L1551.13,422.4 L1551.39,423.23 L1551.64,424.07 L1551.86,424.93 L1552.07,425.81 L1552.27,426.71 L1552.44,427.62 L1552.6,428.55 L1552.74,429.49 L1552.87,430.45 L1552.98,431.43 L1553.07,432.43 L1553.15,433.45 L1553.25,435.52 L1553.28,437.67 L1553.25,440.19 L1553.16,442.78 L1553,445.43 L1552.78,448.14 L1552.78,459.11 L1552.83,461.74 L1552.88,463.03 L1552.96,464.3 L1553.06,465.54 L1553.19,466.77 L1553.33,467.97 L1553.5,469.15 L1553.69,470.31 L1553.9,471.46 L1554.14,472.58 L1554.4,473.67 L1554.68,474.75 L1554.98,475.81 L1555.3,476.85 L1555.65,477.86 L1556.02,478.86 L1556.41,479.83 L1556.82,480.78 L1557.26,481.71 L1557.72,482.62 L1558.2,483.51 L1558.71,484.38 L1559.23,485.23 L1559.78,486.06 L1560.35,486.86 L1560.95,487.65 L1561.56,488.41 L1562.2,489.15 L1562.86,489.88 L1563.54,490.58 L1564.25,491.26 L1564.98,491.92 L1565.73,492.56 L1566.5,493.17 L1567.29,493.77 L1568.11,494.35 L1568.95,494.9 L1569.81,495.43 L1570.7,495.95 L1571.6,496.44 L1572.53,496.91 L1573.49,497.36 L1574.46,497.79 L1575.46,498.2 L1576.47,498.58 L1577.52,498.95 L1578.58,499.3 L1579.67,499.62 L1580.77,499.92 L1581.9,500.21 L1583.06,500.47 L1584.23,500.71 L1585.43,500.93 L1586.65,501.13 L1587.9,501.31 L1589.16,501.46 L1590.45,501.6 L1593.09,501.81 L1595.82,501.93 L1598.64,501.98 L1600.44,501.95 L1602.22,501.88 L1603.97,501.77 L1605.71,501.61 L1607.42,501.4 L1609.12,501.14 L1610.79,500.84 L1612.45,500.5 L1614.08,500.1 L1615.69,499.66 L1617.28,499.18 L1618.86,498.65 L1620.41,498.07 L1621.94,497.44 L1623.45,496.77 L1624.94,496.06 L1626.41,495.29 L1627.86,494.48 L1629.29,493.63 L1630.69,492.73 L1632.08,491.78 L1633.45,490.78 L1634.8,489.74 L1636.12,488.66 L1637.43,487.52 L1638.72,486.34 L1639.98,485.12 L1641.23,483.85 L1642.45,482.53 L1643.65,481.16 L1644.84,479.75 L1646,478.3 L1647.13,476.8 L1648.23,475.29 L1649.3,473.74 L1650.32,472.17 L1651.31,470.58 L1652.27,468.95 L1653.19,467.31 L1654.07,465.63 L1654.92,463.93 L1655.73,462.21 L1656.5,460.46 L1657.24,458.68 L1657.94,456.88 L1658.61,455.05 L1659.24,453.2 L1659.83,451.32 L1660.39,449.41 L1660.91,447.48 L1661.4,445.52 L1661.85,443.54 L1662.26,441.53 L1662.64,439.5 L1662.98,437.44 L1663.29,435.35 L1663.56,433.24 L1663.8,431.1 L1664.16,426.75 L1664.37,422.29 L1664.44,417.73 L1664.41,414.45 L1664.3,411.2 L1664.12,408 L1663.87,404.83 L1663.54,401.71 L1663.15,398.62 L1662.68,395.57 L1662.14,392.56 L1661.53,389.59 L1660.84,386.65 L1660.08,383.76 L1659.26,380.91 L1658.36,378.09 L1657.38,375.31 L1656.34,372.58 L1655.22,369.88 L1654.03,367.22 L1652.77,364.6 L1651.44,362.01 L1650.03,359.47 L1648.56,356.97 L1647.01,354.5 L1645.39,352.08 L1643.69,349.69 L1641.93,347.34 L1640.09,345.03 L1638.18,342.76 L1636.2,340.53 L1634.15,338.34 L1632.02,336.18 L1629.83,334.07 L1627.56,331.99 L1625.23,329.97 L1622.86,328.01 L1620.45,326.11 L1617.99,324.28 L1615.49,322.51 L1612.95,320.81 L1610.37,319.17 L1607.74,317.6 L1605.07,316.09 L1602.36,314.64 L1599.6,313.26 L1596.81,311.94 L1593.96,310.69 L1591.08,309.5 L1588.15,308.38 L1585.18,307.32 L1582.17,306.32 L1579.12,305.39 L1576.02,304.52 L1572.88,303.72 L1569.69,302.98 L1566.47,302.3 L1563.2,301.69 L1559.89,301.15 L1556.53,300.67 L1553.13,300.25 L1549.69,299.89 L1546.21,299.61 L1542.68,299.38 L1539.11,299.22 L1535.5,299.12 L1531.85,299.09 L1526.45,299.16 L1521.09,299.36 L1515.78,299.7 L1510.51,300.17 L1505.29,300.77 L1500.11,301.51 L1494.97,302.38 L1489.88,303.39 L1484.83,304.53 L1479.83,305.81 L1474.87,307.22 L1469.95,308.77 L1465.08,310.44 L1460.25,312.26 L1455.46,314.21 L1450.72,316.29 L1446.02,318.51 L1441.37,320.86 L1436.76,323.34 L1432.19,325.96 L1427.67,328.72 L1423.19,331.61 L1418.75,334.63 L1414.36,337.79 L1410.01,341.08 L1405.71,344.5 L1401.45,348.06 L1397.23,351.76 L1393.06,355.59 L1388.93,359.55 L1384.85,363.65 L1380.81,367.88 L1376.85,372.21 L1373.02,376.58 L1369.31,381 L1365.73,385.46 L1362.28,389.98 L1358.95,394.54 L1355.75,399.15 L1352.67,403.8 L1349.72,408.51 L1346.89,413.26 L1344.19,418.06 L1341.62,422.91 L1339.17,427.81 L1336.85,432.75 L1334.65,437.74 L1332.58,442.78 L1330.63,447.87 L1328.81,453 L1327.11,458.18 L1325.54,463.41 L1324.1,468.69 L1322.78,474.02 L1321.59,479.39 L1320.52,484.81 L1319.58,490.28 L1318.76,495.79 L1318.07,501.36 L1317.51,506.97 L1317.07,512.63 L1316.75,518.33 L1316.56,524.09 L1316.5,529.89 L1316.54,534.23 L1316.65,538.51 L1316.84,542.75 L1317.11,546.93 L1317.46,551.07 L1317.88,555.15 L1318.37,559.18 L1318.95,563.16 L1319.6,567.1 L1320.32,570.98 L1321.12,574.81 L1322,578.59 L1322.96,582.32 L1323.99,585.99 L1325.1,589.62 L1326.28,593.2 L1327.54,596.72 L1328.88,600.2 L1330.3,603.63 L1331.79,607 L1333.35,610.32 L1335,613.6 L1336.72,616.82 L1338.51,619.99 L1340.38,623.11 L1342.33,626.18 L1344.36,629.2 L1346.46,632.17 L1348.64,635.09 L1350.89,637.96 L1353.22,640.78 L1355.63,643.55 L1358.1,646.24 L1360.61,648.86 L1363.17,651.38 L1365.78,653.83 L1368.43,656.18 L1371.12,658.45 L1373.86,660.64 L1376.65,662.74 L1379.48,664.75 L1382.35,666.68 L1385.27,668.52 L1388.24,670.28 L1391.25,671.95 L1394.31,673.53 L1397.41,675.03 L1400.56,676.45 L1403.75,677.77 L1406.99,679.02 L1410.27,680.17 L1413.6,681.24 L1416.97,682.23 L1420.39,683.13 L1423.86,683.94 L1427.37,684.67 L1430.92,685.31 L1434.52,685.87 L1438.17,686.34 L1441.86,686.73 L1445.59,687.03 L1449.38,687.24 L1453.2,687.37 L1457.07,687.41 L1601.63,687.41 Z"/>
<path data-neon="9" d="M992.94,147.01l-.13-3.99-.22-3.94-.31-3.9-.4-3.86-.49-3.82-.58-3.77-.66-3.73-.75-3.69-.84-3.65-.93-3.61-1.02-3.56-1.11-3.52-1.2-3.48-1.28-3.44-1.37-3.39-1.46-3.35-1.55-3.31-1.64-3.27-1.73-3.22-1.82-3.18-1.9-3.14-1.99-3.1-2.08-3.06-2.17-3.01-2.26-2.97-2.35-2.93-2.44-2.89-2.53-2.84-2.61-2.8-2.7-2.76-2.79-2.72-2.86-2.65-2.9-2.57-2.95-2.48-2.99-2.4-3.04-2.32-3.08-2.23-3.13-2.15-3.17-2.06-3.22-1.98-3.26-1.9-3.31-1.81-3.35-1.73-3.39-1.64-3.44-1.56-3.48-1.47-3.53-1.39-3.57-1.31-3.62-1.22-3.66-1.14-3.71-1.05-3.75-.97-3.8-.88-3.84-.8-3.89-.72-3.93-.63-3.98-.55-4.02-.46-4.07-.38-4.11-.29-4.16-.21-4.2-.13L833.97,0l-4.17.04-4.14.12-4.11.2-4.07.28-4.04.35-4.01.43-3.97.51-3.94.59-3.91.67-3.87.75-3.84.83-3.8.91-3.77.99-3.74,1.06-3.7,1.14-3.67,1.22-3.64,1.3-3.6,1.38-3.57,1.46-3.54,1.54-3.5,1.62-3.47,1.7-3.43,1.77-3.4,1.85-3.37,1.93-3.33,2.01-3.3,2.09-3.27,2.17-3.23,2.25-3.2,2.33-3.17,2.41-3.13,2.48-3.1,2.56-3.07,2.64-3.03,2.72-3,2.8-2.96,2.88-2.93,2.96-2.9,3.04-2.86,3.11-2.83,3.19-2.8,3.27-2.76,3.35-2.73,3.43-2.7,3.51-2.66,3.59-2.63,3.67-2.59,3.75-2.56,3.82-2.53,3.9-2.49,3.98-2.46,4.06-2.43,4.14-2.39,4.22-2.36,4.3-2.33,4.38-2.29,4.46-2.26,4.53-2.23,4.61-2.19,4.69-2.16,4.77-2.12,4.85-2.09,4.93-2.06,5.01-22.93,56.33h-85.24l-5.35.07-5.2.22-5.05.36-4.9.51-4.76.66-2.32.38-2.29.42-2.25.46-2.21.49-2.17.53-2.14.57-2.1.6-2.06.64-2.03.68-1.99.71-1.95.75-1.92.78-1.88.82-1.84.86-1.8.89-1.77.93-1.73.97-1.69,1-1.66,1.04-1.62,1.08-1.58,1.11-1.55,1.15-1.5,1.18-1.46,1.21-1.41,1.24-1.36,1.26-1.31,1.29-1.26,1.32-1.22,1.34-1.17,1.37-1.12,1.4-1.07,1.42-1.03,1.45-.98,1.48-.93,1.5-.88,1.53-.83,1.56-.79,1.58-.74,1.61-.69,1.64-.64,1.66-.6,1.69-.55,1.72-.5,1.74-.45,1.77-.41,1.8-.36,1.82-.31,1.85-.26,1.88-.21,1.9-.17,1.93-.12,1.96-.07,1.99-.02,2.01v1.53s.05,1.51.05,1.51l.07,1.48.1,1.46.12,1.43.15,1.41.18,1.39.2,1.36.23,1.34.26,1.31.29,1.29.31,1.27.34,1.24.37,1.22.4,1.19.42,1.17.45,1.14.48,1.12.5,1.1.53,1.07.56,1.05.59,1.02.61,1,.64.98.67.95.7.93.72.9.75.88.78.86.8.83.83.81.86.78.89.76.91.74.94.71.97.69.99.66,1.02.64,1.05.61,1.08.59,1.1.57,1.13.54,1.16.52,1.19.49,1.21.47,1.24.45,1.27.42,1.29.4,1.32.37,1.35.35,1.38.33,1.4.3,1.43.28,1.46.25,1.49.23,1.51.2,3.11.34,3.22.24,3.33.14,3.43.05h73.28l-149.05,367.38h-175.97l-5.79.03-5.71.09-5.64.15-5.56.21-5.48.28-5.41.34-5.33.4-5.26.46-5.18.52-5.1.58-5.03.64-4.95.71-4.88.77-4.8.83-4.72.89-4.65.95-4.57,1.01-4.5,1.07-4.42,1.13-4.35,1.2-4.27,1.26-4.19,1.32-4.12,1.38-4.04,1.44-3.97,1.5-3.89,1.56-3.81,1.63-3.74,1.69-3.66,1.75-3.59,1.81-3.51,1.87-3.43,1.93-5.17,3.13-5.03,3.28-4.89,3.43-4.76,3.58-4.62,3.74-4.48,3.89-4.35,4.04-4.21,4.19-4.08,4.34-3.94,4.5-3.8,4.65-3.67,4.8-3.53,4.95-3.39,5.1-3.26,5.26-3.12,5.41-2.96,5.51-2.77,5.56-2.58,5.61-2.39,5.66-2.19,5.71-2,5.76-1.81,5.81-1.62,5.86-1.43,5.91-1.24,5.96-1.05,6.01-.86,6.07-.67,6.12-.48,6.17-.29,6.22-.1,6.27.06,5.02.17,4.96.28,4.91.39,4.85.5,4.8.61,4.74.72,4.69.84,4.63.95,4.58,1.06,4.52,1.17,4.46,1.28,4.41,1.39,4.35,1.5,4.3,1.62,4.24,1.73,4.19,1.84,4.13,1.95,4.08,2.06,4.02,2.17,3.97,2.29,3.91,2.4,3.85,2.51,3.8,2.62,3.74,2.73,3.69,2.84,3.63,2.95,3.58,3.07,3.52,3.18,3.47,3.29,3.41,3.4,3.35,3.51,3.3,3.6,3.22,3.66,3.12,3.72,3.02,3.78,2.91,3.84,2.81,3.9,2.71,3.96,2.61,4.02,2.5,4.08,2.4,4.14,2.3,4.2,2.2,4.26,2.1,4.32,1.99,4.38,1.89,4.44,1.79,4.5,1.69,4.56,1.58,4.61,1.48,4.68,1.38,4.73,1.28,4.79,1.18,4.85,1.07,4.91.97,4.97.87,5.03.77,5.09.66,5.15.56,5.21.46,5.27.36,5.33.26,5.39.15,5.45.05,6.74-.07,6.69-.22,6.64-.37,6.59-.52,6.54-.67,6.49-.82,6.44-.97,6.4-1.12,6.35-1.27,6.3-1.42,6.25-1.56,6.2-1.71,6.15-1.86,6.1-2.01,6.05-2.16,6.01-2.31,5.96-2.46,5.91-2.61,5.86-2.76,5.81-2.9,5.76-3.05,5.71-3.2,5.67-3.35,5.62-3.5,5.57-3.65,5.52-3.8,5.47-3.95,5.42-4.1,5.37-4.25,5.32-4.39,5.28-4.54,5.23-4.69,3.94-3.68,3.85-3.7,3.75-3.72,3.66-3.73,3.57-3.75,3.47-3.76,3.38-3.78,3.29-3.79,3.19-3.81,3.1-3.82,3.01-3.84,2.91-3.86,2.82-3.87,2.73-3.89,2.63-3.9,2.54-3.92,2.55-4.11,2.67-4.47,2.78-4.83,2.9-5.19,3.02-5.56,3.14-5.92,3.25-6.28,3.37-6.64,7.09-14.37,7.56-15.82,8.02-17.27,8.49-18.72,5.98-13.96h370.87l5.35-.07,5.2-.22,5.05-.37,4.9-.51,4.76-.66,2.32-.38,2.29-.42,2.25-.46,2.21-.49,2.17-.53,2.14-.57,2.1-.6,2.06-.64,2.03-.68,1.99-.71,1.95-.75,1.92-.78,1.88-.82,1.84-.86,1.8-.89,1.77-.93,1.73-.97,1.69-1,1.66-1.04,1.62-1.08,1.58-1.11,1.55-1.15,1.5-1.18,1.46-1.21,1.41-1.24,1.36-1.27,1.31-1.3,1.26-1.33,1.22-1.36,1.17-1.39,1.12-1.42,1.07-1.45,1.03-1.48.98-1.51.93-1.54.88-1.57.83-1.6.79-1.63.74-1.66.69-1.69.64-1.72.6-1.75.55-1.78.5-1.81.45-1.84.41-1.87.36-1.9.31-1.93.26-1.96.21-1.98.17-2.01.12-2.04.07-2.07.02-2.1-.02-1.48-.05-1.46-.08-1.44-.12-1.41-.15-1.39-.19-1.37-.22-1.34-.25-1.32-.29-1.3-.32-1.27-.36-1.25-.39-1.23-.42-1.2-.46-1.18-.49-1.16-.52-1.13-.56-1.11-.59-1.09-.63-1.06-.66-1.04-.69-1.02-.73-.99-.76-.97-.8-.95-.83-.92-.86-.9-.9-.88-.93-.85-.96-.83-1-.81-1.03-.78-1.07-.76-1.1-.74-1.13-.71-1.17-.69-1.2-.67-1.23-.64-1.27-.62-1.3-.6-1.34-.57-1.37-.55-1.4-.53-1.44-.5-1.47-.48-1.51-.46-1.54-.43-1.57-.41-1.61-.39-1.64-.36-1.67-.34-3.45-.61-3.59-.51-3.72-.42-3.86-.33-3.99-.23-4.13-.14-4.26-.05h-345.45l149.55-367.38h52.34l6.54-.05,6.46-.15,6.38-.25,6.3-.35,6.23-.45,6.15-.55,6.07-.66,6-.76,5.92-.86,5.84-.96,5.77-1.06,5.69-1.16,5.61-1.26,5.54-1.36,5.46-1.46,5.38-1.56,5.3-1.66,5.23-1.76,5.15-1.86,5.07-1.96,5-2.07,4.92-2.17,4.84-2.27,4.77-2.37,4.69-2.47,4.61-2.57,4.54-2.67,4.46-2.77,4.38-2.87,4.3-2.97,4.23-3.07,4.15-3.17,4.05-3.26,3.92-3.32,3.79-3.38,3.66-3.44,3.53-3.5,3.41-3.56,3.28-3.62,3.15-3.68,3.02-3.74,2.89-3.8,2.76-3.86,2.63-3.92,2.51-3.99,2.38-4.05,2.25-4.11,2.12-4.17,1.99-4.23,1.86-4.29,1.73-4.35,1.61-4.41,1.48-4.47,1.35-4.53,1.22-4.59,1.09-4.65.96-4.72.84-4.78.71-4.84.58-4.9.45-4.96.32-5.02.19-5.08.06-5.14-.04-4.03ZM361.97,840.5l-3.53,7.54-3.64,7.34-3.75,7.14-3.86,6.93-3.98,6.73-4.09,6.52-4.2,6.32-4.31,6.11-4.42,5.91-4.53,5.7-4.64,5.5-4.75,5.3-4.86,5.09-4.97,4.89-5.09,4.68-2.57,2.25-2.58,2.18-2.59,2.11-2.59,2.04-2.6,1.97-2.61,1.9-2.61,1.82-2.62,1.75-2.62,1.68-2.63,1.61-2.64,1.54-2.64,1.47-2.65,1.4-2.66,1.32-2.66,1.25-2.67,1.18-2.67,1.11-2.68,1.04-2.69.97-2.69.89-2.7.82-2.71.75-2.71.68-2.72.61-2.73.54-2.73.47-2.74.39-2.74.32-2.75.25-2.76.18-2.76.11-2.77.04-2.01-.02-1.99-.06-1.97-.09-1.95-.13-1.93-.17-1.91-.21-1.89-.24-1.86-.28-1.84-.32-1.82-.36-1.8-.39-1.78-.43-1.76-.47-1.74-.51-1.71-.54-1.69-.58-1.67-.62-1.65-.66-1.63-.69-1.61-.73-1.59-.77-1.56-.81-1.54-.84-1.52-.88-1.5-.92-1.48-.96-1.46-.99-1.44-1.03-1.41-1.07-1.39-1.11-1.37-1.14-1.35-1.18-1.32-1.21-1.28-1.23-1.24-1.24-1.19-1.26-1.15-1.28-1.11-1.3-1.07-1.32-1.03-1.33-.98-1.35-.94-1.37-.9-1.39-.86-1.41-.82-1.42-.77-1.44-.73-1.46-.69-1.48-.65-1.5-.61-1.51-.57-1.53-.52-1.55-.48-1.57-.44-1.59-.4-1.6-.36-1.62-.31-1.64-.27-1.66-.23-1.68-.19-1.69-.15-1.71-.1-1.73-.06-1.75-.02-1.77.02-2.15.07-2.11.12-2.08.17-2.05.21-2.01.26-1.98.31-1.95.36-1.91.41-1.88.45-1.84.5-1.81.55-1.78.6-1.74.64-1.71.69-1.67.74-1.64.79-1.61.83-1.57.88-1.54.93-1.51.98-1.47,1.03-1.44,1.07-1.4,1.12-1.37,1.17-1.34,1.22-1.3,1.26-1.27,1.31-1.23,1.36-1.2,1.41-1.17,1.46-1.13,1.5-1.1,1.55-1.07,1.6-1.03,1.65-1,1.69-.96,1.74-.93,1.79-.9,1.84-.86,1.88-.83,1.93-.79,1.98-.76,2.03-.73,2.08-.69,2.12-.66,2.17-.63,2.22-.59,2.27-.56,2.31-.52,2.36-.49,4.87-.88,5.06-.74,5.25-.61,5.44-.47,5.63-.34,5.82-.2,6.01-.07h131.1l-3.42,7.75ZM865.84,155.21l-.08,1.66-.13,1.64-.18,1.63-.23,1.61-.29,1.59-.34,1.58-.39,1.56-.44,1.55-.49,1.53-.55,1.51-.6,1.5-.65,1.48-.7,1.47-.76,1.45-.81,1.43-.86,1.42-.91,1.4-.96,1.39-1.02,1.37-1.07,1.35-1.12,1.34-1.17,1.32-1.22,1.3-1.28,1.29-1.33,1.27-1.38,1.26-1.43,1.24-1.48,1.22-1.54,1.21-1.59,1.19-1.64,1.18-1.68,1.15-1.7,1.11-1.72,1.08-1.74,1.04-1.76,1-1.78.97-1.8.93-1.82.89-1.84.86-1.87.82-1.89.78-1.91.75-1.93.71-1.95.68-1.97.64-1.99.6-2.01.57-2.03.53-2.05.49-2.07.46-2.1.42-2.12.38-2.14.35-2.16.31-2.18.27-2.2.24-4.46.37-4.55.22-4.63.07h-22.93l13.96-34.4,1.78-4.29,1.79-4.16,1.8-4.02,1.81-3.88,1.82-3.75,1.83-3.61,1.85-3.48,1.86-3.34,1.87-3.2,1.88-3.07,1.89-2.93,1.9-2.79,1.91-2.66,1.92-2.52,1.93-2.39,1.94-2.25,1.95-2.11.98-1.01.98-.97.99-.94.99-.9.99-.87.99-.83,1-.8,1-.77,1-.73,1-.7,1.01-.66,1.01-.63,1.01-.6,1.02-.56,1.02-.53,1.02-.49,1.02-.46,1.03-.43,1.03-.39,1.03-.36,1.03-.32,1.04-.29,1.04-.26,1.04-.22,1.04-.19,1.05-.15,1.05-.12,1.05-.09,1.06-.05,1.06-.02,2.3.04,1.12.05,1.1.07,1.09.09,1.07.11,1.05.13,1.03.15,1.01.17.99.19.98.2.96.22.94.24.92.26.9.28.89.3.87.32.85.34.83.36.81.38.79.4.78.42.76.44.74.46.72.48.7.5.68.52.67.54.65.56.63.57.61.59.59.61.58.63.56.65.54.67.52.69.5.71.48.73.47.75.45.77.43.79.41.81.39.83.37.85.36.87.34.89.32.91.3.92.28.94.26.96.25.98.23,1,.21,1.02.19,1.04.17,1.06.16,1.08.14,1.1.12,1.12.18,2.3.11,2.38.04,2.45-.03,1.67Z"/>
</svg>