<?xml version="1.0" encoding="UTF-8"?><svg id="Make2D_Visible_Curves" xmlns="http://www.w3.org/2000/svg" viewBox="0 0 5614.94 1083.71"><path d="M1297.04,621.73l-.05-1.35-.08-1.33-.11-1.31-.14-1.29-.17-1.27-.2-1.25-.23-1.22-.26-1.2-.29-1.18-.32-1.16-.35-1.14-.38-1.12-.41-1.09-.44-1.07-.48-1.05-.51-1.03-.54-1.01-.57-.99-.6-.96-.63-.94-.66-.92-.69-.9-.72-.88-.75-.86-.78-.83-.81-.81-.84-.79-.87-.77-.9-.75-.94-.73-.97-.7-1-.68-1.03-.66-1.06-.64-1.09-.62-1.12-.6-1.15-.57-1.18-.55-1.21-.53-1.24-.51-1.27-.49-1.3-.47-1.33-.44-1.36-.42-1.4-.4-1.43-.38-1.46-.36-1.49-.34-1.52-.31-3.13-.56-3.25-.48-3.37-.39-3.5-.3-3.62-.22-3.74-.13-3.86-.04h-148.05l-3.47-.04-3.36-.11-3.25-.18-3.14-.26-3.03-.33-2.92-.4-2.81-.47-2.7-.55-1.31-.3-1.28-.32-1.25-.34-1.22-.36-1.2-.37-1.17-.39-1.14-.41-1.11-.43-1.09-.45-1.06-.47-1.03-.48-1-.5-.98-.52-.95-.54-.92-.56-.89-.57-.87-.59-.84-.61-.81-.63-.78-.65-.76-.67-.73-.68-.7-.7-.67-.72-.65-.74-.62-.76-.59-.78-.56-.79-.54-.81-.51-.83-.48-.85-.45-.87-.43-.89-.4-.9-.37-.92-.34-.94-.32-.96-.29-.98-.26-1-.23-1.01-.21-1.03-.18-1.05-.15-1.07-.12-1.09-.1-1.1-.07-1.12-.04-1.14v-1.16s99.68,0,99.68,0l7.42-.07,7.19-.22,6.96-.36,6.72-.5,6.49-.65,6.25-.79,6.02-.94,5.79-1.08,5.55-1.22,2.69-.67,2.63-.7,2.57-.74,2.51-.77,2.46-.81,2.4-.85,2.34-.88,2.28-.92,2.22-.95,2.16-.99,2.1-1.03,2.05-1.06,1.99-1.1,1.93-1.13,3.37-2.06,3.27-2.13,3.16-2.2,3.05-2.26,2.95-2.33,2.84-2.4,2.73-2.47,2.62-2.54,2.52-2.6,2.41-2.67,1.16-1.36,1.14-1.38,1.11-1.4,1.08-1.41,1.06-1.43,1.03-1.45,1-1.46.98-1.48.95-1.5.92-1.52.9-1.53.87-1.55.84-1.57.82-1.58.79-1.6.76-1.62.74-1.63.71-1.65,1.34-3.35,1.23-3.42,1.12-3.49,1.02-3.56.91-3.63.8-3.69.7-3.76.59-3.83.48-3.9.37-3.97.27-4.04.16-4.1.05-4.17-.04-3.47-.12-3.43-.19-3.38-.27-3.34-.35-3.3-.43-3.26-.5-3.21-.58-3.17-.66-3.13-.74-3.09-.81-3.04-.89-3-.97-2.96-1.04-2.92-1.12-2.88-1.2-2.83-1.28-2.79-1.35-2.75-1.43-2.71-1.51-2.66-1.59-2.62-1.66-2.58-1.74-2.54-1.82-2.49-1.9-2.45-1.97-2.41-2.05-2.37-2.13-2.32-2.21-2.28-2.28-2.24-2.36-2.2-2.44-2.16-2.5-2.1-2.55-2.03-2.6-1.97-2.65-1.9-2.7-1.83-2.75-1.77-2.8-1.7-2.85-1.63-2.9-1.57-2.95-1.5-3-1.43-3.05-1.37-3.1-1.3-3.15-1.23-3.2-1.17-3.25-1.1-3.3-1.03-3.35-.97-3.4-.9-3.45-.83-3.5-.77-3.55-.7-3.6-.63-3.66-.57-3.71-.5-3.76-.43-3.81-.37-3.86-.3-3.91-.23-3.96-.17-4.01-.1-4.06-.03-5.58.07-5.54.2-5.49.34-5.44.48-5.39.61-5.34.75-5.29.89-5.25,1.02-5.2,1.16-5.15,1.29-5.1,1.43-5.05,1.57-5.01,1.7-4.96,1.84-4.91,1.98-4.86,2.11-4.81,2.25-4.76,2.39-4.72,2.52-4.67,2.66-4.62,2.79-4.57,2.93-4.52,3.07-4.48,3.2-4.43,3.34-4.38,3.48-4.33,3.61-4.28,3.75-4.23,3.88-4.19,4.02-4.14,4.16-4.09,4.29-4,4.39-3.88,4.44-3.75,4.49-3.62,4.54-3.49,4.59-3.37,4.65-3.24,4.7-3.11,4.75-2.99,4.8-2.86,4.85-2.73,4.9-2.6,4.96-2.48,5.01-2.35,5.06-2.22,5.11-2.1,5.16-1.97,5.21-1.84,5.26-1.72,5.32-1.59,5.37-1.46,5.42-1.33,5.47-1.21,5.52-1.08,5.57-.95,5.63-.83,5.68-.7,5.73-.57,5.78-.44,5.83-.32,5.88-.19,5.94-.06,5.99.04,4.64.12,4.57.2,4.5.28,4.43.36,4.36.44,4.29.52,4.22.6,4.15.68,4.08.76,4.01.84,3.94.92,3.87,1,3.8,1.08,3.73,1.16,3.66,1.25,3.59,1.33,3.52,1.41,3.45,1.49,3.38,1.57,3.31,1.65,3.24,1.73,3.17,1.81,3.1,1.89,3.03,1.97,2.96,2.05,2.89,2.13,2.82,2.21,2.75,2.29,2.68,2.37,2.61,2.45,2.54,2.53,2.47,2.61,2.39,2.68,2.32,2.75,2.24,2.83,2.16,2.9,2.09,2.97,2.01,3.05,1.94,3.12,1.86,3.2,1.78,3.27,1.71,3.34,1.63,3.42,1.56,3.49,1.48,3.56,1.41,3.64,1.33,3.71,1.25,3.78,1.18,3.86,1.1,3.93,1.03,4,.95,4.08.87,4.15.8,4.22.72,4.3.65,4.37.57,4.44.49,4.52.42,4.59.34,4.67.27,4.74.19,4.81.11,4.89.04h141.07l4.92-.07,4.78-.2,4.64-.33,4.5-.46,4.36-.6,2.13-.35,2.09-.38,2.06-.41,2.03-.45,1.99-.48,1.96-.51,1.92-.55,1.89-.58,1.85-.61,1.82-.65,1.78-.68,1.75-.71,1.71-.74,1.68-.78,1.65-.81,1.61-.84,1.58-.88,1.54-.91,1.51-.94,1.47-.98,1.44-1.01,1.4-1.04,1.36-1.07,1.32-1.1,1.28-1.12,1.23-1.15,1.19-1.18,1.15-1.2,1.1-1.23,1.06-1.26,1.02-1.28.97-1.31.93-1.34.89-1.36.84-1.39.8-1.41.76-1.44.71-1.47.67-1.49.63-1.52.58-1.55.54-1.57.5-1.6.45-1.62.41-1.65.37-1.68.32-1.7.28-1.73.24-1.76.19-1.78.15-1.81.11-1.83.06-1.86.02-1.89-.02-1.38ZM1055.47,447.56l1.71-2.97,1.75-2.87,1.78-2.77,1.82-2.68,1.86-2.58,1.9-2.48,1.94-2.39,1.97-2.29,2.01-2.19,2.05-2.09,2.09-2,2.13-1.9,1.08-.91,1.09-.89,1.1-.86,1.11-.84,1.12-.82,1.12-.79,1.13-.77,1.14-.74,1.15-.72,1.16-.69,1.17-.67,1.18-.65,1.19-.62,1.2-.6,1.21-.57,1.22-.55,1.23-.52,1.24-.5,1.25-.47,1.26-.45,1.27-.43,1.28-.4,1.29-.38,1.3-.35,1.31-.33,1.31-.3,1.32-.28,1.33-.26,1.34-.23,1.35-.21,1.36-.18,1.37-.16,1.38-.13,1.39-.11,1.4-.08,1.41-.06,2.85-.05,2.03.03,1.96.08,1.9.13,1.84.18,1.78.23.87.14.85.15.84.16.82.17.81.19.79.2.78.21.76.23.74.24.73.25.71.26.7.28.68.29.67.3.65.32.64.33.62.34.61.35.59.37.58.38.56.39.55.41.53.42.51.43.5.45.48.46.47.47.45.48.44.5.42.51.41.52.39.54.38.55.36.56.35.57.33.59.31.6.3.61.28.63.27.64.25.65.24.66.22.68.21.69.19.7.18.72.16.73.15.74.13.75.12.77.1.78.09.79.07.81.07,1.18v.36s.02.36.02.36v.71s-.02.35-.02.35l-.02.35-.03.34-.03.34-.04.34-.05.34-.05.33-.06.33-.07.33-.07.32-.08.32-.09.32-.09.32-.1.31-.11.31-.11.31-.12.3-.13.3-.13.3-.14.3-.15.29-.15.29-.16.29-.17.28-.17.28-.18.28-.19.28-.19.27-.2.27-.21.27-.21.26-.22.26-.23.26-.23.26-.24.25-.25.25-.25.25-.26.24-.27.24-.27.24-.28.24-.58.46-.61.45-.64.44-.66.43-.69.42-.72.41-.74.39-.77.38-.8.37-.82.36-.85.35-.88.34-.9.33-.93.31-.96.3-.98.29-1.01.28-2.1.53-2.21.48-2.32.43-2.42.39-2.53.34-2.64.3-2.74.25-2.85.21-6.02.27-6.45.09h-54.83l1.67-3.07Z"/><path d="M4727.13,344.74l-.04-1.2-.07-1.19-.1-1.18-.13-1.16-.16-1.15-.19-1.14-.22-1.13-.24-1.12-.27-1.11-.3-1.1-.33-1.09-.36-1.07-.39-1.06-.42-1.05-.45-1.04-.47-1.03-.5-1.02-.53-1.01-.56-1-.59-.99-.62-.97-.65-.96-.68-.95-.7-.94-.73-.93-.76-.92-.79-.91-.82-.9-.85-.88-.88-.87-.9-.86-.93-.84-.94-.82-.95-.79-.96-.76-.97-.74-.99-.71-1-.68-1.01-.66-1.02-.63-1.03-.6-1.05-.58-1.06-.55-1.07-.52-1.08-.5-1.1-.47-1.11-.44-1.12-.42-1.13-.39-1.14-.36-1.16-.33-1.17-.31-1.18-.28-1.19-.25-1.21-.23-1.22-.2-1.23-.17-1.24-.15-1.25-.12-1.27-.09-1.28-.07-1.29-.04h-1.3s-2.66.03-2.66.03l-2.62.12-2.58.19-2.55.27-2.51.35-2.47.43-2.43.51-2.39.58-2.36.66-1.16.36-1.15.38-1.15.4-1.14.42-1.13.44-1.12.46-1.11.48-1.1.5-1.09.52-1.08.54-1.07.55-1.06.57-1.05.59-1.04.61-1.03.63-1.02.65-1.01.67-1,.69-1.98,1.44-1.94,1.52-1.9,1.6-1.86,1.67-1.83,1.75-1.79,1.83-1.75,1.91-1.71,1.99-1.67,2.06-1.64,2.14-1.6,2.22-1.56,2.3-1.52,2.38-1.48,2.45-1.93-2.45-1.99-2.38-2.05-2.3-2.11-2.22-2.17-2.14-2.23-2.06-2.29-1.99-2.35-1.91-2.41-1.83-2.47-1.75-2.53-1.67-2.59-1.6-2.66-1.52-2.72-1.44-2.78-1.36-2.84-1.29-2.9-1.21-2.96-1.13-3.02-1.05-3.08-.97-3.14-.9-3.2-.82-3.26-.74-3.32-.66-3.38-.58-3.44-.51-3.5-.43-3.56-.35-3.62-.27-3.68-.19-3.74-.12-3.8-.04-5.22.07-5.19.22-5.15.38-5.12.52-5.09.67-5.06.82-5.03.97-4.99,1.12-4.96,1.27-4.93,1.42-4.9,1.57-4.86,1.72-4.83,1.87-4.8,2.02-4.77,2.17-4.74,2.32-4.7,2.47-4.67,2.62-4.64,2.77-4.61,2.92-4.58,3.07-4.54,3.22-4.51,3.37-4.48,3.52-4.45,3.67-4.41,3.82-4.38,3.97-4.35,4.12-4.32,4.27-4.29,4.42-4.25,4.57-4.22,4.72-4.14,4.82-4.01,4.85-3.88,4.89-3.75,4.93-3.61,4.96-3.48,5-3.35,5.04-3.22,5.08-3.09,5.11-2.96,5.15-2.83,5.19-2.69,5.22-2.56,5.26-2.43,5.3-2.3,5.33-2.17,5.37-2.04,5.41-1.91,5.45-1.77,5.48-1.64,5.52-1.51,5.56-1.38,5.59-1.25,5.63-1.12,5.67-.99,5.7-.85,5.74-.72,5.78-.59,5.82-.46,5.85-.33,5.89-.2,5.93-.07,5.96.03,3.69.1,3.64.16,3.6.23,3.55.29,3.51.36,3.47.42,3.42.49,3.38.55,3.34.61,3.29.68,3.25.74,3.2.81,3.16.87,3.12.94,3.07,1,3.03,1.07,2.98,1.13,2.94,1.2,2.9,1.26,2.85,1.33,2.81,1.39,2.77,1.46,2.72,1.52,2.68,1.59,2.63,1.65,2.59,1.72,2.55,1.78,2.5,1.85,2.46,1.91,2.42,1.97,2.37,2.04,2.33,2.09,2.27,2.13,2.2,2.17,2.13,2.21,2.05,2.25,1.98,2.29,1.91,2.33,1.84,2.37,1.77,2.41,1.69,2.45,1.62,2.49,1.55,2.53,1.48,2.56,1.4,2.6,1.33,2.64,1.26,2.68,1.19,2.72,1.12,2.76,1.04,2.8.97,2.84.9,2.88.83,2.92.76,2.96.68,3,.61,3.04.54,3.08.47,3.12.4,3.16.32,3.2.25,3.24.18,3.27.11,3.31.04,1.75-.02,1.75-.06,1.76-.09,1.77-.13,1.78-.17,1.78-.2,1.79-.24,1.8-.28,1.8-.31,1.81-.35,1.82-.39,1.82-.43,1.83-.46,1.84-.5,3.69-1.11,3.72-1.26,3.75-1.41,3.78-1.55,3.8-1.7,3.83-1.85,3.86-2,3.88-2.15,3.91-2.29-15.45,38.88h-107.17l-5.54.03-5.47.09-5.4.14-5.33.2-5.26.26-5.19.32-5.11.37-5.04.43-4.97.49-4.9.55-4.83.6-4.76.66-4.69.72-4.62.78-4.55.83-4.48.89-4.4.95-4.33,1.01-4.26,1.06-4.19,1.12-4.12,1.18-4.05,1.24-3.98,1.29-3.91,1.35-3.84,1.41-3.76,1.46-3.69,1.52-3.62,1.58-3.55,1.64-3.48,1.69-3.41,1.75-3.34,1.81-5.29,3.06-5.15,3.19-5,3.32-4.86,3.45-4.72,3.58-4.58,3.71-4.43,3.84-4.29,3.97-4.15,4.1-4.01,4.23-3.87,4.36-3.72,4.49-3.58,4.62-3.44,4.75-3.3,4.88-3.16,5.01-2.99,5.1-2.8,5.15-2.6,5.19-2.41,5.23-2.22,5.28-2.02,5.32-1.83,5.37-.84,2.7-.8,2.71-.75,2.72-.7,2.74-.65,2.75-.6,2.76-.55,2.77-.51,2.78-.87,5.59-.67,5.64-.48,5.68-.29,5.73-.1,5.77.05,4.43.15,4.39.25,4.34.35,4.29.45,4.24.55,4.2.65,4.15.75,4.1.85,4.06.95,4.01,1.05,3.96,1.15,3.92,1.25,3.87,1.35,3.82,1.45,3.78,1.55,3.73,1.65,3.68,1.75,3.64,1.85,3.59,1.95,3.54,2.05,3.5,2.15,3.45,2.25,3.4,2.35,3.36,2.44,3.31,2.54,3.26,2.64,3.22,2.74,3.17,2.84,3.12,2.94,3.08,3.04,3.03,3.14,2.98,3.22,2.91,3.27,2.82,3.32,2.73,3.37,2.64,3.42,2.54,3.47,2.45,3.52,2.36,3.57,2.27,3.62,2.17,3.67,2.08,3.72,1.99,3.77,1.9,3.82,1.8,3.87,1.71,3.92,1.62,3.97,1.53,4.02,1.43,4.07,1.34,4.12,1.25,4.17,1.16,4.22,1.06,4.27.97,4.32.88,4.37.79,4.42.69,4.47.6,4.52.51,4.57.42,4.62.32,4.67.23,4.72.14,4.77.05,4.56-.05,4.53-.14,4.49-.23,4.46-.32,4.43-.41,4.39-.5,4.36-.59,4.32-.68,4.29-.78,4.25-.87,4.22-.96,4.19-1.05,4.15-1.14,4.12-1.23,4.08-1.32,4.05-1.41,4.01-1.51,3.98-1.6,3.95-1.69,3.91-1.78,3.88-1.87,3.84-1.96,3.81-2.05,3.77-2.14,3.74-2.24,3.7-2.33,3.67-2.42,3.64-2.51,3.6-2.6,3.57-2.69,3.53-2.78,3.5-2.88,3.46-2.97,3.43-3.06,3.4-3.15,3.36-3.24,3.33-3.33,3.29-3.42,3.26-3.51,3.22-3.61,3.19-3.7,3.16-3.79,3.12-3.88,3.09-3.97,3.05-4.06,3.02-4.15,2.98-4.24,2.95-4.34,2.92-4.43,2.88-4.52,2.85-4.61,2.81-4.7,2.78-4.79,2.74-4.88,2.71-4.97,2.68-5.07,2.64-5.16,2.61-5.25,2.57-5.34,2.54-5.43,2.5-5.52,2.47-5.61,2.43-5.7,2.4-5.8,20.94-51.34h82.75l4.86-.07,4.72-.2,4.59-.34,4.46-.47,4.33-.6,2.11-.35,2.08-.39,2.05-.42,2.01-.45,1.98-.49,1.95-.52,1.92-.55,1.88-.59,1.85-.62,1.82-.66,1.78-.69,1.75-.72,1.72-.76,1.68-.79,1.65-.82,1.62-.86,1.58-.89,1.55-.92,1.52-.96,1.48-.99,1.45-1.02,1.42-1.06,1.38-1.09,1.34-1.11,1.29-1.14,1.25-1.17,1.2-1.19,1.16-1.22,1.12-1.24,1.07-1.27,1.03-1.29.99-1.32.94-1.35.9-1.37.85-1.4.81-1.42.77-1.45.72-1.47.68-1.5.64-1.53.59-1.55.55-1.58.5-1.6.46-1.63.42-1.66.37-1.68.33-1.71.28-1.73.24-1.76.2-1.78.15-1.81.11-1.84.07-1.86.02-1.89-.02-1.36-.05-1.34-.08-1.32-.11-1.3-.14-1.27-.17-1.25-.2-1.23-.23-1.21-.26-1.19-.29-1.17-.32-1.15-.36-1.12-.39-1.1-.42-1.08-.45-1.06-.48-1.04-.51-1.02-.54-1-.57-.97-.6-.95-.63-.93-.66-.91-.7-.89-.73-.87-.76-.85-.79-.82-.82-.8-.85-.78-.88-.76-.91-.74-.94-.72-.97-.7-1-.67-1.04-.65-1.07-.63-1.1-.61-1.13-.59-1.16-.57-1.19-.55-1.22-.52-1.25-.5-1.28-.48-1.31-.46-1.34-.44-1.38-.42-1.41-.4-1.44-.38-1.47-.35-1.5-.33-1.53-.31-3.15-.56-3.28-.47-3.4-.39-3.52-.3-3.65-.21-3.77-.13-3.89-.04h-59.82l125.12-308.06,3.04-7.72,2.63-7.2,2.23-6.69.96-3.15.86-3.02.76-2.9.66-2.77.56-2.64.46-2.51.35-2.38.14-1.14.11-1.11.09-1.08.06-1.05.04-1.01v-.98s0-1.21,0-1.21ZM4415.61,828.09l-3.93,8.46-3.89,8.13-3.85,7.79-3.81,7.45-3.77,7.11-3.73,6.77-3.7,6.43-3.66,6.09-3.62,5.75-3.58,5.42-3.54,5.08-3.5,4.74-3.46,4.4-1.72,2.07-1.71,1.99-1.7,1.9-1.69,1.82-1.69,1.75-1.71,1.69-1.73,1.64-1.74,1.58-1.76,1.53-1.78,1.47-1.8,1.42-1.81,1.36-1.83,1.3-1.85,1.25-1.87,1.19-1.88,1.14-1.9,1.08-1.92,1.03-1.94.97-1.95.92-1.97.86-1.99.8-2.01.75-2.02.69-2.04.64-2.06.58-2.08.53-2.09.47-2.11.42-2.13.36-2.15.31-2.16.25-2.18.19-2.2.14-2.22.08-2.23.03-1.55-.02-1.53-.05-1.52-.08-1.5-.11-1.49-.14-1.47-.18-1.46-.21-1.44-.24-1.43-.27-1.41-.31-1.39-.34-1.38-.37-1.36-.4-1.35-.43-1.33-.47-1.32-.5-1.3-.53-1.29-.56-1.27-.59-1.25-.63-1.24-.66-1.22-.69-1.21-.72-1.19-.75-1.18-.79-1.16-.82-1.15-.85-1.13-.88-1.11-.92-1.1-.95-1.08-.98-1.07-1.01-1.04-1.04-1.01-1.05-.98-1.06-.94-1.08-.91-1.09-.88-1.1-.84-1.12-.81-1.13-.78-1.14-.74-1.16-.71-1.17-.68-1.18-.65-1.2-.61-1.21-.58-1.23-.55-1.24-.51-1.25-.48-1.27-.45-1.28-.41-1.29-.38-1.31-.35-1.32-.31-1.33-.28-1.35-.25-1.36-.22-1.38-.18-1.39-.15-1.4-.12-1.42-.08-1.43-.05-1.44-.02-1.46.02-2.13.07-2.1.12-2.07.17-2.04.22-2.01.27-1.98.31-1.95.36-1.92.41-1.89.46-1.86.51-1.83.55-1.8.6-1.77.65-1.74.7-1.71.75-1.68.8-1.65.84-1.62.89-1.59.94-1.56.99-1.53,1.04-1.5,1.08-1.47,1.13-1.44,1.18-1.41,1.23-1.38,1.28-1.35,1.33-1.32,1.37-1.29,1.42-1.26,1.47-1.23,1.52-1.2,1.56-1.17,1.6-1.13,1.64-1.09,1.68-1.05,1.72-1.02,1.76-.98,1.8-.94,1.84-.91,1.88-.87,1.92-.83,1.96-.8,2-.76,2.03-.72,2.07-.68,2.11-.65,2.15-.61,2.19-.57,2.23-.54,2.27-.5,2.31-.46,2.35-.43,2.39-.39,4.9-.67,5.06-.52,5.21-.37,5.37-.22,5.53-.07h86.24l-3.97,8.8ZM4569.61,433.19v.51s-.04.52-.04.52l-.03.53-.1,1.08-.14,1.12-.18,1.15-.21,1.19-.25,1.22-.29,1.26-.33,1.29-.37,1.33-.41,1.36-.45,1.4-1.01,2.91-1.17,3.05-40.38,98.7-.35.82-.37.81-.38.79-.4.78-.41.77-.43.75-.44.74-.46.73-.47.72-.49.7-.5.69-.52.68-.53.66-.55.65-.57.64-.58.63-.6.61-.61.6-.63.59-.64.57-.66.56-.67.55-.69.54-.7.52-.72.51-.73.5-.75.48-.76.47-.78.46-.8.45-.81.43-.83.42-.84.41-.86.39-.87.38-.89.37-.9.35-.92.34-1.88.65-1.94.59-2,.54-2.07.49-2.13.44-2.19.39-2.25.34-2.31.28-2.37.23-2.43.18-2.49.13-2.56.08-2.62.03-3.01-.05-1.47-.06-1.44-.09-1.42-.11-1.4-.14-1.37-.17-1.35-.19-1.32-.22-1.3-.24-1.28-.27-1.25-.29-1.23-.32-1.2-.34-1.18-.37-1.16-.4-1.13-.42-1.11-.45-1.09-.47-1.06-.5-1.04-.52-1.01-.55-.99-.58-.97-.6-.94-.63-.92-.65-.89-.68-.87-.7-.85-.73-.82-.75-.8-.78-.78-.8-.75-.83-.73-.86-.7-.88-.68-.91-.66-.93-.63-.96-.61-.98-.58-1.01-.56-1.03-.54-1.06-.51-1.09-.49-1.11-.47-1.14-.44-1.16-.42-1.19-.39-1.21-.37-1.24-.35-1.27-.32-1.29-.3-1.32-.27-1.34-.25-1.37-.23-1.39-.2-1.42-.18-1.44-.16-1.47-.24-3.02-.14-3.12-.05-3.22.03-2.86.1-2.85.16-2.84.22-2.83.29-2.82.35-2.82.41-2.81.48-2.8.54-2.79.61-2.78.67-2.77.73-2.76.8-2.75.86-2.74.92-2.73.99-2.72,1.05-2.71,1.12-2.7,1.18-2.7,1.24-2.69,1.31-2.68,1.37-2.67,1.43-2.66,1.5-2.65,1.56-2.64,1.63-2.63,1.69-2.62,1.75-2.61,1.82-2.6,1.88-2.59,3.95-5.16,4.09-4.98,2.06-2.37,2.06-2.29,2.07-2.21,2.08-2.13,2.08-2.05,2.09-1.97,2.09-1.89,2.1-1.81,2.11-1.73,2.11-1.65,2.12-1.57,2.13-1.49,2.13-1.41,2.14-1.33,2.15-1.25,2.15-1.16,2.16-1.08,2.16-1,2.17-.92,2.18-.84,2.18-.76,2.19-.68,2.2-.6,1.1-.27,1.1-.25,1.1-.23,1.1-.21,1.11-.19,1.11-.17,1.11-.15,1.11-.13,1.11-.11,1.11-.09,1.12-.07,1.12-.05,1.12-.03h1.12s2.47.03,2.47.03l2.41.12,2.36.19,1.16.13,1.15.15,1.13.17,1.12.19,1.11.2,1.1.22,1.08.24,1.07.26,1.06.28,1.04.3,1.03.32,1.02.34,1,.36.99.38.98.4.96.42.95.44.94.46.92.48.91.5.9.52.88.54.87.55.86.57.85.59.83.61.81.63.79.64.76.65.74.66.71.67.68.68.66.69.63.7.61.71.58.72.55.73.53.73.5.74.48.75.45.76.43.77.4.78.37.79.35.8.32.81.3.82.27.83.25.84.22.85.19.86.17.87.14.88.12.89.09.9.06.91.04.92v.93s0,.5,0,.5Z"/><polygon points="4847.77 457.11 4864.72 415.24 4916.56 415.24 4911.31 421.16 4906.25 426.97 4901.4 432.66 4896.75 438.23 4892.3 443.69 4888.06 449.03 4884.01 454.25 4880.17 459.35 4876.54 464.34 4873.1 469.22 4869.87 473.97 4866.84 478.61 4864.01 483.13 4861.39 487.53 4858.97 491.82 4856.75 495.99 4854.69 500.11 4852.77 504.25 4850.99 508.4 4849.33 512.57 4847.81 516.75 4846.42 520.95 4845.16 525.16 4844.03 529.39 4843.04 533.64 4842.18 537.9 4841.45 542.17 4840.86 546.46 4840.39 550.77 4840.06 555.09 4839.86 559.43 4839.8 563.79 4839.83 567.19 4839.92 570.56 4840.08 573.89 4840.29 577.18 4840.57 580.42 4840.91 583.63 4841.31 586.8 4841.78 589.93 4842.3 593.01 4842.89 596.06 4843.54 599.07 4844.25 602.04 4845.02 604.97 4845.86 607.85 4846.75 610.7 4847.71 613.51 4848.73 616.28 4849.81 619.01 4850.96 621.7 4852.16 624.35 4853.43 626.95 4854.76 629.52 4856.15 632.05 4857.6 634.54 4859.12 636.99 4860.69 639.4 4862.33 641.77 4864.03 644.1 4865.79 646.39 4867.62 648.64 4869.5 650.85 4871.45 653.02 4873.45 655.13 4875.48 657.18 4877.55 659.16 4879.65 661.08 4881.79 662.93 4883.96 664.71 4886.17 666.42 4888.42 668.06 4890.7 669.64 4893.01 671.15 4895.36 672.6 4897.75 673.98 4900.17 675.29 4902.63 676.53 4905.12 677.7 4907.65 678.81 4910.22 679.85 4912.82 680.83 4915.45 681.74 4918.13 682.57 4920.83 683.35 4923.58 684.05 4926.35 684.69 4929.17 685.26 4932.02 685.77 4934.9 686.2 4937.82 686.57 4940.78 686.87 4943.77 687.11 4946.79 687.28 4949.86 687.38 4952.95 687.41 5050.66 687.41 5055.57 687.35 5060.35 687.15 5064.99 686.82 5069.49 686.35 5073.85 685.76 5075.98 685.41 5078.08 685.03 5080.14 684.61 5082.16 684.17 5084.16 683.69 5086.11 683.17 5088.03 682.63 5089.92 682.05 5091.77 681.44 5093.59 680.79 5095.38 680.11 5097.13 679.4 5098.84 678.66 5100.52 677.88 5102.17 677.07 5103.78 676.22 5105.35 675.35 5106.9 674.44 5108.4 673.49 5109.88 672.52 5111.31 671.51 5112.72 670.46 5114.08 669.39 5115.4 668.29 5116.68 667.16 5117.92 666.01 5119.11 664.83 5120.26 663.62 5121.36 662.38 5122.42 661.12 5123.44 659.83 5124.42 658.51 5125.35 657.16 5126.24 655.79 5127.08 654.39 5127.88 652.96 5128.64 651.51 5129.36 650.03 5130.03 648.52 5130.66 646.98 5131.24 645.42 5131.78 643.83 5132.28 642.21 5132.73 640.56 5133.15 638.89 5133.51 637.19 5133.84 635.46 5134.12 633.71 5134.36 631.93 5134.55 630.12 5134.71 628.28 5134.81 626.42 5134.88 624.53 5134.9 622.61 5134.89 621.25 5134.84 619.91 5134.76 618.59 5134.65 617.3 5134.51 616.02 5134.34 614.77 5134.14 613.54 5133.91 612.33 5133.65 611.14 5133.36 609.97 5133.03 608.83 5132.68 607.7 5132.29 606.6 5131.87 605.52 5131.42 604.46 5130.94 603.42 5130.43 602.4 5129.89 601.4 5129.32 600.43 5128.72 599.48 5128.09 598.54 5127.42 597.63 5126.72 596.74 5126 595.88 5125.24 595.03 5124.45 594.21 5123.63 593.4 5122.78 592.62 5121.9 591.86 5120.99 591.12 5120.05 590.4 5119.07 589.71 5118.07 589.03 5117.03 588.38 5115.97 587.75 5114.87 587.14 5113.74 586.55 5112.58 585.98 5111.39 585.44 5110.17 584.91 5108.92 584.41 5107.64 583.93 5106.32 583.46 5104.98 583.03 5103.6 582.61 5102.2 582.21 5100.76 581.84 5099.29 581.48 5097.79 581.15 5096.26 580.84 5093.11 580.28 5089.83 579.81 5086.43 579.43 5082.91 579.13 5079.26 578.91 5075.49 578.78 5071.59 578.74 5008.78 578.74 5005.96 578.7 5003.23 578.58 5000.59 578.38 4999.3 578.25 4998.04 578.1 4996.79 577.92 4995.57 577.73 4994.37 577.52 4993.2 577.29 4992.05 577.03 4990.91 576.76 4989.81 576.47 4988.72 576.16 4987.66 575.82 4986.62 575.47 4985.6 575.1 4984.6 574.7 4983.63 574.29 4982.67 573.85 4981.74 573.4 4980.84 572.92 4979.95 572.43 4979.09 571.91 4978.25 571.38 4977.43 570.82 4976.64 570.25 4975.87 569.65 4975.12 569.03 4974.39 568.4 4973.68 567.74 4973 567.06 4972.34 566.37 4971.7 565.65 4971.09 564.91 4970.49 564.16 4969.92 563.38 4969.37 562.58 4968.85 561.76 4968.34 560.92 4967.86 560.06 4967.4 559.19 4966.97 558.29 4966.55 557.37 4966.16 556.43 4965.79 555.47 4965.44 554.49 4965.12 553.49 4964.82 552.47 4964.54 551.43 4964.28 550.37 4964.04 549.29 4963.83 548.19 4963.64 547.06 4963.47 545.92 4963.33 544.76 4963.2 543.58 4963.1 542.38 4963.02 541.16 4962.97 539.91 4962.93 538.65 4962.92 537.37 4962.94 536.07 4963 534.75 4963.1 533.41 4963.23 532.06 4963.41 530.69 4963.62 529.31 4963.87 527.91 4964.16 526.49 4964.49 525.05 4964.86 523.6 4965.27 522.13 4965.71 520.64 4966.19 519.14 4966.72 517.62 4967.28 516.08 4967.88 514.53 4969.19 511.37 4970.66 508.15 4972.29 504.86 4974.07 501.5 4976 498.07 4978.09 494.58 4980.34 491.02 4982.74 487.39 4985.29 483.7 4988 479.94 4990.87 476.11 4993.88 472.21 4997.06 468.25 5000.39 464.22 5003.87 460.12 5007.51 455.96 5011.3 451.73 5015.25 447.43 5019.35 443.06 5023.61 438.63 5028.02 434.13 5032.59 429.56 5037.31 424.93 5042.18 420.22 5047.67 415.24 5052.76 415.18 5057.69 414.99 5062.45 414.68 5067.06 414.25 5071.5 413.69 5075.79 413.01 5077.87 412.63 5079.91 412.21 5081.91 411.76 5083.87 411.28 5085.79 410.77 5087.67 410.23 5089.51 409.66 5091.3 409.06 5093.06 408.42 5094.78 407.76 5096.45 407.06 5098.09 406.34 5099.69 405.58 5101.24 404.79 5102.76 403.97 5104.23 403.12 5105.67 402.24 5107.06 401.33 5108.41 400.39 5109.73 399.41 5111 398.41 5112.23 397.37 5113.42 396.31 5114.58 395.21 5115.69 394.08 5116.76 392.92 5117.79 391.73 5118.78 390.51 5119.73 389.26 5120.64 387.97 5121.51 386.66 5122.33 385.32 5123.12 383.94 5123.87 382.53 5124.58 381.1 5125.24 379.63 5125.87 378.13 5126.46 376.6 5127 375.04 5127.51 373.45 5127.97 371.82 5128.39 370.17 5128.78 368.48 5129.12 366.77 5129.42 365.02 5129.69 363.24 5129.91 361.44 5130.09 359.6 5130.23 357.73 5130.33 355.83 5130.39 353.89 5130.41 351.93 5130.4 350.51 5130.35 349.11 5130.27 347.73 5130.16 346.38 5130.02 345.05 5129.84 343.74 5129.63 342.45 5129.39 341.18 5129.12 339.94 5128.82 338.72 5128.49 337.52 5128.12 336.35 5127.72 335.19 5127.29 334.06 5126.83 332.95 5126.33 331.87 5125.81 330.8 5125.25 329.76 5124.66 328.74 5124.04 327.75 5123.38 326.77 5122.7 325.82 5121.98 324.89 5121.23 323.98 5120.45 323.1 5119.64 322.24 5118.79 321.4 5117.92 320.58 5117.01 319.79 5116.07 319.01 5115.09 318.26 5114.09 317.54 5113.05 316.83 5111.98 316.15 5110.88 315.49 5109.75 314.85 5108.59 314.23 5107.39 313.64 5106.17 313.07 5104.91 312.52 5103.62 311.99 5102.29 311.49 5100.94 311.01 5099.55 310.55 5098.13 310.11 5096.68 309.7 5095.2 309.31 5093.68 308.94 5092.14 308.59 5090.56 308.26 5087.31 307.68 5083.93 307.19 5080.42 306.79 5076.78 306.47 5073.02 306.25 5069.13 306.12 5065.11 306.07 4948.47 306.07 4942.88 306.02 4937.84 305.88 4933.35 305.65 4931.31 305.5 4929.4 305.32 4927.63 305.12 4926 304.9 4924.5 304.66 4923.8 304.53 4923.14 304.39 4922.51 304.24 4921.91 304.1 4921.35 303.94 4920.82 303.78 4920.33 303.61 4920.1 303.53 4919.87 303.44 4919.66 303.35 4919.45 303.26 4919.25 303.17 4919.06 303.08 4918.87 302.98 4918.69 302.88 4918.5 302.78 4918.32 302.67 4918.14 302.56 4917.96 302.44 4917.78 302.32 4917.61 302.19 4917.43 302.06 4917.26 301.93 4917.09 301.79 4916.92 301.64 4916.75 301.49 4916.58 301.34 4916.42 301.18 4916.25 301.02 4916.09 300.86 4915.93 300.69 4915.61 300.33 4915.3 299.96 4914.99 299.57 4914.69 299.17 4914.4 298.74 4914.11 298.3 4913.82 297.85 4913.55 297.37 4913.27 296.88 4913.01 296.36 4912.75 295.84 4912.49 295.29 4912.25 294.73 4912 294.14 4911.77 293.55 4911.31 292.3 4910.88 290.98 4910.47 289.59 4910.08 288.12 4906.1 272.67 4905.54 270.52 4904.93 268.45 4904.6 267.43 4904.26 266.44 4903.9 265.46 4903.53 264.49 4903.15 263.55 4902.75 262.62 4902.34 261.71 4901.92 260.81 4901.48 259.94 4901.03 259.08 4900.56 258.23 4900.08 257.41 4899.59 256.6 4899.08 255.8 4898.56 255.03 4898.03 254.27 4897.48 253.53 4896.91 252.81 4896.34 252.1 4895.74 251.41 4895.14 250.74 4894.52 250.08 4893.89 249.44 4893.24 248.82 4892.58 248.21 4891.91 247.63 4891.22 247.05 4890.52 246.5 4889.8 245.96 4889.07 245.44 4888.33 244.94 4887.57 244.46 4886.8 243.99 4886.02 243.54 4885.22 243.1 4884.4 242.68 4883.58 242.28 4882.74 241.9 4881.88 241.53 4881.01 241.19 4880.13 240.85 4879.24 240.54 4878.33 240.24 4877.4 239.96 4876.46 239.69 4875.51 239.45 4874.55 239.22 4873.57 239 4872.57 238.81 4871.57 238.63 4870.55 238.47 4869.51 238.32 4867.4 238.08 4865.23 237.91 4863.01 237.81 4860.73 237.78 4859.57 237.79 4858.41 237.83 4857.27 237.89 4856.13 237.97 4855 238.08 4853.87 238.22 4852.76 238.38 4851.65 238.56 4850.55 238.77 4849.46 239.01 4848.38 239.26 4847.31 239.55 4846.25 239.85 4845.19 240.19 4844.14 240.54 4843.1 240.92 4842.07 241.33 4841.04 241.76 4840.03 242.22 4839.02 242.69 4838.02 243.2 4837.03 243.73 4836.05 244.28 4835.08 244.86 4834.11 245.46 4833.15 246.09 4832.21 246.74 4831.26 247.41 4830.33 248.12 4829.41 248.84 4828.49 249.59 4827.58 250.36 4826.69 251.16 4825.79 251.99 4824.91 252.84 4824.04 253.71 4823.17 254.61 4822.31 255.53 4821.46 256.47 4820.62 257.44 4818.96 259.46 4817.34 261.57 4815.75 263.79 4814.19 266.1 4812.66 268.51 4811.17 271.01 4809.71 273.62 4808.28 276.32 4806.89 279.13 4805.53 282.03 4804.2 285.03 4802.91 288.12 4746.58 427.2 4744.01 433.81 4741.78 439.91 4739.9 445.52 4738.36 450.63 4737.71 453 4737.16 455.24 4736.69 457.36 4736.3 459.35 4736 461.22 4735.88 462.11 4735.79 462.97 4735.71 463.79 4735.66 464.59 4735.62 465.35 4735.61 466.08 4735.63 467.32 4735.67 468.55 4735.75 469.77 4735.85 470.97 4735.98 472.16 4736.14 473.33 4736.33 474.5 4736.55 475.65 4736.8 476.79 4737.07 477.91 4737.38 479.03 4737.72 480.13 4738.08 481.22 4738.48 482.29 4738.9 483.35 4739.35 484.4 4739.83 485.44 4740.35 486.47 4740.89 487.48 4741.46 488.48 4742.05 489.46 4742.68 490.44 4743.34 491.4 4744.03 492.35 4744.74 493.28 4745.49 494.21 4746.26 495.12 4747.06 496.02 4747.9 496.9 4748.76 497.77 4749.65 498.64 4750.57 499.48 4751.51 500.31 4752.47 501.11 4753.44 501.89 4754.42 502.64 4755.42 503.36 4756.44 504.06 4757.47 504.73 4758.51 505.37 4759.57 505.99 4760.65 506.58 4761.73 507.15 4762.84 507.68 4763.95 508.2 4765.09 508.68 4766.23 509.14 4767.39 509.58 4768.57 509.98 4769.76 510.37 4770.96 510.72 4772.18 511.05 4773.42 511.35 4774.67 511.63 4775.93 511.88 4777.21 512.1 4778.5 512.3 4779.81 512.47 4781.13 512.61 4782.46 512.73 4783.81 512.82 4785.18 512.89 4786.56 512.93 4787.96 512.94 4789.1 512.93 4790.25 512.89 4791.38 512.82 4792.51 512.72 4793.63 512.6 4794.75 512.45 4795.86 512.27 4796.96 512.07 4798.05 511.84 4799.14 511.58 4800.22 511.29 4801.3 510.98 4802.36 510.64 4803.43 510.27 4804.48 509.87 4805.53 509.45 4806.57 509 4807.6 508.53 4808.63 508.02 4809.65 507.49 4810.66 506.93 4811.67 506.34 4812.67 505.73 4813.66 505.09 4814.64 504.42 4815.62 503.73 4816.6 503.01 4817.56 502.26 4818.52 501.48 4819.47 500.67 4820.42 499.84 4821.35 498.98 4822.28 498.1 4823.21 497.18 4824.13 496.24 4825.04 495.28 4826.84 493.26 4828.61 491.13 4830.36 488.9 4832.08 486.55 4833.77 484.1 4835.44 481.54 4837.07 478.87 4838.68 476.09 4840.27 473.2 4841.82 470.2 4843.35 467.09 4844.85 463.87 4846.33 460.55 4847.77 457.11"/><path d="M2601.08,621.73l-.05-1.35-.08-1.33-.11-1.31-.14-1.29-.17-1.27-.2-1.25-.23-1.22-.26-1.2-.29-1.18-.32-1.16-.35-1.14-.38-1.12-.41-1.09-.44-1.07-.48-1.05-.51-1.03-.54-1.01-.57-.99-.6-.96-.63-.94-.66-.92-.69-.9-.72-.88-.75-.86-.78-.83-.81-.81-.84-.79-.87-.77-.9-.75-.94-.73-.97-.7-1-.68-1.03-.66-1.06-.64-1.09-.62-1.12-.6-1.15-.57-1.18-.55-1.21-.53-1.24-.51-1.27-.49-1.3-.47-1.33-.44-1.36-.42-1.4-.4-1.43-.38-1.46-.36-1.49-.34-1.52-.31-3.13-.56-3.25-.48-3.37-.39-3.5-.3-3.62-.22-3.74-.13-3.86-.04h-148.05l-3.47-.04-3.36-.11-3.25-.18-3.14-.26-3.03-.33-2.92-.4-2.81-.47-2.7-.55-1.31-.3-1.28-.32-1.25-.34-1.22-.36-1.2-.37-1.17-.39-1.14-.41-1.11-.43-1.09-.45-1.06-.47-1.03-.48-1-.5-.98-.52-.95-.54-.92-.56-.89-.57-.87-.59-.84-.61-.81-.63-.78-.65-.76-.67-.73-.68-.7-.7-.67-.72-.65-.74-.62-.76-.59-.78-.56-.79-.54-.81-.51-.83-.48-.85-.45-.87-.43-.89-.4-.9-.37-.92-.34-.94-.32-.96-.29-.98-.26-1-.23-1.01-.21-1.03-.18-1.05-.15-1.07-.12-1.09-.1-1.1-.07-1.12-.04-1.14v-1.16s99.68,0,99.68,0l7.42-.07,7.19-.22,6.96-.36,6.72-.5,6.49-.65,6.25-.79,6.02-.94,5.79-1.08,5.55-1.22,2.69-.67,2.63-.7,2.57-.74,2.51-.77,2.46-.81,2.4-.85,2.34-.88,2.28-.92,2.22-.95,2.16-.99,2.1-1.03,2.05-1.06,1.99-1.1,1.93-1.13,3.37-2.06,3.27-2.13,3.16-2.2,3.05-2.26,2.95-2.33,2.84-2.4,2.73-2.47,2.62-2.54,2.52-2.6,2.41-2.67,1.16-1.36,1.14-1.38,1.11-1.4,1.08-1.41,1.06-1.43,1.03-1.45,1-1.46.98-1.48.95-1.5.92-1.52.9-1.53.87-1.55.84-1.57.82-1.58.79-1.6.76-1.62.74-1.63.71-1.65,1.34-3.35,1.23-3.42,1.12-3.49,1.02-3.56.91-3.63.8-3.69.7-3.76.59-3.83.48-3.9.37-3.97.27-4.04.16-4.1.05-4.17-.04-3.47-.12-3.43-.19-3.38-.27-3.34-.35-3.3-.43-3.26-.5-3.21-.58-3.17-.66-3.13-.74-3.09-.81-3.04-.89-3-.97-2.96-1.04-2.92-1.12-2.88-1.2-2.83-1.28-2.79-1.35-2.75-1.43-2.71-1.51-2.66-1.59-2.62-1.66-2.58-1.74-2.54-1.82-2.49-1.9-2.45-1.97-2.41-2.05-2.37-2.13-2.32-2.21-2.28-2.28-2.24-2.36-2.2-2.44-2.16-2.5-2.1-2.55-2.03-2.6-1.97-2.65-1.9-2.7-1.83-2.75-1.77-2.8-1.7-2.85-1.63-2.9-1.57-2.95-1.5-3-1.43-3.05-1.37-3.1-1.3-3.15-1.23-3.2-1.17-3.25-1.1-3.3-1.03-3.35-.97-3.4-.9-3.45-.83-3.5-.77-3.55-.7-3.61-.63-3.66-.57-3.71-.5-3.76-.43-3.81-.37-3.86-.3-3.91-.23-3.96-.17-4.01-.1-4.06-.03-5.58.07-5.54.2-5.49.34-5.44.48-5.39.61-5.34.75-5.29.89-5.25,1.02-5.2,1.16-5.15,1.29-5.1,1.43-5.05,1.57-5.01,1.7-4.96,1.84-4.91,1.98-4.86,2.11-4.81,2.25-4.76,2.39-4.72,2.52-4.67,2.66-4.62,2.79-4.57,2.93-4.52,3.07-4.48,3.2-4.43,3.34-4.38,3.48-4.33,3.61-4.28,3.75-4.23,3.88-4.19,4.02-4.14,4.16-4.09,4.29-4,4.39-3.88,4.44-3.75,4.49-3.62,4.54-3.49,4.59-3.37,4.65-3.24,4.7-3.11,4.75-2.99,4.8-2.86,4.85-2.73,4.9-2.6,4.96-2.48,5.01-2.35,5.06-2.22,5.11-2.1,5.16-1.97,5.21-1.84,5.26-1.72,5.32-1.59,5.37-1.46,5.42-1.33,5.47-1.21,5.52-1.08,5.57-.95,5.63-.83,5.68-.7,5.73-.57,5.78-.44,5.83-.32,5.88-.19,5.94-.06,5.99.04,4.64.12,4.57.2,4.5.28,4.43.36,4.36.44,4.29.52,4.22.6,4.15.68,4.08.76,4.01.84,3.94.92,3.87,1,3.8,1.08,3.73,1.16,3.66,1.24,3.59,1.33,3.52,1.41,3.45,1.49,3.38,1.57,3.31,1.65,3.24,1.73,3.17,1.81,3.1,1.89,3.03,1.97,2.96,2.05,2.89,2.13,2.82,2.21,2.75,2.29,2.68,2.37,2.61,2.45,2.54,2.53,2.47,2.61,2.39,2.68,2.32,2.75,2.24,2.83,2.16,2.9,2.09,2.97,2.01,3.05,1.94,3.12,1.86,3.2,1.78,3.27,1.71,3.34,1.63,3.42,1.56,3.49,1.48,3.56,1.41,3.64,1.33,3.71,1.25,3.78,1.18,3.86,1.1,3.93,1.03,4,.95,4.08.87,4.15.8,4.22.72,4.3.65,4.37.57,4.44.49,4.52.42,4.59.34,4.67.27,4.74.19,4.81.11,4.89.04h141.07l4.92-.07,4.78-.2,4.64-.33,4.5-.46,4.36-.6,2.13-.35,2.09-.38,2.06-.41,2.03-.45,1.99-.48,1.96-.51,1.92-.55,1.89-.58,1.85-.61,1.82-.65,1.78-.68,1.75-.71,1.71-.74,1.68-.78,1.65-.81,1.61-.84,1.58-.88,1.54-.91,1.51-.94,1.47-.98,1.44-1.01,1.4-1.04,1.36-1.07,1.32-1.1,1.28-1.12,1.23-1.15,1.19-1.18,1.15-1.2,1.1-1.23,1.06-1.26,1.02-1.28.97-1.31.93-1.34.89-1.36.84-1.39.8-1.41.76-1.44.71-1.47.67-1.49.63-1.52.58-1.55.54-1.57.5-1.6.45-1.62.41-1.65.37-1.68.32-1.7.28-1.73.24-1.76.2-1.78.15-1.81.11-1.83.07-1.86.02-1.89-.02-1.38ZM2359.51,447.56l1.71-2.97,1.75-2.87,1.78-2.77,1.82-2.68,1.86-2.58,1.9-2.48,1.94-2.39,1.97-2.29,2.01-2.19,2.05-2.09,2.09-2,2.13-1.9,1.08-.91,1.09-.89,1.1-.86,1.11-.84,1.12-.82,1.12-.79,1.13-.77,1.14-.74,1.15-.72,1.16-.69,1.17-.67,1.18-.65,1.19-.62,1.2-.6,1.21-.57,1.22-.55,1.23-.52,1.24-.5,1.25-.47,1.26-.45,1.27-.43,1.28-.4,1.29-.38,1.3-.35,1.3-.33,1.31-.3,1.32-.28,1.33-.26,1.34-.23,1.35-.21,1.36-.18,1.37-.16,1.38-.13,1.39-.11,1.4-.08,1.41-.06,2.85-.05,2.03.03,1.96.08,1.9.13,1.84.18,1.78.23.87.14.85.15.84.16.82.17.81.19.79.2.78.21.76.23.74.24.73.25.71.26.7.28.68.29.67.3.65.32.64.33.62.34.61.35.59.37.58.38.56.39.55.41.53.42.51.43.5.45.48.46.47.47.45.48.44.5.42.51.41.52.39.54.38.55.36.56.35.57.33.59.32.6.3.61.28.63.27.64.25.65.24.66.22.68.21.69.19.7.18.72.16.73.15.74.13.75.12.77.1.78.09.79.07.81.07,1.18v.36s.02.36.02.36v.36s0,.35,0,.35v.35s-.03.35-.03.35l-.03.34-.03.34-.04.34-.05.34-.05.33-.06.33-.07.33-.07.32-.08.32-.09.32-.09.32-.1.31-.11.31-.11.31-.12.3-.13.3-.13.3-.14.3-.15.29-.15.29-.16.29-.17.28-.17.28-.18.28-.19.28-.19.27-.2.27-.21.27-.21.26-.22.26-.23.26-.23.26-.24.25-.25.25-.25.25-.26.24-.27.24-.27.24-.28.24-.58.46-.61.45-.64.44-.66.43-.69.42-.72.41-.74.39-.77.38-.8.37-.82.36-.85.35-.88.34-.9.33-.93.31-.96.3-.98.29-1.01.28-2.1.53-2.21.48-2.32.43-2.42.39-2.53.34-2.64.3-2.74.25-2.85.21-6.02.27-6.45.09h-54.83l1.67-3.07Z"/><path d="M5614.93,621.25l-.05-1.34-.08-1.32-.11-1.3-.14-1.27-.17-1.25-.2-1.23-.23-1.21-.26-1.19-.29-1.17-.32-1.15-.35-1.12-.38-1.1-.41-1.08-.44-1.06-.48-1.04-.51-1.02-.54-1-.57-.97-.6-.95-.63-.93-.66-.91-.69-.89-.72-.87-.75-.85-.78-.82-.81-.8-.84-.78-.87-.76-.9-.74-.94-.72-.97-.7-1-.67-1.03-.65-1.06-.63-1.09-.61-1.12-.59-1.15-.57-1.18-.55-1.21-.52-1.24-.5-1.27-.48-1.3-.46-1.33-.44-1.36-.42-1.4-.4-1.43-.37-1.46-.35-1.49-.33-1.52-.31-3.13-.56-3.25-.47-3.37-.39-3.5-.3-3.62-.21-3.74-.13-3.86-.04h-54.83l77.27-190.92,1.87-4.77.84-2.32.78-2.28.72-2.24.65-2.19.59-2.15.53-2.11.47-2.07.41-2.02.34-1.98.28-1.94.22-1.89.16-1.85.09-1.81.03-1.77v-1.27s-.06-1.26-.06-1.26l-.07-1.25-.1-1.23-.13-1.22-.16-1.21-.19-1.2-.22-1.18-.24-1.17-.27-1.16-.3-1.14-.33-1.13-.36-1.12-.39-1.11-.42-1.09-.45-1.08-.47-1.07-.5-1.06-.53-1.04-.56-1.03-.59-1.02-.62-1.01-.65-.99-.68-.98-.7-.97-.73-.95-.76-.94-.79-.93-.82-.92-.85-.9-.88-.89-.9-.88-.93-.86-.94-.83-.95-.8-.97-.78-.98-.75-1-.72-1.01-.7-1.03-.67-1.04-.64-1.05-.61-1.07-.59-1.08-.56-1.1-.53-1.11-.5-1.12-.48-1.14-.45-1.15-.42-1.17-.4-1.18-.37-1.19-.34-1.21-.31-1.22-.29-1.24-.26-1.25-.23-1.26-.2-1.28-.18-1.29-.15-1.31-.12-1.32-.1-1.34-.07-1.35-.04h-1.36s-2.51.02-2.51.02l-2.48.11-2.45.18-2.42.26-2.39.33-2.36.4-2.33.47-2.3.55-2.27.62-2.24.69-2.21.77-2.18.84-2.15.91-2.12.99-2.09,1.06-2.06,1.13-2.03,1.2-2,1.28-1.97,1.35-1.94,1.42-1.9,1.5-1.87,1.57-1.84,1.64-1.81,1.72-1.78,1.79-1.75,1.86-1.72,1.94-1.69,2.01-1.66,2.08-1.63,2.15-1.6,2.23-1.57,2.3-1.87-2.73-1.94-2.64-2.01-2.56-2.07-2.47-2.14-2.38-2.21-2.3-2.27-2.21-2.34-2.12-2.41-2.04-2.48-1.95-2.54-1.86-2.61-1.78-2.68-1.69-2.75-1.6-2.81-1.52-2.88-1.43-2.95-1.34-3.01-1.26-3.08-1.17-3.15-1.08-3.22-1-3.28-.91-3.35-.82-3.42-.74-3.48-.65-3.55-.56-3.62-.48-3.69-.39-3.75-.3-3.82-.22-3.89-.13-3.95-.04-5.19.07-5.15.22-5.12.37-5.09.52-5.05.66-5.02.81-4.98.96-4.95,1.11-4.92,1.25-4.88,1.4-4.85,1.55-4.82,1.7-4.78,1.84-4.75,1.99-4.72,2.14-4.68,2.29-4.65,2.43-4.62,2.58-4.58,2.73-4.55,2.88-4.51,3.02-4.48,3.17-4.45,3.32-4.41,3.47-4.38,3.61-4.35,3.76-4.31,3.91-4.28,4.06-4.25,4.2-4.21,4.35-4.18,4.5-4.15,4.65-4.06,4.74-3.93,4.78-3.81,4.82-3.68,4.86-3.55,4.9-3.42,4.94-3.29,4.98-3.16,5.02-3.03,5.06-2.9,5.09-2.77,5.13-2.64,5.17-2.52,5.21-2.39,5.25-2.26,5.29-2.13,5.33-2,5.37-1.87,5.41-1.74,5.45-1.61,5.49-1.48,5.53-1.35,5.57-1.23,5.61-1.1,5.65-.97,5.69-.84,5.73-.71,5.76-.58,5.8-.45,5.84-.32,5.88-.19,5.92-.06,5.96.03,3.93.1,3.89.16,3.84.23,3.79.3,3.74.36,3.7.43,3.65.49,3.6.56,3.56.62,3.51.69,3.46.76,3.41.82,3.37.89,3.32.95,3.27,1.02,3.22,1.08,3.18,1.15,3.13,1.22,3.08,1.28,3.04,1.35,2.99,1.41,2.94,1.48,2.89,1.54,2.85,1.61,2.8,1.68,2.75,1.74,2.71,1.81,2.66,1.87,2.61,1.94,2.56,2,2.52,2.07,2.47,2.12,2.41,2.17,2.33,2.21,2.25,2.25,2.18,2.29,2.1,2.33,2.03,2.37,1.95,2.41,1.87,2.45,1.8,2.5,1.72,2.54,1.64,2.58,1.57,2.62,1.49,2.66,1.41,2.7,1.34,2.74,1.26,2.79,1.18,2.83,1.11,2.87,1.03,2.91.96,2.95.88,2.99.8,3.03.73,3.08.65,3.12.57,3.16.5,3.2.42,3.24.34,3.28.27,3.32.19,3.36.11,3.41.04h56.83l2.18-.03,2.19-.1,2.19-.16,2.2-.23,2.2-.29,2.21-.36,2.21-.42,2.22-.49,2.22-.55,2.23-.62,2.23-.68,2.24-.75,2.24-.82,2.25-.88,2.25-.95,2.26-1.01,2.26-1.08,2.27-1.14,2.27-1.21,2.28-1.27,2.28-1.34,2.29-1.4,2.29-1.47,2.3-1.53,2.3-1.6,2.3-1.66,4.62-3.52,4.64-3.78,4.66-4.04.99,2.05,1.05,1.99.54.97.56.95.57.94.58.92.6.91.61.89.62.87.64.86.65.84.66.82.68.81.69.79.7.77.72.76.73.74.74.73.76.71.77.69.78.68.8.66.81.64.82.63.84.61.85.6.86.58.88.56.89.55.9.53.92.51.93.5.94.48.96.46.97.45.98.43,1,.42,1.01.4,1.02.38,1.04.37,1.05.35,1.07.33,2.17.62,2.22.55,2.28.49,2.33.42,2.38.36,2.44.29,2.49.23,2.55.16,2.6.1,2.65.03h63.81l4.86-.07,4.72-.2,4.59-.34,4.46-.47,4.33-.6,2.11-.35,2.08-.39,2.05-.42,2.01-.45,1.98-.49,1.95-.52,1.92-.55,1.88-.59,1.85-.62,1.82-.66,1.78-.69,1.75-.72,1.72-.76,1.68-.79,1.65-.82,1.62-.86,1.58-.89,1.55-.92,1.52-.96,1.48-.99,1.45-1.02,1.42-1.06,1.38-1.09,1.34-1.11,1.29-1.14,1.25-1.17,1.2-1.19,1.16-1.22,1.12-1.24,1.07-1.27,1.03-1.29.99-1.32.94-1.35.9-1.37.85-1.4.81-1.42.77-1.45.72-1.47.68-1.5.64-1.53.59-1.55.55-1.58.5-1.6.46-1.63.42-1.66.37-1.68.33-1.71.28-1.73.24-1.76.2-1.78.15-1.81.11-1.84.07-1.86.02-1.89-.02-1.36ZM5425.01,433.91l-.02.73-.08,1.5-.14,1.54-.19,1.58-.25,1.63-.3,1.67-.35,1.71-.41,1.75-.46,1.8-.52,1.84-.57,1.88-.63,1.93-.68,1.97-.74,2.01-1.64,4.15-34.89,86.24-.87,2.05-.92,1.99-.48.97-.49.95-.51.94-.52.92-.53.91-.55.89-.56.87-.57.86-.59.84-.6.82-.61.81-.63.79-.64.77-.66.76-.67.74-.68.73-.7.71-.71.69-.72.68-.74.66-.75.64-.76.63-.78.61-.79.6-.8.58-.82.56-.83.55-.84.53-.86.51-.87.5-.88.48-.9.46-.91.45-.92.43-.94.42-.95.4-.96.38-.98.37-.99.35-1,.33-1.02.32-1.03.3-1.04.29-1.06.27-2.15.49-2.21.42-2.26.36-2.31.29-2.37.23-2.42.16-2.47.1-2.53.03h-13.75s-1.26-.05-1.26-.05l-1.24-.06-1.22-.09-1.2-.11-1.18-.14-1.16-.16-1.14-.19-1.12-.21-1.1-.24-1.08-.26-1.06-.29-1.04-.31-1.02-.34-1-.36-.98-.39-.96-.41-.94-.44-.92-.46-.9-.49-.88-.51-.86-.54-.84-.56-.82-.59-.8-.61-.78-.64-.76-.66-.74-.69-.72-.71-.7-.74-.68-.76-.66-.79-.64-.81-.62-.84-.6-.86-.58-.89-.56-.92-.54-.94-.52-.97-.49-.99-.47-1.02-.45-1.04-.43-1.07-.41-1.09-.39-1.12-.37-1.14-.35-1.17-.33-1.19-.31-1.22-.29-1.24-.27-1.27-.25-1.29-.23-1.32-.21-1.34-.36-2.76-.28-2.86-.2-2.96-.12-3.06-.04-3.16.03-2.83.1-2.83.17-2.82.24-2.81.3-2.81.37-2.8.44-2.8.5-2.79.57-2.79.64-2.78.71-2.77.77-2.77.84-2.76.91-2.76.97-2.75,1.04-2.74,1.11-2.74,1.18-2.73,1.24-2.73,1.31-2.72,1.38-2.72,1.44-2.71,1.51-2.7,1.58-2.7,1.65-2.69,1.71-2.69,1.78-2.68,1.85-2.67,1.91-2.67,1.98-2.66,4.17-5.31,4.31-5.13,2.16-2.44,2.16-2.36,2.17-2.28,2.17-2.19,2.18-2.11,2.18-2.03,2.18-1.94,2.19-1.86,2.19-1.78,2.19-1.7,2.2-1.61,2.2-1.53,2.21-1.45,2.21-1.37,2.21-1.28,2.22-1.2,2.22-1.12,2.23-1.03,2.23-.95,2.23-.87,2.24-.79,2.24-.7,2.25-.62,1.12-.28,1.12-.26,1.13-.24,1.13-.22,1.13-.2,1.13-.18,1.13-.16,1.13-.13,1.13-.11,1.13-.09,1.13-.07,1.13-.05,1.14-.03h1.14s2.29.03,2.29.03l1.13.05,1.12.07,1.11.09,1.1.11,1.09.13,1.08.15,1.07.17,1.06.18,1.05.2,1.04.22,1.02.24,1.01.26,1,.28.99.3.98.32.97.34.96.36.95.38.94.4.93.42.92.44.91.46.9.48.89.5.88.52.87.54.86.55.85.57.84.59.83.61.81.63.79.63.76.64.74.65.71.65.68.66.66.67.63.67.61.68.58.69.55.69.53.7.5.71.48.72.45.72.43.73.4.74.37.74.35.75.32.76.3.76.27.77.25.78.22.78.19.79.17.8.14.8.12.81.09.82.06.82.04.83v.84s0,.72,0,.72Z"/><polygon points="1944.09 327.51 2038.81 94.21 2041.84 86.6 2044.48 79.48 2045.64 76.1 2046.7 72.83 2047.67 69.69 2048.53 66.67 2049.29 63.77 2049.94 60.99 2050.5 58.34 2050.96 55.8 2051.31 53.38 2051.45 52.22 2051.56 51.09 2051.65 49.98 2051.72 48.91 2051.75 47.87 2051.77 46.86 2051.75 45.65 2051.71 44.45 2051.64 43.26 2051.54 42.09 2051.41 40.92 2051.25 39.77 2051.06 38.63 2050.85 37.5 2050.6 36.38 2050.33 35.27 2050.03 34.17 2049.7 33.08 2049.34 32.01 2048.95 30.94 2048.54 29.89 2048.09 28.85 2047.62 27.82 2047.11 26.8 2046.58 25.79 2046.02 24.8 2045.43 23.81 2044.82 22.84 2044.17 21.87 2043.5 20.92 2042.79 19.98 2042.06 19.05 2041.3 18.13 2040.51 17.23 2039.69 16.33 2038.84 15.44 2037.97 14.57 2037.06 13.71 2036.14 12.86 2035.2 12.05 2034.25 11.26 2033.3 10.5 2032.33 9.76 2031.35 9.05 2030.35 8.37 2029.35 7.71 2028.34 7.08 2027.31 6.48 2026.27 5.9 2025.23 5.35 2024.17 4.83 2023.1 4.34 2022.02 3.87 2020.92 3.43 2019.82 3.01 2018.7 2.62 2017.58 2.26 2016.44 1.93 2015.29 1.62 2014.13 1.34 2012.96 1.08 2011.78 .86 2010.59 .66 2009.38 .48 2008.17 .33 2006.94 .21 2005.7 .12 2004.45 .05 2003.19 .01 2001.92 0 2000.38 .02 1998.85 .07 1997.34 .15 1995.83 .27 1994.34 .42 1992.85 .6 1991.37 .82 1989.91 1.07 1988.45 1.36 1987.01 1.68 1985.57 2.03 1984.15 2.42 1982.73 2.84 1981.33 3.29 1979.94 3.78 1978.55 4.3 1977.18 4.85 1975.82 5.44 1974.46 6.06 1973.12 6.72 1971.79 7.41 1970.46 8.13 1969.15 8.88 1967.85 9.67 1966.56 10.5 1965.28 11.35 1964.01 12.24 1962.74 13.17 1961.49 14.12 1960.25 15.12 1959.02 16.14 1957.8 17.2 1956.59 18.29 1955.39 19.41 1954.2 20.57 1953.02 21.77 1951.86 22.99 1950.7 24.25 1948.41 26.87 1946.16 29.63 1943.96 32.51 1941.79 35.54 1939.67 38.69 1937.59 41.99 1935.55 45.41 1933.55 48.97 1931.59 52.67 1929.67 56.5 1927.79 60.46 1925.95 64.56 1924.15 68.79 1701.83 617.13 1700.08 621.78 1699.29 624.05 1698.56 626.28 1697.89 628.48 1697.27 630.63 1696.72 632.75 1696.22 634.82 1695.78 636.86 1695.4 638.86 1695.08 640.82 1694.82 642.74 1694.62 644.62 1694.47 646.46 1694.38 648.26 1694.35 650.03 1694.37 651.17 1694.41 652.31 1694.48 653.44 1694.58 654.55 1694.71 655.66 1694.86 656.75 1695.04 657.83 1695.26 658.9 1695.5 659.97 1695.76 661.02 1696.06 662.06 1696.39 663.09 1696.74 664.11 1697.12 665.11 1697.53 666.11 1697.97 667.1 1698.43 668.07 1698.93 669.04 1699.45 669.99 1700 670.94 1700.58 671.87 1701.19 672.79 1701.82 673.71 1702.48 674.61 1703.18 675.5 1703.9 676.38 1704.64 677.25 1705.42 678.1 1706.23 678.95 1707.06 679.79 1707.92 680.61 1708.81 681.43 1709.72 682.23 1710.64 683 1711.57 683.75 1712.52 684.47 1713.47 685.16 1714.44 685.83 1715.42 686.48 1716.41 687.1 1717.41 687.7 1718.43 688.26 1719.45 688.81 1720.49 689.33 1721.54 689.82 1722.6 690.29 1723.68 690.73 1724.76 691.15 1725.86 691.54 1726.96 691.91 1728.08 692.25 1729.22 692.57 1730.36 692.86 1731.51 693.12 1732.68 693.37 1733.86 693.58 1735.05 693.77 1736.25 693.93 1737.46 694.07 1738.69 694.19 1739.92 694.28 1741.17 694.34 1742.43 694.38 1743.7 694.39 1745.32 694.37 1746.92 694.33 1748.51 694.25 1750.08 694.14 1751.65 693.99 1753.2 693.82 1754.74 693.61 1756.27 693.37 1757.78 693.1 1759.28 692.8 1760.77 692.46 1762.25 692.09 1763.72 691.7 1765.17 691.27 1766.61 690.8 1768.04 690.31 1769.45 689.78 1770.85 689.23 1772.24 688.64 1773.62 688.01 1774.99 687.36 1776.34 686.67 1777.68 685.96 1779.01 685.21 1780.33 684.43 1781.63 683.61 1782.92 682.77 1784.2 681.89 1785.47 680.98 1786.72 680.04 1787.96 679.07 1789.19 678.07 1790.41 677.03 1791.61 675.96 1792.8 674.86 1793.98 673.73 1795.15 672.56 1796.3 671.37 1797.45 670.14 1798.58 668.88 1799.69 667.59 1800.8 666.27 1802.97 663.53 1805.09 660.66 1807.17 657.66 1809.19 654.53 1811.16 651.28 1813.09 647.9 1814.96 644.39 1816.79 640.76 1818.56 637 1820.29 633.11 1821.97 629.09 1877.8 492.01 1879.99 486.67 1882.22 481.5 1884.48 476.5 1886.77 471.68 1889.09 467.02 1891.44 462.53 1893.83 458.21 1896.24 454.06 1898.69 450.08 1901.16 446.27 1903.67 442.62 1906.21 439.15 1908.78 435.85 1911.38 432.71 1914.01 429.75 1915.34 428.33 1916.68 426.95 1918.02 425.62 1919.37 424.33 1920.73 423.08 1922.1 421.87 1923.47 420.71 1924.86 419.58 1926.25 418.5 1927.64 417.47 1929.05 416.47 1930.46 415.52 1931.89 414.61 1933.31 413.74 1934.75 412.91 1936.2 412.13 1937.65 411.39 1939.11 410.69 1940.58 410.03 1942.05 409.42 1943.54 408.85 1945.03 408.32 1946.53 407.83 1948.04 407.39 1949.55 406.98 1951.07 406.62 1952.6 406.31 1954.14 406.03 1955.69 405.8 1957.24 405.61 1958.8 405.46 1960.37 405.35 1961.95 405.29 1963.54 405.27 1965.87 405.3 1968.12 405.38 1970.31 405.52 1972.41 405.71 1974.45 405.96 1976.41 406.27 1977.36 406.44 1978.3 406.63 1979.21 406.83 1980.11 407.04 1980.99 407.27 1981.85 407.52 1982.69 407.77 1983.51 408.04 1984.32 408.33 1985.1 408.63 1985.87 408.94 1986.62 409.26 1987.35 409.6 1988.06 409.96 1988.76 410.33 1989.43 410.71 1990.09 411.1 1990.73 411.51 1991.35 411.94 1991.95 412.37 1992.53 412.82 1993.1 413.29 1993.64 413.77 1994.17 414.26 1994.68 414.77 1995.17 415.29 1995.64 415.82 1996.09 416.37 1996.53 416.93 1996.94 417.51 1997.34 418.1 1997.72 418.7 1998.08 419.32 1998.42 419.95 1998.75 420.59 1999.05 421.25 1999.34 421.92 1999.61 422.61 1999.86 423.31 2000.09 424.03 2000.3 424.75 2000.5 425.5 2000.67 426.25 2000.83 427.02 2000.97 427.81 2001.09 428.6 2001.19 429.42 2001.27 430.24 2001.34 431.08 2001.38 431.93 2001.41 432.8 2001.42 433.68 2001.41 434.38 2001.39 435.09 2001.35 435.83 2001.29 436.59 2001.21 437.37 2001.12 438.16 2000.89 439.82 2000.59 441.56 2000.23 443.38 1999.8 445.28 1999.3 447.27 1998.74 449.33 1998.11 451.48 1996.65 456.02 1994.93 460.89 1992.95 466.08 1947.09 578.74 1944.4 585.56 1943.19 588.86 1942.07 592.08 1941.04 595.22 1940.1 598.28 1939.25 601.26 1938.49 604.16 1937.81 606.99 1937.23 609.74 1936.74 612.41 1936.34 615.01 1936.02 617.52 1935.8 619.96 1935.72 621.15 1935.66 622.32 1935.63 623.47 1935.62 624.6 1935.64 626.25 1935.7 627.87 1935.81 629.48 1935.96 631.08 1936.15 632.66 1936.38 634.22 1936.66 635.77 1936.98 637.3 1937.34 638.81 1937.74 640.31 1938.18 641.79 1938.67 643.26 1939.2 644.71 1939.77 646.15 1940.38 647.56 1941.04 648.97 1941.74 650.35 1942.48 651.72 1943.26 653.08 1944.09 654.41 1944.96 655.74 1945.87 657.04 1946.82 658.33 1947.82 659.61 1948.85 660.86 1949.93 662.1 1951.06 663.33 1952.22 664.54 1953.43 665.73 1954.68 666.91 1955.97 668.07 1957.3 669.22 1958.67 670.34 1960.05 671.42 1961.46 672.47 1962.88 673.48 1964.33 674.46 1965.79 675.4 1967.28 676.31 1968.78 677.18 1970.31 678.01 1971.85 678.81 1973.42 679.58 1975 680.3 1976.61 681 1978.23 681.65 1979.88 682.28 1981.54 682.86 1983.23 683.41 1984.93 683.93 1986.66 684.41 1988.4 684.85 1990.17 685.26 1991.95 685.63 1993.75 685.97 1995.58 686.27 1997.42 686.54 1999.29 686.77 2001.17 686.97 2003.08 687.13 2005 687.25 2006.94 687.34 2008.91 687.39 2010.89 687.41 2111.09 687.41 2116 687.35 2120.78 687.15 2125.42 686.82 2129.92 686.35 2134.28 685.76 2136.41 685.41 2138.51 685.03 2140.57 684.61 2142.59 684.17 2144.58 683.69 2146.54 683.17 2148.46 682.63 2150.35 682.05 2152.2 681.44 2154.02 680.79 2155.81 680.11 2157.56 679.4 2159.27 678.66 2160.95 677.88 2162.6 677.07 2164.21 676.22 2165.78 675.35 2167.33 674.44 2168.83 673.49 2170.31 672.52 2171.74 671.51 2173.15 670.46 2174.51 669.39 2175.83 668.29 2177.11 667.17 2178.35 666.02 2179.54 664.84 2180.69 663.63 2181.79 662.4 2182.85 661.15 2183.87 659.87 2184.85 658.56 2185.78 657.22 2186.67 655.86 2187.51 654.47 2188.31 653.06 2189.07 651.62 2189.79 650.15 2190.46 648.66 2191.09 647.14 2191.67 645.59 2192.21 644.02 2192.71 642.42 2193.16 640.8 2193.58 639.15 2193.94 637.47 2194.27 635.77 2194.55 634.04 2194.79 632.28 2194.98 630.5 2195.14 628.69 2195.24 626.86 2195.31 624.99 2195.33 623.11 2195.32 621.73 2195.27 620.38 2195.19 619.05 2195.09 617.73 2194.95 616.45 2194.78 615.18 2194.58 613.93 2194.35 612.71 2194.09 611.51 2193.8 610.33 2193.48 609.17 2193.12 608.03 2192.74 606.91 2192.33 605.82 2191.88 604.75 2191.41 603.7 2190.9 602.67 2190.36 601.66 2189.8 600.68 2189.2 599.71 2188.57 598.77 2187.91 597.85 2187.22 596.95 2186.5 596.07 2185.75 595.22 2184.97 594.38 2184.15 593.57 2183.31 592.78 2182.43 592.01 2181.53 591.26 2180.59 590.54 2179.63 589.83 2178.63 589.15 2177.6 588.49 2176.55 587.85 2175.46 587.23 2174.34 586.64 2173.19 586.06 2172.01 585.51 2170.8 584.98 2169.55 584.47 2168.28 583.98 2166.98 583.52 2165.64 583.07 2164.28 582.65 2162.88 582.25 2161.46 581.87 2160 581.51 2158.51 581.18 2157 580.86 2153.87 580.3 2150.62 579.83 2147.24 579.44 2143.75 579.13 2140.13 578.92 2136.39 578.79 2132.52 578.74 2075.2 578.74 2127.54 448.14 2128.99 444.48 2130.34 440.86 2131.6 437.27 2132.77 433.71 2133.85 430.2 2134.83 426.71 2135.72 423.26 2136.51 419.85 2137.21 416.47 2137.82 413.13 2138.33 409.82 2138.75 406.55 2139.08 403.31 2139.31 400.1 2139.45 396.94 2139.5 393.8 2139.47 391.23 2139.38 388.69 2139.23 386.18 2139.02 383.69 2138.75 381.23 2138.42 378.81 2138.03 376.41 2137.58 374.04 2137.08 371.69 2136.51 369.38 2135.88 367.1 2135.19 364.84 2134.44 362.61 2133.63 360.42 2132.76 358.25 2131.84 356.11 2130.85 353.99 2129.8 351.91 2128.69 349.86 2127.53 347.83 2126.3 345.83 2125.01 343.86 2123.66 341.92 2122.26 340.01 2120.79 338.13 2119.26 336.28 2117.68 334.45 2116.03 332.66 2114.32 330.89 2112.56 329.15 2110.73 327.44 2108.84 325.76 2106.91 324.12 2104.94 322.53 2102.94 320.99 2100.91 319.51 2098.84 318.08 2096.74 316.7 2094.61 315.37 2092.44 314.09 2090.24 312.87 2088 311.7 2085.73 310.58 2083.43 309.51 2081.1 308.49 2078.73 307.53 2076.32 306.62 2073.89 305.76 2071.42 304.95 2068.91 304.2 2066.38 303.49 2063.8 302.84 2061.2 302.24 2058.56 301.7 2055.89 301.2 2053.18 300.76 2050.45 300.37 2047.67 300.03 2044.87 299.74 2042.03 299.51 2039.15 299.33 2036.25 299.2 2033.31 299.12 2030.33 299.09 2028.2 299.12 2026.02 299.2 2023.81 299.34 2021.57 299.54 2019.29 299.79 2016.97 300.09 2014.62 300.45 2012.23 300.87 2009.81 301.34 2007.35 301.87 2004.85 302.45 2002.32 303.09 1997.14 304.53 1991.82 306.19 1986.36 308.08 1980.76 310.19 1975.01 312.52 1969.11 315.07 1963.07 317.85 1956.89 320.85 1950.56 324.06 1944.09 327.51"/><path d="M4276.49,621.73l-.05-1.35-.08-1.33-.11-1.31-.14-1.29-.17-1.27-.2-1.25-.23-1.22-.26-1.2-.29-1.18-.32-1.16-.35-1.14-.38-1.12-.41-1.09-.44-1.07-.48-1.05-.51-1.03-.54-1.01-.57-.99-.6-.96-.63-.94-.66-.92-.69-.9-.72-.88-.75-.86-.78-.83-.81-.81-.84-.79-.87-.77-.9-.75-.94-.73-.97-.7-1-.68-1.03-.66-1.06-.64-1.09-.62-1.12-.6-1.15-.57-1.18-.55-1.21-.53-1.24-.51-1.27-.49-1.3-.47-1.33-.44-1.36-.42-1.4-.4-1.43-.38-1.46-.36-1.49-.34-1.52-.31-3.13-.56-3.25-.48-3.37-.39-3.5-.3-3.62-.22-3.74-.13-3.86-.04h-148.05l-3.47-.04-3.36-.11-3.25-.18-3.14-.26-3.03-.33-2.92-.4-2.81-.47-2.7-.55-1.31-.3-1.28-.32-1.25-.34-1.22-.36-1.2-.37-1.17-.39-1.14-.41-1.11-.43-1.09-.45-1.06-.47-1.03-.48-1-.5-.98-.52-.95-.54-.92-.56-.89-.57-.87-.59-.84-.61-.81-.63-.78-.65-.76-.67-.73-.68-.7-.7-.67-.72-.65-.74-.62-.76-.59-.78-.56-.79-.54-.81-.51-.83-.48-.85-.45-.87-.43-.89-.4-.9-.37-.92-.34-.94-.32-.96-.29-.98-.26-1-.23-1.01-.21-1.03-.18-1.05-.15-1.07-.12-1.09-.1-1.1-.07-1.12-.04-1.14v-1.16s99.68,0,99.68,0l7.42-.07,7.19-.22,6.96-.36,6.72-.5,6.49-.65,6.25-.79,6.02-.94,5.79-1.08,5.55-1.22,2.69-.67,2.63-.7,2.57-.74,2.51-.77,2.46-.81,2.4-.85,2.34-.88,2.28-.92,2.22-.95,2.16-.99,2.1-1.03,2.05-1.06,1.99-1.1,1.93-1.13,3.37-2.06,3.27-2.13,3.16-2.2,3.05-2.26,2.95-2.33,2.84-2.4,2.73-2.47,2.62-2.54,2.52-2.6,2.41-2.67,1.16-1.36,1.14-1.38,1.11-1.4,1.08-1.41,1.06-1.43,1.03-1.45,1-1.46.98-1.48.95-1.5.92-1.52.9-1.53.87-1.55.84-1.57.82-1.58.79-1.6.76-1.62.74-1.63.71-1.65,1.34-3.35,1.23-3.42,1.12-3.49,1.02-3.56.91-3.63.8-3.69.7-3.76.59-3.83.48-3.9.37-3.97.27-4.04.16-4.1.05-4.17-.04-3.47-.12-3.43-.19-3.38-.27-3.34-.35-3.3-.43-3.26-.5-3.21-.58-3.17-.66-3.13-.74-3.09-.81-3.04-.89-3-.97-2.96-1.04-2.92-1.12-2.88-1.2-2.83-1.28-2.79-1.35-2.75-1.43-2.71-1.51-2.66-1.59-2.62-1.66-2.58-1.74-2.54-1.82-2.49-1.9-2.45-1.97-2.41-2.05-2.37-2.13-2.32-2.21-2.28-2.28-2.24-2.36-2.2-2.44-2.16-2.5-2.1-2.55-2.03-2.6-1.97-2.65-1.9-2.7-1.83-2.75-1.77-2.8-1.7-2.85-1.63-2.9-1.57-2.95-1.5-3-1.43-3.05-1.37-3.1-1.3-3.15-1.23-3.2-1.17-3.25-1.1-3.3-1.03-3.35-.97-3.4-.9-3.45-.83-3.5-.77-3.55-.7-3.6-.63-3.66-.57-3.71-.5-3.76-.43-3.81-.37-3.86-.3-3.91-.23-3.96-.17-4.01-.1-4.06-.03-5.58.07-5.54.2-5.49.34-5.44.48-5.39.61-5.34.75-5.29.89-5.25,1.02-5.2,1.16-5.15,1.29-5.1,1.43-5.05,1.57-5.01,1.7-4.96,1.84-4.91,1.98-4.86,2.11-4.81,2.25-4.76,2.39-4.72,2.52-4.67,2.66-4.62,2.79-4.57,2.93-4.52,3.07-4.48,3.2-4.43,3.34-4.38,3.48-4.33,3.61-4.28,3.75-4.23,3.88-4.19,4.02-4.14,4.16-4.09,4.29-4,4.39-3.88,4.44-3.75,4.49-3.62,4.54-3.49,4.59-3.37,4.65-3.24,4.7-3.11,4.75-2.99,4.8-2.86,4.85-2.73,4.9-2.6,4.96-2.48,5.01-2.35,5.06-2.22,5.11-2.1,5.16-1.97,5.21-1.84,5.26-1.72,5.32-1.59,5.37-1.46,5.42-1.33,5.47-1.21,5.52-1.08,5.57-.95,5.63-.83,5.68-.7,5.73-.57,5.78-.44,5.83-.32,5.88-.19,5.94-.06,5.99.04,4.64.12,4.57.2,4.5.28,4.43.36,4.36.44,4.29.52,4.22.6,4.15.68,4.08.76,4.01.84,3.94.92,3.87,1,3.8,1.08,3.73,1.16,3.66,1.24,3.59,1.33,3.52,1.41,3.45,1.49,3.38,1.57,3.31,1.65,3.24,1.73,3.17,1.81,3.1,1.89,3.03,1.97,2.96,2.05,2.89,2.13,2.82,2.21,2.75,2.29,2.68,2.37,2.61,2.45,2.54,2.53,2.47,2.61,2.39,2.68,2.32,2.75,2.24,2.83,2.16,2.9,2.09,2.97,2.01,3.05,1.94,3.12,1.86,3.2,1.78,3.27,1.71,3.34,1.63,3.42,1.56,3.49,1.48,3.56,1.41,3.64,1.33,3.71,1.25,3.78,1.18,3.86,1.1,3.93,1.03,4,.95,4.08.87,4.15.8,4.22.72,4.3.65,4.37.57,4.44.49,4.52.42,4.59.34,4.67.27,4.74.19,4.81.11,4.89.04h141.07l4.92-.07,4.78-.2,4.64-.33,4.5-.46,4.36-.6,2.13-.35,2.09-.38,2.06-.41,2.03-.45,1.99-.48,1.96-.51,1.92-.55,1.89-.58,1.85-.61,1.82-.65,1.78-.68,1.75-.71,1.71-.74,1.68-.78,1.65-.81,1.61-.84,1.58-.88,1.54-.91,1.51-.94,1.47-.98,1.44-1.01,1.4-1.04,1.36-1.07,1.32-1.1,1.28-1.12,1.23-1.15,1.19-1.18,1.15-1.2,1.1-1.23,1.06-1.26,1.02-1.28.97-1.31.93-1.34.89-1.36.84-1.39.8-1.41.76-1.44.71-1.47.67-1.49.63-1.52.58-1.55.54-1.57.5-1.6.45-1.62.41-1.65.37-1.68.32-1.7.28-1.73.24-1.76.19-1.78.15-1.81.11-1.83.06-1.86.02-1.89-.02-1.38ZM4034.92,447.56l1.71-2.97,1.75-2.87,1.78-2.77,1.82-2.68,1.86-2.58,1.9-2.48,1.94-2.39,1.97-2.29,2.01-2.19,2.05-2.09,2.09-2,2.13-1.9,1.08-.91,1.09-.89,1.1-.86,1.11-.84,1.12-.82,1.12-.79,1.13-.77,1.14-.74,1.15-.72,1.16-.69,1.17-.67,1.18-.65,1.19-.62,1.2-.6,1.21-.57,1.22-.55,1.23-.52,1.24-.5,1.25-.47,1.26-.45,1.27-.43,1.28-.4,1.29-.38,1.3-.35,1.31-.33,1.31-.3,1.32-.28,1.33-.26,1.34-.23,1.35-.21,1.36-.18,1.37-.16,1.38-.13,1.39-.11,1.4-.08,1.41-.06,2.85-.05,2.03.03,1.96.08,1.9.13,1.84.18,1.78.23.87.14.85.15.84.16.82.17.81.19.79.2.78.21.76.23.74.24.73.25.71.26.7.28.68.29.67.3.65.32.64.33.62.34.61.35.59.37.58.38.56.39.55.41.53.42.51.43.5.45.48.46.47.47.45.48.44.5.42.51.41.52.39.54.38.55.36.56.35.57.33.59.32.6.3.61.28.63.27.64.25.65.24.66.22.68.21.69.19.7.18.72.16.73.15.74.13.75.12.77.1.78.08.79.07.81.07,1.18v.36s.02.36.02.36v.71s-.02.35-.02.35l-.02.35-.03.34-.03.34-.04.34-.05.34-.05.33-.06.33-.07.33-.07.32-.08.32-.09.32-.09.32-.1.31-.11.31-.11.31-.12.3-.13.3-.13.3-.14.3-.15.29-.15.29-.16.29-.17.28-.17.28-.18.28-.19.28-.19.27-.2.27-.21.27-.21.26-.22.26-.23.26-.23.26-.24.25-.25.25-.25.25-.26.24-.27.24-.27.24-.28.24-.58.46-.61.45-.64.44-.66.43-.69.42-.72.41-.74.39-.77.38-.8.37-.82.36-.85.35-.88.34-.9.33-.93.31-.96.3-.98.29-1.01.28-2.1.53-2.21.48-2.32.43-2.42.39-2.53.34-2.64.3-2.74.25-2.85.21-6.02.27-6.45.09h-54.83l1.67-3.07Z"/><polygon points="3684.31 646.04 3895.17 126.12 3955.98 126.12 3961.33 126.04 3966.53 125.82 3971.58 125.45 3976.48 124.93 3981.24 124.27 3983.56 123.88 3985.84 123.45 3988.09 122.99 3990.3 122.49 3992.48 121.95 3994.62 121.38 3996.72 120.77 3998.78 120.12 4000.8 119.44 4002.79 118.72 4004.75 117.96 4006.66 117.16 4008.54 116.33 4010.38 115.46 4012.18 114.56 4013.95 113.61 4015.68 112.63 4017.37 111.61 4019.03 110.56 4020.65 109.47 4022.23 108.34 4023.78 107.17 4025.28 105.98 4026.73 104.75 4028.14 103.49 4029.5 102.2 4030.81 100.88 4032.08 99.53 4033.29 98.15 4034.46 96.74 4035.58 95.3 4036.66 93.83 4037.68 92.33 4038.66 90.79 4039.59 89.23 4040.47 87.64 4041.31 86.02 4042.1 84.37 4042.84 82.69 4043.53 80.97 4044.17 79.23 4044.77 77.46 4045.32 75.66 4045.82 73.82 4046.27 71.96 4046.68 70.07 4047.03 68.15 4047.34 66.19 4047.61 64.21 4047.82 62.19 4047.99 60.15 4048.11 58.08 4048.18 55.97 4048.2 53.84 4048.19 52.38 4048.13 50.95 4048.05 49.55 4047.93 48.16 4047.78 46.8 4047.59 45.46 4047.37 44.15 4047.12 42.85 4046.83 41.58 4046.51 40.34 4046.16 39.11 4045.77 37.91 4045.34 36.73 4044.89 35.58 4044.4 34.45 4043.87 33.34 4043.31 32.25 4042.72 31.19 4042.1 30.14 4041.44 29.13 4040.74 28.13 4040.01 27.16 4039.25 26.21 4038.46 25.28 4037.63 24.38 4036.77 23.5 4035.87 22.64 4034.94 21.8 4033.98 20.99 4032.98 20.2 4031.95 19.44 4030.88 18.69 4029.78 17.97 4028.65 17.27 4027.48 16.6 4026.28 15.95 4025.04 15.32 4023.78 14.71 4022.47 14.13 4021.14 13.57 4019.77 13.03 4018.36 12.52 4016.92 12.02 4015.45 11.55 4013.95 11.11 4012.41 10.69 4010.83 10.28 4009.23 9.91 4005.91 9.22 4002.46 8.63 3998.87 8.12 3995.15 7.71 3991.3 7.39 3987.3 7.16 3983.18 7.02 3978.91 6.98 3876.72 6.98 3856.29 7.48 3853.26 7.52 3850.29 7.66 3847.38 7.89 3844.53 8.21 3843.13 8.4 3841.74 8.62 3840.36 8.86 3839 9.12 3837.65 9.41 3836.32 9.72 3835 10.05 3833.7 10.41 3832.41 10.78 3831.13 11.18 3829.87 11.61 3828.63 12.05 3827.39 12.52 3826.18 13.01 3824.97 13.53 3823.78 14.07 3822.61 14.63 3821.45 15.21 3820.3 15.82 3819.17 16.45 3818.05 17.1 3816.95 17.77 3815.86 18.47 3814.79 19.19 3813.73 19.94 3812.68 20.7 3811.65 21.49 3810.63 22.3 3809.63 23.14 3808.64 24 3807.67 24.88 3806.71 25.78 3805.76 26.71 3804.83 27.66 3803.92 28.63 3803.02 29.62 3802.13 30.64 3801.25 31.68 3800.4 32.75 3799.55 33.83 3798.72 34.94 3797.91 36.08 3797.1 37.23 3796.32 38.41 3794.79 40.84 3793.31 43.35 3791.9 45.96 3790.54 48.66 3789.24 51.45 3787.99 54.33 3644.93 406.27 3619.01 74.27 3618.61 69.7 3618.1 65.28 3617.48 61 3616.75 56.87 3615.91 52.88 3615.44 50.94 3614.95 49.03 3614.43 47.16 3613.89 45.33 3613.31 43.54 3612.71 41.78 3612.08 40.06 3611.43 38.37 3610.74 36.72 3610.03 35.11 3609.29 33.53 3608.52 31.99 3607.73 30.48 3606.9 29.01 3606.05 27.58 3605.17 26.18 3604.27 24.82 3603.33 23.5 3602.37 22.21 3601.38 20.96 3600.36 19.75 3599.32 18.57 3598.24 17.43 3597.14 16.32 3596.01 15.25 3594.86 14.22 3593.67 13.22 3592.46 12.26 3591.22 11.33 3589.95 10.44 3588.66 9.59 3587.34 8.78 3585.99 8 3584.61 7.25 3583.2 6.55 3581.77 5.88 3580.31 5.24 3578.82 4.64 3577.3 4.08 3575.75 3.55 3574.18 3.06 3572.58 2.61 3570.95 2.19 3569.3 1.81 3567.61 1.47 3565.9 1.16 3564.16 .89 3562.4 .65 3560.6 .45 3558.78 .29 3556.93 .16 3555.05 .07 3553.15 .02 3551.21 0 3549.54 .02 3547.87 .06 3546.23 .14 3544.59 .26 3542.97 .4 3541.36 .57 3539.76 .78 3538.18 1.02 3536.61 1.29 3535.06 1.59 3533.52 1.93 3531.99 2.3 3530.47 2.69 3528.97 3.12 3527.48 3.59 3526.01 4.08 3524.55 4.61 3523.1 5.17 3521.66 5.76 3520.24 6.38 3518.83 7.03 3517.44 7.72 3516.06 8.43 3514.69 9.18 3513.34 9.96 3511.99 10.78 3510.67 11.62 3509.35 12.5 3508.05 13.41 3506.76 14.35 3505.49 15.32 3504.23 16.33 3502.98 17.36 3501.75 18.43 3500.53 19.53 3499.32 20.66 3498.13 21.83 3496.95 23.02 3495.78 24.25 3494.63 25.51 3493.49 26.8 3492.36 28.12 3490.15 30.87 3487.99 33.73 3485.88 36.73 3483.83 39.86 3481.83 43.11 3479.88 46.49 3477.99 50 3476.15 53.63 3474.37 57.39 3472.63 61.28 3470.96 65.3 3273.56 551.33 3266.98 567.28 3260.47 582.63 3254.01 597.36 3247.62 611.49 3241.29 625 3235.01 637.9 3228.8 650.19 3225.72 656.1 3222.65 661.86 3219.59 667.47 3216.56 672.93 3213.53 678.23 3210.52 683.38 3207.53 688.38 3204.55 693.23 3201.59 697.92 3198.64 702.46 3195.71 706.85 3192.79 711.08 3189.89 715.16 3187 719.09 3184.13 722.86 3181.27 726.49 3178.43 729.96 3175.6 733.27 3172.77 736.46 3169.91 739.55 3167.02 742.54 3164.1 745.42 3161.16 748.21 3158.19 750.89 3155.19 753.47 3152.16 755.95 3149.1 758.33 3146.02 760.61 3142.91 762.79 3139.77 764.86 3136.6 766.84 3133.41 768.71 3130.19 770.48 3126.94 772.15 3123.66 773.72 3120.36 775.19 3117.02 776.56 3113.66 777.82 3110.27 778.99 3106.86 780.05 3103.41 781.01 3099.94 781.87 3096.44 782.63 3092.92 783.29 3089.36 783.85 3085.78 784.3 3082.17 784.66 3078.53 784.91 3074.86 785.06 3071.17 785.11 3067.98 785.08 3064.84 784.99 3061.74 784.83 3058.68 784.6 3055.67 784.32 3052.7 783.97 3049.77 783.55 3046.88 783.07 3044.04 782.53 3041.25 781.93 3038.49 781.26 3035.78 780.52 3033.11 779.73 3030.49 778.87 3027.91 777.94 3025.37 776.95 3022.88 775.9 3020.43 774.78 3018.02 773.6 3015.66 772.36 3013.33 771.05 3011.06 769.68 3008.82 768.25 3006.63 766.75 3004.48 765.19 3002.38 763.56 3000.32 761.87 2998.3 760.12 2996.33 758.3 2994.4 756.42 2992.51 754.47 2990.66 752.46 2988.87 750.4 2987.13 748.29 2985.45 746.13 2983.83 743.92 2982.26 741.67 2980.75 739.37 2979.3 737.02 2977.91 734.63 2976.57 732.19 2975.29 729.7 2974.06 727.16 2972.89 724.58 2971.78 721.95 2970.73 719.27 2969.73 716.54 2968.79 713.77 2967.91 710.95 2967.09 708.08 2966.32 705.17 2965.6 702.21 2964.95 699.2 2964.35 696.14 2963.81 693.04 2963.33 689.89 2962.9 686.69 2962.53 683.45 2962.22 680.15 2961.96 676.82 2961.76 673.43 2961.62 669.99 2961.53 666.51 2961.5 662.99 2961.53 659.66 2961.62 656.34 2961.76 653.02 2961.97 649.72 2962.23 646.43 2962.55 643.14 2962.92 639.87 2963.36 636.6 2963.85 633.34 2964.4 630.09 2965.01 626.85 2965.67 623.61 2966.4 620.39 2967.18 617.17 2968.02 613.97 2968.92 610.77 2969.87 607.58 2970.89 604.4 2971.96 601.23 2973.09 598.07 2974.28 594.91 2975.52 591.77 2976.83 588.63 2978.19 585.5 2981.08 579.27 2984.21 573.08 2987.57 566.92 2991.16 560.8 2994.95 554.76 2998.9 548.87 3003.01 543.13 3007.29 537.52 3011.72 532.07 3016.32 526.75 3021.08 521.58 3026 516.56 3031.08 511.67 3036.32 506.94 3041.72 502.34 3047.29 497.89 3053.02 493.59 3058.91 489.43 3064.96 485.41 3071.17 481.54 3075.01 479.29 3078.92 477.09 3082.91 474.95 3086.97 472.86 3091.11 470.82 3095.33 468.84 3099.61 466.9 3103.98 465.02 3108.42 463.2 3112.93 461.42 3117.52 459.7 3122.18 458.03 3126.92 456.41 3131.73 454.85 3136.62 453.34 3141.58 451.88 3146.62 450.47 3151.73 449.12 3156.92 447.81 3162.18 446.57 3167.52 445.37 3172.93 444.22 3178.42 443.13 3183.98 442.09 3189.62 441.11 3195.33 440.17 3201.12 439.29 3206.98 438.46 3212.92 437.69 3218.93 436.97 3225.02 436.29 3231.18 435.68 3236.69 435.14 3242 434.51 3247.11 433.8 3252.03 433 3256.74 432.11 3261.26 431.14 3265.57 430.09 3269.69 428.95 3273.61 427.72 3275.5 427.07 3277.33 426.41 3279.12 425.72 3280.86 425.01 3282.54 424.28 3284.18 423.53 3285.77 422.75 3287.3 421.96 3288.79 421.14 3290.23 420.3 3291.62 419.44 3292.96 418.56 3294.25 417.66 3295.49 416.73 3296.69 415.78 3297.84 414.81 3298.96 413.8 3300.05 412.76 3301.09 411.7 3302.1 410.6 3303.06 409.48 3303.99 408.32 3304.89 407.14 3305.74 405.93 3306.56 404.69 3307.34 403.42 3308.08 402.12 3308.78 400.79 3309.44 399.43 3310.07 398.04 3310.66 396.62 3311.21 395.18 3311.72 393.7 3312.2 392.2 3312.63 390.67 3313.03 389.1 3313.39 387.51 3313.71 385.89 3314 384.24 3314.25 382.56 3314.46 380.85 3314.63 379.11 3314.76 377.35 3314.85 375.55 3314.91 373.73 3314.93 371.87 3314.91 370.04 3314.83 368.24 3314.72 366.46 3314.55 364.71 3314.33 362.98 3314.07 361.27 3313.76 359.59 3313.4 357.93 3313 356.29 3312.54 354.68 3312.04 353.09 3311.5 351.53 3310.9 349.99 3310.25 348.47 3309.56 346.98 3308.82 345.51 3308.04 344.07 3307.2 342.65 3306.32 341.25 3305.39 339.88 3304.41 338.53 3303.38 337.2 3302.31 335.9 3301.19 334.62 3300.02 333.37 3298.81 332.14 3297.54 330.93 3296.23 329.75 3294.87 328.59 3293.46 327.46 3292.01 326.35 3290.5 325.26 3288.96 324.2 3287.38 323.18 3285.77 322.19 3284.13 321.23 3282.45 320.31 3280.73 319.42 3278.98 318.56 3277.2 317.74 3275.38 316.95 3273.53 316.19 3271.65 315.47 3269.73 314.78 3267.78 314.13 3265.79 313.51 3263.77 312.92 3261.72 312.36 3259.63 311.84 3257.5 311.36 3255.35 310.9 3253.16 310.48 3248.67 309.74 3244.05 309.14 3239.29 308.67 3234.4 308.33 3229.37 308.13 3224.21 308.06 3219.25 308.1 3214.28 308.2 3209.31 308.37 3204.33 308.61 3199.35 308.92 3194.35 309.29 3189.35 309.73 3184.34 310.25 3179.33 310.82 3174.3 311.47 3169.27 312.19 3164.24 312.97 3159.19 313.82 3154.14 314.74 3149.08 315.73 3144.01 316.79 3138.94 317.91 3133.86 319.1 3128.77 320.37 3123.67 321.69 3118.57 323.09 3113.46 324.56 3108.34 326.09 3103.21 327.69 3098.08 329.36 3092.94 331.1 3087.79 332.91 3082.64 334.78 3077.48 336.72 3072.31 338.73 3067.13 340.81 3061.95 342.96 3056.79 345.16 3051.68 347.4 3046.63 349.69 3041.64 352.02 3036.7 354.39 3031.81 356.8 3026.98 359.25 3022.21 361.74 3017.49 364.28 3012.83 366.86 3008.22 369.48 3003.66 372.14 2999.16 374.85 2994.72 377.59 2990.33 380.38 2985.99 383.21 2981.71 386.08 2977.49 389 2973.32 391.95 2969.2 394.95 2965.14 397.99 2961.14 401.07 2957.19 404.19 2953.29 407.36 2949.45 410.56 2945.67 413.81 2941.94 417.1 2938.27 420.43 2934.65 423.81 2931.08 427.22 2927.57 430.68 2924.12 434.18 2917.8 440.79 2911.68 447.47 2905.77 454.21 2900.05 461.03 2894.53 467.91 2889.22 474.87 2884.1 481.89 2879.19 488.98 2874.48 496.14 2869.97 503.38 2865.65 510.67 2861.54 518.04 2857.63 525.48 2853.92 532.99 2850.41 540.56 2847.1 548.21 2843.99 555.92 2841.08 563.71 2838.38 571.56 2835.87 579.48 2833.56 587.47 2831.46 595.53 2829.55 603.66 2827.85 611.86 2826.34 620.13 2825.04 628.46 2823.94 636.87 2823.03 645.34 2822.33 653.89 2821.83 662.5 2821.53 671.18 2821.43 679.93 2821.49 686.47 2821.68 692.93 2822 699.31 2822.45 705.61 2823.02 711.84 2823.72 717.99 2824.54 724.07 2825.49 730.06 2826.57 735.98 2827.78 741.83 2829.12 747.59 2830.58 753.28 2832.17 758.89 2833.88 764.43 2835.72 769.89 2837.69 775.27 2839.79 780.57 2842.01 785.8 2844.36 790.95 2846.84 796.03 2849.44 801.02 2852.18 805.94 2855.04 810.79 2858.02 815.55 2861.13 820.24 2864.37 824.86 2867.74 829.39 2871.23 833.85 2874.86 838.23 2878.6 842.54 2882.48 846.76 2886.48 850.92 2890.59 854.96 2894.77 858.88 2899.03 862.67 2903.36 866.34 2907.78 869.87 2912.27 873.28 2916.84 876.55 2921.48 879.7 2926.21 882.72 2931.01 885.61 2935.89 888.38 2940.84 891.01 2945.88 893.52 2950.99 895.9 2956.18 898.14 2961.44 900.27 2966.78 902.26 2972.2 904.12 2977.7 905.86 2983.28 907.46 2988.93 908.94 2994.66 910.29 3000.47 911.51 3006.35 912.6 3012.31 913.57 3018.35 914.4 3024.47 915.11 3030.66 915.69 3036.94 916.14 3043.29 916.46 3049.71 916.65 3056.22 916.72 3062.33 916.66 3068.4 916.49 3074.43 916.2 3080.42 915.8 3086.36 915.28 3092.25 914.65 3098.11 913.9 3103.91 913.04 3109.68 912.06 3115.4 910.97 3121.08 909.76 3126.71 908.44 3132.3 907.01 3137.85 905.46 3143.35 903.79 3148.81 902.01 3154.22 900.11 3159.6 898.1 3164.92 895.98 3170.21 893.74 3175.44 891.38 3180.64 888.91 3185.79 886.33 3190.9 883.63 3195.96 880.81 3200.99 877.88 3205.96 874.84 3210.89 871.68 3215.78 868.41 3220.63 865.02 3225.43 861.51 3230.19 857.89 3236.65 852.73 3242.96 847.45 3249.12 842.05 3255.13 836.54 3260.98 830.91 3266.67 825.17 3272.22 819.31 3277.61 813.34 3282.84 807.26 3287.92 801.05 3292.85 794.74 3297.62 788.31 3302.24 781.76 3306.71 775.1 3311.02 768.33 3315.18 761.44 3319.38 754.1 3323.81 746 3328.48 737.12 3333.39 727.46 3338.53 717.04 3343.91 705.84 3349.52 693.86 3355.37 681.12 3361.45 667.6 3367.77 653.31 3374.33 638.24 3381.12 622.41 3388.15 605.8 3395.41 588.41 3402.91 570.25 3410.64 551.33 3514.82 294.11 3537.75 594.69 3538.36 601.66 3539.06 608.35 3539.86 614.76 3540.74 620.9 3541.73 626.75 3542.8 632.34 3543.97 637.64 3545.23 642.67 3546.59 647.43 3547.3 649.7 3548.03 651.9 3548.79 654.04 3549.58 656.1 3550.38 658.1 3551.21 660.03 3552.06 661.88 3552.94 663.67 3553.84 665.39 3554.76 667.04 3555.71 668.63 3556.68 670.14 3557.67 671.58 3558.18 672.28 3558.69 672.96 3559.21 673.62 3559.74 674.27 3560.28 674.92 3560.83 675.55 3561.4 676.17 3561.97 676.79 3562.56 677.39 3563.15 677.98 3563.76 678.56 3564.38 679.13 3565.01 679.69 3565.65 680.24 3566.3 680.78 3566.96 681.31 3567.63 681.83 3568.32 682.33 3569.72 683.32 3571.16 684.26 3572.65 685.16 3574.18 686.02 3575.76 686.83 3577.38 687.61 3579.04 688.34 3580.75 689.03 3582.5 689.68 3584.29 690.29 3586.13 690.85 3588.01 691.38 3589.94 691.86 3591.91 692.3 3593.92 692.7 3595.98 693.05 3598.08 693.36 3600.23 693.64 3602.42 693.87 3604.65 694.06 3606.93 694.2 3609.25 694.31 3611.61 694.37 3614.02 694.39 3617.05 694.34 3620.02 694.2 3622.94 693.97 3625.81 693.64 3627.22 693.43 3628.62 693.21 3630 692.96 3631.38 692.69 3632.74 692.4 3634.08 692.08 3635.41 691.73 3636.73 691.37 3638.04 690.98 3639.33 690.57 3640.61 690.13 3641.88 689.67 3643.13 689.18 3644.37 688.68 3645.59 688.15 3646.8 687.59 3648 687.01 3649.19 686.41 3650.36 685.78 3651.52 685.14 3652.66 684.46 3653.8 683.77 3654.91 683.05 3656.02 682.3 3657.11 681.53 3658.19 680.74 3659.25 679.93 3660.3 679.09 3661.34 678.23 3662.37 677.34 3663.38 676.44 3664.38 675.5 3665.36 674.55 3666.33 673.57 3667.29 672.56 3668.23 671.54 3669.16 670.49 3670.08 669.41 3670.99 668.31 3671.88 667.19 3673.62 664.88 3675.31 662.47 3676.94 659.97 3678.52 657.37 3680.05 654.68 3681.52 651.89 3682.94 649.01 3684.31 646.04"/><polygon points="1601.63 687.41 1606.43 687.34 1611.1 687.14 1615.65 686.81 1620.06 686.34 1624.35 685.73 1626.45 685.38 1628.52 684.99 1630.55 684.57 1632.56 684.12 1634.53 683.63 1636.47 683.11 1638.37 682.56 1640.25 681.97 1642.1 681.35 1643.91 680.69 1645.69 680.01 1647.44 679.28 1649.16 678.53 1650.84 677.74 1652.5 676.92 1654.12 676.06 1655.71 675.17 1657.27 674.24 1658.8 673.29 1660.3 672.3 1661.76 671.27 1663.2 670.21 1664.59 669.13 1665.94 668.01 1667.25 666.88 1668.51 665.72 1669.73 664.53 1670.91 663.32 1672.04 662.08 1673.12 660.82 1674.16 659.53 1675.16 658.22 1676.11 656.89 1677.02 655.53 1677.88 654.14 1678.7 652.73 1679.48 651.3 1680.21 649.84 1680.89 648.35 1681.54 646.84 1682.14 645.31 1682.69 643.75 1683.2 642.17 1683.66 640.56 1684.08 638.93 1684.46 637.27 1684.79 635.58 1685.08 633.88 1685.32 632.14 1685.52 630.39 1685.68 628.6 1685.79 626.8 1685.86 624.96 1685.88 623.11 1685.86 621.73 1685.82 620.38 1685.74 619.05 1685.63 617.73 1685.49 616.45 1685.32 615.18 1685.12 613.93 1684.89 612.71 1684.63 611.51 1684.33 610.33 1684.01 609.17 1683.65 608.03 1683.27 606.91 1682.85 605.82 1682.4 604.75 1681.92 603.7 1681.41 602.67 1680.87 601.66 1680.3 600.68 1679.7 599.71 1679.06 598.77 1678.4 597.85 1677.7 596.95 1676.98 596.07 1676.22 595.22 1675.43 594.38 1674.61 593.57 1673.76 592.78 1672.88 592.01 1671.97 591.26 1671.03 590.54 1670.05 589.83 1669.05 589.15 1668.01 588.49 1666.95 587.85 1665.85 587.23 1664.72 586.64 1663.56 586.06 1662.37 585.51 1661.15 584.98 1659.9 584.47 1658.61 583.98 1657.3 583.52 1655.96 583.07 1654.58 582.65 1653.17 582.25 1651.74 581.87 1650.27 581.51 1648.77 581.18 1647.24 580.86 1644.09 580.3 1640.81 579.83 1637.41 579.44 1633.88 579.13 1630.24 578.92 1626.47 578.79 1622.57 578.74 1528.36 578.74 1521.99 578.68 1515.87 578.51 1509.98 578.22 1504.32 577.82 1498.9 577.31 1493.72 576.67 1488.77 575.93 1484.05 575.07 1481.79 574.59 1479.58 574.09 1477.43 573.56 1475.33 573 1473.3 572.41 1471.33 571.79 1469.41 571.15 1467.56 570.47 1465.76 569.77 1464.02 569.03 1462.34 568.27 1460.72 567.48 1459.16 566.66 1457.66 565.82 1456.22 564.94 1454.83 564.04 1454.16 563.57 1453.5 563.1 1452.85 562.61 1452.2 562.12 1451.57 561.61 1450.96 561.1 1450.35 560.57 1449.75 560.04 1449.16 559.49 1448.58 558.94 1448.02 558.37 1447.46 557.79 1446.92 557.21 1446.38 556.61 1445.86 556.01 1445.34 555.39 1444.84 554.76 1444.35 554.13 1443.87 553.48 1443.4 552.83 1442.93 552.16 1442.48 551.48 1442.05 550.8 1441.62 550.1 1440.79 548.67 1440.01 547.21 1439.27 545.7 1438.57 544.16 1437.91 542.57 1437.3 540.95 1436.73 539.28 1436.2 537.57 1435.71 535.83 1435.26 534.04 1434.86 532.21 1434.5 530.34 1434.18 528.43 1433.91 526.48 1433.68 524.49 1433.49 522.46 1433.34 520.39 1433.23 518.28 1433.17 516.13 1433.15 513.94 1433.17 511.3 1433.25 508.67 1433.38 506.06 1433.56 503.47 1433.8 500.89 1434.08 498.33 1434.42 495.78 1434.81 493.25 1435.26 490.74 1435.75 488.24 1436.3 485.75 1436.9 483.28 1437.55 480.83 1438.25 478.39 1439.01 475.97 1439.81 473.56 1440.67 471.17 1441.58 468.79 1442.55 466.43 1443.56 464.09 1444.63 461.76 1445.75 459.45 1446.92 457.15 1448.15 454.87 1449.42 452.6 1450.75 450.35 1452.13 448.12 1453.56 445.9 1455.05 443.69 1456.59 441.5 1458.17 439.33 1459.82 437.17 1461.49 435.06 1463.17 433.01 1464.87 431.03 1466.57 429.11 1468.29 427.26 1470.02 425.48 1471.76 423.77 1473.51 422.12 1475.27 420.55 1477.04 419.03 1478.83 417.59 1480.62 416.21 1482.43 414.9 1484.25 413.66 1486.08 412.48 1487.92 411.38 1489.77 410.33 1491.63 409.36 1493.51 408.45 1495.39 407.61 1497.29 406.84 1499.19 406.14 1501.11 405.5 1503.04 404.93 1504.98 404.42 1506.94 403.99 1508.9 403.62 1510.88 403.31 1512.86 403.08 1514.86 402.91 1516.87 402.81 1518.89 402.78 1521 402.81 1523.05 402.91 1524.05 402.99 1525.03 403.08 1526 403.19 1526.95 403.32 1527.88 403.47 1528.79 403.63 1529.69 403.81 1530.57 404 1531.44 404.22 1532.29 404.45 1533.12 404.69 1533.93 404.96 1534.73 405.24 1535.51 405.54 1536.28 405.85 1537.02 406.18 1537.75 406.53 1538.47 406.9 1539.17 407.28 1539.85 407.68 1540.51 408.1 1541.16 408.54 1541.79 408.99 1542.4 409.46 1542.99 409.94 1543.57 410.44 1544.14 410.96 1544.68 411.5 1545.21 412.05 1545.72 412.62 1546.22 413.21 1546.7 413.82 1547.16 414.44 1547.6 415.08 1548.03 415.73 1548.44 416.41 1548.84 417.1 1549.22 417.8 1549.58 418.53 1549.92 419.27 1550.25 420.03 1550.56 420.8 1550.85 421.6 1551.13 422.4 1551.39 423.23 1551.64 424.07 1551.86 424.93 1552.07 425.81 1552.27 426.71 1552.44 427.62 1552.6 428.55 1552.74 429.49 1552.87 430.45 1552.98 431.43 1553.07 432.43 1553.15 433.45 1553.25 435.52 1553.28 437.67 1553.25 440.19 1553.16 442.78 1553 445.43 1552.78 448.14 1552.78 459.11 1552.83 461.74 1552.88 463.03 1552.96 464.3 1553.06 465.54 1553.19 466.77 1553.33 467.97 1553.5 469.15 1553.69 470.31 1553.9 471.46 1554.14 472.58 1554.4 473.67 1554.68 474.75 1554.98 475.81 1555.3 476.85 1555.65 477.86 1556.02 478.86 1556.41 479.83 1556.82 480.78 1557.26 481.71 1557.72 482.62 1558.2 483.51 1558.71 484.38 1559.23 485.23 1559.78 486.06 1560.35 486.86 1560.95 487.65 1561.56 488.41 1562.2 489.15 1562.86 489.88 1563.54 490.58 1564.25 491.26 1564.98 491.92 1565.73 492.56 1566.5 493.17 1567.29 493.77 1568.11 494.35 1568.95 494.9 1569.81 495.43 1570.7 495.95 1571.6 496.44 1572.53 496.91 1573.49 497.36 1574.46 497.79 1575.46 498.2 1576.47 498.58 1577.52 498.95 1578.58 499.3 1579.67 499.62 1580.77 499.92 1581.9 500.21 1583.06 500.47 1584.23 500.71 1585.43 500.93 1586.65 501.13 1587.9 501.31 1589.16 501.46 1590.45 501.6 1593.09 501.81 1595.82 501.93 1598.64 501.98 1600.44 501.95 1602.22 501.88 1603.97 501.77 1605.71 501.61 1607.42 501.4 1609.12 501.14 1610.79 500.84 1612.45 500.5 1614.08 500.1 1615.69 499.66 1617.28 499.18 1618.86 498.65 1620.41 498.07 1621.94 497.44 1623.45 496.77 1624.94 496.06 1626.41 495.29 1627.86 494.48 1629.29 493.63 1630.69 492.73 1632.08 491.78 1633.45 490.78 1634.8 489.74 1636.12 488.66 1637.43 487.52 1638.72 486.34 1639.98 485.12 1641.23 483.85 1642.45 482.53 1643.65 481.16 1644.84 479.75 1646 478.3 1647.13 476.8 1648.23 475.29 1649.3 473.74 1650.32 472.17 1651.31 470.58 1652.27 468.95 1653.19 467.31 1654.07 465.63 1654.92 463.93 1655.73 462.21 1656.5 460.46 1657.24 458.68 1657.94 456.88 1658.61 455.05 1659.24 453.2 1659.83 451.32 1660.39 449.41 1660.91 447.48 1661.4 445.52 1661.85 443.54 1662.26 441.53 1662.64 439.5 1662.98 437.44 1663.29 435.35 1663.56 433.24 1663.8 431.1 1664.16 426.75 1664.37 422.29 1664.44 417.73 1664.41 414.45 1664.3 411.2 1664.12 408 1663.87 404.83 1663.54 401.71 1663.15 398.62 1662.68 395.57 1662.14 392.56 1661.53 389.59 1660.84 386.65 1660.08 383.76 1659.26 380.91 1658.36 378.09 1657.38 375.31 1656.34 372.58 1655.22 369.88 1654.03 367.22 1652.77 364.6 1651.44 362.01 1650.03 359.47 1648.56 356.97 1647.01 354.5 1645.39 352.08 1643.69 349.69 1641.93 347.34 1640.09 345.03 1638.18 342.76 1636.2 340.53 1634.15 338.34 1632.02 336.18 1629.83 334.07 1627.56 331.99 1625.23 329.97 1622.86 328.01 1620.45 326.11 1617.99 324.28 1615.49 322.51 1612.95 320.81 1610.37 319.17 1607.74 317.6 1605.07 316.09 1602.36 314.64 1599.6 313.26 1596.81 311.94 1593.96 310.69 1591.08 309.5 1588.15 308.38 1585.18 307.32 1582.17 306.32 1579.12 305.39 1576.02 304.52 1572.88 303.72 1569.69 302.98 1566.47 302.3 1563.2 301.69 1559.89 301.15 1556.53 300.67 1553.13 300.25 1549.69 299.89 1546.21 299.61 1542.68 299.38 1539.11 299.22 1535.5 299.12 1531.85 299.09 1526.45 299.16 1521.09 299.36 1515.78 299.7 1510.51 300.17 1505.29 300.77 1500.11 301.51 1494.97 302.38 1489.88 303.39 1484.83 304.53 1479.83 305.81 1474.87 307.22 1469.95 308.77 1465.08 310.44 1460.25 312.26 1455.46 314.21 1450.72 316.29 1446.02 318.51 1441.37 320.86 1436.76 323.34 1432.19 325.96 1427.67 328.72 1423.19 331.61 1418.75 334.63 1414.36 337.79 1410.01 341.08 1405.71 344.5 1401.45 348.06 1397.23 351.76 1393.06 355.59 1388.93 359.55 1384.85 363.65 1380.81 367.88 1376.85 372.21 1373.02 376.58 1369.31 381 1365.73 385.46 1362.28 389.98 1358.95 394.54 1355.75 399.15 1352.67 403.8 1349.72 408.51 1346.89 413.26 1344.19 418.06 1341.62 422.91 1339.17 427.81 1336.85 432.75 1334.65 437.74 1332.58 442.78 1330.63 447.87 1328.81 453 1327.11 458.18 1325.54 463.41 1324.1 468.69 1322.78 474.02 1321.59 479.39 1320.52 484.81 1319.58 490.28 1318.76 495.79 1318.07 501.36 1317.51 506.97 1317.07 512.63 1316.75 518.33 1316.56 524.09 1316.5 529.89 1316.54 534.23 1316.65 538.51 1316.84 542.75 1317.11 546.93 1317.46 551.07 1317.88 555.15 1318.37 559.18 1318.95 563.16 1319.6 567.1 1320.32 570.98 1321.12 574.81 1322 578.59 1322.96 582.32 1323.99 585.99 1325.1 589.62 1326.28 593.2 1327.54 596.72 1328.88 600.2 1330.3 603.63 1331.79 607 1333.35 610.32 1335 613.6 1336.72 616.82 1338.51 619.99 1340.38 623.11 1342.33 626.18 1344.36 629.2 1346.46 632.17 1348.64 635.09 1350.89 637.96 1353.22 640.78 1355.63 643.55 1358.1 646.24 1360.61 648.86 1363.17 651.38 1365.78 653.83 1368.43 656.18 1371.12 658.45 1373.86 660.64 1376.65 662.74 1379.48 664.75 1382.35 666.68 1385.27 668.52 1388.24 670.28 1391.25 671.95 1394.31 673.53 1397.41 675.03 1400.56 676.45 1403.75 677.77 1406.99 679.02 1410.27 680.17 1413.6 681.24 1416.97 682.23 1420.39 683.13 1423.86 683.94 1427.37 684.67 1430.92 685.31 1434.52 685.87 1438.17 686.34 1441.86 686.73 1445.59 687.03 1449.38 687.24 1453.2 687.37 1457.07 687.41 1601.63 687.41"/><path d="M992.94,147.01l-.13-3.99-.22-3.94-.31-3.9-.4-3.86-.49-3.82-.58-3.77-.66-3.73-.75-3.69-.84-3.65-.93-3.61-1.02-3.56-1.11-3.52-1.2-3.48-1.28-3.44-1.37-3.39-1.46-3.35-1.55-3.31-1.64-3.27-1.73-3.22-1.82-3.18-1.9-3.14-1.99-3.1-2.08-3.06-2.17-3.01-2.26-2.97-2.35-2.93-2.44-2.89-2.53-2.84-2.61-2.8-2.7-2.76-2.79-2.72-2.86-2.65-2.9-2.57-2.95-2.48-2.99-2.4-3.04-2.32-3.08-2.23-3.13-2.15-3.17-2.06-3.22-1.98-3.26-1.9-3.31-1.81-3.35-1.73-3.39-1.64-3.44-1.56-3.48-1.47-3.53-1.39-3.57-1.31-3.62-1.22-3.66-1.14-3.71-1.05-3.75-.97-3.8-.88-3.84-.8-3.89-.72-3.93-.63-3.98-.55-4.02-.46-4.07-.38-4.11-.29-4.16-.21-4.2-.13L833.97,0l-4.17.04-4.14.12-4.11.2-4.07.28-4.04.35-4.01.43-3.97.51-3.94.59-3.91.67-3.87.75-3.84.83-3.8.91-3.77.99-3.74,1.06-3.7,1.14-3.67,1.22-3.64,1.3-3.6,1.38-3.57,1.46-3.54,1.54-3.5,1.62-3.47,1.7-3.43,1.77-3.4,1.85-3.37,1.93-3.33,2.01-3.3,2.09-3.27,2.17-3.23,2.25-3.2,2.33-3.17,2.41-3.13,2.48-3.1,2.56-3.07,2.64-3.03,2.72-3,2.8-2.96,2.88-2.93,2.96-2.9,3.04-2.86,3.11-2.83,3.19-2.8,3.27-2.76,3.35-2.73,3.43-2.7,3.51-2.66,3.59-2.63,3.67-2.59,3.75-2.56,3.82-2.53,3.9-2.49,3.98-2.46,4.06-2.43,4.14-2.39,4.22-2.36,4.3-2.33,4.38-2.29,4.46-2.26,4.53-2.23,4.61-2.19,4.69-2.16,4.77-2.12,4.85-2.09,4.93-2.06,5.01-22.93,56.33h-85.24l-5.35.07-5.2.22-5.05.36-4.9.51-4.76.66-2.32.38-2.29.42-2.25.46-2.21.49-2.17.53-2.14.57-2.1.6-2.06.64-2.03.68-1.99.71-1.95.75-1.92.78-1.88.82-1.84.86-1.8.89-1.77.93-1.73.97-1.69,1-1.66,1.04-1.62,1.08-1.58,1.11-1.55,1.15-1.5,1.18-1.46,1.21-1.41,1.24-1.36,1.26-1.31,1.29-1.26,1.32-1.22,1.34-1.17,1.37-1.12,1.4-1.07,1.42-1.03,1.45-.98,1.48-.93,1.5-.88,1.53-.83,1.56-.79,1.58-.74,1.61-.69,1.64-.64,1.66-.6,1.69-.55,1.72-.5,1.74-.45,1.77-.41,1.8-.36,1.82-.31,1.85-.26,1.88-.21,1.9-.17,1.93-.12,1.96-.07,1.99-.02,2.01v1.53s.05,1.51.05,1.51l.07,1.48.1,1.46.12,1.43.15,1.41.18,1.39.2,1.36.23,1.34.26,1.31.29,1.29.31,1.27.34,1.24.37,1.22.4,1.19.42,1.17.45,1.14.48,1.12.5,1.1.53,1.07.56,1.05.59,1.02.61,1,.64.98.67.95.7.93.72.9.75.88.78.86.8.83.83.81.86.78.89.76.91.74.94.71.97.69.99.66,1.02.64,1.05.61,1.08.59,1.1.57,1.13.54,1.16.52,1.19.49,1.21.47,1.24.45,1.27.42,1.29.4,1.32.37,1.35.35,1.38.33,1.4.3,1.43.28,1.46.25,1.49.23,1.51.2,3.11.34,3.22.24,3.33.14,3.43.05h73.28l-149.05,367.38h-175.97l-5.79.03-5.71.09-5.64.15-5.56.21-5.48.28-5.41.34-5.33.4-5.26.46-5.18.52-5.1.58-5.03.64-4.95.71-4.88.77-4.8.83-4.72.89-4.65.95-4.57,1.01-4.5,1.07-4.42,1.13-4.35,1.2-4.27,1.26-4.19,1.32-4.12,1.38-4.04,1.44-3.97,1.5-3.89,1.56-3.81,1.63-3.74,1.69-3.66,1.75-3.59,1.81-3.51,1.87-3.43,1.93-5.17,3.13-5.03,3.28-4.89,3.43-4.76,3.58-4.62,3.74-4.48,3.89-4.35,4.04-4.21,4.19-4.08,4.34-3.94,4.5-3.8,4.65-3.67,4.8-3.53,4.95-3.39,5.1-3.26,5.26-3.12,5.41-2.96,5.51-2.77,5.56-2.58,5.61-2.39,5.66-2.19,5.71-2,5.76-1.81,5.81-1.62,5.86-1.43,5.91-1.24,5.96-1.05,6.01-.86,6.07-.67,6.12-.48,6.17-.29,6.22-.1,6.27.06,5.02.17,4.96.28,4.91.39,4.85.5,4.8.61,4.74.72,4.69.84,4.63.95,4.58,1.06,4.52,1.17,4.46,1.28,4.41,1.39,4.35,1.5,4.3,1.62,4.24,1.73,4.19,1.84,4.13,1.95,4.08,2.06,4.02,2.17,3.97,2.29,3.91,2.4,3.85,2.51,3.8,2.62,3.74,2.73,3.69,2.84,3.63,2.95,3.58,3.07,3.52,3.18,3.47,3.29,3.41,3.4,3.35,3.51,3.3,3.6,3.22,3.66,3.12,3.72,3.02,3.78,2.91,3.84,2.81,3.9,2.71,3.96,2.61,4.02,2.5,4.08,2.4,4.14,2.3,4.2,2.2,4.26,2.1,4.32,1.99,4.38,1.89,4.44,1.79,4.5,1.69,4.56,1.58,4.61,1.48,4.68,1.38,4.73,1.28,4.79,1.18,4.85,1.07,4.91.97,4.97.87,5.03.77,5.09.66,5.15.56,5.21.46,5.27.36,5.33.26,5.39.15,5.45.05,6.74-.07,6.69-.22,6.64-.37,6.59-.52,6.54-.67,6.49-.82,6.44-.97,6.4-1.12,6.35-1.27,6.3-1.42,6.25-1.56,6.2-1.71,6.15-1.86,6.1-2.01,6.05-2.16,6.01-2.31,5.96-2.46,5.91-2.61,5.86-2.76,5.81-2.9,5.76-3.05,5.71-3.2,5.67-3.35,5.62-3.5,5.57-3.65,5.52-3.8,5.47-3.95,5.42-4.1,5.37-4.25,5.32-4.39,5.28-4.54,5.23-4.69,3.94-3.68,3.85-3.7,3.75-3.72,3.66-3.73,3.57-3.75,3.47-3.76,3.38-3.78,3.29-3.79,3.19-3.81,3.1-3.82,3.01-3.84,2.91-3.86,2.82-3.87,2.73-3.89,2.63-3.9,2.54-3.92,2.55-4.11,2.67-4.47,2.78-4.83,2.9-5.19,3.02-5.56,3.14-5.92,3.25-6.28,3.37-6.64,7.09-14.37,7.56-15.82,8.02-17.27,8.49-18.72,5.98-13.96h370.87l5.35-.07,5.2-.22,5.05-.37,4.9-.51,4.76-.66,2.32-.38,2.29-.42,2.25-.46,2.21-.49,2.17-.53,2.14-.57,2.1-.6,2.06-.64,2.03-.68,1.99-.71,1.95-.75,1.92-.78,1.88-.82,1.84-.86,1.8-.89,1.77-.93,1.73-.97,1.69-1,1.66-1.04,1.62-1.08,1.58-1.11,1.55-1.15,1.5-1.18,1.46-1.21,1.41-1.24,1.36-1.27,1.31-1.3,1.26-1.33,1.22-1.36,1.17-1.39,1.12-1.42,1.07-1.45,1.03-1.48.98-1.51.93-1.54.88-1.57.83-1.6.79-1.63.74-1.66.69-1.69.64-1.72.6-1.75.55-1.78.5-1.81.45-1.84.41-1.87.36-1.9.31-1.93.26-1.96.21-1.98.17-2.01.12-2.04.07-2.07.02-2.1-.02-1.48-.05-1.46-.08-1.44-.12-1.41-.15-1.39-.19-1.37-.22-1.34-.25-1.32-.29-1.3-.32-1.27-.36-1.25-.39-1.23-.42-1.2-.46-1.18-.49-1.16-.52-1.13-.56-1.11-.59-1.09-.63-1.06-.66-1.04-.69-1.02-.73-.99-.76-.97-.8-.95-.83-.92-.86-.9-.9-.88-.93-.85-.96-.83-1-.81-1.03-.78-1.07-.76-1.1-.74-1.13-.71-1.17-.69-1.2-.67-1.23-.64-1.27-.62-1.3-.6-1.34-.57-1.37-.55-1.4-.53-1.44-.5-1.47-.48-1.51-.46-1.54-.43-1.57-.41-1.61-.39-1.64-.36-1.67-.34-3.45-.61-3.59-.51-3.72-.42-3.86-.33-3.99-.23-4.13-.14-4.26-.05h-345.45l149.55-367.38h52.34l6.54-.05,6.46-.15,6.38-.25,6.3-.35,6.23-.45,6.15-.55,6.07-.66,6-.76,5.92-.86,5.84-.96,5.77-1.06,5.69-1.16,5.61-1.26,5.54-1.36,5.46-1.46,5.38-1.56,5.3-1.66,5.23-1.76,5.15-1.86,5.07-1.96,5-2.07,4.92-2.17,4.84-2.27,4.77-2.37,4.69-2.47,4.61-2.57,4.54-2.67,4.46-2.77,4.38-2.87,4.3-2.97,4.23-3.07,4.15-3.17,4.05-3.26,3.92-3.32,3.79-3.38,3.66-3.44,3.53-3.5,3.41-3.56,3.28-3.62,3.15-3.68,3.02-3.74,2.89-3.8,2.76-3.86,2.63-3.92,2.51-3.99,2.38-4.05,2.25-4.11,2.12-4.17,1.99-4.23,1.86-4.29,1.73-4.35,1.61-4.41,1.48-4.47,1.35-4.53,1.22-4.59,1.09-4.65.96-4.72.84-4.78.71-4.84.58-4.9.45-4.96.32-5.02.19-5.08.06-5.14-.04-4.03ZM361.97,840.5l-3.53,7.54-3.64,7.34-3.75,7.14-3.86,6.93-3.98,6.73-4.09,6.52-4.2,6.32-4.31,6.11-4.42,5.91-4.53,5.7-4.64,5.5-4.75,5.3-4.86,5.09-4.97,4.89-5.09,4.68-2.57,2.25-2.58,2.18-2.59,2.11-2.59,2.04-2.6,1.97-2.61,1.9-2.61,1.82-2.62,1.75-2.62,1.68-2.63,1.61-2.64,1.54-2.64,1.47-2.65,1.4-2.66,1.32-2.66,1.25-2.67,1.18-2.67,1.11-2.68,1.04-2.69.97-2.69.89-2.7.82-2.71.75-2.71.68-2.72.61-2.73.54-2.73.47-2.74.39-2.74.32-2.75.25-2.76.18-2.76.11-2.77.04-2.01-.02-1.99-.06-1.97-.09-1.95-.13-1.93-.17-1.91-.21-1.89-.24-1.86-.28-1.84-.32-1.82-.36-1.8-.39-1.78-.43-1.76-.47-1.74-.51-1.71-.54-1.69-.58-1.67-.62-1.65-.66-1.63-.69-1.61-.73-1.59-.77-1.56-.81-1.54-.84-1.52-.88-1.5-.92-1.48-.96-1.46-.99-1.44-1.03-1.41-1.07-1.39-1.11-1.37-1.14-1.35-1.18-1.32-1.21-1.28-1.23-1.24-1.24-1.19-1.26-1.15-1.28-1.11-1.3-1.07-1.32-1.03-1.33-.98-1.35-.94-1.37-.9-1.39-.86-1.41-.82-1.42-.77-1.44-.73-1.46-.69-1.48-.65-1.5-.61-1.51-.57-1.53-.52-1.55-.48-1.57-.44-1.59-.4-1.6-.36-1.62-.31-1.64-.27-1.66-.23-1.68-.19-1.69-.15-1.71-.1-1.73-.06-1.75-.02-1.77.02-2.15.07-2.11.12-2.08.17-2.05.21-2.01.26-1.98.31-1.95.36-1.91.41-1.88.45-1.84.5-1.81.55-1.78.6-1.74.64-1.71.69-1.67.74-1.64.79-1.61.83-1.57.88-1.54.93-1.51.98-1.47,1.03-1.44,1.07-1.4,1.12-1.37,1.17-1.34,1.22-1.3,1.26-1.27,1.31-1.23,1.36-1.2,1.41-1.17,1.46-1.13,1.5-1.1,1.55-1.07,1.6-1.03,1.65-1,1.69-.96,1.74-.93,1.79-.9,1.84-.86,1.88-.83,1.93-.79,1.98-.76,2.03-.73,2.08-.69,2.12-.66,2.17-.63,2.22-.59,2.27-.56,2.31-.52,2.36-.49,4.87-.88,5.06-.74,5.25-.61,5.44-.47,5.63-.34,5.82-.2,6.01-.07h131.1l-3.42,7.75ZM865.84,155.21l-.08,1.66-.13,1.64-.18,1.63-.23,1.61-.29,1.59-.34,1.58-.39,1.56-.44,1.55-.49,1.53-.55,1.51-.6,1.5-.65,1.48-.7,1.47-.76,1.45-.81,1.43-.86,1.42-.91,1.4-.96,1.39-1.02,1.37-1.07,1.35-1.12,1.34-1.17,1.32-1.22,1.3-1.28,1.29-1.33,1.27-1.38,1.26-1.43,1.24-1.48,1.22-1.54,1.21-1.59,1.19-1.64,1.18-1.68,1.15-1.7,1.11-1.72,1.08-1.74,1.04-1.76,1-1.78.97-1.8.93-1.82.89-1.84.86-1.87.82-1.89.78-1.91.75-1.93.71-1.95.68-1.97.64-1.99.6-2.01.57-2.03.53-2.05.49-2.07.46-2.1.42-2.12.38-2.14.35-2.16.31-2.18.27-2.2.24-4.46.37-4.55.22-4.63.07h-22.93l13.96-34.4,1.78-4.29,1.79-4.16,1.8-4.02,1.81-3.88,1.82-3.75,1.83-3.61,1.85-3.48,1.86-3.34,1.87-3.2,1.88-3.07,1.89-2.93,1.9-2.79,1.91-2.66,1.92-2.52,1.93-2.39,1.94-2.25,1.95-2.11.98-1.01.98-.97.99-.94.99-.9.99-.87.99-.83,1-.8,1-.77,1-.73,1-.7,1.01-.66,1.01-.63,1.01-.6,1.02-.56,1.02-.53,1.02-.49,1.02-.46,1.03-.43,1.03-.39,1.03-.36,1.03-.32,1.04-.29,1.04-.26,1.04-.22,1.04-.19,1.05-.15,1.05-.12,1.05-.09,1.06-.05,1.06-.02,2.3.04,1.12.05,1.1.07,1.09.09,1.07.11,1.05.13,1.03.15,1.01.17.99.19.98.2.96.22.94.24.92.26.9.28.89.3.87.32.85.34.83.36.81.38.79.4.78.42.76.44.74.46.72.48.7.5.68.52.67.54.65.56.63.57.61.59.59.61.58.63.56.65.54.67.52.69.5.71.48.73.47.75.45.77.43.79.41.81.39.83.37.85.36.87.34.89.32.91.3.92.28.94.26.96.25.98.23,1,.21,1.02.19,1.04.17,1.06.16,1.08.14,1.1.12,1.12.18,2.3.11,2.38.04,2.45-.03,1.67Z"/></svg>