<svg xmlns="http://www.w3.org/2000/svg" viewBox="0 0 958.8 290.7">
  <path d="M816 215c1-11-3-40 1-55v-11q-3 2-1-1l6-7q10-9 22-16l15-3q7 0 14 1 11 0 14 10-3-5-7-5 4 4 7 9l1-1h1v2q1 4-1 0c9 14 5 107 5 106l1 4c-4 7 0 16-12 19-4 1-16 6-14 12l29-1-2-2 1-1h2l-1 3 25 1h26q-6 4-15 4l11 1c-7 2-13-1-20-1q-23-1-46 2h-14c3-3 6 0 9-1-3-2-7 0-8-3-4-12 0-5-1-14l8-2q-4 0-7-1c7-4 6 3 17-4q-1 2-3 4 8 0 9-11-2 4-7 7 8-12 7-28 1 9 0 18 3-4 2-12l1-55-2-15c1-14-2-13-3-19q0-6-4-11l-1 2c1-1-5-2-3-3h4l-1-2-1-1q-2-3-6-4c-3 0-9-6-17-3l-9 3q-11 3-18 14l-6 8q-3 8-1 15v23l-1 29 3 33q-1-1-3-3 0 12 11 15l1-2 11 1h-9q5 3 10 3c5 2 1 10 1 16l-28-1q-27 0-52 2-4 1-7-2 0 4-1 5l-3-19c3 0 0 3 2 5q0-5 3-11l1 5 11-2q10-2 10-14l1-35v-42q1-9 0-19-3-5-1-11c2 3-1 5 1 7 1-17 2-28 1-45q1-23-1-47v12q1 9-2 17V63c1-8 0-27-8-32s-15-4-24-4l4-3c-3-3-3-13-1-18l35-2-6 3q20-1 38-4 0-3 2-3c1 13 3 4 1 18q2-4 3-9 2 1 1 5l-3 33-1 8v30l-2 7v28c8-6 14-14 24-16q-9 7-17 15 5-4 12-9l13-7-3-2 27-3 13 2q13 2 22 13 12 14 14 34 2 3 1 7c-2 10 1 19 1 29v51q0 15 7 25c4 4 11 3 16 5q-3 1-6 1l14 4-6 1q1 5-4 7v-7q-11-1-19-6c-8-6-5-33-6-46v-23q1-24-1-46l-2-9-2-1v-2h2q-7-31-39-35-31-1-51 20c1-1-10 8-12 8l-1-3 1-83 1-38q-11 1-21 3l-14 1c-3 1-12-1-16 4s-4-3-9 7l11-4q-4 1-7 4c6 4 7-3 12-3l-5 5q3 2 8-1l-2 2q2 4 7 6v2h4c-7 3 2 5 2 13l-2 5q-1 10 1 19v33c1 5-2 8-1 13q0 16-1 33v84l1 7c0 3-3 6-1 10l2 2-1 1q0-4-2 0c0 13-8 11-9 17q0-2-2-3-3 2-4 5c-1 1-2-2-3-1q-4 3-6 8h27l9-1 2 1 3-2q2-2 1 1c7 3 5-4 10-3q0 2-4 3h6c1 2 24 2 28 1l-1-5-2 2-1-2c-11-2-2-6-15-4 4-6-8-8-8-13l2-1-1-2-2 1q-2-7 0-15l1 10q1-9 0-17c-6-2 3 0-1-9zm1-15v-24zm128 65-8-3q-6-1-7-7 0 8 8 9 3 2 7 1M478 221l1 11 1 10q1 7 5 14 6 7 16 6c6 1 4 17 3 21q-1-3-4-3h-58c-10 0-23 5-25-1v-15q7 1 15-2 7 0 7-7l1-13 1-36v-46l-1-20c0-10-2-12-9-16q-7-2-13 1 1-3 3-4l-5-1-2-3q-1-9 2-12 2-2 6-1 13 1 26-2 5 1 9 1c12-2 11-3 21-2 0 9 2 11 1 19l-2-4q0 3 1 7-1 3 1 1 0-5 4-7l7-7 3 1q10-6 21-10-2-1-3-1l4-2 2 2c26-5 20-2 36 2q7 2 13 8c14 10 18 35 17 50q1 14 1 26-2 11-2 23l2 28c0 9-2 23 9 24 4 0 12-1 14 4 3 5 0 12 2 17h-8l-1-1-23-1h-9q-6-2-11 1l-5-2q-15 2-29 1c-5 0-2-10-3-14 4-2 8 0 12-3q-6 2-12-1c9-2 19 6 23-4q4-8 3-17l1-34c0-17 1-61-10-74q-12-12-29-6 3 1 1 1-3 2-3 0-6 1-10 6c-5 3-5 7-13 13q-1-1-3 1t0 3q-2 5-2 11zm-4 10v-62l-2 7c-2-10 5-13 1-13l-1-13 2-1c-4 3 15-24 39-27q15-1 26 8c13 13 10 59 11 77v13c-2 14 2 35-5 42q-6 4-12 5c5 2-10 11-8 10l48-1 8-4 1 5h22v-9q-9 1-17-5l-5-4-3-20v-7l-1 2v-3l2-1-1-8c-3-1 0-2 0-3l1-30c0-15 1-37-3-51l-3-9q-3-12-13-19-7-5-15-7c-18-5-40 1-53 13l-6 5-10 9c-4 5-3-24-4-27l-18 3-9 1c-7 1-16 0-19 4q-3 3-1 7 4 3 8-1 1 2-2 3c0 2 5-2 8 1l-4 1q7 6 8 15 1 11 1 21l-1 13 1 27-1 35v16h2l-3 3 1 4c-5 2-1 10-12 10-2 0-4 4-6 3q-2-2-6-1 0 3 1 5l-1 3 3 1 14-1h34l28 1v-10h-9q-2 3-2-1-6-1-11-6-4-10-2-21c0-8-4-4-4-18 3 3-1 7 3 10m11 30q-4-4-4-10-2-5-3-10c-1 4 0 20 7 20M403 260l7 1c1 5-4 12 3 14l-5 4q-2-1-1-2 0-1-2-1l-1 2q-8-2-15 1 1 0 3 1l-11 1c1-3 2-1 4-2-5-4-3 5-10 2q2-1 5-1c-5-2-10 1-15 1l-13 2q-1-4-3-5-2-8-3-17c-8 10-27 21-38 23q-23 4-42-6l-6-3q-7-8-12-16-7-30-6-59v-54l-2-14c-1-10-12-11-13-11v2l-9 1q4-3 6-2c-3-3-6-1-9-3l-1-4-2-2 2-2v-3c-2-8 18-2 25-5-8-1-16 1-24-2l43-1c-2 3-5 0-7 2 7 2 25-4 29 0q1 19 1 38 1 10 0 19l-1 33c-2 15 1 41 2 37q-1 17 12 27 10 5 21 3c6-2 13-2 18-9l3-5c0-2 8 1 12-9v-74c0-7 1-34-6-36q-2 0-2 1l-1-2q-10-2-21-1c6-4 12-1 19-1-6-3-11-1-17-3q-4-7 0-15l31-1 28-3h4l2 5v38l-1 39q-1 31 1 61 0 5 4 8 0 4 4 6h6q5 0 11-1-3 2-7 3m3 13q-2-5 0-8c-12-4-16-1-25-14q-2-1-3-4l3-3q2-3 0-10v-61l1-12 1-44q0-6-2-13l-54 5q-4-2-5 1t1 4q2-1 2-2-1 2-3 5c10 2 25 1 27 14q4 23 3 46l-1 15v27c-1 17 6 19-19 37-11 7-29 10-40 2-15-10-16-34-16-50l1-57v-48l-43 4q-6 2-11 0l-5 5v4l3-1 2 1q11 0 21 5c-3 1-4-2-8 0q8 2 8 11 3 12 3 25l-2 40q-1 16 1 30l1 7q-1 6 2 10 4 32 36 37c26 6 49-11 66-30 3 8 1 15 2 22l2 1s-3 2-1 4q2 1 4-2 2 3 5 1 5 0 11-2c9-3 17 3 21-5l2 3zm-57-3v-12q-3 7 0 12M208 198c0 3 11 3 10 3l2-3c3 8-3 26-2 38v10l-3 30q0 4-2 6c-2 2 2 6-2 9v-10h-47l-11-1h-38q-30 0-58 2l-10-1q-8-1-16 0H7c-2 0-4-3-7-1 1-3 5-1 5-4q-1-5 1-11 10 0 19-3c4-2 8-2 10-8q2-12 2-25v-33l2-52-1-68-2-25q0-6-3-11-7-6-16-6L6 32q-3-8-1-15 3-2 7-2h26l20 1h42q7-2 16 1 2 8 0 17c-2-3 1-6-1-10l-1 8c-7 1-15 0-21 5-9 12-4 10-10 19-4 4-1 11-1 16l-1 13c-1 21-2 29-1 50l1 13v37l-1 40c0 7 0 37 12 33q-2-2-3-4c6 2 12 7 19 7h20q9-2 18-2c-1 3-4 0-5 2q16 1 32-6c8-4 12-15 18-22q9-11 13-25v-4zM77 277h26l31 1h58l12-1h3l1-2 1 3 2-1 4-38v-16l4-19-10 1q-5 16-15 31l-10 13c-12 17-42 16-61 16-14 0-39 4-43-12q-3-17-2-35l-1-102 1-31 1-34c1-18 17-21 32-22V19l-19 1H52l-31-2c-2 2-14 9-12 10l2 1 1-2c2 5 9 3 12 4l9 4 3-1-1 4 3 1q2 5 1 9v8l2 47 1 50q-1 27-1 54 1 24-3 48c-1 4-7 11-8 11-3 1 0-4-11 4q1-2 1-3l-12 2 2 2q-1 0-1 7 6 2 10-3l-1 3s23 2 23-3l1 2c-1 0 7 3 8-2l2 2z"/>
  <path d="M655 209q2 13 9 25 6 13 19 21c22 14 56 2 65-24h1l2-1q-3-2-4-5c8 4 10 9 20 14q-9 12-18 23l-11 10-9 7-7 1q-28 12-57 2-3-1-6-1-4-4-10-6c-6-2-5-5-8-6-2 0-3-6-6-7q-5-5-8-11-22-38-12-83 10-39 45-60c26-14 68-14 88 14q11 16 6 33-6 17-23 16-9-1-16-7c-7-8-4-14-4-22l-4 5q1-5 4-8l4-8q3-3 1-7-3-2-7-2-12-5-25-2-6 5-11 12l-1-1q-6 4-8 10c3 3-1 10-1 10q-1 1-2-2c-1 10-6 17-6 29l-1-8q-4 17 0 34zm86 41q1 8-6 12l1-8q-5 2-6 6l-1-3q-21 14-44 3c-18-7-27-25-33-43-8-24 0-11-2-25q-1-4-1-8 0-24 12-47c9-20 29-30 50-21q13 6 7 19l-2 6v5q1 2 3 2l-5 1q-1 8 6 14l3-3q1 1-2 4c8 4 11-6 17-5q2 1 1 3l-5 4c1 5 16-3 16-13q-2-1-1-2c6-1 4-27-16-39q-15-9-34-10c-19-1-23 3-35 8q-31 15-42 48-6 18-7 38l1 11q3 31 22 53 5 6 10 5l1-3h2q-2 4 0 7l5 4q18 12 38 10l-10-4 9 1q-3-4-2-9c-1 0 6 14 4 12 3 2 23-4 28-6 16-7 14-12 18-14q8-4 10-13-4 3-7 6l4-12q3-3 5-8-2 5-1 8l4 3q3-4 3-9-1-2-3 1v3c-2-4 1-5 0-6l-4-2q-5 11-17 19 3 3 2 6 4-3 4-9M301 256q6-2 13-1c-2 6-21 2-23-6q4 2 7 5 3-1 6 1-2 0-3 1M342 103h-22q7-1 13-1c3 0 6-3 9 1M33 248v-27zM657 200v-24zM791 156v-16q4 8 0 16M790 184v-19zM783 112V92zM592 275c3-6-8-5-8-12q7 7 16 7-5 2-8 5M433 271l-6 4c-2-3 4-7 5-7z"/>
  <path d="m673 279 1-2q2 3 4 2c0-1-3-3-1-5q2 4 6 5-5 2-10 0M719 137c5-9 7-8 6-13 6-1-4 15-6 13"/>
</svg>
