<svg xmlns="http://www.w3.org/2000/svg" id="Layer_2" viewBox="0 0 841.5 418.2"><g id="Layer_1-2" fill="#c45a5a"><path d="M630 351.8a331 331 0 0 0-103.2-51.3c-4.2 3-9.3 3-13.6 2.8-7-.4-8.3-7-11.9-10.1-15-10-57.1-5.9-71.2 3.5-4.5 3-6.2 8.7-13.5 8.4-5.7-.1-12-1.7-15.2-7.6-3.6 1.5-6 3.2-9.1 5a24 24 0 0 1-23.7-.7c-68.3 18-144.4 9.3-210.8-12.3q-32.3-10.4-61.7-27c-38-21.6-76.4-56.8-77.4-103.7-5-.4-8.2-3.6-10.5-6.4-3.2-4.1-1.6-9.8-1.7-13.8-3.2-3.3-7-6-6.4-12.1.3-4.2.9-8.3 5.8-10.2a25 25 0 0 1 7.2-1.2c.8-5.9.2-11.3.2-17.1 0-10 2.8-19.4 9-27 3.4-4.2 8-6.6 12.5-9.3 1-15.5 3-5.6 3.4-14 .4-1 2-2 2.8-3.1-2.1-11 16.2-9 19.4-11.3 2.8-2 6-2.1 9-2.8S75.6 27 79.6 28c1.6.4 4.6-1.6 6.6-1.2 14.6-18.7 48.2-14 68.6-18.3.7-1.4.2-3 1-4.2 4-5.3 12.2-6 17.2-.9C178.8.1 184.9 0 191 2c2.8.8 6 1.2 8.5 3.2a340 340 0 0 1 186.3 31C431.4 58 482.2 95 492.1 147.5c9.1.7 15 8 14.2 16.7-.1 1.1-.7 3 0 4 3.4 1.3 7 2.7 8.5 6.4 2 5.2 2.2 11.9-.9 16.5-1.5 2.2-2.3 3.5-1.6 6.5 2.7 11 8.8 20.7 17.6 28.2 2.4 2 6.2 5.6 9.5 5 5.1-.7 9.5-1.7 14.2 1.4a15 15 0 0 1 7 11.1c18.6 11.6 37.9 20.7 58.8 27.3a347 347 0 0 0 68.7 15.2c4.9.5 9.6-.2 12.6 4.8 30.8 2 67.4 11.4 93.7 27.9 10.3 6.4 19 15.4 19.7 27.9 8.8 1.1 15.7 7.9 14.4 16.9 7 3.2 7.7 9.7 9 16 .6 3.8 4.3 6.7 4 11.3-.3 5.7-2 11-6.3 14.4a18 18 0 0 1-16 3.2c-3.6 6.6-11.4 8.2-18 4.5a15.6 15.6 0 0 1-22.3.2 43 43 0 0 1-25.3 5.2c-35.8-3.5-69.7-25.1-95.5-49.7a15 15 0 0 1-16.2-6c-3.2-4.2-7.6-7.3-12-10.5ZM94.3 32.1c-.7-6.9 8.5-11 13.5-12a58 58 0 0 1 23.4 0l1.8 2 5.8-2.2a26 26 0 0 0-10.4-3.5l19.8-.3c2.2 0 24-3 21-9.6-1-2.2-3-2.4-5.3-2.2q-2.1.1-3.6 1.7c-.8.7 1 2.2.6 3.2-1.4 2.7-5.6 3.5-8.7 4-17.6 2.8-51.3.5-62.4 16.1a6 6 0 0 0-.9 5.3q1 2 3.8 3c5.9 2 16.4-3.8 12.6-7.4-2-2-6.5-1.7-7.7 1-.5 1 .7 2.7-1 2.6-.6 0-2.2-.2-2.3-1.7M177 9.4c6.2-1 11.2-1.8 16.3-3.2l-9.7-1.5c-4.2-.7-10 .8-11 5.6 4-1.8 6.6-5.4 10.7-4.5-2.2 1.6-5.1 1.1-6.3 3.6M358.7 279c5-2.7 5.8-9.4 8.7-7.5.6.5.7 2.3.3 3-1 2-3.3 2.5-4.1 5 4.3-.5 5.8-4.4 7.6-7.3 1-1.7 3.7-2 4.2-4.7 1.2-7 11.5-11 18.3-11.3a67 67 0 0 1 21 2c.5.2.8 1.5 1.3 1.5q.7.1 1.8-.4c15-8.4 29-18.3 41-30.6 5.9-6 10.6-12.3 15-19.3a86 86 0 0 0 13.9-39.7c.2-2-2.3-4.3-3.5-5.4L474 153.9c-3-3-4-8.6-3.6-12.9.9-8.7 11.9-10.5 7.4-19.4-16-31.6-46.5-55.4-77.1-72.2A342 342 0 0 0 247 7.5c-10.2-.3-19.7-.2-29.7.8-10.6 5.8-23.2 12.1-35 6.5-2.7-1.2-3.4-1.6-6.4-1a299 299 0 0 0-62.4 21.4c-32 15.5-59.4 36.2-77.4 67.3q-4.2 7.6-7 15.6c-2.8 8 3 7.3 8 13.2a16.3 16.3 0 0 1-.2 21.9c3.6 6.2-10.2 13.4-7.8 20.2a110 110 0 0 0 29.5 42.7c26.1 24.8 65.4 43.4 99.5 54.2a409 409 0 0 0 140.7 19c17.6-.8 34.6-2.6 51.8-6.6 3-.7 5.5-2.4 8-3.7m-153-267.8L211 9c-5.5-.8-10 1.7-15 2.3-4.3.5-8.6-.6-12.5 1.4 7.4 3.2 15 1.8 22.2-1.4m-62.3 7.4q-2.5-1-3.4 0 2 .7 3.4 0m-12.9 3.6c-7.4-2.8-26-2.2-32.2 4.2 4.4-.2 7.4-3 11.5-3.7 11.7-2.1 19 3.8 20.7-.5m-11.6 4c2 .7 4.3.5 5.6-1.2a31 31 0 0 0-19.1 1.2c5 .2 8.9-1.4 13.5 0m-.7 2c-3.9-1-6.5-.5-9.5.2.2 1.6.5 2.5 1 4 3-1.5 6-2.2 8.5-4.2m-25.5 13c-12.4-1.7-5-14-10.5-9.5-2.5 2.2-.3 7.3 1.2 10.6 3.8 2 5.3 3 9.3-1M47.4 47c5.6-1.4 10.1 1.2 14.6 3q2.3 1 1.5 3.2c-1 3.5-10.5-4.3-21.8.3q-1.6.7-1.8 2c-.7 4.6 5.7-2.3 21.4 1.5 2 .5 4.4.8 4.1 3.8 4-1.7-.5-4.8 3.7-9.2 5.6-5.9 10.4-5.4 17.8-6.3-3-1.8-6.9-.4-10-1.9-2.7-1.3-2.5-6.4-2-8.7 1.4 3.7 1.3 9.8 6.5 8.5q-2.8-5-.7-10.5c-3 .4-5.9-1.4-7.6.8q-1 1.3-1 3.5c-1.7-.8-5.6-3.4-7-1.4-2.1 2.7 2.5 7 4.4 8.2-1.2-2.8-2.6-4.7-2.2-7.1 1.1 2.4 2.6 4 4.3 6.1l-.8-5.5c1 2.7 2.9 4.6 5 7.2q-3 1.6-6 2.5c-3.3-2-5.2-4.8-7.5-7.6s-6-1.6-8.5 0c-1.5.3-8.5.6-8.3 3.2l.4 3.6c.2 1.4-3.6 1.6-2.6 4.3 5.5-1.1 10.2-.1 15.8.6-3.7-2.7-7.9-3-11.7-4m34.1 1.3c-5.4.3-11.1 3.2-12 9zM59.1 66.7l4.2-3.9c6-5.6-19.3-7.7-23.3-3 4.8 1.4 12.6-3 18.2 4.2.3.4 1 .5 1 1s-.6.7-.1 1.7ZM31.6 99.4c1.9-1.5.6-4.7-.4-6.4-3.8-6.5-2.6-14.9 2.4-20.3-3.4 7.4-3.7 15.8 1.3 21.8.7 0 1.5-1 1.4-1.5s-.2-1.3-.5-1.7c-4.7-7.8-2.5-16 3.3-22 2.7-3 6.4-5.6 10-2.5q.5.7.6 1.5 0 .6-.7.6-.8-.2-1.4-.6c-2-.9-4 0-4.8 1.7-.7 1.5.7 3.6 2.8 3.9 3.4.4 7.3-1 9.3-3.8 1.1-1.6.6-3.5-.4-4.8-4.4-6-28-.8-34 19-4.2 13.3-.9 17.6-2.5 30.1-.4 2.5-2.7 7.5-4.2 6.3l-2.4-1.8c-.6-.5-1.9.3-3 .8-2.2 1-4.3 4.4-2 6.3 3.1 2.8 8.2 2.2 11.4-.1 5-3.7 6.6-9.3 5.3-15.1-.8-3.4-2.4-6.4-2.8-9.9l4.6 4.7c2.7-2.9-4-11.6-1.5-17.7.8 5.5 3 10.5 8.2 11.5Zm7.5-26.8c-4.7 4.6-4.1 12.1-.8 17.2 4.4-2.8-3.5-3.7.8-17.2m9.6 4.5c-3.6-.4-5.3-.2-7.6-1.8q-1.9 5.5 1 9.8zm-22.3 36.1 4.5-10c.6-1.3-2-2.6-3-2.3 2 9-5.3 4.5-1.5 12.3m1.4 54.6c1.9-5.8 8-9.2 7.2-12.6-1.6.4-2.2 2.2-4.2 1.3l4.7-4.9c4.5-4.6 4.3-12.2 0-17.2-2.5-3-5.1-5.5-8.2-8.5-5.3 9.4 9.8 8 8.3 19.3-.2 2-2.5 3.6-4.4 5.5l-3.3 3.2c-1.4-1.7-5 4.6-1.9 6.9.6-3.2 2.2-5 4.7-6.9 2.3 2-7.4 6.5-3 14Zm-8.6-18 .4-13c-2 .4-1 2-2 3.4-1.3-7.2 2.7-7.3 3.8-12.9-7 4.3-13.5 13.7-9.2 22 1.2 2.4 3.7 4.5 6.8 3.6-6.9-4.9-7.3-8.8-4.6-15.3-.4 5.3-.6 10 4.8 12.3Zm456.7-3c-.3-1.4-.5-3.4.7-4.3.9-.6 2-1.9 3.5-1.2-5.9 7 2.3 5.2 7.6 16.3a74 74 0 0 0-3.7-21.2c-2.2 2.7-4 4.4-6.7 3.1.7-2.3 5.2-3.7 5-7a6 6 0 0 0-1.8-4c-1.3 3.1-2.8 5-4.9 7-5.8 5.7-2.3 14.3 2.7 19 4 3.7 7 7.5 9 12.6 3.2-3.9-4.5-12.8-5.7-13.7-2.3-2-4.9-3.3-5.7-6.6M12.5 131.3c-3-.4-4.3-.7-6.8-1.4 0 2.3 1.6 3.6 3.2 4 1.5.4 3-.9 3.6-2.6Zm20.2 10.3c-1-3.9-3.7-2-7.6-7.3a48 48 0 0 0-.5 18.5c3.6-4.6 9.2-7 8.1-11.2m463.2 28c2.6.5 4.3-1 5-3.4 2.2-6.4-1-13.6-8.4-14.6.7 7 .2 13 .3 20.4 4-5.8 3.7-12.3 1.3-18.7 7 2.7 4.4 11.5 1.8 16.3m.7 34.3c-3.2-7.5-3-15.1-.4-22.6.7-2 1.8-3.8 3.3-4.4 2-.7 4.1-1.2 5.3.5l-5 2.6c1.7 3.4 7.1 4 9.8 1.1 1.5-1.5 1.1-4.1.1-5.7q-1.2-1.8-4.3-2.7c-5-1.4-10.4 1.4-13.3 6.2-2.4 3.7-3.5 9-3.4 13.7.8 25.8 37.5 57 61.3 53 2.4-.4 5.2-2.4 4.5-5-1.2-4.7-7.7-8-11.7-5.2-1.1.8 0 2.1.5 2.5 2.7 1.6 5.5-.4 5 1.4-1.9 9-38.2-3.8-51.7-35.3Zm37.9 30.2a72 72 0 0 1-20-14c-9.2-9.7-16.8-20.5-14-34.3.1-.6-1.9-1.7-2.2-.9-6.8 22.4 21.7 49 40.5 53.4-.7-2.7-2.3-3.2-4.3-4.2m-24-47c.6-1.3.6-2.3-.7-1.3-1.2.1-1 1-.9 1.8.2.6 1.2.6 1.6-.4Zm.4 21.7c-5-1.2-7.2-13.5-7.4-17.4-.2-1.7 2-3.7-.3-5.3-3.6 12.6 3.6 23.5 12.5 32-.8-3.6-3.5-5.7-4.8-9.3m-1.4-2a38 38 0 0 1-2-20.3c-2.6 2.1-.9 5.1-2.3 7.6 1.2 4.6 1.9 9.1 4.3 12.8M366 292c2-.6 3.5-2 2.6-4.2a256 256 0 0 1-56.6 10.4c-9.3.8-17.9 1.6-26.8.5 6.4-1.2 12.2-.5 18.6-1q32.5-2.5 63.8-11.7c2.4-.7 5-1.6 5.7-4.3-73.2 20.8-154.6 13.6-225.7-10.5q-36.2-12.1-68-33c-21.8-15-36-28.4-49.8-51.2 4.5 13.4 12.6 24 21.6 34.5 43.6 47.1 121.5 71.9 183.5 81 22.6 3.4 44.7 4.6 67.5 3.9 21.8-.7 42.7-3.6 63.8-9q1.8-.2 2-1.4c0-.5-.1-2.1-1-1.9-18.5 5.3-35.4 7-54.6 8.2q.4-.8 1.4-1.1 26.6-1.9 52-9.2ZM482 222c-1-3.9-1-6.4 1-8.4q2.4-2.6 7.1-1.8l-5.2-13.3a126 126 0 0 1-14 23.6c4.4-1.3 7.5-1.1 11.1-.1m5.8-3.8 7 8.4c.3 0 .9-1 1.2-.6 5.4 5.9 11.4 13 20.4 14a122 122 0 0 1-23.9-23.9c-1.5-2.1-7-2.2-7.5.6-1.9 13 27.6 30 27 24.8q-.1-.5-1-1a43 43 0 0 1-23.2-22.3m18.9 35.3c.5-4.6 1.3-7.2 3.4-10-2.7-.5-4.7-1.5-7-2.2 0 .2-.1 1.3-.4 1.2-13.5-5.1-17.9-13.2-29.3-16 8-2 14 6 21 9.3-3.7-6.2-17.5-16.5-25.1-9-2.2 2.2-2.3 5.7-1.1 8.2a10 10 0 0 0 6.6 5c9.4 2.1 18.7 4 26.6 9.4-8.6-3.2-16.6-6.4-25.8-6.9-3.8-.2-16.3-.7-15.3 5.1.1.8 1 2.7 2.3 2.6 15-.8 28.8 2.1 44 5.4-13-7.4-28-8.3-42.2-8 12.8-5.4 30.9.1 42.3 6Zm-45.8-12.1 6-2.2c-2.7-2.6-2.9-5.4-3.1-9.3-8.2 9.2-17 16-27.4 23.3 7-1.2 13.8-2.7 21.3-2.7-2-3.6-.8-7.7 3.2-9.1m61.7 1.7c-2.4-2.6-4.7-2.3-6.9-.7-9.1 6.8-6.5 16.1-4.5 15.1 1.2-.6-1.3-12 11.4-14.4Zm-1.4 1.6c-6.2 1.7-10.3 9.7-6 15.5.3-6.2 1.4-11 6-15.5m43.4 25-2.1-4.9c-3.4-8-13.5-3.9-19.6-7 3.9-.4 14.4.5 14.5-5.4 0-1.5-.6-4.1-2.7-4.2-1.7 0-3.4 1.3-5.1 1.5-8 .9-15-2.3-22.4-3.8-4.4-.6-7.4 5.9-8.5 9.2 5 2.2 17.9 9.4 17.4 15.5-.8-.4-.2-1.4-1.3-1.5.9 2.1-.9 4.6 0 6.1s4.1 1 5.4.4c1.4-.8 2-3.1 1.4-5l-1.9-6.3c.7 1.1 2.2 1 3 1.8 7 7.3 13 6 21.9 3.6Zm130.6 23c-.8-2-2.5-2.3-4.2-2.3-7.4 0-14.2-1.3-21.5-2.6-37.6-6.5-75.4-18.1-108.2-38.5q-.6 2.2.3 4.7c32.9 20.5 69.1 31 107.1 36.8 6 1 11.6 1.6 17.5 3zM506.8 266c-2.6-.8-5-2-8.2-1.6-.1 1.5 1.7.5 1.3 1.6-23-7.1-46.7-7.6-70.2-.9 11.2-6 23.5-7.2 36.3-7.3q20.2 1.1 39.4 6 8.9 2.4 12.9 10.4c.7 1.4 2.3 2.4 2 4.2-.3 1.4-.3 3.4-2.4 3.6-.4-1.7 0-3.7-1.4-4.8-2.3-2-5.7-.7-7 1.2-1.8 2.6-.8 6 1.6 7.7 4 3 9 1.9 12.2-1.5 3-3.2 3.5-8 .8-12.4a31 31 0 0 0-14.8-11 114 114 0 0 0-43.4-7.4c-17.2-.1-33.9 3.1-49 11.2-4.7 2.6-9 6-10.9 11-1.5 3.8-1 8 1.9 10.6s6.9 3 10.5 1.4 6-5.4 3.8-9.1c-1-1.7-3-1.8-5-1.8-1.4 0-2.4 1.5-4.3 2.4-.5-3.3 2.6-4.5 4.5-5.3 2.7-1.2 5.3.9 7.4 1.5 20.8-11.9 61.8-12.9 81.7.4 2.1-2.4 4.3-3 7.2-3.6-1.2-2.4-2.7-4.6-5-5.5-.4.7 0 1.4-.2 1.5 0 0-4.7-1.7-1.7-2.5m295.9 141.2c1.2 3 7.2 3.1 9.5 1.5 2.5-1.8 4.1-4.9 3.3-8q-2.2 3.2-4.5 3.8-3.4.8-5.8-1.3c-.5-.5-.2-1.3.2-1.4 2.8-.9 4.6 3.7 10.1-5.1-.8-6.9-4.5-12.9-9.3-17.8s-10.5-7.5-16-11.8c16 3.7 30.8 18.3 29.7 35.8a12 12 0 0 0 14.8-5c2.4-4 3-12.7-2.7-14.8-4.7-1.8-9.2 6.4-8.4 10.5.5 2.4.6 3.6.3 5.6-3.4-3.4-3.8-8-2.3-12 1.3-3.8 4.3-6.6 8.6-7.3-10.3-8-24.3-6.8-34.1-15q10 3.1 20.5 5.2a37 37 0 0 1 15.4 7c-.2-6.1-4.8-11-10.5-11.7l-18.7-2.4c-3.4-.5-6-1.4-9.6-1.2-8.1.4-16-2.6-21.5-8.3s-5.4-13.4.5-18.5a22 22 0 0 0-7.6-8.1 74 74 0 0 0-39.3-13.2c-3.7 0-14.2 8-18-.9-2.9 0-8.4.6-9.2-2.6-.3-1.2.7-2 1-4.2a38 38 0 0 1-34.4-2.2c-4.2-2.7-6.7-6.6-6.2-11.6-33.5-5.9-68.6-16.3-96.7-35.8q-1.3-.6-2-.2c-.4.2-1 1.4-.6 1.6 7.7 2.8 6.5 8.4 10.6 13.8.2.3.3 1 .3 1.2 0 .3-.4.8-.8.7-8.5-1.7-12.5 5-23.4-1q-1.3 2.4-1.5 4.4c9.3 3.2 18 5.9 27 9.7a440 440 0 0 1 65 34c2.6-2.7 5.3-4.5 9-5 10.9-1.2 21.1 4.7 25.9 14.7 1.2 2.6 1.8 5.2 3 7.5 2-2.3 2.3-6.7 6.7-6.5s5 6 6.5 6c10-1 5.5 8.4 12.5 15 12.7 12 33.2 23.2 51.5 20.3-1.4-6 1.8-11.3 7.5-13.7 6.2-2.8 13.1-1.2 18.8 2 9.5 5.2 11.6 15 8.8 25-1.1 4 0 8-4 11.3-2.6 2.2-3 6.8-1.5 10s4.8 5 7.8 5.2c3.4.4 7-.8 9-3.7 1-1.7 1.2-4 .6-6-1.4 2.4-3.3 4.5-5.4 5-3.4.9-9.9.3-9.5-4.3 3.3 1.8 6.5 3 10 1.4 2-1 5.2-3.6 5.3-6.8.3-8.3-3.4-15.5-8.5-21.7-1.2-1.3-2.6-2.5-2.1-4.3 12 7.9 16.4 21.2 14.4 35.2ZM530 275c7.5-6-6-15.6-11.3-17.4-1.3 1.5-.6 4.1 1.4 5.3 4.7 2.6 7.6 7 9.9 12.1m-144.4-1.7 19.8-7.8c-1.8-1.2-9.5-2-9.3-4.2q7 .4 13.1 2.4c1.5-1 3-1.3 4.4-2.7a55 55 0 0 0-24.5-1.2c-11.8 1.7-10.1 11.6-16.6 17.4 2.8-.5 6-1 8.6-2.8 3-2.2 3.5-6 3.8-10 .4.8 1.5.9 2.2 1.1 1 2.5-1.3 5-1.5 7.8m106 4.5c-18-5-36.2-4.2-53.4 1.5-1.8.6-3.5 1.3-5.4.8q9.4-4.3 19.3-5.6l10.6-1.5c10.3-1.5 36.2 2 40 6.8.4.5 1.2-.2 1.3-.7-2-2-4.8-3.2-7.6-4.2-20.8-7.2-50-7.3-69.6 3.7l3.3 12c15.5-6 31.5-8.2 48.1-7.9 8.5.2 15.9 2.8 24.6 4.4-5.7-4.8-13-5.3-20-6.3a132 132 0 0 0-37.5 1.1c10.3-4.2 20.9-3.9 31.6-4 9.2 0 17.3 2.8 26.2 5.6-2.6-4.3-7.2-4.5-11.5-5.7Zm-95.4 13.6c-1.7-6 1-11 4.4-15.5-6.6 2-13.8 13.5-18.8 12.5 4.8-6 10.6-9.5 16.6-14.4-8.6 1-32 12.6-25.5 24 5 4.7 14.6 2.2 19.5-1 3-2 4.8-3.6 8.1-4.8.3-4 1.1-7.8.5-11.5zm259 54.8c1.4-3.3-.1-5.8-2.1-7.8-12-12.2-36-26.4-51.4-34l-19.7-9.7a293 293 0 0 0-39-16.2c-4.4 1.3-8.1.2-12.4-1.3-.9-.3-1.3 3.1-.4 3.3 6 .8 11.2 2.5 17 4.5 29.3 10 68 29.1 92 48.7 4.6 3.7 8.5 7.6 11.3 12.7q1 1.6 2.5 1.6t2.3-1.8Zm-12.8 9.2c-.7-5.4-5.5-6.6-8.3-9.7l-26.5-19.3a171 171 0 0 1 34.7 23.2c4.6-2-20.6-18.6-22-19.5-2.7-1.9-5.7-3.2-7.8-5.7 10.3 4.4 18.6 11 28 17.3-1.7-3.5-4.8-5.5-7.7-7.7a329 329 0 0 0-101.2-49.3q-.3 3 2.5 3.7c13.7 3.6 27 7.9 39 15.5-13.3-4.7-25.4-10.4-39-13.5-2-.5-1.9 2.4-1.8 2.5 20.4 5.2 32.3 10 50.3 20.3-5.6-1.4-10.2-4-15.3-6.3q-16.6-7.6-34.3-12-1.2-.2-1.5.6c-.2.4-.1 1.5.7 1.7a325 325 0 0 1 110.2 58.2Zm-115.4-60c2.6-2.2 2.1-6.8.8-10-5 6.8-13.7 7.8-20.6 2.5-.7 3.7.5 7 2.8 8.6 6 4.5 14.7.9 17-1m-103-2c-5.3 4.8-12 4-18.1 1.5 2.2 4.2 6.5 5.6 11 5.2 3-.2 5.7-1.7 7.1-3.8 1.8-2.4 2.5-5.3 1.1-8.3-6 5.5-14.5 6-20.4.8-.1 3.6 3.2 4.8 6 5.8 4.5 1.5 8.2-.8 13.3-1.1m367 43.2c1.5 3.3 3.8 5.9 2 10.3 5-1 7-5.7 5.6-10.2a30 30 0 0 0-13.9-17q-19.6-11.8-42.6-15c-8-1.1-15.5 0-24 .6 6.9-3.6 14.2-2.6 22.2-3.7a125 125 0 0 0-61.3-3c-15.7 3.3-14.6-5.7-16.3-5.5-2.8.3.4 6 3.3 8a36 36 0 0 0 33 2.3 32 32 0 0 1 14.3-3.1c-5 2.6-10.1 3.8-12 9.3 7.5 2.3 11.5-5 16.7-3.2-1.1 1.7-9.5 4.9-6.5 6.8 5 3.3 10-6.2 25.2-6 14.7.3 28.9 5 41 12.8a36 36 0 0 1 13.3 16.6Zm-112.4-41.2a44 44 0 0 0-12.4-1.5c3.8 3.6 8.6 2.7 12.4 1.5m67.7 17.7c5.6 0 10.1 1.9 14.8 3.4a35 35 0 0 1 18.5 13.1c1.5 2.4 3.1 4.5 6.4 3.8-6.9-15.8-39-26.2-54.4-23 15.5 3.5 32.8 8.2 42.4 20.8a4 4 0 0 0 2 2c.4.2 2.3 0 2.2-.6-1.7-4.8-5.8-7.5-9.7-10.2-6.9-4.9-14.3-7.7-22.2-9.3m-45.9 56.7c-6.4-5.7-12-12.3-12.8-21 9.4 25.9 43.7 42.6 70.5 38.7 5.5-.8 11-3.3 12.9-9.2-3.7 3.5-8 1.7-12 2.2-5 .6-9.4 2.7-15 2.5-17.2-.7-33.5-8-44.8-21-10.2-11.7-5-21.2-9.9-20.8-4.5.5-2.8 10-3.1 13.4-6.3-9.4 1.7-16-5.3-19.8-6.4 3.4-1.7 15.1 0 19-5.3-5-7.8-11.6-10-18-3.4-10-10.7-17.1-21.5-17.6a13 13 0 0 0-10.5 3.9c2.4 1.6 4 3.6 6.4 4.2 1 .3 1.5-1.7 1.4-3 1 0 2 1.5 2.4 2.4.4 1.1-.3 2.1-1.2 3.3a50 50 0 0 1 14.8 15.3c11.9 16.7 39 34.2 57.6 42.7 16.3 7.3 42.8 14.8 57.8 2.1a14.7 14.7 0 0 0 2.5-20.8 19 19 0 0 0-15.3-7.2c-4.8 0-10.1 3.2-10.1 8.3 0 5.5 6.4 8.9 11.1 7.3 3.6-1.2 3.9-4.4 2.9-7.8 4.9 1.6 5.8 7.6 3.8 11.8-4.6 10-19.7 11-29.6 9.6a81 81 0 0 1-43-20.5m88.4-30c-4.1-4.8-12.7-4.7-16.1.8-2.3 3.5-.9 8.2 2.1 11.2 7.4 7.2 19.4 9 28.5 3.8 5.3-3 6.7-9.7 4.6-15.2a30 30 0 0 0-12-14.8c2 4.1 5 6.7 6 11 1.2 6-1.6 11.8-7.6 13.4-5.4 1.5-14.5.1-14.1-5.5 2.2.3 6 4.6 8.8 1.2 1.1-1.3 1.4-3.8-.2-5.8m-139.4 22.6c-.3-4 0-6.8 1-10-1.4-1.8-2.8-2.9-4.3-4.2-.5 4-1.7 13.8 3.3 14.2m125.7 44.4a42 42 0 0 1-30.4-.2c2.4-.7 4.6.2 7 .5 8 1 15.9.5 23.2-2.7q1.5-.6 1.8-1.4.5-1.3-.5-2.3a40 40 0 0 1-27.1 2.6c10.2 0 19.9-.4 28.3-6.1 1.8-1.3 3.6-3 4.1-5.4-13.5 11.4-31.2 9.1-47 4.7-25.5-7.1-55.6-27-73.2-47-.6 2.4.4 4.6 2 6l14.9 13c2.7 2.4 5.9 4 8 7.1-9.3-4.5-16.3-11.5-24.2-18.6-1.3 2.1.3 3.8 2 5.3 10.3 9.2 21.3 16.7 32.4 25.3-13.3-6.1-24.2-15.8-35.1-24.7-.5.4-.6 1.5 0 2 25.6 22.6 53.4 42.5 88 47.7a41 41 0 0 0 26.7-3.8q1.2-.6.8-1.6-.3-.7-1.7-.4m-118-55.4c-.8-1-2.7 1.3-2.3 2.7 1 3.1-.6 6.5.2 9.7 3.5 1.6 4.1-10 2.2-12.4Zm144.8 8.9c7.7 1.8 12.7 0 21.4 1.6.9-6.7-5.3-10.8-11.4-10.8-1 2.4-2.4 3.8-3.9 6 2.5.2 10-.1 9-2.2 1.9.5 3.5 2.3 3.7 4.1-1-1.2-19-.1-18.7 1.3Zm-150.9-6 .8 9.7s3.7-19.4-.8-9.7m99.4 21.5c-10 1.6-19.2-.5-28.2-4.4-8.1-3.2-14.4-8.8-22-13.6 10.1 15.1 37 26.9 54.2 20.4.8-.4-.6-1.8-1-2.3q-1.1-.6-3-.1"/><path d="M388 253.8c-53.1 18.7-113.6 18-168.7 8.9-29.7-5-58.3-12.8-86-24.3-17.4-7.1-33-16-48-27.1Q69.3 199.6 58 183.5c-5.7-8-9.7-16.3-12.4-25.9-7.8-27.6 1.5-53.4 19.1-75 21.3-26 52.5-43.8 84.2-54 14.5-4.7 28.8-8.4 44-10.7a315 315 0 0 1 188.9 33.5 228 228 0 0 1 57.4 41.8c12 12 21 25.6 26.6 41.6 11.2 31.4.1 62.3-22.3 85.2a149 149 0 0 1-55.5 33.8Zm13-9.4q22.5-10.3 40-27.5c8.1-8.2 14-17.4 18.7-27.9a71 71 0 0 0 2.6-52c-12-37-49-64.6-82.3-82.2a318 318 0 0 0-140.3-36.2Q190 17.4 143.8 34C107 47.5 70 71.4 53.5 108.2c-16.2 36-.8 71.2 27.7 95q21.7 17.8 47.4 29c20.4 9 41 16 62.8 21a449 449 0 0 0 93.1 12c38.3.8 81.7-4.7 116.4-20.8"/><path d="M322.4 284.5a326 326 0 0 1-62.5 2c-36-2.8-71.4-9.2-105.7-21.9 62.2 17.8 120.9 27.3 186 15.2 4.5-2 7.6-4.9 11.2-8a38 38 0 0 1 25.4-10.8c-11.8 6.6-12.1 3-24 12.9-11.6 9.6-15.1 8.6-30.5 10.6M468.2 129c-2.7-2.6-3.7-6.4-5.6-10-21.8-39.3-72.9-68.9-113.8-84.7-12.3-4.7-24.3-8-37-12.2 4-.4 7.5.5 11.8 1.7 32.1 9.1 62.5 23 90.2 41.9 21.5 14.7 45.5 37.5 54.4 63.3ZM41.4 121.3c4.8-36.5 39.8-65.4 70.2-81.6 15-8 30.5-13.6 46.8-18 5.6-1.5 10.7-4 16.6-3.2a297 297 0 0 0-65.2 23.9C93.4 52 78.8 63.2 66 77a105 105 0 0 0-24.6 44.2M473.2 178.3c-6.8 34.7-42.8 66.7-74.7 76.4 1.7-1.5 3.2-2.2 5-3 36-16.5 69.1-49.6 70.2-91.2 1.7 6.1.7 11.9-.5 17.8ZM130 242.4a187 187 0 0 1-48.4-26.7 135 135 0 0 1-27.4-27c-1.6-2.2-2-4.8-3.4-6.9-2.7-3.8-5.4-7-6.5-11.8-.5-2-2.4-4-1.5-6.6l7 15.7c1 2 2.4 3 3.7 4.7a138 138 0 0 0 31.7 31.8c11.2 8 22.7 14.7 35 21q5.3 2.4 9.8 5.8"/><path d="M247.2 272.3a330 330 0 0 1-93.1-20.6c-3.3-1.2-6.5-2-8.7-4.6a386 386 0 0 0 92.3 22.4c3.2 1.4 7-.7 9.5 2.8M418.5 255c2.3-2.4 5-4 7.8-5.7 7.3-4.4 13.4-9.4 19.8-15 14.9-12.7 25-28.2 33.1-46.6a81 81 0 0 1-19.8 36.8A141 141 0 0 1 426 252c-2.3 1.5-4.3 3-7.5 3M91.5 235.6c-21-9.4-54.8-40.8-58.9-65.3 14.8 30.2 31.3 46 59 65.3M277.5 274.4c-2.5-.3-4.5-.2-6.6-1.1 23.9-.4 50.6-.6 74-6.1-1.6 2.4-4.2 1.6-6.3 2.8a279 279 0 0 1-61 4.4M279.9 16.3a309 309 0 0 0-54-3.4c-4.3.2-8.3 1.2-12.3.2-2.6-.5 14.5-1.7 11.2-1.6q27.8-.6 55.6 3.5c1 .6.7 1.5-.5 1.3M307.9 20.8c-6.4-1-12.4-1.6-18.7-3.7 6.4-.5 12.7 1.1 18.7 3.7M481.7 181.2c-.6-3 .2-5.5 1.6-8 .6 2.7.5 5.4-1.6 8M262.6 273.3c-3.2 0-5 1-7.5-.8 2.7-.7 5.3-.1 7.5.8M765 353.5c-16 2.1-12.5 9.4-22.8 10.2-12.5 2.8-41.2-17.9-46-28.2 2.2.9 3.3 2.5 4.8 4 9.8 9.7 25.5 21 39.7 22.5 11.2 1.2 11-13.1 24.2-8.5M758 333.9c2 1.9 4 3.8 3.5 6.5-10.3-12.7-28.3-17.8-44-18.2-7.8 0-15.4-.3-22.6-3.3 23 2.2 44.1-1.8 63 15M625.9 309.6c2.1 1.6 5 2.5 6.1 5.3a475 475 0 0 0-67.5-34c10.9 1.9 19.9 7.2 29.7 11.3a254 254 0 0 1 31.7 17.4"/><path d="M746.6 367c-12.4 7.7-35.7-8.7-44.5-17q-2-2-2.8-5c13 11.4 29.2 23.8 47.3 22M751.4 322.5c3.8 1.6 15.4 8.3 14.3 13.7a52 52 0 0 0-28-16c-5.9-1.4-11.6-1.5-17.5-3.7a76 76 0 0 1 31.2 6M690 335.5c-5-5-7.5-9.8-14.6-5.8-6.5-14.8-16.2-17.3-31.7-17.3 11.3-4.6 28.4 2.6 32.8 14.6 6.8-2.6 12.6 2.5 13.5 8.5M627.3 289.3a122 122 0 0 1-19.8-5.7c-12.3-4.6-24.5-9-35.4-17.1 17.8 8.7 36 16.6 55.5 21.6 1 .7 1.2 1-.3 1.2M616 298.7c4.2 2.4 8.4 4.2 11.3 8.6a391 391 0 0 0-51-25.9c14.2 3.5 26.9 10.1 39.7 17.3M705.1 315.4c-4.3 2.4-10.4 1.2-12.8-4-9 2.8-33 .8-36.5-10.8 10.2 11.7 24.3 11 37.7 10.2 2.7 1.9 6.2 5 11.6 4.6M749 354.2c-.2 2.3-2.7 3-4.7 3.6-5.4 1.2-10.7 0-15.6-2.5a50 50 0 0 1-16-10.6c10.7 4.5 23.4 16.3 36.3 9.5M812.1 397.3c-2-1.7-2.5-4.2-3.4-6.7a50 50 0 0 0-11.8-16.3c7.1 1.6 16 15.4 15.2 23M828.6 371.5l-19.4-5.3c6.6-1.6 14.1 0 19.4 5.3M652.2 293.2a43 43 0 0 1-17.3-2.8c6 0 11.4 1.2 17.3 2.8M638 312.2q-3 .4-4-2 2.8-.4 4 2M676.6 353.9c-8.2-5.4-14.5-16.9-21.6-26.3-.6-.7 0-2.1-.9-2.6l-7-3.8c5.7-1 10.4 3 13 8 4.7 8.7 10 16.1 16.5 24.7ZM687.8 302.3c-4 0-7.5.6-11.3-.3l16.5-2.7c4.8-.8 9.5-2 14.4-.6zM442.8 283c-1.2.7-2.4 1.5-4.2.8 1.2-.7 2.4-1.6 4.2-.9M478.8 237.3c5.7 1 20 4.5 23 9.9a91 91 0 0 0-24.2-9c-3-.7-6-2.1-6.7-5.3a13 13 0 0 0 7.8 4.4M561.5 268.7c-10.5 4.5-17.6-7-25.8-9l2 3c-2.2-.5-4-2.4-4.2-5.4 13.6 3.6 14.8 10.6 28 11.4M554 250.3c-3.9 6.4-17.3 3.4-23.6.6-2-.9-4.5-.4-6-2.4 11 1.2 17.3 6.6 29.7 1.8M391.2 294.2c-6 4.1-13.9 3.5-18.7-1a17 17 0 0 0 20.4-3.1c0 1.3-.5 3.3-1.7 4.1M68 47.4c-1.4 5-10.8-2.7-15.4-4.3 5.3.2 9.2 3.1 14.5 5.3l-7.4-7.8zM59.6 54.8c-5.3-.3-10.4-.7-15.7 0q7.7-2.7 15.7 0M794 400.5c-1.4 0-1.3-1.8-1-2.9 1.3-6-1.2-11-3.2-17 5.8 4.6 7 12.7 4.2 20M266 250.8c-9 5.3-20.5 6.5-29.4-.3 13.5-3.9 26.8-7.7 36.7-17.9-17.3 8.3-34 14.1-52.8 15.3-16.8 1-38.2-1-50.5-13.4-2.8.4-5.7 1.1-8.3-.2-2-1.2 3.6-7.2 1-10.3-3.3-4-7.2-6.9-10.2-11a39 39 0 0 1-8.2-27.8c-1.7.2-2.8 1.8-4.2 1-.8-.4 0-3-1.2-3.5-1.2-.3-3.5.6-4.5 1.5s.1 3.7 1 4.6c2.1 2.2 6.2 1.7 7.2 2.3 1.2.7-1 1.5-1 2 .2 2.8.7 5.6.3 8.5-1.6 9.7 5 17.8 14.4 20q1.3.1 1.9 1c1.1 2.2-5.5 7-15.3 4.7-5.7-1.3-10-5-12-10.6-2.3 1.5-5 2.5-7.7 1.5-2-.7-3-3-2.6-5l1-6.4c-2.8 1.6-14.6 6-16 3.7-1.2-2 2-6 3.8-8.7-8.2.6-17.9.4-24-7-2.5-2.9-3.5-6.6-2-10.3 18.3 14.3 40.1 3.2 43.8 4.3q.4 0 .3.6-.2.4-.9.8c-12.4 4.1-28.6 6.3-40.5-1.3 2.4 11.8 19.9 12.6 26.8 9.4 5-2.4 9.7-5.9 15.6-6.2 0-3 1.2-5 3.5-7.5-21.1 5-51.4 4.8-66.4-14.1-9-11.4 1.4-20-2.6-19.1l1.3-.3c7.9-1.6 15.9-11 26-11.8-11-4.5-17.7 1.3-25.2 9.3.4-5 5-6.5 8.5-9.8-2.7-.5-6.1-1-8.6 0-5.2 2-6.2 9.4-3.6 13.6 1.1-.6 2-.6 1.2.1-1.2.8-1.8 1.4-2.7 1.3-4-.4-4.3-10.8.1-14.7-2-1.3-4.2-.7-6.4-1.4-.8-.4-.4-2.2 0-3 2.5-4.3 7-5.5 12.4-6.2-4.5-2.8-8.8-6-9-11.4 0-1.6.2-3.2 1-4 1-1 2.8-1.2 4.2-.6l6.4 2.6C63 96.5 75.7 84.8 90 76c2.1-1.3 4.5-3 4.3-5.6L89.5 68c2.6-4 7.6-4.5 11.6-3.2s5.3 4.8 4.2 8.6c4.3 3.9 7.2-4.3 21.3.7 10 3.6 7.2 4.2 14.9 9.9-1.8 1.1-3.9 1.2-6.2 1.7-17 3.1-39.6 11.3-46.5 28.6-.8 2-.8 4.6-3.6 5-3.5.6-7.8-1.6-8.9-5.2-4.7-14.7 10.3-34.4 25.3-34.2-1.8 2-4.3 2-4.8 4.6 3.9 3.7 11 1.9 13-3 1.7-4.3-8.4-9.5-20.5-1.6a42 42 0 0 0-17 18.5c-4 9.7-1 20 6.7 26.4 5.5-1.7 10-.5 15.2.8.7-3.3 1.8-6.8.1-10-1.6.1-1.6 2-3.4 2.4.2-6 4.3-11.1 9.1-15a66 66 0 0 1 47.7-14.1c-1.3-2.6-3-5.7-1-7.1 2.5-1.7 5.9-.2 9-1-3.7-5.1-3.3-11.6-.2-17.2 5.5-9.7 17.3-14.4 27.7-18 1.3-.4 2.8-.5 3.2-2.2-16.2 4.3-34.6 11-38.2 29.4-.4 2-1.7 5.1-3.4 6-8.8-1.6-22.2-6.2-21.3-17.1-5.3 1.7-10 2.3-14.6.5a5 5 0 0 1-3.3-5.4c.2-1.5 2.8-4 4.8-3s3.5 2.5 6.3 1.8c9.2-2.3 9.6-7 18.8-11.9a94 94 0 0 1 46.7-11.3c.9 0 1.4-1 1.3-1.5s-.4-1-1-2c8-4.3 16.8-5 24.6.1 1.8-5 8-8.5 12.7-6.6 1.7.7 2.6 3.2 5.1 1.8 6.6-3.6 13.7-1 20.5-1 13.5-.1 27 2.5 37.3 11.9a24 24 0 0 1 8.9 17.3c1-2.2 2.3-4.2 2.3-6.1 0-8.8-6-14.9-14.9-16.2 6.6-4 20.2-1.2 23.8 6q2.5-2.6 5.6-2.4c3.1.2 2.6 3.4 4 4 3.5.4 7.5-2.8 10.8-1.2 1.7.8.6 4 .2 5.6 6.6-.2 24.5-.3 25.6 8.2.7 5.5-6-.5-11.4-1.4a37 37 0 0 0-19.7 1.2c10.4-.2 20 1.4 29.8 4.1 4.4 1.2 8.6 1.2 11.7-1.7 3.4-3.1 5.3 2.1 7.2 2.8 8 2.8 15.9 5 22.2 10.7 8.9 8 13.9 18.5 12 30.6l-2.1 14.3c5-8.8 7.9-17.9 4.4-28.4 8.2 1.7 15.4 8.1 14.2 16.5 1.9 1.2 6 1.5 7 4.5 3.3-.2 8.7-1.6 10.5 0s.2 8.7 2.8 10.3c2.1 1.2 5.4-.1 7.5 1.8.6 3.8-2 7-5.9 9.5 7.4 1.3 13.3 6.5 14 14.6a42 42 0 0 1-20.7-2.3c-19.9-6.3-21.9 4.5-26.7-1.2a8 8 0 0 0-6-2.3l-10.2.2c1 1.1 2 1.1 3.5 1.6-.8.9-1.5 1.6-1.4 3.4 5-3.4 9.5-2 14.3-.5 4.6 1.4 22-3.4 38.9 7.8a31 31 0 0 1 14.7 22.4 25 25 0 0 1-12.8 24.4c-13.7 8-29.8 8-44.2 1.5-3.7-1.7-6.2-4.7-9.6-6.8-6.5-4-13.4-7-19.1-12.3-5.9-5.4-19-14-27.6-14.7-2.8-.1-8.4 3.3-8.2 6.6.4 5.8 6.4 9.4 11.3 11 10 3.1 23.5 2.8 31.3 10.2-20.3-9.3-47.5-8-68.7-4.2-17.3 3.2-37.7 10.8-53 11.8-2.6.2-5 .9-6.3 3.1 9.1-.3 17.5-2.4 26-5l15.2-4.7c8-2.5 16-4.4 24.9-4.4-2.7 1.4-5.5.8-8.5 1.6-12 3.3-24 6.1-35.7 10.6-8.3 3.2-16.5 2-24.6 4-11.3 2.7-22 9.3-34.4 5.7 17-1 36.6-6.7 46.6-22 2.4-3.5 4-8.2 1.8-12.2-4-7.4-14-9.3-20.7-4.8-2.2 1.5-3.3 4.3-1.8 6.3 4.9 6.4 12.7-4 13 4 .7 16.3-24.6 25.2-37.4 25.3 1.1-2.5 2.4-3.6 2-5-.2-1.1-1.4-3.2-3-3-8.5 11.3-25.3 6.5-35.6 0a45 45 0 0 1-13.3-13.2c-1.6-2.3-3.8-4.2-3.2-7.7q-1.4.5-1.4 1.3a39 39 0 0 0 12.3 18.5 70 70 0 0 0 49.7 16.8A136 136 0 0 0 264 205l29.3-9.5c27.7-9 53.1-13.2 81.4-4.8 2.8.8 5.6-1.2 8-.7l7 1.6c9 2 17.8 6.8 21.7 15.3s2.5 18.3-3.5 25.5c-19 22.8-70.7 20.6-85-8.5-1.4 5 1.2 9.2 4.7 11.9l7.3 5.6c3.6 2.8 7 8 5.5 12.8-1.4 2.6-6 2.3-8.7 2.5a22 22 0 0 1-18.9-8.2c-13.6 8.4-7.9 7.1-10.4 9.6-2.1 2.2-6.1-1.3-6.9-4a32 32 0 0 1-15 5.5c-4.8.3-4.3-4.5-5.1-8.1-3 .7-6 1.2-9.4-.6Zm-47.3-218c1.1 1.2 3.2 1.7 4.2 0q-3.2-.7-4.4-2.7c-1.3-2-.7-4-.8-6.5-4.3.3-9.5 4.5-8.2 8.7q2.3 1.5 4.7 1.7l.8-5.2zm20.5-7c-5.6-2.1-12.3-1-17.5 1.7-.6-.5-1.2-1.4-1.6-1.1-1.3.8 1.1 4.4 2.8 4.9-.3-.1 12.7-5.8 16.3-5.5Zm-.8 10q-.6 2 .8 2.4c2.7.6 1.1-6.2 12.6-7.2 8.9-.7 17.8 2.5 24.7 8.2 4.4 3.7 9.2 11.9 5.3 17.1 2.2-.3 3.9-.2 5.9-1.1 2.5-19.5-22.6-31.2-39.5-29.3-8.7 1-21.5 8-18.2 15.9 2 4.9 11.2 5.4 15.3 2q1.3-1 1-2.6c-.8-3.3-7.4-.5-7.8-.5-2 0-2.4-2.5-2.3-3.7.3-4.5 6-6.5 10.1-8 0 2.4-6.1 1.5-8 6.7M216 40c.6-.7-.5-1.6-.7-2.7-.2-.8-1.5-.4-2.3-.9a61 61 0 0 0-23.4-6.2c6.7-1.5 12.6.9 18.5 1.6-6.5-5-14.8-4.8-21.7-2.4.3 1.5-.1 2.2-1.5 2.9l12.3 2c.2-1-.5-2.2-.2-2s1.7-.1 2 0c5.2 3.4 10.4 6 17 7.7m11 2.5q-1-5.4 2-9c1.5-2.4 4-3.5 5.7-5.6-4 1-7.2 3.2-10.5 5.7-1.2 3.4-.4 7 2.8 9Zm74.2 2.3c-.3-3-.5-6.6-2.6-9.4-2.5-3.4-6.9-5.3-11.6-4.7 6.2 3.3 9.8 8.9 9 15.9q4-.8 7.4 0c.5-3.4 8.7-7.6 4.2-10.4-3.2-2-5.7 6-6.4 8.6Zm-34.5-3.3c1.7-.9 3.5-.1 4.6.6 1.8 1.3.4 3.3.6 5 .2 1.3 1.8 2.6.6 4.3-1.2 1.8-3.3 3-4.4 5-1.1 2.3 10 .6 10.8.4 2.1-4 .6-8.5-1.8-12-4.8-7-12.5-9.5-20.6-11.2-4.8-1-10-1.2-13.3 3.8 2.7.2 5 1 5.5 2.5q1.2 3.5-1.6 5.7c-3 2.1-6.3 2.1-10 2.8 5.2 5.1 4.5 11.2.4 16.3l11.6-9.6c2.8-2.3 11.7-8.8 9.7-13.5-1.8-4.2-6.2-2.3-9-3.3 12.9-5.9 12.2 5.4 16.9 3.2ZM191 40.4c0 2.3-2.9 1.8-3.3 4 4.3 1.7 8.9 2.1 13.5-.2-2.8-2-4-4.7-4.8-7.5-19-6.2-53 1.2-67.3 15.5-1.6 1.6-2.5 3.7-1.8 5.7 1.4 4.3 9.6 5.4 14.3 1.4 1.3-1.1 2.2-3.2.7-4.7s-3.7-1.4-5.6-.8c-1.3.4-2.2 2.4-3.1 3.5-1.6-.2-1.8-3.2-.4-4.5 21.7-19.4 57.7-18.4 57.8-12.4m30-5c-.3-.7-2.2-.3-2.5.3s-1 1.2-.6 2.1c.7 1.9 2.6 3.5 4.6 3.3-1-2.1-.8-3.9-1.5-5.7Zm-8.4 22.3c3.6 1.9 7.2 2 10.7 2.4-1.3 1.2-3 .4-3.6 2 2.2.6 4.4.7 5.6 2.1s1 3 1.4 5.4c2.3-1.7 5-2.2 7.3-3.7 3.2-2.1 4.6-6 4.1-9.7-1.1-8.5-14.2-11.6-21.7-13.6q-8.6-2.3-16.8-6c3 13.4 18.2 7.5 26.4 11.3q-6 .8-12.3-.1l-11-1.7c-4.5-.7-9.1 2.3-14.4.7 12.6 9.5 28 3 36.3 4.2 4.3.6 8.3 3.6 7.4 8.3-3-6.4-14.2-4.7-19.4-1.6m-69.3 9.5c0-1.5-2.2-.8-2.6-1.7 2.6-1 4.4.3 7 .7 6.3-13.5 19-18.5 32.3-22.9 2.8-.9 5.5-1.3 8-3.1-10.9-5.6-40.5 2.5-49 10.6 2.3 1 4.2.8 5.6 2 1 .8 2.4 2.8 1.7 4.5-2 5.2-7.6 6.6-13.4 6.6 1.8 4.4 10.4 7.3 10.4 3.3Zm202.6-16.9c-.1-2.5-2-3.3-3.7-4a34 34 0 0 0-20.7-1.5c-3.1.9-5.5 3.6-9 3.3 3.7-2.2 8-4.5 8.4-9.7-6 .5-12.4 3.2-15 8.7-.5 1 1.3 3.1 0 4.2 3.7 0 6.4-1.5 9.8-2.5 9.6-2.9 21.2-3.7 30.2 1.5m-75.4-.4c-2.4-1.5-4 .9-6.4.1 2-1.3 6.2-3.4 5.2-6.3-5.2-2.2-9 6.4-13.3 9.3-3 2.2-6 4-8.7 6.6 11-5.4 18-1.2 23.2-9.7m67.2 122.9a7 7 0 0 1-1-8.7c1-2 3.5-3.2 6.7-4.5l-15.2-2.7c5-.7 9.5 1.2 14.3 1.4 8 .3 14.5 3.3 21.7 8a31 31 0 0 0-25.8-13c-5 .2-9.6 2-14.3 1 1.6-1 3.3-.2 4.2-1.5-2.5-1.5-5-2.5-6.8-4.5-4.4-5-3.1-12 1.8-16.6a19 19 0 0 1 23.7-1.5c2.7 2 4.5 6 2.4 8.7-3 3.7-8.7 4.3-12.7 2.4-2-1-2.5-3.8-1-5.1 1-1 2.5-1 3.3-2.2-4.2-1.8-10.3-.4-12.7 3.7-3 5 .3 10.6 4.6 13.4 2.4 1.5 3.9 1.6 6.6.7 12.1-3.9 14.3 2.5 16.9 3.4 3.3 1.2 4.8 4.4 8.2 6.2a113 113 0 0 1-10-35.2 45 45 0 0 0-4.1-15.4 31 31 0 0 1-27.9 10.5c-5.8-1-13.7-4.9-13.2-11.2s10.8-8.2 16.8-5.7q-1-4.6-4-7.3A66 66 0 0 0 280.5 83c-4.4 0-9-.9-13.2.5a99 99 0 0 1-23.3 5.2c-3.5.2-17 .6-17.6-4.3 7.6 2.7 14.9 3 22.2 1.8-4.5-1.8-8.4.8-12.5-1.5 4-.2 13-.2 15-5.8-2-1.9-8.5 1.4-9-1.8 2.4-.7 6 1.2 7.4-.5 1.9-2.4 5-2.6 7-4.5 2.8-2.7 4-6.3 8.1-7.7q4.7-1.7 9.2-4.4c-13.2.3-13.8 3.5-25.2 7.5.4-3 3-2.4 5.3-4.2-8.2.3-32.6 8-34.6 17.8-.7 3 1.6 5.4 4.2 6.6 9.9 4.7 20.4 3.2 32.2 1.2a46 46 0 0 1-33.3 1c-3.2-1-5.2-3.5-7.3-6.6-7.7 4-15.9 4-23-.6a8 8 0 0 1-3.7-6c-1.2-.4-2.3.3-3.4-.9 3.4-.2 13.4-4 11.4-8.4q-.6-1.8-3.3-2.2c-6.9-.3-15 4.7-14.6 12.4s6.7 13.2 13 16.9a58 58 0 0 0 36.6 6.4c25.6-3.2 37.3-18.3 56.6-16.7 4.8.4 9.7 1 12.4 5.3 2.5-.9 9.4-1.8 8.2 1.2-.3.7-11.3-.8-12.9 3.9 5.4-2.1 10.3-3.2 15.8-1.6 2.8.8 5.9 1.8 6.5 5.2-12.4-9.4-25-.7-22.4 1.7l3.5 3.4c-2.8.4-5.3-.8-7-2.5-2-1.8-1.9-4.9-.1-7.2-6.5-4-5.1-2.2-13-.1 1.4 5.2-1.6 9-5.8 11.5-6 3.6-13.1 4.7-19.3 1.1q-4.2-2.3-2.8-7.4c-20.5 7.9-47.2 8-64.5-6.3-6.2-5.1-11.3-16-4.8-22.8-4.8-2-13 1.4-13-1.8 0-.8.1-2.8 1.2-3 2.6-.5 3.1-2.3 4.4-3.8 3.2-3.6 8.3-3.2 12.1-4.4 2.8-.9 6-2.8 8.2.7l-2.3 6.1c3.3-.5 6 .7 9 1.1s6.1-1.1 8.9 1-5.4 2.3-7.3 4.4a20 20 0 0 1-8.2 6.2c2.4 9.2 17.7 9.7 23.6 3.9 2.8-2.8 4-6.4 7.8-8.3 1.6-.9 1.6-3.6 1-5-.4-1.5-2.2-2.5-4.1-2.5-2.5-.1-3.1-2.2-5-2.9l-6-2.3c2.2-4.1 7.2-4.1 11.2-6-10.6 1.7-27.3 2.7-35-6-9.6 3-19.3 7-25.5 15.3-7.2 9.5-2.7 20 .7 19.8.5 0 1-.8 1.5-1.4 1.6-3.2 6.3-5 8.7-2.3-3.4 6.5 1.3 10.2 6 14-6-1.1-11.3-7-9-13.4-1.4.7-3.5 1.6-3.6 3.4-.1 3.5 2.4 6.3 4.9 8-8-3.2-6.5-9.1-20-7 .6 9.2 13.4 6.4 19.6 11-7.5-.8-17-5.1-22.8 1.5 7.2-1.4 16.7-2.1 22.7 2.2a53 53 0 0 0-22-.6c-.7.1-2.1 0-2.3-.6-1-3 2.8-4.7 5.7-6a64 64 0 0 0-45.1 11.7 28 28 0 0 0-9.8 11.2c4.9.3 8.2 2.6 11.6 5.1 10.9 8.2 3.5 17.4 10.7 20.2q-2.4-4.5.3-8.4c1-1.7 3.3-4.3 6-3.5s3.6 4.2 5.4 6.1c5.8-3.5 6.8 4.4 15.8 2 12.4-3.4 8.2-3.6 19-9.2 2.6-1.3 4.9-6 3.1-8.8-2.7-4.3-8.6-6.2-13.4-5.6-3.3.4-5.2 3.2-7.8 4.3-4 1.8-6.3 4-6.9 8.6-1.1 1.2-3.7-.2-4.7-1-1.1-1-.8-3.6-1.5-5-1-1.6-2.9-3.2-3.3-5.1-4.7-1-12.3 4-13.7 1.5-2.1-3.8 1.4-2.6 2.8-9.8.5-2.5 4-2.4 5.5-3.8s2-3.5 3.5-3.7c2-.2 3.8-.9 5.3.4-.4 3 0 5.6 2.4 7.8 18.2-12 66-4.3 69.8 19.5 1 6.8-.5 14.2-4.3 19.9-3.2 4.6-6.6 8.9-6.4 14.8s4.3 10.5 9.8 13q1.2-2.2 1-4.8c-2.2-1.3-5-2.5-5.1-5.6 0-2 1.2-6.1 3.2-7 4.2-1.7 8.6-1.7 12-4.7 2.7-2.3 5.6-5.4 4.2-9.1-1.6-4-7.5-5.6-10.9-3.2-1 .7 0 2 .5 2.3 1.5 1 6-.9 6.5 2.2.3 2.7-2.2 4.7-4 5.7-2.2 1.2-4.7 1.5-6.8 0 3-.8 5.8-1.1 7.7-3.5 3.2-4.4-3.6-.3-6.1-3-.9-1-1.6-3.1-.5-4.3 4.8-5 14.7-1.6 16.4 2.7 3.2 8.3-10.2 17.3-18.8 17.5-1 1.1-1 3.5-.8 5.1l1.4-.7 2.6 4.5a39 39 0 0 1 10.1-5.7c4.2-1.4 11 2 9.8 5.6-3.4-2.6-7.2-3.4-10-1-2.6 2.3-3.2 6-1.2 9.2 4.6 8 16.5 4.2 24.2 1.7-2.8-2.7-2.5-7 .6-9.5 7-5.8 17.7-5.5 24.6.5 8.9 7.8 1.9 19.4-5.1 26.3 10.7-1.3 20-3.7 29.8-6.6a205 205 0 0 1 47.8-8.4c-4.4-2.3-14.3-2.8-17.9-7.1-1.8-2.2-1-5.4-.2-7.7-8.8-3.9-22.3-4.6-28.4 3.4q-1.1 1.5-.6 3.1c.3.8 1 2.2 2.2 2 1.5-3.5 5.4-4.7 8.9-3.6 2 .6 3.8 1.9 4.2 3.5q.7 3.2-1.6 5.4a16 16 0 0 1-19.4.2c-2.7-2.1-3.2-5.6-2.8-8.5 1-7.6 10-9.6 15.8-11.8-5-1.1-16.1 5.4-20.5.5-2.8-3-.8-8.7 3-9.5 0 2.3-2.2 4.5-1.7 6.7.6 2.5 4.6 3 7 2.4a46 46 0 0 1 36.2 4.4c-.9 2.1-2.5 5-1.2 6.6A40 40 0 0 0 342 177c-12.3-4.8-12.8-5.4-20.6-16-1-1.4 0-3.8.5-5 .2 2.6 1 3.8 2.5 5.3 3 3.4 9.3 12.1 13.4 11.6ZM291.4 54c3.6 1.2 5.5-.5 8.3-1 1.4-.1 4.4-1 3.4-3.1-1.3-2.7-6.2-2.4-7.7 0 1.3 1.7 2.1-.1 4-.5-.8 2.4-3.3 3-5.7 2.2-.8.1-2.4 1.5-2.3 2.4m80.9 59.2c3.7.2 2.8 4.2 4 5.2 2.2 1.8 13.4 6.9 12.7 13 .5-.3.6-1.2 1-1 .4.3 1.3 1.2.1.3 2.6-2.3.4-5.4.9-7.1 6.5-18.6 12.6-39-3.3-54.5-6-5.9-13.7-9.2-21.8-11-2.2-.6-3.4-1.6-4.3-4.2-1.5 1.3-2.2 2.7-4 3.1-12.9 3.2-25.4-10.8-64 .1-1 .3-1.2 2.4-1.4 3.2q24.5-6.9 49.7-1.2a76 76 0 0 1 21.6 7.1c4.1 2.3 7.6 5.5 12.8 7.5.8-4-3.1-6.6-6-8.4-5.2-3.4-7.6-1.4-12.9-5.2 9 1.2 17.8 3.5 25.2 8.7 8.9 6.2 13 17 12.4 27.7-.3 8-2.9 15-5.6 21.8-1.8-4.5-15.6-12.1-17.2-5.1ZM123 59.3c1-.7.8-3.1.2-3.6-5 3-10.6 3.6-14.8 0-1 2.2.5 4.1 2.4 4.8a15 15 0 0 0 12.2-1.3m63.7 4.5c1-2.9 1.2-4.3 1.7-6.7-1.3-.3-3 .8-3.1 2q0 2.8 1.4 4.7m79.8-5.7c-3.3.3-3.7-.7-5-.7-4.8 0-9 1.8-13.2 3.7q9.7-1 18.2-3m23-.6c-7.3 1-25.3 6.7-29.6 11.8 4.6-1.4 28.5-7.5 29.5-11.8M349.2 73c.7 1.5 4.7-.9 9.6-.8 4 0 7.4 1.7 11.9 1l-11.8-7c-13-7.6-52.5-10.8-69.5-3.2 4 1.3 8 .4 11.8-.2q17.4-2.2 35 .6c4 .6 14.9 4 15.3 6.9.2 1.2-3 1.3-2.3 2.6Zm-166-13.5c-.4-1.3-2.5-1-3.8-.2 1.8 1.8 3.1 3.8 5.5 5.4.1-2-.9-3.2-1.6-5.2Zm-.2 5.4a51 51 0 0 1-6.3-5c-1.2-.1-2.9 1-4.1 2.1 2 .7 8.5 4.4 10.4 2.9M137 70c-6.8-3.9-2.8-5.4-11.9-8.8-1 6.9 10.3 13.8 16.2 14.4-.3-2.5-2.2-4.4-4.3-5.6m135.5.6c3.3-1 6-6 10.7-2.3 1-2.7 3-3.1 3.6-6.1-9.7 3.6-15.7 5-25 8.1-2.5 3-6.3 3.5-8.7 7.2 5.6-4.5 12.4-4.8 19.4-6.9m102.4 38c2 0 3 .2 4.6 0-2-13.5-8-25-21.3-30.7 4.5-.1 8.1 2.6 11.7 5.8a40 40 0 0 1 11.3 23.1c.3 1.8.8 3.5 3 3.5a40 40 0 0 0-14-29c-11.5-9.8-17.6-4.2-23.3-6.4-1.5-.5-.6-3.6 1.2-4.5-8.7-6.8-30-6.9-40.5-6.1a98 98 0 0 1 43 16.8c25.5 18.6 11.6 53.6 24.5 77.6.1-7.6 1.3-14.4 4.9-20.6.9-1.6 1.6-3 1-4.5-1.8-4.5-6.4-2.3-6.1-6 0-1.1.6-2.2 2.1-2.5l4.5-.9c-2.4-2.1-5.4-2.5-8-4.5.9-3.4-3-4-4-5.6-1.5-2.7 2.9-5.5 5.4-5.5Zm-193.7-41c-3.8-3.9-10.4-5-13.7-.4zm171 38c6 3.8 8.1 19 8.7 25.7.7 7 2.5 13.3 3.9 20-8.1-14.7-4.4-31.4-13-44.6-1.8 1.3-.9 2.6-.3 4 2.8 6 3.8 12.4 4.9 19 4 23.4 12.4 43.5 34.7 55.4-1.4-8.8-7.4-8-14-17.2q-9.6-12.8-11-28.5l-2.4-26.4C362 92.6 350.5 81.8 332.5 74a106 106 0 0 0-41.7-8.7c-1.4 0-2.5 0-2.8 1.3 12.1.3 29.6 2.7 39.4 9.8 3.4 2.5 4.8 7 5.3 10.9 3.7 0 4.8-3.9 6.6-5.5 3.1.5 6.3 4.2 7.3 7.3 1.7 6-.5 12-5 16.2a25 25 0 0 1-18.4 6.4c.1-1.4.9-3.1-.3-4.2-3-2.6-7.5-2.4-10.5-.1q-2 1.6-1.9 4c.1 1.1 1 2.6 2.2 3.7 10 8.9 29.8 3.5 37.2-11.8 3.7-7.7 0-12.4-2.2-18.1 7.3 4.4 7.9 13.3 4.5 20.5ZM387 113c.8-.5.9-1 1.2-1.3q.5-.3.6.3c.1.4 0 .9.6 1.6 4.5-12.2 6-25.8-1.7-37.5-3-4.5-6.6-8.2-11.8-10 1.7 3.6 4 5.8 3.5 9.6-1.7 1-3.7-.5-5.6-.5h-9c15.8 8.4 20.7 21.3 22.2 37.8ZM103 71q.3-2-1.6-3.3c-2.1-1.5-5-2-7.2-.8 1.6 1.4 2.6 2.2 2.7 3.5.1 1.6-.5 2.6-1.2 4.3 3.5-.2 7-.5 7.3-3.8m41.4 5.8c1.3-3 3.2-5.8 1.5-9.6l-4.1 4.6c1.5 1.6 2 2.8 2.6 5M252.7 85A47 47 0 0 0 282 69.1c-3.6-1.2-5.2 1.8-7.4 4-6.2 5.9-14.8 7.8-22 11.8m74.1-6.8c-6.7-7.3-33.1-11.8-42-8.6 12.1 1.1 23.6 1.5 35 5.6 2.5.9 4.3 2.6 7 3Zm15.3 21.8c.5.5 1.8-2 1-2.1-.4 0-.9-.8-1.5-1.1l-12.5-7.8c1-2.3 1.3-4.7-1-6.6-11.4-9.1-28.5-10.6-42.8-10.2-1.5 0-3-.5-3.5 1.4 7.8-.7 49.1 1.2 43.2 16 5.8 2.8 12 5.8 17.1 10.4m-91.4-16.2c7-3 13.6-5.6 20.4-10-6-1.2-12.3 1.6-17.2 5.2-1.4 1-1.8 3.5-3.2 4.8m-115.3-2.2c-4.9-6.5-18.3-9-25.5-6.4 1.9 2 4.4 1.6 6.7 2.2 6.3 1.6 12.1 3.7 18.8 4.2m191.3 27.6c5.7 0 10.6-2.6 13.9-6.8A49 49 0 0 0 322.3 91c-.6-.3-1-1.1-1.2-1.5-.4-.7 1.2-.8 1.4-1.2 2.9-4.9-5.8-8.3-9.3-9.4-10.9-3.2-22-4-33.4-3.3-.7 0-1.2.7-1.3 1.3 11.5.3 27.4 2.5 36.8 8.7-3.1 0-5.6-1.3-8.5-2.3q-14.3-5-29.7-4.3c-1.3.1-2.4-.2-2.7 1.4C289 79 330 87.8 326.7 109M120.9 87.4c-2-2-4.6-1.6-4.8-4 0-.4.1-1.3 1-1.6 4.4 6.6 13.5 3 20.3 2-6.2-.3-11.6-1.4-17.3-2.7-2.4-.5-4-2-7-2.5.6 4.8-2.7 8.1-6.9 9.4-4.8 1.4-11 1.2-12.5-4.3a31 31 0 0 0-16 23.7c-.5 6 3.4 11 6.7 10 2.4-.8 1.3-8.6 12.5-17.6a73 73 0 0 1 24-12.4m223.1 9c2-5-.1-9.3-3-12.4a13 13 0 0 1-10.3 5.5c4.7 1.7 8.6 3.6 13.3 6.9m75.8 9c1.1-.5 1.3-1.7 1.3-2.3-.2-2.7-5-2.1-7-2.1 1.7-8.1-2.2-12-8.2-16 3.2 9.2-.2 19.3-5 27.1-2.5 4.2-5.6 8-5.7 13.4 3.1-6.4 6.6-12 13-14.9zm-149-4.2c2.3-2.5 1.7-6.8 1.4-9.6 3.8-.5 7.6-2.1 11.7-2.4 3.8-.2 3.2 5.6 12.1-.4-9.9-4-20-3.7-29.3.8l-13.5 6.7c1.7.7 3 .6 4 1.3s.7 2.3 1.5 3.2c1.2 1.4 3.6.3 4.3-.8 1-1.6 1-3.2-1-4.5 1.2-.4 2.8.2 3.5.9 1 .9 1 2.7.2 4-2 3.4-7.8 4.3-10.4 1.2-1-1.2-.7-2.8-2.4-2.6-1.3.1-2.6.6-2.5 2 .4 5.9 14.4 7.4 20.5.2Zm19.2-4.1q2.4-.6 1-2.6c-.2.9-1 1.6-1 2.6m-158.8 7.7c-.8-2.6-1.3-3.8-1.4-6.2-1.2.5-3.4 1.4-3.2 2.9.2 1.9 2.8 2.8 4.6 3.3Zm38.5 35.8c1 1 .9 4.5 3 4.2 4.3-.6 5.3-5 5.8-9.4 2.8 3.6-.2 7.4-2.4 10.9a16 16 0 0 0 6-5c1.7-2.4 1.6-5.6-.6-7.6-1.9-1.7-4-2.5-6-3.3 4.5-1 8.5.6 10.6 4.7 5.5 10.8-5.8 17.9 2.9 30.5a44 44 0 0 0 17.4 14.8q17 8.2 35.2 12.8c5.3-2.4 10-8.8 9.7-14.6-2.8.7-6.3.2-9 .4-6 4.4-12.8 8.1-20.7 6 6-.8 11.8-1.2 16.7-5.7l-9.7 2.2c-5 1.2-10.5.5-14.3-2.9s-4.2-7.9-1.9-12.5a7 7 0 0 0-5.3 6.3c-.1 1 1.7 3 .3 4-4.6-.2-8.7-3.1-12-6.3a15.6 15.6 0 0 1-2.1-20c7-10.9 13.9-24.8 1.2-35.8-20.8-18-64.4-13-61.8.8.2 1 2.3 1.6 2.7 2.8.5 1.4-1 3.4 1.4 4.2 2.2-9.5 7.5-3.4 11-13 .5-1.6 2.5.6 3.3.5 7-1 17.2 1.7 19 7 1 2.6.3 4.4-1 7.6 7.2-1.4 13.8-.5 18.9 4.2a13 13 0 0 1 2.8 15.8c1-9-5.5-18.3-15.3-18.4-22.6-.1-31.7 27.2-30.2 27.8q.3-.2 1.3-.3c.2 1.6-2 2.3-2.6 3.8a21 21 0 0 0-.3 12c.7-3.4 2.6-6.1 3.4-9.4.4-1.6 0-3 .9-4.8l5.8-10.5c1-1.7.6-4.3 3.1-4.6-.3 1.1-1 2.4-.4 3.3.7 1 2.1.5 3.6 1.5-1.3 1.2-3.5.8-5.1 1.1-2.3 3.4-5.2 7.2-5.5 11.7-.1 1.1 4 1.2 4.7.1-.3-1-1.5-2.1-.4-3.7 4.2-6.3 7.3-12.8 16-13.2Zm-37.8-33c-2.4-2.1-4.8-2.3-7-3.6-1.6-.2-3.3-.5-4.1 1.9 4 0 7.2 2.2 11 1.7m270 18.2c10.5-5.7 17.9-3.7 26-8.6 3.2-2 7-7.6 4.6-11-3.4-2.7-9.6-.2-13.2 1.5-9 4-16.5 6.3-20.4 16.2 3.5-1.3 5.7-3.5 9.2-4-1.9 2.4-5.3 2.3-6.2 6m-271.6-16.2c-.2-1.4-1.1-1.5-2-1.5l-9.5.2q1.2 1.1 2.8 1.2zm-5.2 1.6c-1.2 0-7-.7-7.6.8-.3.6 0 1.5.5 1.6 1.2.4 5-1.2 7.1-2.4M404.4 128a69 69 0 0 1 15.2-4c4.6-.7 16.7-4.4 14.1-11q-3.7 6-10.8 8l-13 3.3c-2 .5-4.8.6-5.5 3.7M63 134c2.7-1.7 5.9.3 8.5-1 2.9-1.2 5-3.2 8.8-3.1-5.1-3.3-13.6-3.3-15.7-10.3 4 2 5.9 5.2 10.3 5.7-2.2-3.3-4.6-5.6-5.7-9.2l-7.8-1.6C56.5 123 70.9 129 75 130.3c-7.5.4-15.6-1.2-19.1 5.8 9.2.3 6.5 2.7 15.4 1.2-1.4-3.8-6.3-1.8-8.4-3.2m361.4-7.1c4.5-.7 8.7-1.3 12.5-3.5 2-1.2 5.1-3.8 5-6.4 0-1.4-4.5-1.9-5.1-.6-5.2 10.5-19.6 8.6-28.9 12.7zM110 163.6c7.4-2.5 32.4-17.1 34.7-20.2l6.2-8.5c-7.8 2.1-14.8 5.2-20.7-1.8-4.9 6.1-4.7-4.2-8.7-3.5-2.2.4-3 3.2-3 4.8-.3 5.3 5.7 6.8 10 8-4.4 1.6-8.7.5-12.8-1.2-10.1-4.1 1.6-15.6-18-24.5a43 43 0 0 0-2.7 9.4c8.9 4 8.6 9 15.6 13.3-11-1.9-11.1-15.6-29.2-13 13.8 7.6 11.8 11.5 25.3 17.2a41 41 0 0 0 37.4-2.1c-11.1 9.4-23.6 8.6-36.8 5.3 1.2 3.8-.1 7.3-3 9.6s-6.8 2.1-10.5 1.6q.5 1.4.8 2.8c.6 7.1 11 4.4 15.4 2.8ZM392.4 132c.4.1 10.3.1 9.4-3.2-1.4-5-8.9-.5-9.1-.2-.5.7-1.4 3.2-.3 3.4m34.6 48c-5 3.1-11.5 2.9-16-.3-2.8-2-3.5-5.2-1.5-8.2-3.3-.2-5.6 2-6.5 4.4-2.4 5.8 5 11.2 10.4 13 11 3.7 22.9 2.6 32.8-3.8-3.5 4.7-9.2 6.2-14.7 7.1-9.5 1.5-19.3.2-26.9-5.6-3.6-2.8-6-7.6-4-11.8 3-6.5 11.1-7.9 17-5-2.3.4-4.6.8-5.8 2.7s-.3 4.2 1.5 5.5c4.7 3.3 12.1 1.7 14.3-4 1.3-3.3-1-6.8-3.7-8.8-9.7-7.5-26.4-3.2-30.2 5.7s2.8 17.4 11 21.3c18.1 8.6 46.6 4 51-16.6 1.8-8.1-.8-15.4-6.4-21.7-15-16.7-46.7-17.3-65-5.5 0-4.5 6.7-9.8 4.8-11.7-1.4-1.3-3.4-.4-4.6.3-.3-1.9 2-2.2 2.6-3.2-.3-1.5-.8-3.6-1.6-5.1-1.6-2.7-6-3.5-8.2-.8 2.3 1.5 4.3 1.6 5.3 3.3 3.4 5.5-.8 7.3-2.6 13.2-1 3.4-5.4 21.7.2 23.2a16 16 0 0 1 5.6-16.4c6.2-5.3 16.7-7.2 23.5-2 3.7 2.7 6.3 6.8 12 5.8-1.5-5-5.2-9.8-10.6-10.3 3.4-1 5.8 1.4 8.5 2.7 8.8 4 14.3 4.4 16.1 15.8 5.1-2.2-.3-10.2-4.3-13.3-4.7-3.7-10.6-4.9-16.2-6 10.4-.5 25.6 5.8 25 17.3 0 2.2-1.3 3.9-3 4.2-6.9 1.3-1.4-12-14.6-15 .8 2.5 2.7 4.7 1.6 6.4-5.5 2.5-11.6-.6-15.4-4.8-3.4-3.8-9-3.7-13.6-2.7-8.9 2-14.4 10-12.2 18.9.8 3.5 2.7 6.6 6.2 8 .4-4.7 2-9 5.9-12 8.7-6.9 21.1-7.6 30.7-1.8 3 1.9 5.5 5.2 6 8.7s-1.4 6.8-4.4 8.8Zm2.7-46.8q-11.8-3.2-23.4.2c1.5 2.5 3.9 2 6 1.3 17-4.8 23.5 5.2 38.2 3.5-3.8-11.7-10.4-12-20.3-10.7l-18.1 2.4c-3.1.4-5.6 1.6-9 1.4 1.6 2.3 3.6 1.6 5.6.9 12.5-4.8 24 .4 35.6 5.1-5.2-.4-9.4-3.1-14.6-4.1m-89 3c-1.5-.2-4.1 1.6-2.6 3 2.6 2.5 8.6.5 9-3.2.7-4.7-9.4-9.7-18.8-5.4-4.6 2.1-7.5 6.3-7 11.3.3 4.3 3 9 7.7 9.8-4.6-3.8-8-8.7-5.2-14.1 3.5-6.9 13-8.5 19-4 .7.6.5 1.9 0 2.4q-.2.3-2.1.1Zm-248.8.6c-2.5-2.4-6.4-6.3-9.6-5.2l-10.5 3.3c2.8 4.3 9.2-.8 20.1 2m308.9 2.8c-3.8-1.8-9.2-.5-11.4 3.5zm-241.6 35c10.5-5 27.8-22 25.6-34.5-5.7 11.2-12 3.4-12.4 18.5 1.6 8.4-10.9 4.6-13.1 16M93 148.5l-5.5.5c-9.3 1-14.7 8.7-13.4 18.3-4.5-5.1-2.1-12.1 2.8-16 5.4-4.2 12.8-5 19.6-2.5-2.2.4-3.8 1.3-3.8 3.5q0 3.2 3.8 3.8c3.9.6 9.2-2.2 8.1-6.9-2-9-24-10.7-35.8 1.6a13 13 0 0 0-1.7 16q4.4 6.7 11.4 10.6c18.4 10.6 41.7 8.8 61.2 2.2.9-.3.5-2.9.1-3.9-8.4 4-17.5 5.3-27 5.5a49 49 0 0 1-28.8-8c-3.8-2.6-6.5-6-6-10.7 1.3-10.1 12.2-8.3 15-14Zm75.3-.9c1.3-1.4-.3-3.5.3-5.2q-2.8.5-5.4 2a4 4 0 0 0-1.6 5.4c2-.3 5-.3 6.7-2.2M110.6 174c-2.7-1-7.3 1-9.7-2.2-1-1.3.4-3 1.7-4-2.9-.5-5.2 0-7.3-1.2-3.2-1.8-4.4-5.4-2.2-8.6a14 14 0 0 1-3.4-4c-3.5 1.6-7.6 3.5-9.1 7.3-1.8 4.5 1.4 9.2 5.5 11.2.1-2.2-1.2-3.6-.3-5.7q2.8 4.8 8 7.7c14.2 7.8 31.3 4.3 46.1-.9-1.7-10.3.4-17 3.6-27.4-14 8.8-17.4 15.2-33.9 20.1-2.5.8-5 1.4-6.4 4.2 4.2 2.7 9.6 2 12.5-2.3.5 1.8-1.2 2.4-1 4 7.9 1.8 7.6-5.7 10.1-6.6.4 2-.5 3.4-.3 5.2 4.5 2 6.5-3 8.5-4 1.6-.7 3.4-1.2 4.7-2.8 2 3.7-2.4 3.4-3.3 4.5-3.7 4.1-7.4 3.8-11.7 4.5s-6.8 2.8-12 1m50.7-22.3c.1-1.4-1.8-3-1-4.8-2.3 3.4-4.7 6.5-5.4 10.5 2.8-.6 6.2-3 6.4-5.7m13.6-4.3a3 3 0 0 0-3 .2 30 30 0 0 0-10.7 18.7l5.6-3.2c1-.6 2.4-.3 2.9-1 1.8-2.6-1.6-9.2 5.2-14.7Zm-30.6 35a20.5 20.5 0 0 0 15.7-19.6c1.2-4.7 3.7-8.4 6.8-12-2.6-.4-2.8 2.1-4.3 3.2-1.2 3-3.9 4.4-6.8 5.4-1.7 3-2.2 6.1-3.2 9.2a26 26 0 0 1-8.2 13.9m26.7-11.9c4.5 16 21 25 36.4 25.6 7.6.3 6.8-6.2 13.3-1.1 2 1.5 2 3.3 1.8 6a41 41 0 0 0 16.6-6c-5.7-1-10.6-2.6-15.6-4.6l-18.3-7.5c-10.8-4.4-21-13-22.2-25.7-1.6 1.5-2.2 2.9-3.6 4.6 2.3 15.8 18.4 25.3 33.6 27 .9 0 3.2 1.3 2.3 2-12.3 9-41-5.4-41.3-23.2-.8.9-2.6 1.7-3 3m122.7 4.5c-2.3 1.5-6.2-.9-6.7-2.7-1-3.8 1.6-6.7 4.6-8.6 7.7-5.1 16.8-4.1 25.8-1.5a24 24 0 0 0-14.9-3.2c-7.6 1-20.7 4.7-18.4 14.2.7 3.2 3.6 5.6 7.4 6.2s9.3-.4 10.5-4.5c.9-2.8-2.4-3.7-4.4-3.8-3-.2-2.6 2.8-3.9 4m-140.6-14.5c-1.2-.6-3.7-1-4.7-.3l-3.2 9.2c-1.2 3.6-2.5 7-1.5 10.6 7-5.3 6.3-12 9.4-19.5Zm57.4 30.1a48 48 0 0 1-22.6-10.1c-5-4.7-8.6-10-8.8-17.4a6 6 0 0 0-3.3 2.7c-.6 1-.1 3.2.3 4.5 2.3 6.7 7.1 12 13.2 15.7s13.7 7 21.2 4.6m.4 8c-17.8-.8-34.6-7.6-42-25.8-.5-1-2.2-.1-2.6.4q-.5.9 0 2.4a39 39 0 0 0 21 22.5c3.2-1 5.4.8 8.2 2a17 17 0 0 0 15.4-1.6m-29.4 22.3-12.8-15q-6-7.1-7.8-16l-1.2-12c-.9.4-3.7.7-4 2-2.3 18 9.5 34.6 25.8 41Zm19 20.5c-5-1-9.6-2.5-13.4-5.6 25.5 9 53.8 4.1 77.5-7.6q8.2-4 16-8.5c-2-1-3.7-.1-5.3.5-22.8 8.6-51.5 14.7-74.3 4.5-4.5-2-7.4-5.6-6.4-10.7a5 5 0 0 0-4 3.2c-.6 1.7.2 3.5 1.4 4.9 5.8 7 15.6 5.7 15.4 13.1-4 .4-21 1.4-21.2-4a33 33 0 0 0 16.9 1.4 31 31 0 0 0-12.4-5.1c-2-.4-3-.4-4.8-1.5-6-3.5-12-6.3-17.5-10.5a38 38 0 0 1-15.4-34.2q-3.4 1.3-6 3.5a36 36 0 0 0 5.3 22.3c8.5 14.6 18.2 14 12.3 25 3 1.2 5.8-.4 7-2.7 2.4-4.5-1.4-8.3-4.3-12 2.7.9 4.7 3.5 5 6.1.3 2.4 2.6 2 3.4 3.1a40 40 0 0 0 7.8 7.4c-3.4-.2-5.9-2-8.2-4.5-1.2 1-1.6 2.4-2.6 3.8 9 8.6 25.8 12 38.3 12.1 24.8.3 45-6.9 66.3-18.8 4.2-2.3 8.1-4.3 12-7.4-3-1.1-5.2.4-7.7 2-23.6 14.5-53.1 25.3-81.1 20.2Zm-12.8-18.7c0-3-1.2-5.8.4-7.8 1.9-2.3 5-2.2 8-4.2-11.8-4.4-26.4-13-32.8-24 .9 8.3 5.6 14.8 10.7 21.1 7.4 9 11 3 12.3 4.4.4.4.7 1.4.2 2-1.6 1.8-4 1.4-6.1 1.3 2.4 3 4.3 5.6 7.3 7.2M138.6 193c-3.6-.9-5.4-1.7-7-4.5a3 3 0 0 0 .8 4.4c2 1.2 4.5 1.2 6.2.1m209.2 12.2c1.6-2.5-1.1-4.7-1.1-7.3 2.5 0 3.3 2.9 3.6 4.4.4 2.1-.3 4.4-2.2 5.4-2.5 1.3-4.6-.6-6-2-3.6-4 0-9.2 3.3-13.3-7.8 1.4-17.7 10.4-14 17.7 3.5 6.7 12.7 4 19.4 6.5 3 1.2 5.4 3 5.6 6.3q.1 2.4-2 3c-2.3.8-.1-3.3-10.6-.3a28 28 0 0 0 21.3 2.6c2.7-.6 5.4-1.4 8-.2-3 11.5-24.8 6.6-32.7 3.8 13.8 9.2 40.6 11 53.2-1.6 5.2-5.2 5.9-12 2.2-18.6 3.2.2 4 3 4.6 5.7a17 17 0 0 1-7.4 17c-17.9 12.1-49.5 6.2-58.2-4.6l-5.1-6.4c9.6 7.5 21 11.7 33.2 9.7 2.5-.4 5.4-1 6.4-3.8a30 30 0 0 1-20.2.4c-4.9-2-9.8-3.7-14-7.6a37 37 0 0 0 18.2-.3c-5.3-6.3-13.7-2.3-20.5-5.7-4.6-2.3-6.9-7.4-4.9-12.2 4-9.9 13.2-12.5 22.3-14.9-7-2.2-25.4 6.8-31 10.2-2.7 1.6-5 4.2-4.8 7.4 3.5 1 8.3-4.7 11.8-4.3-6.1 6.8-3 18.2 2 24.6 17.1 22 55.5 22.8 74.2 6a21 21 0 0 0 7.4-18.2c-2-17.9-23.4-24.3-38.2-20.4a19 19 0 0 0-12.8 9.3 10.7 10.7 0 0 0 3.8 14.3 20 20 0 0 0 20 1c2.6-1.5 5-4.7 3.4-7.5-2.7-5-10.3-5.7-14.3-2q-1.3 1.2-1.2 2.2l.7 2.2c-1.8-.8-3.7-2.1-4.3-3.6-.8-2.2-.6-5 .8-6.6 7.8-9 23.3-6 31-.3a17.3 17.3 0 0 1 4 24.4c2.2-7.5 2-15.5-3.8-21-7.8-7.5-26.8-10.4-29.1 1 5.7-3.8 13-4.2 17.9.6 3.4 3.3 2 8.4-1.4 11.4-9 7.9-26.9 4.4-31.3-5.7a14 14 0 0 1 1-12.4c3.5-6 9.2-8.3 16-10.4-9.8-3.2-24.6-2.8-28.7 8.6a5 5 0 0 0 .8 4.7c.6.8 2.7 2.5 3.7.8Zm-77.2 2.9c3-2.7 5.8-.3 8.5-.8 4.7-.8 8.9-1.6 13.7.8 1.1.6 3 1.4 4.1.4-1-1.8-1.8-6.4.6-6.5 2.7.1 5.2 2.7 8.2 1.8q6.7-2.1 12.3-6.2c5-3.6 10.6-5 16-8.5a148 148 0 0 0-37.8 8.3l-28.8 9.3a131 131 0 0 1-68 5.2c-2.2-.4-2.8 5.2-1 6.2 19.4 11 51.5 4.4 72-1.8-1.4-2-2.2-3-2-4.8q.2-2 2.2-3.4Zm-161.8.4a34 34 0 0 0 22.6-13c-.7-.8-2-3.1-3.5-2.8-5.8 1.3-17.8 9-19.1 15.8m23.8 5.6c3.2 9.3 13.8 14.4 22.6 9.6-8-2-14-7.6-15.9-15-1.1-4.5 0-8.8.7-13-4-1.3-4.3 6.6-5 8-1.5-3 1.6-5.3-.5-8.3l-9 9.4c-1 1-3.8 9-1.1 10.9 2.3 1.6 5.3-1.4 8.2-1.6m178.8-4.6c-2.1-.8-3.1.1-4.3-.7 1.4-.7.6-1.1.4-1.5-.7-1.8-4.7-.6-9.7-2.3 0 3 3 5.1 6 5.4 1.5 0 2.3 1.2 3.6 1.6 1 .3 3-1.3 4-2.5Zm9 7.9c-.7-4.4-.1-6.9.5-10.6-3.2 1.4-3.8 4-3.7 7 0 2 .9 4.4 3.1 3.6m-15.2-4.2-13.1-1c2.1-1.3 4 .5 5.5-.8-2.6-1-4.9-.3-7-1.5-6.3-3.6-9 .5-15.7-.7-1.6-.2-4 1.4-3.3 3 2.6 5.5 17.5 5.4 20.2 4.8 4.7-1 9.4-1.9 13.4-3.8Zm9-4.6c0 .9.5 1 .8 1.2q.6.2 1-.4 0-.9-.4-1c-.4 0-1.4-.2-1.4.2m.6 8.2-1.1-5q-3.6-.2-6.4 2.3c-1 .8-1.7 3.3-.2 3.8 2.7.8 5.4 0 7.7-1.1Zm-10.2 11.7c-.4-3.2 1-5.4 1.2-8a12 12 0 0 0-4.7 11.7c1.2 8-2.5 15.7-10.5 18.4 17.9-14.3 1.7-18.7 13.1-31.5-2 0-3.2 1.3-4.8 2a29 29 0 0 0-14 14.7c.5-11.3 11.3-14 18.6-19.6-16 3.3-30.7 24.6-47.1 30l-13.1 4.2c5.4 4.2 15.5 1.5 20.6-1.2 2.3-1.2 4-1.2 6.4-.2 2 .8 4.9-.9 5.7-2.8 1.3-2.9 1.8-6.5 5.7-7.3-2 6-4.4 11.6-1.5 18 14-2.2 26.4-12.2 24.4-28.4Zm-69.7-.8c13.8-.9 26.9-4.5 40.3-9.2-1.7-1.7-3.8-1-5.9-.3a137 137 0 0 1-38.5 7.1c-10.3.6-19.5-.9-30-4 7.3 6 23.6 7.1 34 6.4m86.4-6.7a7 7 0 0 0-4.3-3.5c-.4-.1-1.6 1.2-1.3 1.3.1 0 5.5 1.8 5.6 2.2M301 255.3c1.3-3.9 5.2-5 7.7-7 5.1-3.8 5-10.8 2.8-16.2a18 18 0 0 1-.7-11.5c-8.8 3.8 2.4 15-11.2 29-.8.8-1.4 2.4-1.2 3.3s1.2 2.5 2.6 2.4Zm37-1.4c-2.8-11.8-10.5-13-15.6-19.9-5.2-7-.3-11.4-4-13-1 1-.8 3-.7 4.4-2-1.2-.8-3.2-2.4-4.7q1.1 9.9 7 19c-7.4-3.8-5.3-14.5-9.2-17.9-2.8 8.1 5.7 14.6.8 23.6 2.8 5 7.9 8 13.6 8.7z"/><path d="M424.3 220.2c1.4-3.2-.8-5.8-2-8.5 3.7 2.9 12.9 5.8 15 2.3 1.6-2.8-3.1-6.6-5.6-8.1l8-1.1c1.7-.2 3.4-2.2 2.1-4a52 52 0 0 1-23.7.3c10.2-.8 15 1.5 24.5-3.1a6 6 0 0 1 1.6 6.1c-.9 2.3-3.6 2.7-6.2 3.2 1.4 2 2.8 4 2.4 6-1 5.5-9.1 4.7-13 4.3-.6 1.6-.2 4.7-2.3 5.7-2.5 1.3-5.3.8-8.6.5C418 217 416 211 412 205c5.4 3.7 7 10 7 16.2 1.6.8 4.5 1 5.4-1M366.2 172.6c-3.6-2.8-17.6-9-20-4.5-1.9 3.9 9.8 8.8 12 10.2-4.7-.8-16-4.7-15-10.4.3-1.7 2.3-3.3 4.6-3.4 5.8-.1 11.2 2.4 16 5.8.9.7 2.7.5 2.4 2.3M259.8 174.8c2 4 1.9 9-.3 12.3.4-4.2 1.4-7-.5-10.4a10 10 0 0 0-7.2-4.7c3-1.1 6.4 0 8 2.9M314.7 156.8c-16.2-5.8-19.3-.2-32.9-4 3.8 0 7.2 1 11.1 0-10-2.7-18.4-6.3-19.2-18.7 12-1.9 24.4-.8 34.3 6.6 3.6 2.6 5.8 6.2 9.8 8.2-8.7-9-1.3-15.3-6.4-18-2.2-1.3-4 0-6.1.5-3 .7-6.4.2-8.2 3.3-5.5-4 9.7-5.5 12-5.8 2-.3 4 .9 5.1 1.8 1.3 1.1 1.8 3.6 1.5 5.3-1 5.1 1.4 8.6 2.8 12.7.8 2.4 2.5 2.5 4.5 5-4.4-1.5-8-4.4-11.5-7.6A44 44 0 0 0 276 135a18 18 0 0 0 14.4 15.1l16.5 3.3c2.8.6 6 .6 7.7 3.4M421.6 187.7c7.7-.6 14.8-1.5 20.9-6s8.4-12 5.2-19.1c-5.7-12.6-13.4-15.2-26.3-20 3.9 0 7.5 1.8 11.2 3.1 8.7 3.1 15.3 9.7 18.1 18.5 2.4 7 0 14.4-6.2 18.7-6.5 4.6-15 6.7-22.9 4.8M390.2 160.5c-1.9-.3-2.7.8-4.2 1.5 1.7-4.9 6.9-6.3 11.7-5.5-.3 2.3-5.1.3-7.5 4M141 109c.1 3.3-1.7 5.2-4.3 5.3-.3-2.8 1.9-5.2 4.4-5.2M246.4 73.2c-2 .5-3.4 1.4-5.5 3q-.7-3.2 1.5-5.3l-3.1-.6c2-2.1 4.1-1.4 7.6-1.3q-1.7 1.1-3.5 3.3c.4.6 1.3 0 3 .9ZM192.6 67.9a7 7 0 0 1-7.1 3q2.7-3.7 7-3"/><path d="M256 69.8a45 45 0 0 1-9.6 1.4c3-1.5 6.1-3.3 9.6-1.4M239 69c-1.4.3-2 1.3-2.7 2.8-1.6-1-.6-1.6-.1-2.1.7-.8 1.4-1.7 2.8-.7M340.7 110.9c-2.8 4-20 7.4-20.8 1.4 7 3.6 13.6 1 20.8-1.4M133.8 165.3c-6-2.2 1-11.2 5.4-13.5-2.3 4.6-5.8 5.8-5.4 13.5M319.7 86.1c-1.8 0-2.9-1.7-2.7-3.5 1 1 2.2 1.4 2.7 3.5"/></g></svg>