<?xml version="1.0" encoding="UTF-8"?><svg id="Layer_2" xmlns="http://www.w3.org/2000/svg" viewBox="0 0 433.28 322.12"><g id="Layer_1-2" fill="#e43122"><path d="M175.09,71.03c-4.01-.36-5.84-.17-8.41.41-1.79,1.54-3.84.1-2.25-1.58,4.67-.7,7.87-1.66,11.99-.29.63-3.41-11.21-.63-15.35-1.63-1.47.31-.15-.67.8-1.63,3.2-.88,6.58.41,9.64-1.11-4.38-1.86-8.15-.5-12.69-.95,2.27-2.76,5.38-1.3,9.02-2.63-10.62-5.35-11.25,2.57-20.24-.06l12.94-3.69c-6.74-4.23-20.35,5.76-17.15-.17,3.59-.67,7.17-.93,10.31-2.32-6.67-6.05-8.25,4.05-14.66-1.04,2.51-1.6,4.81-.63,7.22-1.24,4.25-5.27-9.6,1.43-12.17-1.48,3.4-2.18,6.65-.17,8.92-2.76-5.63-1.62-10.16.52-15.24-2.17l8.98-1.2c-4.04-2.17-8.3-2.51-12.61-3.81,2.83-2.01,4.78,1.79,8.15.11,3.79.28-17.57-8.66-12.41-6.9-.9-.31-.59-1.6.56-1.32,2.35.58,3.46,2.96,6.39,2.19-1.48-2.95-12.8-7.97-6.75-9.28-1.36-2.2-1.99-3.38-.45-7.46,4.93,2.88,8.43,7.8,9.62,14.72,2.05-.48.59-2.28,1.71-3.73,1.59-.18,3.06,12.9,6.31,7.45,1.87,2.01,2.03,5.42,5.82,6.2l-2.7-7.7c3.25.21,4.52,12.22,10.03,10.8-1.21-1.82-2.2-2.8-3.51-5.85-.29-1.93,1.06-.53,1.73.87,1.88,2.47,2.95,5.75,5.88,7.47l2.41-1.13c1.38,1.4,1.34,3.14,2.86,4.15.99-1.41-.24-2.65,1.09-3.9,1.8,2.65,2.37,5.66,5.28,7.67.94-2.56-.58-3.99-.83-6.73,2.02-2.08,2.31,7.71,6.22,9.04.69-2.77-.14-4.85-1.29-7.31,1.42-.38,5.29,11.98,5.58,12.27-.04-2.01-1.45-3.73.12-5.82l4.85,10.79c.96-1.86-.45-3.73,1.79-3.58-.14,3.37-.25,8.69,3.11,10.38,4.36.09,9.13-2.82,14.69-1.56,1.82-3.3.3-6.45-.36-10.18,1.97.29,1.46,2.29,3.19,3.76l.19-9.4c1.04.73,1.36,1.78,2.7,1.88-.71-3.84-1.3-7.13-.91-10.49,2.04-.49,2.56.03,1.91,2.04.23,2.54,1.88,2.8,1.41.12.59-3.57.65-6.73,1.91-10.31,2.45,2.48-.83,5.31,1.27,8.85,2-4.48,2.18-9.3,4.67-13.61l-1.32,11.17c2.22-2.24,2.11-5.24,3.24-8.02l3.4-8.31-1.65,11.36c1.86-2.5,2.69-5.2,4.25-8.08,1.02-1.87-.39-4.46,2.03-5.91l.29,7.76,3.83-13.87,1.15,7.63c1.77-3.25,1.51-7.08,1.59-11.22.18-1.41,1.54-1.51,1.89-.07.67,2.7-1.09,4.8.09,7.66,3.1-4.19,1.18-13.62,3.88-14.62.85,2.22-.46,4.32,1.65,5.93.07-9.67,1.77-9.15,4.63-17.59,1.18,8.32,4.84.99,1.82,11.16,1.53-.01,1.94-1.82,3.87-.72,1.15-2.15-11.37,13.13-7.29,10.86,1.17-.96,2.51-2.36,4.04-2.1.35,1.83-1.41,2.58-2.95,3.14-2.85,1.05-3.54,3.64-5.15,5.52l-3.83,4.46c2.71.48,4.03-1.86,6.37-.54-3.5.83-6.46,1.73-10.47,4.51-1.48,1.23.56.66,1.83.23,2.64,1.21,4.89-.45,7.47-2.13,1.66.86.68,2.05-.53,2.57l-9.35,1.77c-1.81.34-3.05,1.43-3.54,2.89,4.22,1.47,7.59-1.01,12.15-.13-3.05,2.28-16.97,1.27-18.23,5.13l13.33-.22c-8.02,4.12-13.52,2.7-18.84,5.37,5.62,1.08,9.67-.79,15.13-.7-4.14,4.7-14.94.45-20.31,7.12,4.84.8,8.04-2.28,12.86-.86-1.26,2.1-13.26.51-15.57,6.84,4.3-.61,11.96-5.58,14.31-2.42-3.97.97-7.31.07-10.16,3.47.8.6,2.13-.19,3.82,1.35-4.42,1.69-8.19,4.59-10.57,9.04,8.63,3.37,9.88,3.2,10.71,12.51l13.79,10.55c-.96-.73,23.27,7.25,26.35,8.51l13.38,5.48,13.69,6.49,14.28,6.43,20.14,9.73c3.75,1.81,7.64,3.32,11.57,4.69,12.87,4.5,45.11,21.21,55.01,29.36l12.23,10.06c11.7,9.63,29.05,23.6,34.81,38,5.48,13.71-2.48,24.13-13.95,29.89l-32.11,16.14c-17.78,8.93-29.45,9.02-49.78,7.18-3.61,21.98-33.77,32.59-52.31,34.1-11.4.92-21.42-1.77-30.7-8.56-3.8-2.78-8.57-4.18-12.05-7.75-.67-.68-2.02-.44-2.46-.03-1.4,1.31-.31,7.31-5.45,11.36-3.56,1.05-.68-10.27,2.14-13.19l-8.95-9.57-4.43-10.29c.37,6.76-1.91,12.62-4.91,18.8-.29,2.38,1.91,5.19,3.27,6.78l2.21-1.93c.96,3.62,1.66,6.14,4.06,8.44-9.06,2.03-7.54-.52-13.83-7.6-7.8,10.06-18.39,21.3-29.43,25.58-7.84,3.04-16.43,5.8-25.07,5.26-9.14-.57-18.08-1.97-26.76-3.93-16.28-3.68-16.61-18.27-22.52-15.99-22,8.49-33.38,5.87-55.92,3.11-11.6-1.42-32.96-5.01-42.29-11.11-23.65-15.46-.33-45.41,9.22-59.93,4.94-7.51,9.39-15.03,15.63-21.64,12-12.72,32.34-31.67,46.01-42.15l24.57-18.82c4.7-3.6,8.78-7.62,13.61-11.01,4.22-2.96,7.64-6.46,11.72-9.47l22.16-16.37c3.49-2.58,8.79-3.78,11.39-7.34,3.31-4.51,7.86-8.85,10.31-13.69,1.43-2.83-.63-9.34,4.27-11.5,1.09-.48,2.93-3.35,2.13-4.06-3.31-2.98-7.87-3.44-12.42-3.98-1.35.57-1.47-.51-.25-1.16,1.27-1.85,6.15.67,6.47-1.98ZM207.57,86.71c-3.19-1.97-4.9-4.14-5.69-8.17-4.45-3.19-12.36-3-15.27,2.17-1.43,2.53.07,5.71-.9,8.27,7.25-2.09,13.75-2.72,21.86-2.27ZM222.85,196.23l-9.06-1.63c-.6-.11.13-1.48.46-1.63.29-.13.64.27,1.2-.17l4.03-6.29c-1.06,3.54.64,6.24,2.09,2.9-.03-1.74.39-2.31.7-.92.54,1.48,1.53,1.41.29.51.56-4.36,1.31-8.56.07-12.55-3.62.03-6.34.6-9.31-1.31,2.72-2.64,5.37-3.26,8.92-4.44-.05-5.81.3-11.66-.61-17.46-1.02-6.46,2.57-2.18.99-15.57,6.55,19.74,26.61,61.45,38.78,77.81,1.51,2.03,2.7,3.8,4.06,6.01,8.9,14.47,26.5,36.92,42.93,42.33,8.71,2.87,17.73,2.63,26.84,3.35,7.31.57,22.99,1.93,28.03-2.92,3.5-.11,6.85.36,10.43-1.31l12.51-5.87c4.08-1.91,7.85-3.67,11.95-5.5,14.99-6.68,23.4-6.8,30.53-21.38,1.98-4.05,2.45-6.91.63-11.36-1.23-3.02-2.03-5.71-5.91-6.93-2.65-.83-6.68-2.65-7.23-5.72-.29-1.62,2.1-3.54-.67-4.89-.64-.31-1.77-.26-2.01.39-.15.4,1,1.15,1.54,1.55,1.23.91.81,1.92-.6,2.25l-8.48-7.49c1.2-1.41,2.93-.2,4.13,1.68.99.81,2.69.03,1.51-1.26-2.55-1.22-3.66-3.26-5.36-4.96l-8.71-8.7c-3.04-3.04-6.51-5.09-9.68-7.81-11.63-9.99-39.73-24.9-54.34-30.94l-8.98-3.71-18.67-8.29c-5.54-2.46-10.62-5.22-16.13-7.69l-14.66-6.57c-7.18-3.22-35.67-15.49-41.71-16.58-1.75-.32-5.53.34-5.46,2.24l3.94,7.71c-3.12.2-2.07-2.77-3.37-3.79-2.63-2.06-4.23-4.21-5.36-6.8,1.91.29,2.86.13,2.42-1.47-6.46-8.73-16.57-11.98-27.04-10.99-17.51,1.65-24.16,7.84-31.41,23.58-3.06-.48-5.75.76-8.44,2.73l-10.63,7.78c-6.36,4.65-12.19,9.21-18.47,14.1l-43.83,34.06c-4.54,3.53-9.1,6.63-13.15,10.65-3.21,3.18-6.35,5.87-9.86,8.79-13.88,11.53-26.62,23.88-36.37,39.13l-16,25.02c-3.79,5.93-8.76,23.31-3.77,29.39,3.16,3.85,7.81,6.63,12.58,8.17,13.29,4.31,26.68,5.69,40.23,8.44,14.33,2.9,27.77,2.9,41.79-.88,9.6-2.59,18.75-5.69,27.72-9.69s18.79-16.7,23.38-26.02c2.72-5.52,5.71-10.55,7.37-16.64.71-2.62,2.42-4.82,3.37-7.37,2.7-7.23,4.65-14.33,6.93-21.77,3.41-11.1,7.1-21.74,8.48-33.37,1.88-15.77,7.12-30.4,4.32-43.92,3.14-1.08,3.52,6.64,5.76,10.13-3.04,3.5-1.38,6.48.52,9.67,2.27,3.81,1.36,9.02,4.13,12.7,1.69,2.25,5.56.96,7.49-.15,1.1,1.19,2.34,1.74,4.34,2.22-2.6,1.96-6.44,2.45-9.58,3.96-.95,3.9.95,8.86,3.62,12.19,1.67-1.11.42-2.93,1.56-4.27.98,1.52.84,3.22,2.25,3.34.61.05,1.87-.96,2.35-.45,1.02,1.09,1.32,3.03,1.32,4.27l-6.81,2.82c3.15,7.88,3.06,10.29,7.12,16.15,1.45-2.55-.26-3.85.72-6.3,1.8.58,1.9,2.03.91,4.28,1.31,1.58,1.83.46,1.32-2,1.02-1.77,1.95-.09,1.13,1.62.53,3.15.09,5.6-3.87,6.44,1.73,4.31,2.13,9.44,5.45,13.18,1.32,1.49,7,1.6,7.77-.25,2.01-4.83,1.31-10.33,1.84-15.07-2.51-.8-4.12-.7-6.14-1.71,1.04-2.01,1.42-3.08,1.62-5.12,1.02.64.98,1.61,1.99,2.03,3.02-4.62,3.75-9.91,3.32-15.65ZM331.68,271.58c-16.18-4.83-16.2,1.88-34.22-8.9-10.09-6.04-17.66-13.69-24.48-23.12-4.89-6.77-9.94-12.98-13.99-20.43-5.29-9.73-9.86-14.98-15.19-25.45l1.4,10.33c.25,1.85,2.08,3.56-.48,4.68.47-4.46-1.82-7.8-2.17-11.73-.44-4.98-1.48-8.99-4.02-13.3-5.99-10.15-10.16-20.49-14.69-31.13,2.76,27.32,3.37,47.06,1.42,74.63-.82,11.55-1.77,22.93-.96,34.22.63,8.76,5.41,14.98,12.33,19.56l13.47,8.92c5.32,3.53,10.25,7.92,16.82,9.13,16.91,3.11,6.61,2.7,23.6,1,7.93-.79,14.59-4.91,21.67-7.81,2.69-1.1,4.3-2.94,6.54-4.49,9.5-6.59,5.89-5.55,12.97-16.11ZM134.31,314.79c17.35,3.95,34.14,5.64,49.91-2.75,4.56-2.43,7.51-5.56,10.87-9.28s7.64-6.04,10.6-10.21c10.68-15.05,13.9-16.05,10.7-34.62-1.51-8.74-4.94-16.04-8.54-23.88-7.14-15.56-18.37-53.18-21.08-71.56-.85,4.49-2.43,9.11-2.4,14.08.03,5.8-3.91,16.04-3.81,22.18.13,8.52,2.83,16.77.1,24.87-1.86-5.44.54-10.28-2.24-16.3-8.99,24.82-17.26,62.23-39.58,81.68-6.76,5.89-15.78,7.79-24.53,12.16,7.1,3.05,8.24,10.95,20,13.63ZM220.31,237.64c-1.29-1.37-5.04.63-6.11,1.42l5.03,14.25c-.2-6.76,3.61-12.95,1.08-15.67Z"/><path d="M65.06,203.97c-2.42-.58-1.38-1.57-.16-2.5l14.41-12.92,13.85-10.96,11.08-10.09c1.69-1.54,13.84-9.77,18.64-13.69,9.63-7.84,15.94-12.95,27.01-21.28-.9,4.02-4.97,5.55-8,8.04l-17.7,14.52c-.18.15-14.32,10.62-13.34,10.19-6.22,2.71-9.35,7.76-14.41,11.79l-13.08,10.44c-6.17,4.92-12.09,9.64-18.31,16.46Z"/><path d="M154.58,229.69c-1.12-1.57-.6-3.16-.16-4.58,2.33-7.51,3.08-14.93,5.01-22.57l3.48-13.76c2.72-10.75,5-21.01,7.82-31.36,2.16,2.64-3.66,19.78-4.94,25.53l-5.2,23.39c-1.83,8.21-2.92,16.03-6,23.34Z"/><path d="M111.02,204.99c-1.24-1.92.43-3.39,1.64-4.19,4.52-2.98,6.84-7.19,10.09-11.12,5.34-6.45,10.12-12.87,15.02-19.72l13.45-18.84c.58-.81.05-2.04.95-2.17.83-.12,1.44-.04,1.86.66.15.25-11.03,16.44-12.77,18.89l-11.35,15.94c-5.52,7.75-12.33,13.96-18.89,20.55Z"/><path d="M327.37,182.98c1.11,2.12,3.52,1.57,5.52,1.74-.5,1.59-2.39,1.94-3.37,2.41-.85-1.47-2.59-1.68-3.58-2.93-2.23-2.83-1.89-7.89.71-10.46.96-.96,10.16-6.76,12.48-3.72.78,1.03.3,2.93,2.21,3.99-5.79.22-9.92,3.73-11.43,10.26-2.99-1.82-.7-4.87-2.82-6.71-1.01,2.18-.39,4.14.28,5.42ZM332.06,176.38c-.4-2.75-1.27-2.88-2.49-1.44-1.68,2.37.75,3.87,2.49,1.44Z"/><path d="M92.31,209.71c-1.65,2.44,2.65,6.35-.42,7.86-.87.43-2.2.02-2.69-1.62-.52-1.76-.06-3.72-.9-5.05-1.86-1.31-4.25-1.14-6.33-2.14-1.73-2.47-3.99-2.35-7.5-3.17,8.17-4.84,6.47-2.14,13.06-2.45,5.07-.24,7.67,7.34,7.67,7.31-.19,1.38-.41,2.65-1.96,3.17-.21-1.87.56-3.27-.94-3.91ZM90.56,209.84c.19-3.46-1.57-4.26-3.7-3.47,1.19,1.4,2.02,2.72,3.7,3.47Z"/><path d="M298.04,170.73c1.24.98,1.49,1.54-.35,2.44-1.89-3.41-5.19-4.15-7.88-6.13l-8.6-6.37-13.1-11.08c1.84-.61,2.12-1.72,3.19-2.49,5.63-4.04,13.75,7.01,2.53.82-.72-.4-2.87.78-2.6,1.81l13.55,11.35,13.25,9.65Z"/><path d="M182.91,112.73c-.33-.63,8.71,17.56,5.07,15.83-3.23-2.47-4.55-6.12-4.65-10.47s-5.77-1.17-1.1-15.6c.54-2.5,1.78-2.06,1.66.41-.61,3.24-2.54,6.84-.97,9.83Z"/><path d="M98.62,294.12c-.56-3.36-.71-7.08-.23-11.03l1.36-10.99c.57-4.61,2.25-8.51,2.63-12.79,1.74,3.98.5,7.69-.48,11.33-2.37,8.83-.09,10.8-3.29,23.47Z"/><path d="M125.76,262.13c-.52,1.85-1.26,18.91-4.24,15.97l3.39-19.21c.48-2.72,2-5.22,1.69-8.66-.32-2.71,3.01-2.8,2.53-.19l-3.37,12.09Z"/><path d="M337.7,158.7c-4.17.2-7.54-1.85-10.89-3.86-5.96-3.57-12.27-5.48-17.34-9.44,7.77,1.08,12.45,5.76,18.78,8.12,3.24,1.2,6.63,2.23,9.45,5.18Z"/><path d="M284.22,130.13c-3.73-.03-4.48,1.28-1.77,1.55.88,2.21,20.56,7.79,18.9,9.96-15.39-4.51-27.57-11.99-41.05-18.26-2.62-1.22-6.17-.79-6.96-4.59,2.73,1.21,26.47,11.51,25.61,11.47.93.04,1.25-.93,2.33-1.97s2.9.68,2.94,1.84Z"/><path d="M75.24,287.78c-3.5.36,5.2-23.1,6.22-24.69,1.19,1.68.39,3.14.24,4.62l-6.46,20.07Z"/><path d="M355.58,229.24c1.67,5.09,9.86,13.64,8.88,19.38-4.48-8.44-8.88-15.88-14.98-23.56,3.39-.21,3.7,3.1,6.1,4.19Z"/><path d="M309.02,233.47c1.2,1.31,9.48,14.39,7.26,16.17-3.68-5.22-6.42-10.64-9.22-16.6-1.33-2.82-4.36-4.83-3.93-8.55,3.26,2.3,3.31,6.17,5.89,8.98Z"/><path d="M357.16,168.17c-9.9-.49-9.27-5.13-16.3-6.83-1.38-.87.2-1.39,1.75-1.33l14.55,8.17Z"/><path d="M174.17,117.21c-2.91,6.12-3.45,11.61-4.67,17.02-1.88-6.39.81-12.08,2.86-18.25.59-2.61,1.73-1.55,1.81,1.23Z"/><path d="M130.86,268.77c-4.46,3.92.81-13.25,1.64-15.15,2.26-.64,2.14,1.33.74,2.55-.48,4.23-.85,8.46-2.39,12.6Z"/><path d="M166.98,124.11c-2.89,2.97,5.11-21.71,6.63-17.77-1.83,6.21-3.89,11.47-6.63,17.77Z"/><path d="M231.5,124.14c.12-2.41-9.44-15.4-5.97-14.66,1.16-1.36,8.09,13.1,5.97,14.66Z"/><path d="M227.89,144.16l-1.96-8.83c-.6-2.94-2.01-5.48-.71-8.81,3.22,5.45,4.3,11.54,2.67,17.63Z"/><path d="M180.36,148.39c-3.79.8-3.23-19.46-1.97-18.15.9,4.58-.15,8.47,1.8,12.64-.88,1.95,1.71,3.21.17,5.51Z"/><path d="M49.68,246.31c-2.98,1.32-5.41,2.36-5.7.84-.02-2.13,1.12-3.79,1.93-5.52.98,2.11,2.03,3.61,3.77,4.68Z"/><path d="M295.33,154.04c.61-1.85,11.66,6.6,11.36,5.52,1.52,5.63-10.8-3.84-11.36-5.52Z"/><path d="M148.33,177.7c-.38-2.52-1.4-3.7-2.21-5.5-.42-.94,1.49-2.35,2.78-2.61.1,2.05,1.31,3.48,1.96,5.31.24.68-.74,2.41-2.54,2.79Z"/><path d="M134.69,203.72c-1.47-5.62-.21-10.34,1.47-14.82,1.37,6.26-.15,10.38-1.47,14.82Z"/><path d="M20.6,279.37c-3.78.12,8.91-25.57,10.11-27.84,1.32-2.5.65-6.22,4.49-6.94l-9.41,20.68-5.2,14.1Z"/><path d="M216.59,122.9c-1.84-3.8-2.23-7.57-3.13-12.42,1.74-2.76,5.24,10.92,3.13,12.42Z"/><path d="M282.92,176.68c.76,1.22.12,2.53-1.55,1.55-.96-4.96-4.41-8.61-4.11-13.23,3.56,3.49,3.2,8.02,5.66,11.68Z"/><path d="M272.92,141.25c-.5.78-1.88-1.18-2.1-1.81-.3-.84,4.25-5.74,3.09-5.08.38-.22,2.04-.26,1.96,1.06-.11,1.86-1.41,3.43-2.95,5.83Z"/><path d="M38.08,287.95c-2.07-3.78.25-6.88,1.26-10.3,2.19-1.47,1.2-10.14,3.64-9.47,2.58.7-4.59,14.87-4.9,19.77Z"/><path d="M173.06,140.24c-.87-4.19-.42-8.78-.26-13.6,2.28-2.05,3.13-.28,1.61,1.61l-1.35,11.99Z"/><path d="M57.93,287.89c-1.97-3.34-.03-6.26,1.05-9.32.94-4.39,1.82-8.22,3.93-11.82,1.34,2.9-.19,5.02-.79,7.47-2.56,4.36-2.91,8.69-4.19,13.67Z"/><path d="M194.87,151.5c1.2-2.48,6.36,10.45,4.69,10.14-2.62-2.81-4.47-5.95-4.69-10.14Z"/><path d="M301.76,233.07c1.03,5.1,3.91,3.05,5.75,12.43-3.95-2.55-4.12-8.76-8.32-12.66.49-1.13,2.28-1.16,2.56.24Z"/><path d="M254.82,163.34c-.37,1.24-4.11.91-3.89-.37.34-1.97,1.06-3.4,1.87-4.78,1.84,1.01,2.65,3.03,2.02,5.16Z"/><path d="M411.96,221.81c-2.91-1.26-5.6-4.2-5.98-8.45,2.83,1.99,4.17,3.48,5.98,8.45Z"/><path d="M43.14,266.85l5.46-14.82c1.51-4.11,4.01-7.87,5.25-12.57,1.96-1.95,3.02-.08,1.32,1.64-.33,3.14-2.55,5.16-3.56,7.75l-4.58,11.65c-.95,2.43-.1,5.8-3.88,6.36Z"/><path d="M205,163.02c.14,5.57-6.16-9.64-4.85-9.28,2.64,2.25,4.13,5.3,4.85,9.28Z"/><path d="M78.33,250.44c.57,3.24-2.29,4.15-2.64,1.05,2.02-2.04.83-3.67-1.18-5.01.74-1.21,1.78-.94,2.93.22.52.53,2.09.12,1.83.89l-.95,2.85Z"/><path d="M154.15,232.61c0,2.23-.89,3.64-1.83,4.38-.59.46-1.36.9-2.95-.31.68-1.65,2.36-2.64,3.32-4.38.22-1.85,1.41-1.61,1.46.31Z"/><path d="M48.66,275.55c.21,3.23-2.71,3.52-2.8.64.85-2.77,1.76-4.52,3.51-5.71.98,1.82.03,3.02-.72,5.07Z"/><path d="M192.8,133.61c-2.48-2.59-2.61-5.14-2.65-8.35,2.35,1.84,4.87,4.3,2.65,8.35Z"/><path d="M21.25,247.64c-.25-.69-8.83,12.76-10.29,11.81,2.1-5.54,6.13-8.73,9.26-13.69,1.17.01.81,1.3,1.03,1.88Z"/><path d="M264.24,161.33c.45,1.76-2.19.91-2.78-.4-1.63-3.59,3.38-1.57-.4-7.37,1.57-.73,3.78.96,3.71,2.95-.04,1.22-1.23,2.09-.52,4.82Z"/><path d="M212.49,127.97c-.26-2.87-.23-4.71-.01-7.6,1.88.77,2.36,1.91,2.42,3.18.1,1.96-.11,3.48-2.41,4.42Z"/><path d="M270.57,215.58c.27,1.85-2.08,1.98-2.84,1.67-.88-.36-2.48-2.03-1.47-3.21s4-.61,4.31,1.54Z"/><path d="M240.52,160.93c-2.15-.88-2.11,1.52-3.43,2.06-1.97-1.32-1.48-4.12-.58-5.29,1.03,1.14,1.83,1.69,3.21.96,1.29.39,1.86,1.82.8,2.27Z"/><path d="M153.08,163.53c-.38,1.97-1.99,1.79-1.04.07,1.01-1.15-.6-1.98-.86-2.75-.17-.49.49-1.46,1.05-1.81.67-.42,3.16-.18,2.6.97l-1.74,3.52Z"/><path d="M266.88,147.6c-4.37-.13-4.52-3.8-7.12-5.05-2.61-1.66-4.85-3.19-6.58-5.74,2.58-.91,3.39,1.28,4.68,2.67,3.47,2.59,6.95,4.38,9.03,8.12Z"/><path d="M250.45,171.25c-2.41-1.98-4.08-4.97-4.5-8.79,2.57,2.1,4.11,4.28,4.5,8.79Z"/><path d="M162,231.44c.19,1.48-.88,1.43-1.31,1.49-.75.1-1.72-.69-2.18-2.06-.4-1.19-.87-1.83.62-2.26.85.73,2.68,1.38,2.86,2.83Z"/><path d="M146.48,236.5c-1.69,1.7-3.33-.08-1.85-2.05.91-1.22,1.08-2.68,2.58-3.47,1.65,1.06.12,3.06-.72,5.52Z"/><path d="M216.73,155.31c-1.13-3.54-1.04-7.2-.09-11.41,1.13,3.54,1.04,7.2.09,11.41Z"/><path d="M371.54,235.71c-.54,2.04-1.66,1.22-2.4-.35-2.35-.49-3.92-1.78-2.47-4.6l4.87,4.95Z"/><path d="M46.41,238.01c-1.14-.35-1.49-1.24-1.6-1.78s.44-.85,1.82-.62c1.59-.53,1.47-1.74-.3-2.32-.94-.31-1.65-.94-1.58-1.57.09-.73,1.16-1.82,2.1-1.64.61,5.25,4.87,2.54,4.95,5.12.11,3.16-3.36-1.62-5.39,2.8Z"/><path d="M379.26,186.24c-1.8-2.53-3.5-2.21-4.31-3.11.91-.77,1.5-1.94,1.88-1.8.59.22,1.32,1.79,2.6,2.09,2.71.43,2.22,3.3-.17,2.81Z"/><path d="M232.25,130.97c.46,2.49-2.8,2.85-2.57.02-1.02-3-2.27-5.16-2.72-7.9-.49-2.95-3.7-4.14-3.49-7.67,2.8.87,3.17,3.42,4.4,5.62,4.11,7.36-.38,5.45,4.38,9.93Z"/><path d="M372.28,187.8c-.61-1.63,7.09,2.1,5.76,3.45-.74.75-2.04,2.03-2.61.89-.97-1.92-1.8-3.01-3.15-4.34Z"/><path d="M137.3,268.24c-1.14-3.1-1.05-6.38-.09-10.16,1.14,3.1,1.05,6.38.09,10.16Z"/><path d="M160.15,165.24c.23,1.57-4.76,2.06-4.97-.14,0-1.62,4.13-2.41,4.97.14Z"/><path d="M265.98,199.85c-3.4-.67-2.93-3.82-4.13-6.02-2.75-5.05-5.66-9.41-7.56-15.04,3.4.67,2.93,3.82,4.13,6.02,2.75,5.05,5.66,9.41,7.56,15.04Z"/><path d="M119.63,238.75c-1.22.37-1.77-1.11-2.26-1.41-1.07-.65.49-2.66,1.94-2.45,1.09.16,1.77,3.42.33,3.86Z"/><path d="M286.01,140.74c.65.5-.57,1.73-1.21,1.9-1.21.31-3.06-.44-2.78-1.99.16-.88,1.13-1.44,1.66-1.57.44-.11.85.52,2.33,1.66Z"/><path d="M214.36,100.61c-2.77-.35-4.19-2.69-5.84-4.95,3.14-.03,4.7,2.01,5.84,4.95Z"/><path d="M383.7,182.5c-2.81-.39-4.85-1.6-6.82-4.43,3.06-.21,5.31,1.79,6.82,4.43Z"/><path d="M85.92,279.15c-.04,2.85-1.4,3.28-1.58.54.64-2.52,1.07-4.3,1.94-6.68,1.48,1.44.66,3.62-.36,6.14Z"/><path d="M377.24,207.07c-2.35,2.37-5.79-6.37-8.56-7.9,1.13-.97,2.39-.59,3.13-.52.51.05.34,1.42.89,2.18l4.55,6.24Z"/><path d="M115.69,270.44c0,2.93-1.49,3.27-1.43.54-.26-2.76.08-4.51,2.26-5.42.72,1.79.06,2.98-.83,4.87Z"/><path d="M331.41,242.93c-2.12-.2-4.5-2.7-3.42-5.89,1.79.88,2.51,1.99,3.42,5.89Z"/><path d="M136.48,158.29c-.34,1.78-1.16,3.05-1.75,3.02-.63-.04-2.2-1.34-1.66-2.14.7-1.03.84-1.67,1.16-1.94.79-.69,2.63-.96,2.25,1.06Z"/><path d="M258.78,163.33c-2.04-.26-2.33-3.89-.68-4.09s2.27,1,2.61,1.54c.4.63.1,2.81-1.93,2.55Z"/><path d="M71.49,270.51c1.69.39-1.07,7.49-1.26,7.56-.68.25-1.8.04-1.69-.76l2.95-6.79Z"/><path d="M174.29,168.93c.68,1.81,1.57,3.96-.31,3.12-1.89-.91-3.15-1.12-2.67-3.46.32-1.55,2.33-1.4,2.98.34Z"/><path d="M340.85,218.75c1.32.49.55,2.19-.07,2.21-2.95.1-5.32.43-3.7-1.29.89-.95,1.53-1.74,3.76-.91Z"/><path d="M240.43,153.96c-2.11-1.91-3.46-3.61-3.05-6.35,2.2,1.58,4.02,4.09,3.05,6.35Z"/><path d="M58.59,234.47c-.59,2.31-1.62,1.01-1.63-1.22,1.01-.09,5.65-9.34,5.13-7.95.25-.67,4.21-2.95-3.5,9.17Z"/><path d="M372.82,228.03c.12,1.67,9.85,14.26,4.31,11-1.73-3.96-3.88-7.05-6.23-10.6.33-1.27,1.31-1.47,1.92-.4Z"/><path d="M217.33,107.65c-2.73-.75-3.27-2.4-4.96-4.15,2.31-1.16,4.81,1.67,4.96,4.15Z"/><path d="M59.02,250.02c-.02,1.71-1.76,1.59-2.3,1.34-.71-.33-.89-1.52-.33-2.13s2.65-1.06,2.63.79Z"/><path d="M370.5,207.78c.87-.86,1.57-.2,1.96.07,1.05.7,1.58,1.54.63,2.34-.85.71-1.86,1.41-2.6.79-.86-.72-.98-2.22.01-3.2Z"/><path d="M123.68,158.5c-.44-2.29,2.49-1.65,3.65-3.24,1.31.84.49,1.72.02,2.49-.67,1.1-3.44,1.96-3.67.75Z"/><path d="M126.12,161.66c1.32.49.55,2.19-.07,2.21-2.95.1-5.32.43-3.7-1.29.89-.95,1.53-1.74,3.76-.91Z"/><path d="M391.83,228.63c-1.09-7.7,13.13,14.53,6.28,9.14-1.42-3.71-3.1-6.73-6.28-9.14Z"/><path d="M136.85,167.6c-3.2.74-3.98-2.34-.88-2.61.78-.55,1.12-1.17,1.73-1.09.25,1.4.85,3.06-.84,3.71Z"/><path d="M311.69,261.14c-1.06.42-1.49-.17-1.82-.36-1.23-.71-.11-1.44.3-1.95.77-.95,1.3-.44,1.62.09.29.48.99,1.78-.1,2.21Z"/><path d="M107.65,187.39c-1.49,1.15-1.91,2.21-3.1,2.64-.88-2.31.87-2.82,2.26-4.46,1.13-1.25,1.97.7.84,1.82Z"/><path d="M406.8,202.32c-2.17.21-3.33-1.7-4.64-3.52,2.45-.57,3.76.84,4.64,3.52Z"/><path d="M388.6,221.77c-1.56.3-3.96-1.94-3.67-4.53,1.58.61,2.67,1.33,3.67,4.53Z"/><path d="M151.56,180.07c.03-2.46,1.05-3.7,1.71-6.39,1.53,2.16,1.34,5.33-1.71,6.39Z"/><path d="M335.54,212.2c.48,1.84,1.36,2.45.94,3.17-.4.69-1.16.92-1.87.63-.79-.32-.76-1.27-.55-2.52-.5-2.03.52-3.24,1.49-1.29Z"/><path d="M25.73,241.99c-1.49,1.15-1.91,2.21-3.1,2.64-.88-2.31.87-2.82,2.26-4.46,1.13-1.25,1.97.7.84,1.82Z"/><path d="M245.13,167.51c1.71,1.58.37,3.5-1.17,1.35-.59-.9-1.86-1.49-1.75-1.88.14-.46.97-1.04,1.25-1.34,1.03-1.09,1.02.71,1.67,1.88Z"/><path d="M72.11,295.48c0-2.58,1.27-3.83,1.72-6.4,1.52,2.18,1.34,5.34-1.72,6.4Z"/><path d="M131.84,284.35c.12,3.34-2.96,3.34-2.84,0,.07-1.87,2.77-1.87,2.84,0Z"/><path d="M287.76,215.96c-1.85-.54-3-2.74-1.8-4.7,1.06-.02,2.93,1.57,1.8,4.7Z"/><path d="M345.12,260.85c.3,4.65-10.6-21.49-6.71-17.68l6.71,17.68Z"/><path d="M388.6,231.7c-1.56.3-3.96-1.94-3.67-4.53,1.58.61,2.67,1.33,3.67,4.53Z"/><path d="M192.17,153.95c-1.84-.79-2.71-2.44-1.96-4.97,1.6.69,2.92,1.53,1.96,4.97Z"/><path d="M67.02,277.28c-.8,1.56-1.23-.04-1.39-1.96,1.04-.86,1.48-1.84,1.94-3.6,1.97,1.46.37,3.15-.55,5.56Z"/><path d="M73.24,248.17c.52,1.95-3.65,2.13-3.77.11-.09-1.64,3.19-2.27,3.77-.11Z"/><path d="M108.87,268.18c-.86,2.66-.65,3.97-1.04,6.28-1.73-.67-.78-2.26-1-3.91-.25-1.9.27-2.96,2.03-2.37Z"/><path d="M41.87,223.38c-1.49,1.15-1.91,2.21-3.1,2.64-.88-2.31.87-2.82,2.26-4.46,1.13-1.25,1.97.7.84,1.82Z"/><path d="M257.9,150.66c-3.06-1.13-3.3-3.3-3.16-5.49,2,1.21,2.99,2.73,3.16,5.49Z"/><path d="M111.24,274.43c-1.16-2.22-1.06-4.75-.12-7.65,1.16,2.22,1.06,4.75.12,7.65Z"/><path d="M219.87,142.77c1.25-2.15,2.69,9.47.21,7.63-.62-2.86-.24-4.85-.21-7.63Z"/><path d="M33.18,232.07c-1.5,1.15-1.91,2.21-3.1,2.64-.88-2.31.87-2.82,2.26-4.46,1.13-1.25,1.97.69.84,1.82Z"/><path d="M284.29,137.2c-1.3,1.3-3.31,1.04-4.89-1.28,1.25-1.25,3.34-.98,4.89,1.28Z"/><path d="M209.3,132.95c-1.16-2.22-1.06-4.75-.12-7.65,1.16,2.22,1.06,4.75.12,7.65Z"/><path d="M142.18,266.83c-1.27-1.05-.95-3.64,1.31-4.74,1.25.64,1.01,3.44-1.31,4.74Z"/><path d="M260.66,131.42c.4,1.5-1.08,1.79-1.78,1.45-.77-.37-.65-1.16-.7-2.95.6-1.36,1.68-.36,2.47,1.5Z"/><path d="M275.19,124.06c1.13,1.35-.72,1.58-2.75,1.36-1.62-2.19.46-3.69,2.75-1.36Z"/><path d="M281.76,145.07c.4,1.5-1.08,1.79-1.78,1.45-.77-.37-.65-1.16-.7-2.95.6-1.36,1.68-.36,2.47,1.5Z"/><path d="M24.01,252.61c-2.37,2.5-3.64,1.64-2.18-1.01,1.8-1.52,3.83-.87,2.18,1.01Z"/><path d="M305.99,209.71c-.4,2.76-1.27,2.88-2.49,1.44-1.68-2.37.75-3.87,2.49-1.44Z"/><path d="M139.77,235.78c-.87.06-.8-1.99-.62-2.88.14-.7,1.35-1.84,2.09-1.85,1.28,1.46-.63,1.98-1.46,4.73Z"/><path d="M63.49,250.06c-2.76-.4-2.88-1.27-1.44-2.48,2.37-1.68,3.88.75,1.44,2.48Z"/><path d="M208.7,163.66c1.07-3.86,2.76-6.66,2.92-11.08,1.29,3.46,1.17,8.4-2.92,11.08Z"/><path d="M310.96,210.95c-.4,2.76-1.27,2.88-2.49,1.44-1.68-2.37.75-3.87,2.49-1.44Z"/><path d="M294.77,246.76c-.58-1.09-1.11-2.32-2.14-3.78,1.35-1.6,1.89-.06,2.39.45.61.62,1.2,2.71-.24,3.34Z"/><path d="M94.99,244.63c-1.74,2.43-4.16.93-2.49-1.44,1.21-1.44,2.09-1.32,2.49,1.44Z"/><path d="M382.29,202.16c.41,1.5-1.07,1.79-1.77,1.45-.77-.37-.65-1.16-.7-2.95.6-1.36,1.68-.36,2.47,1.5Z"/><path d="M41.01,227.02c.76-1.67,2.08-2.51,3.48-3.7.78,2.13-.01,3.89-3.48,3.7Z"/><path d="M325.8,243.01c-.58-1.01-1.11-2.32-2.15-3.76,1.36-1.58,1.9-.06,2.37.43.72.75,1.16,2.67-.23,3.33Z"/><path d="M244.15,171.22c1.14,1.34-.72,1.58-2.74,1.36-1.62-2.19.46-3.69,2.74-1.36Z"/><path d="M93.09,236.91c.4,1.5-1.08,1.79-1.78,1.45-.77-.37-.65-1.16-.7-2.95.6-1.36,1.68-.36,2.47,1.5Z"/><path d="M132.85,141.81c-.03.87-1.19,1.67-2.35,2.54-1.51-.59-1.65-1.44-1.32-2.19s.96-.9,3.67-.36Z"/><path d="M203.95,257.11c-.16,2.41-1.34,2.93-1.84.43l-4.61-16.77c-3.38-12.32-14.01-46.68-11.69-57.18,4.78,26.26,10.26,48.02,18.14,73.52Z"/><path d="M186.41,259.44c1.03,6.7,2.72,13.06,3.74,20.1.02,2.53-1.57,2.73-1.39.13-.67-4.19-1.92-7.64-2.5-11.57l-3.82-25.98c-.44-3-2.18-5.54-.63-8.88,1.95,3.19,2.54,12.88,3.44,18.69l1.16,7.51Z"/><path d="M173.77,241.57c1.96-13.49,4.45,16.2,3.64,15.43-4.66-1.87-.42-6.64-3.64-15.43Z"/><path d="M166.79,297.83c-.37-5.1-1.48-17.75,1.5-23.58,1.68,3.53.24,7.26-.56,11.26s1.1,7.34-.93,12.31Z"/><path d="M174.62,268.4c-.85.91-.78,1.99-1.39,2.23-.82.31-1.61.11-2.21-1.35l3.13-3.42c.95-.66,1.85-.27,2.21.4.41.77.23,1.72-1.74,2.14Z"/><path d="M180.38,262.39c1.43-.62,2.17.27,2.14,1.24-.02.6-.12,1.58-1.12,2.35-.47.36-1.09-.1-1.78-.87-.94-1.04-.97-1.97.77-2.72Z"/><path d="M184.39,279.15c-3,.65-3.49-.15-1.71-2.23.03-1.71.58-1.3,1.19-.74.92.86,2.08,2.15.53,2.96Z"/><path d="M198.01,268.05c-.56,3.82-1.25,4.66-2.22,1.57-2.19-2.41.6-4.07,2.22-1.57Z"/><path d="M195.15,254.56c.13,3.34-2.97,3.34-2.84,0,.07-1.87,2.77-1.87,2.84,0Z"/><path d="M163.38,290.55c-1.16-1.76-1.08-3.93-.13-6.39,1.16,1.76,1.08,3.93.13,6.39Z"/><path d="M236.61,262.95c-1.66-10.66-.09-21.65-.78-33.26-.1-1.76-.88-3.28-1.1-5.06-.61-4.96.72-9.9-.29-14.76-.89-4.31-1.02-8.09-1.14-12.6-.12-4.36-4.21-20.81-1.52-22.39l1.36,10.13,1.2,9.91,1.33,12.27,1.14,13.81c1.14,13.73.74,26.93-.22,41.95Z"/><path d="M254.01,274.17c-1.63-4.12-.33-7.93-.56-12.25-2.18-3.97-.83-8.25-1.51-12.45-.39-2.37-3.86-28.92-1.58-28.65.82,4.94.07,9.21,2.1,13.69-1.28,4.48.03,8.36.68,12.59.58,3.76-.42,7.52,1.63,11.08l-.76,16Z"/><path d="M278.94,277.89c-2.12-2.24-1.74-5.51-3.21-8.61-.57-1.2-2.4-1.96-.7-3.83,2.32,3.14,4.74,6.6,3.9,12.43Z"/><path d="M263.47,266.65c1.51,1.53.69,3.24-1.21,1.77-1.91.01-4.48-.31-3.79-2.12.56-1.47,1.91-1.87,2.87-2s1.49.92,2.13,2.35Z"/><path d="M246.96,262.88c.48,1.31-.82,1.67-1.09,2.15-1.38,2.39-2.62-5.83-2.26-6.95,1.72.93,2.43,2.28,3.35,4.8Z"/><path d="M311.18,280.55c-2.11-1.91-3.46-3.61-3.05-6.35,2.2,1.58,4.02,4.09,3.05,6.35Z"/><path d="M247.28,247.12c.13,3.34-2.97,3.34-2.84,0,.07-1.87,2.77-1.87,2.84,0Z"/></g></svg>