<svg xmlns="http://www.w3.org/2000/svg" id="Layer_2" viewBox="0 0 433.3 322.1"><g id="Layer_1-2" fill="#e43122"><path d="M175 71c-4-.3-5.7-.1-8.3.4-1.8 1.6-3.9.1-2.3-1.5 4.7-.7 7.9-1.7 12-.3.7-3.4-11.2-.7-15.3-1.7-1.5.3-.2-.6.8-1.6 3.2-.9 6.6.4 9.6-1.1-4.4-1.9-8.1-.5-12.7-1 2.3-2.7 5.4-1.3 9-2.6-10.6-5.3-11.2 2.6-20.2 0l13-3.7c-6.8-4.3-20.4 5.7-17.2-.2 3.6-.7 7.2-1 10.3-2.3-6.7-6-8.2 4-14.7-1 2.6-1.7 4.9-.7 7.3-1.3 4.2-5.3-9.6 1.4-12.2-1.5 3.4-2.2 6.6-.2 9-2.7-5.7-1.7-10.2.5-15.3-2.2l9-1.2c-4-2.2-8.3-2.5-12.7-3.8 2.9-2 4.8 1.8 8.2 0 3.8.4-17.6-8.6-12.4-6.8-1-.3-.6-1.6.5-1.3 2.4.5 3.5 3 6.4 2.2-1.4-3-12.8-8-6.7-9.3-1.4-2.2-2-3.4-.5-7.5 5 2.9 8.5 7.8 9.7 14.7 2-.4.5-2.2 1.7-3.7 1.6-.2 3 13 6.3 7.5 1.8 2 2 5.4 5.8 6.2l-2.7-7.7c3.2.2 4.5 12.2 10 10.8-1.2-1.9-2.2-2.8-3.5-5.9-.3-2 1-.5 1.7.9 2 2.4 3 5.7 6 7.4l2.3-1c1.4 1.3 1.4 3 2.9 4 1-1.3-.2-2.6 1-3.8 1.9 2.6 2.5 5.6 5.4 7.6.9-2.5-.6-4-.9-6.7 2-2 2.3 7.7 6.3 9 .6-2.7-.2-4.8-1.3-7.3 1.4-.3 5.3 12 5.5 12.3 0-2-1.4-3.7.2-5.8l4.8 10.8c1-1.9-.4-3.8 1.8-3.6-.1 3.4-.2 8.7 3.1 10.4 4.4 0 9.1-2.8 14.7-1.6 1.8-3.3.3-6.4-.4-10.2 2 .3 1.5 2.3 3.2 3.8l.2-9.4c1 .7 1.4 1.8 2.7 1.9-.7-3.9-1.3-7.2-.9-10.5q3-.9 2 2c.2 2.6 1.8 2.8 1.3.1.6-3.5.7-6.7 2-10.3 2.4 2.5-.9 5.3 1.2 8.9 2-4.5 2.2-9.3 4.7-13.6L215 47.3c2.2-2.2 2-5.2 3.2-8l3.4-8.3-1.6 11.4c1.8-2.5 2.6-5.2 4.2-8.1 1-1.9-.4-4.5 2-6l.3 7.8 3.9-13.8 1.1 7.6c1.8-3.2 1.5-7 1.6-11.2.2-1.4 1.5-1.5 1.9 0 .7 2.6-1.1 4.7 0 7.6 3.2-4.2 1.3-13.6 4-14.6.8 2.2-.5 4.3 1.6 5.9 0-9.7 1.8-9.2 4.6-17.6 1.2 8.3 4.9 1 1.9 11.2 1.5 0 1.9-1.9 3.8-.8 1.2-2.1-11.3 13.2-7.3 10.9 1.2-1 2.5-2.4 4-2.1.4 1.8-1.3 2.6-2.9 3.1-2.8 1-3.5 3.7-5.1 5.6l-3.9 4.4c2.8.5 4-1.8 6.4-.5-3.5.8-6.4 1.7-10.5 4.5-1.4 1.2.6.6 1.9.2 2.6 1.2 4.9-.4 7.4-2.1 1.7.8.7 2-.5 2.6l-9.3 1.7q-2.7.7-3.6 3c4.2 1.4 7.6-1 12.2-.2-3 2.3-17 1.3-18.3 5.1l13.4-.2c-8 4.1-13.5 2.7-18.9 5.4 5.7 1 9.7-.8 15.2-.7-4.2 4.7-15 .4-20.3 7 4.8.9 8-2.2 12.8-.8-1.2 2.1-13.2.5-15.6 6.9 4.3-.6 12-5.6 14.4-2.5-4 1-7.4.1-10.2 3.5.8.6 2.1-.2 3.8 1.4a20 20 0 0 0-10.6 9c8.7 3.4 10 3.2 10.8 12.5L230 98.7c-1-.8 23.3 7.2 26.4 8.5l13.4 5.5 13.7 6.4 14.2 6.5 20.2 9.7q5.6 2.7 11.6 4.7a282 282 0 0 1 55 29.4l12.2 10c11.7 9.6 29 23.6 34.8 38 5.5 13.7-2.5 24.1-14 30l-32 16c-17.8 9-29.5 9-49.8 7.2-3.6 22-33.8 32.6-52.3 34.1a44 44 0 0 1-30.7-8.5c-3.8-2.8-8.6-4.2-12.1-7.8-.7-.7-2-.4-2.5 0-1.4 1.3-.3 7.3-5.4 11.4-3.6 1-.7-10.3 2.1-13.2l-9-9.6-4.3-10.3c.3 6.8-2 12.6-5 18.8-.2 2.4 2 5.2 3.3 6.8l2.2-2c1 3.7 1.7 6.2 4 8.5-9 2-7.5-.5-13.7-7.6-7.8 10-18.4 21.3-29.5 25.6-7.8 3-16.4 5.8-25 5.2q-13.8-.9-26.8-3.9c-16.3-3.7-16.6-18.3-22.5-16-22 8.5-33.4 5.9-56 3.1-11.5-1.4-33-5-42.2-11-23.7-15.6-.4-45.5 9.2-60 5-7.5 9.4-15 15.6-21.7 12-12.7 32.4-31.6 46-42.1l24.6-18.8c4.7-3.6 8.8-7.7 13.6-11 4.2-3 7.6-6.5 11.7-9.5l22.2-16.4c3.5-2.6 8.8-3.8 11.4-7.3 3.3-4.5 7.8-8.9 10.3-13.7 1.4-2.8-.6-9.4 4.3-11.5 1-.5 2.9-3.4 2-4-3.2-3-7.8-3.5-12.3-4-1.4.5-1.5-.6-.3-1.2 1.3-1.9 6.2.7 6.5-2Zm32.6 15.7a11 11 0 0 1-5.7-8.2c-4.5-3.2-12.4-3-15.3 2.2-1.4 2.5 0 5.7-.9 8.3a62 62 0 0 1 21.9-2.3m15.3 109.5-9.1-1.6c-.6-.1.1-1.5.4-1.6s.7.2 1.3-.2l4-6.3c-1 3.6.6 6.3 2 3q.2-2.9.8-1c.5 1.5 1.5 1.4.3.5.5-4.4 1.3-8.6 0-12.5-3.6 0-6.3.6-9.3-1.4 2.7-2.6 5.4-3.2 9-4.4-.1-5.8.2-11.7-.7-17.5-1-6.4 2.6-2.1 1-15.5a387 387 0 0 0 42.9 83.8c8.9 14.5 26.5 37 42.9 42.3 8.7 2.9 17.7 2.6 26.8 3.4 7.3.5 23 1.9 28-3 3.6 0 7 .4 10.5-1.3l12.5-5.8q6-2.9 12-5.5c15-6.7 23.3-6.8 30.5-21.4 2-4 2.4-7 .6-11.4-1.2-3-2-5.7-5.9-6.9-2.7-.8-6.7-2.7-7.2-5.7-.3-1.6 2-3.6-.7-5-.6-.2-1.8-.2-2 .5-.2.4 1 1.1 1.5 1.5 1.3 1 .8 2-.6 2.3L406 198c1.2-1.4 3-.2 4.2 1.7 1 .8 2.7 0 1.5-1.3-2.6-1.2-3.7-3.3-5.4-5l-8.7-8.7c-3-3-6.5-5-9.7-7.8a267 267 0 0 0-54.3-30.9l-9-3.7-18.7-8.3q-8-3.8-16-7.7l-14.7-6.6a431 431 0 0 0-41.8-16.5c-1.7-.4-5.5.3-5.4 2.2l4 7.7c-3.2.2-2.1-2.8-3.4-3.8q-3.9-3-5.4-6.8c2 .3 2.9.1 2.4-1.5a29 29 0 0 0-27-11C181 91.8 174.3 98 167 113.7c-3-.4-5.8.8-8.5 2.8L148 124c-6.4 4.7-12.2 9.3-18.5 14.2l-43.8 34c-4.5 3.5-9.1 6.6-13.2 10.7q-4.7 4.5-9.8 8.8a172 172 0 0 0-36.4 39l-16 25.1c-3.8 6-8.7 23.3-3.8 29.4 3.2 3.8 7.9 6.6 12.6 8.2 13.3 4.3 26.7 5.7 40.3 8.4a88 88 0 0 0 41.7-.9q14.3-3.8 27.8-9.7c13.5-5.9 18.8-16.7 23.3-26 2.8-5.5 5.8-10.5 7.4-16.6.7-2.6 2.4-4.8 3.4-7.4 2.7-7.2 4.6-14.3 7-21.8 3.3-11 7-21.7 8.4-33.3 1.9-15.8 7.1-30.4 4.3-44 3.2-1 3.5 6.7 5.8 10.2-3 3.5-1.4 6.5.5 9.6 2.3 3.9 1.4 9 4.1 12.7 1.7 2.3 5.6 1 7.5-.1q1.5 1.6 4.4 2.2c-2.6 2-6.5 2.5-9.6 4-1 3.9 1 8.8 3.6 12.2 1.7-1.1.4-3 1.6-4.3 1 1.5.8 3.2 2.2 3.3.6 0 1.9-1 2.4-.4 1 1 1.3 3 1.3 4.3l-6.8 2.8c3.1 7.9 3 10.3 7 16.1 1.5-2.5-.2-3.8.8-6.3q2.6.9 1 4.3c1.2 1.6 1.7.5 1.2-2 1-1.8 2 0 1.2 1.6.5 3.2 0 5.6-3.9 6.5 1.7 4.3 2.1 9.4 5.4 13.1 1.4 1.5 7 1.6 7.8-.2 2-4.8 1.3-10.3 1.9-15-2.6-.9-4.2-.8-6.2-1.8 1-2 1.4-3 1.6-5.1 1 .6 1 1.6 2 2 3-4.6 3.8-9.9 3.3-15.6Zm108.8 75.4c-16.2-4.9-16.2 1.9-34.2-9-10.1-6-17.7-13.6-24.5-23-5-6.8-10-13-14-20.5-5.3-9.7-9.9-15-15.2-25.4l1.4 10.3c.3 1.9 2 3.6-.5 4.7.5-4.5-1.8-7.8-2.1-11.7-.5-5-1.5-9-4-13.3-6-10.2-10.2-20.5-14.8-31.2 2.8 27.4 3.4 47 1.5 74.7-.9 11.5-1.8 22.9-1 34.2a25 25 0 0 0 12.3 19.5l13.5 9c5.3 3.5 10.3 7.9 16.8 9 17 3.2 6.6 2.8 23.6 1 8-.7 14.6-4.8 21.7-7.7 2.7-1.1 4.3-3 6.5-4.5 9.5-6.6 6-5.6 13-16.1Zm-197.4 43.2c17.4 4 34.1 5.6 50-2.8 4.5-2.4 7.4-5.5 10.8-9.2s7.6-6 10.6-10.2c10.7-15.1 13.9-16.1 10.7-34.7-1.5-8.7-5-16-8.6-23.8a369 369 0 0 1-21-71.6c-.9 4.5-2.5 9.1-2.4 14 0 5.9-4 16.1-3.8 22.3 0 8.5 2.8 16.7 0 24.8-1.8-5.4.6-10.3-2.2-16.3-9 24.8-17.2 62.3-39.6 81.7-6.7 5.9-15.7 7.8-24.5 12.2 7.1 3 8.2 11 20 13.6m86-77.2c-1.3-1.3-5 .7-6.1 1.5l5 14.2c-.2-6.8 3.6-13 1.1-15.7"/><path d="M65 204c-2.4-.6-1.3-1.6-.1-2.5l14.4-13 13.9-11 11-10c1.7-1.5 13.9-9.8 18.7-13.7 9.6-7.8 16-13 27-21.3-1 4-5 5.6-8 8l-17.7 14.6c-.2.1-14.3 10.6-13.4 10.2-6.2 2.7-9.3 7.7-14.4 11.8l-13 10.4c-6.2 5-12.1 9.6-18.4 16.5ZM154.6 229.7c-1.1-1.6-.6-3.2-.2-4.6 2.4-7.5 3.1-15 5-22.6l3.5-13.7c2.7-10.8 5-21 7.8-31.4 2.2 2.7-3.6 19.8-5 25.6l-5.1 23.3c-1.8 8.3-3 16-6 23.4M111 205c-1.2-2 .4-3.4 1.7-4.2 4.5-3 6.8-7.2 10-11.1q8-9.6 15-19.7l13.5-18.9c.6-.8 0-2 1-2.1q1.2-.3 1.8.6c.2.3-11 16.5-12.7 18.9l-11.4 16c-5.5 7.7-12.3 13.9-18.9 20.5M327.4 183c1 2.1 3.5 1.5 5.5 1.7-.5 1.6-2.4 2-3.4 2.4-.8-1.4-2.6-1.6-3.6-2.9a8.5 8.5 0 0 1 .8-10.5c1-1 10.1-6.7 12.4-3.7.8 1 .3 3 2.2 4-5.8.2-9.9 3.7-11.4 10.3-3-1.9-.7-4.9-2.8-6.7a6 6 0 0 0 .3 5.4m4.7-6.6c-.4-2.8-1.3-2.9-2.5-1.5-1.7 2.4.7 4 2.5 1.5M92.3 209.7c-1.6 2.5 2.7 6.4-.4 7.9-.9.4-2.2 0-2.7-1.6-.5-1.8 0-3.8-.9-5.1-1.9-1.3-4.2-1.1-6.3-2.1-1.8-2.5-4-2.4-7.5-3.2 8.1-4.8 6.4-2.1 13-2.5 5.1-.2 7.7 7.4 7.7 7.4-.2 1.3-.4 2.6-2 3.1-.2-1.8.6-3.2-.9-3.9m-1.7.1c.2-3.4-1.6-4.2-3.7-3.4 1.1 1.4 2 2.7 3.7 3.4M298 170.7c1.3 1 1.5 1.6-.3 2.5-1.9-3.4-5.2-4.2-7.9-6.2l-8.6-6.3-13-11.1c1.7-.6 2-1.7 3.1-2.5 5.6-4 13.7 7 2.5.8-.7-.4-2.8.8-2.6 1.8l13.6 11.4zM183 112.7c-.4-.6 8.6 17.6 5 15.9-3.3-2.5-4.6-6.2-4.7-10.5s-5.7-1.2-1-15.6c.5-2.5 1.7-2 1.6.4-.6 3.2-2.6 6.8-1 9.8M98.6 294.1q-.9-5-.2-11l1.3-11c.6-4.6 2.3-8.5 2.7-12.8 1.7 4 .5 7.7-.5 11.3-2.4 8.9 0 10.8-3.3 23.5ZM125.8 262.1c-.6 1.9-1.3 19-4.3 16l3.4-19.2c.5-2.7 2-5.2 1.7-8.7-.3-2.7 3-2.8 2.5-.2zM337.7 158.7c-4.2.2-7.5-1.8-10.9-3.9-6-3.5-12.3-5.4-17.3-9.4 7.7 1 12.4 5.8 18.8 8.1 3.2 1.2 6.6 2.2 9.4 5.2M284.2 130.1c-3.7 0-4.5 1.3-1.7 1.6.8 2.2 20.5 7.8 18.9 10-15.4-4.6-27.6-12-41.1-18.3-2.6-1.2-6.2-.8-7-4.6 2.8 1.2 26.5 11.5 25.6 11.5 1 0 1.3-1 2.4-2s2.9.7 3 1.8M75.2 287.8c-3.5.3 5.2-23.1 6.3-24.7 1.1 1.7.3 3.1.2 4.6zM355.6 229.2c1.6 5.1 9.8 13.7 8.9 19.4-4.5-8.4-9-15.9-15-23.5 3.4-.2 3.7 3 6 4.2M309 233.5c1.2 1.3 9.5 14.4 7.3 16.1-3.7-5.2-6.4-10.6-9.2-16.6-1.4-2.8-4.4-4.8-4-8.5 3.3 2.3 3.3 6.2 6 9M357.2 168.2c-10-.5-9.3-5.2-16.3-6.9-1.4-.8.2-1.4 1.7-1.3zM174.2 117.2c-3 6.1-3.5 11.6-4.7 17-1.9-6.4.8-12 2.9-18.2.6-2.6 1.7-1.6 1.8 1.2M130.9 268.8c-4.5 3.9.8-13.3 1.6-15.2 2.3-.6 2.1 1.3.7 2.6-.4 4.2-.8 8.4-2.3 12.6M167 124.1c-3 3 5-21.7 6.6-17.8-1.8 6.3-3.9 11.5-6.6 17.8M231.5 124.1c.1-2.4-9.4-15.4-6-14.6 1.2-1.4 8.1 13 6 14.6M227.9 144.2l-2-8.9c-.6-3-2-5.5-.7-8.8a23 23 0 0 1 2.7 17.6ZM180.4 148.4c-3.8.8-3.3-19.5-2-18.2.9 4.6-.2 8.5 1.8 12.7-.9 2 1.7 3.2.2 5.5M49.7 246.3c-3 1.3-5.4 2.4-5.7.8 0-2 1.1-3.7 2-5.5q1.3 3.1 3.7 4.7M295.3 154c.6-1.8 11.7 6.6 11.4 5.6 1.5 5.6-10.8-3.9-11.4-5.6M148.3 177.7c-.3-2.5-1.4-3.7-2.2-5.5-.4-1 1.5-2.3 2.8-2.6.1 2 1.3 3.5 2 5.3.2.7-.8 2.4-2.6 2.8ZM134.7 203.7a23 23 0 0 1 1.5-14.8c1.3 6.3-.2 10.4-1.5 14.8M20.6 279.4c-3.8 0 9-25.6 10.1-27.9 1.3-2.5.7-6.2 4.5-7l-9.4 20.8zM216.6 122.9c-1.8-3.8-2.2-7.6-3.1-12.4 1.7-2.8 5.2 10.9 3 12.4M283 176.7c.7 1.2 0 2.5-1.6 1.5-1-5-4.4-8.6-4.1-13.2 3.5 3.5 3.2 8 5.6 11.7M273 141.3c-.6.7-2-1.2-2.2-1.9-.3-.8 4.3-5.7 3.1-5 .4-.3 2-.3 2 1-.1 1.9-1.4 3.4-3 5.8M38 288c-2-3.8.3-7 1.3-10.4 2.2-1.4 1.2-10 3.7-9.4 2.6.7-4.6 14.8-5 19.7M173 140.2c-.8-4.1-.4-8.7-.2-13.6 2.3-2 3.1-.2 1.6 1.7zM58 287.9c-2-3.3-.1-6.3 1-9.3 1-4.4 1.8-8.3 4-11.9 1.2 3-.3 5-.9 7.5-2.5 4.4-2.9 8.7-4.2 13.7M194.9 151.5c1.2-2.5 6.3 10.5 4.7 10.1q-4.2-4-4.7-10.1M301.8 233c1 5.2 3.9 3.1 5.7 12.5-4-2.5-4.1-8.8-8.3-12.7.5-1 2.3-1.1 2.6.3ZM254.8 163.3c-.4 1.3-4 1-3.9-.3q.6-2.9 1.9-4.8c1.8 1 2.7 3 2 5.2M412 221.8a10 10 0 0 1-6-8.4c2.8 2 4.1 3.4 6 8.4M43.1 266.9l5.5-14.9c1.5-4 4-7.8 5.3-12.5 2-2 3-.1 1.3 1.6-.4 3.1-2.6 5.2-3.6 7.8L47 260.5c-1 2.4 0 5.8-3.8 6.4M205 163c.1 5.6-6.2-9.6-4.8-9.3a15 15 0 0 1 4.8 9.3M78.3 250.4c.6 3.3-2.3 4.2-2.6 1 2-2 .8-3.6-1.2-5q1.1-1.6 3 .3c.5.5 2 .1 1.8.9zM154.2 232.6c0 2.2-1 3.7-1.9 4.4-.6.5-1.3.9-3-.3.7-1.7 2.4-2.7 3.4-4.4.2-1.8 1.4-1.6 1.5.3M48.7 275.6c.2 3.2-2.8 3.5-2.8.6q1-4 3.5-5.7c1 1.8 0 3-.8 5M192.8 133.6c-2.5-2.6-2.6-5.1-2.6-8.3 2.3 1.8 4.8 4.3 2.6 8.3M21.3 247.6c-.3-.7-8.9 12.8-10.3 11.8 2-5.5 6-8.7 9.2-13.6 1.2 0 .8 1.3 1 1.8M264.2 161.3c.5 1.8-2.1 1-2.7-.4-1.7-3.6 3.3-1.5-.4-7.3 1.5-.8 3.7 1 3.7 3 0 1.1-1.3 2-.5 4.7ZM212.5 128c-.3-2.9-.2-4.7 0-7.6 1.9.7 2.3 1.9 2.4 3.1.1 2-.1 3.5-2.4 4.5M270.6 215.6c.2 1.8-2.1 2-2.9 1.7s-2.4-2-1.4-3.3 4-.6 4.3 1.6M240.5 161c-2.1-1-2 1.5-3.4 2-2-1.3-1.5-4.1-.6-5.3q1.3 1.8 3.2 1c1.3.4 1.9 1.8.8 2.2M153 163.5c-.3 2-2 1.8-1 .1 1-1.1-.6-2-.8-2.7-.2-.5.5-1.5 1-1.9.7-.4 3.2-.1 2.6 1zM266.9 147.6c-4.4-.1-4.5-3.8-7.1-5a21 21 0 0 1-6.6-5.8c2.6-.9 3.4 1.3 4.7 2.7 3.4 2.6 7 4.4 9 8.1M250.5 171.3q-3.8-3-4.6-8.8c2.6 2 4.2 4.2 4.5 8.8M162 231.4c.2 1.5-.9 1.5-1.3 1.5q-1.3 0-2.2-2c-.4-1.2-.9-1.9.6-2.3.9.7 2.7 1.4 2.9 2.8M146.5 236.5c-1.7 1.7-3.4 0-1.9-2 1-1.3 1.1-2.7 2.6-3.5 1.7 1 .1 3-.7 5.5ZM216.7 155.3q-1.6-5.2 0-11.4 1.5 5.2 0 11.4M371.5 235.7c-.5 2-1.6 1.2-2.4-.3-2.3-.5-3.9-1.8-2.4-4.6zM46.4 238c-1.1-.3-1.5-1.2-1.6-1.8s.4-.8 1.8-.6c1.6-.5 1.5-1.7-.3-2.3q-1.6-.6-1.5-1.6c0-.7 1.1-1.8 2-1.6.7 5.2 5 2.5 5 5.1.1 3.2-3.4-1.6-5.4 2.8M379.3 186.2c-1.8-2.5-3.5-2.2-4.4-3 1-.8 1.6-2 2-1.9.5.2 1.3 1.8 2.5 2.1 2.7.4 2.3 3.3-.1 2.8ZM232.3 131c.4 2.5-2.9 2.8-2.6 0-1-3-2.3-5.2-2.7-8-.5-2.9-3.7-4-3.5-7.6 2.8.9 3.1 3.4 4.4 5.6 4 7.4-.4 5.5 4.3 10M372.3 187.8c-.6-1.6 7 2.1 5.7 3.5-.7.7-2 2-2.6.8-1-1.9-1.8-3-3.1-4.3M137.3 268.2q-1.6-4.5 0-10.1 1.5 4.5 0 10.1M160.2 165.2c.2 1.6-4.8 2.1-5-.1 0-1.6 4.1-2.4 5 .1M266 199.9c-3.4-.7-3-3.9-4.1-6-2.8-5.1-5.7-9.5-7.6-15.1 3.4.7 3 3.8 4.1 6 2.8 5 5.7 9.4 7.6 15M119.6 238.8c-1.2.3-1.7-1.2-2.2-1.5-1.1-.6.5-2.6 2-2.4 1 .2 1.7 3.4.2 3.9M286 140.7c.7.5-.6 1.8-1.2 2-1.2.3-3-.5-2.8-2 .2-1 1.2-1.5 1.7-1.6s.8.5 2.3 1.6M214.4 100.6c-2.8-.3-4.2-2.7-5.9-5 3.2 0 4.7 2 5.9 5M383.7 182.5a9 9 0 0 1-6.8-4.4c3-.2 5.3 1.8 6.8 4.4M86 279.2c-.1 2.8-1.5 3.2-1.7.5.7-2.5 1.1-4.3 2-6.7 1.5 1.4.6 3.6-.4 6.1M377.2 207c-2.3 2.4-5.7-6.3-8.5-7.8 1.1-1 2.4-.6 3.1-.6.5.1.3 1.5.9 2.2zM115.7 270.4c0 3-1.5 3.3-1.4.6-.3-2.8 0-4.5 2.2-5.4.7 1.7 0 3-.8 4.8M331.4 243a4.4 4.4 0 0 1-3.4-6c1.8 1 2.5 2 3.4 6M136.5 158.3q-.7 2.9-1.8 3c-.6 0-2.2-1.3-1.6-2.1q.9-1.5 1.1-2c.8-.7 2.7-1 2.3 1M258.8 163.3c-2-.2-2.4-3.9-.7-4s2.3 1 2.6 1.5.1 2.8-2 2.5M71.5 270.5c1.7.4-1 7.5-1.3 7.6-.7.2-1.8 0-1.7-.8zM174.3 169c.7 1.7 1.6 3.9-.3 3s-3.2-1-2.7-3.4c.3-1.6 2.3-1.4 3 .3M340.9 218.8c1.3.4.5 2.1-.1 2.2-3 0-5.3.4-3.7-1.3.9-1 1.5-1.8 3.7-1ZM240.4 154c-2-2-3.4-3.6-3-6.4 2.2 1.6 4 4.1 3 6.4M58.6 234.5c-.6 2.3-1.6 1-1.6-1.3 1 0 5.6-9.3 5-7.9.3-.7 4.3-3-3.4 9.2M372.8 228c.1 1.7 9.9 14.3 4.3 11-1.7-4-3.9-7-6.2-10.6.3-1.2 1.3-1.4 2-.4M217.3 107.7c-2.7-.8-3.2-2.4-5-4.2 2.4-1.2 4.9 1.7 5 4.2M59 250c0 1.7-1.7 1.6-2.3 1.4-.7-.4-.9-1.6-.3-2.2s2.6-1 2.6.8M370.5 207.8c.9-.9 1.6-.2 2 0 1 .7 1.5 1.6.6 2.4s-1.9 1.4-2.6.8c-.9-.7-1-2.2 0-3.2M123.7 158.5c-.5-2.3 2.5-1.6 3.6-3.2 1.3.8.5 1.7 0 2.4-.6 1.2-3.4 2-3.6.8M126.1 161.7c1.3.5.6 2.2 0 2.2-3 0-5.4.4-3.7-1.3.8-1 1.5-1.8 3.7-1ZM391.8 228.6c-1-7.7 13.2 14.6 6.3 9.2a19 19 0 0 0-6.3-9.2"/><path d="M136.9 167.6c-3.3.7-4-2.3-1-2.6q1-1 1.8-1.1c.3 1.4.9 3-.8 3.7M311.7 261.1c-1 .5-1.5-.1-1.8-.3-1.3-.7-.1-1.5.3-2 .7-1 1.3-.4 1.6.1s1 1.8-.1 2.2ZM107.7 187.4c-1.5 1.1-2 2.2-3.1 2.6-1-2.3.8-2.8 2.2-4.4 1.1-1.3 2 .7.9 1.8M406.8 202.3c-2.2.2-3.3-1.7-4.6-3.5q3.4-.7 4.6 3.5M388.6 221.8c-1.6.3-4-2-3.7-4.6 1.6.7 2.7 1.4 3.7 4.6M151.6 180c0-2.4 1-3.6 1.7-6.3 1.5 2.1 1.3 5.3-1.7 6.4M335.5 212.2c.5 1.8 1.4 2.5 1 3.2q-.7 1-1.9.6-1-.6-.5-2.5c-.5-2 .5-3.3 1.4-1.3ZM25.7 242c-1.5 1.1-1.9 2.2-3 2.6-1-2.3.8-2.8 2.2-4.4 1.1-1.3 2 .7.8 1.8M245.1 167.5c1.7 1.6.4 3.5-1.1 1.4-.6-1-1.9-1.5-1.8-2 .2-.4 1-1 1.3-1.3 1-1 1 .7 1.6 2M72.1 295.5c0-2.6 1.3-3.8 1.7-6.4 1.6 2.2 1.4 5.3-1.7 6.4M131.8 284.4c.2 3.3-3 3.3-2.8 0 0-2 2.8-2 2.8 0M287.8 216c-1.9-.6-3-2.8-1.8-4.7 1 0 2.9 1.5 1.8 4.7M345.1 260.9c.3 4.6-10.6-21.5-6.7-17.7zM388.6 231.7c-1.6.3-4-2-3.7-4.5 1.6.6 2.7 1.3 3.7 4.5M192.2 154q-3-1.2-2-5c1.6.7 3 1.5 2 5M67 277.3c-.8 1.5-1.2 0-1.4-2q1.4-1 2-3.6c2 1.5.3 3.2-.6 5.6M73.2 248.2c.6 2-3.6 2.1-3.7 0-.1-1.6 3.2-2.2 3.7 0M108.9 268.2c-.9 2.6-.7 4-1 6.3-1.8-.7-.9-2.3-1-4-.3-1.9.2-3 2-2.3ZM41.9 223.4c-1.5 1.1-2 2.2-3.1 2.6-1-2.3.8-2.8 2.2-4.4 1.2-1.3 2 .7.9 1.8M257.9 150.7c-3-1.2-3.3-3.3-3.2-5.5 2 1.2 3 2.7 3.2 5.5M111.2 274.4q-1.6-3.3 0-7.6 1.5 3.3 0 7.6M219.9 142.8c1.2-2.2 2.7 9.4.2 7.6-.6-2.9-.3-4.8-.2-7.6M33.2 232c-1.5 1.2-2 2.3-3.1 2.7-.9-2.3.8-2.8 2.2-4.5 1.2-1.2 2 .7.9 1.9M284.3 137.2c-1.3 1.3-3.3 1-4.9-1.3 1.3-1.2 3.3-1 4.9 1.3M209.3 133q-1.6-3.4-.1-7.7 1.6 3.3.1 7.6M142.2 266.8c-1.3-1-1-3.6 1.3-4.7 1.2.6 1 3.4-1.3 4.7M260.7 131.4c.4 1.5-1.1 1.8-1.8 1.5-.8-.4-.7-1.2-.7-3 .6-1.3 1.7-.3 2.5 1.5M275.2 124c1.1 1.4-.7 1.6-2.8 1.4-1.6-2.2.5-3.7 2.8-1.3M281.8 145c.4 1.6-1.1 1.9-1.8 1.5-.8-.4-.7-1.1-.7-3 .6-1.3 1.7-.3 2.5 1.6M24 252.6c-2.4 2.5-3.6 1.7-2.2-1 1.8-1.5 3.9-.9 2.2 1M306 209.7c-.4 2.8-1.3 2.9-2.5 1.5-1.7-2.4.8-4 2.5-1.5M139.8 235.8c-.9 0-.8-2-.7-2.9.2-.7 1.4-1.8 2.1-1.8 1.3 1.4-.6 2-1.4 4.7M63.5 250c-2.8-.3-2.9-1.2-1.4-2.4 2.3-1.7 3.8.7 1.4 2.5M208.7 163.7c1-3.9 2.8-6.7 3-11.1 1.2 3.4 1 8.4-3 11M311 211c-.4 2.7-1.3 2.8-2.5 1.4-1.7-2.4.7-3.9 2.5-1.5M294.8 246.8q-.7-1.7-2.2-3.8c1.4-1.6 2 0 2.4.4.6.6 1.2 2.7-.2 3.4M95 244.6c-1.8 2.5-4.2 1-2.5-1.4 1.2-1.4 2-1.3 2.5 1.4M382.3 202.2c.4 1.5-1 1.8-1.8 1.4-.7-.4-.6-1.2-.7-3 .6-1.3 1.7-.3 2.5 1.6M41 227c.8-1.6 2-2.5 3.5-3.7.8 2.2 0 4-3.5 3.7M325.8 243q-.8-1.5-2.1-3.8c1.3-1.5 1.9 0 2.3.5.7.7 1.2 2.7-.2 3.3M244.2 171.2c1 1.4-.8 1.6-2.8 1.4-1.6-2.2.5-3.7 2.7-1.4M93 237c.5 1.4-1 1.7-1.7 1.4-.8-.4-.6-1.2-.7-3 .6-1.4 1.7-.4 2.5 1.5ZM132.9 141.8c0 .9-1.2 1.7-2.4 2.5-1.5-.5-1.6-1.4-1.3-2.1s1-1 3.7-.4ZM204 257.1c-.2 2.4-1.4 3-1.9.4l-4.6-16.7c-3.4-12.4-14-46.7-11.7-57.2 4.8 26.3 10.3 48 18.1 73.5M186.4 259.4c1 6.7 2.7 13.1 3.7 20.1 0 2.6-1.5 2.8-1.3.2-.7-4.2-2-7.7-2.5-11.6l-3.9-26c-.4-3-2.1-5.5-.6-8.9 2 3.2 2.6 13 3.5 18.7zM173.8 241.6c2-13.5 4.4 16.2 3.6 15.4-4.7-1.9-.4-6.6-3.6-15.4M166.8 297.8c-.4-5-1.5-17.7 1.5-23.6 1.7 3.6.2 7.3-.6 11.3s1.1 7.3-.9 12.3M174.6 268.4c-.8 1-.8 2-1.4 2.2q-1.2.6-2.2-1.3l3.2-3.4q1.5-.9 2.2.4c.4.7.2 1.7-1.8 2.1M180.4 262.4c1.4-.6 2.1.3 2.1 1.2 0 .6-.1 1.6-1.1 2.4q-.7.4-1.8-.9-1.7-1.6.8-2.7M184.4 279.2q-4.4.9-1.7-2.3c0-1.7.6-1.3 1.2-.7.9.8 2 2.1.5 3ZM198 268q-.8 6-2.2 1.6c-2.2-2.4.6-4 2.2-1.6M195.2 254.6c0 3.3-3 3.3-2.9 0 0-2 2.8-2 2.8 0M163.4 290.6q-1.7-2.7-.2-6.4 1.7 2.6.2 6.4M236.6 263c-1.6-10.7 0-21.7-.8-33.3 0-1.8-.8-3.3-1-5-.7-5 .7-10-.4-14.8-.8-4.3-1-8.1-1.1-12.6s-4.2-20.8-1.5-22.4L233 185l1.2 10 1.4 12.2 1.1 13.8c1.2 13.7.8 27-.2 42ZM254 274.2c-1.6-4.1-.3-8-.6-12.3-2.1-4-.8-8.2-1.5-12.4-.4-2.4-3.8-29-1.5-28.7.8 5 0 9.2 2 13.7-1.2 4.5 0 8.4.7 12.6.6 3.8-.4 7.5 1.7 11zM279 277.9c-2.2-2.2-1.8-5.5-3.3-8.6-.5-1.2-2.4-2-.7-3.9 2.4 3.2 4.8 6.7 4 12.5M263.5 266.7c1.5 1.5.7 3.2-1.2 1.7-2 0-4.5-.3-3.8-2.1.5-1.5 1.9-1.9 2.8-2s1.5 1 2.2 2.3M247 262.9c.4 1.3-.9 1.7-1.1 2.1-1.4 2.4-2.7-5.8-2.3-7 1.7 1 2.4 2.4 3.4 4.9M311.2 280.6c-2.1-2-3.5-3.7-3-6.4 2.1 1.6 4 4 3 6.4M247.3 247.1c.1 3.4-3 3.4-2.9 0 .1-1.8 2.8-1.8 2.9 0"/></g></svg>