<?xml version="1.0" encoding="UTF-8"?><svg id="Layer_2" xmlns="http://www.w3.org/2000/svg" viewBox="0 0 435.65 441.78"><g id="OpenNoTape"><g id="lo7ltt.tif"><path d="M142.4,161.26c3.86,11.14,7.89,21.96,8.82,34.02-2.67,1.76-1.45-7.78-2.96-7.79l-1.13,6.87c-.67,4.09-1.38,8.4-4.54,11.94-.68.77-1.69-1.41-1.55-2.36l1.84-12.29c2.36-15.79-9.78-24.83-17.72-38.66-1.92-3.35-4.27-6.28-6.49-9.47l-3.56-5.11c-2.77-3.97-5.28-7.72-7.94-11.75l-9.83-14.9c-2.57-3.9-5.51-7.25-8.18-10.99-3.22-4.51-5.51-9.46-8.44-14.17l-8.35-13.43c-1.59-2.55-2.59-5.28-4.4-7.75-2.21-3-3.13-6.4-4.83-9.59l-4.57-8.6-3.59-7.26-5.02-8.19c-5.54-9.04-11.65-18.87-20.47-24.51-2.98-1.91-7.51-4.79-10.7-4.33-.62.09-.36.99-.72,1.62-.64,1.13-2.14.11-3.45.19-5.43.34-11.17,4.88-11.26,10.68,4.34,12.45,6.89,14.13,13.81,24.42,2.05,3.05,2.36-4.83,7.53-5.68-.69,1.39-4.73,4.88-4.17,7.21.44,1.83,8.51,1.06,13.23-5.2,1.34-1.77,1.58-3.99.75-6.06-2.61-6.5-4.55-13.05-7.7-18.3,3.66-.96,9.29,12.53,10.16,15.33,2.82,9.05-4.45,16.73-13.55,17.73,6.5,1.97,6.58-.48,11.92-2.96-1.88,4.63-7.38,6.38-12.18,4.39-9.4-3.89-8.8-5.11-14.68-13.43.4-1.68.02-2.52-1.59-1.11,1.75,1.79,1.86,3.98,2.77,6.02l7.24,16.2c4.38,9.81,9.08,19.22,14.7,28.43,2.91,4.78,5.71,9.14,7.99,14.17,4.36,9.6,8.47,18.87,12.35,28.7,6.38,16.14,9.43,16.04,18.53,30.41l7.14,11.29c8.58,13.55,16.56,27.01,22.88,41.73,2.56,5.97,4.73,11.83,8.22,17.38l7.1,11.28c8.71,13.84,12.89,20.3,18.62,35.93,3.19,8.7,5.6,9.61,12.85,15.55,3.49,2.86,11.44,6.71,15.71,8.35.94.36,20.69,8.37,18.86,10.16-1.14-.42-2.39-.3-3.66-.86-10.44-4.61-29.01-13.36-37.31-20.98-.88-.64-1.57.24-.15.41,1.43,3.07,2.55,5.9,4.26,8.73l5.07,8.35c3.55,5.84,8.5,10.05,11.99,16.02-7.28-2.48-11.39-8.13-15.65-13.68-.66-.87-1.57.37-2.13.93-6.73-9.19-11.62-19.56-16.11-30.31-.85-2.03-1.54-3.96-2.51-5.91-4.22-8.43-2.83-7.84-11.62-10.31-.49-.41-.02-1.31-.08-1.84-2.5-2.44-5.65-3.79-8.83-5.51l-7.59-4.09c-1.41-.76-2.33-2.55-2.98-4.03-1-2.27-2.78-3.42-4.1-5.12-4.06-5.25-8.71-9.14-14.24-12.75-1.72-1.13-2.96-2.82-4.89-3.94-15.87-9.19-19.95-10.49-37.8-11.84-7.84-.59-20.79,1.23-21.35,11.1-.93.68-.35,1.4.41.77,2.86-4.91,10.32-4.12,13.37-2.17,6.56,4.19,12.55,8.85,18.42,13.97,5.25,4.59,3.64,12.54.81,18.25,6.29,5.78,11.04,12.33,15.45,19.66.31.51,1.48.44,1.74.76.01.01-.21,7.3,9.99,12.98,8.04-7.2,5.01-6.39,7.99-14.03,3.2,5.9-2.53,11.61-6.76,14.72,9.05,6.06,17.81,11.87,25.06,19.98l19.34,21.63c2.69,3.01,5.48,5.62,8,8.79,6.81,8.59,38.8,17.13,52.6,24.73l19.55,10.78c7.4,4.08,14.79,7.6,22.91,9.93,16.19,4.66,34.46,2.23,48.5,7.44.62.23,1.07.56,1.22,1.1.21.78-.78.84-2.21.99,1.23,1.6,3.2,2.68,5.42,3.45,7.67,2.68,19.31,10.13,25.98,15.24l13.41,10.28c2.94,2.25,11.71,2.98,12.06,3.7,1.93,4.01-9.07-.93-7.67,1.38,2.37,2.94,11.26,12.24,9.95,15.15-.32.72-1.76.75-2.66-.06-5.59-5.03-10.19-10.68-16.23-15.36-12.1-9.37-24.59-17.45-37.91-24.92-12.95-7.27-17.56-7-31.34-8.64-8.62-1.03-17.04-2-25.32-4.8s-16.02-7.45-23.98-11.61l-8.74-4.56c-10.39-5.43-20.54-10.41-31.57-14.41-5.49-1.99-10.84-3.62-16.02-6.38-7.96-4.23-14.63-10.26-20.1-17.7-10.23-13.91-21.47-26.19-35.19-36.55-8.48-6.41-15.6-7.94-20.97-18.58-4.24-8.4-9.76-15.38-16.36-22.07-2.01-2.03-3.59-4.23-6.1-5.72-8.55-5.09-15.76-11.62-23.26-18.01-2.97-2.53-4.26-4.3-3.58-8.31.92-5.45,3.14-10.64,8.67-13.38,5.1-2.53,10.8-4.82,16.79-4.86,13.02-.1,26.08,3.31,37.05,10.27,6.6,4.19,11.97,9.18,17.76,14.16,3.99,3.43,6.88,7.42,10.03,11.6,2.12,2.82,17.33,10.52,19.23,11.4-2.92-6.76-6.72-11.04-10.05-16.39-12.28-19.72-15.51-37.12-30.68-60.61l-19.71-30.52c-10.27-15.9-10.34-20.12-16.99-36.63-4.52-11.25-11.07-20.87-16.45-31.65l-9.59-19.22c-1.48-2.96-3.25-5.59-4.32-8.71-2.36-6.89-4.94-13.42-6.83-20.4L.2,17.08c-.87-3.21,1.23-7.52,3.1-10.14C7.93.45,15.71-1.11,23.17.71c4.33,1.05,7.61,3.37,11.27,5.59,4.11,2.5,7.59,5.35,10.48,9.51l12.64,18.18c4.99,7.18,7.85,15.27,11.92,22.95l7.94,15c13.37,25.24,25.54,35.62,38.41,56.38,3.95,6.37,8.07,12.24,12.51,18.27,3.58,4.86,3.64,8.62,4.95,8.39,1.49-.27-1.19-3.89-2.57-7.64l-9.62-26.14c-3.01-8.17-5.05-23.49-1.09-31.82,4.28-8.99,14.83-14.06,24.25-15.64,19.91-3.33,29.09,10.03,31.49,11.06,1.51.65,7.47-13.67,24.14-14.31,13.79-.53,21.08,5.44,30.84,14.29,4.09-7.61,11.32-12.75,19.78-12.17,7.4.51,14.66,2.51,21.44,5.55,6.03,2.71,10.64,7.74,14.36,13.14,4.97,7.21,9.53,14.14,14.08,21.57,3.44,5.62,6.03,11.44,9.81,16.81,8.03,11.43,22.45,21.15,30.47,36.18l8.82,16.54c3.94,7.38,7.74,14.37,11.96,21.42,5.34,8.93,14.34,25.16,17.65,34.66l4.3,12.34c5.41,15.53,4.23,26.31,12.32,39.36,1.63,2.63,3.97,4.08,6.52,5.46,8.12,4.39,5.98,8.38,12.73,13.25l7.68,5.54c.59.43,1.71.2,1.36,1.63-2.89-.45-5.17-2.47-7.93-3.99-1.17-.63-2.64-1.96-1.69.24,3.93,2.4,6.08,3.46,8.71,6.19-1,.72-6.44-2.35-7.78-3.58-.74-1.48-2.5-2.04-1.22-.33,6.44,10.58,12.65,17.85,21.03,25.96.62.6.74,1.6.28,1.95-1.32.99-17.85-11.06-18.59-14.41-1.32-.56-1.22.48-.52,1.4.47,1.92,1.05,3.69.37,5.05-.2.4-.93.26-1.79-.55.62,5.59-2.46,16.47-4.48,22.5-.43,1.27-1.28,2.16-1.43,3.58-.2,1.98-.76,3.94-2.59,5.25-.55-2,.77-3.19,1.21-4.9l1.44-5.56,4-16.94c.66-2.78-2.55-10.95.73-10.31.64-5.99-3.02-3.95-4.05-6.15-1.98-4.24-8.93-16.12-13.08-18.27-8.37-4.35-10.82-9.29-14.07-18.25-1.76-4.84-1.58-9.6-2.27-14.6-2.8-20.07-9.66-36.72-19.87-54.35l-13.35-23.03-9.28-19.59c-1.53-3.23-2.36-6.9-4.98-9.52-3.03-3.03-5.14-6.5-8.12-9.68l-12.27-13.1c-.49-.52-2.3.62-2.48-1.49-.03-.32-.52-.69-.76-1.23-.13-.28-.84-.06-.93.34-.03.41,3.96,11.5,1.41,8.69-1.7-1.66-1.31-3.69-2.01-5.46l-4.65-11.71-4.23-8.51c-2.8-5.64-5.78-11.11-9.85-16.02-5.09-6.13,2.55-.97-7.83-13.34-2.16-2.58-7.23-7.64-10.04-8.37-1.76-.46.52,5.34,2.78,5.33.23.98-.56,1.39-.97.19-4.71-1.85-9.74-2.87-14.81-2.51-1.83.13-3.46,1.69-5.23.16,1.27-2.3,15.42-1.69,17.63-.19,1.02-.82-1.95-1.62-3.65-2.44-.8-.38-.47-1.56-.86-1.89-2.48-2.12-15.28-5.22-12.11-2.57.77.07,1.32.12,1.92.29.34,1.84-5.08.35-7.31.73-3.9.65-6.51,3.24-10.31,5.08,3.8-6.49,7.91-4.49,12.05-7.36-5.13-.8-16.52,8.06-16.83,9.61-.39,2.01,2.52,3.2,3.05,4.83.78,2.4,2.81,4.04,3.68,6.15,2.31,5.62,4.36,11.17,6.37,16.96,2.94,8.5,6.1,16.56,9.2,25l3.42,9.32c1.01,2.76,3.74,4.39,5.03,6.98,1.5,3.01,2.21,6.05,5.86,7.36,1.18.42,2.53,1.17,3.09,2.59.28.71-.14.96-.81.93-5.37-.25-6.59-3.62-10.55-6.56-1.13-.37-.8.73.03,1.62.52,1.42,2.81,2.22,3.17,3.14s-.58,1.85-1.5,1.27c-5.59-4.1-4.02-4.17-7.64-12-2.4-5.19-4.26-10.4-6.38-15.7l-5.01-12.52-7.09-18.48c-1.51-3.94-3.8-7.18-5.66-10.89-1.23-2.46-1.91-4.9-3.69-7.27-7.92-10.51-13.42-12.8-25.83-15.46l-1.38.64c-.58.67-.66,1.19.23.93,3.35-.42,8.55.74,11.24,2.81l1.81,1.39c.28.99-.32,1.4-.95.55-3.64-1.66-7.29-1.8-11.01-2.61l-4.88-1.06c-6.59-1.43-13.99,5.22-15.88,8.92-2.03,3.96-.84,8.01-.2,12,3.3,20.33,9.85,28.45,15.6,45.79l4.76,14.36c2.36,7.12,5.6,16.19,11.01,21.42.43.42.03,1.28-.01,1.57-.08.57-1.04.69-1.76.1-.72-.53-1.5-1.02-1.29.06.33,1.23-.4,2-1.61,1.68-6.99-7.41-6.56-5.66-9.76-16.37-4.7-15.74-9.96-30.85-16.64-45.89-.78-1.75-2.17-3.09-2.67-4.95l-1.41-5.17c-1.21-4.46-2.88-8.25-5.25-11.93.89-.63,1.35-.42,1.71-.07.83.69,1.29.54.88-.42-3.55-7.77.41-5.53-3.56-8.64-1.44-1.13-7.32-9.89-16.28-11.21-7.69-1.13-13.85,2.53-20.43,3.33,2.88-3.04,6.36-3.26,9.96-4.66.66-.62.26-1.51-.53-.69-7.95.26-19.37,9.44-20.35,16.41-1.66,11.71,3.25,27.89,7.2,39.09.78,2.22,2.07,3.58,3.19,5.39,1.83,2.94,2.15,6.65,3.77,9.82,2.17,4.22,3.31,8.55,4.86,12.99ZM45.62,242.96c-.78-1.69-1.65-4.15-2.77-5.54-3.67-4.58-8.2-8.38-12.93-11.36-1.3-.82-3.05-.4-4.39-1.82-1.44-1.53-3.5-2.85-5.47-3.5-4.63-1.53-10.1,5.89-8.94,8.68-.95-2.29,9,5.15,8.95,5.12l17.42,12.09c2.08,1.44,3.73,2.9,6.23,3.49.26-2.16,2.98-4.81,1.89-7.16Z"/><path d="M366.02,235.63c-.32.85-.73.91-.86,1.14-.3.55.75,1.31.08,2.26-3.02-3.75-3.85-8.73-6.5-13.18l-4.52-7.6c-3.28-5.51-6.67-10.75-10.11-16.29-1.69-2.71-2.12-5.73-3.33-8.5l-4.3-9.84c.97-2.78,5.75,9.38,7.91,12.88l8.83,14.29c2.18,3.52,4.27,7.2,5.75,11.02,1.3,3.34,2.87,5.77,4.51,8.93l2.54,4.89Z"/><path d="M378.88,301.14c.66,2.61,2.35,8.86,6.04,8.56-.08,1.1-1.24,1.55-1.67,2.61.59,2.75,2.71,5.02,1.28,8.07l-5.86-12.09c-5.96-12.29-7.77-26-5.53-39.43l-3.71-17.75c1.85-.84,5.24,14.9,5.24,14.76l-.38,11.44-.83,5.6c-1.26,8.51,6.7,23.25,5.43,18.23Z"/><path d="M318.8,194.23c.48,3.14,1.46,12.37.31,14.95l-1.95-10.5c-.49-2.65-2.26-3.9-2.11-6.87.33-6.44-5.18-13.3-7.3-17.32-3.38-6.41-4-3.77-3.1-5.77,1.06,1.34,1.53,2.36,3.46,2.95.4-.72-.67-1.54.49-2.41.82,2.68,2.52,3.98,3.97,5.94,4.15,5.6,5.21,12.4,6.22,19.03Z"/><path d="M190.69,209.23c7.79,3.83,19.75,16.05,17.98,24.58-4.94-4.88-1.95-6.34-8.36-11.67-6.58-5.47-12.7-7.27-16.46-12.66,3.43,1.67,6.03,4.01,9.97,4.86,1.15.25,1.21,2.95,3.39,1.4.39-.3-8.8-4.66-6.52-6.51Z"/><path d="M266.64,204.04c3.56,7.43,2.04,13.63,1.28,20.95-4.25-2.59.71-9.88-2.28-15.82-2.64-5.24-5.39-10.71-9.38-15.04l-3.66-3.97-6.74-5.45c-1.04-1.51-.15-2.29.73-.6,3.16,1.2,10.01,7.89,11.18,9.8,2.87,4.69,7.52,2.11,8.95,8.07-1.25-.13-1.04-1.37-2.09-2.04-1.24,2.19,1.32,2.66,2.01,4.1Z"/><path d="M304.61,408.41c-2.37-.6-4.21-1.94-6.37-3.28-6.3-3.89-12.95-6.53-19.57-9.59-1.04-.48-.35-1.37,0-1.6.55-.37,1.26-.63,2.13-.32,4.42,1.6,23.1,9.76,23.8,14.8Z"/><path d="M278.29,215.43l4.13,17.62c-2.09-.86-2.53-3.17-3.17-5.34l-5.62-19.02c-1.29-4.37-5.5-7.1-6.82-11.25,5.6,5.41,6.08,5.29,8.94,12.18.77,1.86,1.98,3.48,2.53,5.82Z"/><path d="M180.4,254.05c-.99,1.61-.6-.88-2.19.69-3.98-.97-15.3-20.96-12.15-24.87,3.11,3.51,2.48,7.98,4.11,11.66,2.17,4.88,6.68,8.09,10.22,12.53Z"/><path d="M253.12,156.56c-2.1-1.2-2.26-3.12-3.1-4.83-3.48-7.06-6.66-16-9.96-23.98,2.1.61,2.12,2.83,3,4.69l2,4.23c2.6,5.51,6.4,14.72,8.06,19.89Z"/><path d="M259.45,379.63c-2.75.15-5.31-.89-8.22-1.09.5.03-13.68-1.22-10.86-2.97,4.38,1.76,17.9-2.04,19.07,4.06Z"/><path d="M185.48,142c.35,3.35,2.38,5.55,2.3,8.45-2.44-3.22-3.14-6.84-4.33-10.44-2.05-6.2-4.16-11.94-6.85-17.55,2.62,1.32,2.92,3.87,3.79,6.14l5.1,13.39Z"/><path d="M361.64,406.88c-1.56,2.2-4.4,2.4-6.86,4l-5.94,3.86c-2,1.3-4.38,1.53-6.22,3.24-1.78-.05-2.72,1.2-4.6,1.49,1.2-2.33,3.76-2.9,6.18-3.99l5.58-2.52c3.9-1.76,8.07-6.84,11.86-6.09Z"/><path d="M304.09,171.76c4.15,3.51,6.32,8.66,8.04,13.38-7.1-7.27.87-1.66-8.74-12.38-2.43-2.71-3.99-6.02-7.8-7.63-.25-.89.27-1.25,1.17-1,8.48,5.54,2.19,3.28,7.33,7.63Z"/><path d="M240.04,378.57c2.45,3-19.09-2.35-19.66-2.95,3.13-1.58,6.1-.52,8.98.22l10.68,2.74Z"/><path d="M264.48,257.88c1.27,1.62,5.16,4.7,5.05,5.19-.13.61-.55,1.91-1,.88-.79-1.84-2.54-2.24-3.39-3.49-5.01-7.37-10.2-14.17-14.6-22.13,5.43,5.79,8.79,13.01,13.93,19.55Z"/><path d="M139.48,182.79c-2.65-1.36-2.79-4.23-4.91-6-1.41-1.18-2.87-2.29-3.65-4.09-.92-2.13-8.6-9.05-9.42-13,2.28,1.02,2.38,3.43,3.97,4.89,6,5.48,2.31,3.43,8.79,10.31,2.22,2.36,3.82,4.96,5.23,7.9Z"/><path d="M202.9,185c-6.43-.95-5.43-7.15-10.39-13.11-.18-1.68-1.22-2.7-1.66-4.51,2.14.57,1.88,3.02,2.96,4.7l6.63,10.35c.63.87,2.04.63,2.46,2.58Z"/><path d="M135.34,171.93c-1.98-.8-3.7-2.17-4.67-4.41-1.97-4.58-4.19-2.12-7.17-11.32.44-.05,8.1,10.52,8.65,11.34.99,1.49,2.85,2.03,3.19,4.39Z"/><path d="M386.59,391.68c-1.51.94-2.31.28-.83-.77.43-2.14,2.08-3.17,2.95-4.78.36-.65,6.14-11.11,7-9.9-1.64,5.45-6.28,9.7-9.12,15.44Z"/><path d="M152.14,81.93c.85,2.3-12.77,1.66-15.23,2.92-.42-.67.53-.89.95-1.88,4.76-1.46,9.51-1.5,14.27-1.04Z"/><path d="M397.62,333.57c2.32-.02-.03,17.31-1.83,18.7-.77-3.55,1.19-6.77,1.35-10.45.12-2.86-.03-5.44.49-8.25Z"/><path d="M117.12,149.99c-1.05.5-9.26-15.88-7.65-15.23,2.15,2.74,7.67,12.83,7.65,15.23Z"/><path d="M138.37,98.12c2.77-1.48,2.28-2.07,8.12-3.94.86,1.3-14.56,8.6-15.76,7.15,2.41-2.07,5.08-1.84,7.64-3.21Z"/><path d="M139.06,89.79c-1.15,1.15-10.45,8.48-13.09,7.48,1.25-1.32,3.06-2.69,5.01-3.62l8.08-3.86Z"/><path d="M379.17,284.91c-.5.91-1.56.47-1.51-.46-1.25-5.26-3.95-.99-1.48-10.99,1.07,1.4.72,2.8,1.05,4.28.52,2.37,1.86,4.36,1.94,7.16Z"/><path d="M387.22,325.7c-1.72-4.07,1.17-7.74-1.51-13.91,2.93-.51,3.17,12.24,1.51,13.91Z"/><path d="M282.94,104.24c-3.27-4.06-6.37-3.64-8.34-9.42,1.48,1.22,8.18,5.74,8.34,9.42Z"/><path d="M78.74,137.01l.97-1.37c.14-.2.96.15,1.89.43-2.78,3.01-6.52,4.61-10.82,4.8,2.12-2.63,6.36-1.6,7.96-3.86Z"/><path d="M403.77,358.21c1.65-.83-5.11,14.92-5.82,12.44,1.54-4.42,3.16-8.29,5.82-12.44Z"/><path d="M163.37,222.4c-.87,12.14,1.01,9.52,1.39,19.48-2.24,1.68-4.65-30.59-1.22-24.73-.99,1.85-.04,3.57-.16,5.26Z"/><path d="M303.67,163.34c1.03,1.39-.02,2.32-1.32,1.23-3.49-.86-6.41-2.73-7.56-6.4,3.12,1.18,5.54,3.23,8.87,5.17Z"/><path d="M255.43,382.42c-4.05-.03-8.24-.44-12.68-2.67,4.05.03,8.24.44,12.68,2.67Z"/><path d="M88.85,104.92l-3.98-4.06c-2.36-2.41-4.02-5.25-5.32-8.04,2.3.99,2.4,3.42,3.98,4.87,2.38,2.18,4.75,4.16,5.32,7.22Z"/><path d="M74.46,116.11c-.64,1.89-2.45,1.69-3.89,2.25-2.56,1-3.92,3.29-6.91,4,2.59-3.39,6.02-5.95,10.81-6.26Z"/></g></g></svg>