<?xml version="1.0" encoding="UTF-8"?>
<svg width="482px" height="1204px" viewBox="0 0 482 1204" version="1.1" xmlns="http://www.w3.org/2000/svg" xmlns:xlink="http://www.w3.org/1999/xlink">
    <title>logo 2</title>
    <g id="Page-1" stroke="none" stroke-width="1" fill="none" fill-rule="evenodd">
        <g id="logo" fill="#000000" fill-rule="nonzero">
            <g id="Group" transform="translate(2, 364)">
                <path d="M239,-3 C372.100625,-3 480,104.899375 480,238 L480,241 L479.975,241 L479.967713,241.985376 C477.839492,373.247822 370.769618,479 239,479 C106.901388,479 -0.373988923,372.719092 -1.98168993,241.001717 L-2,241 L-2,238 C-2,104.899375 105.899375,-3 239,-3 Z M473.981225,241 L4.024,241 L4.03148329,241.886155 C6.10671906,369.880657 110.510953,473 239,473 C367.784959,473 472.374041,369.40514 473.981225,241 Z" id="Combined-Shape"></path>
            </g>
            <path d="M241,0 C374.100625,0 482,107.899375 482,241 L482,244 L0,244 L0,241 C0,107.899375 107.899375,0 241,0 Z" id="Combined-Shape"></path>
            <path d="M241,960 C374.100625,960 482,1067.89938 482,1201 L482,1204 L0,1204 L0,1201 C0,1067.89938 107.899375,960 241,960 Z M241,966 C111.213084,966 6,1071.21308 6,1201 L6.024,1198 L475.975,1198 L475.968517,1197.11385 C473.914243,1070.41222 371.587783,968.085757 244.886155,966.031483 L241,966 Z" id="Combined-Shape" transform="translate(241, 1082) rotate(180) translate(-241, -1082)"></path>
        </g>
    </g>
</svg>