<svg xmlns="http://www.w3.org/2000/svg" id="Layer_2" viewBox="0 0 837.3 489.1"><g id="Layer_1-2"><g id="_1QxBPC.tif" fill="#c45a5a"><path d="M132.7 471.5c-5.9 2.2-13-6.2-15-2.9 2.5.5 4.4 1 5.8 3-5.8 1-10-5.2-13.2-3.7 1.3 1.3 3.5 1.2 4.9 3.4-7.6 0-8.8-4.7-13.7-3.7 2 1 4 1.5 5.8 3.1-5.7 1.8-10.8-5.2-14.3-3.1 2 1.2 4.4 1 5.8 3.1-5 1.4-12.1-5.7-13-3.1 1.7 1 3.7 1.6 5.3 3.1-5 .6-8.3-2.3-13-3.4.3 2.5 3.1 1 4.5 3.3-4.5 1.6-9.7-2.4-13.5-1.6l6 2.4c-5.9 3-10.5-3.6-15.2 0 2.8.1 4.8 0 6.9 1.4-5.2 3-12.1-2.9-14.6 2.2 1.7.4 2-1.6 3-1.3 1.3.4 2.9.6 3.4 1.6-4.6 2.3-13.6-.9-14 2.5 1.7.4 2-.9 2.6-1.2.8-.4 1.2.9 2.7 1.5-3.7 2.8-9.4 0-14 3.4 2.6 1.3 4.7-.5 7.1.1l-6.8 6c4-1 6.3-4.3 9.7-6.1 8-4.2 13.7-5.4 22.7-7.4l7.6-1.7c2.8-.6 20.7-.7 24-.5l8.7.3 7.4.3 8.6.3c3 0 6-.4 8.9-.2 3.4.3 12.3-1.2 16.3-1.2 3.6 0 6-.6 9.4-1.3l8.5-1.7c3.3-.6 6.1-2.2 9.1-3.2 5.5-1.8 12.5-6.1 17.4-9 3.2-2 5.5-3.2 8.1-6.1l7-7.8a66 66 0 0 0 10.2-18c5-14.6 3.1-21 4.6-26.4.2-.7 2.5-.7 3-1.4.8-.8 0-2.3.7-3.4.4-.7 2-1 2.5-1.1 1-.3.5-3 1.3-3.3q3-1.6 3-5.5c7.7-1.7 14.1-7 16.5-13.7 3-8.2 1.2-16.7-4.7-23-5-5.4-13-6.4-20.4-4.8-10.1 2.2-16 11.9-16.5 21.7-3 .1-3.3 2.8-4.5 4.2a36 36 0 0 0-3.4 4.8c-.7 1.2-3.2 2.8-3.5 4.5-2.7.6-5.9.5-8.3 2.5-2 1.7-5.6.6-7 3.6 7.1-3 6-.5 12-2.2l-4.4-1c4-1.6 5.5-2.5 9.4.4-.8 2-2.7 2-4.7 2 .8 3.1-4 4-5.2 6.3 3.7-1.7 7-2.5 11.3-3.8-2-1-3.9 0-6.5.4-.2-.5 5.1-3.2 5.4-3.2 1 0 3.2.4 3 1.6-.2 2.8-3 3.6-4.8 5L168.9 411c-2 1.5-4.1 2.2-5.8 4.2-.8 1-3 1-3.5 2.6 2.8.4 5-1.2 7.4-2.4q14.9-7.3 26.6-19.2c1.5-1.5 8.7-8 9.5-10.2.2-.7 1.1-1.6 1.6-1.4q1.5.6 2 1.7c.4 1-1.1 1.7-1.8 2.3-10.4 8.8-11.2 14.3-26 23-2.4 1.4-4.3 1.9-6.1 4.2-1 1.3-5.3-.6-5.8 2.5 5.7-2.7 10 0 11.2-3.6-1.3.3-2 1-3.6.6.8-2.4 9-2.3 11.2-4.4h-4.1c3.2-3.2 8-2.1 10-4.5l-3.6.4c1-3.2 7.7-3 9-6-1.4-.5-1.5.7-1.8 1-.5.5-1.5.1-1.7-.7 1.5-2.2 4.6-2.2 6.5-4 1.4-1.4 2.9-2.1 4.3-3.2-1.2-1-1.7.8-3.5.1 1.5-.4 2.3-2 3.4-3.2l4-3.8c-1.7 10.2-9.4 13.8-16.3 21a75 75 0 0 1-24 15.2c-4 1.7-8.3 2-12.3 3.4-6.3 2-12.9 1.7-19.5 2.4-.5 0-.8 1.2-1.3 1.2-2.4.1 1.8-2.8-17.3-.4-2.4.3-5-.5-7.6-.4s-4.8-1.1-5.3-3.5c3.2-.2 5.2 1.8 8.2 2-1.7-2.6-5-1.7-7.8-2.6q-12.7-4.3-26-7.2l-7-1.6-5.8-1a80 80 0 0 0-43.6 3.4c-2 .8-3.3 2.5-5.8 2 1.6-2.8 5-8 8.1-6.7l-3 4.1c4.2-1.2 5.2-7.8 11.4-6.2l-3.7 3.1c4.7-.2 6.5-7.2 11.4-4.3-1.2.8-2.7 1-2.4 2.4 1.4-.2 10.6-7 10.4-3 0 1.5-2.8 1.3-3.6 2.5 3.2 0 7.3-5 11.7-2.6l-4.2 2.8c5-.4 6.7-3.9 12-2.3-1.8 1-3.5 1.2-3.5 3.1 2.8-.1 9.5-4.5 11.5-1.2-1.6 1-3.2 1-4.5 1.7 4 1.2 10.4-3.1 12 .5-1.8 1.1-3.3-.2-4.4 1 4.5 1.4 8-2 12.2.7-1.8 1.1-3.3.3-4.5 1.6 3.7 1.1 8.5-2.2 11.8.3-.6 1.4-2 .7-3.2 1.4 2.3 1.6 5.1-.5 7.7 0 2.5.3 4 3.8 7 3-.7-1.3-2.4-1.2-3.4-2.3 3.6-1.5 9 5.9 12 6-1.6-1.5-3.4-2.6-3.5-5 4 1.3 5.7 5.2 10.2 5.6-1.5-1.5-3.6-1.8-4.6-4 8 .9 6.6 4.1 12.7 3.8-13.3-6.9-5.6-3-17-5.3-2.3-.5-4-.8-6.4-2s-5.6-.4-7.8-2.4q-1.1 0-.9 1.3c-2-1-4.1-3-6.7-3.1-1 0-2 .9-3-.3-1.8-2.1-4.8-1.2-6.7-2-2.7-1-4.3-2.2-7.3-1.8-1.8.2-4-2.4-6-1.8q-.6.4-.7.7c-.3.2-1.4 0-1.7-.4-1.8-2.3-5-.5-6.8-1-2.6-.7-5.8-.9-8.2-.6-3 .3-5.3-1-8.4.3-2.3 1-5.9-.9-8.1 1q2.1.6.1 1.1c-3.3-1.1-5.8-.3-8.3 1.4-1.6 1.1-4.2 0-5.8 1.3-1.3 1.1-2.8 2.5-4.6 2.3-2.5-.1-3 1.9-4.4 2.9-2.4 1.6-5.7 1.2-7.4 3.8l6.9-1.8c-2 1.7-1.7 4.5-2.6 5.9-1.5 2.2-5 2-6.1.3-1.1-1.5-1.1-4.5 1.1-5.9 9.6-6 6.1-5 17.5-9.7 12.9-5.1 27-5.6 40.8-4.6 5 .4 9.9 2 15 3.3l26.7 6.7c7 1.8 7.6 1 14 .2a72 72 0 0 0 36.2-17.4q3.3-2.6 6.7-5.1l8-5.5 7.3-4.6c4.8-3 17.4-7.8 19.6-9.5 1.4-1 9.6-12 11.2-14.6a25.6 25.6 0 0 1 34-21.4c.7-5 2.7-9.2 7.8-11.9a47 47 0 0 1-7.8-27.5c.3-21.7 8.1-41.8 20.2-59.5a110 110 0 0 1 54.5-42.7c8-2.8 15.8-2.7 23.9-4.1 3-.5 6.7-6 10.8-1.9.9.9 3 .4 3.7-.6l9.4-11.7c1.6-2 4.1-2.5 6.5-3 43.7-53.4 95.4-116.3 170-120.3 1.1-1 2-3.3 4-3.3h21.6c.5-2-.3-4.1.5-6 .5-1.3 2.3-1.3 3.4-2.2a19.4 19.4 0 0 1 19.9-14c8.7.8 15.3 6.6 17.8 14.7.2.7 2.7.4 2.9 1.5 2.3 17.3-2.5 10.8-2.7 17-.1 2 2 3 2.5 4.8 1.3 4.2.8 9.1.4 13.5-.1 2.1-10.2 3.2-7.6 7.9 3 5.4 13.6 1.1 12.4 12.2l6.8.2c4 .2 7.8 3.3 7.8 7.7l.2 47 46.3 19.7 55.7 23.8 9.1 19.2-25 108.6L688 448c-3.3 3.2-7 5.5-10.7 8.4H498.6c-3.6-2.9-7.7-5.4-10.6-8.7l-8.2-35.6-31.3-135.3-13.2-57.8 9.1-19.2 57.2-24.3 44.8-19.1-.1-44.4c0-3.9.6-7.4 4.5-9.3 3-1.4 6.5-1.3 10-1-1.3-12.6 11.3-6.7 13-13.1 1.1-4.5-6.7-4.5-8-7-.7-1.5-.3-2.8-.5-4.9-7.3-.7-21.4 2-25.9-2.6a97 97 0 0 0-38.7 8.4c-39.8 15.5-77.8 57-104.7 89.4l-12.3 15c-.7 1.7.3 4.2-.8 5.7-3.7 5.3-7.3 9.5-11.5 14.9 6 4 1.8 9 1.6 13.2-.5 6.7 2 13.5 1.3 20.8-2.2 23.6-11.9 45-27.6 62.6a109 109 0 0 1-64.4 36.3c-6.4 1.1-13.2-1.2-19.2-2.1-2.3 3.7-4.8 8.7-10.4 9.5q6.7 10.9 2 23.4a28 28 0 0 1-15.6 14.8l-4.4 5.2-3.7 5c-1.3 1.7-2.2 3.3-4.4 4.2-.6 1.5-1.1 4.5-1 6.3.4 2.9-.6 5-1 7.4a68 68 0 0 1-19.4 35.8 93 93 0 0 1-47 22.3l-7.3 1-8.5.7c-6.5.5-11.2.9-17.7.7l-9-.2c-7.6-.1-22.2-1.4-30.3-1-11 .7-29.6 4-39 9.8-3.5 2-9.4 8-13.2 5q-1.6-1.3-1-3.7c1-3.7 4-5.3 7.3-6.9 20.1-10 35.7-12.2 58.3-11.6l9.4.3 7 .2c3.1 0 6.2.4 9.2.4h7.8c4.5 0 21.4-1.4 25.6-2.4l9-2a81 81 0 0 0 20.8-8.8l7.6-5q4.3-2.8 7.6-6.5c9-10.2 9.7-12.7 14.5-25.6-2.3 1.7-3 4-4.3 6.4q-2.4 3.8-5.3 7.2c-17.4 22.5-49.8 32.9-77.6 31.5l-24.7-1.1-11.2.8c-3 .2-5.9 1.4-9 1.3-3.2 0-13.5 2.2-17.3 3l-8.6 1.8q-5.8 1.5-11.5 4.2l-5.8 2.5q-2.9 1.1-5.6 3c-2.2 1.4-4.9 1.5-6.9 3.8-1.6 1.8-5.8 3.3-7.7 1-4.1-5.1 7.2-11.8 9-11.6-2.8 3.3-5.8 3.8-6.8 6.8 2.1 0 3.5-4 4.2-3.7 1.7.7-.5 5.7-4 7.3 5.2.6 4.3-8.7 8-10-.6-.8-1-.8-1.5-1.3 2-1 3.1-2 5.2-2.5-1.2 3-3 4.5-3.6 7.4.8-.3 4.8-6.6 4.1-7.1q-.6-.4-.2-.8c12.5-6.5 26-10 40-11.7 5.8-.6 11.4-1.9 17.2-1.8q3.6 0 7.3-.2l34.1-2.6c7.3-.6 14-2.4 21.5-4l-5.2 4.9q-1 .6-.2.7c2 0 8.2-8.9 11-6.8-1.6 1.6-3 2.8-4.4 4.8 6.3-1.4 5.7-8.3 12.4-8.8l-3.2 4q-.9 1.4.7.6l4.4-5c1-1.2 1.8-2.3 3.4-3q1.6-.7.7.9c-.7 1.9-3 2.9-2.7 4.9 2.6-1.9 3.5-4.4 5.8-6.4 0-.6-1-.8-.7-1.4l3-1.7c1.3-.7.8.6-.1 1.2.3 2-.6 3.5-.7 5.5a102 102 0 0 1-45.5 14.7c1.8-2.5 4.4-3 6.3-4.7-3.5.3-6 3.5-8.7 5l-56.1 4.6c-.5 0-13.9 3-15.8 3.4-3.3.7-6.5 1.9-9.8 2.8-7 2-19.6 8.9-20.2 10.5l-.4 1.3c-.2.5.1 1.6.6.7.8-1.9 10.3-6.8 10.7-7.1 2.2-1.5 4.1-1.5 6.3-2.4 3.3-1.3 6.4-2.8 10-3.6l8-1.7 9.8-2.2c6.3-1.4 10.7-.4 14.6-2 2.8-1 4.6-.1 7-.3 2.6-.2 15-1 16.7-.7s3.6-1.7 5.5-.7c.5.4.8 1.5 1.9 1.1 2.8-.9 5.4-2 8.8-1.7-.6 1.3-2.2.8-2.5 2.4 3.8-1.5 7.2-3.5 11.7-2.9 2.9.5-1.7 1.2-3.4 2.6 3.4.1 8-4 14.7-4.2-1.7 2.1-4 2-7 3.7 6.9-.2 6.9-4.4 13.4-5 .9-.4 1.5-.1.8.7-1.8 1.3-3.9 1.6-5.4 3.2 5.4.1 9.3-7.1 14.2-6.1l-5 4.3c2.4 1.3 6.7-6.3 11.3-6.6-1 1.7-2.3 2.6-3.5 4.1 3 1 6.4-6.4 10.8-7.5.2 1.8-1 2.7-2.4 3.8-1.2.8 0 1.6.9.6 2.8-3.1 4.5-7.2 8-8.2-.4 1.8-1 2.9-1.7 4.4 4-3.4 4-7 8.8-10.1l-2 5.1c-.1 1 .6 1 1 0 2-3.3 3.2-7 6.5-9.7.6 1.7-.9 3-.8 4.9l5.7-10.3c.3-.4.7-.8 1-.3.2 1.7-1.3 2.8-.5 4.5 1.9-2.7 1.3-5.9 2.8-8.5l3.1-5.1c1.2-.5-1.3 7.3.7 4.8.3-4.1 1-8 3.5-11.1 1.6 1-.2 2.3.6 4l1.5-7.8c.7-3.6 3.8-6.4 5.4-10 .9 2.7-2.1 3.8-1.7 6.3q-.3 1.3.5.2c1-.7 1.5-3.6 2.2-3.3 2.6 1.3-4.7 9.4-3.5 11.6 1.5-1 1.4-2.6 2.9-4 1.7 7.3-5.9 8.7-5.3 13.3 1.8-.8 1.7-2.8 3.7-4 .3 6.1-5.6 7.5-7.2 12.2 2.1-.6 2.9-2.6 4.7-3.8-2.7 9-9 7.3-9.6 12l4-3q1.7-.7.7.6c-2.6 6.4-9.7 6-11.2 9.4 2.1-.5 3.4-2 5.7-2-2.3 6.3-9.4 4.4-12.8 8.2l6-1c-4.5 6.5-8.7 2.3-13.2 5.3-1.6 0-1.2 1 .2.9 1.4-.2 2.8-.7 4.2.2-4.8 4.3-11.3 1.2-13.8 4.3 2.1.2 3.8-.8 5.7.2-4.8 3.8-9.2.2-15.1 2.6 1.7.9 3.6-.2 5.7.5 1-.3 1.7-.1 1 .7-7.4 3.2-8-.6-14 .6-.8.1-.6 1.7.3 1q2.9-.6 4.4 1c-4.3 3-11-2.6-14.4-.3 2.7.7 4.8.7 6.6 2.2-6.8 3-11.9-4.2-14.4-1 2 .8 3.8.2 5.3 2.2-5.4 1.6-6.9-1.5-12.3-2.6-1.3 0-1.6.9-.1 1 1.4.7 2.7.8 4 2.2-6.3 2.3-9.3-4-13.7-2.4 2 1.3 4.1 1.2 6 2.9ZM595.6 44.4c-5.7-.1-10.5.5-15.3-.5.3-4.4 3.1-7 5.7-10.1-6.8.6-11.8 5.7-13 12.2h30A15 15 0 0 0 590.2 34c2.3 3.5 5.6 6 5.4 10.5m-24.9 14.5c-.3-2.8-.4-10-.6-10.3-.2-.1-1.2.7-1.1 1 .4 9.5-.8 19.8.5 29.8 2.2-6.8-.2-13.4 1.2-20.5m5.6 19c.4-9.7.7-19.4 0-29-.8-.4-3.3-.6-3.8.4v28.9c0 1 3.8.9 3.8-.2m26.4-15.6c.3-5.6 5.6-2.3 3-13.7l-1.7 8.2c-1.6-2.7 0-5.3-.8-8a8 8 0 0 0-4.5 0c0 9.9-.5 19.4.3 29.2 0 1.2 3.8 1 4.1 0 1-3.1-.7-6.1 1-9.2l1.7 10c2.7-14-3.5-9-3-16.5m-24.3-12.5c.4 9.9-.8 19.5 1.1 29.7.8 1.3 1.7-37.6-1.1-29.7m17.5 28.3c1.9-8.7 1.3-20.7.2-29q-.9 5.2-.7 10.7zm-30-20.8c-7.6-2.5-14.5-.1-21.6-1.2-9.6 3.1 24.6 2.3 21.7 1.2M380.6 184.5a818 818 0 0 1 48.5-54.8c29.7-30.4 66.7-58.5 111-60.1V59.2q-34.5 2.1-64.3 19.5c-26 15-53.3 40-72.7 63l-30.7 36.5q3.1 4.2 8.2 6.3M565 68.8c.8 0 .8-2.5-.2-2.5l-21.5.1c-.6 0-.6 2.5.3 2.5 7.3 0 14 .3 21.4 0m-1 3.5q1 0 1.4-.3c.2-.2.1-1 0-1.2-.4-.8-19.5-.4-22.1-.2-.6 1 .7 1.9 1.8 1.9zm34 15.4c0-3 2.5-4.8 4.2-6.5h-28.3c2.4 2.2 4.2 4.4 4 7 0 2.8-2 4.5-4.8 6.6h29.8c-2-1.9-5-3.6-5-7m0 13.4c-7.4.9-11.6-.8-19 .1l-1.7-4-2 3.8c-2.1-.1-.8-2.8-1.6-3.3-1.6-1.1-4-.3-6-.3.4 1.7 1 3.2-.7 4-.8-1.5.2-2.9-1-4-1.4.8-1.8 4.3-.5 5.2h45.2c.6-2.2.6-4-1-5.6-1 1.6.2 3.1-1 4.4-1-1.4-.3-2.7-.5-4q-3-.4-5.7 0c-.3 1.5 0 2.8-1 4.2-2-1-1-2.9-2-4.6-1.7 1-.5 2.7-1.4 4Zm27.3 53.3v-44.5a4 4 0 0 0-1.5-3.1c-1.8-1.5-57-.8-64.7-.5-2.4-.5-7-.8-8.1 1.6l-.3 46.2c15.3 1.2 29.9.4 45 .2 10 0 19.4 1.2 29.6 0m-93 26.4 29.9-22c-11.8-1.3-12.3 1-23.7 5.8l-36.6 15.5c11.1.8 19.5.9 30.5.8m26 29.2 20-51.3c-4-.4-7.4-.3-11.2 0l-32.2 23.7zm50.2 8.6c2.5-2.4 5-4 6.8-6.9l-20.5-53c-4.7-.3-8.9-.3-13.7 0l-19.5 50.6c-.9 2.2-.7 3.2 1 4.8l25.4 24zm32.9-36-32.4-24c-3.9-.3-7.5-.5-11.3.3l19.8 51zm33.2-2.1c-5.2-2.5-9.2-4.1-13.8-6l-37-15.7c-3.3-1.4-7.4.3-10.5 0l30.7 22.2zm-305.8-.1c-1.4-2.6-13.4 14.2-13.7 15.3.3 4.1 13.4-15 13.7-15.3m122.3 7.8c-4.7 3-9.7 5.2-15 7.6l-20.6 9.8c-1.5.7 0 4.8 1.4 4.8l11.5.3c7.8.2 15.1-.5 23 .2l36.3-27.3c-10.8 1-22.6-2.6-33 .3-16.4 4.6-31 13.4-47 18.9l-7.3 16.3c1.8 1.8 3.6 3.5 6.3 5l7-11.6-3-8.4q3 1 5.3-.6 9.4-5.4 19.5-9.3c5-2 9.3-4.5 15.6-6Zm234.1 16.3-2.8 7.5 6.3 12c3-1.2 4.6-3 7.1-4.8l-7.2-15.6-24.3-11c-30.8-13-20.4-9.2-56.4-9l36.5 27.3 31.8-.3c1.7 0 3.7.6 4.3-1 .3-.9 1.8-3 .4-3.7l-36.5-18q18.7 6.4 35.8 15.6c1.7.9 3 1.8 5 1ZM555.5 211l-23.2-27-36.1 26.8zm107 0c5.9-.7 11.2-.7 17-.2l-36-26.7-23.3 27zm-296.7-9L377 188q.7-1 .3-1.8c-.3-.3-1-.8-1.6-.3-4.2 5-8.2 9.6-12 14.8-.5.7-.1 1.4.2 1.7q.9.7 1.9-.6m2.3 3 9.2-11.6c1.2-1.5 2.5-3.2 1.4-5.5L367 203.4q-.6.8-.2 1.4c.2.4.7 1 1.3.2m-.5 4.3L348.3 194c-1.6-1.2-5-.4-5 1.7 0 1.6 2 2 3 3 7.6 6.5 15.2 12.3 23.3 18.5 2-3.1.6-5.8-2-7.8m.1 11.3L339.9 198a49 49 0 0 0-22.2 2.2 487 487 0 0 0 52.2 41.3c1-7.3 0-14.1-2-21Zm-49.9-14.4c-.7-2.2-2.8-4.4-4.3-4q-9 2.9-16.8 8zm-11 19.5q1.9-1.3 2.4-2.4c3-5.4 6.4-10.1 9.7-15.3l-25.8 5.6zm24.6-8.2c-1-2.5-2.8-3.2-4.4-4.4-2-1.6-3.3-3.6-6.1-5l-10 16.6zm170 50.2L490.4 214l-34.7-.6-7 12.7zm42.4-48.8c3.4-1.8 6.3-2.6 9.2-5-6.5-.5-12.4-.1-18.7-.1h-40.8l5.9 28.2zm132.7 23.3 5.7-28.6-59.3.2 27.3 14.5zm50.3-16.3-6.8-12.5-34.7.3-10.8 53.7zm-222 43 64.8-44.5-11.1-10c-5.7 2.5-10.5 5.2-15.8 8l-43 22.5zm171-24.3-58.3-30.4-11.2 10 64.6 44.7zm-357.7-1c-1.3.7-2.2.5-2.3 1q-.1.7 0 1.6c.2 1.5 1.5 1.8 2.9 1.7q1-.2 2-1.7c1.2 1 3 1.1 4.3 2.4-1 1-1.8-.2-2.4.3s-.5 1.2-.4 2q.3 2.6 2.7 2.2c1-.2 1.7-.7 2.2-2.6.7 1.5 1.9 2.2 3.5 3-1.2.2-2.3 1.1-2.2 2q.2 2.8 2.3 2.7c1.7.1 2.1-1 2.7-2.6q1.6 2.3 4.7 3c-1.5 1-3.2.2-3.5 1.5-.1 1 0 2.2.8 2.6q1.3.6 3 .2c1.6-.4 0-1.9.9-3 .8 2.5 2.5 2.7 4.8 3.4-1.2.9-3.1 0-3.1 1.6q-.2 1.5.7 2.7c.6.5 1.8.4 2.5 0 1-.5.5-1.8 1.2-3 3 5.8 4.4-.5 7.4 6.8 1 .2 2.8-.4 3.5 0 .9.6.9 2 1.5 3.1.6 1.4 2.2.2 3-.1.6-.2 1.7-1.7.8-2.3L343 259c-18.8-13.1-35.8-28.2-53-43.2-.6-.6-1.8.1-2 .4-.1 0-.2 3.8 1 4 .4 0 1.1-.6 2 .3q-3.7 1.6-7.2 1l2.6-1.6c.8-.4 1.2-2 .4-2.3-2.6 1-3.7 3.8-4.6 6.5-.4 1.4 2 1.2 3.2 1 1.1-.2 1-1.6 2-3 .5 1.7 1.1 2.8 3 2.3 1-.2 1-1.3 1.8-2.9 1.3 1.6 2.1 2.5 3.5 3.3-1.2.5-2.3.3-2.6 1s-.5 1.7 0 2.3c.6.8 1.8.5 2.5.2.9-.3 1.1-1 2-2.4.5 1.4 1.6 2 3.3 2.9-1.1.9-2.5.6-2.7 1.3-.2 1-.2 2.5.5 2.8.5.3 2 .3 2.7 0 1.1-.5.2-2.2 1.6-2.4 1.2 3.8 2.2 1.5 3.4 3q-3.2.4-2.6 2.5.4 2 2.2 2c1.5.1 1.8-1.3 2.4-2.2 1.2.8 1.8 2 3.6 2.3-.4 1-1.6.5-2.2 1.2-1.1 1.2-.1 3.4 1.2 3.5 1.5.2 2.7 0 3.4-2.1.9 1.6 2.4 2 3.7 3m8-2.7 6-21.4-22.9 8c4.4 4.4 8.8 7.6 13.2 11.3q1.4 1.8 3.7 2.1m20.8-10.8a7 7 0 0 0-2.3-2.9l-10.2-7.7a151 151 0 0 0-5.8 20zm-68.8-3.9c2.5.3 4.4-2.6 2.9-3.2-1.3-.5-3.6 2.3-2.9 3.2m212.8 158.5a55 55 0 0 0 19 21.5l13.6-30.1-8.2-39.7-13-64.3-36.5-29.5c-6.2-4.9-11.9-9.5-18.4-14 .3 11.1 3.4 20.8 4.7 31.9-3.6-11-6-21.7-6.7-33.5-.6-1.6-3-3.4-4.7-3.4l39.2 170c.4 1.6 2 2.7 3 3.5l23.2 17.5c1.5-1.6 2-3.1 2.8-5a60 60 0 0 1-21.7-25.3c-1.8-4-3.5-7.3-4.6-11.7a1892 1892 0 0 1-22.2-95c-1.6-7.8-3.7-14.9-4.5-23l28.2 111.6c2 6.5 3.2 12.5 6.8 18.5m200.8-18.2 27-106.9c-2.6 16.2-6 31.3-9.7 47.1l-12.8 54.8c-4.5 19.5-12 37.2-29.2 47.9.7 2.1.7 3.7 2 5.6l24-18c1.1-.8 2.7-2.2 3-3.9l21.7-94.3 17.4-75.4c-1.8.6-4.7 2-4.9 4-1.4 15-3.4 23.3-7.6 37.2l4-21.8c.6-4.7 2.2-9.1 1.3-14.4L673.4 272l-20.3 99.9c-1 3.1-.2 5.7 1 8.4l11.6 26c14.5-9.1 21.9-23.5 26-39.7m-403-141c-1.4.5-1.6 2.3-1 3.4.4.6 1.8.3 2.7.2 1.1 0 1.2-1.5 1-2.8 0-1-1.2-1.2-2.7-.7Zm-6.2 1.9c-.7 1 .2 2.6 1 2.6 1 .1 2.1.2 2.5-.7.2-.6.8-1.8.3-2.8-.7-.4-3.2 0-3.8.9m303.8 13-14.5-13.7-19.1 64zm36.8 49.8-19-63.6-14.6 14zm-341.8-62.4c0-.9-2.7-.9-3.3-.3-.7.7-.8 2.8-.1 3.2.5.3 2 0 2.6 0 .6-.2.8-1.6.8-2.9m-8.6 8.7q3 .3 3.3-1.2.3-1.2-.3-2.6c-.4-1.6 1-2.9.3-4.6-2.2.4-2.4 2.4-4.1 3.8.7.3 1.5.2 2.2.8-1 .8-1.7 1-1.9 1.5-.3.7-.6 2.2.5 2.3Zm275 61.2 20.9-69-26.3 17.8-36 25zm122-26.5-62.3-42.8 21 69zm-375.8-41.4c-1.4.4-1.4 2.3-.8 3.3.4.8 2 .7 3 .4s.5-2 .4-3-1.4-1.2-2.6-.7m-2.5.6c-1.1-.1-2.9-.4-3.6.6-.6 1-.6 2.6.1 3 .9.3 2.3.4 3 0q.9-.9.5-3.6m-8 .9c-1.2.3-1.3 2.4-.8 3.3.4.7 2.3.5 3.2 0 .7-.5.8-2 .4-2.8q-1-1.4-2.9-.5m-4.6.6c-1.6.4-1.7 2-1.2 3.3.3 1 1.4.6 2.7.3.8-.3 1.6-1 1-2.6-.2-.7-.8-1.5-2.5-1m83.1 8.3-12.4-8.7-2.4 21.8zM345.1 253l2.3-21-19.7 10.8 14.8 11.7c.8.2 1.4 1 1.9.5q.4-.6.7-2m-74-17.7c-.3-1.7-2.3-.6-2.5.3 0 .6-1.3 2-.2 2.5 1 .5 3-1.2 2.7-2.8m24.9-.6q-3.2-.2-3 2c.1 1 0 2.5 1.7 2.5 1 0 2.5-.1 2.4-1.5 0-.9.2-3-1.1-3m3 .3c-.8 1.1-.6 3 .1 3.3.8.2 2.5.3 3-.3s.3-2.4-.1-3.1-2.6-.8-3 0Zm-10.8.8c-1 .6-.5 2.5-.2 3.3.5 1.1 2 .5 2.8.2 1.1-.4 1-2.3.7-3.1-.4-1.3-2-1.4-3.3-.4m-5.3.5c-1 1.5-.6 3.6.6 3.8.7 0 2.5.2 3-.5s.3-3-.4-3.4c-.7-.5-2.8-.6-3.2.1m-4 .6c-1.8.4-2 2-1.4 3.3.3.7 1.6.6 3 .4q1.4-.1.9-2.7-.1-1.4-2.5-1m-5.5 5c1.7 0 3.4-1.9 3-3.2-.3-1.6-2.6-1-3.5-.4s-1.3 3.5.5 3.6m-4.5.7q2.2-.1 2.4-1.6c.1-.7.2-2-.7-2.2q-2.7-.4-3.1 1.6c-.2 1 0 2.3 1.4 2.2m39.3.6c.4-1.2.4-3.6-1-4-.8-.3-2.6 0-2.8.7-.3.7-.2 2.3.3 2.9.6.8 1.8.4 3.5.4m-8-3.6c-1.8.3-1.4 1.8-1.2 3.1.3 1.6 1.5 1.4 3 1 1.6-.4 1.3-1.5 1-2.7q-.5-2-2.8-1.4m-37 4c.6.7 2 0 2.5-.4s1-2.5.3-2.6c-1.2 0-2.7 1.7-2.8 3m32.2.7c2.1 0 2.6-1 2.4-2.5-.1-1-.7-1.8-2.2-1.5-.8.1-2.4 0-2.3 1.3.1 1.1.2 2.8 2 2.7m-10.9-3.4c-2 .4-2.1 2-1.8 3.3q.6 1.6 2.7 1.2c2.1-.4 2-1.1 1.7-2.6-.2-1.2-.6-2.2-2.6-1.9m7.8 3.4c.8-.9 0-3-.9-3.4s-3.2-.9-3.3.5 0 2.8.7 3.2 2.4.7 3.5-.3m-12.3-2.7q-2.8.4-2.3 2.8 0 2 2.2 1.8 2 0 1.8-2.3c-.1-.8-.2-2.4-1.7-2.3m-4.4 1c-2 0-3 .3-3.2 1.9 0 .9.6 2.4 1.6 2.5 1 0 2.3-.6 2.5-1.6.2-.8 0-2.8-.9-2.8m93.6 3.1c-.9-1.6-3.3-2.6-4.9-3.2l.7 23c2-6.4 4.3-12.7 4.2-19.8Zm-22.4 11.7c5.3 3.9 9.6 7.5 15.7 10.8v-25c-4 2.8-12.1 9.8-15.7 14.2M268.6 244c-1.3.5-1.3 2.3-.8 3.4.4.7 2.3.5 3.2 0 .7-.5.7-2 .5-2.9-.4-1.2-1.9-1-3-.5m36.8 4.3c.7 1.2 2.7.7 3.4 0 .7-.8.4-2.6-.1-3.3s-2.6-.7-3.4-.1-.4 2.5.1 3.4m9.3-.5q.3-3.5-1.7-3.5c-.7 0-2.6-.4-2.7.6-.1 1.4.2 3 1 3.4s3.3.6 3.4-.5M264 249q3-1 2-3.4c-.6-1.2-2.5-.4-3 .7-.5.7-.7 3 1 2.7m30-2.1q0 3.9 3.3 2.8 1.8-.4 1-3.3-.7-1.4-3.4-.8c-1 .3-1.1.4-.9 1.3m9.4 2c1.1-.7.5-3.4-.5-3.6-1.2-.3-3.7-.7-3.6.9q.2 2.4 1.2 3c.8.1 2 .3 3-.3m-14-2.6c-1 .6-1 2.7-.3 3.6.5 1 2 .2 2.9 0 1.1-.3 1-2 .8-3.2s-2-1.2-3.4-.4m-30.2 4.2a2 2 0 0 0 2-.8q.7-1 .2-2.8c-1 1-2 2-2.3 3.6m24.8-3.6c-1.1.8-.7 2.7 0 3.4.7.8 2.5.8 3.3 0 1-.7.2-2 0-2.8-.5-1.3-2.2-1.4-3.3-.6m-5.5.8c-1 1.6-.3 3.3.7 3.5.8 0 2.5.3 2.9-.4.5-.8.2-2.8-.5-3.3s-2.6-.6-3 .2m-5 .7c-1 1.2-.7 3.5.6 3.7.7.1 2 .1 2.8-.7.7-.6.3-2.3-.3-3s-2.5-.9-3.1 0m-4.7.5c-1.3.4-1.3 2.5-1 3.5.4.8 2.2.4 3 .3 1-.1 1.1-1.8 1-3s-1.2-1.3-3-.8m317.5 119.9V248.4L569.1 295zM263.1 253.2c.7 1.1 2.7.6 3.4 0s.7-3.3-.2-3.5c-1-.4-2.3.1-2.8.6s-.9 2-.4 2.9m52.5.2c1-.6.1-2.9-.7-3.6-1-.8-2.6-.5-3.2.2-.7.8-.5 2.7 0 3.4s2.6 1 3.9 0m5-.3c1.1-.9.6-3.3-.6-3.6-1-.2-3.4-.7-3.4.6 0 1.4.3 2.8 1 3.2.5.3 2 .5 3-.2m286.2 41.7-9.4-25c-2.6-7-4.6-14-8-20.9l.1 120.6zm-296.8-41c.9-.6.2-2.7-.4-3.4s-3.3-.7-3.7.1c-.4 1.2-.2 2.9.4 3.3.8.6 2.5.6 3.7 0m-14-2.7c-1.3.4-1.2 2.7-.5 3.7.5.9 2.1.5 3 .2 1.3-.6.9-2 .6-3.3-.2-1-1.8-1.1-3.1-.6Zm8.4 3.4c1-.5.6-3.5-.6-3.8-1-.3-3.4-.5-3.3.8s.2 2.7.9 3 2 .4 3 0m-45.2.7c1.2.6 2.2-.5 2.5-1.1s.7-2.1 0-2.6c-1-.9-2.4-.3-2.8.5s-1 2.6.3 3.2m30.7-3.4c-.7 1.4-.5 3.5.5 3.7s2.7.3 3.5-.7c.6-.6 0-2.3-.5-3s-3-.9-3.5 0Zm-9.4.5c-1.7.3-2 1.8-1.4 3.4.2 1 1.5 1 2.8 1s1.3-1.4 1.1-3c-.1-1-.7-1.8-2.5-1.4m7.7 3.6c1-.5.5-3.4-.6-3.9s-3.4-.4-3.4 1c0 1.2.2 2.8.9 3s2 .4 3 0M624 296.5l-30.2-44.7 15.3 41.6c5.2 1.3 9.8 3.7 14.9 3.1m-348.6-43.6c-2.4.5-1.8 1.8-1.6 3 .3 1.8 1 1.7 2.4 1.4s2.2-1.1 1.8-2.6c-.3-1-1-2-2.6-1.8M567 293.3l14.5-41L552 297c5.9-.4 9.9-2.2 15-3.6m-298.2-35.7c.9 1.2 3 .4 3.5-.5.5-1.1.6-3.5-.8-3.5s-2.8.3-3 1-.5 2 .3 3m-4.6 1.2c1.8.4 3-.4 3.2-1s.3-2-.3-2.9c-.8-1-2.4-.2-3 .4-1 .6-1 3.2 0 3.5m63.6-1.6q-.7-2.7-1.6-3c-.9 0-2.1-.4-3 .4s-.3 3.2.7 3.6c1.2.5 4.4.6 4-1m-11.6 1.7c1-.6.2-3.3-.7-3.7-1-.4-3.5-.5-3.5.7 0 1.6.1 3.2 1.1 3.5.8.2 2.1.1 3-.5m1.7-3.6c-.8 1.5-.1 3.3.8 3.5s2.7.6 3.2-.5c.4-1 .1-2.4-.4-3.1s-3.1-.8-3.6.1m-12 4c.2-1.8-.7-3.5-1.5-3.5-1.3 0-3-.5-3 .8 0 1-.4 2.7.5 3.3s3.8.3 4-.7m5-.4c.5-2-.2-3.2-1-3.3-.7-.1-2-.4-3 .1-1.2.6-.3 2.8.3 3.5.7.9 3.5.8 3.8-.3m-51.5-2.3c-1 .6-1 2.3-.5 3 .8 1.1 2 .5 2.8.1 1-.6 1-2.4.6-3.1-.5-.9-2.2-.5-3 0m40.9 2.5q-.4-2.4-1.6-2.7c-.8 0-2.6-.5-2.8.3-.5 1.9 0 3.6 1.6 3.8.8.1 3 0 2.8-1.4Zm-44.8 2.5c1 0 2-.5 2-1 .2-.8.5-2.3-.3-3-.6-.5-2.3.2-2.5.9-.4 1-.7 3 .8 3m32.6-4.3c-1.9-.2-3.2.6-3 2 .1.8.2 2.4 1.7 2.4.8 0 2.5-.4 2.6-1.6.1-.8 0-2.7-1.3-2.8m6.4 3.5c1-.3.4-2.4 0-3.2-.6-.9-2.6-1.3-3.8-.6-1 .6-.4 2.5 0 3.2.5 1 2.3 1 3.8.6m-14.5-2.5c-.6 1.2-.6 3.3.4 3.5s2.8.3 3.5-.6c.5-.6 0-2.2-.5-3s-2.8-1-3.4 0m-5.1.5c-.9 1.3-.6 3.6.6 3.7.7.1 2.1.2 3-.5.7-.5 0-2.4-.5-3.2-.5-.6-2.6-.8-3.1 0m-1.4 3.1c-.1-1.5-.6-2.9-1.4-3-1 0-2.7-.3-3 .7-.3 1.7.2 3.4 1.6 3.7.9.1 2.9 0 2.8-1.4m56.2-2.2c-1 1.2-.3 3.1.5 3.7.7.6 2.4.2 3-.3 1-.8.6-2.6 0-3.3s-2.8-1-3.5-.1m-64.5 4.5c1.4.5 2.7-.1 2.8-.8q.4-1.4 0-3.1c-.4-1-3-.7-3.5.1-.5 1-.8 3.3.7 3.8m55.8-4.1q-3.2-.1-2.4 2.5.2 1.7 2 2c1.3 0 2.7-.7 2.5-2.3-.1-.8-.6-2.2-2-2.2m3.3.1c-.8 1.5-.3 3.3.7 3.5.8.2 2.7.4 3.3-.5s0-2.4-.5-3c-.5-.8-3-1-3.5 0m-7.3 4.3c1-.7.5-3.6-.6-3.8s-3.7-.7-3.6.6c.1 1.4.5 2.8 1.2 3.2s2 .6 3 0Zm-56 1c1.8-.8 2.4-1.3 2.2-2.6q-.2-2.2-2.4-1.7-1.9.2-1.5 2.7c.2 1 .5 2.2 1.6 1.6m45.6-.9q0-2.4-1-3c-.7-.4-2.3-.6-3 .1-1 1.1-.4 3.3.6 3.7s3.3.5 3.4-.8Zm1.4-3c-.8 1.6 0 3.4.8 3.6s2.8.2 3-.5c.4-1.2.3-3.1-.5-3.5-.7-.4-2.9-.7-3.4.4m-17.4 31.8c-1.3-.8-.6-2.5-1.5-2.8l-2.7-1c2.5-.6 2.6-1.4 2.5-2.5-.2-2-1.5-2.4-2.8-2.3-2.2.1-1.3 1.8-1.9 3.9l-1.2-3.4c-1.4-.2-2.6.3-3.6-.7 2-.6 3.6-.4 3.4-1.9q-.3-2.6-2.2-2.7c-1.7-.2-2 1.7-2.8 2.7-.8-.8-1.8-2.5-4.1-2.3 1.2-1.3 2.7-1.2 2.6-2.2q.1-2.2-1-3c-1-.7-2.7-.3-3 .4-.6 1 .3 2-.4 2.9q-.8-2.7-3.8-2.7c1-1 2-1.4 2-2.4 0-.8.1-2-.7-2.7s-2.3-.5-2.8.3c-.4.7-.1 1.5-1 2.5-.3-1.7-1.7-2.2-2.8-2.7.8-.9 2.1-3 .7-4.3-1.1-1.2-2.6 1.4-3.7 1.4-2.9 0 0-5.9-2.4-5.8-.6 0-2.5 1.8-2.9 1.8s-.5-1.2-1-1.5c-.6 0-1.1.9-1.2 1.4q-.3 1.2.8 2a778 778 0 0 0 66.7 52.7c1 .8 1.8 1.8 2.8 1.4.7-.3 2.3-1.2 1.7-2-.4-.7-1.9-.2-2.2-1 0-1 .8-2.6.1-3.5-1.7-.8-3.2.9-5 .5 0-1.3 1-3 .2-4.2-1.7-2.7-4.1 2.6-7-1.1q2.1-1 2-2c0-1 .2-2-1.2-2q-1.5-.3-2.9.3c-.4.4-.3 1.3-1 2-1.1-3.6-2.8-1.2-3.2-2.6 2.3-.5 3-1.1 2.8-2.7s-1.5-2-3.1-1.8c-1.2.2-1.2 1.4-1.6 2.9a7 7 0 0 0-3.9-3.1c2-.7 3.1-1 2.8-2.8s-1.4-2-3-2c-1.6.2-1.3 1.7-2 3.7-.9-.9-.4-2-1-2.6-.6-1-1.8-.3-3-1.3 1.2-.8 2.8-.6 2.9-1.6q0-2.2-.9-2.8c-.9-.5-2.4-.6-3 0-.8.9-.3 2-.5 3.2m1.2-31c-1 1.2-.4 3.2.4 3.9.6.6 2.3.3 3-.4 1-.7.6-2.5.1-3.3s-2.7-1-3.5-.2m9.4 2.8c.3-2-.6-3.3-1.4-3.4-.8 0-3 0-2.9.7.2 1.5.1 3.5 1.3 3.5.7 0 2.8.2 3-.8m-14.9-2.2c-.7 1.6-.2 3.4.7 3.7s2.6.4 3-.4c.4-1 .3-3-.5-3.5-.6-.3-2.8-.5-3.2.2m-1.7 4.2c1-.5.4-2.8-.3-3.5-.8-.8-3.4-1-3.7.2s0 2.6.6 3c.5.6 2.2.8 3.4.3m-12.9-3c-2.2.5-1.9 1.8-1.6 3.1.4 1.4 1.3 1.4 2.6 1.3q2.2-.3 1.6-2.8c-.2-1-.7-2-2.6-1.6m4 .2c-.8 1.7-.2 3.3.8 3.4s2.4.3 2.7-.4c.5-1.1.6-3-.2-3.3s-3-.6-3.4.3m60.3.3c-.8 1.2-.2 3.4.8 3.5.8.1 2.5.4 3-.4s.1-2.8-.6-3.4c-.6-.4-2.5-.7-3.2.3m-67.3 4.2c.9-1.3.3-3.6-.8-3.9-1.3-.4-2.9.5-3 1.5q0 1.6.8 2.7c.8 1.1 2.1 1 3-.3m60.7-.5c0-1.9-.3-3.3-1.7-3.4-1-.1-2.7-.6-2.8 1 0 1.4.3 3.4 1.4 3.5 1.1 0 3.1.2 3.1-1.1m1.3-3.2c-.8 1.4-.4 3.3.7 3.6.8.2 2.4.3 3-.5.4-.8.2-2.9-.5-3.4s-2.8-.4-3.2.3m-10.7.7c-.9 1.2-.4 3.2.3 4 .6.5 2.4 0 3.1-.6 1-.6.4-2.5 0-3.4-.3-.8-2.8-.8-3.4 0m-9.2.4q-3 0-2.2 2.6c.2 1.2 1 2.3 2.7 2 1-.3 2-1.1 1.6-2.6-.3-1-.6-2.2-2.1-2m8 2.5c-.3-2.6-1.3-3-3-3-2.1.2-2 1.6-1.6 3.3.3 1.4 1.8 1.3 3.4 1.2q1.4 0 1.1-1.5m-15.1-1.4c-.8 1.3-.3 3.5.6 3.6.9 0 2.7.4 3.2-.5s0-2.6-.7-3.3c-.5-.6-2.5-.9-3.1.2m-7.3 4c1-.5.3-2.5-.4-3.2s-3-1-3.5.1-.2 2.8.5 3.5c.6.6 2.3.4 3.4-.3m1.7-3.5c-.7 1.7 0 3.5.9 3.5 1 .1 2.5.4 2.8-.3.4-1.3.4-3-.3-3.5s-2.9-.8-3.4.3m-12.2 3.5q0-2.9-1.2-3-2-.2-2.8.5-.6 1.3-.1 2.8c.2 1.4 1.4 1.2 2.3 1.2 1 0 2 .3 1.8-1.5m5 .7c.9-.5.1-2.7-.4-3.5s-3.3-.8-3.6.2c-.3 1.2.1 2.6.6 3.1.5.7 2.2.8 3.4.2m56.4-3.4c-.8 1.4-.4 3.4.8 3.6.6 0 2 .2 2.7-.6.5-.7 0-2.2-.5-2.9s-2.4-1-3 0M256 291c3-3.6 6.6-6.4 9.4-10l-13.7-12-.5 26.5c2-1 3.3-2.7 4.8-4.5Zm21-21.6c-1 .6-.6 2.5-.2 3.5.5 1.1 2.2.5 3.2.2 1.3-.5.4-2.3.2-3.1-.2-1.2-2-1.1-3.1-.6Zm65.7 0c-1 1.4-.5 3.6.6 3.8.7.2 2 .2 2.8-.7.6-.6.2-2.1-.4-3-.4-.5-2.3-1-3 0m-70.8 4.6c.8 1 2.6.5 3.2-.2.7-.8.3-2.3-.1-3.2-.5-.8-2-1.1-3-.5-1 .5-.8 3 0 4Zm65.3-3.8c-.7 1.6-.1 3.2.7 3.5s2.6.4 3-.4c.3-1 .2-2.9-.5-3.4s-2.8-.5-3.2.3Zm-9 .4q-2.6.2-2 2.9c.1.9.5 1.9 2.2 1.5 1-.1 2.2-.4 2-2.1-.1-.9-.2-2.4-2.1-2.3m3.8.2c-.7 1.6-.2 3.4.9 3.6.7.1 2.2.2 2.7-.6s.3-2.5-.4-3-2.7-1.1-3.2 0m-6.8 3.3q-.3-2.2-1-2.8c-.7-.3-2.2-.6-3 0-1.1.8-.7 3.5.5 4 1.2.3 3.7.5 3.5-1.2m-15-1.7c-.8 1.4-.2 3.5.8 3.6.7.2 2.5.4 3-.4.5-1 0-2.7-.6-3.3s-2.6-1-3.2 0m9.5 2c.1-1.8-1-2.5-1.7-2.6-.8 0-3-.5-3 .5 0 1.8.4 3.5 1.7 3.6.9 0 3 0 3-1.5M249 295.8l.1-23.5c-1.3 4.6-7.7 22.4 0 23.5m54-19.2c1-.9 0-3.2-.9-3.8-1-.7-3.2-.6-3.3.8s.2 3 1.1 3.3c.8.4 2.1.4 3-.3m1.6-3.7c-1 1.5-.1 3.3.7 3.6.9.2 2.6.2 3.3-.7.6-.7.1-2.3-.4-3-.7-.6-3-1-3.6.1m49 0c-1.1.4-.8 2.1-.4 3.2.3.7 1.9.3 2.5 0 .8-.6.7-1.8.7-2.7-.1-1.3-1.5-1-2.7-.6m-63.2.5q-3 0-2.4 2.8.3 2 2.5 1.8c1.4 0 2.1-.5 1.9-2.4-.1-.8-.5-2.2-2-2.2m7.4 3q.6-3.3-1.7-3.3c-.8 0-2.7 0-2.9 1.1s.3 2.6 1 3c1 .4 3.4.5 3.6-.8m51.2 1.2q2.6-.4 2.7-1.5c0-.9-.1-2-.6-2.4a2 2 0 0 0-2.7 0c-1 1-.8 4 .6 4m-65.7-3.5c-1.2.7-.7 2.7-.2 3.7s2.3.6 3.2.3c1.5-.6.5-2.4.2-3.3-.3-1-2-1.3-3.3-.7Zm-5.5 1c-.8 1.4 0 3.2.8 3.5.7.2 2.5.2 2.8-.4.5-1 .2-2.8-.5-3.4-.6-.5-2.5-.7-3 .4m65.4 0c-.7 1.4-.3 3.2.8 3.5.9.2 2-.3 2.4-1 .7-.8.8-2.4 0-2.8-1-.5-2.6-.7-3.2.3M516.8 299l6.5 28.7 23-27.8-40.6-25.5 12 59.2c3-1.6 3.6-4.1 3-7.4l-7.4-42.4c1.9 4.6 2 9.8 3.5 15.2m137.8 30.5a9 9 0 0 0 3.1 3.6c1.2-2.5 1.5-5 2-7.8l10.4-51.1-40.6 25.9 23 26.9 8.6-37zm-321.2-49.7c1.7.6 3.2-.4 3.2-1.3-.1-1 0-2.3-.7-2.8s-2.3-.5-3 .2c-.9.9-.7 3.5.5 4m4.4-4c-.6 1.7.2 3 1 3.3q1.8.7 2.5-.5c.6-1 .5-3-.3-3.3-1-.3-2.8-.7-3.2.4Zm-10.5.8c-.7 1.4-.7 3.3.4 3.7.8.3 2.7.2 3.6-.7.5-.6-.2-2.1-.6-3s-3-.8-3.4 0Zm-7.7 4.3c1.5-.4 1-3.7-.4-4q-2.2-.2-3 .8-.9 1.4-.3 2.4 1 1.5 3.7.8m2-3.7c-.7 1.5 0 3.2.8 3.5 1 .4 2.8.4 3.3-.5s.3-2.7-.4-3.2-3.2-.8-3.7.2Zm36.6 0q-.7.7.2 1.7c.5.7 1.4-1.3 1.2-1.9s-1-.3-1.4.1m-47.1.7c-.8 1.6-.2 3.4.6 3.7 1 .3 2.5.3 3-.5.7-1 .4-2.7-.5-3.3-.7-.3-2.7-.8-3.2 0m43.3-.1c-1.2.4-1.2 2.1-.8 3.2.3 1 1.8.4 2.5 0 .8-.5.8-1.4.9-2.6s-1.3-1-2.6-.6m-50.4 4c.3-1.3.2-2.9-.4-3.2-.9-.4-2.4-.7-3.5-.1s-.3 2.7.3 3.4c.6.9 3.3.8 3.6-.1m1.4-3.2c-.7 1.6-.1 3.4.7 3.5 1.1.2 2.9.2 3.3-.5.5-1.2.5-2.8-.3-3.2-1-.5-3.3-1-3.8.2Zm-14.6.4c-2 .4-2.2 1.7-1.7 3.4q.4 1.4 2.7 1 2 0 1.6-2.5c-.3-1-.7-2.2-2.6-1.9m7.4.2c-.6-.9-4-.8-4 .2 0 1.4.3 3 1 3.3.7.6 2.2.4 3 0s.8-2.3 0-3.5m51.2 3.7c2 .4 2.8-1 2.8-1.7 0-.9.2-2.1-.7-2.3-.6-.1-2.1-.3-2.6.3-.5.8-.5 3.5.5 3.7m-65.4-2.6c-.7 1.2-.2 3.4.9 3.4.7 0 2.6.1 3-.5.5-1 .2-2.9-.6-3.3s-2.7-.7-3.2.4Zm59.9-.4c-1 .8-.4 2.2-.1 3 .4 1.2 2.6 1.1 3 .5.7-.7.7-2.8.2-3.4-.5-.5-2.4-.7-3.1 0m-5 .8c-1 1-.7 2.9 0 3.4s2.4.6 3 .1c.8-.6.3-2.5 0-3.5-.2-.7-2.1-.9-3 0m-5.4.7c-.8 1.6-.4 3.6.6 3.7s2.4.2 2.9-.6.4-2.7-.4-3.2c-.6-.4-2.7-.8-3.1.1m-10.5.9c-1.1 1.2-.6 3.5.4 4 .8.3 2.2 0 3-.8.8-.5.4-2.8-.5-3.3-.7-.5-2.2-.7-3 0m8.6 3.2c1-.7.5-2.7-.1-3.4-.8-.9-3.4-1-3.7.1q-.5 2.3.7 3c.7.6 2 1 3 .3Zm-16.2 1.3c1.2-.5.7-3-.3-3.8-.8-.6-3.2-.7-3.5.6s0 2.7.5 3.2c.8.7 2.2.5 3.3 0m1.9-3.8c-1 1.5-.3 3.2.7 3.6.8.3 2.5.2 3-.6s.4-2.8-.4-3.3c-.7-.4-2.7-.6-3.4.3m39.4-.5c-1.6-.3-2.3.6-2.6 1.3q-.7 1.3.1 2.9c1.5-1.3 2.4-2.4 2.5-4.2m-74 12.6-15.1-12.2L264 306zm24.6-7.5c1.7.5 3.2-.4 3.2-1.4q.2-1.6-1-2.5c-.7-.2-1.8-.9-3-.2s-.4 3.8.8 4.1m-7.8-1.1c0-2.1-1.2-2.7-2.5-2.5-1.9.2-1.9 1.8-1.7 3 .3 2 4.6 1 4.7.6 0-.2-.5-.7-.5-1.1m1.5-2.3c-.8 1.7-.3 3.6.8 3.6s2.8.5 3-.3c.4-1.3.5-3.3-.3-3.6s-3.1-.7-3.5.3m51.2 0c-1.3-.8-3.1-.3-3.3.7s-.4 2.3.6 2.8 2.2 0 2.7-.7 1-2.3 0-2.9m-58 3.1q-.4-2.4-1-2.6-1.4-.4-3 .2c-1.2.7-.4 3.1.6 3.6 1.1.5 3.5.5 3.3-1.2m52.4-2.5q-3-.4-3 2c.1 1 .4 2 1.6 2.1 1 .1 2.7-.5 2.6-1.8 0-.7.1-2.2-1.2-2.3m-84.8 22.7 3-22.7-13.2 13.7zm80-22q-3.1-.2-3 2c.1.8 0 2.4 1.6 2.4.8 0 2.3-.3 2.4-1.5.1-.8.3-2.9-1-3m-6.3.6q-2.6.6-1.5 3.4.4 1.3 2.5.9 1.8-.3 1.3-2.5c-.3-1-.7-2.2-2.4-1.8m-6.4.9c-1 .6-.8 2.3-.4 3 .6 1 2.6 1.2 3.2.6.9-.8.6-2.6.2-3.6-.3-.6-2.2-.5-3 0m-5.6.8c-1.2 1.5-.3 3.5.7 3.7.8.2 2.5.3 3-.4s.3-2.8-.4-3.4c-.6-.4-2.7-.7-3.3 0m-10.7.6c-1.2.4-.7 3 0 3.9s2.2.1 3.5-.2c.8-.2.3-2.4-.2-3.4-.4-.7-2-.6-3.3-.3m9 3.2c1-.8.2-3-.7-3.5s-3-.5-3.3.5c-.4 1.2-.4 3 .4 3.3s2.5.7 3.7-.3m-15.9.3c-.5-2-.7-3.2-2-3-1.1 0-2.4-.6-2.6 1-.1 1.6.3 3.4 1.7 3.5 1 0 3.3 0 3-1.5m1-2.7c-.6 1.4 0 3.1.7 3.5.8.5 3 .5 3.2-.4.4-1 .4-2.8-.3-3.3s-3.2-.7-3.6.2m45.8-.1c-2-.5-2.8.2-3.2.7-.6.7-.5 2.9.4 2.8 1.9-.2 2.6-2.4 2.8-3.5m-52.3 3.2c-.1-1.6-.4-2.9-1.5-3-.8 0-2.6-.4-2.8.7-.3 1.7.2 3.4 1.5 3.7 1 .2 2.9 0 2.8-1.4m45.2 1.7q2.1-.7 2.2-1.5c0-.8.3-2.2-.6-2.4-1.6-.3-3 .2-3 1.7.1.7.1 2.7 1.4 2.2m-5.9-2.7c-.7 1-.4 2.7.4 3.2.6.5 2 .3 2.5-.3s.6-2.3.2-3-2.5-.8-3 .1Zm-5 .8c-.8 1.1-.4 2.9.3 3.3s2.5.5 3-.3c.3-.8.2-2.3-.1-3.1-.3-.7-2.6-.8-3.2 0m-8.2.4c-1.8.2-3.4.1-3 2 .3 1.2.2 2.8 2.1 2.5 1-.1 2.7-.5 2.4-2-.1-.9-.3-2.7-1.5-2.5m2.8.1c-.7 1.8-.3 3.3.8 3.5 1 .2 2.3.3 2.6-.5.3-1 .7-3 0-3.2s-3-.5-3.4.2m-10.3.9c-1.2.6-.6 2.6-.1 3.5s2 .6 2.7.2c1.2-.6 1-2.1.8-3.3-.1-1-2-1.2-3.4-.4m-1.6 3c-.2-2.6-1-3-3-3-1.8 0-1.9 1.3-1.5 3.2.3 1.3 1.8 1.2 3.3 1 1.1 0 1.2-.2 1.2-1.2m-15-1.6c-.7 1.4-.3 3.5.7 3.7.8.1 2.5.2 3-.6s.2-2.7-.5-3.3c-.5-.5-2.7-.7-3.2.1m9 3c1-1 .2-3-.6-3.5s-3-.7-3.3.4c-.4 1.5.1 3.1.9 3.5s2.4.4 3-.4m36.3-2.2c-.2-1-2.8-1-3.1 0-.2.6-.6 2.7.3 3.1 1 .4 3.2-1.6 2.8-3m-6.6 3.8q2.4-.4 2-2.8-.4-1.3-2.5-.7c-2.1.6-1 2.8-.6 3.5.3.4.6 0 1 0m-2.8-2.4c-.5-1-2.8-.6-3.3 0s-.6 3 .2 3.3c1.1.4 2.7.1 3-.6.1-.6.7-1.8 0-2.8Zm246 75.4L567 296.6l-16.5 3.8 20 43zm16.4-18.6 24.8-53.5-16.4-4-17 74.7zM292 334.4c-12-8.3-22.7-16.4-33.5-25.4-4.6-3.8-8.3-8-13.6-11.8a36 36 0 0 0 14 33.8c9.4 6.5 21.8 6.5 33 3.4m8.3-25.6-15.9-12.3-6.2 21.5zm29.5-11.3c-1.2.5-.9 2.5-.4 3.2s2.6.8 3.4.1c.7-.6.6-2.5 0-3.3s-2.2-.3-3 0m-5.4.7c-.8 1.6-.4 3.3.7 3.6.9.2 2.3.2 2.7-.6s.6-2.9-.1-3.2-3-.4-3.3.2ZM276 318.5c2.3-7 4.2-13 5.7-20-6.4 3-11.7 6.5-17.9 10.4zm38.6-15.4c2.1-.2 3.4-.6 3.2-2.2-.1-.8.3-2.5-1.2-2.3s-3 .3-3.2 1.6c0 1 0 3 1.2 3m8.2-4.4c-1.2-.9-3-.6-3.9.3-.6.7-.2 2.1.5 3 .6 1 2.1.5 3.1 0 .9-.3 1.3-2.4.3-3.3m-14.2 1c-1 .6-1 3.2-.2 3.5s2.6.3 3.3 0c1-.6.7-2.7.2-3.6-.4-.7-2.3-.7-3.3 0Zm34.1 1.3c-.7-1-2.8-.3-2.8.7 0 .6-.8 2.5.5 2.6 1.1 0 3.1-2.4 2.3-3.3m-4.3 1.1c-.5-1-2.4-.9-3-.4s-1 2-.6 3.2 2.2.3 2.9-.4c.5-.4 1.3-1.3.7-2.4m-7.4.1c-1.4.3-1.8 1.7-1.6 2.9q.4 1.5 2.7 1c1 0 1.2-.8 1.4-2.4 0-1-.6-1.9-2.5-1.5m-6.2 1c-.8.7-1 3-.1 3.5.6.4 2.6.5 3.1 0 .8-.6.7-2.7.3-3.5s-2.3-.7-3.3 0Zm-5.2.7c-.7 1.5-.8 3.6.5 3.6.8 0 2.6.3 3-.5.2-.8.5-3-.2-3.4s-3-.4-3.3.3m-5.7.7c-.8 1.6-.2 3.3.8 3.5 1 .1 2.2 0 2.7-.6.7-.9.7-3-.2-3.3s-2.9-.6-3.3.3Zm243.7 46 25.8 26.1-34.2-73-2.8 12.2zm60.9.7 11.3-35.2c-.7-4.3-1.4-8.4-3-12.3L593.4 376c8.7-8.5 16-17 25-24.8M531.8 368l14-63.4-22 26.1zm112.9-1.8 7.4-36-21.9-25.6 13.6 61.5c-.7 1.8 1.7 1.8 1 .1m-307.3-59c-.5-1.4-2.2-.9-2.6-.2-.3.5-.9 2 0 2.8.8.1 3-1.7 2.6-2.7M330 311q2.2-.2 2.8-1.3c.2-.7.5-2.4-.3-2.6-1.3-.2-3 .3-3.2 1-.4.9-.6 3 .7 2.9m-5.6.2c.9.7 3 .4 3.4-.7.3-.8.7-3-.6-2.8s-2.7.3-3 1c-.1.6-.3 2.1.2 2.5m-2.3.8c1-.3 1-1.2 1-2s.3-1.8-1.2-1.6q-2 0-2.6 1c-.3.8-.6 2.4.2 2.7s1.8 0 2.6-.1m-4.3 9.2-15.5-11-9.9 17c9.3-1.8 17.3-3.5 25.4-6m-28.5 6.6 10.1-16.6c-7 3-14.2 5-21 8.9q5.2 4.8 10.9 7.7m42.8-15.6q-2.4-.9-3 .5-.4 1.1.4 2 1.6-1.1 2.6-2.5m-4.6 2c.4-2.7-2-1.7-3-1-.8.4-1.7 2.4-.4 3 .8.3 3.2-.7 3.4-2m226 33.2-8.2-26.7-4.4 21c4.2 2.2 7.8 4.8 12.5 5.7Zm81.8-5.7-4.6-20.4-5.4 15.7-2.9 11.3zm-319.6-17.9-23 5.5c.8 8.6 18.9-3.3 23-5.5m-69.4 11.7c1.1-2.2 1.2-3.4 1.3-5.7 2 .3 1 1.6 1.2 3 1.2-1.1 2.3-2.8.8-4-3.5 1-9.4 11.3-4.7 10.9-.3-1.8-.7-3.6.3-5.2.6.2.8 1.1 1.1 1Zm1.8 6.4c3.2-.8 7-2.5 8.2-6.4.5-1.7-2.3-3.8-3.8-3a9 9 0 0 0-4.8 5.9c-.2 1 1.3 1.7.4 3.5m362.5 65.7-2.8 6.5a139 139 0 0 0 34.2-.2l6.2-33.5-27.7 27.1q-3.2 3.2-7.2 5.7 1-3.2 3.3-5.3l32.9-32.7 7.9-38.6c-.4-1.7-2-2.3-3.5-4.3l-6.8 34c-.5 2.7-.6 6.3-2.5 8.2L626 392.8c3-4.8 7.3-8.1 10.6-12.7 1.8-2.4 4.6-3.8 6.1-6.7l-6.6-28.6c-4.2 1.5-8.2 3.7-12.5 5.5-2 .8-2.8 2.2-3.5 4.2l-12.6 40.7c-1 3-2.6 5.8-2.9 8.8 2 1.4 4.2 1.9 6 3.7Zm-45-.2 5.3-3.5c1.2-.9-.8-3.5-1.3-5l-14.5-47.2-15.2-7.3-6.7 29.6c3.5 3.3 6 6.7 9 10.2 1.4 1.7 3.7 2.6 4.1 5l-11.5-10.9c-2.8-2.6-4.7-5-5.4-9l-7.3-36.2q-2.1 1.4-3.8 4.1l8 38.4c11 10.5 21.8 20.6 32.2 31.7 1.7 1.8 3.1 3.5 4.2 6-3.4-1.4-5.4-3.7-7.7-6l-21.2-21q-3-2.8-6.6-5.8l6.9 33.6 10.5.7q11.7.7 23.2-.7c-.2-2.5-4-5.5-2.1-6.7Zm-309.2-64.9q2.2-1.5 3.2-2.7c.8-1.1-.2-3.6-.7-3.9-1.3 9.6-7.2 5.2-6.6 9.7zm-3.4-.7c1.6.7 3.2-.6 3.1-2.1-1.6.5-2 1.4-3.2 2m333 41L559.2 356l11 36.2zm19.2 9.4c1.4-3.4 2.5-6 3.4-9l8-27.1c-.1 1.2-1.2 1.2-2 2l-24.4 24.6zm-74.4 21.1-6.4-32.8-11.9 27.2c6 3.2 11.8 4.8 18.3 5.6m132.5-5.3-11.9-27.2-6.4 32.6a50 50 0 0 0 18.2-5.4m-526.7 5.2c2.1-1.8 15.9-2.1 12.2-3.9-1.5.9-3 1.4-4.2.4 2.3-3.5 8.3-2.9 10.5-4.8l-3.8.3c3-4.8 8.1-3.5 12.2-6-2.2-.8-3.6 1.6-5.8 0 3.6-2.3 7.2-4.5 11.4-4.7q-1.2-.7-.7-1c.2-.3.7-.5.3-.6-2.1.2-2-1.2-.4-1.5 3.6-1 6.8-1.4 9.9-2.7-2.4-.5-3.7 1.5-5-.4 3.1-.8 5.1-2.9 8-3.3 2.3-.3 4.5.2 6.3-1.3-8.5.2-6.7-.5-12 2.7a267 267 0 0 0-21.5 15 58 58 0 0 1-15.6 10.6c-4.4 2.2-10 5.1-15 5.5-2 .2-3.9 2-6.4 1.2q-2-.6-2.8 1.3c8 1.2 9.5-2.8 12.1-.9-1 .6-2.4.4-3 1.8 4 0 8.9-6.7 12-4.7-1 1.1-3.2.5-3.4 2.7 3.3-1.7 5.9-3.6 9.1-4.8-1.8-.4-3.2.2-4.4-.9Zm22.6 8c4.8-2.7 13.3.6 13.4-2.6-15.3-.4-8.5 1-20 2.8l-8 1.2c-2.6.4-5-.4-7-.3-2.6.1-5.6 2.8-8-.3 3.7-1.5 7.5-.5 10.5-2l8.1-4c1-.4 16-10.5 17.2-11.6 7.9-6.6 19.9-13.4 27.6-20.9a135 135 0 0 0-34.8 21.6 94 94 0 0 1-24.8 15.3c-1.8.7-4.3.4-5.7 2.6-1.5-.5-1.9.3-.7 1 3.7-1.2 12.9 5.6 8.2-.1 3.2-1.6 8.9 3.3 12.1 2.2-1.9-1.2-3.6-1-5-2.3 6.8-1.9 10 3.3 15 .8-2.7-.8-5.2.3-7-2l4.8-.2c3.4-.1 6.7 1.1 9.8.2-2-1.3-3.9.2-5.7-1.4Zm428-27.3c-4.8 2.8-8.5 5.9-13.7 6.3 4.3-3.2 9.2-7.9 14.4-8.8 5.5 1 10 6 14.3 8.6.7-1.5 1.7-3.2 2.1-5L588 385 571.2 395l16.5 45.5 9-25.6 5.5-14zm-392.8-4.5c-.6-1.1-9.1-.2-9.7 3.3 4.6-3 10.5-1.8 9.7-3.3m-5.6 5c-3.6-.7-7.5-.5-10.2 3 3.5-1.5 6.5-1.8 10.2-3m-5.7 4.3-4.8-.2c-2.3 0-4.4 1.4-5.7 3.2zm318 17.9c.6 4.6-1.4 7.7-2.5 11.2l-2 6.2 8.5-16.3-23.2-18c-.7 2.5.6 3.8 2.5 5 3.2 1.9 5.8 4.3 8.9 6.5 4.1 3-.5 17 .5 23 2.3-6 3.7-12.4 7.2-17.6m180.2 16c1.2-5.7-1.7-15.5.1-19.2 3.2-6.5 14.6-9.5 12.4-13.6l-23 17.9q3.6 7.9 7.8 14.9c-1-6-4.5-10.2-4.3-15.8 4.1 5 5 10.7 7 15.9m-517.4-20.4c-1.7-1-2.8.7-4.6 0 1.7-4 8.3-3.3 11.3-4.4l-4.5-1c6-4.2 11.3-1.7 11.5-4.4-13.7 1.8-7.7 1.2-11.6 4s-14.7 8.8-16.7 12.7a13 13 0 0 0 7.2-2.3c-2 0-3 1.6-5.2 1 3.6-4.8 8.6-3 12.6-5.6ZM582.2 433l-9.4-26.4a7 7 0 0 0-4.3 2.6zm15.7-7c2.2-6 6.1-10.7 8.8-16.5.6-1.3-2.2-2.6-3.6-3.1-3 8.2-6.5 16.2-8.8 25.1zm-105.5-12.2c-3.6-2.5-5.7-5.3-9.5-6.5l7.6 32.1zm193 25.7 7.4-32.3c-2.8.8-4.2 2.6-6.2 4.1-2.5 1.1-3.2 3.4-3 6.1zm-149.7 1c.4-4.4-1-7.3-1.6-10.8l-2.4-12.5q-10.7-.8-20.6-6c-1.2 1.3-2.7 4.2-1.8 6l21.8 19.1q2.1 2.4 4.6 4.3Zm115.3-9.7 16.1-14.1q-.9-2.9-2.5-5.5a58 58 0 0 1-20.4 6l-4.7 24.2zm-38.9-9.9c-2.4-2.2-4-3.3-6.1-4.5l-11 20.8zm-32 15.3-10.2-19.4a25 25 0 0 0-6.1 4.4zm-4.2 0-12.8-11.5c-10.5.8-18 8.8-17.4 20-3.3-5.1-1.6-11.2 2.1-15.2q4.9-5.7 12.2-6.8c-.3-1.6.3-2.6 1.1-4l-26.5-.7 5.3 27 16-.2c-1.9-2.7-2.8-6.2-1.3-9.3 4.8-9.8 20 2.4 25.6 5.4a21 21 0 0 0-4.3-4.8m36.6-10.8c-7 4.1-11.8 10.3-17.8 15.5 6.1-1.8 17.2-13.2 24.7-7.6 3.6 2.8 3 7.8.3 11.4l16.1.1 5.2-27-27 .6c.8 1 1.8 1.3 1.9 2.2q-.2.7-1 1.7c5 1.3 9.6 3 12.8 6.8 3.9 4.5 5.3 10 2.7 15.3-1.3-4-.6-7.1-2.8-10.9-2.4-4-10-10.2-15.1-8ZM535 444.6c-5.4-6-11.2-11-17.3-16.1-1.8-1.5-3.1-3.7-5.6-4-3.7 5.1-7 10.2-12 14 2.3-6 7-10 10.4-15.6.7-1.1-2.3-3.4-3.6-2.7L495 443c5.6-1 20.6-16.4 26.8-6.4q1.9 3.5-.4 8.1c4.7.1 8.6.5 13.5-.1m105.9 0c4.8.6 8.7.2 13.2 0-1.9-3.1-1.7-6.3.1-8.6 6.5-8.2 19.6 4.3 26.8 7.7l-12.2-24.1c-1.3 0-4 2.2-3.4 3.4 3.6 6 8.4 10.7 11.5 16.9-5.9-4.2-8.8-10.1-13.6-14.9-1.5-.4-3.3 1.8-4.4 2.8-6.2 5.5-12.5 10.4-18 16.8m-59.2 0-15-8.6c-2.9-1.7-6.4-2.5-9.1-.4-1.5 1.7-1.3 3.8-.3 5.8.6 1.3 2.6 3 4.7 3.2q9.8.6 19.7 0m37.2-7.2c-2.7-9.2-20.2 5-25.4 7.4 7-.8 28.6 3.5 25.4-7.4m-103.4 7.4c2.1 0 3.8-1.5 4.3-3 .7-2 .2-4-1-5a6 6 0 0 0-5.8-.6l-16 8.4zm162.4-.3-12.6-7.3c-2.5-1.2-5.2-2-7.8-.8-1.8 1-2 3-1.7 5a4 4 0 0 0 4 3.3q9.4.4 18.1-.2m-138 7.8a8 8 0 0 0-2.3-4.6l-42.5.1c1.4 2 3.2 4.3 5 4.3zm94.6-4.6h-93.6c.3 1.7 1.3 3.8 3 4.6h88c1.4-1 2.8-3.4 2.6-4.6m40.4 4.4c2.7 0 4.6-2.5 5.6-4.3h-41.8c-1.7.2-2.5 3.2-2.7 4.5zm-541.6-.7c-3.2-.4-5.5 2-8 4 3.1-.3 5.3-2.3 8-4m11.8-.2q-3 .4-5 2.7c2-.3 3.6-.9 5-2.7m-21 .8c-2.2 1.7-5 2.1-7 4 6.7-.6 12-7.8 7-4m-7.9 1.6q-5-.4-7 3.4zm-14.8.6c-3.6-1-6.2 1.7-9 3.1 4 .4 5.9-2.3 9-3m6 .1c1 0-.2-.5-1-.4l-5.7 2.6c2.7 1.2 4.3-.7 6.7-2.2m-21.5.6c-3 .7-5.2 1.5-7.2 3.7q4.3-1 7.2-3.7m6.6-.2c-2.4.5-4.3 1-6 2.6 2.5.3 4.5-.9 6-2.6m-24 3.2q1.1-.8 0-1.4c-2.1 1.7-4.4 2.2-5.8 4.5 2.3-.5 3.7-2 5.8-3m7.6-1c-3 .1-4.7 1.8-6.4 3.4 3-.4 4.3-2.5 6.4-3.3m-23 6.6c3.8-.5 5.3-2.9 7.7-4.9-3.4.5-5.4 3-7.7 5m-2.4-1.8c-2.7 1.2-4.2 2.9-6.2 4.8 2.6-.4 4.8-2.5 6.2-4.8m-12.6 7.5q3.8-2.3 5.5-5.5a11 11 0 0 0-5.5 5.5"/><path d="M45.2 443.4c3.4-.7 5.9-7.2 10-5-.6 1.4-2.3.8-2.3 2.7 2.4-.3 5.6-5.4 9.8-3.7l-3.5 3c4.4-.7 7-6.2 11.7-2.7-1.4 2-4 .3-4.9 2.6 2.9 1 7.6-5.8 13-2.3-1.5 1.6-3.5 1.3-5.7 2.2 4.6 1.4 7.7-4.7 13.2-1.2l-4.4 2.4c2.4 1.7 6.3-4.6 12-1-1.5 1.7-3.2 1-4.6 2 4.8.7 6.7-4.5 11.4-.2l-4.4.8c5.2 2.4 5.6-4.6 11.6-.4-.6 1.2-2 .8-3 2 2.3-.2 4.2-1.4 6.6-2.4 2.6-1.2 6.8 5 7.5.2q-3.8-.5-7.1-3.7c9.6-1 5.3 5.6 19 5.3-1-1.3-2.6-.2-4-.8-2.4-1.2-4.2-3-6.6-3.6 2.4-1.6 4.5.6 6.4.2 11.3-2.2 10.9 4.2 17.8 3.2 1.7.8 1.6-1.5-.1-.6l-8.8-2.8c8.3-4.3 14 6.4 19.6.6q-6 1.3-11.1-1.4c12.2-3.4 9.7 4 18.6-.2-3.7 0-6.8.4-10.2-1.1 4.6-2 9.3-1 14.4-.1 1.4-.2 1.5-1 0-1.3-2.2 0-4.3.7-6-.9 2.6-.4 4.5-.8 6.8-1.4 2.5-.7 5 .7 7.6-.6-1.8-.5-3.5-.6-6.2-.7 3.4-2 7.4-1.7 11.8-2.7-1.6-1.1-3.4.4-5.7-.8q5.2-2.4 10.6-3.5c-2-1.2-3.4.8-5.7 0 5.2-3.4 8-3.7 12.7-6.5-1.5.2-2.6 1-4.5 1 1.8-4.2 7.5-4.2 10.7-6.6-2.5-.2-3.7 1.4-5.4.8 1.8-3.6 5.3-3.8 9-6.2l-3.5.1c.5-2.8 8.5-5.1 9.1-7.6-2.3.2-2.8 2.3-4.7 2 1-4 6.7-5.6 8.4-8.4-2.3 0-2.7 2.5-4.9 2.8.6-3.2 3.8-5.4 7.2-5.8-2.1 8-12 20.6-17.3 26.1q-11.6 11.9-26.1 19.7c-14 7.6-23.1 7-37.6 9.8-3.4.7-6.7 2.8-10.3 1.1q-3.3-1.5-6.8-2c2 1.9 4.2 1.6 6.5 3-10.4 2.6-9.1-3.8-15.7-2.2 2.6.8 5 1 7.3 2.9-9.7 2.9-10.3-6.5-17.2-2.6 3.4 0 6.2.4 9.8 3.2-7.3 2.7-8.9-5.2-16-3.6 4.8 1.2 3.9 1.8 9.4 4-2.4 1.4-4.8.4-7.3.7-9.9 1.3-14.2-7-20.3-3.4 5.1.9 9.4 1.4 13.5 3.8l-17 2-9.9 2a85 85 0 0 0-35 15.2l-.6-3C19 469.2 15 466 13.4 462c-2 1.5-3.3 3.7-5.4 4.6-2.4 1-4.7.1-6-2.2-.7-1.4-.4-4.8 2.2-4.2 2.2.6 4.7-1.1 7.4-1.8-.5 2.9-3.5 3.9-4.2 6.9l5.4-5c1.2-1.2.9-4.1 3.7-3.8-.3 1.6-1.3 3 0 4 1.3-3.8 2.4-7.1 6.5-9 0 3-1.6 4.7-2.5 7.4 3-1.1 1.1-6.5 7.4-10.7l-1.3 5.4c3-3.6 2.1-6.9 7.8-9.3.2 2.1-1.4 3.4-2.2 5-.2.3.9.7 1 1s-9.4 6.1-9.7 8.4c-.1 1 1.5 1 2.2 2.4-3 .6-5.4-1-8.4.5l7.3 1.2c-.8 2.5-3.4 1.6-5 3.4 5.5-.7 5.4-4.6 16.3-4.8-2.6-3.3-7.4 2.3-9.9-2.2.9-3 8-8 9-8 3-.6 4.3-2.3 6.5-3.7 2.5-1.5 7 0 8.5-3.6-5 .2-12.2 4.8-16.8 6 2.5-4.4 3-7.6 7.7-8.2 0 2-1.5 2.5-2 4 2 .7 4.4-7 8.3-5.6-.2 1.4-1.3 2-2 3.3Zm90.4.2c-2.2-2.3-4.3-2.5-6.7-3a8 8 0 0 0 6.7 3m-72.1-1.2c-1.7-.6-2.5-.7-3.6 0 1.1.6 2.6.5 3.6 0m-6.3.6c-2.6-.9-4.6 0-6.3 1.1 2.6 1.1 4.4-.3 6.3-1.1m21.1 3c2.4.2 4.7-1 7-1 0 0 11.5.9 9.1-.9l-25.2-1.4c-4.8-.3-34.7 7.3-38 14.1 8.8-4 17.8-7.3 27.8-9 6.5-1 12.6-2.3 19.3-1.8Zm51.4 0c-2.6-.8-4.2-.8-5.7 0q3.2.7 5.6 0m-36.1 4.2c-4.3-2.8-7.8-4.4-11.9-2.8 7.6-.3 8.4 4 11.9 2.8M77.5 452c-3.5-3.4-9.2-5.8-13.5-2.4 5-1.2 8.4.4 13.5 2.4m-9.2.4c-4.2-3-8.6-4-12-2.1 4.7-.5 8 1.5 12 2M47 453c3.3-1 6.2-.4 9.3-.3 1.6 1.1 3.5 1.8 5.2.8-8.4-1.9-6.7-4.2-15.7-.5-2.2 1-4.7 1-6.2 3 7.9-2.8 7.3.3 12.7-1-1.8-1.2-3.7-.2-5.3-2Zm-3.3 4.6c-4.5-1.8-9.6-1.6-12.7 2 4.2-2 8-.8 12.7-2m-16.5 9.2c1-.2 1.9-1 1.7-1.3-.2-.5-2.2-.5-2.3.4-1.6.2-1 .9.6.9Z"/><path d="M48 432.2c4.7-2.5 8.5-6 14-5.4-1 2-3.8 1-4 3.5 4-2 7.6-4.5 11.6-2.9-1.6 1.7-3.5 1.8-5.4 3 3.6.5 6-4.5 13.2-2.9-1 1.8-3 1.6-4.8 3 3 .7 9.6-5 12.8-1.4-2.4 1.4-5.1.8-6.5 3.1 4.8-1.3 8.4-4.2 13.7-2.7l-4.5 2.4c5.5.1 3.8-3.5 13.6-1.6-1.4 1.5-3.3.2-5 1.5-1.3.6-.6 1.4.6 1.1 4-2 8-3.5 12.2-1.8-2.6 1.6-5.3.6-6.7 3.1 4-.8 8.2-4.7 12.9-2.4-1.7 1.1-3.6 1.5-5 3 4-1.4 7.7-3.7 12.2-3-1 2.7-4.3 1.3-4.6 3.9 4.9-1.7 8.7-5 13.8-4-2 2-4.4 2-5 3.8 5-2 7.7-4.9 12.6-4l-5.2 3.7c5.1-1.5 7.7-5.6 13.4-5-2 1.9-4.7 2-5.3 4.3 5.2-2.2 8.4-5.9 14-5.8-1.6 2-4.8 1.7-4.9 4.3 4.6-2.9 8.1-6.4 13.5-6.9-.7 2.1-3.6 1.7-3.7 4.2 3.3-2.6 5.9-5.5 10-6.2-.4 2.2-3 2.4-3.7 4.7 4.1-2.4 6-6.6 10.7-8.9.2 2.2-2 3.3-3 5.3 3.5-.7 5.4-8.3 9-8.6 0 1.2-.8 2 0 2.8 4.2-3.7 1.5-5.1 7.6-9.7.4 1.5-.8 1.8-1 2.6-.1.4.7.8 1 1.4l-10.9 9.5c-16.6 14.6-58.8 15.2-80 12q-9.6-1.5-19.4-2c-3.2-.2-16.2-1.3-18.5-.7 0 0-5.4.2-6.2-1.4-.4-.6-.4-.3-.5 0-.8 3.2-1 .3-10 2.4l-7.4 1.7C14 441.1 6.7 455.2 4 455c-1.4-.1-3.4-.6-3.8-2.6-1.3-7.2 7.6-10.7 12.7-14 2.9-1.8 5.4-3.6 9.1-4.2-1.8 2.3-4.8 2-6.8 3.8l-4.6 3.9c-2.7 2.3-6.2 3.8-8 6.8l4-2.4C7 449.1 4 450.4 5 453c2-4.6 3-8.6 7.1-11.1l-2 6.5c3.4-3.5 3-8.5 9.2-11.5.4 3-2.1 4.2-3.8 6.4 3.3 1 4.7-8.5 11.7-10 .2 2.4-2 3.2-3.2 5 3.6.3 2.1-5.2 11.5-7.6-.4 2.3-2.3 2.4-3 4.1 4.7-.7 3.5-5.4 12.1-6.2l-5 4.8c3.2-.9 10.2-8 13.6-5.7-1.7 2.2-4 2.5-5.2 4.5Z"/><path d="M71 425.1c-8 2-10.9-6.6-16.8-4.5 6 1.7 4.3 1.4 9.6 4.6-9 2.2-11.1-7.5-18-3.8 2.8.1 5 0 6.8 2.5-.9.8-2.2 0-2.5 1.2 2.3.3 4.3-2.3 6 .6-8 0-12.3 1.2-19.7 3-1.5.3-4.6-2.4-6 .6-.2.4 0 1.3-.5 1.5-.5.4-2 1-2.2.3 5.9-4.4-12.8 3.1-12.8 3.2-2.7 1-10.5 7.3-13.8 3.5q-1.8-2.5.2-5.2c2-2.4 5-2.7 7.6-4a90 90 0 0 1 25.7-8c8.6-1.3 16.7-2.3 25.3-1.7l9 .6 13.6 1.9c11.3 1.5 5 1.9 14.8 5.7-.9-1.4-2.5-1.5-2.8-3.6 3.8 1 7.1 1.8 10.1 4.8-4.7.4-9-.6-13.5-1.1-2.9-.4-6.4-6-9.4-4.7 2 2 4.6 2.4 6.3 4.3-10.8.3-9.9-6.5-16.1-4.9 3 .8 5.6 2 7.8 4.5-2-.6-3.6-.5-5.5-.7-3.7-.5-7.4-7.6-10.8-4.7 2.8 1.1 5 2.2 7.5 4.1m-23.2.3c1.6.3 2.2-1 .6-1.1-3.3-2.4-7-4.6-10.3-2.2 3.6 0 6.6.6 9.7 3.3m-5.4-1c-4.2 1-8.7-4.9-13.4-.3 4.7-1.3 14.3 3.2 13.4.3M34 426c-4.7-1.3-9-2.8-13.5-.6 2.7-.1 12.6 1.6 13.5.6m-9.3 2.3c-4-2.7-8.7-2-12.2 0 4.7 0 8.3-1 12.2 0m-20.4 9.4c3.6-.6 5.5-3.5 7.6-6 1.7-2 4.7.1 6.8-1.9-6-.9-12.1-.3-16.7 3.4 3.3.7 5.2-2.5 8.3-1.5-1.4 3-4.4 3.5-6 6M837.3 93.9c-4.8 1.8-21.5 2.5-27 2l-9.1-.7c-10.2-.9-19.8-3.7-29.6-6.6L747 81.6c-25.1-7.4-53.8-13.7-79.8-15l-12-.7-16-.8c7.2-.2 14.5-.5 22 0l10.5.7 11.4 1.3q22 2.6 43.7 7.7c20.3 4.7 57.9 18.1 76.5 19.6l7.2.5c4.6.4 9.3.1 14 .2 4.3 0 8.3-1.8 12.8-1.1M678.4 54.7l-24.7 2.7c-3.9.5-7.6.2-11.6.4-3.2.2-6.2 1.4-9.1.3 4.8-1.4 9.3-.7 14-1.2l8.4-.8c9.6-1 18.5-1.8 28.2-3.3 33.3-5 65-14.9 96-27.8a105 105 0 0 1 31.5-8.7c5.2-.4 10.4 1.4 14.9 3-2.8 1.1-4.7-1.5-7.3-1.5-3.9 0-8-.6-11.8 0-9.1 1.3-17.3 4.5-25.8 7.9a394 394 0 0 1-95.2 27.8zM35.4 440.6c0 .8 1 .5 1.4 1.2l-8.5 3.3c-1.4-.7-1.6.1-.5 1-1.5 3-6 2.8-7.7 5a19 19 0 0 1-10.6 6.5c-1.5.4-2.5 2.5-4.3 1.5 11.6-9.5 23.2-20.3 38.7-23.3l6.4-1.2 8.4-.8c8-.8 9.7.3 15.7-.5-.6 0 8.8 1.2 6.7 4-2.7-2.4-5.1-2.2-8-1.5-2.5.6-5.3-1.5-7.7-1.2v1.3c-.2.3-1 .3-1.4.1-3-1.2-5.4.2-8.1.7-2 .3-4-1.2-5.7.5s-5.1 0-7.8.7c.1.5 1 .4 1.4 1.4-2.5 1.4-4.9 1.4-8.4 1.3M699.4 40.1c-21.4 7-44 10.8-66.5 11 3.1-1.5 6.5-1 10-1.2l9-.9c23.9-2.2 58.4-10.6 78-25.1q2.8-2 3.1-4.6c.2-2.2 0-4.1-2-5.4-1.7-1.1-3.7 0-5.8-.8a10 10 0 0 1 5-.3c3 .3 5.4 4.5 3.7 7.2a20 20 0 0 1-5.3 6Q715 35 699.3 40M730.8 98.8c-3.4 4.7-7.8 1-7.7 1.5-.8-3 3.5 1.8 6.4-1.3 3.3-3.5-4-7.6-7.2-9a200 200 0 0 0-65.5-16.5q-3.5-.3-7-.9c-4.4-.7-8.5.8-13.2-.7 3.8-2 7.5-.2 11.2-.2 20.5.4 43.7 5.7 63.1 12.4 4.4 1.5 24.3 8.6 19.9 14.7ZM222.9 372c-1.6-6.7 13.5-22 19.7-24.3a52 52 0 0 1-19.7 24.4m6.1-9.6a15 15 0 0 0 6.5-7c-2.3.8-2.7 2.6-3.9 4.1-.8 1-2.7.7-2.6 3"/><path d="M231.1 354.2c-2.8 4.5-5.2 3-8.6 6.7 1.5.5 1.7-1 3.2-1.2.6 2-2.1 3-2.4 4.5-.4 2.2-1 5-2.7 6.6-1.2-.4-2.5-2-2.1-3.3 4.5-16.8 21.6-24 23.5-22 2.2 2.5-7.7 3.3-8.1 3.8.7.7 1.2.6 1.6.6 1 .1.3.3-.8 1.5-1.8 1.8-4.3 1.2-6.5 3 .9.7 1.6-.7 3-.3M236.9 368.5c1.6 2.7-1.7 3.2-1.4 5.8l6-10.8c2 1-.6 2.7.5 4.6.8-3.8 1.2-7.5 3.6-11.3l.6 5.7c1.8-3.8.9-7.2 1-11.5 2.4 1.9 2.5 4.8 1.8 7.5-2.1 8-7.6 13.7-14.7 17.8q-.8.6-1.6.8c-.5 0-1-1-1.4-1-.6.4-.8 1.3-1.3 1.7-.7.4-1.5-.6-1.8-1.2-1.5-2.2 6-1.6 8.7-8M197.5 426.8c-5.2 5-10.7 9.2-17.3 13 .5-3.6 3.1-5 4.4-7.6-1.2-.5-1.7 1.2-3 .4 2-2 4.1-3 6.5-4.7-.9 2.4-1.8 4.2-1.8 6.4 6-8.8 2.7-6.2 2.7-7.6 0 .8 13.1-12 14.3-14.1.5 2-.9 3.6.7 5.5.9-2.6 1.7-5.5 4-7.3 2.8 1.9 1.1-3.2 3.3-6.1-5 1.2-1.7 6.3-6.9 6.8l7.4-10.8c.1 3-.8 5 .9 7 .9-10.3 3.2-5.5 4.5-12.8 1 0 2.4.7 3.1 1.5-.5 2.3-2.4 4.3-3.8 6.3-.8 1.2-.7 3-1.9 3.9-4.6 3.5-1 7-6 6.7 3.5 1.9-3.7 2.3-1.2 5.8l-3.1 4c-.6-2.2 1.6-2.5 2-4.9-3.2 1-6.5 8-8.3 7.6q1.5-4.8 4-8.5c-3-.4-3.1 2.7-4.5 3.8-2.4 2-5.4 2.9-5.1 6.8 0 1-2.1 2-.9 3.3 2.4-3 3-6.4 5.8-9.2 1.5 1.5 0 3.1.2 4.8ZM760.3 73.9c-3 0-4.4-1.8-6.5-2.7-14-5.8-28.5-8.4-43.6-10-3.2-.4-6.3 1-9.5-.8 5.1-1.2 9.6.2 14.7.5q19.8 1 37.7 9.4c2.6 1.2 5.3 1.5 7.2 3.6"/><path d="M226.2 351.4c-2.5 2-4 4.2-5.7 6.9-1.4 2.3-4.4 3.6-4 7 1-.8.2-2.5 2-2.8-3.5 13.9-8.2-4.7 7.4-15.7 3.8-2.7 8-5.3 12.6-2.9l-9.3 1.5c1.4.9 2.7-.5 4 .7-6 4-5.5 3-11.1 6zm-6.1 5.7c.8-1-.4-1.4-1.2-.5-.2.5-1.2 1-1.2 1.3.1.5.9.5 1 .4.3-.3.5-.6 1.4-1.2M223.8 372.7c3-2 6.2-2.5 10-3.6-1.3.1-2.4.6-4 0q2.3-3 7-4c-.2-1-1-.6-2-1a11 11 0 0 1 7.3-5.2c-.4 2.7-1.8 5-4.9 5.2.2.8 1 .6 1.2 1 .3.5-12.4 14-14.6 7.6M187.6 439.1a34 34 0 0 1-13.8 7.7c.1-2.5 1.8-.9 8.8-5.5 8-5.2 14.8-11 21.4-18l-4.8 6.6zM245 372.4c2.3 2.8 1.6-7.6 3.3-7.9 1.3 1.3-.2 2.4.6 3.6 2-2.5-.7-5.4 1.2-8.7 2.3 7-1.6 15-8.4 18.7 2.5-6-.6-5.4 4.3-9.8.7 1.2.4 2.2-1 4.1ZM772.3 59.4c-1 3-7.5 2.8-10 0a9 9 0 0 1 9.4-2.3c.8.3.7 1.8.6 2.3m-1-.5c-2-1.9-4.4-1.2-6.3.4 2 .9 4.3 1.4 6.3-.4M807.5 53.7c-3 .2-5.2-1.3-8.8-.5 1.2-1 7.7-8 10.4-3.8.8 1.2.4 4.2-1.6 4.3m1.2-1.3c.8-2.1-.9-3.1-2.1-3.2-.8 0-2.8 1-2.3 2 .8 1.3 2.7 1.4 4.4 1.2"/><path d="M220.8 349.1a7 7 0 0 1-5.2 3.8c3.2.6-2.2 6.3-3 5.4 1.5-7.2 6.7-13.2 13.2-13.9-2.5 1.8-3.4 3.4-6 3.5.1.4 1.3.7 1 1.2M243.6 354c.2-.6-1-.9-1.2-1.5q1.1-2.6 3.3-4.9c.7 5-1 10.4-6.6 11.4q.6-3.2 4.5-5M764.6 15.4c1.5-1.6 4-2.4 3.6-5-4 .6-5.6 4-7.6 7.2-.3-4.9 7-10 8.5-7.6s-2.2 5-4.5 5.4M786.1 111c1.5 0 3.3 1 4 2.7.6 1.3 0 3-.9 3.4-3.3 1.8-5.1-3.7-6.4-6.6 2 .5 2.2 2.2 2.5 3.8q.6 1.4 1.6 1.8c.9.4 2.5.1 2.4-1.3 0-1.8-2-2.4-3.2-3.9M10 425.4c1.9-3.9 3.6-8.1 7.6-8.8-1.7 4.1-3.5 8-7.6 8.8M205.4 370.4c1.9-.9 1.7 3.8 2.2 5.3-2.1-.5-3.7-2.4-2.8-4.5q.3-.7.6-.8M212.3 379.8q-4.3-2.6-4.3-7.5c3.8.6 5.4 4.3 4.3 7.5M231.7 379.4c1.1-.7 5.8-4.1 6.1-1.5.7-2 1.7-4 4.5-4-1 3.6-3.5 7.2-7 7.3-.7-1.2-2.3-.4-3.6-1.8M217.3 391.4c-2.4-.6-2.4-3-3.8-3.7-1-.6-3.6.6-5-7.5 3.1.4 4.6 3.5 4.2 7 1.7-.2.7-1.7.9-3.2 3.1.9 4.4 4.4 3.7 7.4M219.4 377.8c-3.2-1.7-4-4.9-4.3-8 3.3 1.5 5.2 4.4 4.3 8M214.7 373.7c-3-.8-4.8-3.7-3.9-7.3 2.5 1.1 4.3 3.5 3.8 7.3M223.7 380.8c-3.2-1.3-3.3-4-3.7-6.8 1.5-.3 2.4 1.1 3.2 2 1.1 1.2 1.2 3.8.5 4.8M225 390c-2.1-2-3.8-3.8-3.6-6.8 2-.6 3 1 3.7 2 .9 1.4 1 3.8 0 4.7ZM227.8 384.3c-2.7-1.9-3.2-4.3-3-7 2.9 1.2 4.7 3.7 3 7M208 383.5c-2.4-.8-4.6-3.9-3.7-6.4 2.3-.1 4.7 3.7 3.7 6.4M112.6 441.1q-5.1.5-9-3.9c3.3.2 6.8 1 9 4M754.8 92.5c1 1 .7 2.4.1 2.9-.8.6-2 .4-2.6-.6l-2.5-3.5c1.7-.3 3.6-.2 5 1.2m-.8 2.6c.1-2-.9-2.4-2.1-2 .7.8 1.1 1.5 2 2M216.5 383c-3-1.3-3.6-4.3-3-6.8 3 1.3 4 4.2 3 6.8M220.9 382.8l.7 4c-3-1.2-4.2-3.9-4.4-7 1.9-.2 3.4 1.5 3.7 3M749 46.5c.5-.9 2-.7 2.8-.3s.3 1.8 0 2.6-1.6 1.2-2.2.9c-1-.4-1.2-2.1-.6-3.2ZM820.6 76.6c1.1-.5 1.9.2 2 .8q.9 1.9-.6 2.6c-1.5.7-2.2.1-2.6-1a2 2 0 0 1 1.2-2.4M221.7 394.7c-2.5-1.2-4.4-5-3-6.7 2.6 0 3.7 4.7 3 6.7M225.4 395.7c-2.5 1.3-3.9-4.3-2.3-4.7 2-.4 3.8 3.9 2.3 4.7M104.2 439.5c-3.1 1.4-5.8-.8-8.3-3 3.2.2 5.8.6 8.3 3M231.8 386.8c-1.8-1.6-1.8-3.7-2.9-5.8 1.7 0 2.6 1 3.3 1.8.7 1 1.5 2.3-.4 4M807.7 4c1 0 1.7 1 1.8 1.5q0 1.8-1 2c-1.1.4-2.2-.2-2.3-1-.3-1.2 0-2.4 1.5-2.4M97.6 439.5c-3.1.5-9.2-6-9-1-1.7-2-4.1-2.3-6.9-3.2 1.7-.9 3.7-.2 5.5.8.8.4 3.2-3 10.4 3.4M203.6 379.6c-1.1.7-2.1-.8-2.6-1.6-.7-1-.3-3.4 1.2-3.2 1.3.2 1 2.6 1.4 4.8M228.8 390.9c-1.3.8-3.1-3.3-2.2-4.2 1.1-1 4.3 2.8 2.2 4.2M212.7 364.8c-1.8-2-1.1-5.1 1.6-5.8-.4 1.8-.3 3.6-1.6 5.8M686.6 61c0 1.2-.8 1-1.4.5q-1.3-.5-1-1.9.2-1 1.6-.8 1 .2.8 2.3M193.8 411c-.2-3 1.9-4.4 3.2-6.4 0 2.6-.7 4.7-3.2 6.3M212.9 398.8l2.3-5.4c1 2 0 4.2-2.3 5.4M763.5 98.5c.7-1 1.7-.3 1.9.3 0 .5 0 1.4-.7 1.8q-.3.5-1.3-.3-.9-.5 0-1.8ZM777.6 66.6q.9-.1 1.3.4c.4.5-.2 1-.6 1.3q-.4.3-1-.4c-.2-.3-.4-1 .3-1.3M210 370.2c-1.4-.2-1.5-1.4-1.9-2q-1-2 1-3c0 1.8.3 2.7 1 5M131 429.7c-1.3 1.7-3.4 1.1-4.9.7 1.8-.8 3-1.7 5-.7M790.2 39c.4-.5 1 0 1.4.2s.2 1.2-.5 1.6q-.3.4-1-.3-.5-.5 0-1.4M199.4 404.6q.4-3 2.7-5c-.2 2.1-.8 3.6-2.7 5M125.4 430.5c-1.6.2-3.5 1-5.4-.5 1.8-1.3 2.9.2 5.4.4M209.2 392c1-.9.5-2.4 1.2-2.9 1.3 0 1 1.4.9 1.8-.2.4-.5 1.2-2.1 1M721 16.8c0-1.4 1.2-2.8 2.9-2.6-.8 1-1.3 1.9-2.9 2.6M811.3 114.1c-.1 1.9-1.8 1.9-1.7 0 0-1 1.5-1 1.7 0M172 447.9c-1 .6-2 1.6-3.7.9 1-.5 1.5-1.5 3.6-1M633.2 71.3c.2-.4 1-.1 1.5-.2q.6.2.4 1c-.3.7-.8.4-1 .4-.7.3-1.6-.4-1-1.2M778.1.8c.1 1.9-1.7 1.9-1.6 0 0-1 1.6-1 1.6 0M658.3 366.8l7.2-35.9 7-29.7-14.2 75.6c-1.6-3.2-.7-6.7 0-10M673.7 393.5c3.1-5.8 6.7-10.5 8.6-16.7l9.7-28.5c-.6 8.2-3.1 15.6-5.3 23.3-3 8.2-6.5 15.8-13 22M516.8 364.2c1 4.7 2.5 8.7 1 13.2a991 991 0 0 1-15-79l7.2 30.9zM504.3 395c-2 .5-2.5-2.2-3.8-3.4-8.7-8.3-15.1-28.4-16-40.6 3.9 10.5 6.5 21 11.2 31.1 2.1 4.7 4.6 8.5 8.6 13M585.2 229.3c-3-3-19.1-15.3-19-19.6q4.9 3.1 8.5 7.7c3.3 4 7.4 7 10.5 12ZM608.8 212.7c-4.9 4.7-9 9.4-15 13.1a88 88 0 0 1 15.6-16.3c.9 1.3-.2 2-.6 3.2M552.4 410.8a52 52 0 0 1-18.3-17c2.7-.8 17 15.5 18.3 17M623 411.2a223 223 0 0 1 19.9-20 46 46 0 0 1-19.8 20M411.2 145.2 381.7 179c1.5-4.1 4.8-6.6 7-10.1l27.6-32.2q24.6-28.3 56.3-48.6c19-11.7 39.5-19.7 62-21-10.9 2.3-21.6 3.7-32.3 7.9-34.5 13.3-66.7 42.2-91.1 70.3ZM606.4 152.7l-33 .2-.2-36 .6-9.3h32.6zm-7.1-5.4c2-2.8 1.2-6 1.2-9.3l.2-26.7c-.7-.2-1 .6-1.6.8.5 6-.4 12-.2 18.1zM612.5 151.8c0 1.7-4.1 1.4-4.1.3l-.3-43.8c1.4-1 2.8-.8 4.4-.3zM568.4 151.8c0 1.7-3.3 1.4-4.4.7v-44.1c0-1.2 4.3-1.3 4.3 0zM552 152.2v-41c0-2 2-3.7 3.6-2.8V152c0 1.2-2.7 1.2-3.6.2M623.5 151.3q-.1 1.6-1.4 1.6c-1.3 0-1.8-.2-1.8-1.7l.1-42.8c0-.6 1.5-.5 2-.2q.9.6 1 2.3zM632.2 228.8c10.6 8.3 21.3 16 31 25.4a339 339 0 0 1-40.7-31c3.7 1.2 6.3 3.7 9.7 5.6M515 252.9c-1.7 1-2.7 2.7-5.1 3q8.5-7.4 18-14.7c8-6.2 15.1-12.8 24.4-17.4a263 263 0 0 1-37.3 29M570.5 168.3c-2.8 8.7-5.5 17-9.3 25.4 2-10.6 5-20.3 9.3-30.5 1 1.4.5 3.4 0 5M614.3 194.2l-7-19.3c-1.2-3.6-2.6-7-2.2-11.1 4.3 8.2 6.4 16.8 8.6 25.8.3 1.3 1.6 2.4.6 4.6ZM367 235.5c-1.5-.4-14-9.6-14-11.2l11.2 7.7c1-3.4-1-6.5-.6-10.4q3 6.1 3.3 13.9M328.2 203c2 2.4 4.3 3.5 5.7 6.2-3.7-1.5-6.1-4.1-9.5-6.8-.4-1.7 17-2 15.1.4-4.1-.1-7.7-.5-11.3.2M283 333.6c-4.5 0-8 .3-11.9-.3l8.2-1.5c-3.2-3.2-7.4-5-10.3-8.9l13.7 9c.5.6 1.1 1.2.3 1.7M250.2 308.4c-.8 2.7.9 4.8.3 8.3-1.3-4.1-2.7-8-2.8-12.7 3.9 2.9 6.6 5.8 9.5 9.1-2.9-.8-4.4-2.9-7-4.7M617.7 335.6c-2.3 3.5-2.9 7.4-6 10L621 326c2-4.4 3.6-9 6.8-12.8 2.1 1.3-9.2 21.2-10 22.5ZM561 340.5c-4.2-7.5-8.6-15-12.2-23.3-.5-1-.9-2.2.1-3.2 3 4.3 5.1 9.2 7.2 14.3 1.7 4 4 7.4 5 12.2M635.4 433.8A25 25 0 0 0 625 421c6.9-.1 12 6 10.4 12.8M550.7 421a28 28 0 0 0-10.4 12.6c-1-6 3.4-12.8 10.4-12.5M662.6 178.8c-8.8-2.8-17-6-25.4-10.5a157 157 0 0 1 25.4 10.5M511.5 179.6c3-2.8 7.5-3 11.1-5.6 6.1-1.8 11.1-5.4 17.6-6.3-9.3 4.3-18.3 8.3-28.7 12M530 429.9q-6.1-5.7-13.3-11.2c6 1.2 11.4 4.8 13.4 11.2M660.4 418.1a88 88 0 0 0-16 14 21 21 0 0 1 16-14M593 92.4a38 38 0 0 1-10 .1c1.8-2.7 2.2-5 .2-7.6 3.2-.8 5.9-.6 9-.2.2 2.8-.4 5 .8 7.7"/><path d="m581.5 93 .4-8.4c2.8 2.2 2.1 6.1-.4 8.4M594.6 92.5c-2.2-2-2.6-6.1.3-8.2-.5 2.8-.1 4.5-.3 8.2M598.2 44.5l-4-7.7a7 7 0 0 1 4 7.7M579.3 39.6c-.8 2-.7 4-2.7 4.8.4-3.6 2.6-6.2 4.8-8.6.7 2-1.5 2.2-2.1 3.8M360.4 205.7c.8.6.5 1.3.4 1.7q-.7 1.5-2.3.1c-4.6-3.8-9.8-6.7-14-11.6 2.1-2.6 11 6.5 15.9 9.8M362 207.8c1.2-.5 1.7.9 1.6 1.6q-.4 1-1.3.6c-.8-.4-1.6-1.5-.2-2.2M368.2 214c-1-.4-1.4-1.2-2-2 1.1-.4 2.2 0 2 2"/></g></g></svg>