<svg xmlns="http://www.w3.org/2000/svg" id="Layer_2" viewBox="0 0 269.4 425.1"><g id="OpenNoTape"><g id="_5VVNoK.tif"><path d="M233.5 425h-3.3l-1.4-13.2-1.1-13.2-.6-8.6-.8-14.3-.3-5.8a287 287 0 0 1 .1-30.5c-.1-1.3 1.8-3 1.2-4.6-.5-1.3.2-2 .5-3.1 2-7.5 1.6-15-.3-22.5-2.2-8.2-5.3-13-6-21 0-1-.9-2.1 0-3 1.7 4.2.5 3.7 2.9 8.2 1 1.8.8 4 2.6 5.5 1.2-7.6 2-12.2 3.9-19.3.8-3.3.1-15.6-.8-19.3l-2-8.6a30 30 0 0 1 3.2 10.9l1.3 9.3c1.6-3.4.1-1.2 2-5.5l4-8.7 8-17a120 120 0 0 0 8.4-27.2l1-5.4q1.3-6.4 1.8-12.8l1.1-10.8a123 123 0 0 1 5.9-28.3c2.6-7.2-.6-12.3-.6-16.2l-.1-5.2c0-4.5-1.4-5.5-1.4-9.3l1.6 3.6a46 46 0 0 0-2.3-19.4l-4.7-15.2c-1.9-6.3-4.6-16.4-9.3-20.8-2.8-2.6-6.5-3.8-10-5.3-5.3-2.2-8.7-1.5-13.6.6q0 .9.5 1c2.4 0 .6-2 2.2-.8q.4.3 0 1c-1 1.4 2 1.4.8 5.5-1-.8-.3-1.8-.6-2.8-.3-.5-1.8 0-1.7.4.4 1.3 1.9 8 2.1 9.5.4 2 1.9 3.6 1.2 6-1.8-3.1-2.7-9.4-3.6-11.7-.2-.6-.8-.3-1 .1l1.6 6.3c.5 2.4 2.6 11.2 4.2 12.2l3.9 2.5c.7 1.8-2.3-1-2.6-.3.6.8 1.6 1.4 1.4 2.8a21 21 0 0 1-12.1-16.6l-.5-5.6-.5-9.4c-.5-8.5-3.6-20.3-10-26.4-4.6-4.4-8-4.6-14.3-6.1-4.2-1-10.6-1.6-14.2.8a26 26 0 0 0-7 6c-.8 1 .4 2.9.6 3.8.7-.5 4.4-2.8 3.2-3.5 0-.6.5-.6.6 0 .7 1.1-.5 4.4-.4 5.6v2.5c-.9 5.5.5 8.7.5 14.2q-.3.9-.9 0c.8-1.5-.4-2.7-.4-4q-.2-6.8.2-13.5c0-1 1-2.5-.2-2.7-1.1.5-1.7 1.8-1 2.8 0-.1-.4 9.5-.3 10.5l.5 7.5c.5.5-.7.7-.4 0a45 45 0 0 1-1-12.5q.7-1.8.2-3.6c-.2-.8.8-1.8.1-2.8-1.1.6-1 1.6-1 2.8v10.3q-.1 4.4 2 8.5c.5-.2.2-.9.8-1.1-.8 3.3 3 6.1 5.2 7.8-2.4 1.3-6.3-3.2-7.9-4.4-1.4-1-2.2-2-2.6-3.9q-.7-3-.9-6.4L171 53q-.2-8.3-1.2-16.6c-.2-1.8-.8-3-1.6-4.6.6 1 1.2-4.6-8.1-14.3a15 15 0 0 0-9.6-4.7l-10-1.2c-4.2-.5-8.3 0-11.9 2.3-4.5 2.9-12.5 10.3-12.1 16.5.6.7.8.1.8-.7l2-4.5c0 2-2 3-1.4 5-.2.7 0 1.5.4.8q.4-1.3.8-.2a32 32 0 0 0-2.6 17.7c-.2-6 1.8-10 2.2-12.6l.5-2.5c.3-1 1-1.1 1 .1-2.3 2.2-3 13.1-3 16v10.3c2.1.6.4-9.3.8-12.7l.5-4.3c.2-1.4 1.1-2.5 1-4.1 0-.6.6-.6.6 0-.2 1.7-1 3-1.1 4.6v13.6c2.9 2.8 1-14.7 2-15.3.5 4.4.1 8.5.1 13 .3.3 1.1-.2 1.1-1 .5-.9.9-.5.3.4q-1 4-3.3 7.3c-1.8 2.5-7.7 4.7-10.6 3.4 1.1-1.1 2.5.1 4.1-.7-1.8-.8-3.7-.4-5.2-1.7 1.2-1.1 4.5.5 5-.7a8 8 0 0 0-2.7-1.8c-.7 0-.6-.7-.1-.4q2 .4 3.4 1.8c.9-1.7 0-2.7 0-4l-.4-6.5-.2-11.4q0-4.3-1.4-8.1c-1.1-3-1.8-6.1-3.7-9 1.2-2.9 3.8 9 4.6 9.3.2 1.2.7 1 .4 0-.5-5.9.7-7.9-1.7-12.4q-2.9-5.1-6.8-9.5A14 14 0 0 0 92.6 4l-12.4-.1c-7.3 0-9.5 3-14.3 7.4-11.6 10.5-12.4 16-13 31.9l-.3 5.1c-.3 7.1.2 9.7.8 16.7q.5 1.7.7 0l4.3-8.5c.7-.5.9.3.8 1-4.5 8-6.6 16.4-7.2 25.5-.2 3-1.5 5.8-.7 9.2.7-1.2 1-2.6 2-3.5 1.3-1 .7-2.2.9-3.5.4-3.2 1.7-6 2.3-9.1 1.4 2.2-2 6.3-1.8 10.3 1-1.7 2.6-4 3.9-5.7-.7 3-2 5.4-3.4 8-1.8 3.2-2.7 6.7-4 10.2q-3.2 8.3-1.1 17 0 .6.3 1 0-.1.4-.5c.8-4.3 1.5-9.5 1.5-14.2 0-.6.6-.5.9 0 0-1-.6 14.1-.9 10.9.4 4.5-2.5 4.4-1 10.3 1.6-.6 3-14.4 2.8-13.6q.8-2 .4-4.2.4-.8.7 0c-.3 1.7.3 3.1-.2 4.5-.7 2.5-.3 6-1.2 8.6-.5 1.3-.4 2.6-.7 3.9-.6 2.7-2.3 5-3 7.7l-.6 3.4c-.3 1.4-1.3 2.7-1.8 4.4-3.6 12.4-2.7 12.7-2 25.7-.2.5-.8.6-.8 0-.4-2.3 0-4.3-1-6.4a70 70 0 0 0 1.5 18.9q0 .8-.6 0c-.4-.3-1-.7-1-1.3.3-2.6-3.1-8.3-2-23 .1-1.4 1-2.7.7-4.3q-.3-.7-.6-.4-.5.4-.3 1.2-.6.8-.7-.2c0-1 4-7.2 1.7-6.3-1.4 2.3-3 4.4-4 7l-3.2 7.4c-.6-7 8.3-17.9 8.2-17.5l1-2.7c.7-2.2-2.8.6-3.8 1.3l-4.6 3.1q-1 .5-.7-.4 3.1-3.1 7-5.3c1-.5 2.3-.8 3-1.9.2-.7-.4-1.3-1-1l-3.2 2-1.2.6q-.9.3-.6-.6c2-1.8 6.3-2.6 6.8-4q0-.7-.9-.5-.4.2-1-.1c0-.7.8-.5 1.4-.5.8 0 1.2-.8 1-1.6-.4-2.4-3.7-1.3-5.5-.9-4.6.9-10 3.3-13.4 6.9-.5.5-.9-.2-.5-.7 4.4-4.4 10.5-8.7 17-8.3 2.4-1.5-5.8-.6-6.4-1 .2-1.8 8.7 0 6.7-2.1-2.9-.5-3-.2-5.5-.5-1.1-.1-2.2.9-3.4 0q2.3-.7 5-1c0-1.4-.2-2.7.5-3.8.6 1.4 0 2.5.2 4H45l-.1-4c0-.6.9-.7 1-.1 0 2-.5 4.7.8 4.2 1-.3-.3-3.7-.5-4.7-.2-.8-7.2-2-5.4-1.3q-.3 0-.5-.8c-1.1-.1-1.1-.8 0-.6 1.4 0 1.4.7 2 .5.5-.2 1-2-.1-2.3q-3-.9-5.7-2.3c-.7.2-1.4-.1-.8-.5 1.4-.3 2 .5 3 .7l6.6 1.9c.5.1.7-1.4.2-1.9-1.4-1-5.7-2.2-7.4-3.5 2.3-.5 7.5 3.6 7.7 1.3q0-.5-.9-.8a25 25 0 0 1-9-5c2.2 0 3.6 1.5 5.5 2.2l4.1 1.7c.3.1.6-.7.6-.9-.3-1.6-3.5-1.5-5.6-3.2-.7.1-.7-.4 0-.6 3.1 1.5 3.1 1 5.6 2.3q.8-.4.6-1.1c-.8-.9-2.1-1-2.6-2.2 1 0 1.6.8 2.7.5q-.2-1.9-2.3-2.3c.2-1.5 2.4.9 2.5-.4.2-1.5-2.2-1.7-3-3.3 6 3 1.5-1.2-.5-2.6-1.5-1-10.3-7.7-9.6-9.3 1.6.5 10.7 8.9 7.2 2.4 1.1-.5 6 4.4 6.3 4.1q.5-.3.3-1c0-1-1-.8-1.4-1.3q-1.8-2-3.7-3.6-.7-.8 0-.8c1.6.7 2.5 2.3 3.2 2 2-1.1-3.7-4.3-1.6-5l2 2q1-2-1-3.4-.4-1 .7-.5h.7c1.5-4.4 1.3-4.8 1.8-10 .5-.8.8-.2.6.6-.4.3-.7 8.3-.8 7.5q.1.4.4.6c1 .8 1.1-3.9 1.1-4.6l-.3-11.8c0-1.4-1.1-2.6-.9-4.2q.7-4.3.2-8.2c-1.9 2.2-3.2 4.4-5.1 6.2-5.2 5-10 3.3-12 5.2l-8 7.2c-4.4 3.8-12 5.3-17.4 15q-1.4 2.3-2 4.9C2.9 91 5 98.6 5.8 105.2l.6 6.8.4 5.6 1 9.5.5 7.6q.2 5.9-.1 11.6l-.3 10c0 5-.4 10 .9 15 3.1 12.5 12.3 20 19.5 31.2q6.5 10.1 12 20.8l7.1 13.5A70 70 0 0 0 59 254l5.2 5.2 5.2 5.6c2.8 3 4.8 6.5 7.3 9.7.9 1.1 2.3 1.5 2.4 3.3 0 .2 3.3 14.1 3.7 18.8l1.3 14.8c.6 5.7 2.1 5.9 0 8q.8 7 1.2 14.2l.2 5q.6 18.2-1 36.5L83 390.5l-2.3 18.7-2 15.9H75l2.4-18.8q2.2-17.6 3.5-35l.5-7c.7-11.4.6-21.1 0-32.4l-.7-12-.3-7.4c-.6-15-1.7-28.3-10.6-40.9-2.7-3.7-5.9-6.8-9-10.2l-7.2-7.6a105 105 0 0 1-9.7-15.3l-6-11.6-9.4-16.8-2.9-4.6q-2.7-4.5-6-8.6l-3.5-4.5c-10-13-12.9-19.9-12-36.7l.5-10.2q.4-9.1-.6-18.2l-.5-4.5-.7-8-1.4-14.5C.7 93-2 87.5 2.4 79.2q3.6-6.3 9-10.8c5.9-4.8 6.2-2.2 16.3-12.3.9-.8 2.2-1.2 2.9-2.2q2-3.4 3.8-6.9l5-8.7c1.7-3 3.3-6 5.7-8.4 1.9-2 5 0 5.7-1.9 1-2.9 1.5-6 3.3-8.7A76 76 0 0 1 65.7 6.6C69 3.5 72.8.3 77.9 0a157 157 0 0 1 15.8.2c7 .5 10 3.8 14.3 8.8a36 36 0 0 1 7.2 11.8q.3.8 1-.1c.8-1.7 2.3-2.7 3.4-4q2.4-2.9 5.4-5c8.7-6.1 15-3.6 23.4-3 6.8.6 12.7 3.6 16.7 9.2l2.1 3c4.7 6.5 5.3 9.3 6.3 17.6q.2.5.5 0l3.4-2.8c4-3.2 9-4.5 14-3.7q7.4 1 14.3 3.7c6.9 2.7 7.7 5.6 10.4 9.5a47 47 0 0 1 6.4 19.4c.2 2 6-2.5 12.1-1q7.3 1.9 13.6 5.7 3.8 2.4 5.8 6.4c3.4 6 2.2 6 4.8 12.1 1.7 4 2.4 8.2 3.8 12.3l3.7 12c2 6.3 1.4 16.1 1.2 23-.2 5.8 2 10.2 1.9 16.5 0 3.3-3.5 12.2-4.5 18.2s-2 11.5-2.5 17.5a176 176 0 0 1-12.7 55.9l-5 11-3.9 8a90 90 0 0 0-6 16.7l-2.1 8.8a55 55 0 0 0-2.2 17.8c.4 4.9 3.6 13 2.3 19.8l-1.9 10.5a151 151 0 0 0-1.5 18.1l.4 21 .8 15 1.1 15.7zM35 54.5c2.3.4 6.8-2.9 6.6-2.6 3-3.6 5.9-7.3 7.6-11.8 1-2.5-.2-5.6-2-7.4-3 3-7.6 11.9-9.6 15.9-.6 1.2-1.5 2.3-1.7 3.6l3.3-.1c-1 .7-2.5.3-3.8 1-.5.2-1 1.3-.4 1.4m13.2 28c.4-1.4 0-3.5-.8-3.4-.4.1-.7 3.5.8 3.3m177 4.5c-.3 2.3.6 4.3 1.8 5.8 1.5 1-2-6.7-1.9-5.8M45.6 112.2l-1.8-1c-.7.2-.3.7-.9 1.5q.6 1 2.1 1c.6.4.9 0 .9-.3s.2-.9-.3-1.2Z"/><path d="M228 425h-.6c.4.9-1.2-9-.6-7.3-.7-2-.3-3.7-.6-5.7s-1.2-11.3-1-10.3l-.7-3.3c.4 2-1-16.1-1-13.7v-15.9c0 4.5.8-9.8 1-6.8l.2 25.6c0 1.7.8 3.3.5 5.1s0 3.4.5 5.1c.3 1.3-.3 2.7 0 4 .6 1.8 2.6 20.6 2.3 23.3M82.5 425h-.6c-.5-2.7.8-6.5.6-7.9-.3-1.6.5-3 .5-4.5l.2-6.7c0-1.2.7-2.3.4-3.5-.2-1 1-9.4 1-10.3l.3-5.6c0 1.2.9-7 .9-7 .5-3.8-.5-7.4.5-11.3q.4 7.4 0 15.3c.1-2.4-1 10.2-.9 7.6l-.2 5.5c.1-2.3-1 10.7-1 8v5.1c0-2.3-1.1 10.5-1 8.7l-.2 3.8c0 1-.7 2-.5 2.9ZM224.6 425h-.6q.2-2.1-.6-4.5c-.1-1.5.2-3 0-4.5-1.2-6.5.2-4.5-1.2-9v-9.2l-.5-2.3v-11.3c-.7-1.3-.6-2.5-.6-4q.3-.9 1.2-1.2v9.7l.6 2.3v10.2l.5 2.3v7.4c1.5 4.6-.2 4.2 1.1 10.2.3 1.4 0 2.8 0 4M217.8 425h-.6q-.6-.7-.6-2.2v-17l-.6-2.3c-1.1-4.2-.3-8.8.3-13.1.8 2.9 0 5.6.3 8.5 0 .8.6 1.5.6 2.3v12.5l.6 2.3zM213.8 425h-.6v-16.4c0 1.4-1.3-6.9-.2-6.9l.6 4.2zM210.4 425h-.6c.2-2.6-.4-5.3.3-8 .6 3 0 5.5.3 8M97.4 312l-.2-13-1-7.5c-1.1-8.5-3.6-12.5-7.7-20.4-.4.2-.3.8-.8 1.2.4-1.4-4.9-9.5-5.2-9.8l-3-2.2c.7.6-11.3-12.9-10.1-14.2 1 .1 1 1.1 1.5 1.9 1.6 2.6 3.7 6.1 6.6 7.5-2.5-5.3-5.3-8.4-7.7-14.4-.8-2-2.3-3.5-2-6 .8 1.2 3.3 7.6 4 8.7l2.2 4c3 5 2.9 4.5 6 9.1.3-1.5-3.2-6.7-1.7-6.8l3.4 7c1.3 2.6 2.4 5 4.4 6.8.2-2.1-4.2-7.9-2.9-9q2 4.3 4 8.7l4.8 9.2a62 62 0 0 1 5.4 39.1M167.5 116.6c-1.4-2.6 1.3-6.3.8-9.2-.2-1 1.3-5 .2-7.4-.1 1.7-.8 3.3-1.2 5.2-.3 1.6-.1 3-.7 4.4-1 2.7-1.4 5.6-2.8 8.3 0 1.2-.7 1-.7-.2.6-2.6 1.7-5 2.3-7.5l1.5-6.4L168 96c.9-5.7-.5-11-2.5-16-.8-2.1-2.3-2.5-3.5-4l-3.8-4.8c-.5-.7-1-1.6-.7-2.3 1.6.8 2.2 2.4 3.5 3.6q3.4 3.4 6.4 7.2a45 45 0 0 1 4.3 24.3c-.5 1.6.5 3.3-.4 5-.7-5 .3-7.2-.6-13-.2-1.5.6-3-.6-4.1.3 3.5.3 9.3-.3 12.4l-1 5.3zM218.8 116.7c.2-.8 1.8-13 0-12.8.2 4.2-1.9 13.2-3.5 16.4q-.9 2-1.8 4l-4.5 9.3c-1.2-.7 1.4-4.2 2-6.1 1-2.8 2.3-4.9 3.8-8.8l1.4-3.7q.6-1.8.8-3.7c1-8-.2-14-4.8-20.5-1.6-2.2-4-3.3-5.8-5.5 3.4.5 6.8 4.6 8 5.3q.3.2.9-.6 1.8 1.6 2.7 4.2l3.9 10.3c.4 1.2 1.7 7.3.7 8l-.7-4.7q-.3-2.7-1.6-5c.2 7 .7 14.1 0 21.1-.7-2.6 0-5-.3-8zM250.5 155.7l-4 6.1q-.5 1-1.5 2c0-2.3 1.4-3.9 2.5-5.6l4.8-7.2q3.8-5.8 5.8-12.4c1-3.2 1.8-13.5.8-17.1a28 28 0 0 0-7.3-13.2q-2.2-2.4-5.2-4L241 102c1.3-1 7.6 2.2 8.5 3.5q1.1-.5 0-1.1c-.8-.7 0-1.1.7-.6l6 6.8q2.6 3 3.2 7 .5 3.2.9 6.4c.4 7-.5 15.4-3.3 21.6q-1.9 4-4.5 7.4zM72.5 265.5c-2.3-3.6-3.7-4.8-6.2-7.3l-2.2-2.2A75 75 0 0 1 52.2 241l-2-3.6-2.3-4-3-5.4-8.1-14.8c-1.1-2.1-6.4-10.7-7-11.9-.4-1.3-2-2-1.9-3.7 1 .2 3 4.2 3.1 4.4l3 4.9 3.3 5.2q1 1.9 2 3.8l3 5.5q1.5 3.1 3.4 6.2 1 1.5 1.9 3.3l2.5 4.8a72 72 0 0 0 8 12l2.2 2.9 9.2 9.5c.3.3 3.4 4.5 4.1 5.1q-.5 1-1.1.2M97.9 384.4c0 1.6.9 2.8.3 4.4a5 5 0 0 1-1-4c.3-1.5-.4-2.7-.4-4a268 268 0 0 0-6.6-30l-2.7-10.3c-.4-1.4-1-2.9-.2-4.1.5 1.2.3 2.3 1 3.4l3 11.8c2 7.8 4.6 16.2 5.7 24.3.2 1.4.8 2.8.8 4.3zM85.6 424.5c-1-2.3.6-8 .3-9.6-.3-1.9.4-3.4.5-5.2l.1-7.4c0-1.5.8-2.9.5-4.5s.3-3 .5-4.5c.3-2.2 0-4.2 0-6.3.1-.8.7-1.5.7-2.3l-.2-19.2c0-1.6-1.1-3.2 0-4.7l.6 3 .1 25.5c0 .8-.5 1.5-.6 2.3-.1 2.6.3 5.2 0 7.8q-.6 1.7-.6 3.5c.5 4.5-.9 4.3-.5 6.8.3 1.7-.5 3-.5 4.6l-.1 5zM220.2 417.7c-.5-2.9 0-5.7-.2-8.5 0-.8-.5-1.5-.5-2.3v-9.1l-.6-1.8c.3 1-.8-15.1 1-14.7l.1 17 .6 2.4.1 14c0-1.7 1.2 9.3 0 8.7q-.1-3-.5-5.7Z"/><path d="M53.2 236.2c-.7-1.2 6.1 9 5 7 1.6 3 4.2 4.9 5.6 8.1-3.5-2.7-5.7-6.1-8-9.7l-3.5-5.2-8.7-16.9c1.4-.2 1.2 1 1.8 1.7.5 1.9 1.8 3.1 2.5 4.8l2.5 5zM216.6 366.9q-1 4.5-1.8 8.6l-.7 3.6c-.8-1.6-.2-3.4.2-5.2 2.6-12.4 2.6-13.6 7.6-25.3.7-1.5 1.6-2.8 1.8-4.4.7-.8.7-1.6 1-2.7 1 .9.3 1.9-.1 2.9-2.6 6.4-5 11.7-6.8 18.2zM93.2 144.5l.4-1.3a134 134 0 0 0-10.7-30c-.3-.3-.7.6-.4 1 1.8 3.1 5.8 14 7.1 18l1 3q1.4 4.6 2.6 9.3ZM90 416c-.3-2.4 0-4.7-.1-7.4 0-.8.5-1.5.5-2.3l.1-14c0-1.2.8-2.3.5-3.6-.3-1.5.2-2.7.4-4 .6-4.2-.4-8.3.5-12.5q.5 6 .1 12.5c0 1.7-.8 3.3-.4 5.1.4 2-.5 3.9-.5 5.7l-.1 13c0-3.2-.8 8-1 7.5M92.9 347.5l-.2-.8-5.4-21.1c-1.1 2.1 1.5 8.5 1.8 10.5.4 2.9 2 8.2 3.4 13.2q0-.9.4-1.8ZM173.7 386.7c1-1.3 1.1-2.4 1.7-3.5l3.5-7.2 2.1-5.3q1.6-3.8 3-7.7c.4-.9 2.5-7.7 3.1-7.3-1.6 6.5-5 15.3-7.9 21.2l-2.7 5.8q-.8 2.1-2 4.3-.2 1.1-.8-.3ZM216.9 378a62 62 0 0 1 2.6-16c1.4-4.5 2.2-7.4 4.3-11.4.7 1.3-.1 2.2-.5 3.3q-1.4 3.2-2.3 6.8l-2.7 11c-.7 2.7-.3 4-1.4 6.3M78.7 265.8c.4 1 5.6 13.3 4.1 14.5-1.3-3.9-2.1-7.7-3.8-11.5l-1.4-3.2q-1.2-2.4-3-4.2c-1.9-1.8-1.5-3-2.7-4.3l-2.3-2.3c-1.2-1.2-3-2.3-2.7-4.5 1.6 1.8 2.4 3.6 4.7 4 .9 5.5 4.1 2.2 3.2 5.6 0 .5 1.1.4 1.4 1zM126.5 84.6c-.7-1 .1-1.7.4-2.7 1.5-5.3 4.3-10.5 9.6-12.6 1.6-.7 2.6-2.2 4.6-2.2-1 1.3-2.4 1.8-3.7 2.6q-6 3.9-9 10.2c-.8 1.6-.8 3.1-2 4.7M159.3 155c-.2-8.2-.4-16 1.3-25 1 2 0 4.2-.1 6.4-.3 4.4 0 8.6-.1 13-.9 1.7-.2 3.4-1 5.7M240.9 176.9q-1.4.7-.8-.5c2.7-5.9 3.8-7.7 7.3-12.8l4.6-7 3.6-5.6c1-1.7 2.6-5.5 3.3-7.8 1.8 0-3.1 9.5-3.6 10.2l-4.6 6.8c-2.2 3.2-7.2 10.5-8.5 13.7-.4.9-1.3 1.5-1.4 3ZM78.3 115.5l-3-3.8C74.1 110 66.8 99 68.6 97c1.4 4 5.5 11.3 8.1 15 .7 1 2 1.7 1.6 3.4ZM94.4 343.6q-.2-1-.6-2l-1.8-6.8q-1.4-4.9-2.5-10l-1-4.6c-1.2-5.2-1.3-5.6-2.1-11l-.7-4.7c-1.1 2.7.2 5.3.6 8.2l.6 4.5c.5 3 1.7 7.9 2.6 11l2 7.3 2.4 9.1zM261.3 145.4c-1 1.8-1.4 3.6-2.3 5.5l-4.1 8.5c-.7.5-1.1-.2-.6-.7q.6-2.1 1.9-3.8 3.9-7 5.6-14.6c.8 1.3 0 2.4-.2 3.6 0-.3 1 5.2.2 6.7-.8-1.6.2-3.2-.5-5.2M155.9 209c-.4 7 .4 13.7-.4 20.6-.5-8.4-1.6-17-.2-25.5l.8-4.1c1 .9-.2 9-.2 9M111.5 55c-1-.1-.5-1-1.1-1.2V40.9c0-2.3-1-7.5-2-9.9-.7-1.5-1.7-3-1.3-5q2 4.2 3 8.8c1.1 4.1.5 5.5 1.2 10.1.5 3.5 0 6.8.2 10M156.5 151.7q-.3-3.5-.1-7.4c0-.8.5-1.4.5-2.2.2-3.1-.3-6 .2-9.1.2-2 .5-3.6.6-5.8 1.1 2 0 4.2-.1 6.4l-.1 15.9c0 .7-.2 1-1 2.2M55.6 74.5c-.8 1.3-.8 2.5-1.2 4-1.4-.5 2.4-12.8 3-13.9l3-6.5q.8-.8 1.5-1.3c.6 1-.3 1-.6 1.6l-3.6 7.2c.3-.8-2.5 8.3-2.1 8.9ZM157 22c-1.4.2-2.2-.7-3.2-1.2a28 28 0 0 0-8.8-3.2c-2.4-.4-4.7.8-7.3-.6 3.5-2.2 16.7 1.7 19.2 5M10.1 132.9l-1-3.4c-.2-2 .3-4 0-6-.3-1.4-1.8-12.8-.7-13.3L9 116l.6 5.6.6 5.1q.1 3.1 0 6.2ZM85.6 125.6c.5 1.2 1.4 2.1.6 3.5l-2.4-6.4-1-2.5-2.2-5.2c-.2-.5-3-6.1-2.5-6.5 1 .6 1 1.8 1.6 2.8l2.5 5.4 1.6 3.6zM93 298.8c-.7-2.2-.1-4.3-.3-6.7-1.1-3.3-.1-4.1-1.4-8.3q-.7-2.3-1.1-4.6c-.3-1.2-1.6-2.1-.7-3.6 2.3 4.7 2.7 9.5 3.8 14.8-.3 3 .3 5.6-.3 8.4M83.7 236.4c.1-1.6-.3-2.5-.8-3.8-1.8-5.1-1.3-5.6-1.9-10.4.4 2.8.2-10.5.7-9.1.6 3.9-.4 7.8.3 12l.6 3.8c.4 2.5 2.6 5.7 1.1 7.4ZM229.5 246.6a47 47 0 0 1 4 19.4c-1.3-1.9-.8-4-1-6.3-.3-2.5-2.3-9.8-3.5-12.4-1-.7-.3-1.6.5-.7ZM169.5 78.4c.5 2 5.6 12.1 4.2 14.9-1.4-7.1-4.7-13.8-7.3-21 .7-2.1 3.3 6.7 3.1 6M221.5 345.3c-2.3 2.6-4 10.6-6 12.8 1.5-8.4 6-13.7 9.5-21.4.7-.5 1 .1.6.7l-2.4 4.4c-.7 1.1-.8 2.5-1.7 3.5M24 192c-2-.7-2.5-2.7-4-4-.7-1.3-7.9-9.4-6.7-10.2L19 185c.6.9 1 1.8 2 2.5zM5.9 90.4c-3.2-.9 2.9-2.6 3-2.7l4.6-1.6c2.1-.7 3.6-2.3 6-2.5.7.5-7.8 4.2-7.8 4.2-2 .7-4 .8-5.9 2.6M232.6 246.4c1.7 4 3.4 11.5 2.6 15.6-2.3-5.3.4-3-1.8-10.5-.5-1.6-.5-3.4-1.5-5 0-1 .6-1.2.7-.1ZM90.1 12.1c-2.7-1.2-5.1-.3-7.6-.2l-2.8.1c-1 .3-1.8 1-3 .2 5.5-2 12.1-1.9 18.3-.1-.5 1.4-3-.8-4.9 0M10 146.6c-1-1.6.2-3 .2-4.5 0-1.9 1.3-10.2 1.6-13.1q1 3.3.2 6.8l-.6 2.3c1-3.6-1.4 9.8-1.3 8.5Z"/><path d="M133.5 76c-2.7 3.5-3.3 6.4-4.9 10.7-1.3-.9-.4-1.8 0-2.6l2-4.8q1.4-4 5.2-6.2c-.2 1.5-1.6 1.8-2.3 2.9M60.5 226.7c-1.4-.1-1.3-1.4-2-2.2q-.8-2-1.9-3.7l-1.4-3.2-4-10.2c-.5-1.2-1-2.4-.2-3.4.4 1 .4 1.8 1 2.7 1 4.2 1 2 2.3 6.8.5 1.6 1.7 3 2 4.8 0 0 4 7.3 4.2 8.4M239.2 248.1q.5 2.2 0 4.3c-1.9-4.6-.1-3.3-2-11-.5-1.7-1.3-3-1.2-5 1 .5 2.5 7.1 2.7 8.6zM90.5 6c-6.8 1.5-8.9-3-17.2 2.2-.8-.5-.3-1 .2-1.3a22 22 0 0 1 12.8-1.6zM241.4 248.3c-.7-1.2-.2-2.3-.9-3.5.3-4.2-1.5-7.5-1.7-11.9.5-1.6 2.3 8.2 2.2 7 0 1.4-.2 2.7.6 4-.1 1.5.3 2.8-.3 4.4ZM19.9 183c.5 1 4.2 4.8 4.7 6.1-1.8-.5-2.4-2.4-3.7-3.7-4.5-4.7-4.8-6.4-8.5-11.4.1-.9.3-1.6.7-.9 1.7 2.9 3 5.2 4.8 7.4q1 1.2 2 2.6M36 174.4a10 10 0 0 1-.1-5l.4-1.8c.8-3 1.8-7.6 3.4-9.7.4 2-.9 3.2-1.3 4.8-1.5 5.9-1.7 4-2.3 11.8ZM243.1 242.3c-.9-2 0-3.8-.4-5.8-.3-1.1-2.1-8-1.3-8.7 1 4 2 6.3 2 10.8.2 1.2 1.4 2.5-.3 3.7M229.4 280.6l-.4-12.8q-1-3-.2-5.9c.7 1.5 0 2.9 1 4.2zM237.4 258.6c-.5 1-1.6-10.6-1.6-10.2 0-1.8-1.5-3.3-.8-5.3 1 2.3 1.2 4.7 1.9 7.2.4 1.6 0 3.1.2 4.9 0 1.1 1 2.1.3 3.4M95 245.4c.2.7-.2 1.6-.5 1-1.4-2.6-3.4-8.2-3.8-10.2l-.8-3.8q-.5-3.2.2-6.3c.9 1.8.1 3.5.4 5.2l.7 3.9 2 6.5c.3 1.2 1.2 2.2 1.7 3.6ZM202.8 164.4l-.7 4.4c-.7-2-.2-4 .4-6.2.3-1.4 1-7.6 1.2-9.8 1.3.1-.6 9.6-1 11.6M107.5 326.7q-1-.1-1-1c-.6-4-1.4-7.7-3.4-11-.4-.6 0-1.2.6-.7 2.1 4 3 7.4 3.8 12.7M248 230.7l-.6-4c-.2-.8-.2-5.8-1.4-8.3-.4-.7-.7-1.6 0-2.5.5 2.4 1.7 4.7 1.9 7.4.2 4.4 1 5.4.2 7.4M100.7 10.1c.5-1 9.5 9 7.8 9.3q-1.6-2-3.2-4.2c-1.4-1.8-3.4-3-4.6-5M88.6 280.5c.5 2 1.2 3.6.4 5.4.2-1.8-3.5-12.6-2.1-12.5.2 2.6 2.1 5.4 1.7 7M249.8 223.3q-.4-1-.7-2.3l-.2-5.5c0-2-1.2-3.7-.8-5.9 1.5 2 1.6 10.4 1.6 10.3.2 1 .9 1.7.1 3.4ZM28.5 183.1c.1 1-.6 1.3-.6.2-1-.7-1-1.6-1.4-2.3-1-1.9-2.4-3.4-3.2-5.5 0-1.1.7-1.3.7 0q2.6 3.5 4.5 7.6M53.8 62q.3-2.6 1.3-5.3l2-5.6c1.3 1.4-1 3.1-1 6zM91.8 92.5c-3 1.8-8.5 4.2-11.6 3.2 5.2-1.2 5.4-.6 10.8-3.7.7 0 1.5.3.8.6ZM211.4 83.6c.5.7 1 1.2.5 2.3-1-.6-5.2-9.6-4.2-11 1.3 3 1.7 6 3.7 8.7ZM160 409.8q-.5.8-1 0l3.6-6.9c.7-1.2.7-2.5 1.6-3.5.2 2.4-1 4-2 6zM39.4 199.9c1.4 2.2 4.1 4.8 5.1 7.5-1.7-.6-2-2.2-3-3.4a52 52 0 0 1-7.4-12.5c1.4.4 1.3 1.7 2 2.7zM245.5 228c-.9-4 2 12.5-.1 8.2-.9-2.7 0-5-.5-7.7-.2-1.2-1-2.5 0-3.5zM163 112.6c-.9.9-1.4 0-.6-.8q1.2-5.4 2.8-10.1c.8 2.1-2 7.5-2.2 10.9M105.8 107c.2-3.3 1.7-5.8 2.1-8.8.5-1-.2-2.2.5-3.3 1.2.8-1.3 11.1-2.6 12ZM106.2 93.7c.8.8-1.8 10.9-2.7 11 .1-2.7 1.2-4.6 1.6-7 .2-1.5 0-2.9 1-4M242 179.7l-3.3 7c-.3.6-.6-.1-.5-.8l7.6-15.2q.7-1 1.3-2c.7 1.5-.5 2.3-1 3.4l-3 5.5zM171.4 123.9c-1 0 .8-7.8.9-8 .3-1.1-.5-2.3.3-3.4.8 1.2-.2 9.4-1.2 11.4M223.8 333.3c1.2.1-4.7 7.6-5.4 7.8q-.4.8-.9-.3c1.4-.7 1.9-2 2.7-3zM42.5 199.4c1.3 3.2 3.9 5.3 4.6 8.8-2-1.1-1.7-3.2-3-4.5q-1.3-1.4-2.2-3.6c-.8-.7-.2-1.6.6-.7ZM158.4 230.8a67 67 0 0 1 0-13.8q.6 6.7 0 13.8M155.6 51c.1 5.2 1.3 7.6 1.8 12.2-1.1-.4-3-12-1.8-12.1M261 156.2c.4 1.3 1.1 6.1 0 6.4.1-5.3-1.3-6.2-.4-12 .9 1.7 0 3.6.4 5.6M147.2 14.3c-2.3-.5-4.4.4-6.8-.4 6.1-.7 3.7-1.2 10.3.5-1 1-2.2.2-3.5 0M20.4 180.6c-2.3-1.7-3.5-4.6-5.1-7.4 0-1.1.6-1.2.8-.2zM168.5 64.2c-.3-1.9-2.8-8.3-1.6-10.3l1.2 6c.2 1.3 1.4 2.3.4 4.3M172.3 403.2c-.5.6-.6-.1-.8-.9 1.4-3 1.7-6.1 3.5-9 0 3.3-2.2 6-2.7 9.9ZM140.7 128.4l-.6-4q-.4-2-.9-4c0-1.1.6-1.4.8-.2.7 2.3 1.5 6.2.7 8.2M224.2 106c-.1 1-.7 1-.7.3-.7-3-2.3-5.5-2.2-8.7 1.5 2.5 1.8 5.2 2.9 8.4M56.7 211.6c.9 2.3 2.1 6 3.3 8.7.6 1.4 2.3 2.5 1.7 4.4a60 60 0 0 1-7.7-20.8c1.5 2.4 1.6 5 2.6 7.7M87.3 235.8c-1.9-4.4-1-8-1.9-12q-.3-2.4.1-5c1 1.5 0 3.3.4 5s.7 3.4.6 5.2c-.2 2.3 1.4 4 .8 6.8M69.6 78c-2.6 5-1.5 5.6-2.1 10.7-1.9-5.3-.2-4.5 0-6.5q.3-4.1 2.9-7.4.4-.7 1 .3c-1.3.7-1.3 1.9-1.8 3M12.4 97c2-.7-6.7 7-6.2 5.1q2.3-2.4 6.2-5M204 340.9l-.7 3.6c-.7-1-.3-2.1-.2-3.3.9-2.3 1-4.5 2-6.6.4 2.4-.8 4.1-1.2 6.3ZM256.3 138.6c.8 0-2.5 8.8-3.5 7.4 1.6-3 2-5.3 3.5-7.4M74.7 202.8c1 5 1 4.4 0 9.8q-.5-4.7 0-9.8M161.3 70.5c-2.1-1.7-3.8-3.8-3.7-7 1 1.5 1.5 3 2.4 4.5.3.8 1.7.9 1.3 2.5M216.8 66.2c-.1 1.4-.7 1.8-.8.5-.2-3-1.9-5.3-1.5-8.3 1.1 2.4 1.3 5 2.3 7.8M225.7 289.8c-1.4-.6-1.6-2-1.7-3.4-.3-1.5-1-2.9-.3-4.6l1 3.5c-.3 1.6.7 2.4 1 4.5M205.3 112.8c-3.5 1.4-4.6 1.1-8.6 0 1.4-1 3 .1 4.6.2 1.3.1 2.5-1.2 4-.2ZM209 141.5c-1.6.7 2.2-9.2 2.4-8.6 0 3.3-2 5.7-2.3 8.6M104 94.6l-.7 3.2c-1-1 0-2.3.1-3.5l.2-6.2c.7-.2 1.4.1.6.7-.5 1.9.2 3.7-.2 5.8ZM216.7 348.9c-1.5.6 3.8-8.3 3.9-7.4 0 1.2-.7 2-1.2 2.8zM108.4 52.3q-.8-5.1 0-10.9c.4 3.6.4 7 0 11M227.7 278.4c-.7-1.3 0-2.5-.3-4-.5-2-1-3.9-.2-5.7.5 2 0 3.5.9 5.2-.3 1.6.3 3-.4 4.5M168.6 51c-.8-1.8 0-3.5-.4-5.5-.4-1.4-.9-2.8-.1-4 .5 1.2 0 2.4.8 3.5-.2 2.1.3 4-.3 6M205.5 129c-1 0 1.6-6.2 2.1-7 .3-.7.6 0 .5.7zM174.8 87.6l-1.8-5.4c-.3-.9-1.2-1.5-.5-2.7.4.4 3.6 7.3 2.3 8ZM201.9 40.4c-3.4-.4-4-1.5-8-2-1-1.3 9.4 1 8 2M67 12.5q-2 3-5 5.1 1.4-3.3 5-5.1M163 145q-.9-4.7-.1-9.8.8 4.7 0 9.8M54.2 55.2q-.1-4.2 2-7.6c0 3-1 5.2-2 7.6M166.7 89c0 1.3-.6 1.7-.7.5-1.1-4-.6-7-2.9-10.5 0-.7.3-1.5.6-.8.8.9 2.3 7 2.3 7q-.2 1.8.7 3.9ZM101.5 296.6c-.6-1.7-.7-4.4-.9-6.2-.2-2.8-2.4-9.9-1.3-10.3.7 3.1 2 9.4 2 12 0 1.4 1.2 2.5.2 4.5M54.7 127.5c-1.7 2-2.3 4-4 5.6.2-2.6 2.3-3.8 3.1-6q.7-.8 1 .4ZM69.4 257q-3.3-1.5-5.2-5.1 3 1.9 5.2 5M226 283q-.7-4.3 0-9.1.7 4.4 0 9.2M77.7 220.6q-.7-4.4 0-9.2.6 4.4 0 9.2M139 187.6q-.7-4.5 0-9.2.8 4.5 0 9.2M56 124.9c-1.3.4 1.7-4.4 2.1-5.8.3-.7.6 0 .6.8-1.4 1.9-1.3 4.5-2.7 5ZM56 117.7c-.7-.1.7-5.9 1-7.2.3-.6.5.2.6.9-.6 2.3-.8 4.3-1.5 6.3ZM212 291.7q-1.7.7-3.4 1c-1.5-.5 7-3.3 6.4-2zM65.9 80.8c-.6-.6-.8-1.6-.8-2.2q.8-1.9 1.9-3.8.5-.6.9.2a9 9 0 0 0-2 5.8M202.5 116.8a16 16 0 0 1-8.1-.5c1-.8 2.3-.2 3.6.1 1.5.4 2.9-.4 4.5.4M251.7 215.3c-.8-.6-.3-1.4-.4-2.2-.5-1.8-1-3.6-.3-5.2.6 1.3.1 2.5.8 3.6q.2 2-.1 3.8M256.7 122.1c-.6-1.6-1-3.3-2.1-5.1 0-1.2.7-1.3.7-.2.8 1.7 2.4 2.9 1.3 5.3M199.4 342.2c-1.2.6 1-8.6 1.2-7.6 0 3-.9 5.1-1.3 7.6M69.8 108.6c-.6-2.4 5.3 7.4 3.4 5.8a17 17 0 0 1-3.4-5.8M229.2 232.1c-.9 1.9-.6 3.6-1.7 5 0-3.2 1.2-5.7 1.6-8.7.2-1.7-.3-3.3.3-5.1 1 2.5-.1 5.7-.2 8.8M81 263.6c.7 2.6 4.2 10.5 3.5 13.2l-2.2-7.8c-.5-1.8-2-3.3-1.3-5.4M253.6 105q-2.7-1.6-4.6-4.5 3 1.2 4.6 4.5M128.3 97.2q-.8-4 0-8.6.6 4 0 8.6M74.3 267c.3 0 3.8 6.4 2.3 5.8l-2.3-4.4c-.3-.5-.6-1 0-1.3M21.7 73q-3.8.8-8 0 3.7-.7 8 0M163 68.8c.4.7.2 1.3-.5.8l-2.2-4.3c0-1.2.6-1.4.7-.2zM104.3 296l-.4-3.7c-.4-1.3-.8-2.6 0-3.7.4 1.4 0 2.4.7 3.6 0 1.3.4 2.5-.3 3.8M155.1 64.1c-1.2-1.6-2-3.8-1.3-6.2.4 2 1.2 3.5 1.3 6.2M103 80.2c-2-.6-3.4-2-4.7-3.3-1.6-2.4 6.5 4.1 4.6 3.3M171.3 264.8c-1.8 1 3.5-5.4 3-4.6 1.7-.6-2.7 5-3 4.6M89.6 293.9q-.8-3.5 0-7.5.7 3.5 0 7.5M95.3 299.5q-.7-3.4 0-7.5.7 3.5 0 7.5M51.9 212c0 1.2-.7 1.4-.8.2-.6-1.5-2-2.5-1.4-4.3zM95.3 307.5q-.7-3.2 0-7 .7 3.4 0 7M257.3 136.4q-.6-1.2-.2-2.2l.7-3.5c.8 1.9.1 3.9-.5 5.7M131.6 86l-.5 3.8q-.9-3.2.5-6.3c.7 1 .3 1.7 0 2.5ZM94 330.6c0 1.3-.7 1.6-.8.4-.3-1.8-1.6-3-.8-4.9zM78.1 228.4c-.4-1.1 0-2-.6-3-.1-1.2-.5-2.4.2-3.3.4 1.4 0 2.4.8 3.6-.1 1 .4 1.8-.4 2.7ZM224 252.5c.4-2.4 4.1 4.9 2.6 4.4-.8-1.6-1.3-3.1-2.7-4.5M200.4 159.7q-.6-1.2-.2-2.2l.8-3.5c.8 1.9.1 3.9-.6 5.7M135.9 97.7c.7-.4 3.7 2.4 4.6 2.8 0 1.4-5.2-2.4-4.6-2.8M149.6 104.3q-3.2.7-7 0 3.4-.8 7 0M253.5 91c.3-.9 4.4 4.9 2.6 4-1.1-1.5-2.2-2.4-2.6-4M138.2 313.4q-3 .8-6.3 0 3-.7 6.3 0M55 132.4c-1.2 1-1.3 2.4-2.7 2.9.2-1.6 1.4-2.4 2.2-3.8.7-.5 1 .4.5.9M59.6 242.1c.4-.8 4.4 5 2.6 4-1-1.4-2.1-2.3-2.6-4M169.4 120.2c-.4.6-.6-.1-.6-.9.8-1.4.5-2.9.9-4.6.9 1.7.2 3.3-.3 5.5M243.3 182.8q-.1 1.2-.7.2c1.1-3 2.3-6.5 3.4-8.6.5 2-.8 3.2-1.3 4.8-.3 1.2-.4 2.4-1.4 3.6ZM207.8 129.5c-.8-1.6.2-2.6.9-3.9 1-1.8.9-4 2.9-5.2l-3 6.9q-.3 1-.9 2.2M252.2 148.3c-.8 1.2-.7 2.5-2 3 0-1.6 1-2.5 1.5-3.9.7-.5 1 .3.5 1M207.6 148.5c0 1.2-.7 1-.7 0q.2-2 .9-3.6c.7 1 .2 2.3-.2 3.6M98.4 70.6l2.5 2.5c-1.4.2-2.2-1-3.4-2-.6-.6.4-1 .9-.5M55 136.3c2.3-.6-3 4.2-2.7 3.5.2-1.8 1.8-2.2 2.6-3.5M224.9 313c-.6-1.3-1.7-2.5-1.3-4.5.6 1.3 1.7 2.3 1.3 4.6M55.2 45.4c-.2 1-.7.5-.7-.5q1-1.4 1.5-3.5c1 1.2 0 2.4-.8 4M129 308c1.3-.1 1.6.5.2.7q-2.4-.5-4.1-1c1.3-.7 2.4 0 3.8.3ZM190.6 305.2c-.4-1.6.4-2.7 1.5-3.5q.3 2.4-1.5 3.5M147.8 20.8q-2.3.9-4.6-.7c1.6-.5 2.5.2 4.6.7M147.8 109c-1.7.3-2.8-.4-4.6-.7a4 4 0 0 1 4.6.7"/></g></g></svg>