<?xml version="1.0" encoding="UTF-8"?><svg id="Layer_2" xmlns="http://www.w3.org/2000/svg" viewBox="0 0 269.44 425.13"><g id="OpenNoTape"><g id="_5VVNoK.tif"><path d="M233.48,425.08h-3.32l-1.38-13.29-1.12-13.2-.56-8.54c-.32-4.8-.59-9.48-.83-14.38l-.28-5.8c-.19-4.02-.46-20.01-.03-23.1.37-2.61.42-4.79.17-7.32-.14-1.38,1.81-3.09,1.21-4.61-.51-1.3.13-2.04.44-3.17,2.08-7.42,1.65-15-.31-22.47-2.15-8.19-5.31-12.94-5.9-20.99-.08-1.09-.93-2.13-.11-2.96,1.72,4.14.5,3.67,2.9,8.15.99,1.85.89,4.01,2.63,5.48,1.26-7.58,2.08-12.16,3.88-19.26.84-3.3.15-15.59-.73-19.31l-2.05-8.65c1.86,3.2,2.67,7.09,3.2,10.91l1.27,9.32c1.67-3.37.14-1.22,2.13-5.52l3.97-8.62,7.87-16.98c4.05-8.75,6.54-17.83,8.43-27.3l1.07-5.38c.86-4.31,1.35-8.45,1.8-12.8l1.11-10.82c.94-9.12,2.67-19.69,5.82-28.29,2.64-7.2-.55-12.32-.6-16.15l-.06-5.26c-.05-4.47-1.36-5.48-1.38-9.27l1.61,3.6c1.03-6.12-.63-13.78-2.34-19.35l-4.68-15.28c-1.91-6.25-4.62-16.39-9.28-20.73-2.84-2.65-6.55-3.86-10.04-5.32-5.33-2.23-8.69-1.53-13.62.54.08.61.27.94.55.95,2.35.11.61-1.91,2.22-.69.19.14.28.55-.02.94-1.1,1.44,2.06,1.41.77,5.54-1.02-.78-.32-1.82-.6-2.82-.26-.43-1.84,0-1.7.45.38,1.25,1.87,7.93,2.13,9.43.35,2.01,1.83,3.64,1.19,5.99-1.77-3.07-2.67-9.37-3.62-11.68-.23-.55-.78-.27-.94.14l1.5,6.34c.55,2.32,2.65,11.11,4.22,12.11l3.91,2.5c.69,1.89-2.3-.93-2.62-.25.66.83,1.65,1.36,1.48,2.8-6.37-3.29-11.47-8.95-12.16-16.58l-.51-5.67-.49-9.34c-.45-8.5-3.55-20.34-9.97-26.41-4.63-4.37-8.07-4.56-14.35-6.13-4.12-1.03-10.58-1.53-14.16.82-2.55,1.67-5.14,3.52-6.94,5.95-.84,1.14.36,2.93.55,3.82.71-.51,4.39-2.78,3.23-3.44-.1-.6.44-.67.52-.03.7,1.11-.5,4.44-.38,5.64.09.94.12,1.54-.02,2.49-.85,5.48.55,8.64.49,14.12-.1.61-.54.68-.83.07.73-1.53-.4-2.74-.39-4.06.06-4.58-.26-8.95.13-13.41.08-.96,1.1-2.52-.17-2.78-1.11.58-1.65,1.84-1.02,2.8-.06-.1-.36,9.53-.3,10.56l.49,7.44c.53.52-.64.72-.37.02-.8-2.22-1.31-10.82-.9-12.51.32-1.32.5-2.26.11-3.6-.23-.8.79-1.73.12-2.79-1.16.57-1,1.63-1,2.84l.04,10.27c.01,3.02.39,5.7,1.96,8.55.43-.26.22-.94.75-1.19-.76,3.35,3.08,6.18,5.23,7.82-2.4,1.34-6.34-3.21-7.87-4.34-1.43-1.05-2.25-2.04-2.62-3.92-.42-2.11-.84-4.14-.9-6.38l-.23-8.4c-.16-5.64-.45-11.07-1.18-16.67-.23-1.75-.77-3.04-1.62-4.52.59,1.03,1.17-4.66-8.11-14.3-2.6-2.71-5.77-4.27-9.54-4.72l-9.98-1.21c-4.23-.51-8.36.05-11.92,2.3-4.54,2.87-12.5,10.26-12.14,16.49.61.72.84.09.8-.75l2.08-4.5c.02,2.1-2.05,3.04-1.5,5.09-.2.61.01,1.44.44.75.17-.88.57-.85.78-.18-2.18,5.47-3.9,12.33-2.64,17.66-.16-5.97,1.81-10.04,2.28-12.6l.47-2.49c.31-1.01.99-1.12.98.14-2.31,2.21-2.89,13.1-2.91,16.02l-.08,10.3c2.13.56.38-9.33.8-12.75l.52-4.25c.17-1.4,1.11-2.55.93-4.15.13-.61.62-.58.7.02-.28,1.64-1.13,3.02-1.14,4.61l-.08,9.06c-.01,1.6.22,3.04.04,4.56,2.94,2.8.96-14.74,1.98-15.39.6,4.46.19,8.56.18,13.02.32.32,1.1-.18,1.1-.92.43-.94.85-.57.32.34-.67,2.68-1.86,5.03-3.37,7.26-1.73,2.56-7.72,4.75-10.56,3.44,1.1-1.1,2.45.11,4.09-.68-1.76-.77-3.7-.4-5.23-1.76,1.22-1.08,4.55.58,5.12-.61-.76-.71-1.59-1.45-2.78-1.86-.67.01-.61-.67-.14-.42,1.46.35,2.32.79,3.39,1.82.89-1.65.08-2.71,0-4.01l-.39-6.48-.18-11.36c-.05-2.9-.37-5.52-1.37-8.18-1.14-3-1.84-6.06-3.7-8.9,1.19-2.93,3.76,8.85,4.62,9.28.15,1.15.7,1.05.32-.07-.46-5.87.7-7.86-1.64-12.33-1.86-3.56-4.34-6.52-6.87-9.57-2.84-3.42-6.48-5.48-11.12-5.51l-12.47-.08c-7.26-.05-9.42,2.97-14.3,7.41-11.54,10.51-12.36,16.07-13.03,31.91l-.22,5.15c-.3,7.06.23,9.61.8,16.69.14,1.12.69,1,.65-.04l4.35-8.45c.65-.53.86.21.8.88-4.49,8.02-6.65,16.43-7.23,25.58-.2,3.07-1.47,5.83-.65,9.16.71-1.17,1.01-2.53,2.05-3.47,1.19-1.08.61-2.23.77-3.46.42-3.28,1.75-6.12,2.35-9.16,1.39,2.19-2,6.33-1.76,10.31.94-1.68,2.51-4.01,3.83-5.71-.66,2.96-1.91,5.46-3.33,8-1.81,3.24-2.72,6.7-4.02,10.21-2.05,5.57-2.59,11.16-1.14,17.05.07.3.1.73.29.88.12.09.17-.2.45-.46.76-4.28,1.48-9.46,1.44-14.12.07-.61.61-.56.9,0-.05-1.03-.59,14.06-.85,10.85.36,4.52-2.49,4.37-.99,10.29,1.56-.56,3.03-14.33,2.76-13.59.5-1.34.68-2.59.4-4.15.18-.58.58-.59.73,0-.3,1.62.24,3.07-.2,4.51-.76,2.46-.32,6.04-1.21,8.53-.48,1.35-.4,2.59-.71,3.89-.64,2.71-2.33,5.03-2.91,7.76l-.71,3.34c-.31,1.46-1.25,2.76-1.74,4.44-3.59,12.41-2.74,12.66-2.04,25.65-.17.57-.78.61-.76,0-.44-2.21-.11-4.23-1-6.38-.47,6.23.17,12.44,1.44,18.89.16.52-.31.59-.6.05-.36-.34-.97-.72-.91-1.3.23-2.61-3.18-8.32-2.04-22.94.12-1.48.96-2.76.66-4.33-.13-.56-.45-.57-.57-.42-.2.26-.5.7-.33,1.13-.25.62-.65.45-.69-.11-.01-1.01,3.97-7.2,1.7-6.38-1.39,2.31-2.94,4.47-4,6.96l-3.16,7.44c-.6-7.03,8.28-17.84,8.12-17.42l1-2.75c.74-2.21-2.75.58-3.75,1.25l-4.65,3.16c-.52.35-.93.17-.63-.4,2.17-2.09,4.31-3.89,6.89-5.29,1.02-.56,2.43-.8,3.02-1.91.27-.72-.3-1.33-.9-.97l-3.27,1.97-1.17.59c-.51.26-.87-.13-.55-.61,1.88-1.77,6.3-2.61,6.73-4.03.09-.47-.28-.55-.83-.47-.28.04-.6.2-1.1-.09.12-.67.84-.45,1.44-.49.82-.05,1.18-.8,1.03-1.59-.44-2.41-3.67-1.27-5.54-.92-4.6.87-10.06,3.27-13.34,6.89-.54.54-.93-.21-.57-.69,4.41-4.36,10.55-8.7,17.01-8.31,2.41-1.47-5.78-.62-6.33-.91.19-1.89,8.69-.17,6.61-2.19-2.82-.5-2.99-.16-5.42-.46-1.17-.14-2.19.84-3.47.02,1.61-.48,3.17-.8,4.98-1.06-.03-1.4-.19-2.68.54-3.83.57,1.49,0,2.53.26,4.11,1.27-.14,2.15-.19,3.4-.09l-.17-4.06c-.02-.56.91-.61.94-.06.08,2.1-.45,4.74.9,4.27.94-.33-.28-3.68-.52-4.75-.24-.8-7.18-1.9-5.41-1.25-.21-.08-.35-.26-.52-.81-1.07-.12-1.1-.8-.01-.65,1.4.04,1.49.73,2.14.5.38-.13.9-1.97-.24-2.25-2.05-.52-3.79-1.41-5.7-2.28-.7.12-1.38-.14-.78-.57,1.43-.31,2.02.5,2.94.76l6.72,1.86c.48.13.7-1.38.14-1.85-1.32-1.11-5.71-2.23-7.33-3.53,2.31-.52,7.51,3.59,7.67,1.31.03-.45-.35-.66-.87-.83-3.4-1.13-6.46-2.61-9.13-5,2.29.05,3.7,1.49,5.59,2.25l4.1,1.64c.31.12.63-.67.59-.87-.29-1.6-3.46-1.51-5.6-3.22-.71.14-.67-.4-.08-.54,3.22,1.47,3.2,1,5.64,2.23.41-.17.81-.71.62-1.08-.77-.9-2.08-.98-2.6-2.15,1.12-.13,1.62.76,2.69.42.06-1.29-1-1.98-2.25-2.29.17-1.44,2.35.88,2.48-.33.17-1.58-2.2-1.76-2.93-3.33,5.91,2.89,1.45-1.21-.58-2.66-1.46-1.04-10.24-7.64-9.57-9.24,1.59.51,10.65,8.88,7.19,2.43,1.13-.54,5.99,4.4,6.34,4.08.26-.23.32-.58.29-1.11-.04-.87-.99-.75-1.43-1.19-1.26-1.28-2.35-2.51-3.73-3.62-.39-.41-.48-.86.1-.84,1.54.71,2.47,2.33,3.1,1.99,2.11-1.1-3.63-4.26-1.52-4.91l1.97,1.88c.81-1.08.23-2.44-.99-3.34-.3-.63,0-.89.68-.53.2.08.46.1.71.05,1.53-4.38,1.32-4.78,1.78-10.09.47-.75.76-.07.6.71-.42.25-.69,8.28-.79,7.48.03.25.29.44.41.55.92.88,1.12-3.82,1.09-4.59l-.32-11.77c-.04-1.39-1.1-2.55-.86-4.18.42-2.86.59-5.65.15-8.26-1.84,2.24-3.18,4.4-5.12,6.26-5.13,4.92-9.88,3.26-11.99,5.16l-8.05,7.22c-4.28,3.84-11.84,5.33-17.33,15.09-.82,1.46-1.72,3.13-2.02,4.79-1.13,6.33,1.11,13.79,1.7,20.43l.6,6.77.45,5.65.92,9.47.53,7.58c.27,3.95.03,7.68-.07,11.59l-.25,10c-.13,5.12-.42,10.12.83,15.1,3.15,12.47,12.35,20.02,19.52,31.15,4.39,6.82,8.28,13.59,12.04,20.75l7.11,13.53c3.27,6.23,6.67,12.26,11.6,17.23l5.18,5.22,5.16,5.54c2.83,3.04,4.85,6.47,7.33,9.71.86,1.12,2.28,1.5,2.43,3.33.01.17,3.23,14.1,3.65,18.8l1.34,14.8c.52,5.69,2.06,5.86.05,8.01.34,4.76.91,9.31,1.11,14.14l.2,4.93c.5,12.3,0,24.35-1.08,36.63l-1.36,15.32-2.26,18.7-1.95,15.91h-3.82l2.4-18.78c1.51-11.81,2.61-23.25,3.43-35.08l.49-6.99c.78-11.27.65-21.04,0-32.31l-.68-11.96-.29-7.5c-.59-14.95-1.71-28.25-10.6-40.8-2.68-3.79-5.87-6.86-9.01-10.21l-7.16-7.64c-2.56-2.73-7.74-11.64-9.68-15.35l-6.07-11.6-9.36-16.72-2.87-4.61c-1.86-2.99-3.86-5.79-6.02-8.58l-3.54-4.58c-10.02-12.98-12.83-19.85-11.99-36.66l.51-10.23c.3-6.14.1-12.01-.58-18.13l-.51-4.59-.66-7.91-1.41-14.57c-.69-7.13-3.53-12.76,1.05-21.11,2.27-4.14,5.32-7.8,9-10.81,5.78-4.74,6.11-2.19,16.23-12.25.84-.84,2.21-1.22,2.87-2.21,1.45-2.21,2.53-4.55,3.84-6.86l4.94-8.73c1.7-3,3.33-5.95,5.72-8.45,1.91-2,5.11-.01,5.73-1.84.99-2.91,1.53-6.07,3.3-8.69,3.27-4.85,7.33-8.78,11.56-12.75,3.33-3.12,7.15-6.26,12.21-6.43,5.35-.17,10.5-.23,15.8.13,7.08.49,10.08,3.85,14.34,8.84,3.02,3.54,5.68,7.29,7.2,11.79.21.64.62.42.93-.15.89-1.64,2.31-2.66,3.43-3.98,1.66-1.96,3.41-3.46,5.46-4.91,8.7-6.17,14.95-3.67,23.31-3.01,6.83.54,12.8,3.57,16.76,9.11l2.12,2.96c4.71,6.59,5.24,9.4,6.22,17.72.2.33.37.3.54,0l3.44-2.82c3.9-3.2,8.9-4.53,14.06-3.71,4.81.76,9.63,1.8,14.2,3.68s7.76,5.61,10.43,9.51c3.39,4.93,5.8,13.37,6.4,19.42.2,1.99,6.04-2.53,12.12-1,4.81,1.21,9.41,3.17,13.54,5.69,2.63,1.61,4.43,3.77,5.86,6.35,3.38,6.08,2.15,5.98,4.75,12.14,1.7,4.02,2.46,8.18,3.77,12.34l3.75,11.87c2.02,6.42,1.41,16.23,1.18,23.11-.19,5.74,1.97,10.17,1.88,16.51-.05,3.24-3.42,12.18-4.51,18.14s-2,11.56-2.42,17.52c-1.19,16.66-3.75,30.7-9.12,46.49-1.11,3.26-2.2,6.29-3.64,9.41l-5.04,10.94-3.79,8.1c-2.51,5.37-4.56,10.86-5.99,16.66l-2.17,8.81c-1.44,5.85-2.69,11.74-2.17,17.83.42,4.85,3.56,12.94,2.31,19.77l-1.91,10.49c-.68,3.71-1.57,14.62-1.5,18.15l.41,21.03.75,14.99,1.15,15.68,1.69,19.34ZM35.11,54.43c2.32.41,6.82-2.9,6.58-2.61,3.01-3.61,5.88-7.34,7.6-11.81.96-2.51-.23-5.6-1.96-7.38-3.06,2.89-7.6,11.84-9.6,15.83-.63,1.26-1.48,2.3-1.74,3.68l3.32-.18c-1.1.7-2.52.29-3.82.99-.44.24-.99,1.37-.38,1.48ZM48.32,82.31c.34-1.33-.11-3.44-.83-3.28-.37.08-.69,3.45.83,3.28ZM225.25,86.87c-.29,2.35.63,4.3,1.89,5.85,1.5.99-2.09-6.73-1.89-5.85ZM45.55,112.17c-.65-.48-1.16-.52-1.79-1.06-.64.28-.3.82-.82,1.63.28.78,1.18.82,2.06,1.01.55.31.87-.1.88-.37.01-.29.2-.83-.32-1.21Z"/><path d="M227.99,425.08h-.57c.34.82-1.24-8.99-.6-7.35-.76-1.94-.3-3.76-.65-5.68s-1.2-11.37-1-10.32l-.63-3.31c.37,1.97-1.1-16.16-1.1-13.69v-15.9c0,4.45.87-9.8,1-6.87l.23,25.62c.02,1.71.83,3.28.5,5.13s.1,3.41.52,5.1c.32,1.3-.32,2.7.07,3.96.57,1.82,2.57,20.66,2.23,23.32Z"/><path d="M82.48,425.08h-.57c-.47-2.76.82-6.57.58-7.94-.3-1.66.46-3.02.5-4.56l.18-6.72c.03-1.16.73-2.24.45-3.49-.19-.89,1.02-9.41,1.05-10.27l.19-5.55c-.04,1.19.91-7.11.9-7.03.58-3.77-.45-7.43.49-11.31.38,5.01.29,10.05.09,15.29.09-2.37-1.01,10.22-.9,7.59l-.22,5.48c.09-2.28-1.03,10.73-.98,8.06l-.09,5.11c.04-2.35-1.08,10.49-.98,8.63l-.19,3.78c-.06,1.11-.65,2.01-.48,2.94Z"/><path d="M224.57,425.08h-.57c.13-1.45-.02-2.94-.61-4.54-.09-1.55.25-3.03-.01-4.55-1.13-6.46.21-4.49-1.13-9.08l.04-9.11-.57-2.28v-11.27c-.71-1.31-.59-2.6-.6-4.13.18-.5.54-.95,1.14-1.08l.03,9.66.57,2.27v10.23s.57,2.27.57,2.27l-.05,7.41c1.52,4.66-.2,4.18,1.13,10.22.31,1.42-.1,2.78.06,3.97Z"/><path d="M217.75,425.08h-.57c-.41-.56-.59-1.3-.59-2.25l.03-17.07-.6-2.28c-1.12-4.22-.3-8.83.26-13.12.79,2.94.09,5.66.34,8.57.07.8.55,1.48.55,2.28v12.5s.58,2.27.58,2.27v9.09Z"/><path d="M213.78,425.08h-.57v-16.48c0,1.45-1.31-6.85-.21-6.88l.64,4.15.14,19.21Z"/><path d="M210.37,425.08h-.57c.19-2.67-.39-5.33.29-8.01.65,2.88.09,5.46.28,8.01Z"/><path d="M97.4,311.93l-.19-12.96-1-7.43c-1.16-8.58-3.6-12.52-7.7-20.44-.42.23-.28.79-.79,1.15.35-1.39-4.9-9.46-5.24-9.71l-2.98-2.2c.74.55-11.34-12.91-10.15-14.27,1.13.17,1.11,1.15,1.56,1.9,1.56,2.58,3.7,6.15,6.62,7.54-2.55-5.27-5.34-8.37-7.75-14.37-.79-1.96-2.24-3.57-1.99-5.95.81,1.14,3.34,7.51,3.95,8.57l2.28,3.98c2.95,5.13,2.88,4.58,5.98,9.2.31-1.51-3.25-6.74-1.72-6.84l3.41,6.99c1.27,2.61,2.38,5.1,4.42,6.8.19-2.14-4.23-7.88-2.88-8.96,1.37,3.01,2.49,5.72,3.99,8.63l4.75,9.23c5.75,11.18,8.1,25.82,5.43,39.15Z"/><path d="M167.49,116.55c-1.39-2.6,1.29-6.26.78-9.15-.18-1.05,1.35-5.07.28-7.42-.18,1.76-.85,3.37-1.23,5.26-.3,1.52-.17,2.9-.73,4.4-1.01,2.69-1.43,5.52-2.76,8.27-.12,1.15-.73.9-.71-.2.58-2.64,1.7-4.96,2.28-7.48l1.49-6.47,1.19-7.67c.88-5.66-.49-10.91-2.48-16.04-.79-2.05-2.3-2.47-3.51-4.01l-3.77-4.76c-.53-.67-1.08-1.56-.71-2.3,1.58.85,2.23,2.39,3.45,3.59,2.33,2.3,4.36,4.65,6.44,7.22,2.86,3.53,5.89,19.44,4.32,24.31-.53,1.65.47,3.32-.46,5.05-.69-5.01.35-7.25-.52-13.11-.22-1.45.56-3.01-.68-4.08.31,3.54.31,9.38-.29,12.49l-1.01,5.22c-.45,2.33-.83,4.43-1.37,6.88Z"/><path d="M218.77,116.74c.27-.84,1.82-13.03.05-12.81.15,4.18-1.9,13.22-3.54,16.35-.69,1.31-1.12,2.63-1.76,3.95l-4.57,9.36c-1.2-.67,1.47-4.19,2.14-6.11.96-2.74,2.23-4.87,3.71-8.78l1.39-3.68c.43-1.14.6-2.47.78-3.73,1.12-7.96-.15-14.07-4.78-20.46-1.63-2.25-3.95-3.36-5.77-5.56,3.39.5,6.78,4.59,7.94,5.32.2.12.5-.12.92-.59,1.35.91,2.1,2.49,2.73,4.16l3.89,10.37c.45,1.21,1.68,7.32.67,8.01l-.64-4.7c-.25-1.84-.74-3.53-1.62-4.98.21,6.94.7,14.08.03,21.09-.72-2.61-.09-5.1-.31-8.02l-1.25.82Z"/><path d="M250.49,155.72l-3.92,6.09c-.46.71-.77,1.44-1.53,1.91.04-2.26,1.31-3.81,2.44-5.5l4.78-7.18c2.59-3.89,4.47-7.99,5.87-12.48.98-3.14,1.73-13.5.75-17.08-1.36-4.94-3.49-9.63-7.25-13.21-1.56-1.49-3.24-3.06-5.19-3.93l-5.46-2.45c1.35-1.04,7.64,2.25,8.56,3.47.76-.37.67-.67,0-1.06-.82-.68-.01-1.12.71-.57l5.94,6.73c1.75,1.99,2.79,4.42,3.17,7.07.31,2.15.78,4.19.92,6.4.45,6.91-.52,15.4-3.28,21.61-1.2,2.7-2.81,4.95-4.48,7.31l-2.03,2.88Z"/><path d="M72.45,265.49c-2.28-3.61-3.65-4.8-6.12-7.28l-2.25-2.25c-4.28-4.29-8.88-9.58-11.87-14.82l-2.07-3.62-2.27-3.98-3.06-5.47c-2.84-5.08-5.32-9.59-8.01-14.76-1.11-2.14-6.44-10.71-6.92-11.91-.51-1.28-2.13-1.91-1.94-3.67.94.14,3.01,4.15,3.11,4.32l3.02,4.92,3.19,5.27c.75,1.25,1.25,2.47,1.96,3.74l3.05,5.48c1.18,2.12,2.07,4.22,3.44,6.25.71,1.05,1.26,2.13,1.86,3.27l2.56,4.84c2.44,4.62,4.65,7.97,7.88,12.04l2.25,2.83,9.23,9.5c.3.31,3.39,4.46,4.14,5.13-.34.76-.69.65-1.18.16Z"/><path d="M97.89,384.38c.04,1.63.89,2.82.29,4.39-.81-1.15-1.17-2.46-.9-4.03.25-1.48-.44-2.63-.52-3.99-.34-5.78-4.88-23.31-6.59-29.89l-2.7-10.34c-.38-1.46-.93-2.88-.13-4.15.47,1.27.26,2.36.93,3.39l2.99,11.79c1.98,7.82,4.67,16.23,5.75,24.32.2,1.47.74,2.84.77,4.33l.1,4.19Z"/><path d="M85.56,424.48c-1.01-2.3.63-8,.35-9.63-.32-1.82.44-3.4.47-5.12l.14-7.39c.03-1.52.81-2.91.5-4.54s.32-3.02.5-4.54c.26-2.12-.06-4.12.05-6.25.04-.8.6-1.48.6-2.28l-.15-19.2c-.01-1.65-1.16-3.26-.07-4.72l.69,3.01.09,25.45c0,.82-.54,1.49-.58,2.29-.15,2.68.27,5.23-.13,7.85-.19,1.19-.61,2.19-.48,3.52.43,4.47-.93,4.23-.53,6.8.26,1.66-.48,3.02-.52,4.56l-.11,5.1-.83,5.11Z"/><path d="M220.15,417.67c-.43-2.84.08-5.63-.13-8.5-.06-.81-.55-1.48-.55-2.28v-9.09s-.53-1.8-.53-1.8c.28.91-.88-15.1.98-14.68l.13,17.04.54,2.29.14,14.1c-.02-1.74,1.16,9.21.06,8.69-.13-2.11-.34-3.83-.63-5.76Z"/><path d="M53.16,236.18c-.63-1.2,6.17,9.07,4.98,7.03,1.7,2.91,4.24,4.87,5.63,8.12-3.44-2.71-5.67-6.16-8.04-9.73l-3.42-5.17-8.74-16.92c1.39-.22,1.27,1.06,1.84,1.7.48,1.84,1.82,3.13,2.53,4.77.77,1.78,1.56,3.28,2.47,4.99l2.76,5.2Z"/><path d="M216.62,366.85c-.85,3-1.18,5.81-1.84,8.67l-.7,3.59c-.78-1.62-.17-3.36.21-5.2,2.59-12.37,2.63-13.62,7.63-25.35.63-1.49,1.57-2.73,1.81-4.38.7-.76.68-1.59,1.05-2.69.87.89.2,1.89-.2,2.91-2.57,6.44-4.92,11.68-6.78,18.24l-1.2,4.22Z"/><path d="M93.15,144.5c.15-.45.29-.9.45-1.35-2.48-10.46-5.82-20.4-10.7-30.03-.27-.18-.71.67-.44,1.11,1.88,3.09,5.82,13.98,7.14,17.95l.98,2.95c1.05,3.17,1.86,6.2,2.58,9.36Z"/><path d="M90.05,415.95c-.38-2.36-.11-4.68-.18-7.37-.02-.79.55-1.46.56-2.27l.12-14.1c.01-1.15.79-2.22.48-3.51-.35-1.47.2-2.75.4-4.09.59-4.15-.41-8.17.46-12.44.46,4.08.28,8.19.15,12.56-.05,1.67-.86,3.29-.49,5.11.4,1.99-.42,3.81-.44,5.68l-.13,13.07c.03-3.34-.81,7.84-.93,7.36Z"/><path d="M92.85,347.45l-.19-.73c-1.97-7.47-3.55-14.05-5.33-21.14-1.16,2.12,1.46,8.54,1.73,10.49.4,2.91,2.02,8.26,3.42,13.22.09-.62.22-1.23.37-1.83Z"/><path d="M173.69,386.71c1-1.32,1.15-2.4,1.67-3.47l3.5-7.25,2.14-5.29c1.04-2.58,2.14-5.02,3.08-7.67.32-.9,2.39-7.73,3.06-7.34-1.62,6.53-5.06,15.35-7.9,21.26l-2.75,5.72c-.7,1.45-1.11,2.92-2.06,4.32.14.82-.45.64-.76-.29Z"/><path d="M216.89,377.96c-.63-2.56,1.82-13.36,2.6-15.91,1.38-4.52,2.17-7.48,4.27-11.48.79,1.38-.1,2.23-.49,3.29-.83,2.27-1.69,4.44-2.28,6.8l-2.73,10.96c-.7,2.8-.3,4.03-1.36,6.35Z"/><path d="M78.67,265.79c.46.92,5.62,13.34,4.16,14.47-1.3-3.82-2.13-7.64-3.79-11.46l-1.39-3.21c-.7-1.63-1.95-2.96-3.13-4.19s-1.39-3.06-2.6-4.27l-2.28-2.29c-1.25-1.26-3.04-2.32-2.77-4.58,1.67,1.84,2.39,3.59,4.69,4.06.93,5.48,4.18,2.21,3.21,5.62.07.42,1.17.4,1.46.99l2.42,4.86Z"/><path d="M126.47,84.63c-.65-1.02.18-1.78.44-2.71,1.5-5.33,4.31-10.52,9.59-12.66,1.59-.64,2.64-2.15,4.61-2.16-.99,1.32-2.37,1.78-3.71,2.64-3.91,2.51-6.97,5.99-9.07,10.17-.78,1.55-.73,3.13-1.86,4.71Z"/><path d="M159.33,155.07c-.26-8.26-.39-16.02,1.23-25,1.04,2.02.05,4.12-.1,6.31-.3,4.42-.03,8.65-.07,13.08-.89,1.66-.18,3.29-1.06,5.61Z"/><path d="M240.85,176.9c-.79.63-1.23.18-.78-.51,2.71-5.86,3.86-7.7,7.29-12.84l4.67-7,3.58-5.57c1.06-1.65,2.62-5.49,3.29-7.83,1.77,0-3.1,9.54-3.59,10.26l-4.63,6.81c-2.15,3.17-7.16,10.49-8.5,13.67-.37.89-1.3,1.54-1.33,3Z"/><path d="M78.31,115.5c-.96-1.41-1.98-2.48-3.01-3.84-1.21-1.59-8.53-12.59-6.72-14.55,1.37,3.93,5.47,11.28,8.12,14.97.72,1.01,2.09,1.76,1.62,3.42Z"/><path d="M94.39,343.56c-.11-.68-.37-1.34-.55-2.01l-1.84-6.71c-.93-3.37-1.74-6.59-2.5-10l-1.04-4.67c-1.15-5.18-1.27-5.62-2.09-10.99l-.71-4.64c-1.07,2.7.24,5.26.64,8.13l.62,4.48c.44,3.12,1.68,7.93,2.55,11.12l1.95,7.19c.92,3.39,1.64,6.13,2.44,9.14.16-.35.34-.7.53-1.04Z"/><path d="M261.3,145.39c-.93,1.77-1.37,3.65-2.3,5.56l-4.14,8.48c-.68.46-1.06-.19-.53-.68.31-1.51,1.08-2.61,1.82-3.85,2.76-4.64,4.31-9.57,5.6-14.59.89,1.28.1,2.4-.16,3.55.06-.26,1.06,5.2.23,6.79-.82-1.63.16-3.25-.52-5.25Z"/><path d="M155.87,208.92c-.38,7.16.43,13.75-.4,20.71-.47-8.41-1.61-17.08-.14-25.5l.72-4.14c1.06.89-.19,8.94-.19,8.92Z"/><path d="M111.5,54.95c-.94-.06-.46-.91-1.15-1.15l.03-12.88c0-2.37-1.07-7.52-2.03-9.91-.62-1.55-1.6-3.08-1.21-4.95,1.27,2.79,2.23,5.6,3.02,8.74,1.04,4.13.47,5.5,1.16,10.12.51,3.43-.09,6.74.19,10.04Z"/><path d="M156.5,151.67c-.27-2.34-.1-4.64-.12-7.33,0-.79.5-1.46.55-2.27.2-3.07-.29-6.03.13-9.07.26-1.93.55-3.63.6-5.77,1.16,2.02-.04,4.14-.06,6.33l-.1,15.92c0,.7-.25,1.08-1.01,2.2Z"/><path d="M55.59,74.47c-.83,1.37-.81,2.57-1.16,4.02-1.45-.46,2.34-12.76,2.88-13.88l3.14-6.47c.53-.51.86-.99,1.4-1.37.63.98-.27,1.09-.55,1.63l-3.64,7.16c.37-.73-2.5,8.35-2.07,8.92Z"/><path d="M156.92,22.03c-1.33.21-2.11-.7-3.15-1.28-2.72-1.52-5.64-2.52-8.78-3.1-2.43-.45-4.72.75-7.26-.61,3.44-2.26,16.62,1.66,19.2,5Z"/><path d="M10.14,132.9l-.95-3.43c-.25-2.05.24-4.03-.15-6.06-.26-1.35-1.74-12.75-.67-13.23l.66,5.78c.22,1.94.33,3.72.56,5.69l.58,5.09c.24,2.09.1,4.09-.02,6.16Z"/><path d="M85.63,125.58c.43,1.24,1.38,2.16.52,3.48l-2.39-6.41c-.33-.9-.62-1.58-.98-2.44l-2.2-5.21c-.22-.52-3.07-6.1-2.47-6.49.99.62,1.07,1.74,1.59,2.83l2.53,5.39c.57,1.22,1.12,2.32,1.56,3.58l1.85,5.29Z"/><path d="M93.02,298.84c-.73-2.26-.14-4.38-.27-6.76-1.16-3.28-.15-4.09-1.45-8.28-.49-1.58-.81-2.98-1.12-4.6-.23-1.2-1.58-2.12-.64-3.65,2.26,4.71,2.7,9.57,3.8,14.83-.29,2.95.3,5.58-.32,8.45Z"/><path d="M83.71,236.35c.1-1.53-.33-2.46-.79-3.78-1.79-5.1-1.33-5.55-1.88-10.4.32,2.88.16-10.49.63-9.11.63,3.9-.36,7.85.32,11.98l.64,3.88c.4,2.47,2.61,5.67,1.08,7.42Z"/><path d="M229.5,246.58c2.33,6.1,4.53,13.11,3.99,19.43-1.3-1.89-.75-4.02-1.03-6.29-.31-2.55-2.25-9.79-3.5-12.44-.89-.71-.3-1.62.54-.71Z"/><path d="M169.5,78.35c.48,1.96,5.61,12.18,4.15,14.91-1.31-7.08-4.64-13.72-7.24-21.02.65-2.07,3.25,6.78,3.09,6.11Z"/><path d="M221.52,345.3c-2.28,2.59-4.08,10.6-6.07,12.78,1.54-8.39,6.05-13.64,9.57-21.37.65-.47.92.1.58.67l-2.45,4.44c-.62,1.12-.74,2.49-1.63,3.49Z"/><path d="M24,191.98c-2.01-.68-2.5-2.63-3.92-3.98-.78-1.34-7.94-9.4-6.79-10.23l5.68,7.34c.68.88,1.12,1.83,2.05,2.52l2.98,4.35Z"/><path d="M5.85,90.37c-3.13-.86,2.91-2.6,3.05-2.65l4.59-1.57c2.11-.72,3.6-2.32,6-2.58.68.57-7.83,4.21-7.76,4.19-1.95.72-3.96.84-5.88,2.61Z"/><path d="M232.6,246.38c1.73,3.96,3.35,11.51,2.58,15.67-2.27-5.34.37-3.11-1.82-10.51-.48-1.64-.42-3.4-1.51-5.01.06-1.12.67-1.27.75-.14Z"/><path d="M90.12,12.1c-2.75-1.16-5.14-.27-7.66-.19l-2.76.09c-.97.27-1.85.95-2.97.17,5.48-2.04,12.11-1.87,18.29-.07-.57,1.37-3.1-.82-4.91,0Z"/><path d="M10.08,146.57c-1.12-1.6.16-2.95.14-4.48-.02-1.88,1.3-10.16,1.54-13.13.51,2.19.81,4.58.24,6.87l-.57,2.27c.9-3.57-1.45,9.78-1.35,8.48Z"/><path d="M133.47,76c-2.69,3.49-3.29,6.44-4.85,10.69-1.37-.87-.47-1.74-.11-2.59l2.02-4.78c1.09-2.59,2.69-4.92,5.31-6.2-.28,1.51-1.63,1.83-2.37,2.88Z"/><path d="M60.46,226.72c-1.37-.16-1.28-1.41-1.88-2.22-.46-1.4-1.39-2.4-1.96-3.7l-1.39-3.16-4.04-10.2c-.48-1.2-.95-2.43-.22-3.49.42,1.09.42,1.89,1.05,2.7.97,4.27.89,2.06,2.32,6.81.51,1.68,1.66,3.03,1.88,4.86,0,.07,4.1,7.31,4.24,8.39Z"/><path d="M239.23,248.13c.26,1.55.22,2.8-.06,4.25-1.87-4.56-.08-3.27-2-10.92-.44-1.75-1.24-3.14-1.14-5.13,1.02.55,2.44,7.17,2.69,8.64l.52,3.16Z"/><path d="M90.48,5.96c-6.8,1.53-8.84-2.89-17.15,2.24-.79-.51-.32-.91.21-1.26,3.86-1.89,8.64-2.32,12.79-1.65l4.15.67Z"/><path d="M241.36,248.29c-.62-1.22-.12-2.32-.86-3.44.25-4.22-1.49-7.55-1.74-11.93.52-1.63,2.32,8.15,2.28,6.9.04,1.44-.2,2.76.57,4.06-.11,1.54.33,2.87-.26,4.41Z"/><path d="M19.88,183.09c.55.84,4.2,4.67,4.68,6.01-1.79-.46-2.38-2.38-3.62-3.66-4.55-4.71-4.86-6.44-8.51-11.46.11-.85.3-1.6.64-.86,1.78,2.86,2.94,5.16,4.79,7.41.72.87,1.39,1.6,2.02,2.56Z"/><path d="M36.07,174.44c-.43-1.61-.67-3.33-.21-5.09l.46-1.79c.77-2.98,1.8-7.54,3.39-9.65.44,1.95-.91,3.19-1.32,4.83-1.45,5.81-1.69,4.03-2.33,11.71Z"/><path d="M243.12,242.33c-.91-1.94.05-3.83-.45-5.82-.29-1.14-2.1-7.93-1.28-8.68,1.02,3.93,2.1,6.29,2.04,10.79.2,1.13,1.35,2.5-.31,3.71Z"/><path d="M229.43,280.61l-.39-12.84c-.66-1.98-.76-4.04-.21-5.85.64,1.51-.09,2.85.91,4.13l-.32,14.56Z"/><path d="M237.43,258.63c-.57.97-1.63-10.62-1.62-10.19-.05-1.82-1.53-3.3-.77-5.29.99,2.24,1.19,4.61,1.85,7.1.43,1.62.07,3.2.2,4.92.09,1.18,1.05,2.13.35,3.46Z"/><path d="M94.91,245.35c.26.8-.07,1.64-.38.96-1.42-2.46-3.46-8.07-3.86-10.13l-.74-3.75c-.43-2.18-.27-4.31.18-6.3.87,1.76.09,3.42.39,5.15l.66,3.89,1.95,6.53c.36,1.2,1.29,2.2,1.8,3.64Z"/><path d="M202.79,164.42l-.64,4.42c-.78-1.97-.22-4.08.34-6.25.35-1.35.98-7.62,1.22-9.78,1.24.12-.63,9.58-.92,11.61Z"/><path d="M107.46,326.72c-.51.05-.98-.52-1.05-1.08-.48-3.95-1.3-7.63-3.35-11.01-.35-.58-.04-1.12.6-.66,2.16,4.04,2.96,7.42,3.8,12.75Z"/><path d="M248.07,230.68l-.69-3.94c-.15-.84-.18-5.89-1.42-8.3-.37-.72-.67-1.6-.03-2.53.6,2.37,1.78,4.68,1.92,7.41.23,4.35,1.13,5.4.22,7.36Z"/><path d="M100.65,10.12c.56-1.1,9.57,8.89,7.82,9.31-1.19-1.35-2.06-2.74-3.16-4.2-1.41-1.88-3.43-2.94-4.66-5.11Z"/><path d="M88.62,280.48c.52,1.95,1.21,3.6.34,5.42.23-1.84-3.46-12.62-2.08-12.55.19,2.61,2.15,5.41,1.74,7.13Z"/><path d="M249.83,223.34c-.26-.63-.67-1.43-.7-2.37l-.19-5.48c-.07-2-1.29-3.73-.85-5.87,1.47,2,1.61,10.37,1.58,10.23.25.99.93,1.77.17,3.49Z"/><path d="M28.54,183.12c.06,1.05-.63,1.3-.65.13-.94-.62-.93-1.54-1.36-2.28-1.05-1.82-2.42-3.35-3.21-5.5-.04-1.11.67-1.24.65-.06,1.76,2.51,3.35,4.86,4.57,7.72Z"/><path d="M53.77,62.06c.21-1.78.61-3.6,1.28-5.4l2.1-5.57c1.24,1.4-.96,3.11-1.11,5.95l-2.28,5.02Z"/><path d="M91.75,92.54c-2.97,1.71-8.5,4.12-11.6,3.2,5.29-1.29,5.49-.69,10.87-3.72.72-.09,1.51.3.73.53Z"/><path d="M211.41,83.64c.48.64,1.04,1.13.49,2.22-1.08-.51-5.24-9.58-4.22-10.94,1.29,2.94,1.73,6.03,3.74,8.71Z"/><path d="M160.06,409.75c-.37.59-.76.67-.97.02l3.55-6.85c.62-1.2.63-2.5,1.6-3.5.16,2.36-1.07,4.04-2.01,5.95l-2.17,4.39Z"/><path d="M39.42,199.86c1.33,2.23,4.1,4.81,5.11,7.55-1.75-.57-1.97-2.21-2.96-3.42-2.1-2.58-6.58-9.27-7.48-12.5,1.39.41,1.34,1.7,1.94,2.69l3.39,5.68Z"/><path d="M245.5,227.99c-.9-3.93,2.01,12.51-.11,8.24-.89-2.72.05-5.09-.46-7.7-.24-1.25-1-2.51-.11-3.55l.69,3.01Z"/><path d="M163,112.57c-.88.91-1.36.03-.61-.75.87-3.6,1.57-6.94,2.8-10.15.85,2.17-1.99,7.54-2.19,10.9Z"/><path d="M105.84,106.92c.12-3.22,1.61-5.68,2.09-8.71.43-1.07-.27-2.17.42-3.36,1.25.88-1.27,11.17-2.51,12.08Z"/><path d="M106.15,93.71c.88.75-1.8,10.88-2.61,10.93.09-2.6,1.18-4.57,1.54-7.02.21-1.45.09-2.8,1.07-3.91Z"/><path d="M242.01,179.71l-3.29,6.92c-.34.69-.61-.08-.56-.78l7.67-15.15c.38-.75,1.06-1.21,1.25-2,.74,1.53-.47,2.3-1.03,3.37l-2.94,5.58c-.34.65-.66,1.2-1.08,2.08Z"/><path d="M171.4,123.86c-.93.11.82-7.77.87-7.94.33-1.14-.47-2.28.35-3.44.77,1.23-.25,9.45-1.21,11.38Z"/><path d="M223.76,333.3c1.2.11-4.67,7.58-5.33,7.82-.29.52-.56.5-.93-.29,1.36-.72,1.89-2.07,2.68-3.06l3.58-4.47Z"/><path d="M42.47,199.41c1.3,3.15,3.89,5.31,4.61,8.78-2.02-1.1-1.7-3.21-2.9-4.54-.92-1.03-1.76-2.08-2.27-3.53-.78-.73-.24-1.62.57-.7Z"/><path d="M158.37,230.77c-.49-4.47-.47-8.93-.02-13.74.49,4.47.47,8.93.02,13.74Z"/><path d="M155.62,51.07c.11,5.11,1.29,7.55,1.75,12.09-1.09-.37-3.05-11.87-1.75-12.09Z"/><path d="M261.05,156.18c.33,1.32,1.09,6.16-.04,6.44.09-5.32-1.29-6.21-.41-12.08.9,1.76-.04,3.65.45,5.64Z"/><path d="M147.18,14.31c-2.27-.48-4.42.4-6.76-.41,6.12-.69,3.65-1.2,10.32.5-1.05.93-2.29.18-3.55-.09Z"/><path d="M20.43,180.64c-2.31-1.78-3.5-4.67-5.15-7.39.08-1.15.66-1.3.84-.23l4.31,7.62Z"/><path d="M168.51,64.19c-.34-1.84-2.84-8.25-1.59-10.24l1.15,5.97c.25,1.29,1.4,2.27.44,4.28Z"/><path d="M172.27,403.16c-.42.67-.57-.07-.72-.83,1.32-3.01,1.69-6.13,3.42-9.09.02,3.36-2.12,6.13-2.71,9.93Z"/><path d="M140.72,128.37l-.66-4.06c-.21-1.27-.55-2.52-.84-3.91.03-1.12.56-1.36.79-.19.71,2.25,1.54,6.14.71,8.16Z"/><path d="M224.18,105.97c-.13.94-.73,1.06-.71.35-.65-3.04-2.24-5.48-2.19-8.67,1.57,2.44,1.85,5.16,2.9,8.32Z"/><path d="M56.65,211.64c.92,2.31,2.15,6.03,3.34,8.64.63,1.39,2.34,2.49,1.7,4.41-3.6-6.46-6.58-13.18-7.65-20.74,1.43,2.38,1.56,5.04,2.61,7.69Z"/><path d="M87.3,235.78c-1.86-4.42-.99-8-1.87-11.91-.37-1.62-.14-3.4.11-5.12.93,1.56-.05,3.34.4,5.14s.63,3.32.53,5.16c-.12,2.21,1.46,3.93.83,6.74Z"/><path d="M69.57,78.03c-2.58,5.04-1.44,5.58-2.11,10.68-1.81-5.29-.18-4.53.05-6.51.32-2.72,1.06-5.29,2.87-7.38.37-.43.63-.44.98.27-1.22.75-1.26,1.9-1.79,2.94Z"/><path d="M12.43,97.07c1.98-.74-6.76,7.01-6.21,5.04,1.51-1.63,3.54-3.36,6.21-5.04Z"/><path d="M203.95,340.85l-.61,3.6c-.75-.93-.34-2.1-.2-3.28.83-2.28.9-4.47,1.92-6.53.43,2.31-.77,4.1-1.12,6.21Z"/><path d="M256.32,138.59c.79.06-2.49,8.83-3.49,7.42,1.55-2.98,1.99-5.29,3.49-7.42Z"/><path d="M74.74,202.84c.88,4.92.94,4.37.02,9.74-.41-3.15-.39-6.26-.02-9.74Z"/><path d="M161.31,70.45c-2.15-1.62-3.82-3.77-3.71-6.89,1.02,1.45,1.5,2.88,2.37,4.45.3.81,1.7.85,1.34,2.44Z"/><path d="M216.79,66.21c-.09,1.44-.71,1.78-.78.5-.21-3.01-1.91-5.31-1.49-8.27,1.13,2.32,1.25,4.88,2.28,7.77Z"/><path d="M225.66,289.81c-1.34-.57-1.56-1.94-1.66-3.38-.32-1.56-1.02-2.92-.3-4.63l.92,3.48c-.22,1.58.83,2.45,1.04,4.52Z"/><path d="M205.31,112.79c-3.48,1.36-4.58,1.11-8.61,0,1.4-.9,2.93.13,4.58.24,1.31.09,2.52-1.21,4.02-.25Z"/><path d="M209.05,141.53c-1.65.69,2.19-9.28,2.37-8.65-.1,3.33-1.93,5.76-2.37,8.65Z"/><path d="M103.98,94.56l-.69,3.25c-.91-1.07.07-2.27.11-3.56l.17-6.11c.69-.26,1.42.1.66.66-.49,1.85.19,3.68-.26,5.77Z"/><path d="M216.74,348.86c-1.58.6,3.72-8.26,3.86-7.35-.05,1.17-.66,1.97-1.18,2.84l-2.68,4.51Z"/><path d="M108.35,52.33c-.5-3.53-.47-7.05-.02-10.9.5,3.53.47,7.05.02,10.9Z"/><path d="M227.73,278.41c-.72-1.35-.11-2.54-.29-3.95-.58-1.98-1.04-3.93-.25-5.74.46,1.9-.02,3.51.91,5.17-.34,1.62.25,2.95-.37,4.52Z"/><path d="M168.61,51.08c-.77-1.89,0-3.61-.38-5.53-.47-1.43-.91-2.89-.17-4.13.49,1.33.05,2.44.83,3.56-.16,2.12.31,4-.28,6.1Z"/><path d="M205.53,129.06c-1.06-.12,1.59-6.25,2.08-7.11.3-.69.63.07.51.73l-2.58,6.38Z"/><path d="M174.84,87.57l-1.81-5.38c-.29-.88-1.23-1.5-.52-2.69.37.41,3.55,7.31,2.32,8.06Z"/><path d="M201.87,40.42c-3.34-.45-3.97-1.57-8.02-2.08-.9-1.22,9.5,1.13,8.02,2.08Z"/><path d="M67.02,12.48c-1.34,2.06-2.99,3.62-5.11,5.16,1.02-2.27,2.64-3.92,5.11-5.16Z"/><path d="M162.92,144.97c-.5-3.15-.47-6.3-.02-9.77.5,3.15.47,6.3.02,9.77Z"/><path d="M54.23,55.21c-.22-2.89.72-5.28,1.97-7.58-.01,2.92-1.09,5.12-1.97,7.58Z"/><path d="M166.71,89.07c.01,1.27-.63,1.67-.71.42-1.13-3.99-.63-7.07-2.9-10.5.03-.73.25-1.48.59-.8.76.91,2.32,6.97,2.32,7.05,0,1.24-.05,2.39.69,3.83Z"/><path d="M101.49,296.64c-.61-1.71-.67-4.46-.85-6.27-.27-2.77-2.43-9.84-1.32-10.25.63,3.13,2.05,9.35,1.97,12-.04,1.36,1.18,2.46.2,4.52Z"/><path d="M54.72,127.49c-1.67,2.03-2.28,4.06-4.06,5.59.25-2.59,2.37-3.78,3.19-6.03.48-.44.79-.37.86.43Z"/><path d="M69.44,256.96c-2.3-.97-3.87-2.67-5.21-5.06,2.09,1.19,3.62,2.98,5.21,5.06Z"/><path d="M226.01,283.06c-.5-2.96-.47-5.92-.02-9.2.5,2.96.47,5.92.02,9.2Z"/><path d="M77.66,220.55c-.5-2.96-.47-5.92-.02-9.2.5,2.96.47,5.92.02,9.2Z"/><path d="M139.04,187.59c-.5-2.96-.47-5.92-.02-9.2.5,2.96.47,5.92.02,9.2Z"/><path d="M55.98,124.87c-1.24.4,1.76-4.34,2.14-5.77.33-.68.57.07.56.81-1.41,1.86-1.25,4.47-2.69,4.96Z"/><path d="M56.07,117.69c-.76-.1.63-5.88.89-7.15.38-.62.54.13.61.84-.58,2.28-.75,4.35-1.51,6.3Z"/><path d="M212.03,291.73c-1.25.45-2.2.78-3.41.94-1.54-.51,6.99-3.27,6.35-2.01l-2.94,1.07Z"/><path d="M65.88,80.76c-.58-.52-.78-1.56-.75-2.18.46-1.33,1.18-2.49,1.84-3.75.29-.51.72-.38.91.19-1.36,1.78-2.03,3.44-2,5.74Z"/><path d="M202.46,116.81c-2.19.69-5.22.2-8.06-.53,1.06-.83,2.29-.21,3.56.14,1.5.42,2.93-.38,4.51.39Z"/><path d="M251.7,215.33c-.85-.67-.27-1.44-.37-2.24-.56-1.81-1.05-3.55-.31-5.16.54,1.31.09,2.44.82,3.55-.03,1.37.2,2.47-.14,3.85Z"/><path d="M256.65,122.13c-.54-1.62-.89-3.38-2.07-5.16.08-1.16.69-1.28.77-.15.8,1.67,2.31,2.84,1.3,5.31Z"/><path d="M199.35,342.17c-1.17.66.97-8.56,1.29-7.54.05,2.88-.91,5.07-1.29,7.54Z"/><path d="M69.84,108.58c-.62-2.41,5.28,7.4,3.39,5.77-1.5-1.76-2.6-3.5-3.39-5.77Z"/><path d="M229.19,232.1c-.85,1.88-.64,3.58-1.69,4.96-.04-3.14,1.23-5.65,1.6-8.64.21-1.72-.35-3.34.31-5.14.9,2.56-.12,5.68-.22,8.82Z"/><path d="M81.02,263.6c.72,2.56,4.18,10.46,3.5,13.23l-2.25-7.82c-.51-1.78-1.99-3.31-1.25-5.41Z"/><path d="M253.62,104.99c-1.9-1.01-3.23-2.61-4.64-4.47,2.11.76,3.5,2.28,4.64,4.47Z"/><path d="M128.25,97.23c-.5-2.77-.47-5.54-.02-8.64.5,2.77.47,5.54.02,8.64Z"/><path d="M74.25,267.09c.3-.15,3.81,6.27,2.3,5.74l-2.26-4.41c-.29-.56-.62-1-.04-1.33Z"/><path d="M21.72,73.01c-2.58.5-5.17.47-8.07.03,2.58-.5,5.17-.47,8.07-.03Z"/><path d="M162.99,68.76c.39.7.2,1.36-.51.87l-2.23-4.37c.02-1.13.66-1.32.71-.17l2.03,3.66Z"/><path d="M104.34,296.03l-.49-3.72c-.37-1.29-.71-2.61,0-3.69.46,1.34.07,2.43.79,3.56-.12,1.34.38,2.52-.3,3.85Z"/><path d="M155.12,64.11c-1.21-1.63-2.11-3.78-1.31-6.22.35,1.95,1.18,3.54,1.31,6.22Z"/><path d="M102.94,80.24c-2.01-.66-3.3-1.96-4.63-3.33-1.66-2.42,6.5,4.11,4.63,3.33Z"/><path d="M171.28,264.75c-1.76,1.02,3.57-5.32,3.11-4.52,1.59-.6-2.82,5.01-3.11,4.52Z"/><path d="M89.6,293.86c-.51-2.39-.48-4.79-.03-7.5.51,2.39.48,4.79.03,7.5Z"/><path d="M95.28,299.54c-.51-2.39-.48-4.8-.02-7.5.52,2.39.45,4.8.02,7.5Z"/><path d="M51.88,212.08c-.02,1.13-.66,1.27-.74.15-.66-1.5-2.03-2.52-1.44-4.32l2.19,4.17Z"/><path d="M95.28,307.5c-.51-2.2-.48-4.42-.03-6.93.51,2.2.48,4.42.03,6.93Z"/><path d="M257.26,136.43c-.49-.81-.31-1.53-.17-2.2l.72-3.58c.84,1.94.14,3.91-.55,5.79Z"/><path d="M131.57,86.02l-.5,3.83c-.7-2.15-.24-4.31.58-6.36.63.96.22,1.74-.07,2.53Z"/><path d="M93.98,330.55c-.03,1.34-.68,1.69-.74.42-.32-1.79-1.65-3.03-.86-4.86l1.59,4.44Z"/><path d="M78.13,228.41c-.44-1.12,0-2.02-.6-3.02-.16-1.18-.54-2.34.18-3.27.42,1.35.08,2.42.76,3.56-.09.94.45,1.82-.34,2.72Z"/><path d="M223.93,252.45c.47-2.39,4.21,4.91,2.65,4.46-.78-1.57-1.32-3.14-2.65-4.46Z"/><path d="M200.42,159.73c-.5-.81-.31-1.53-.18-2.2l.73-3.58c.79,1.95.14,3.92-.55,5.79Z"/><path d="M135.9,97.68c.7-.35,3.66,2.38,4.59,2.77.03,1.48-5.18-2.39-4.59-2.77Z"/><path d="M149.6,104.26c-2.2.51-4.42.48-6.93.03,2.2-.51,4.42-.48,6.93-.03Z"/><path d="M253.46,90.94c.37-.79,4.41,4.95,2.6,4-1.09-1.42-2.15-2.32-2.6-4Z"/><path d="M138.24,313.39c-2.01.51-4.05.48-6.37.03,2.01-.51,4.05-.48,6.37-.03Z"/><path d="M54.96,132.38c-1.13,1.07-1.23,2.46-2.67,2.89.24-1.61,1.43-2.37,2.24-3.75.66-.5,1,.35.42.86Z"/><path d="M59.64,242.1c.37-.79,4.41,4.95,2.6,4-1.09-1.42-2.15-2.32-2.6-4Z"/><path d="M169.4,120.17c-.39.65-.56-.1-.64-.83.81-1.48.52-2.91.91-4.62.89,1.64.2,3.29-.27,5.45Z"/><path d="M243.33,182.82c.04.83-.42.88-.69.23,1.09-3,2.23-6.53,3.39-8.68.45,1.96-.86,3.21-1.33,4.85-.34,1.17-.36,2.36-1.37,3.59Z"/><path d="M207.75,129.54c-.75-1.6.28-2.64.93-3.93.93-1.83.88-4.06,2.89-5.2l-2.94,6.89c-.3.7-.47,1.4-.89,2.24Z"/><path d="M252.2,148.33c-.84,1.12-.75,2.43-2.06,2.88.1-1.52,1.04-2.4,1.6-3.78.71-.49,1,.3.46.9Z"/><path d="M207.55,148.53c.02,1.18-.67,1.06-.67-.12.12-1.29.44-2.29.91-3.54.7,1.03.24,2.29-.24,3.65Z"/><path d="M98.36,70.63l2.57,2.42c-1.46.24-2.26-.98-3.41-1.99-.58-.53.35-.91.85-.43Z"/><path d="M54.94,136.33c2.41-.67-3.01,4.21-2.65,3.49.23-1.87,1.85-2.27,2.65-3.49Z"/><path d="M224.9,313.09c-.59-1.37-1.69-2.62-1.29-4.6.58,1.36,1.69,2.31,1.29,4.6Z"/><path d="M55.23,45.42c-.21,1.02-.73.43-.69-.53.74-1.04,1.11-2.08,1.47-3.45.93,1.17.02,2.41-.77,3.99Z"/><path d="M128.95,308c1.37-.14,1.61.54.28.69-1.64-.35-2.95-.55-4.18-.95,1.31-.78,2.42-.08,3.89.26Z"/><path d="M190.58,305.24c-.34-1.62.38-2.71,1.49-3.55.34,1.61-.38,2.71-1.49,3.55Z"/><path d="M147.82,20.8c-1.55.56-3.16.32-4.62-.75,1.62-.46,2.54.23,4.62.75Z"/><path d="M147.77,108.99c-1.62.33-2.79-.39-4.53-.71,1.44-.61,3.06-.61,4.53.71Z"/></g></g></svg>