<?xml version="1.0" encoding="UTF-8"?><svg id="Layer_2" xmlns="http://www.w3.org/2000/svg" viewBox="0 0 262.66 654.95"><g id="OpenNoTape"><g id="RhFahC.tif"><path d="M225.79,477.14c8.08,16.54,4.42,19.64,2.52,33.45-1.43,10.42-2.55,20.58-1.68,31.17l5.14,62.08c.78,9.39,2.03,18.12,4.22,27.22-4.05,3.67-8.34,5.65-12.88,8.02-19.48,10.19-36.45,14.72-58.74,15.65-23.67.99-46.69-1.46-69.33-7.97-9.28-2.67-17.76-5.7-26-10.68-.9-.55-1.05-1.91-.93-2.99,1.02-9,1.96-17.49,1.95-26.56l-.03-44.71-.43-17.55c-.39-15.98-3.42-31.09-8.99-46.05-2.03-5.46-3.79-10.91-3.43-16.86.69-11.4.04-22.94-4.97-33.28-5.98-12.35-18.49-23.98-22.33-36.9-4.5-15.16-6.22-26.9-11.85-42.34l-8.57-23.49c-3.81-10.44-12.08-22.78-8.66-36.67,2.43-9.86,4.09-19.46,6-29.4,2.09-10.9,2.65-21.54,3.29-32.63.73-12.6,5.79-19.26,15.13-26.8,2.9-2.34,5.83-4.39,8.15-7.35l1.41-37.2c.34-8.98.45-17.47.09-26.29-.28-6.86,1.31-13.3,2.63-19.91l3.36-16.79,2.48-15.61c1.25-7.88,1.3-28.28,2.47-39.79,1.31-12.8,3.67-24.99,7.65-37.22,1.95-5.98,4.96-11.72,9.9-15.78,2.66-2.18,6.51-3.22,9.94-3.7,8.42-1.18,16.67,3.19,21.06,10.34,5.2,8.47,7.41,17.73,7.69,27.7.36,12.64.68,24.81-1.1,37.3-2.19,15.35-3.43,30.25-3.47,45.84-.01,5.93-.5,11.48-.19,17.38.49,9.48-1.45,18.76-.3,31.98.56,6.5.67,12.5.6,19.15l6.93-3.47c5.43-12.25,3.84-30.72,12.62-39.89l7.63-7.97c4.67-4.88,10.61-6.47,17.1-5.03,9.54,2.11,17.41,1.86,23.63,8.62,4.6,5.01,9.44,14.04,11.52,20.71,4.21-2.59,8.24-2.92,12.52-1.94,8.53,1.95,15.91,2.88,21.85,9.4,4.51,4.95,8.05,10.72,10.18,17.12.66,1.97.24,4.04.65,6.12.58,2.91,3.48-1.97,9.74-.84,4.61.84,8.92,2.21,13.29,3.7,3.66,1.25,6.14,3.7,8.16,6.94,3.93,6.31,10.72,19.32,8.91,26.75-2.01,8.25-3.06,16.15-3.28,24.52s-1.3,15.77-.49,23.87l3.05,30.21c1.65,16.34-3.33,22.2-4.99,34.6l-2.7,20.16c-2.76,20.62-8.75,41.65-19.34,59.47-11.13,18.74-9.51,31.82-8.84,54.19ZM249.17,363.52l2.77-20.26,1.43-6.79c.64-3.04,2.41-5.69,3.11-8.75,2.53-10.99,1.74-29.8-.79-40.8.09-1.11-.67-1.37-.9-.29-1.58,7.05-2.51,7.48-3.88,14.5-.09.44-.88,1.26-1.16,1.12-.78-.39,1.47-7.02.69-5.23,1.68-3.85,3.43-21.5,3.83-26.74l1.68-21.85.99-19.26c1.6,1.41-.39,3.27,1.54,4.12,1.62-6.87-.18-12.79-2.93-18.49-3.92-8.13-5.59-12.86-13.86-15.42-5.77-1.79-13.79-4.94-18.75-.22-1.78,1.7-2.05,4.23-2.81,6.41-2.87,8.22-3.83,8.02-3.34,16.13.14,2.31.66,3.63-.35,5.86-2.01,4.43-1.83,9.22-2.87,14.33,1.75.13.6-1.22,1.45-2.64,2.57,2.31-4.39,8.69-4.53,16.22-.07,3.95-2.12.67-1.91,8.47.04,1.5,1.38,2.62,1.73,4.15.43.82-.14.63-1.32.86,1.18,6.21-3.45,5.58,2.12,15.07-.22,1.03-.77,1.03-1.24.27-4.68-5.95-1.77-7.1-4.59-11.73-.28,1.54-.27,3.18-.09,5.28.63,1.67-.29,1.89-1.24.58-1.52-5.2-1.1-10.53.04-15.77,2.43-11.22,5.15-21.99,6.89-33.47.33-2.2-2.22-4.59-.33-6.41.79.87.41,1.8.29,2.86.29,1.23.85,1.18,1.13,0,.94-11.53,1.68-12.92,1.36-24.77-.03-1.25-.26-2.58,1.17-2.78.57,4.09-.58,7.55.55,11.13l.82-11.99c1.22,2.03.34,3.7.54,5.62-.07,1.04.79.89,1.03-.01.43-7.1,2.22-.28,1.49-8.87-.53-6.31-3.46-11.13-6.82-16.18s-7.55-9.4-14-10.93c-5.15-1.22-14.24-4.92-19.76.46.58-.57-6.99,7.75-6.3,6.93-.19.23.14.7.65,1.04.86.35.89.79-.17.91-7.57,6.42-1.87,7.6-5.36,11.17-2.43,2.49-1.29,5.35-1.77,7.95-1.01,5.51-2.74,10.6-3.32,16.34-.33,3.3-.94,6.58-1.74,9.81l-3.95,16.05c-3.04,12.35-3.94,4.6-2.11,21.05-.02.93-.76.93-1.02,0,.36-2.69-.89-5.49-1.22-8.79-2.18-.39-.14.31-2.11-1.36-.43,2.29-.53,4.21-1.78,6.39-1.28-1.56,4.18-20.06,5.08-22.37,2.54-6.46,4.42-16.98,5.6-24.2,1.16-7.09,2.6-13.81,4.13-20.78.91-4.17,2.41-8.05,2.83-12.32s-.38-8.66.9-12.73c.81,3.83.33,7.35.57,11.31-.6,1.77.85,1.86.9.05.48-1.98.64-3.52.8-5.8,1.22.07.95.85.54,2.06.08.84.96.68,1.24.41,1.55-1.49.63-2.75,1.36-3.74.1-.13,3.95,1.16-.92-8.1-2.6-4.94-8.76-15.16-13.79-17.3-3.06-1.3-20.01-5.03-23.16-4.27-6.04,1.45-17.13,15.18-17.82,17.84l-2.35,9.05c.23,1.74,1.04,1.39,1.28-.18,2.18-2.98.6-2.46,3.93-5.48.55-.96,1.04-.93.58.07-7.27,10.74-8.21,18.77-11.17,30.72l-6.19,24.96-3.51,11.87c-2.16,7.32-5,15.44-10.16,21.01-.54.59-1.03.33-1.11.01-.27-1.06,3.12-5.27,3.23-8.59-2.12,3.8-10.65,11.15-15.27,11.89.18-2.97,14.01-6.38,7.09-9.04-1.02-.49-.57-.92.55-.98,4.76-1.57,11.72-12.01,11.26-16.17-1.29-8.17-2.57-15.65-1.81-24.11,1.14-12.6-.32-25.68.5-38.43-.42-.97-.88-.89-1.14.14-.25,1.11-.88.91-1-.09.81-8.34,2.49-16.66,1.07-24.9-.47-2.74.68-4.58.81-7.09.64-12.71.95-25.06,2.26-37.71l1.66-15.97c.26-2.54,1.41-4.87,1.54-7.5.65-13.25.48-26.12-.73-39.32-1.21-13.16-7.46-27.33-22.95-26.36-3.98.25-8.06.92-10.99,4.02-.78,1.17-.13,1.11.88.28,6.01-2.94,11.77-4.19,17.61-.82-4.32.33-7.58-1.51-11.65-.11-2.84.97-8.26,3.31-9.21,6.65-2.48,8.67-1.83,17.54-2.22,26.41,1.92,1.82,3.01,3.81,4.86,5.09,5.92,4.13,18.5,5.49,22.43-1.69,2.3-4.2,4.3-23.61,3.86-30.03,1.82,1.79,1.89,4.18,1.75,6.58l-.86,15.62c-.33,6.06-3.45,11.38-9.13,13.37-10.3,3.6-23.11-2.04-24.37-9.93-1.7-10.65,1.5-12.61.47-22.02-2.04,2.18-1.7,4.95-2.56,7.64-1.9,5.98-4.05,17.05-5.03,23.5l-2.16,14.19c-1.87,12.28,1.31,28.71-3.05,48.08l-2.12,9.38c1.11,1.21,1.7.13,1.25-1.35.26-.93.86-.78,1.37.23-.08.84.06,1.47.38,2.12-1.46.8-1.34,2.36-1.9,3.82-.83,2.15-5.04,8.07-2.73,8.31.56.06.99-.07,1.13.16.29.49-.41.74-.75,1.21-3.98,5.63-2.51,10.92-3.09,15.41s.22,8.58,1.86,12.35c-.95-.08-1.76-.09-1.45.85-.09,10.24-.49,12.83.49,23.56l-1.45-3.07-.06,6.54c-.07,7.75,0,15.1-.85,22.82l-.91,8.25c-.96,8.74-2.78,16.84-4.78,25.31-2.86,12.12-4.29,15.37-3.75,28.58l.92,22.83c.23,5.61-2.14,20.85-4.11,26.65-1.39,4.11-1.63,8.18-3.69,11.85-1.05-7.44,2.09-10.25.12-16.14,2.01-4.19,2.55-8.27,2.56-12.66,0-2.24,1.01-10.53.59-13.16-.6-3.79.08-7.25-.62-12.32-.65-4.71-.36-9.5-.39-14.37-.13-16.46,7.59-29.44,9.03-46.58-4.94,2.86-15.29,12.07-15.74,17.28-.14,1.6-.22,2.4-1.07,3.72-2.05,3.19-1.1,7.17-1.41,10.77-.54,6.14-1.06,12.02-1.96,18.07l-2.61,17.68c-.38,2.59-1.47,4.78.62,7.42-.72,1.03-1.1.95-1.27-.16-.36-.95-1.09-.9-.73.08-.3,2.54-1.42,4.59-1.79,6.97l-1.2,7.68c-.69,4.41-1.36,8.53.14,12.83,1.03,2.96,1.52,6.11,2.85,8.98,4.62,9.95,8.36,19.78,11.96,30.13,1.51,4.35,3.21,8.34,4.43,12.79l6.1,22.25c2.01,7.31,4.09,14.31,7.37,21.12,4.72,9.82,15.94,21.2,20.81,34.9,4.06,11.4,2.42,26.14,3.59,31.42,3.39,15.36,7.66,23.9,9.67,41.26,3,25.85,3.09,65.21.76,91.26l-1.56,17.43c4.9,2.64,9.82,5.18,15.28,6.93,24.11,7.74,39.03,10.59,64.8,11.4,20.76.65,51.14-6.08,69.6-15.37,3.84-1.94,7.84-3.49,10.98-6.41,1.46-1.35.19-3.33-.15-4.93-2.65-12.61-4.87-24.83-5.99-37.68l-3.79-43.62c-.63-7.29.21-14,.39-21.89-3.03,5.91-2.35,12.33-3.61,19.45-2.33-.1,1.08-16.55,1.57-18.05,2.05-6.3.12-5.04,2.76-14.4,1.15-4.08,2.53-8.08,2.41-12.52-.39-14.61-7.09-18.1-8.68-31.2,2.89,1.41,2.05,4.44,3.8,6.65l.39-13.85.77-11.88c.35-5.42-1.22-8.05.54-9.42,1.89-1.47,1.31-4.07,2.23-5.63,3.23-5.5,6.62-10.63,9.42-16.57l4.99-10.58c4.96-10.52,8.39-29.02,10.01-40.89ZM100.77,203.64c1.24-4.21,1.91-7.92,2.56-11.46-2.65.93-4.23,2.12-6.4,3.53.01,7.45-.73,14.54.13,21.73l3.71-13.8Z"/><path d="M236.54,307.77l-1.33-5.56c-2.19,4.55,3.63,8.61.4,16.53-2.58,6.33,2.17,3.31-5.38,13.88-3.4,4.76-7.12,7.29-9.47,11.2-4.13,6.87-5.08,8.93-7.45,14.19.59.13,1.17.3,1.73.51,2.01-4.13,4.04-8.2,6.3-12.28,4.39-7.92,8.79-9.21,12.67-16.42,3.67-6.82,4.35-14.46,2.53-22.05Z"/><path d="M59.25,343.46c-1.56,1.21-3.34-8.34-4.13-11.36-2.34-8.93-5.69-21.28-11.02-28.49l-4.66-6.31c-2.18-2.95-3.48-6.04-4.79-9.47-2.57-6.71-1.17-20.11,2.36-25.84.57,5.03-.74,3.1-1.52,11.9-.92,10.34,2.92,19.02,9.16,26.77,7.73,9.59,11.73,30.4,14.6,42.79Z"/><path d="M106.39,365.24c-1.17-2.76-.28-5.26-.4-8.15-1.41-2.64-.79-5.36-1.14-8.17-.31-2.48-1.28-4.68-.83-7.34.4-2.35-.31-4.34-.66-6.58l-.74-4.76c-.83-5.38-1.64-10.52-3.59-15.66.05.14-3.57-14.07-1.94-14.19,1.58,4.1,6.84,24.51,6.89,28.35.03,2.12.16,3.76.76,5.71.8,2.59-.28,5.33.27,8.04,1.97,9.68-.42,6.94,1.76,12.92-.19,3.42.49,6.43-.39,9.82Z"/><path d="M176.29,322.72c.28-.02.56-.05.85-.05.71-1.53,1.33-3.09,1.86-4.71-.92,1.47-1.83,3.02-2.71,4.76Z"/><path d="M186.46,307.01c.65-1.89.9-3.58.43-4.86-.59,2.15-1.28,4.01-2.02,5.69.51-.33,1.05-.6,1.6-.84Z"/><path d="M95.53,309.56c-1.61-2.16-2.16-4.75-3-7.61-3.03-10.27-5.94-17.77-1.01-27.83,1.32-2.69,1.72-5.66,3.98-7.58,1.07,1.87-.28,3.01-.93,4.35-3.38,6.98-3.71,14.58-2.08,22.06l1.7,7.81c.58,2.68,1.59,4.98,1.34,8.79Z"/><path d="M77.67,617.19l-.19,6.7c-.08,2.85-.74,5.26-1.18,8.36-2.09-3.3,1.06-10.54.31-13.79-.56-2.4.7-4.42.73-6.59l.47-37.36c.41-5.02,1.22,20.89,1.56,12.88-.18,4.32.4,8.49-.17,12.77-.41,3.08-1.12,5.88-.75,9.17.29,2.6-.69,5-.77,7.87Z"/><path d="M130.17,283.95c-.17,2.77-4.36,15.95-7.44,15.39,9.35-15.63,4.61-20.5,1.96-35.06-.3-1.62-1.25-3.2-.05-4.99,1.19,3.57,1.32,7.55,2.97,11.26,1.9,4.25,2.86,8.54,2.57,13.4Z"/><path d="M75.41,524.52c.84,5.15,4.05,21.68,2.53,25.44l-1.14-8.33-.77-5.63c-.64-4.7-2.91-14.93-3.11-18.07-.34-5.11-2.41-9.49-2.47-14.76,2.09,3.37,2.66,7.12,3.32,11.18l.76,4.69.89,5.48Z"/><path d="M212.45,537.23c-1.99-4.84.8-12.78,2.68-17.85l2.71-7.32c5.36-14.49,2.02-12.2,3.84-17.06.36-.97-1.57-2.25-.31-3.64,2.98,1.97.42,13.47-.6,16.22l-3.21,8.65c-1.45,3.91-2.79,7.73-3.81,11.77-.81,3.12-.86,5.88-1.3,9.24Z"/><path d="M198.47,624.71c-.57-8.22-.67-18.01.8-27.31l.98-6.22c.98-6.2.24-5.04,1.43-9.44.73-2.71-.67-5.32.67-8.15,2.24,4.72-2.94,25.87-2.34,28.44.4,1.71-.53,3.16-.75,4.68-.85,5.81.76,11.25-.79,18Z"/><path d="M120.6,328.45c-.61,10.9.66,20.9-.63,31.48-.77-11.7-.41-23.43-.22-35.52.03-2.11,1.18-4.26,1.06-6.66,1.83.11-.28,12-.21,10.7Z"/><path d="M31.5,295.98c-1.41-2.54.03-5.26-.71-8.16-1.02-3.99-2.22-16.63-1.44-20.91l1.06-5.82c.8,1.79.86,4.2.28,6.3-2.17,7.88.94,5.71.16,12.95-.23,2.14,2.11,10.2.64,15.64Z"/><path d="M79.25,498.5c.4,1.25,0,2.57-.75,1.64-.2-2.3-1.78-3.02-2.39-4.52l-2.11-5.21c-2.29-5.65-3.76-15.44-2.52-21.9,1.6,5.69-.62,6.48,1.91,15.26l1.84,6.39c.82,2.86,2.69,5.19,4.03,8.34Z"/><path d="M214.48,566.2c-1.21.22-.75-1.37-.8-2.42-1.51-2.89-.29-5.63-.18-8.56l.35-9.85c.09-2.52.62-4.77.97-7.31l.99-7.14,1.93-8.49c1.68,3.15-3.15,14.35-2.16,19.28.42,2.08-.72,3.78-.75,5.63l-.34,18.87Z"/><path d="M84.39,559.92l-1.36-4.67c.34-2-.36-3.65-.67-5.52l-1.03-6.24c-.37-2.23-.24-4.27-1.04-6.43-.28-3.12-1.9-5.88-.42-9.17l2.38,13.76c.72,4.19,1.38,8.47,1.72,12.69.71,1.88,1.57,3.53.42,5.58Z"/><path d="M224.99,608.29c-.45-5.69-1.11-7.91-1.95-13.62l-.95-6.4c-.35-2.35-2.06-12.11-.47-11.96.26,3.11.67,5.5,1.06,8.37l.77,5.63c.5,3.62,3.3,16.09,1.54,17.97Z"/><path d="M39.63,220.05c-1.43-2.91-.02-5.87.28-9.12.76-8.35-.68-16.33.68-24.75.76,8.97,1.86,18.22.22,27.32l-1.18,6.55Z"/><path d="M182.87,306.08c-.87-2.75,1.26-4.28,1.47-6.64.9-10.4-1.93-12.08-2.55-21.94,2.02,1.89,1.14,4.78,2.14,7.05,2.19,4.97,2.45,17.47-1.06,21.53Z"/><path d="M160.65,411.68c-.02,1.08.72,1.59,1.06.25.4-.48.76-1.27,1.08-2.28-.7.7-1.41,1.38-2.14,2.04Z"/><path d="M193.39,626.73c-.69-6.29-2.54-13.13-.85-17.61.86-2.28-.91-4.82.85-7.19v24.8Z"/><path d="M90.8,214.64c-.79-10.21-.76-20.41-.02-31.2.79,10.21.76,20.41.02,31.2Z"/><path d="M223.81,349.41c-1.43,1.56-1.65,3.66-3.99,3.96,1.57-3.19,3.6-5.57,5.53-8.37l5.6-8.11c2.95-4.27,5.12-7.54,6.99-11.85,1.09,1.73.08,3.14-.75,4.4l-10.52,15.98c-.84,1.28-2.13,2.18-2.86,4Z"/><path d="M149.84,294.09c-.82,8.16,1.03,8.85.33,13.78-.33-1.36-1.3-2.91-1.29-4.66.07-10.87-1.26-9.58,3.04-20.16,1.84.28-1.6,6.19-2.08,11.04Z"/><path d="M253.41,263.77c-.63-8.78-.75-17.75.05-27.34.7,8.69.87,17.3-.05,27.34Z"/><path d="M165.76,419.29c-.78,1.59-.42,3.29-2.41,3.62,3.08-9.53,7.7-18.48,15.59-24.78.56-.45,1.46,1.32,1.02,1.53l-1.53.72c-4.61,2.16-6.91,7.24-9.2,11.87l-3.48,7.05Z"/><path d="M81.67,623.99c-.79-9-.76-17.99-.02-27.55.79,9,.76,17.99.02,27.55Z"/><path d="M89.24,228.2c-3.37-1.28-6.89-16.63-4.83-19.21,1,2.74-.2,5.22,1.36,7.54-.48,4.28,2.54,6.91,3.47,11.66Z"/><path d="M51.73,94.07c-.54-.41-1.77-13.29-1.22-14.38.64-1.26-.1-2.74,1.21-4.04.36,5.98.38,11.84,0,18.42Z"/><path d="M198.16,566.36c-.6-7.45-.98,17.93-1.44,13.79-1.29-7.71.27-12.85.82-21.2,1.34,2.27.4,4.71.62,7.41Z"/><path d="M88.93,219.24c-2.58-8.19-2.7-21.53-1.88-31.23,1.42,6.24-.09,12.57.7,19.27.2,1.68,2.16,11.33,1.18,11.97Z"/><path d="M202.3,625.83c-.79-6.58-.76-13.15-.03-20.26.79,6.58.76,13.15.03,20.26Z"/><path d="M204.52,314.4c.38.98.63,2.02.73,3.14.67-4.13,2.78-10.44,4.62-12.69,2.68-3.28,6.13-5.33,8.44-9.12-5.14,2.09-12.84,11.58-13.79,18.67Z"/><path d="M86.24,632.23c-.8-5.98-.76-11.94-.03-18.44.8,5.98.76,11.94.03,18.44Z"/><path d="M197.69,479.42c4.81-1.7-9.6,11.65-8.89,10.2,1.97-4.65,6.28-6.54,8.89-10.2Z"/><path d="M150.79,142.16c-3.25.5-5.44-1.28-8.38-1.6-2.67-.29-5.12.68-7.38-.51,6.01-.83,11.32-.9,15.76,2.12Z"/><path d="M178.99,313.48l-6.14,8.31c-.54.73-1.12.64-1.4-.32l6.38-8.54c.61-.8,1.3-.6,1.16.54Z"/><path d="M104.35,312.91c-.61,1.94-1.19,1.08-1.56-.26-.96-3.86-3.24-7.12-3.17-11.4,2.42,3.35,2.45,7.33,4.73,11.66Z"/><path d="M168.95,390.41c.39.75.7,1.53.92,2.34.17-1.49-.28-2.96.05-4.59-.16-3.15-.09-6.42-2.68-8.37,2.18,7.96,1.51,6.68,1.71,10.61Z"/><path d="M115.39,527.9c-1.05-9.23.66-4.78-2.06-14.7,2.58,1.95,2.52,5.21,2.68,8.37-.46,2.27.61,4.21-.61,6.34Z"/><path d="M66.87,470.33c-.05-5.36-2.44-10.53-.7-14.61.8,3.01-.03,5.61,1.5,8.28-.64,2.25.62,4.24-.8,6.33Z"/><path d="M87.97,278.89l-1.68,8.85c-1.8-3.34.99-10.04,1.7-12.93,1.18,1.53.22,2.77-.03,4.09Z"/><path d="M46.61,237.28c-.2-3.74,2.58-6.84,3.08-12.71,1.77,1.26-1.12,10.61-3.08,12.71Z"/><path d="M151.95,558.13c-.94-2-.36-4.18.38-6.51.6-1.87-1.07-10.73-1.61-12.69l-2.57-9.27c-.71-2.57-.3-5.35.09-8.15,1.39,1.91.13,4.11.61,6.45,1.35,6.68,5.74,17.87,4.16,25.27l-1.05,4.9Z"/><path d="M66.19,448.38l-4.37-9.01c.1-1.21.44-2.4,1.04-1.3,1.1,3.68,4,5.78,3.33,10.31Z"/><path d="M156.61,495.18c-.8-4.76-.76-9.52-.04-14.8.8,4.76.76,9.52.04,14.8Z"/><path d="M67.12,299.66c-1.95-.66,1.14-10.72,1.79-12.09,1.12,2.14-.23,3.69-.46,5.58-.96,2.12-.69,4.08-1.34,6.51Z"/><path d="M224.12,627.49c0-4.28-2.49-10.93-.73-12.81.78,2.48-.07,4.54,1.29,6.64-.24,2.14.68,4.09-.56,6.17Z"/><path d="M64.49,150.41c2.05.05,2.71,1.06.67,1.16-3.61,1.39-7.14,1.41-10.37-.37.91-2.39,3.64,2.53,9.7-.79Z"/><path d="M74.76,80.87c-2.39.39-9.91,1.01-12.82-.98,1.03-1.32,2.42-.11,3.84.24,2.76.69,5.28-.7,8.98.74Z"/><path d="M128.63,146.46c-2.37,1.03-4.7,2.49-6.74,5.15-1.2,1.48-2.05.05-.94-1.11,2.46-1.7,3.5-5.12,7.68-4.04Z"/><path d="M164.73,639.35c-1.15-3.14.29-6.43,1.44-10.03.03-1.02.82-.93,1.17,0-1.25,3.28-1.6,5.78-2.6,10.03Z"/><path d="M7.56,314.17c-.82-1.54-.31-3.3-.36-5.36,1.12-1.8.5-3.57,1.28-5.7.94,1.79.57,3.98.12,6.12l-1.04,4.94Z"/><path d="M126.99,581.35c.04-2.34-.14-4.6-.58-6.85-.16,1.03-.28,2.02-.37,3.01.4,1.26.73,2.54.95,3.85Z"/><path d="M19.48,310.73c-1.03,1.07-1.72.37-1.24-.8l3.37-6.27c3.5-2.68-1.64,5.28-2.13,7.06Z"/><path d="M49.69,78.53c-.87-3.84-.72-7.71-.05-12.06.82,3.85.77,7.71.05,12.06Z"/><path d="M131.89,291.42c-1.24-1.92.63-6.33,1-10.22,1,3.43.4,6.92-1,10.22Z"/><path d="M128.3,260.27c-.84-.38-.36-1.47-.64-2.58-.96-2.93-1.24-5.84-.34-8.47.23,4.25,1.93,8.06.98,11.06Z"/><path d="M105.98,633.18c-.48,1.84.44,3.48-.54,5.46-1.02-1.88-.34-4.03-.46-6.36.94-1.51.54-2.98,1.29-4.78,1.19,1.68.4,3.69-.29,5.69Z"/><path d="M216.3,449.18c-1.29,1.78-2.38.71-1.21-.85,1.38-2.08,1.73-4.9,4.24-5.07l-3.03,5.92Z"/><path d="M54.81,132.72c-1.94.21-8.72,6.48-7.45,2.84-.22.63,6.27-5.06,7.45-2.84Z"/><path d="M201.06,177.98c-3.46-.17-5.38-2.83-8.45-3.47-3.34-.7-6.58.67-10.05-.63,4.61-1.01,14.96-1.03,18.5,4.1Z"/><path d="M43.29,199.14c-.82-3.54-.76-7.11-.05-11.15.82,3.54.76,7.11.05,11.15Z"/><path d="M184.03,272.23c-.82-3.54-.76-7.11-.05-11.15.82,3.54.76,7.11.05,11.15Z"/><path d="M109.14,200.05c-1.88.58,1.57-10.75,2.14-9.36-.07,3.73-1.46,6.32-2.14,9.36Z"/><path d="M161.97,228.26c-.83-2-.4-4.15.45-6.52.33-1.19-.38-2.31.58-3.58,1.39,1.6-.16,5.65-1.03,10.1Z"/></g></g></svg>