<svg xmlns="http://www.w3.org/2000/svg" id="Layer_2" viewBox="0 0 603.1 1007.4"><g id="Layer_1-2" fill="#e43122"><path d="M294.5 548.6c-5.6 25.5 8.4 22.2 0 49.2-7.7 4-.4 13.6-10 24.5a83 83 0 0 1-11.5 10.8l-5.7 4.4c-5.3 4.3-6.8 16.8-10.3 20.4-3.1 3.2-8.5 1.3-11.8-.6-4.8-2.8-13 .1-18.9-15.4-1.5-4.2-8.6-4-10.7-.3-1.6-1.8.4-3.2 0-4.5-1.4-3.3-5.1-4-7.4-6.3-5.4-5.3-6.7-12.8-10.3-20-5.3 9.9-12.6 13-22.7 18.8a35 35 0 0 1-13.7 4c-15.7 2.2-14-5.1-27.4-1.4-4.4 1.2-11.3 2.6-14.8-.2-5.5-4.4-6.8-11.3-9.6-17-3.3-6.6-19.5-9.6-23.5-39.6-3.8-5.2-11-3.4-16-1.3-6.7 2.7-13.2-2.7-14.5-9.1q-.5-1.7 0-2.9c2-3 3.5 6.6 8 8.5 3.5 1.5 7.7.3 10.3-1.3-1.4-3.1-4.4-3.3-6.6-4.9-3-2.2-5.5-4.6-9.4-5.5-5.5-1.4-2.2-9-4.2-12-3.7-2.5-7.6-4.5-10.2-8.4-5-7.3-16.7-9.6-21.1-18.2-3.4-6.7-.3-13.8 4-19.3q8-10.8 13.3-23.1c.7-1.7 2.6-2.6 2.2-5.1-15.6-3.4-20.8-4.5-29-20.4-1.3-2.5-8.8-7-12.4-11.3-1.6-1.9.5-8.1 2.7-8.8 7-2.1 16.7-3.9 23.2-9.6 8.6-7.7 18.6-12 31.2-13.5-2.4-3.3-6.2-3-9.2-4.6a40 40 0 0 1-14-15.8c-4.5-7.6-13.2-10.5-11.8-17.8 1-5.5 11.5-5 7.8-12.9-3.3-6.8 5.4-10.3 10.2-11.9 6.8-2.2 12.3-.7 19 .8l10 2.4c4.5 1 9.8 2 14.6 1.7l17.1-1.4c8.3-.7 14.1 1.6 10.2-2.3a50 50 0 0 1-10.7-24.6c1.1-21 2.2-11.9 12.2-22 4.4-4.4 6-10 8.5-15.2 5.4-10.9 18.7-8.5 24.6-10.2 3.8-1 6.7-5.7 11.3-5.8 8.8-.1 19.6 22.3 27 27.3 3.1 2 5.7 4.4 8.9 6l10.7 5.5a68 68 0 0 1 15.7 17.7c3.6 6.8 4 15.5 6.4 18.6 8.1 10.4 7 15.8 11.4 20 1.6 1.4 4.1-1 5-2.4l6-10.2c2-3.5 2.5-7.9 3.3-11.9 1.7-9.6-3.2-21.1-3.2-27.3 0-4.6 6.3-27.4 11.3-31 2.7 8.6-3.2 10.2-2.9 18.6.9 20.4-2.8 9.9 3.8 29.2l4.2 12c1.8 5.5-.2 19.2-.8 25.3-.5.7-1 1.1-.1 1.4 2.5-1.2 3.6-3.4 5.4-5.4l10.5-11.8c4-4.4 6.9-8.8 10.3-13.6l6.6-9.3 7.4-11c1.8-2.7 3.2-5.2 5-7.7l6.3-9.6c3-4.6 6.9-8.3 9.4-13.1l5.9-11.4c-1.4 2.7 12-18.4 11.4-18.3q1.4-.6 0-1.2c-2.3 1-4 2.5-6.6 1.2 3-7.5 14.2-12.1 19.6-17 2.1-2 6.5-10.7 18.7-18.5 7.5-4.8 21.5-16.7 24-18.2 4.5-2.7 7.4-6.5 11.3-9.5 4.4-3.3 8-6.8 12-10.6l9-8.3c2.2-2 5-3.2 5.7-6.6 1.4-.6 2.6-1.5 1.2-2-15.5 5-27.9 10.4-42.7 11.5-16.5 1.2-22.8-.3-36.5 7.6-3.6 2-7.6 2.6-10.7 5.7-2.2 2.2-5.1 3.3-7.9 4.7-8 4.3-15.5 9.8-24.5 12.2-6.3 1.6-13.2.3-19.8.6-3.5 0-6.2-2-9.1-3.3-6.6-2.8-.4-9.2-8.2-10.1l-11.2-1.4c-20.7-2.6-23.3-1.7-37.4-16.3a88 88 0 0 1-15.7-23c-2.3-4.5-6.2-8.5-9.3-12.6-6.9-9-10.5-8.6-12-11.2-.3-.7-.2-2.6 1-2.7 5-.6 8.2 2.6 12.3 4.1 7.1 2.6 14.5 3.9 21.9 6 9.5 3 9.4 9.6 16.1 13.9 7.7 4.8 17 3.8 24.4-.6 8-4.8 22.9-4.6 32.3-2.7 10.3 2.1 27.8 11.7 36.5 18 6 4.5 18 11.3 25.4 10.3l15.7-2c-.6-3-3.4-3.5-5.9-4.5-7.6-3-14.6-6.4-21.3-11.2-1.4-1-3.7-.4-4.9-1.5-25.8-23.5-14-27.3-17.8-46.4-2.5-12.4 1.7-11.3 3.5-18.2 1.5-5.7 7.3-20.1 10.4-24.2L352.5 55c1.5-2 2-4.5 5-5 1.5-.3 2 .5 2.7 1.1q1.4 1.7-.5 3.5c-3 3-8 16.3-6.6 20.9 1.8 5.7 4.3 11.7 9.3 15 3.4 2.4 8.8.7 11.7 3.6 5 5.3 2.2 15.8 7.1 18.7 6.6 3.7 3.9 15 1.2 19s-4 8.4-6 12.7c-1.2 2.5-.1 5.6-.4 8.2-.8 8 3.2 14.1 9.6 18 2.2 1.3 3.3 3.2 6.5 3.2s18.8-2.6 21.3-4.9c2.2-2 4.9-2.7 7.7-3.7 9.3-3 17.4-7.9 26.2-12q10.3-4.7 18.5-12.4c2.4-2.2 5-4 7.2-6.5 4.8-5.7 10.5-10 16.2-14.8 3.5-3 6.4-6.7 9.5-10.2 4.4-5.2 9.4-9.6 14.2-14.5a306 306 0 0 0 35.3-44.3l10.1-16.8c3.5-5.7 19.8-30 23.1-32.8 1.6-1.3 5.8-1.2 7.5-.2 1.1.6 1.5 2.9.7 3-4.3.9-5.8-4.1-7.8-1.1-1.5 5.6-4.3 10-6.7 15.1-5.5 12-6 10.9-11.4 21.2-1.8 3.5-4.5 6.1-6.8 9.3l-6.8 9.4c-3.4 4.8-5.3 8.4-8.4 12.9a485 485 0 0 1-48.5 59.3c-1 1.2-2.2 1.4-3.8 5q-2 1.6.2 1.3c3.9-2.5 6.7-5.8 10-8.6l14.2-11.8c3.7-3.1 8.2-5 9.7-10.2 1-.4 3 .9 3.4 1.4 1.5 1.9-1.7 5-1.6 10 2.3-2.7 2.4-6.2 3.5-9.8 1-3.3 3.5-6 4.3-9.1 2.1-8.7 8-11.6 10.1-16A175 175 0 0 1 555 63.8c10-9.5 12.7-18.1 22.2-29.7l12.3-15a189 189 0 0 1 12.2-14c.5-1.4 1.8-1.2 1 .4 2.2 10.3-4 7.7-13.7 22.8L578.2 45c-2.7 4.2-6.5 7.5-9.5 11.4l-15.9 20.3-5.6 6.7-5.6 7c-9.5 11.7-4.2 15.1-12.8 30.5-1.3 2.4-2.9 5.4-6.2 4.3-3-1-.6-7.3-2.2-8-3.7-1.7-4 4.9-12.3 9-5.6 3-25.3 22-33 28-13 10.3-8.5 13-13.8 18.3a47 47 0 0 0-13.8 27.1c-.3 1.6-2 2.8-2 4.4-.1 6.8-6.6 31.6.7 36.1 4.3 2.8 11.1 5.5 16.4 4 3.4-1 5.8-3.5 9.8-4 8-1 15.6-4.9 25.3 4.4 1.4 1.3.3 7.4 3.5 7.5 4.5.1 4.2 2.8 6 5.7s9.1 4.6 11.8 2.4 4.3-11 20.8-13c3.6-.5 7-2.3 10.7-.6.9.4 2.4 2 1.5 3.3-1.9 2.6-3.9 5.6-6.6 6.9l-5.9 2.7c-4 1.9-11 21-21 26-4.4 2.4-9.6 1.9-14.3 3.5-6.7 2.3-13.1 10.4-21.7 6.5-2.8-1.3-6.9-.5-9.4-2.9-2.9-2.8-7.5-4-9.8-7-8-10.2-11.1-22.4-18.5-31.6-1.4 2 1.6 20.3 2.6 22.5 4.3 9.4 2 11.3 9.8 21.2 6 7.9 11.8 10.8 20.5 17.8l6.9 5.6c7.6 6.2 14 13 19 21.7 6.2 11-1 14.9 7.2 34a69 69 0 0 1 3.1 33.2c0 .5-1.4 16-1.7 16.7-4.6 13 6 29.8-1.7 26.7-.7-.3-1.9-1.3-2-2.5-.4-6-3.3-9.8-6.4-14.3-7.8-11.3-13-28.6-20.9-32.8l-13-7.1a31 31 0 0 1-15-25.5l-.5-20.9c-.2-3.8-2-7.2-2-11.2v-23.3c0-5-9-40-10.7-43-2-3.5.3-7.9-1.3-12-5.8 13.6 1.9 18.2-1.1 35.7-1 5.8-1 11.7-1.7 17.7-1 10.6 4.1 7.2 1.5 27.8-.8 6-4 10.4-7.6 15.2l-5.7 7.6c-2.2 3-4.2 5-5.8 8.2a77 77 0 0 0-7.8 25.8c0 1.4-2.7.7-3.2-.6-7.2-16-2.6-15.7-3.3-23-1.5-16.3 2.8-15.7-3.2-28.8-1.8-3.8-5.6-6-7-10s-2.8-9-1.2-13l3.5-8.8 7-15.3c2.6-6-4.5-9.4 6.1-29 1.3-2.2 1.9-4 4.6-5 3-1.2 4.5-5 7.4-6.3 6.8-3.1 14.2-11.5 14.5-19.3.2-4.1 1.6-8 1.3-12.3-.2-2.2 1.3-22.9 1.4-23.4l4-18c1.4-1 .1-2.8-.6-1.3l-19.7 19-10.8 8.3c-5.6 4.3-10.2 9.5-16 13.7s-25 22.6-29.6 28.7q-3.3 4.6-7 9c-12 13.1-10.8 17.6-18 25.6a47 47 0 0 0-5.2 7.4l-9 14.5-3.9 6.9c-3.7 6.5-6.7 12.8-10.8 19.2l-5.7 9-5 7.7c-4.7 7.4-8.7 14.8-14.6 21.5a12 12 0 0 0-3.1 5.5c6.3-.5 12.6-1 18.5-4 4.2-2 8.6-3.6 12.6-6 20-12.4 18.6-3.9 17.6-3.4a119 119 0 0 0-31.1 27.2l-5 8.8L288 420c0 .7 1.3 1 2 .5 3.1-2.9 6.9-3 10.6-4.5 16.7-6.3 18.2-2.2 22.3-1.4l8.1 1.5c-5.3-1 22.5 8.4 22.4 8.3 6.5 3 12.8 6 18.2 10.8 11.5 10.4 22.9 2.5 23 7.5 0 1.5-1.1 1.2-2.6 1.6-24.6 7.1-28.7-1.3-44.2-12.6-13-9.6-30.3-6.7-43.2 1-3.2 1.8-6.8 2.7-9.9 5.2-3.6 2.9-7.2 5.3-12 7 3.2 2.3 7.3 2 11 3.8 4.6 2.2 8.8 4.3 13.6 6.2 4.4 1.6 15.2 9 21 12.4 6 3.5 17 20.5 20.2 28.1 2.7 6.1 2.7 12.9 4.4 19.4l2.3 8.8c1.6 6 5.2 11.1 8.4 16.3 3.4 5.3 2.6 11.5 4.2 17.3l3.4 12.7c1.2 4.7.1 11.3-5.5 13-4.7 1.4-9.6-2-13.3-4.2l-8-4.8c-8-4.6-11.4 1.8-15 2.6-19.1 4-28-14.5-35-28M348 73.2c.8-2.7 2.7-3.2 1.4-4.7-.7 0-1.9 1.2-2 1.9s-.3 3 .6 2.8m5.2 53.6 5-9.4c.5-1.2-.2-8.7 2.2-8 .5.1.9 1.5.6 2.4l-2.5 10c-1.3 5.3-4.5 11.3-1.9 16.8 6.3 13.4 6.5 11 16.3 21.7-4.8-26.4 8.9-25.6 7.8-43.2l-5-3c-1-6.3-2-12-4.2-18-21.3-1-19.5-21-23.5-18.8-3.6 2-1.9 10.8-3.4 15-3.5-1.6 1.3-12.1-.7-16.2-.4-1.2-1-3 .8-2.3-3.9 4.3-3.8 7.7-5.4 11.5-1.4 3.4-4.2 6.3-4.1 10.4 0 3.3-2.5 5.2-3.6 7.7-2 4.5 1.8 9.3 1.4 13.7l-1.2 14.4c-.6 7.6 11.2 20.4 14.1 22.4.8.6 21.1 9.9 23.9 10l-4.7-5.5c-12.5-14.7-12.6-8.8-23.3-21.3 3.4-2.4 8.6 11.8 14.4 7.4-5.8-11-6.2-17.5-7.1-27.6a248 248 0 0 1-4.4-23.8c2.7-1.4 5.3 13.4 5.5 14.9zm-84.6 250.6c-1.2-.6-1-2.1.1-2.8 2.9-1.7 4-4.4 6.1-6.6l9.6-10.5c.6-.7.6-1.6 1.2-1.4q.7.4 1.7.8c1.6.4 3.6-1.3 4.4-3l13.3-26 7.4-11.5c3.6.3 5-1.3 5.8-4.2 1.3-4.4 6.6-7.6 7.4-11.8 1.2-5.5 2.2-9.3 5.8-13.6 2.4-2.8 2.3-7.5 6.5-9.6.7.6 1 2.1 1.5 3 3.3-2 3.1-6 5.4-8.4 3-3.2 4.8-6.8 7.5-10l11.5-13.1 8-8.2q3.2-3 6.6-6c3.7-3.1 6.1-8 10.2-10.7 6.9-4.8 13.3-9.4 19.6-15l13.3-11.6 13.1-10.5 14.4-15.4c8 .1-7.2 17.8-4.6 23.7 2.7-4.2 3.6-9 5.5-13.8 1.1-2.8 14.4-25.1 17-26.8 9.4-5.8 6-6 15.7-12.8 2.5-6.8 7-11.6 12-16.7 3.5-3.6 6.3-7.4 10.5-10.6 2.5-1.8 3-5.9 5.4-8.1 2-1.8 4.2-3.3 5.7-5.4l6.5-8.4c-3.5 0-4.4 3.6-6.3 6-5 5.9-11 10.4-16 16.3l-3.3 4.2c-2.8 3.4-7.4 5-10 8.4a30 30 0 0 1-7.6 7.7c-6.1 4-10.3 10.3-16 14.8-5.2 4-9.6 8.4-14.3 13l-4.3 4.3-15.6 14.3-12.8 12c-9.7 9-20.5 18.4-31 26l11.4-4c-3.5 3-6.4 6-9.8 8.2-7.2 4.4-29 21.4-30.4 21.8l-6.6 2 .8 5.8c-4.4 8.7-10.4 16-15.3 24.2a70 70 0 0 1-4.6 6.7c-2.5 3.3-3.6 7.5-6.6 10.7-3.9 4.1-14 22.8-16.7 25.8-1.9 2.2-2.7 4.4-4.3 6.7l-7.5 10.9c-5.8 8.4-14.3 21-22 27.9-9.6 8.5-10 13.7-21.8 22.9-2.3 1.9-3.8 4.2-6.9 5.6-1 .5-1.7 2.6-2 3.9 7.4-6 8.3-6 16.5-10.8 3.7-2.2 9-2 12.2-5 3.9-3.4 15.8-18.5 15.8-24.8-7 3.9-13.6 12.8-19.1 19.5ZM240.2 155c-.2-.5-1.1-.6-1.5-1.2-7-10-16-16.2-28.6-15.1 6.5 6.6 10.6 11.8 19.8 15-1-.3 12.1 5.7 10.3 1.3Zm14 24.1 16.3-1.8c-1.5-1.7-3.4-1.1-3.5-3 2.7-.6 5 .3 7.5.7l12.9 1.9c4.7.7 16.6 4.9 27.9 4.2l-15.4-11.7c3.8-1.9 10.2 8 18 9.4 17.7 3.1 11.4 1.6 30 1.5 4.5.8-17-13-17-13.2-5-3-10-5.5-15.1-8.3s-9.9-3.8-15-5.5c-11-3.4-15.2-2.1-27.4.4-9 1.8-6.2 7.1-25.2 7.3-5 0-9.7-1.5-14.4-2.5s-15.2-7.4-18.8-11.7c1.3 5.3 5 9.9 8.3 14.8l5 7.2c3 4.2 6.4 6.8 9.4 11 3.4 4.8 10.9 6.4 16.4 7.9 13 3.5 17.2 0 32.4 7.5 1.7 1 1 4.6 1.9 5.8 5.3 4.3 12.5 4.2 19.2 4.3 4.5.1 7.2-1.5 11-3.1 9-4 17.6-8.1 25.6-14.2 2.3-1.7 4.7-2.4 7-3.5-5.2-1.6-9.2.5-13.6.5-5.8-.1-10.2 1-15 3.7-13 7.4-11.6 7.9-26.2 5.8 6.3-.1 19.5-4.1 23.7-8.2l-22.1-4c-3-.5-5.7-1.6-8.8-2.3-18.8-4-24.8 5-35-.9ZM449 157c-6.8 1.6-11 4.7-16.3 6.8 6.5 0 12.1-3 16.3-6.8m-78.5 75.4c3.5-4 8.2-5.3 10.3-10a83 83 0 0 0-17 13.9q1.5 2.1 3 .7c1.5-1.2 2.2-3 3.7-4.6m107 48.2c-16.5-5.5-10-19.2-24.5-22.7 1.3 5.6 4.6 8.9 6.9 13.3 2.6 5 5 10.1 10.1 13.5s11.2 5.6 17.5 6 6-6 16.8-11c1.4-.7 14.7-10 9.6-13.8-2.4-1.8-5.2-2.4-8-3.4-7-2.5-2.5-7.5-7.2-8-3.9-.2-5.5-3.2-4.8-7.2-11.8-11.5-24.7 1.4-34.6 2.1-2.7.2-5-1.4-7.2-.2 13 20.1 18 2 37 9.9-7.3 3.8-12.2-2.3-21 2.5 7.8 10.5 19.2 2.4 28.3 6.1-3.5 1.5-6.3.8-9.7 1.2 5.7 6 6.5.7 11 2.3-6.7 5.4-24 0-31.7-6.6 1.1 5.5 6.7 13 11.6 16Zm-54 47.1c1.3 3.8 2 7.7-1.5 10.3 0-12-3.7-8-4-16.4-2 1.1-.2 43.2-6.3 40.3 1-5 2.8-29.6 2.3-31.2-1.9-5.4.4-20.9 2.3-28-4 .2-11.8 17-12.2 22.9-4.4-3.6 0-11.5 2.4-15.3 3.2-5 5.5-10.7 9.9-15 3.5-3.6 10.8-11.2 11.2-16 .2-2.8 1.8-5 2.3-7.5 1.6-7.6 6.4-7.4 5.3-19.5-2.4 2.5-4.5 4.3-6.9 6.5l-8.8 8.5a65 65 0 0 0-7.4 8.5c-5 6.8-4 20.3-5.5 27.2-2.3 9.6-14.8 23.6-8.5 33.2 3.7 5.7 8.9 11.3 9.3 19 .2 3.8 0 7.5.6 11.3 1 6-.6 11.7.9 17.6 3-1.3.9-4.4 2.2-6 2-2.4 2.2-5.2 3.6-7.9 7.8-15 10-8 17.5-27 2.9-7.5 1.6-14 .7-21.5-1.9-14.2 4.5-32.2-1-43-2 5.2-5.1 9-7.3 13.6-10.2 21.2-6.7 19.4-1.1 35.5Zm105.1-59c3.6-11.9 12.7-17 8.5-16.5s-9.4 1.9-12 5-4 16.4-15 23.8c-.4.3-.8 1.3-1 1.6s.7 1 1.2 1c7 .9 16-7.6 18.3-15m-303 83.6c-9.6-11.1-7.5-23.6-17-34.6-5.3-6-12.9-9.2-20-12.3-3.4-1.6-5.8-4-8.6-6-9.3-6.9-9.3-17.5-20.4-24.8 3 5.6 7.6 9 8.6 15.4.5 3.5 2.6 6.2 3.9 9.7 9.2 25.1 23.8 11.8 33.6 23.4 6.3 7.4 12.3 25.3 22.2 34.6 0-1.8-1-4-2.3-5.4Zm-63-19.5c4.6 3.8-.4-.4 4.7 11.2l5.6 13c1.5 3.4 2.6 6 4.9 8.8 2.4 3 3.4 7.2 6.3 10 5.7 5.7 9.3 12.5 16.2 18.3-1.7-5-5.2-8.1-6.6-13.3-.8-3.3-2.5-6.4-4-9.5-.4-1.6.5-3.3 1-1.6 3.6 5 14.2 30 18.1 28.6 1-.3 1.1-1.8 2.6-3.4 2.1 6.7 8.6 11.3 15.8 16.3 3.2-7.6 4-15.2 5.3-23.2 1.7-10.5-1.7-18.6-7.8-26.7l-4.4-5.8c-2.5-3.4-3.7-7.3-6.7-10.6-3.5-3.9-4.5-9.5-7.2-14-9.5-15.7-26.3-4-36.7-24.1-6.7-13-5-20.8-14-29.2-4.7 5.7-4.1 18.7-3.3 24.9.1.6-1.7 1.2-2.1.3-.7-1.5.5-3.8-1-5.1-1.3-1-3-1.3-3.1-2.6 0-1.1-.6-3.4.8-3.5s2.6.2 2.7-.5l-.4-9.8c-.6-2.4-2.6-.4-3.8-.1-4.6 1.2-9.3 0-13.7 1.8-5.5 2.2-8.8 13.4-14.3 21.1-2.3 3.4-7.4 3.8-9.7 6.3-5 6.4-1.4 23 3.8 30 1.7 2.4 2.2 7 5.4 8l14.9 4.5c-.7-4.4-4.2-6-6.4-9-2.5-3.5-5.7-11.7-8-16.1-.3-2.4 1-2.7 2.4-1a52 52 0 0 0 15.2 24.6c3.6 3.3 7.1 4.7 11.8 6 3.7.9 10.7 6.6 12 6q.8-.4 2.1-1.2c8 6.4 13.8 15.8 22 19.5-3.3-7.9-7.3-14-11.4-20.9 2.4 4-13.6-30.4-9-28m298.4 7.6-.9-12.4c-.3-3.8-2.8-7-4.8-10.3-2.2 3.6-.4 6.8-.3 10.4l.2 9.8c.2 5.4 1.7 10.6 1.4 16-.4 6.7.7 12.6 2 19 1.4 7.1 4.1 13 9.5 18 9.4 8.8 9.3-.2 21.5 14.3 3.1 3.6 3.8 8 5.6 12.3a94 94 0 0 0 9.8 16.8c2.3-6.2 5.7-24.8 4.4-29.3-8.2-27.5-18.8-18-16.2-35.4l1.1-7.4c1-6.8 1.6-12.7-.9-19-4.1-10.5-5.9-10.6-12.2-17.4-.7-.6-8.1-10.6-11.5-12.2a39 39 0 0 1-12-9.2l-4.8-5c2.2 6.8 4.3 12.6 5.7 19.4.8 3.7 4.4 6.7 5.4 10.4 3.8 14.4 17.7 19.9 24.4 31.7l-7.8-6.3c-2.4-2-4.5-4.2-7.6-4.6-1.6 2.5 9.3 20 10.8 22.5l9.3 14.5c5.7 8.8 13 33 11.8 43-3-7.5-3-14.4-7.2-20.6-.1-2.6-1.2-4.8-2.3-7.2s.7-5.9-.8-8.1c-6.8-10.4-1.8-8.7-15.3-23 0 7.1 1.7 12.8.4 20.2-5.4-10.5-.8-19.7-5.4-29.3l-8.7-18c-1.5 7.3 1 12.7.7 20-3.7-3.3-3.3-7.6-3.9-12.2zm-152-9.9q3.5-2 3.4-6.4c-2.2 1.4-3.6 3.4-3.4 6.4m-6.9 11.4c3.8-2.5 5.3-6.5 5.1-10.3-3 5.2-4.2 6.2-5 10.3m-48.7 34.7c3.5-1.6 3.5-5.7 4.8-8.7a50 50 0 0 0-.7-34c-1.9 2.6-1.1 5.6-1.2 9-.6 19.2-.5 22.5-10.7 38.4-2.2 3.4-5 6-4.4 10 3.9-5.1 8.6-13.1 12.2-14.7Zm250.8-5.5c-1.8-5.6-1-20-2.9-22.3s-2-5-3.5-7.3c0 6.5 2.7 12 1.5 18.3-5.1 28.6.5 10 11.4 37.7 1.8-8.7-5.1-22-6.5-26.4Zm-342.6 3.4c-5.9-7.7-13.7-10.3-21.8-13-6.1-1.9-11.3-4.4-18-4.5-4.5-.1-9.2-1.8-14-1.4l-12.5 1c-5.3.6-9.9 1.5-15.1.3-3.4-.7-7 .2-10.5-1l-12-3.7c-5-1.6-10-3.5-15.2-1 4.6 3.9 9.8 5.3 15 7.2 3.4 1.3 6.4 4.4 10 4.9s5.7 2.5 8.5 3.2c12.2 3.2 23 4.7 35.4 2l13.4-2.8c9.8-2.1 28.2 6 36.8 8.8Zm88.1-6.2c-.8 1.3 5.5-15.7 2.4-15.5-8.3 16.8-15 9.4-12.2 29 .2 2 9.8-13.5 9.8-13.5m-141.4 24 10.4.4c3.7 0 7.4 1.5 11 .5.7-1.5.5-3.8.3-5.7h-18.5c-3.9 0-7.4 0-11-1.6-1-4.8 30.3 1.3 31.8.4 18.3-10.8 28 4.9 31.5 6.5 4.8 2 10.8.8 16.2.7l-11.5-8.5c-5.5-4-11-6.8-17.3-9s-12-4.7-18.6-5.7c-13.8-2.2-19 6.2-45.8 3.2a84 84 0 0 1-35.1-13.1c-1.4-.9-13.5-6.9-15.3-4s3.4 6.5-2.4 10.6c-2.7 2-5.5 3.6-7 7l11.8 10c-2 4 5.1 11.6 7.8 13.6 5 3.8 10.1 6 15.6 8.3 3.5 1.4 5.3 0 8.8-.5l15.3-2.3c-.6-1.9-2.3-1.8-4.5-2 0-1.2 1.2-2 1.8-2.3-2 1 20.2 4 29 1.8 5-1.2 9.4-1.6 15.2-2.5-7.4-1.5-14.6-1.4-22.3-3.4l-10.9-2.9c-3.8-1-7-2.8-10.6-3.7 5-2.4 13.4 4 24.3 4.3Zm166.5 9.6c.3 3.5-3.5 4-4.9 6.4-.4 3.5-3.1 5-5 7.2a44 44 0 0 1-19.4 14.3c1.8 3.1 3.6 6.2 6.4 8.2 8.8 6.2 22.2-6.4 27-14.8l6.8-11.5c2.3-4 9.3-22 17.7-27.5q2.4-1.5 4.3-4c-4.2.5-7 2.4-10.6 4-3 1.2-6.1.5-9.3 1.2-3.5.9-6.8 2.4-10.5 2.7s-6.8 2-10.3 3.2c-10.9 3.4-20 10-27.3 18.9-2.2 2.6-3.2 7-2.7 10.4a8 8 0 0 0 5.6 6.1c3 .8 5-.9 7.5-2.4 4.8-2.9 13.2-7.8 15.2-13.3zm-42.4 79.9c-1.7-.7 1.3-8.8 1.8-10 2-4.2 6.9-24.5 3.6-29.7-3 4.5-4.9 20-9.4 20.7-.8-2.6 1.1-4 1.6-6.3L234 440c1.5-6.3 2.5-12.2-3.6-16.5-13-9.2-39.3.3-51.5 9 .2-3.8 3.6-3.7 6-5 3.2-1.8 5.4-5 8.9-6.3l8.1-3.1c5.2-2 10.3-1 15.4-2.9-4-.3-6.7-2.7-9.6-3.3-10.2-2-19.7 2.3-30.5 2.6q9.8-6 21.3-6.1l12.4-.3c1.5-5.7-20.3-9.1-21.2-9-23 1.2-19.9 2.7-38.8-5-2.8-1.2-5.4-1.5-7.8-3.5-1.7-1.3-4.6-.6-5.5 1.5-1.2 3.2-2.9 7.5-1.5 10.9 1.3 3.2 1 6.8 2.5 9.8 5 9.3 10.5 8.6 16.8 12.6 13.2 8.3 6 15.5 9 27.3 1 4.5 3.1 9 1 13.6-7.5 16.9 9.6 3 25.3 6 7 1.4 21 18.8 20.4 17.8l3.5 6.6c1.4 2.8 6.2 1.6 9.2.5 3.1-1 6.2-.4 9.4-.7 6-.4 10.8 1.3 15.5 4.4 1.5.9 16.4 6.2 20.4.5-18.2-25.3-10-21.7-12.8-35.6l-2.2-11.3c-.6-3-7.5-16.8-11.7-18.2a106 106 0 0 1-2 25c-.6 3.7-5 21.6-7.8 20.4Zm-100-55.4c-2.8-.1-6.8 0-9.1 1.5l-11.9 7.7c1.1-3.9 10.3-10.8 12.5-11.8 2.4-1 5 .4 7.2-.8 1-2-.6-6.5-3.3-5.8-5.5 1.5-11 4-15.4 7l-14.8 10.2c-2.8 1.8-4.5 4.8-8.5 4.6 2.5-3.1 5.8-5 8.9-7.8l7.3-6.3 9.1-5.7c3.9-2.4 8.6-2 12.7-3.8 1.2-.5.8-4.4-.6-4.2-9.2.9-16.8 5.5-24.2 10.2-.8-.6-.8-2.2.2-2.7 6.4-3 11.4-9.6 23-11 1.5-.1 2.2-1.3 2.2-2.1-.2-4.4-21 4.3-20.4 3.9l-15 9.5c-3.6 2.3-6.7 4.9-10.4 7l-16.6 9.8 6 3.2c2.8 1.5 4.7 4.7 8 5.7 1.7.4 2.8-2.3 5-1-1 1.4-2.8 2.2-2.6 4 .4 5.6 7.2 4 10 6.2-1.9 1.3-3.3.8-4.6 2.2q2.7 4.2 8 5l15.1 2.2c7 1 11 7.2 16.2 10.9 6 4.2 23.2 4 26.3-3 .1-3.8-3.3-7.1-3.5-10.6-.4-9-13.1-34-16.9-34.2m-32-20c-9.1-2.2-16.7.8-25 2.6-5.7 1.3-11.3 1-16.1 4.1 20.7.7 23.9 6.5 41.2-6.7M40.7 422c2.1-1.9 5.1-1.7 7.4-4.2-2.1-1.4-5.2-1.2-7.7.3-14.7 8.3-8.2 8.6-18.3 13.4 4 3.2 16.3-7.3 18.6-9.5ZM53 464.4c5.6-3.3 10.8-5.6 15.4-9.8-3.5-3.3-1.6 1-12.7-1.4-13.8-2.8-11.4-5.3-21.3-12.7 9-7.1 15.6-4.1 20.2-5.9C61.8 432 68.3 428 75 424c2.4-1.5 5.3-1.8 7-5.2-9.4-1.3-18.5 0-28 1.4-3 .4-4.7 2.8-7 4.1-8.8 4.9-16.7 9.2-26.2 12-2.7.8-16-4.3-15.6 2 .2 3.6 4.8 5.4 7.4 7.1 3.5 2.4 4.2 6.1 5.7 9.7 1.2 3 4.3 4.4 6.6 6.6 5.3 4.9 12.2 8.8 19.6 7.8zm235.8-33.8c5.4-2 10.6-6 16.3-6.1 2.4 0 4.2 1.8 7.1-.6s6.7-2.5 10.6-3.6c-13.7-6-33.3 5.5-45.3 13.8-2.3 6 3.8-.8 11.3-3.5m-130.9 16.2c-1.6-5.6 5-12.7-10.7-19.2-3.4-1.4-5.6-3.7-8.6-6.2-.7.3-.9 1.8-.2 2.8l11.2 17c2.9 4.3 2 10.1 3.9 15l4.4 11.5c4.7-1.2 1.3-16.7 0-21Zm215.7-5.1c-4-2.7-20.4-16.7-25-15.5 8.9 7.8 13.5 12.9 25 15.5m-85.9-4.3 9-5.2c3.2-1.6 7.1-1.5 8.6-5.4-10.8 4-18.6 9.8-27.8 14.7l-2 1c-.7.4.6 2.7 1.3 2.1 3.4-2.9 6.7-4.8 11-7.3M73.2 448.7c-2.6-4.3-5.6-3.8-8-6.3l-11.9-1.1c-3.2-.3-6.1.8-9 1.8 4.5 6.1 22.4 7 29 5.6M300 540c2.5 4.5 7.5 6.3 9.2 11.2-7.1.7-11.5-15.8-13.2-9.7 8.3 6.9 4.8 13.9 15.7 24.6 4.2 4 10.2 9 16 6.3l7.8-3.6c-1.6-3.7-4.5-3.4-8-4.2 1.5-2.3 3.6 0 5.5.2a35 35 0 0 1 20 9.5c3 2.5 8.8 4.4 12.4 3.5 2.4-.6 1.2-5.5-.1-6.8l-5.7-5.6c-4.3-4.3-6-10-9.9-13.7-6.5-6.3-15-11-18.7-20-6.4-15.2.5-21.4-4-31.8-2.4-6-2.4-13-5.7-18.2L317 475c-4-6.4-8.3-11-14.9-14.3-5-2.4-15.9-10.3-23.1-11-7.7-.7-14.4-2.3-22.2-4 2.2 12.4 3.1 11.5 12.8 17 4.2 2.3 23.2 11.3 23.2 15-7.1-4.5-13.6-9.5-22.4-12.4 1.3 3.4 4.7 3.6 7.2 5.5a45 45 0 0 1 17.2 23.7c3.7 12.3 6 9.4 10.3 21.5-2.4 1.5-11.3-14.1-12.1-15.6-6-11.3-1.6-13-19.3-25.9-3.3-2.4-4.5-8-10.3-7 12.3 8.1 12 18.3 17.3 26.6l4.7 7.6c1.7 2.6 3.3 5.1 3.7 8.5s2.2 5.9 3.4 8.9c1.3 3.2-1 7.7 1 10.4q3.4 4.8 6.4 10.4ZM41 493.2c1.3-3.9 8.5-18.5 12.1-20.3.5-.3 23-14.4 23-17.3-2.2-1.9-8.2 5.8-16.5 10.1-3.3 1.7-5.9 4-8.8 6.2a18 18 0 0 0-7.5 12.2c-.6 4.1-4 6.7-6.3 9.8-1.7 2.3-2.6 4.6-5 5.8-.4 4 9-6.4 9-6.5Zm16 49.5c5.9-15.2-9-10.6-2-29 1.3-3.2.7-16.4 2.6-25.7.6-3 3.3-5.6 5.5-7.7 5-4.8 9.5-9.4 14-14.6 2-2.2 4.8-3 6.5-5.6-.7-.8-2.9-2.4-4-2-3.6 4-7 7.2-11.6 9.8-4 2.1-7.4 5-11.1 7.5-8.4 5.7-6.8 15.2-14.9 22.3-3.8 3.3-8.2 5.5-11.9 9.3-3.1 3.2-4.3 9.4-1.5 13 4 5.1 10 7.4 15 11.1 4.8 3.6 7.9 8.7 13.4 11.6ZM98.6 468c-3-4.1-12.7-4.1-18.5 2.3A180 180 0 0 1 66.7 484c-7.3 6.6-3.3 15.3-6.7 26.7-.6 2-3 3.2-1.4 5.9 2.3-1.6 3-4.3 3.7-7.2 9.5-35.5 5-24.2 36.3-41.5m9.7 6.6c-11.7 9.5-5 5.8-6.8 10q-.3.7-1.5.6c-.4 0-.5-1.3-1.3-1.5-1.9-.4-2.8 1.8-4 4.2-.7-10 11-14.2 13.1-21-6.7 3-10.4 8.7-14.2 14.5-4.9 7.4-8.5 8.5-7.7 16.4.6 6.6 6.5 3.9 15.5 6.6a19 19 0 0 0 15.3-1.3q-1.8-2.8-4.2-4.9c-11.2-10.2-.8-20-4.2-23.6m242 52.5-5.2-24.9-4.7-11.1c-1.5-3.6-4.5-6.3-6.4-9.6a21 21 0 0 0-11.3-9.7c-1.8-1.3-1-5.3-5-4.6 8.8 8.8 7.3 14.8 12.7 27 8.1 18.5-1.9 28.6 8.3 41.1 2.6 3.4 6.5 5.1 9.5 8 8.2 7.7 10.9 15.4 18 20.2-1.8-20.1-13.9-26.7-15.9-36.4m-179.9-39c-2.6 0-2.6 2-3.2 3.4a60 60 0 0 1-11.6 16.3c-.4.2-2-.3-1.8-1.2 2.3-3.3 5.2-5.5 7-9 2.4-5.2 9.2-9.3 3.8-11.8-9-4.2-6.4-13-14.2-7.5-5.1 3.6-10.9 3.2-16.6 2.5-14.8-1.8-14.9-7.9-17.2-6.6-3.4 1.8-5 8.3-4.5 11.2 2.2 16.3 24.5 15.6 25.5 27.6 1.2 13.3 10.2 9.9 17.7 14.7 10.5 6.7 1.8 5.3 24.8 4.5 1-3.9-1.4-5.5-2.7-8.1q-6-11.6-7-24.7c-.4-3.8 2.1-7.4 0-11.3m51 123.8c.1 2.2 2.2 3.3 3.6 3.3q2.3-.2 3.3-3.1c4-11.8-4-13.4 7.5-32.2l9-14.5a68 68 0 0 0 10.8-32.7c0-.6 3.4-14.4-.5-13.5-.4.2-3.1 12.3-3.5 14.2a88 88 0 0 1-17.6 32.2c-1-.9-1.4-3.3.1-4.6 3.6-3.1 15.5-28.8 16.2-37.2l.6-7.1 12.3-6c-5.3-.8-20.1-6-22.7-7.7-3.9-2.6-7.8-2.4-12.2-2.4-3.4 0-4 2-6.2 3.6-3.7 2.6-9.5-1.3-11.2-5-1.2-2.4-3.1-3.4-4.6-5.4-4.4-5.4-8.4-11.3-14.6-15-5.7-3.3-17.6-.3-24.5 2.2 3.4 1.8 6.7 2 10.2 3.6l11.9 5.4c6.8 3 10.3 10.2 15.2 15.4 4.2 4.4 10.5 4.2 16 5.4 10.6 2.1 16.6 3 28 5-5.3 11.6-7.1 15-14.2 25.3-1.5.5-2.8-.4-2-1.8a51 51 0 0 0 10.2-20.8c-8.7-4.2-22.6-3-33.9-4.6-9.2-1.4-16.6-24-33.4-24.7-1.6 3.3-.1 6.7-.7 9.8-1 5 .3 8.7 2.2 13.1 2.3 5.7 4 12 9.2 15.8 11.7 8.9 6.6 2.6 16 13.8 2.6 3 5 5 5.6 9.5s1.5 8.8.2 13.4l6.6 3.4c2.3 1.3 4.2 4.5 5 7 1.8 5-.5 9.8-.9 14.7-1.5 19.2 2.6 16.5 3 22.2ZM86 557.2q-1-9.6 0-19.3c.4-2.4 3.2-4.9 1.6-7.5-4.5 2-14.5-3.9-16.4-8.2-3-6.3 6.3-15.1 7.5-19.9 1.6-6.7 2.2-15.3 9.8-22 1-1.7-.5-2.6-2.1-1.5l-8.7 6.3c-8.2 6-9.1 18.5-10.7 26.5-1.1 6-10 11-7.1 14 4.9 5.4 6.2 12.4 2.3 18.7 1.5 19.5 2.4 7 6.4 19 14.7 2 12.6 2.9 23.5 8.5 1-4.7-5.2-6-6.1-14.6Zm44.5-37.1c2.7 1.6 3.3 3.5 5.8 3.8-4.7-5.2-2.7-19.6-15.6-17-4.3 6.3-13.2 2.4-13.8 5.7-.6 3 2.4 4.5 4.4 5.2l11.4 3.8c3 1 5.3 1.6 7.8-1.5m-41.6 6.1.7-9.6c.3-2.8 2.2-4.7 3-7.1q-4-1.4-8-1.3c-3.9 3.5-10.7 8.7-6.1 14 2.5 3 6.4 4.6 10.4 4m145.5 79.6c-.2 5.4-2.4 11-6.5 14-5.8 4.4-11.8-8.5-13.8-12.6-4.1-8.7-.4-11 0-21.4-3.5 5.9-6.4 11.8-10.6 17.5-3.8 5.2 1.1 15.8 4.2 20.6l5.2 8.4c5 7.8 15.5-2 17.8 9.5 1 5 4.6 9 9.7 10.2 7.6 1.7 12 6.4 13.6.9l4.2-13.7c2.5-8.3 19-22 19.6-39.5.2-9-3.3-16.4-7.1-24-3.6-7-3.8-16.4-.3-23.4 1.2-2.4 2.4-4.1 3.3-6.8A50 50 0 0 0 277 520c-.7-2.5 1.4-11.2-2.2-11.6-.9 0-6.3 6.1-11.3 7.3-1.3 2.7 2.4 5.4 4.7 6.7 2.7 1.4 6 24.3 1.1 17.9 0-5.7-1-10.1-2.8-15.3-1.6.7-1.7 2.4-1.4 4 .4 2.5 1.4 32.6-2.5 36-2.2-8.9.3-17.2-.8-26.3 2.2-1.9.5-3.4-1.2-1.9.2 13.8-.8 14.3-3 24.1l-4.1 17.8-2.4 9.7c-1.8 7-3 29.6 1 37.2-2.7-.3-2.3-2.8-3-4.7l-2-6.6c-3.2-9.9 3.4-37.4 5.5-47.2.4-2 3-3.5 1.2-6.1l-3.7 8.3c-1 2-1.5 5.6-3 6.5-9.3 5.9-12.5 19.2-12.7 30m-132-93.6c.7-4.1-8.3 2-7.2 9.4 3.2-2.2 6.7-4.9 7.3-9.4M277 621.7c6.6-2 6.1-7.4 7.5-12q2.6-8.5 5.6-16.8c6.9-18-2.6-17.2-1-35.5 1.1-11.4-1.5-22.7-3.2-33.4-.5-3.2 2.4-6.9-.4-10-2.1 1.4-2.6 3.8-2.4 6 2 34-20 31.6-3.5 63.2 1.4 2.6 1.6 4.9 2.3 7.5a32 32 0 0 1-2 22.1c-1.3 3.1-1.3 6.8-5 9q1.6 2.5 2-.1m-162-84.4c-1-7.2-4.1-15.8-10.6-15.6-1.8 0-3 2.2-5.7 2.8 1.3 2.5 12.4 11 16.3 12.9Zm28.9 36.8c3.6-1.2 5.5-4 7.1-6.3-1.2-2.8-3.3-2.9-5.9-3a77 77 0 0 1-27-7.1c-1.4-16.3-4.3-14-10.4-20-4.2-4-7.7-8.2-12.8-10.7-1.8 13.6-.3 10 6 17.6 10.6 12.6 4 4.6 10.3 20.6 12.6 4.6 16.7-.5 26.8 6.8 1.6 1.1 3.6 2.9 5.9 2.1m-16-36.6c-3.5-4-6.8-7.4-10.8-10.7 0 2.7 8.3 20 10.8 10.7m2.8-6.6c-1.4-3.4-3.8-4.4-6.7-4.4 1.7 2.5 3.8 4.4 6.7 4.4m14 12.2c.4-6.8-2.6-12.4-5.6-12.7-6.9-.4 2.2 12 5.6 12.7m21.8-5.2c-3.7-.2-6.7 0-9.2-2.5a13 13 0 0 0-7-2.5l-.8 7.9c-1.1 10 2.1 10.1 8.1 18 6.3-2.7-2.2-13.2 9-20.9m33.7 6.7c-6-5.5-3.8-8.4-14.2-10.1 0 5.4 2.6 8.4 4.4 12.4 3 7 8.2 10.4 13.7 15 4.2-4.6 0-13.7-3.9-17.3m-9 14.3c-5 .6-7.7 4.5-12.7 5.6-3.1-2.8 8-4.2 12-10.4-8.5-11.2-2.8-17.4-12.9-18.3-5-.4-6.7.8-8.7 4.6-3.1 6-3.5 11.6-1.5 18.3 0-.3 1.8 17.2 2.5 17.2.8-4.2 3-4.4 6-5.5 6.2-2.3 10.8-7.1 15.3-11.5m-32.3 17.7c-.3-.5-1.6-1.2-2.2-.4-4.5 6.2-14 5.8-20.3 1-1.7-1.3-4.1-1.3-6-2.5-7.8-5.3-9.6-.7-20.2-5.6-9.4-4.3-1.4-7.9-11.5-19.7-2.3-2.8-3.6-6-6.8-8.2-2.1 5.7-2.4 12.2.1 17.5l6.7 14c6.4 13.6 16.6 12.3 27.8 13.3 3.4.3 6.6 2.3 10 1.5a46 46 0 0 0 16.2-6.7c4.4-3.7 7.3-1.5 6.2-4.2m-14.3-22.5c1.1-2.3-.9-5.2-1.5-6.7-11.3 5.4-8.7-2.2-21.5-3.5q0 5.5 2.4 10c3.3 5 18.3 5 20.6.2m4 5.6c-.5-2-1.8-2.6-2.7-2.3q-1 .5-2 2.3c2 .3 3.2.3 4.8 0m45.3 3.3c1.7-1.9-.3-2.5-2.1-1-1.5 2.6-.2 3.5 2.1 1m5 .3c-7.3 5.7-10.7 13.3-15.4 20.2l-8.5 12.5c9.3.5 25.3-24.7 24-32.7m-47 12c5.9.1 13.8-5.6 11.5-10.4-3.2 1.6-4.3 3.6-6 5.9-1.6 2.1-4.6 2.2-5.6 4.5m37.7-9.2c-5.2 2.5-22.8 12.1-22 15.8 6.5.2 19.5-12.5 22-15.8m-3.3 38.5c3.2-1.6 3.9-5.3 6-7.7 3.3-4 6-7.7 9.1-12s7.9-7.6 9.5-12.4c-.7-2-3.7-5.5-6-4.9s-5.3 3.8-5.9 5.9c-.9 3.6-2.5 5.7-4.2 8.7-3.6 6-7.1 12.3-13.6 15.9-7.8 4.3-14.9 10-17 19 11-2 10.4-6.6 22.1-12.5Zm11-5.2c-2 3.6-6 5.9-8.5 9s-6.1 3.9-8.8 6.2c-4.6 4-20 11-27.3 9.5-5.2-1-6.8-6.7-9-10.5-2.4-3.9-7.7-4.4-11.2-6.3-4.8-2.5-5.5-7.5-6.7-12.2-2-7.2-19.5-1.3-27.8-13a17 17 0 0 0-5.9-5.7c-3.7-1.5 2.3 15.3 3 16.5 8.5 15 16.3 11.3 18.4 19.8 1 4.1 4.8 15 9.6 16.4 9.4 2.8 12.7-5.3 26.1-1.5 10.4 3 22.1-2.9 30.3-7 4.9-2.3 7.5-5.4 10.9-9.4 4.2-5 9.4-9.3 11-16.3 6-3.9 9.9-10 10.5-16.4-9.3 14.3-7.8 7.5-14.7 21m-31.2 6.8c-.1-1.3-1.6-2.1-2-3 3-7 13.3-11.1 14.7-21-4 3.3-15.1 8.1-19.7 5.4-2.2-1.7 1.6-4.3 2-7-8.9 5.2-20.9 12.3-32.3 11.6 1.6 16.5 10.8 9 18.3 17.7 1.8 2.2 2 5.4 4.2 7.4 2 1.8 6.9 1.7 8.3-.7zM75.7 792.2c-2-3-6-8-9-8.8-5.5-13 2-14.7-1.7-25.6-1.5-4.7-4-10.9-2.3-16 4.6-13.2 27-31.9 38.2-36.2l11.5-4.4 10.2-3.7c8.2-3 25.5-17.4 31-25.2 12 4.4 15.6 11.9 16.6 24 1.2 13.9 1.7 17.7 1.2 31.4l-.3 9.7c-.4 10.7-7.6 20.4-15 28.7l-9.1 10.3c-8.7 9.8-28.5 16.4-41.4 19.2-10.6 2.2-23.2 7.1-29.9-3.3Zm70-33.7a44 44 0 0 0 19.2-20.9c5.1-12.7 2.5-26.8.4-40-.7-4.8-1-9-4.7-12-1.4 6.8 1 17.4-1.6 22-1.9 3.3-2.5 6.9-3.5 10.5-2.1 1.5-3.8.3-1.6-1.6 1.8-13.1 4.6-12 3.3-26.3-4.4 5-3.7 11.5-7.8 18q-5.1 8-9.2 16.6c-.5 1-2.5 1.2-2.5.5.1-4.2 2.5-2.6 8-14.8 2.4-5.4 5.2-10.1 6.3-16.1.5-2.7 3.7-5.5 2.1-8-.5-1-2.2-1.6-1.4-3 .6-1 1.3-2.3 2.5-1.3 1.3 1.2 1.9 3.7 3.9 2.4-3-3.2-4.1-5-4.5-7.9-2.6 6.9-15.9 16.8-22.1 21-9.1 6-28.9 10.7-36 16l-8 5.9c-6 4.5-15.5 14-19.6 21-3 4.8-.9 11.3 1 16.1 3.3 8.3-4.4 18.5-.8 23.3 2 1.4 6.1 2.6 8.4 3 8.6-2.3 11.9-11.6 19.3-13.1-5.5 7.2-15.3 11.7-18.7 16.1-.8 1.1 0 2.9.8 3 13.7 1.7 18.9-3.5 28.7-15.7 4.8-5.9 30-10.2 38-14.6Zm-57.7 36c13.3-2.4 31.6-6 42.7-13 15.7-10 13.8-7.3 26-23.4 1.5-1 .2-3.2-.3-1-5.5 4.7-12 7.9-18.7 9.9l-7.7 2.2c-6.6 2-13 3.6-18.2 8-4.3 3.8-9 6.6-12.9 10.8-5.1 5.4-10 2.4-10.9 6.4M286.4 875.3c2.8 11.3-4.9 9.4-9.5 16.3-2 3-6.2 5.3-10.1 4.7-16.3-2.7-29.3-4-43-13.3s-17.8-15.2-25-29.2c-4-8.2-4-31.4-3-37l1.4-7.4c1.4-7.5 2.8-15 9.5-19 9.5-5.4 8.8 15.7 37.6 24.2 9 2.6 14.2 5.1 22.2 10 3.5 2.2 14 13.5 17.2 17.5 10 12.5-1.7 15.7 2.7 33.2Zm-5.2 6c1.9-1.6 2.7-4.5 1.6-7.2-7.6-18 15-16.2-16-43.8-11.3-10-28.7-11.2-41.9-21.5l-9-7c-1.2-1-1.2-3.7-4-2 2.2 1.7 2.7 4 3.1 6.7.6 4 4.3 5.4 6 9.9-3.2 1.8-6.6-12-11.1-11.8.6 5 4 8.3 5 12.9 1 3.6 2.7 6 5 10-4 2-9.3-15-11-19-3.3-8 1.4-7-1.3-8.6-.7-.5-1-1.4-1.7-.6-3 3 .5 4.3.2 10s2 9.5 2.2 15.1c-6-8.2-1.8-10.9-5.7-19.5-2.6 3.7-2.6 17.2-3 19.3-1.3 9.9-1.2 20.3 5.6 28.1a51 51 0 0 0 18.7 13.2l12.5 3.6c4.1 1.2 8.4 2 11.6 5l9.4 9c4 3.8 9.5 5.9 15.2 4.9 1.7-.3 1.7-2.4 1.4-3.5q-.4-1.2-2.4-1.8c-4.5-1.5-7.4-5-10.8-7.8-3.1-2.6-7-4.6-9-8.6 3-4.3 21 22.5 29.4 15.1ZM266.7 892c-4.5-2-7.5-1.4-9.8-4.6-1.6-2.4-4.5-3.7-6.5-5.7q-6.3-6.4-15.1-8.5c-3.3-.8-6.4-2.2-9.7-2.7a27 27 0 0 1-14.8-8c-2.7 1.7 6 10.5 8.2 12l8.1 5.5c2.6 1.8 4.3 3.1 7.2 4.3 5 2 29.3 10.4 32.4 7.7M86.4 1006.1c-6.3-20.5 3.7-25.5 4.8-32.2s.5-13.2 3.3-19.2c3.2-6.8 7.9-14 14.4-17.5l19.5-10.5c1.2-.7 11.1-7.2 13.8-8.8 10.7-6.5 4.8-17.8 9-21 7-5.5 13.2 25.6 13.4 28 1.4 13.5 2 25.3-5.7 35.7-1.4 1.9-1.3 4.5-2.8 6.2a18 18 0 0 0-5.2 9.7c-3.3 3.6-6.5 7.4-10.4 10.4-5.4 4.2-22.4 8.7-25.8 10.7-9.6 5.8-14.5 12.8-28.3 8.5Zm9.3-29.7c-.6 2.1-7.5 10.5-7.1 12 .6 2.4 3.6 3.3 3 5-1.3 3.3-4.4 2.6-1.8 7.3.6 1.2.6 2.7 1.6 3.3 5 2.8 14.8-5.9 18-8.3a45 45 0 0 1 18.8-7c3.2-.6 4.8-2.7 7.2-4 4.3-2.4 7.2-4.6 10-8.8 4.2-6.2 14.7-25.9 15.6-32.8 2.4-17.6-4.5-28-3.6-33.4.2-1-1.3-2-2.2-2.3.3 22 0 21-9 41.4.6 3-2.7 2.7-2.6-.1 3.8-7.3 6-12.2 7-19.5.5-3.6 3.5-6.7 1.4-10.9.3 3.7-13.4 26.1-15.5 21.7-1-2 7.8-5.9 10.8-18 .6-2.2 3.4-3.2 2.6-6-2.6 3.6-19 15.9-21.4 16.6a52 52 0 0 0-24.2 14.6c-11.6 12.6-6.4 21.7-8.6 29.2Z"/><path d="M210 389.7c-.8 2.1-1.8 1.2-1.8-.7-1.4-1.7-1.7-4-.3-5.5.7 2.1.8 3.5 2.2 6.2M259 169.1l2.1 1.1c.9.5 1 3-.4 2.7-7.5-1.8-13.7-5.5-20.5-8.4-1.9-.8-3.9-.6-4.6-2.8 4.3-1 7.1 1.1 9.7 3.9.2.2 13.3 3.3 13.7 3.5M50.7 390.6c-1 .8-4.4 1.2-5-.5-.4-1.4 1.5-1.9 2-1.5.3.3.6 1.2 3 2M166.3 510.1c-11.2 16-11 8.4-9.4 7.1 5.5-4.1 7-11.2 9.4-7M404.5 208c-1.6 3.5-3 4.3-5.8 5.4-.3-2.9 3.2-5.3 5.8-5.3"/></g></svg>