<?xml version="1.0" encoding="UTF-8"?><svg id="Layer_2" xmlns="http://www.w3.org/2000/svg" viewBox="0 0 603.13 1007.44"><g id="Layer_1-2" fill="#e43122"><path d="M294.49,548.55c-5.57,25.57,8.4,22.25.06,49.22-7.76,4.04-.48,13.58-9.97,24.56-3.58,4.13-7.42,7.4-11.62,10.73l-5.61,4.45c-5.35,4.25-6.86,16.8-10.35,20.38-3.11,3.2-8.49,1.31-11.76-.61-4.82-2.83-13.04.15-18.89-15.38-1.57-4.16-8.69-3.95-10.78-.28-1.53-1.81.45-3.2-.06-4.51-1.28-3.27-5.01-4.01-7.3-6.28-5.39-5.33-6.74-12.86-10.26-19.97-5.36,9.8-12.63,12.88-22.79,18.72-4.41,2.54-8.71,3.38-13.64,4.05-15.71,2.13-14.05-5.17-27.46-1.43-4.36,1.21-11.25,2.63-14.78-.2-5.51-4.4-6.73-11.35-9.57-16.98-3.33-6.6-19.49-9.63-23.53-39.62-3.81-5.22-10.95-3.39-16.01-1.32-6.66,2.72-13.18-2.68-14.5-9.12-.25-1.21-.41-2.01.09-2.81,1.95-3.12,3.45,6.59,7.9,8.46,3.52,1.48,7.72.32,10.34-1.31-1.42-3.13-4.38-3.27-6.56-4.89-3.04-2.25-5.58-4.58-9.45-5.55-5.49-1.37-2.21-9.02-4.2-12.02-3.65-2.48-7.59-4.47-10.19-8.3-4.98-7.35-16.73-9.61-21.1-18.26-3.4-6.71-.25-13.79,3.91-19.27,5.55-7.32,9.84-14.8,13.36-23.14.7-1.65,2.65-2.61,2.26-5.1-15.62-3.4-20.82-4.52-29.04-20.36-1.3-2.51-8.77-7.06-12.42-11.34-1.55-1.83.49-8.12,2.78-8.81,6.89-2.06,16.69-3.85,23.11-9.55,8.64-7.67,18.67-11.97,31.23-13.56-2.38-3.24-6.16-2.92-9.14-4.55-6.48-3.54-10.37-9.68-14.01-15.78-4.56-7.63-13.19-10.55-11.85-17.85,1-5.45,11.49-4.93,7.77-12.84-3.22-6.85,5.44-10.34,10.22-11.92,6.79-2.24,12.37-.76,18.99.81l10.02,2.38c4.56,1.08,9.83,2.09,14.61,1.7l17.15-1.4c8.24-.67,14.09,1.64,10.13-2.26-4.5-4.44-10.91-18.83-10.63-24.62,1.05-21.09,2.13-11.92,12.13-22.03,4.39-4.44,5.94-9.96,8.56-15.21,5.41-10.86,18.64-8.53,24.54-10.19,3.83-1.08,6.74-5.7,11.32-5.77,8.78-.14,19.63,22.3,27.03,27.29,3.09,2.08,5.64,4.36,8.86,6.01l10.76,5.5c3.27,1.67,12.77,12.33,15.64,17.67,3.65,6.79,3.98,15.5,6.44,18.64,8.09,10.32,6.93,15.8,11.41,19.93,1.55,1.43,4.08-.92,4.95-2.41l5.95-10.19c2.03-3.47,2.59-7.83,3.32-11.86,1.73-9.57-3.2-21.12-3.16-27.28.03-4.58,6.33-27.4,11.32-31.1,2.73,8.72-3.26,10.27-2.91,18.67.87,20.37-2.79,9.86,3.82,29.16l4.13,12.03c1.89,5.5-.11,19.26-.78,25.35-.47.65-.9,1.08-.1,1.4,2.52-1.28,3.67-3.47,5.44-5.45l10.52-11.81c3.9-4.38,6.86-8.78,10.27-13.57l6.61-9.27,7.41-11.09c1.75-2.62,3.17-5.13,4.88-7.69l6.36-9.52c3.09-4.63,6.91-8.32,9.42-13.15l5.9-11.38c-1.38,2.67,12.07-18.38,11.45-18.29.83-.34.82-.87-.05-1.2-2.26.93-4.08,2.51-6.55,1.19,3-7.51,14.21-12.12,19.54-17.01,2.14-1.96,6.56-10.67,18.7-18.45,7.55-4.83,21.51-16.78,24.01-18.25,4.53-2.65,7.4-6.45,11.34-9.48,4.35-3.35,7.94-6.83,12-10.58l9.02-8.33c2.15-1.99,5.01-3.18,5.7-6.65,1.34-.53,2.52-1.46,1.15-1.92-15.47,5.02-27.86,10.34-42.65,11.42-16.55,1.21-22.87-.29-36.58,7.67-3.54,2.05-7.58,2.55-10.65,5.64-2.19,2.2-5.12,3.3-7.91,4.77-8.07,4.24-15.52,9.79-24.5,12.12-6.35,1.64-13.25.36-19.79.61-3.53.13-6.22-2.05-9.12-3.26-6.61-2.77-.37-9.18-8.17-10.15l-11.23-1.4c-20.73-2.58-23.32-1.68-37.38-16.24-6.65-6.89-11.45-14.33-15.71-22.93-2.28-4.61-6.22-8.57-9.32-12.67-6.89-9.1-10.44-8.59-11.91-11.25-.39-.7-.31-2.53.91-2.67,5.08-.6,8.26,2.64,12.29,4.13,7.12,2.62,14.53,3.88,21.89,6.07,9.53,2.83,9.42,9.46,16.16,13.76,7.64,4.88,16.9,3.86,24.34-.56,8.12-4.82,22.91-4.58,32.34-2.67,10.28,2.08,27.77,11.63,36.53,18.07,6.04,4.45,18.03,11.23,25.41,10.24l15.62-2.11c-.56-2.84-3.37-3.39-5.83-4.39-7.67-3.12-14.63-6.44-21.37-11.24-1.33-.95-3.65-.41-4.87-1.52-25.8-23.43-13.95-27.24-17.81-46.36-2.51-12.45,1.75-11.36,3.53-18.26,1.44-5.61,7.32-20.08,10.39-24.17l10.64-14.18c1.5-2,1.98-4.48,4.9-5,1.51-.27,2.05.46,2.76,1.13.95.89.67,2.32-.46,3.44-3.09,3.08-7.99,16.36-6.62,20.89,1.74,5.73,4.32,11.78,9.28,15.13,3.39,2.29,8.8.61,11.71,3.48,4.95,5.33,2.22,15.87,7.12,18.69,6.55,3.77,3.83,15.04,1.17,19.06s-4.09,8.33-6.08,12.65c-1.16,2.51-.05,5.62-.33,8.24-.84,8.02,3.16,14.12,9.6,17.97,2.21,1.32,3.32,3.25,6.52,3.2s18.8-2.58,21.27-4.85c2.25-2.07,4.9-2.78,7.74-3.71,9.27-3.02,17.38-7.92,26.21-11.99,6.97-3.21,12.84-7.21,18.43-12.41,2.39-2.22,5.1-3.95,7.26-6.53,4.82-5.74,10.52-10.02,16.17-14.81,3.55-3.01,6.42-6.67,9.48-10.21,4.47-5.19,9.41-9.57,14.23-14.48,10.6-10.8,27.5-31.38,35.3-44.29l10.12-16.76c3.47-5.74,19.76-29.95,23.08-32.81,1.6-1.38,5.76-1.19,7.53-.23,1.11.6,1.46,2.85.68,3.01-4.34.86-5.86-4.13-7.82-1.12-1.46,5.59-4.32,10.07-6.65,15.11-5.57,12.02-6.12,10.87-11.43,21.22-1.78,3.48-4.56,6.12-6.82,9.28l-6.78,9.43c-3.45,4.8-5.34,8.32-8.46,12.82-14.67,21.17-30.6,40.77-48.41,59.39-1.11,1.16-2.25,1.31-3.89,5-1.33.95-1.13,1.54.24,1.24,3.88-2.5,6.66-5.75,10.05-8.59l14.12-11.78c3.76-3.13,8.21-5.06,9.7-10.2,1.03-.4,3,.85,3.44,1.39,1.54,1.86-1.68,4.99-1.58,9.97,2.31-2.71,2.35-6.19,3.44-9.78,1.01-3.32,3.57-5.9,4.35-9.14,2.1-8.64,7.91-11.59,10.09-15.88,1.79-3.53,10.13-16.96,11.7-18.45,10.02-9.49,12.71-18.17,22.2-29.77l12.3-15.04c3.89-4.76,7.72-9.33,12.21-13.86.45-1.42,1.83-1.24,1.06.31,2.17,10.32-4.09,7.69-13.76,22.85l-10.72,16.81c-2.67,4.19-6.45,7.48-9.53,11.41l-15.86,20.25-5.56,6.68-5.63,6.99c-9.5,11.79-4.21,15.17-12.82,30.55-1.32,2.35-2.86,5.39-6.17,4.29-2.98-.99-.63-7.31-2.21-8.02-3.67-1.65-4.04,4.91-12.28,9.12-5.61,2.87-25.35,21.89-33.02,27.92-13.05,10.26-8.49,13.04-13.83,18.26-7.55,7.37-12.2,16.65-13.82,27.16-.24,1.57-1.93,2.79-1.96,4.37-.11,6.75-6.61,31.55.66,36.11,4.36,2.74,11.15,5.45,16.44,4.01,3.42-.93,5.77-3.49,9.78-4.01,8.02-1.06,15.58-4.87,25.36,4.35,1.38,1.3.3,7.46,3.5,7.54,4.46.11,4.2,2.78,6.03,5.65s9.07,4.67,11.74,2.47,4.28-11.07,20.74-13.09c3.68-.45,7.04-2.27,10.79-.51.83.39,2.37,2.01,1.47,3.25-1.87,2.59-3.92,5.66-6.61,6.9l-5.86,2.71c-4.1,1.9-11.1,21.04-20.97,26.09-4.52,2.31-9.66,1.8-14.41,3.43-6.69,2.3-13.11,10.39-21.68,6.5-2.8-1.27-6.89-.48-9.37-2.88-2.88-2.8-7.49-4.04-9.83-7.02-8-10.2-11.1-22.45-18.5-31.63-1.43,2.04,1.58,20.36,2.58,22.54,4.3,9.43,2.03,11.29,9.8,21.22,6.12,7.82,11.82,10.78,20.5,17.79l6.91,5.59c7.67,6.2,14.11,12.99,19.04,21.7,6.21,11-1.04,14.87,7.21,33.94,3.63,8.39,4.85,23.9,3.1,33.24-.09.47-1.46,15.98-1.71,16.69-4.6,13.05,6,29.84-1.74,26.68-.7-.28-1.85-1.29-1.93-2.5-.45-6.03-3.37-9.78-6.46-14.26-7.78-11.3-13.03-28.61-20.85-32.84l-13.04-7.06c-8.98-4.86-14.68-15.34-14.96-25.55l-.58-20.82c-.11-3.82-2.05-7.28-2.03-11.19l.08-23.37c.02-4.91-8.93-39.91-10.75-43.02-2.02-3.44.33-7.82-1.21-11.95-5.83,13.59,1.84,18.17-1.15,35.72-.99,5.8-1.08,11.69-1.66,17.68-1.03,10.58,4.11,7.22,1.46,27.82-.78,6.05-4.05,10.39-7.6,15.13l-5.73,7.66c-2.19,2.93-4.13,5-5.8,8.2-3.42,6.57-7.24,17.88-7.74,25.78-.09,1.4-2.69.68-3.25-.57-7.16-16.04-2.53-15.7-3.24-23.06-1.55-16.26,2.73-15.68-3.27-28.77-1.73-3.78-5.6-6.05-6.92-10.02s-2.82-8.93-1.22-12.94l3.51-8.86,6.9-15.32c2.7-6-4.39-9.35,6.21-28.87,1.26-2.32,1.84-4.06,4.58-5.13,2.97-1.15,4.5-4.92,7.34-6.23,6.81-3.15,14.21-11.55,14.54-19.33.18-4.09,1.62-7.95,1.27-12.3-.17-2.19,1.29-22.88,1.4-23.38l4.09-17.98c1.34-.99.06-2.83-.7-1.3l-19.69,19.03-10.8,8.28c-5.6,4.29-10.15,9.47-15.91,13.66s-25.01,22.63-29.69,28.69c-2.29,2.97-4.48,6.24-7.01,9.01-11.99,13.12-10.79,17.57-17.88,25.64-2.19,2.48-3.53,4.47-5.27,7.31l-8.93,14.53-3.99,6.92c-3.74,6.49-6.74,12.84-10.75,19.19l-5.7,9.04-4.98,7.67c-4.81,7.4-8.74,14.84-14.68,21.46-1.52,1.7-2.7,3.37-3.12,5.58,6.37-.57,12.59-1.08,18.49-4.03,4.2-2.1,8.68-3.62,12.67-6.09,19.93-12.37,18.62-3.82,17.54-3.36-7.87,3.33-27.73,21.44-31.07,27.22l-5.07,8.79-7.8,16.84c-.01.66,1.32,1.02,1.89.51,3.23-2.88,6.98-3.1,10.71-4.51,16.63-6.3,18.22-2.23,22.26-1.46l8.14,1.54c-5.36-1.02,22.49,8.38,22.41,8.35,6.44,3.04,12.76,5.87,18.16,10.74,11.51,10.4,22.9,2.49,22.94,7.48.01,1.5-1.06,1.23-2.56,1.66-24.61,7.11-28.71-1.36-44.14-12.67-13-9.52-30.34-6.62-43.28,1-3.16,1.86-6.78,2.77-9.81,5.2-3.66,2.93-7.25,5.37-12,7.07,3.11,2.25,7.25,2,10.92,3.76,4.62,2.22,8.83,4.35,13.68,6.19,4.37,1.65,15.18,9.02,20.88,12.39,6,3.55,17.05,20.58,20.32,28.17,2.62,6.09,2.67,12.87,4.35,19.32l2.3,8.82c1.58,6.09,5.16,11.17,8.45,16.34,3.37,5.3,2.57,11.46,4.12,17.25l3.42,12.73c1.25,4.67.16,11.35-5.52,13.02-4.63,1.36-9.54-2.03-13.26-4.22l-8.07-4.76c-7.91-4.67-11.38,1.79-14.96,2.55-19.1,4.04-27.95-14.46-34.98-27.94ZM348.07,73.31c.84-2.76,2.72-3.21,1.48-4.76-.79.12-1.95,1.21-2.11,1.92s-.25,2.98.63,2.84ZM353.32,126.88l4.9-9.4c.63-1.21-.09-8.65,2.29-8.01.54.14.85,1.49.62,2.4l-2.51,10.11c-1.31,5.27-4.47,11.24-1.91,16.7,6.31,13.44,6.45,10.95,16.33,21.71-4.84-26.36,8.86-25.6,7.81-43.22l-5.05-2.93c-1.05-6.29-1.97-12.13-4.16-18-21.36-1.04-19.55-20.97-23.5-18.8-3.67,2.02-1.94,10.78-3.46,14.92-3.46-1.52,1.34-12.09-.71-16.2-.34-1.17-.9-2.93.82-2.26-3.88,4.35-3.82,7.73-5.39,11.48-1.42,3.41-4.17,6.36-4.12,10.45.04,3.31-2.44,5.18-3.59,7.68-2.07,4.52,1.81,9.26,1.44,13.65l-1.2,14.41c-.63,7.6,11.17,20.4,14.11,22.45.78.54,21.09,9.85,23.85,10l-4.73-5.55c-12.45-14.63-12.55-8.74-23.23-21.24,3.33-2.42,8.56,11.74,14.32,7.4-5.72-11.03-6.19-17.57-7.08-27.58.31,3.52-4.62-22.87-4.34-23.84,2.67-1.43,5.24,13.44,5.47,14.89l3.02,18.76ZM268.74,377.54c-1.24-.62-1.12-2.15.06-2.84,2.9-1.7,4.01-4.36,6.1-6.65l9.55-10.46c.64-.71.69-1.59,1.2-1.4.55.2,1.01.62,1.77.81,1.59.4,3.58-1.3,4.42-2.95l13.3-26.07,7.39-11.49c3.54.31,4.9-1.29,5.76-4.24,1.27-4.35,6.58-7.6,7.44-11.79,1.12-5.45,2.21-9.23,5.81-13.56,2.35-2.83,2.3-7.49,6.44-9.63.73.66,1.05,2.14,1.5,3.08,3.32-2.04,3.14-6.14,5.37-8.47,3.02-3.15,4.81-6.76,7.55-9.9l11.53-13.21,8-8.16c2.1-2.14,4.24-4.08,6.58-6.04,3.73-3.12,6.12-7.92,10.18-10.71,6.88-4.74,13.35-9.35,19.65-14.88l13.31-11.68,13.05-10.53,14.38-15.38c8.05.15-7.15,17.8-4.56,23.74,2.7-4.26,3.63-8.97,5.51-13.79,1.11-2.84,14.38-25.18,16.97-26.8,9.42-5.88,5.98-5.97,15.71-12.82,2.46-6.86,6.92-11.6,11.91-16.71,3.54-3.63,6.36-7.43,10.55-10.57,2.53-1.89,3.06-5.91,5.45-8.16,1.9-1.78,4.15-3.28,5.72-5.34l6.46-8.49c-3.49-.02-4.41,3.67-6.35,5.96-5.03,5.95-10.98,10.49-15.86,16.4l-3.43,4.16c-2.79,3.38-7.38,5.03-9.93,8.46-2.31,3.11-4.39,5.49-7.65,7.66-6.11,4.05-10.25,10.27-15.98,14.76-5.23,4.1-9.64,8.43-14.3,13.05l-4.35,4.31-15.57,14.3-12.76,11.96c-9.69,9.08-20.49,18.38-31.11,25.96l11.51-3.85c-3.5,2.88-6.4,5.97-9.83,8.09-7.21,4.45-28.96,21.4-30.41,21.83l-6.61,1.92.85,5.86c-4.45,8.68-10.4,15.94-15.31,24.22-1.44,2.42-2.86,4.44-4.56,6.69-2.52,3.34-3.62,7.54-6.6,10.7-3.9,4.14-14.13,22.77-16.74,25.79-1.9,2.2-2.67,4.39-4.29,6.73l-7.52,10.87c-5.81,8.39-14.31,21.06-21.98,27.89-9.61,8.56-10.11,13.75-21.78,22.93-2.35,1.85-3.85,4.21-6.89,5.57-1.12.5-1.76,2.59-2.04,3.9,7.4-6.01,8.32-5.92,16.46-10.74,3.69-2.19,9.04-2.11,12.28-5.03,3.81-3.43,15.8-18.46,15.71-24.85-6.96,3.91-13.54,12.8-19.07,19.57ZM240.2,154.88c-.21-.5-1.12-.56-1.52-1.14-6.99-10-16-16.2-28.58-15.14,6.49,6.6,10.57,11.83,19.78,15.02-.96-.33,12.13,5.7,10.31,1.25ZM254.16,179.03l16.33-1.81c-1.52-1.7-3.39-1.15-3.52-2.93,2.71-.72,4.95.23,7.57.62l12.82,1.89c4.7.69,16.64,4.88,27.94,4.19l-15.36-11.71c3.74-1.87,10.18,8.07,17.91,9.42,17.75,3.1,11.41,1.58,30.1,1.48,4.45.84-17.03-13.07-17.12-13.13-4.84-3.13-9.99-5.55-15.05-8.36s-9.87-3.82-15.03-5.46c-10.95-3.47-15.13-2.16-27.36.33-8.96,1.82-6.2,7.14-25.16,7.36-4.96.06-9.73-1.49-14.44-2.5s-15.21-7.45-18.78-11.73c1.33,5.35,4.91,9.9,8.32,14.83l4.97,7.2c2.92,4.23,6.43,6.82,9.39,10.98,3.43,4.82,10.89,6.36,16.4,7.87,13.08,3.57,17.21.11,32.38,7.58,1.75.86.94,4.53,1.93,5.79,5.26,4.28,12.53,4.12,19.16,4.28,4.49.11,7.26-1.5,10.95-3.12,9.07-3.97,17.65-8.13,25.67-14.17,2.31-1.73,4.76-2.45,7.02-3.54-5.2-1.61-9.25.54-13.65.47-5.73-.08-10.16.96-15.01,3.73-13.01,7.44-11.54,7.89-26.1,5.77,6.21-.09,19.48-4.06,23.61-8.17l-22.08-3.98c-3.02-.54-5.68-1.65-8.74-2.31-18.83-4.09-24.85,4.93-35.06-.88ZM449.08,156.89c-6.76,1.63-10.95,4.67-16.23,6.8,6.5-.01,12.07-3.05,16.23-6.8ZM370.56,232.33c3.54-3.98,8.28-5.31,10.38-9.96-6.5,3.89-11.85,8.47-17.04,13.81.96,1.43,1.98,1.69,3.09.76,1.43-1.2,2.13-2.99,3.58-4.61ZM477.65,280.46c-16.52-5.42-10.07-19.13-24.55-22.7,1.26,5.6,4.64,8.92,6.9,13.31,2.62,5.08,4.99,10.14,10.11,13.52s11.21,5.6,17.46,5.94,6.04-5.85,16.83-10.98c1.36-.64,14.75-9.89,9.59-13.76-2.4-1.8-5.19-2.4-7.96-3.39-6.97-2.49-2.48-7.54-7.18-7.91-3.9-.31-5.57-3.28-4.81-7.32-11.88-11.44-24.69,1.43-34.65,2.17-2.69.2-5.07-1.4-7.19-.2,13.09,20.07,17.99,2.03,36.95,9.86-7.27,3.82-12.15-2.34-20.96,2.48,7.84,10.55,19.18,2.37,28.31,6.14-3.49,1.53-6.34.81-9.69,1.23,5.73,5.98,6.52.67,10.95,2.27-6.63,5.43-23.92-.09-31.61-6.63,1.08,5.52,6.68,13.02,11.52,15.97ZM423.58,327.65c1.31,3.79,2.01,7.69-1.47,10.23-.05-11.93-3.75-7.98-4.09-16.38-1.98,1.13-.07,43.19-6.19,40.34.89-5.09,2.77-29.65,2.23-31.25-1.84-5.43.47-20.89,2.32-28.08-4.07.33-11.82,17.13-12.15,22.96-4.45-3.54-.07-11.49,2.32-15.23,3.27-5.1,5.55-10.75,9.94-15.13,3.54-3.54,10.77-11.16,11.18-15.95.24-2.76,1.84-4.95,2.35-7.5,1.53-7.59,6.35-7.41,5.25-19.44-2.38,2.48-4.48,4.23-6.87,6.52l-8.83,8.46c-2.71,2.6-5.2,5.51-7.37,8.48-4.99,6.8-3.92,20.28-5.55,27.19-2.27,9.67-14.78,23.65-8.49,33.2,3.76,5.7,8.93,11.29,9.32,19.03.19,3.82-.05,7.53.61,11.31,1.04,5.99-.64,11.65.88,17.59,3.03-1.31.88-4.4,2.25-6.02,2.02-2.38,2.15-5.18,3.54-7.84,7.86-15.01,10.09-7.98,17.53-27.09,2.9-7.43,1.65-13.86.67-21.46-1.82-14.15,4.49-32.17-.88-42.94-2.13,5.14-5.18,8.87-7.43,13.56-10.12,21.15-6.61,19.41-1.09,35.44ZM528.7,268.56c3.6-11.86,12.69-16.9,8.5-16.45s-9.37,1.86-12.05,5.05-4.04,16.36-14.92,23.77c-.39.27-.86,1.3-1.04,1.58s.71,1,1.17,1.05c7.02.8,16.1-7.62,18.34-15ZM225.71,352.17c-9.6-11.07-7.48-23.59-17.07-34.55-5.24-5.99-12.82-9.18-19.88-12.35-3.49-1.56-5.86-3.94-8.71-6.03-9.3-6.83-9.25-17.39-20.31-24.77,3,5.67,7.56,8.96,8.54,15.38.54,3.53,2.59,6.22,3.89,9.75,9.23,25.12,23.8,11.78,33.66,23.4,6.23,7.35,12.3,25.33,22.14,34.63.02-1.84-.94-3.96-2.25-5.47ZM162.79,332.71c4.48,3.77-.53-.44,4.57,11.24l5.67,12.98c1.45,3.32,2.53,5.97,4.83,8.81,2.43,3,3.48,7.12,6.31,9.95,5.75,5.75,9.36,12.55,16.26,18.34-1.72-4.95-5.22-8.15-6.59-13.36-.86-3.28-2.49-6.38-4.12-9.5-.28-1.54.59-3.27,1.05-1.53,3.63,4.91,14.19,29.87,18.14,28.56.92-.3,1.11-1.78,2.59-3.43,2.15,6.78,8.63,11.31,15.85,16.31,3.13-7.54,3.9-15.19,5.23-23.17,1.74-10.46-1.72-18.65-7.78-26.71l-4.36-5.79c-2.57-3.42-3.73-7.27-6.73-10.59-3.54-3.92-4.52-9.47-7.22-13.96-9.51-15.81-26.25-4.1-36.69-24.21-6.73-12.97-4.99-20.72-13.97-29.17-4.68,5.72-4.16,18.71-3.3,24.89.08.6-1.77,1.19-2.17.33-.7-1.52.54-3.79-1.05-5.14-1.19-1.02-2.92-1.21-3.01-2.58-.07-1.08-.62-3.34.81-3.52s2.62.25,2.71-.42c.07-.53-.53-10.19-.45-9.83-.53-2.39-2.6-.45-3.76-.14-4.56,1.23-9.29,0-13.7,1.78-5.49,2.23-8.76,13.44-14.27,21.19-2.35,3.31-7.42,3.71-9.77,6.29-4.89,6.39-1.32,22.88,3.8,29.99,1.72,2.39,2.27,6.98,5.47,7.95l14.82,4.48c-.69-4.31-4.18-5.9-6.41-9.01-2.44-3.4-5.69-11.61-7.86-16.09-.39-2.36.93-2.67,2.32-1,2.78,9.8,7.96,17.99,15.2,24.6,3.61,3.3,7.13,4.74,11.83,5.97,3.7.97,10.64,6.63,12.05,6.11.53-.2,1.14-.8,2.04-1.21,8.02,6.4,13.75,15.73,22,19.5-3.36-7.89-7.38-14.07-11.39-20.89,2.32,3.95-13.61-30.41-8.96-28.02ZM461.1,340.27l-.9-12.37c-.27-3.77-2.8-6.96-4.85-10.34-2.16,3.64-.4,6.88-.3,10.48l.28,9.74c.15,5.41,1.71,10.59,1.39,16.1-.39,6.62.69,12.53,1.93,18.84,1.41,7.2,4.17,13.02,9.58,18.06,9.42,8.77,9.28-.19,21.48,14.29,3.09,3.67,3.78,8.02,5.63,12.35,2.49,5.82,5.66,10.86,9.73,16.74,2.31-6.12,5.75-24.79,4.43-29.25-8.19-27.53-18.77-18.06-16.17-35.45l1.1-7.37c1.02-6.84,1.53-12.65-.93-18.94-4.12-10.53-5.89-10.67-12.25-17.46-.6-.64-8.08-10.57-11.41-12.15-4.8-2.28-8.52-5.41-12.08-9.23l-4.73-5.08c2.18,6.84,4.27,12.63,5.7,19.51.76,3.66,4.37,6.66,5.35,10.31,3.87,14.4,17.68,19.95,24.46,31.73l-7.79-6.3c-2.48-2-4.53-4.15-7.68-4.58-1.53,2.46,9.31,20.07,10.86,22.49l9.3,14.53c5.64,8.81,12.88,33.07,11.74,42.97-2.93-7.48-2.94-14.35-7.14-20.57-.16-2.65-1.26-4.81-2.28-7.24s.6-5.88-.84-8.08c-6.81-10.4-1.77-8.68-15.33-22.98.03,7.12,1.75,12.75.37,20.13-5.34-10.42-.76-19.64-5.39-29.23-3.29-6.8-5.63-11.63-8.62-18.04-1.55,7.32.88,12.72.7,19.95-3.75-3.27-3.34-7.51-3.92-12.18l-1.42-11.36ZM309.09,330.41c2.22-1.45,3.61-3.44,3.41-6.45-2.22,1.46-3.59,3.43-3.41,6.45ZM302.21,341.81c3.84-2.52,5.3-6.47,5.09-10.28-3.05,5.13-4.16,6.19-5.09,10.28ZM253.47,376.48c3.52-1.58,3.49-5.65,4.87-8.68,3.51-7.7,3.7-25.82-.77-34.05-1.82,2.62-1.07,5.65-1.17,8.98-.57,19.28-.54,22.59-10.7,38.43-2.18,3.4-5.09,6.01-4.44,10.04,3.92-5.1,8.66-13.13,12.2-14.72ZM504.3,371.01c-1.77-5.58-1.09-20.01-2.9-22.33s-1.98-4.98-3.53-7.33c.02,6.57,2.7,11.99,1.56,18.33-5.13,28.58.51,10.06,11.37,37.68,1.84-8.71-5.1-21.93-6.5-26.34ZM161.66,374.42c-5.82-7.76-13.66-10.37-21.73-12.95-6.13-1.96-11.34-4.48-18.01-4.6-4.53-.08-9.26-1.81-13.96-1.4l-12.54,1.11c-5.28.47-9.88,1.42-15.15.25-3.41-.76-7.04.14-10.49-.95l-12.01-3.78c-4.94-1.56-9.91-3.47-15.18-1,4.65,3.89,9.78,5.27,15.02,7.21,3.38,1.25,6.35,4.43,9.92,4.87s5.74,2.48,8.6,3.23c12.18,3.18,22.91,4.69,35.32,2.04l13.47-2.88c9.78-2.09,28.21,5.95,36.74,8.86ZM249.8,368.21c-.76,1.27,5.45-15.7,2.38-15.49-8.3,16.83-15.07,9.42-12.21,28.89.21,2.04,9.87-13.45,9.84-13.4ZM108.4,392.26l10.43.3c3.7.11,7.38,1.56,10.94.56.71-1.51.58-3.81.32-5.7l-18.51-.04c-3.88,0-7.43.07-11.06-1.54-.97-4.83,30.38,1.24,31.9.34,18.3-10.76,27.98,4.92,31.53,6.51,4.71,2.09,10.79.77,16.2.71l-11.56-8.48c-5.49-4.03-11.02-6.84-17.3-9.11s-12.07-4.57-18.6-5.61c-13.74-2.18-18.94,6.25-45.78,3.21-13-1.47-24.35-6.5-35.12-13.14-1.41-.87-13.45-6.87-15.26-3.93s3.36,6.47-2.46,10.6c-2.67,1.9-5.47,3.55-7.06,6.98l11.91,9.89c-2.06,4.05,5.12,11.69,7.81,13.72,4.94,3.73,10.12,6.01,15.59,8.27,3.49,1.45,5.33.08,8.83-.45l15.22-2.31c-.56-1.91-2.26-1.88-4.51-2.09.12-1.15,1.28-2.02,1.82-2.28-2.01.99,20.23,4.07,28.95,1.87,5.05-1.27,9.51-1.61,15.27-2.55-7.39-1.49-14.56-1.39-22.25-3.41l-10.91-2.87c-3.85-1.01-6.96-2.84-10.62-3.68,5.01-2.45,13.43,3.93,24.31,4.24ZM274.92,401.76c.29,3.52-3.49,3.96-4.89,6.47-.39,3.44-3.16,4.9-4.97,7.17-5.22,6.54-11.21,11.15-19.42,14.27,1.73,3.16,3.61,6.27,6.39,8.24,8.75,6.19,22.22-6.4,27.06-14.77l6.7-11.59c2.3-3.99,9.28-21.99,17.75-27.42,1.69-1.08,3.03-2.36,4.25-4.07-4.2.51-7.03,2.47-10.57,3.97-2.93,1.24-6.15.55-9.27,1.3-3.6.86-6.82,2.33-10.54,2.63s-6.78,2.11-10.27,3.22c-10.9,3.46-20.04,9.96-27.36,18.89-2.14,2.62-3.16,7.05-2.67,10.38.53,3.61,3.32,5.58,5.62,6.18,3.05.79,4.96-.93,7.49-2.43,4.79-2.86,13.14-7.83,15.19-13.3l9.51-9.14ZM232.52,481.7c-1.68-.75,1.23-8.85,1.75-9.92,2.1-4.29,6.89-24.59,3.68-29.82-3.14,4.59-4.95,20-9.48,20.74-.74-2.57,1.15-4.07,1.66-6.27l3.81-16.4c1.47-6.32,2.42-12.19-3.68-16.53-12.97-9.23-39.31.33-51.42,9.09.18-3.84,3.55-3.81,5.88-5.07,3.31-1.79,5.46-4.98,8.98-6.33l8.11-3.11c5.22-2,10.34-1.07,15.35-2.84-3.9-.37-6.63-2.73-9.56-3.33-10.21-2.08-19.75,2.25-30.51,2.59,6.36-4.05,13.71-5.99,21.31-6.14l12.39-.26c1.47-5.72-20.28-9.13-21.2-9.08-22.93,1.29-19.87,2.75-38.79-4.99-2.76-1.13-5.39-1.47-7.85-3.4-1.69-1.32-4.6-.65-5.44,1.5-1.25,3.17-2.87,7.43-1.48,10.85,1.31,3.21.9,6.81,2.48,9.77,4.99,9.32,10.47,8.69,16.81,12.67,13.22,8.29,5.9,15.44,8.91,27.32,1.13,4.45,3.18,8.88,1.11,13.53-7.55,16.9,9.55,3.09,25.23,6.11,6.98,1.34,20.96,18.67,20.47,17.74l3.46,6.6c1.43,2.74,6.22,1.55,9.19.52,3.14-1.09,6.21-.47,9.41-.7,5.99-.45,10.77,1.21,15.51,4.32,1.44.94,16.34,6.21,20.37.5-18.18-25.28-9.98-21.65-12.76-35.58l-2.26-11.33c-.61-3.04-7.47-16.72-11.62-18.16.36,9.26-.4,16.8-1.95,25.02-.7,3.7-5.18,21.57-7.88,20.37ZM132.43,426.27c-2.74-.11-6.71.02-9.06,1.54l-11.86,7.66c1.09-3.87,10.31-10.81,12.5-11.77,2.37-1.05,4.98.35,7.2-.82.95-1.92-.64-6.53-3.34-5.78-5.49,1.53-10.88,3.96-15.4,7.05l-14.82,10.11c-2.71,1.85-4.48,4.87-8.49,4.68,2.54-3.14,5.84-5.12,8.93-7.82l7.27-6.36,9.14-5.7c3.85-2.4,8.57-1.9,12.74-3.75,1.15-.51.81-4.37-.66-4.22-9.21.91-16.81,5.47-24.2,10.2-.81-.64-.74-2.22.23-2.68,6.41-3.07,11.35-9.66,23.08-10.97,1.43-.16,2.09-1.3,2.07-2.19-.14-4.33-21.05,4.38-20.33,3.93l-15,9.47c-3.64,2.3-6.76,4.91-10.42,7.07l-16.61,9.82,6.01,3.19c2.84,1.51,4.69,4.67,8.04,5.64,1.66.44,2.75-2.28,4.97-1.03-1.11,1.47-2.79,2.27-2.65,4.08.41,5.54,7.24,3.94,9.99,6.16-1.82,1.34-3.22.8-4.54,2.21,1.71,2.86,4.46,4.45,7.96,4.96l15.12,2.22c7.01,1.03,10.93,7.23,16.17,10.91,6.02,4.24,23.21,3.96,26.38-3.06.08-3.72-3.35-7.05-3.51-10.5-.41-9.08-13.18-34.1-16.91-34.25ZM100.56,406.26c-9.16-2.19-16.8.8-25.12,2.65-5.66,1.26-11.27,1.01-16.04,4.12,20.71.72,23.9,6.47,41.16-6.76ZM40.63,422.02c2.07-1.9,5.11-1.76,7.33-4.25-2.06-1.35-5.17-1.12-7.69.31-14.64,8.34-8.17,8.58-18.28,13.4,3.95,3.27,16.28-7.3,18.63-9.47ZM52.85,464.43c5.6-3.37,10.85-5.63,15.49-9.85-3.52-3.23-1.69.95-12.73-1.34-13.78-2.86-11.43-5.35-21.31-12.73,9.07-7.11,15.55-4.13,20.23-5.9,7.29-2.75,13.72-6.65,20.35-10.64,2.39-1.43,5.33-1.78,7.1-5.17-9.48-1.29-18.61.05-27.99,1.39-3.17.45-4.75,2.8-7.13,4.12-8.71,4.86-16.67,9.23-26.13,11.99-2.71.79-16.06-4.35-15.64,1.95.24,3.64,4.84,5.48,7.39,7.18,3.53,2.35,4.23,6.08,5.68,9.63,1.21,2.96,4.37,4.44,6.69,6.61,5.28,4.91,12.12,8.81,19.54,7.85l8.47-5.1ZM288.67,430.57c5.39-1.97,10.66-6.01,16.34-6.07,2.43-.03,4.17,1.8,7.12-.62s6.66-2.46,10.59-3.56c-13.76-6.09-33.33,5.51-45.35,13.82-2.3,5.92,3.85-.86,11.3-3.58ZM157.81,446.76c-1.64-5.59,4.91-12.69-10.66-19.16-3.47-1.44-5.68-3.68-8.61-6.21-.73.28-.94,1.79-.27,2.81l11.27,17.02c2.85,4.3,1.95,10.11,3.81,14.92l4.45,11.53c4.68-1.18,1.27-16.65.01-20.92ZM373.51,441.67c-3.93-2.69-20.36-16.64-24.97-15.46,8.82,7.82,13.44,12.89,24.97,15.46ZM287.62,437.35l9.06-5.12c3.09-1.63,7.07-1.5,8.56-5.45-10.81,4.08-18.66,9.82-27.87,14.7l-2.02,1.07c-.69.36.67,2.6,1.31,2.07,3.47-2.89,6.71-4.86,10.96-7.27ZM73.23,448.72c-2.63-4.29-5.65-3.83-8-6.35l-11.92-1.09c-3.21-.29-6.15.86-9.02,1.81,4.54,6.12,22.45,7.07,28.93,5.63ZM299.92,539.93c2.49,4.52,7.43,6.25,9.15,11.22-7.11.67-11.45-15.85-13.2-9.74,8.35,6.89,4.84,13.85,15.72,24.55,4.2,4.12,10.16,8.96,15.98,6.3l7.79-3.57c-1.57-3.7-4.5-3.43-7.96-4.17,1.5-2.33,3.59.06,5.49.22,8.11.69,14.01,4.43,20.05,9.47,3,2.5,8.8,4.42,12.4,3.49,2.36-.6,1.14-5.45-.17-6.76l-5.67-5.67c-4.29-4.28-6-10-9.87-13.71-6.52-6.23-15.01-10.97-18.75-19.91-6.37-15.21.5-21.42-3.89-31.85-2.49-5.93-2.52-13.02-5.82-18.24l-4.14-6.56c-4.03-6.39-8.34-11.09-14.91-14.25-4.99-2.4-15.89-10.31-23.15-11.01-7.64-.74-14.42-2.34-22.15-4.11,2.18,12.45,3.08,11.54,12.82,17.04,4.16,2.34,23.15,11.36,23.11,15.07-7.09-4.5-13.56-9.56-22.31-12.42,1.27,3.39,4.63,3.59,7.13,5.47,8.43,6.36,14.23,13.75,17.21,23.74,3.67,12.3,6.07,9.36,10.3,21.47-2.34,1.49-11.3-14.11-12.12-15.64-6.01-11.25-1.6-12.91-19.22-25.82-3.31-2.42-4.53-7.96-10.32-7.06,12.32,8.12,12.06,18.33,17.24,26.62l4.72,7.56c1.67,2.68,3.34,5.14,3.7,8.56s2.18,5.88,3.43,8.88c1.33,3.21-1.05,7.67.92,10.39,2.4,3.3,4.37,6.59,6.5,10.45ZM40.97,493.2c1.2-3.88,8.44-18.54,12.05-20.35.52-.26,23.07-14.34,22.89-17.2-2.09-1.94-8.12,5.76-16.41,10.06-3.29,1.7-5.89,3.99-8.78,6.15-4.16,3.11-6.67,7.1-7.48,12.27-.64,4.1-3.98,6.66-6.33,9.8-1.68,2.24-2.56,4.57-4.94,5.81-.5,3.99,8.98-6.48,8.99-6.53ZM56.85,542.72c5.95-15.17-8.9-10.62-1.91-28.96,1.22-3.21.66-16.42,2.54-25.73.63-3.12,3.29-5.61,5.51-7.75,4.97-4.79,9.49-9.36,13.98-14.55,1.94-2.25,4.84-2.97,6.51-5.65-.64-.79-2.86-2.38-4.01-1.99-3.59,3.92-6.94,7.21-11.55,9.77-3.93,2.18-7.39,4.98-11.12,7.5-8.45,5.71-6.81,15.24-14.87,22.31-3.84,3.36-8.22,5.53-11.92,9.31-3.13,3.2-4.34,9.44-1.51,13.04,4.04,5.13,10.03,7.35,15.01,11.11,4.79,3.62,7.84,8.71,13.36,11.59ZM98.64,467.89c-2.96-4.13-12.78-4.12-18.51,2.29-4.31,4.81-8.58,9.45-13.41,13.81-7.36,6.63-3.32,15.35-6.74,26.74-.58,1.92-2.93,3.2-1.39,5.87,2.36-1.65,2.97-4.29,3.73-7.17,9.44-35.57,4.94-24.26,36.32-41.53ZM108.26,474.51c-11.7,9.54-4.99,5.8-6.72,10.02-.16.39-.8.66-1.51.56-.41-.06-.58-1.33-1.29-1.51-1.91-.42-2.81,1.8-4.09,4.24-.62-10.03,11.03-14.24,13.15-21.11-6.75,3.09-10.42,8.81-14.21,14.6-4.86,7.41-8.49,8.5-7.73,16.37.64,6.64,6.53,3.91,15.59,6.66,5.31,1.61,10.68,1.25,15.27-1.3-1.18-2.05-2.57-3.44-4.19-4.91-11.28-10.26-.87-19.98-4.26-23.62ZM350.31,527.01l-5.17-24.86-4.76-11.16c-1.53-3.59-4.47-6.31-6.36-9.58-2.63-4.54-6.17-7.86-11.33-9.68-1.8-1.37-1.01-5.29-4.95-4.64,8.77,8.83,7.26,14.77,12.61,26.96,8.17,18.6-1.81,28.61,8.31,41.2,2.67,3.32,6.51,5.05,9.57,7.94,8.16,7.74,10.84,15.4,17.89,20.25-1.75-20.16-13.79-26.73-15.8-36.43ZM170.45,487.98c-2.66.09-2.66,1.95-3.27,3.43-2.12,5.23-9.81,15.32-11.62,16.32-.39.21-1.99-.32-1.79-1.27,2.29-3.27,5.25-5.45,6.98-9.03,2.47-5.13,9.24-9.27,3.84-11.75-9.05-4.15-6.34-13.03-14.21-7.48-5.11,3.61-10.86,3.2-16.61,2.49-14.79-1.82-14.87-7.89-17.18-6.61-3.35,1.85-4.93,8.35-4.53,11.21,2.26,16.31,24.57,15.65,25.59,27.64,1.13,13.25,10.18,9.85,17.64,14.62,10.53,6.74,1.81,5.36,24.77,4.5,1.03-3.81-1.34-5.5-2.7-8.08-3.95-7.53-6.24-16.07-7.02-24.65-.35-3.79,2.19-7.39.11-11.34ZM221.37,611.82c.14,2.19,2.22,3.3,3.63,3.25,1.6-.06,2.62-1.28,3.25-3.09,4.07-11.74-3.94-13.42,7.59-32.19l8.93-14.54c5.67-9.23,10.73-21.6,10.82-32.67,0-.57,3.4-14.4-.45-13.44-.48.12-3.17,12.22-3.56,14.15-2.12,10.33-10.57,23.72-17.54,32.22-1.04-.89-1.46-3.35.06-4.65,3.61-3.09,15.48-28.77,16.2-37.17l.61-7.12,12.26-5.92c-5.3-.81-20.11-5.98-22.72-7.75-3.81-2.59-7.79-2.45-12.13-2.4-3.41.04-4.07,2.03-6.26,3.57-3.71,2.61-9.44-1.24-11.16-4.91-1.17-2.5-3.1-3.51-4.65-5.43-4.36-5.4-8.4-11.33-14.54-14.96-5.68-3.36-17.65-.38-24.55,2.08,3.4,1.83,6.7,1.99,10.26,3.61l11.84,5.39c6.8,3.1,10.3,10.26,15.25,15.49,4.17,4.4,10.51,4.2,16.02,5.32,10.54,2.14,16.58,3.06,27.98,5.06-5.31,11.61-7.16,15.01-14.26,25.24-1.44.55-2.75-.38-2.04-1.73,2.86-2.73,10.51-16.25,10.26-20.83-8.69-4.21-22.58-2.93-33.85-4.62-9.27-1.4-16.59-23.93-33.44-24.73-1.63,3.37-.11,6.75-.69,9.89-.93,4.97.34,8.66,2.2,13.11,2.35,5.64,4.08,11.87,9.23,15.78,11.65,8.85,6.54,2.55,15.97,13.74,2.62,3.1,4.99,5.05,5.56,9.5s1.57,8.82.21,13.44l6.6,3.44c2.34,1.22,4.22,4.43,5.12,7.03,1.72,4.99-.58,9.67-.96,14.59-1.5,19.26,2.6,16.51,2.97,22.27ZM85.98,557.19c-.68-6.42-.73-12.85.09-19.26.31-2.45,3.16-4.89,1.55-7.5-4.5,1.88-14.5-3.92-16.46-8.21-2.87-6.27,6.31-15.15,7.49-19.88,1.68-6.73,2.23-15.3,9.85-21.97.91-1.81-.5-2.65-2.1-1.55l-8.73,6.31c-8.21,5.94-9.09,18.48-10.65,26.44-1.17,6-9.93,10.96-7.13,14.04,4.9,5.39,6.24,12.41,2.32,18.68,1.47,19.46,2.36,6.97,6.34,18.92,14.71,2.09,12.65,2.97,23.55,8.6.95-4.72-5.22-5.94-6.13-14.62ZM130.47,520.08c2.73,1.58,3.31,3.49,5.85,3.83-4.68-5.25-2.71-19.58-15.65-17.08-4.22,6.39-13.21,2.51-13.79,5.74-.53,2.97,2.4,4.55,4.47,5.24l11.39,3.8c2.94.98,5.22,1.61,7.72-1.53ZM88.89,526.21l.75-9.64c.21-2.73,2.16-4.64,2.87-7.1-2.66-.83-5.09-1.34-7.94-1.3-3.86,3.57-10.63,8.7-6.12,14.05,2.58,3.06,6.45,4.63,10.44,3.99ZM234.36,605.76c-.12,5.4-2.38,10.96-6.46,14.04-5.83,4.4-11.81-8.48-13.76-12.56-4.16-8.7-.47-11.01.03-21.48-3.6,5.93-6.51,11.79-10.72,17.58-3.78,5.2,1.18,15.73,4.2,20.54l5.28,8.41c4.9,7.8,15.43-2.07,17.81,9.5,1.05,5.1,4.53,8.95,9.65,10.16,7.57,1.8,11.93,6.45,13.62.91l4.16-13.65c2.52-8.27,19.11-22.02,19.58-39.54.24-8.89-3.23-16.36-7.09-23.95-3.55-6.96-3.74-16.45-.31-23.38,1.22-2.46,2.49-4.15,3.38-6.8,2.5-7.44,5.22-17.86,3.23-25.49-.66-2.53,1.39-11.22-2.18-11.63-.84-.1-6.32,6.1-11.24,7.29-1.35,2.68,2.35,5.43,4.67,6.68,2.65,1.43,5.95,24.33,1.12,17.87-.07-5.7-1.09-10.1-2.82-15.22-1.63.69-1.7,2.34-1.42,3.97.43,2.5,1.4,32.6-2.47,36.04-2.17-8.92.28-17.24-.85-26.32,2.19-1.92.57-3.45-1.21-1.88.28,13.78-.74,14.3-2.98,24.05l-4.08,17.83-2.42,9.71c-1.73,6.94-2.99,29.52,1,37.15-2.7-.29-2.3-2.75-2.91-4.65l-2.14-6.66c-3.16-9.85,3.46-37.4,5.54-47.17.43-2.04,3.08-3.52,1.24-6.11l-3.74,8.3c-.9,2-1.46,5.62-2.95,6.55-9.34,5.85-12.51,19.2-12.75,29.92ZM102.49,512.22c.56-4.13-8.43,2.04-7.31,9.41,3.24-2.21,6.7-4.88,7.31-9.41ZM276.88,621.67c6.57-1.96,6.12-7.32,7.55-11.95,1.75-5.66,3.44-11.36,5.55-16.83,6.9-17.9-2.6-17.16-.9-35.45,1.06-11.41-1.59-22.78-3.29-33.39-.52-3.28,2.41-6.9-.37-10.05-2.16,1.36-2.6,3.8-2.46,6.08,2.09,33.83-19.98,31.54-3.44,63.11,1.36,2.6,1.56,4.88,2.28,7.52,2.13,7.82,1.13,14.81-1.98,22.1-1.33,3.13-1.32,6.79-5.07,8.9,1.1,1.89,1.81,1.55,2.12-.04ZM114.88,537.35c-.92-7.27-4.11-15.84-10.56-15.62-1.86.06-2.98,2.17-5.67,2.81,1.23,2.48,12.4,10.95,16.22,12.82ZM143.77,574.14c3.63-1.2,5.56-4.04,7.14-6.3-1.19-2.88-3.26-2.91-5.87-3.05-9.67-.49-18.67-3.41-27.09-7.12-1.32-16.23-4.2-14.04-10.33-19.88-4.23-4.03-7.71-8.25-12.83-10.8-1.8,13.64-.26,10.02,6.06,17.56,10.59,12.66,3.87,4.66,10.27,20.64,12.6,4.63,16.69-.45,26.83,6.82,1.52,1.09,3.51,2.89,5.82,2.13ZM127.81,537.47c-3.55-3.96-6.83-7.42-10.77-10.63-.01,2.62,8.28,19.97,10.77,10.63ZM130.61,530.89c-1.38-3.44-3.82-4.38-6.71-4.38,1.65,2.49,3.81,4.38,6.71,4.38ZM144.56,543.08c.45-6.78-2.52-12.42-5.59-12.64-6.84-.48,2.23,11.94,5.59,12.64ZM166.42,537.92c-3.76-.2-6.69.06-9.18-2.51-2.21-1.38-4.39-2.48-6.95-2.49l-.88,7.84c-1.13,10.04,2.14,10.14,8.11,17.98,6.28-2.66-2.22-13.15,8.9-20.83ZM200.11,544.6c-5.96-5.47-3.77-8.41-14.23-10.13-.05,5.38,2.62,8.42,4.39,12.4,3.12,7.03,8.2,10.47,13.73,15.06,4.16-4.61,0-13.76-3.89-17.33ZM191.09,558.93c-4.98.58-7.72,4.47-12.69,5.57-3.15-2.76,7.91-4.17,12.08-10.36-8.54-11.21-2.91-17.47-12.95-18.3-5-.41-6.74.76-8.72,4.58-3.12,6.02-3.51,11.59-1.5,18.32-.09-.31,1.8,17.18,2.44,17.17.89-4.24,3.11-4.43,6.1-5.54,6.18-2.3,10.76-7.08,15.24-11.44ZM158.77,576.63c-.24-.55-1.56-1.23-2.17-.41-4.5,6.17-13.98,5.8-20.3,1.01-1.71-1.3-4.14-1.33-5.99-2.57-7.84-5.24-9.65-.64-20.23-5.53-9.36-4.32-1.37-7.9-11.45-19.74-2.34-2.75-3.59-6.03-6.88-8.19-2.07,5.7-2.35,12.18.15,17.47l6.66,14.1c6.39,13.53,16.66,12.22,27.84,13.21,3.4.3,6.64,2.33,9.95,1.49,5.13-1.3,12.36-3.4,16.22-6.63,4.43-3.71,7.35-1.59,6.2-4.22ZM144.48,554.12c1.13-2.33-.85-5.21-1.49-6.74-11.32,5.37-8.72-2.17-21.44-3.45.06,3.59.62,7.07,2.39,9.88,3.25,5.15,18.24,5.04,20.54.31ZM148.56,559.73c-.54-2.08-1.88-2.67-2.75-2.3-.62.26-1.52,1.12-1.99,2.27,2.04.29,3.15.34,4.74.03ZM193.83,562.98c1.65-1.88-.38-2.53-2.18-1.01-1.46,2.64-.19,3.5,2.18,1.01ZM198.88,563.34c-7.39,5.69-10.77,13.23-15.48,20.18l-8.46,12.5c9.22.49,25.25-24.68,23.94-32.68ZM151.75,575.29c5.93.11,13.85-5.6,11.56-10.35-3.24,1.56-4.29,3.59-6.02,5.86-1.59,2.1-4.61,2.23-5.54,4.48ZM189.53,566.14c-5.28,2.44-22.79,12.09-22.08,15.81,6.53.19,19.58-12.58,22.08-15.81ZM186.23,604.63c3.15-1.58,3.83-5.35,5.92-7.75,3.38-3.89,6.14-7.64,9.15-11.92s7.87-7.71,9.54-12.42c-.71-1.96-3.71-5.5-5.99-4.9s-5.36,3.74-5.9,5.86c-.93,3.64-2.51,5.69-4.26,8.67-3.54,6.04-7.1,12.3-13.62,15.93-7.76,4.32-14.87,10.05-16.93,18.95,10.91-1.91,10.37-6.54,22.1-12.41ZM197.12,599.43c-1.84,3.59-5.97,5.84-8.41,8.96s-6.16,3.91-8.81,6.23c-4.58,4.01-19.96,10.97-27.27,9.5-5.21-1.05-6.81-6.76-9.08-10.49-2.39-3.91-7.65-4.46-11.14-6.31-4.82-2.56-5.5-7.52-6.74-12.24-1.89-7.2-19.47-1.32-27.78-13-1.58-2.21-3.49-4.59-5.86-5.73-3.77-1.46,2.29,15.32,3,16.55,8.51,15.02,16.28,11.34,18.36,19.8,1.01,4.11,4.81,15.01,9.58,16.42,9.4,2.78,12.75-5.27,26.13-1.47,10.38,2.95,22.11-2.92,30.33-6.98,4.87-2.4,7.43-5.48,10.84-9.5,4.25-5.02,9.39-9.27,11.02-16.3,6.09-3.87,9.88-9.89,10.53-16.33-9.28,14.23-7.84,7.51-14.69,20.89ZM165.96,606.19c-.06-1.26-1.52-2.1-1.99-2.98,3.07-7.01,13.35-11.12,14.75-21.07-3.94,3.4-15.16,8.19-19.75,5.44-2.13-1.72,1.65-4.28,2.12-6.95-8.97,5.14-20.98,12.3-32.42,11.59,1.58,16.52,10.81,9.04,18.3,17.73,1.87,2.17,2.04,5.35,4.26,7.34,2.01,1.8,6.85,1.66,8.31-.71l6.43-10.4Z"/><path d="M75.73,792.24c-2-3.13-5.97-8.11-8.96-8.88-5.55-12.91,1.84-14.69-1.76-25.58-1.56-4.73-4.01-10.84-2.28-15.9,4.57-13.32,26.98-31.97,38.19-36.26l11.48-4.4,10.19-3.74c8.16-3,25.54-17.34,31.07-25.17,11.99,4.36,15.49,11.85,16.55,24.02,1.2,13.83,1.68,17.71,1.19,31.38l-.35,9.7c-.39,10.71-7.59,20.43-14.88,28.64l-9.2,10.37c-8.7,9.8-28.52,16.4-41.42,19.13-10.58,2.24-23.12,7.16-29.81-3.29ZM145.61,758.54c8.1-4.52,15.68-12.01,19.26-20.9,5.14-12.75,2.52-26.8.48-40.02-.74-4.79-1.08-8.96-4.76-11.96-1.42,6.72.95,17.36-1.64,21.94-1.84,3.26-2.45,6.88-3.48,10.46-2.11,1.51-3.82.33-1.59-1.56,1.85-13.12,4.57-11.99,3.28-26.33-4.38,5.01-3.71,11.57-7.72,18.04-3.4,5.49-6.53,10.81-9.29,16.56-.48.99-2.43,1.26-2.42.56.08-4.23,2.45-2.59,7.95-14.86,2.38-5.32,5.17-10.07,6.29-16.09.51-2.72,3.77-5.48,2.17-8.06-.57-.92-2.2-1.51-1.48-2.85.59-1.1,1.38-2.39,2.5-1.39,1.34,1.2,1.91,3.72,3.93,2.4-2.95-3.16-4.14-4.93-4.5-7.85-2.64,6.86-15.85,16.73-22.12,20.89-9.12,6.06-28.85,10.77-35.95,16.05l-7.96,5.92c-6.09,4.53-15.52,13.93-19.69,20.93-2.92,4.9-.85,11.37,1.07,16.22,3.27,8.26-4.48,18.5-.89,23.28,2.09,1.42,6.17,2.59,8.46,2.97,8.58-2.33,11.84-11.54,19.24-13.09-5.49,7.16-15.26,11.68-18.62,16.13-.83,1.1.04,2.86.81,2.96,13.7,1.71,18.85-3.47,28.67-15.65,4.76-5.9,29.94-10.2,37.98-14.68ZM88.04,794.44c13.3-2.32,31.56-6.01,42.67-13.02,15.67-9.89,13.74-7.24,26-23.35,1.48-1.06.21-3.14-.32-.93-5.54,4.63-12.05,7.83-18.74,9.81l-7.62,2.26c-6.59,1.95-12.99,3.6-18.21,8.07-4.3,3.69-8.99,6.48-12.92,10.68-5.1,5.45-9.96,2.39-10.86,6.47Z"/><path d="M286.37,875.31c2.81,11.34-4.87,9.35-9.51,16.27-1.98,2.96-6.21,5.35-10.1,4.7-16.27-2.71-29.21-3.92-42.91-13.33s-17.83-15.1-24.97-29.18c-4.13-8.15-4.16-31.35-3.1-37.03l1.39-7.38c1.4-7.45,2.79-15,9.5-18.88,9.52-5.51,8.81,15.59,37.64,24.07,8.98,2.64,14.18,5.17,22.15,10.09,3.52,2.18,14.09,13.47,17.27,17.43,10.05,12.51-1.7,15.74,2.65,33.26ZM281.15,881.39c1.91-1.7,2.77-4.6,1.62-7.32-7.54-17.91,14.99-16.19-15.96-43.76-11.29-10.06-28.74-11.2-41.88-21.47l-9-7.03c-1.19-.93-1.27-3.75-4.04-2,2.2,1.66,2.74,3.99,3.13,6.67.57,3.93,4.32,5.47,6.03,9.9-3.25,1.79-6.68-11.95-11.19-11.74.68,4.91,3.99,8.24,5.12,12.84.89,3.66,2.58,6.04,5,10.04-4.13,2.01-9.34-14.97-11-18.94-3.35-8.02,1.28-7-1.38-8.67-.74-.46-.96-1.4-1.73-.61-2.92,3.01.57,4.35.26,9.94s1.98,9.54,2.14,15.17c-6.05-8.22-1.78-10.86-5.71-19.47-2.55,3.64-2.58,17.2-2.89,19.31-1.42,9.84-1.27,20.23,5.52,28.09,3.97,4.6,12.89,11.54,18.73,13.21l12.52,3.56c4.08,1.16,8.34,1.99,11.51,5l9.4,8.93c4.06,3.85,9.57,5.94,15.2,4.95,1.72-.3,1.77-2.34,1.42-3.51-.25-.82-1.05-1.37-2.39-1.81-4.46-1.47-7.37-4.88-10.82-7.8-3.07-2.61-6.94-4.56-9.04-8.57,3.15-4.34,21.08,22.52,29.44,15.11ZM266.72,891.94c-4.48-2-7.55-1.45-9.8-4.65-1.67-2.37-4.49-3.69-6.54-5.74-4.27-4.28-9.21-6.96-15.12-8.45-3.26-.82-6.33-2.2-9.71-2.73-5.78-.9-10.14-3.7-14.78-8-2.71,1.69,5.98,10.49,8.19,12l8.15,5.56c2.54,1.73,4.3,3.11,7.18,4.27,4.94,1.98,29.29,10.45,32.43,7.75Z"/><path d="M86.43,1006.1c-6.32-20.51,3.7-25.53,4.74-32.17s.56-13.19,3.37-19.25c3.13-6.76,7.81-13.91,14.4-17.48l19.43-10.53c1.25-.68,11.18-7.2,13.86-8.82,10.7-6.48,4.79-17.74,9.02-21.01,7-5.4,13.12,25.69,13.37,28.11,1.39,13.41,1.97,25.27-5.76,35.68-1.36,1.83-1.3,4.45-2.81,6.14-2.51,2.83-4.61,5.6-5.13,9.68-3.37,3.66-6.52,7.45-10.44,10.47-5.41,4.16-22.4,8.66-25.78,10.69-9.65,5.8-14.55,12.79-28.26,8.49ZM95.69,976.4c-.61,2.1-7.53,10.46-7.12,12.07.59,2.3,3.66,3.21,3.01,4.9-1.29,3.36-4.41,2.66-1.83,7.34.68,1.23.66,2.74,1.64,3.29,4.97,2.81,14.78-5.88,18-8.33,5.33-4.06,12.32-5.67,18.82-6.95,3.23-.64,4.79-2.69,7.17-4,4.35-2.39,7.27-4.65,10.03-8.78,4.15-6.2,14.67-25.92,15.61-32.85,2.37-17.57-4.51-27.96-3.61-33.39.17-1.04-1.28-2.09-2.24-2.34.3,22.08-.03,20.99-8.89,41.43.56,2.92-2.82,2.74-2.64-.1,3.72-7.3,6.04-12.17,6.96-19.49.46-3.64,3.51-6.66,1.4-10.89.27,3.72-13.45,26.11-15.47,21.71-.95-2.08,7.72-5.87,10.8-18.05.56-2.21,3.36-3.2,2.52-6.01-2.56,3.68-18.92,15.9-21.39,16.64-9.46,2.84-17.51,7.43-24.15,14.65-11.57,12.57-6.44,21.65-8.61,29.15Z"/><path d="M210.08,389.73c-.93,2.11-1.84,1.16-1.89-.78-1.42-1.67-1.67-4-.29-5.41.73,2.1.79,3.47,2.18,6.19Z"/><path d="M259.03,169.13l2.08,1.09c.87.45.92,3.01-.36,2.71-7.57-1.79-13.79-5.5-20.56-8.42-1.84-.79-3.84-.63-4.56-2.8,4.27-1.05,7.07,1.12,9.71,3.85.19.19,13.28,3.35,13.7,3.57Z"/><path d="M50.7,390.6c-.97.75-4.36,1.24-4.93-.49-.47-1.45,1.41-1.9,1.87-1.51.35.3.65,1.2,3.06,2Z"/><path d="M166.3,510.13c-11.17,15.91-11.08,8.35-9.41,7.1,5.55-4.15,7.09-11.24,9.41-7.1Z"/><path d="M404.49,208.07c-1.56,3.44-2.91,4.28-5.84,5.33-.28-2.89,3.22-5.29,5.84-5.33Z"/></g></svg>