<?xml version="1.0" encoding="UTF-8"?><svg id="Layer_2" xmlns="http://www.w3.org/2000/svg" viewBox="0 0 777.04 781.93"><g id="Layer_1-2" fill="#e43122"><path d="M0,781.93v-12.41c5.84-.77,1.07-4.1,10.9-17.44,5.42-7.36,6.48-16.17,9.66-19.16,2.34-2.2,5.31-3.53,7.22-6.39,3.67-5.48,10.16-5.91,15.57-8.74l-2.84-3.7c.62-4.08,28.37-24.19,27.76-22.16.26-.86-.05-1.56-.66-1.86-1.22-.6-1.82,1.83-8.92,3.41,9.22-10.59,17.1-8.78,18.37-9.14,2.38-.69,26.4-16.49,24.33-18.13s-10.97,6.95-13.32,9.03c-1.79,1.58-11.99,6.42-13.86,2.62,8.94.12,14.73-4.37,19.88-10.4,2.95-3.45,7.19-5.98,10.62-9.08,4.91-4.43,11.12-5.15,15.38-12.21l5.05-8.37c3.18-5.27,6.66-9.75,9.91-14.98,1.84-2.96,5.31-5.03,7.76-6.91-2.31,4.53-11.71,15.71-12.79,17.99-2.15,4.51-4.01,9.83-7.9,13.22-.8.7-22.32,17.35-16.74,17.16,8.05-5.28,20.55-19.99,25.45-22.91s11.15-3.25,16.87-5.18c-2.26-1.6-5.08-1.83-8.36-1.32-.45-2.55,1.93-3.63,3.52-5.44,2.2-2.5,2.2-6.64,4.74-8.95,4.5-4.1,6.86-8.86,9.35-14.36,1.46-3.23,3.69-6.13,5.44-9.28,10-18.03,3.95-11.52,9.01-24.13.56-1.4,2.16-19.14,2.39-22.8.79-12.54-1.33-24.04-4.03-36.12l-2.58-11.53c-1.78-7.98-.29-41.25,1.31-49.29l1.71-8.57c-4.49.17-4.21,17.5-7.1,18.66-.66.26-2.46-.45-2.8-1.66l-4.5-15.9c-1.64-5.79-1.49-11.48-3.01-17.45-1.63-6.38.5-14.7-4.03-24.2-2.71-5.68-4.12-11.49-9.41-16.45l-1.26,7.26c4.26,6.59,3.84,16.98,7.02,21.15,1.69,2.22,4.74,2.87,4.89,6.53.24,5.67,2.87,12.6.23,15.09-2.42-2.11-.04-4.56-2.04-6.77-2.44,7.92.75,15.69,2.82,23.83,1.16,4.53,4.72,22.37,4.9,22.8.57,1.36,1.71,2.53,1.74,4.23.15,7.43,2.34,14.14,3.09,21.24.35,3.27-.81,6.54.37,10.14,1.58,4.8,5.62,27.03,5.22,30.77-.21,1.99,1.89,3.37,2.14,5.13.41,2.97,1.76,25.34-3.78,27.64-1.76-3.33,1.69-5.86,1.47-9.24-.39-6.05,1.53-11.4-.06-17.72-4.02,4.83,1.2,15.28-5.66,17.1s1.43,11.03-2.4,21.2c-2.06,5.48-5.56,12.05-9.54,16.3-4.17,4.45-7.23,9.1-11.04,13.8l-4.57,5.63-10.64,12.7c-1.91,2.28-3.84,3.37-5.9,5.24-1.92,1.73-2.53,4.6-5.04,6.12-5.39,3.26-9.31,8.04-12.9,13.12s-8.75-.64-10.96-1.04l-7.49,11.32c-1.13,1.71-24.27,17.72-24.87,17.91-4.02,1.26-4.57,3.28-6.86,6.23-1.49,1.92-6.17,1.38-7.83,4.41-1.02,1.86-3.53,2.48-5.62,3.27-.33,1.64.39,2.05,1.8,1.18,1.6-.99,2.64.64,1.7,1.85-8.27,7.98-9.46,14.33-16.38,21.71-3.52-2.62,11.21-20.36,12.2-22.1-5.5-.46-29.22,36.96-29.92,38.58-.88,2.02-2.44,3.23-4.23,3.19v-11.17c2.67.26,3.55-2.53,5.18-4.77l5.11-7c5.31-7.28,15.51-22.93,23.99-27.28,8.06-4.13,14.51-9.86,21.66-15.2,3.22-2.41,6.87-3.66,10.21-6.27l13.88-10.85c3.23-2.53,4.14-15.64,6.3-20.02,6.83-.78,2.44,8.55,8.01,12.17l10.28-9.77,10.18-9.71,8.4-8.97,13.2-15.37c4.82-5.61,15.21-20.88,17.18-27.68,6.05-20.93-11.65-28.43-4.6-33.82,2.13-.18,10.34,11.79,11.65,7.97,1.43-4.16.3-8.74.73-13.22,1.1-11.35-1.83-19.51-3.29-31.35l-1.52-12.26c-.94-7.62-4.44-14.74-4.84-22.35s-1.4-14.26-4.81-21.3c-1.41-2.91-.15-7.17-2.36-10.17s-.73-6.27-1.03-9.35l-1.08-11.26c-.4-4.13-.24-9.4-3.26-12.38-2.13-1.79-6.88-2.5-9.44-2.34-9.51,14.55-2.03,20.53-1.11,26.68.65,4.36,3.67,7.85,4.71,12.06,5.44,21.92,7.24,13.33,8.36,35.54.3,5.87-1.05,10.51-6.52,13.57-.76,35.16-5.89,28.58-12.05,37.72l-3.97,5.9-4.88,6.35c-1.72,2.23-9.57,8.81-10.48,8.23s-.4-3.44-1.66-4.2c-2.97-1.8-9.05,7.77-11.15,9.81l-10.02,9.75c-1.31,1.28-3.63,1.25-4.75,2.75-4.88,6.53-12.46,9-13.91,7.31-.74-.87,1.1-4.81,1.15-11.46l.12-14.95c.04-4.61-2.73-8.89-2.53-13.56.61-14.14-5.37-20.64-5.32-20.48-2-5.52-1.35-13.07-.17-18.67,1.6-7.59-5.61-5.49-1.45-18.58.91-2.87,3.46-4.74,3.39-8.06-.04-1.7,9.97-18.35,11.77-21.29,1.08-1.77-1.38-4.54-.8-6.04,2.95-7.62,14.69-15.14,21.8-18.93l13.04-6.94c4.27-2.27,9.33-3.35,12.99-6.78,5.79-5.41,12.04-14,20.63-11.12,2.26-1.25.33-4.86-.42-7-3.11-8.94-6.23-17.87-7.04-27.45l-1.15-13.71c-.5-5.89-1.08-12.38.31-17.93l2.27-9.07c3.09-12.35,12.07-31.95,8.81-42.05-1.03-3.2-3.33-5.83-3.69-9.49-.14-1.45-1.71-2.03-2.58-2.01-3.24.07-13.01,14.45-13.8,20.44-.57,4.31-3.72,6.78-6.16,9.77-11.38,13.96-26.29,17.79-43.75,21.14-6.25,1.2-12.15,3.67-18.72,2.81-2.73-2.6,6.99-17.57,8.05-18.65,3.07-3.13,3.1-8.72,5.75-11.83,10.48-12.33-.95-9.09,17.53-24.55,3-2.51,7.01-3.62,10.31-5.39,4.22-2.26,9.28-1.99,13.89-2.85,29.35-5.46,31.55,16.01,34.92,11.91,2.41-2.93-1.43-12.54-2-13.39-2.33-3.51-5.5-6.87-8.89-9.31l-7.32-5.27c-3.64-2.62-8.38-4.09-11.59-7.27-2.51-2.49-4.47-5.16-7.37-7.53-4.57-3.72-13.49-17.56-14.66-23.78l-2.3-12.19c-1.99-10.55,1.07-32.46,1.11-32.1-.51-4.84,1.89-9.01,2.07-13.59l.57-14.82c.51-13.17,15.88,13.24,18.69,15.46,7.98,6.29,15.02,12.83,21.91,20.17,2.85,3.03,5.68,5.09,7.85,8.88,6.96,12.15,8.79,17.34,9.89,31.16.79,9.87.48,21.49-1.47,31.09l-2.09,10.3c-.92,4.52-.63,8.97.32,13.39.74,3.43-.94,6.63,1.25,10.1,5.13-3.44,6.66-8.53,7.99-13.74.44-1.74,3.23-2.12,3.71-3.62,1.35-4.23,4.73-7.03,6.28-10.84,3.07-7.54,7.45-14.76,12.55-21.34,1.27-1.64,1.63-4.14,2.86-6,4-6.05,8.55-11.02,13.16-16.62,6.55-7.96,13.42-15.4,21.62-21.68,17.54-13.42,12.68-19.18,24-34.91,2.24,4.2.53,7.58,1.56,11.37,4.88,1.56,18.33-5.45,20.98-6.46.22-.08,24.8-5.58,27.3-7l10.1-5.71,6.17-6.06c3.62-3.56,11.78-8.56,12.3-17.86.32-5.82,1.65-11.4,1.01-17.41-.46-4.29,1.56-22.25,3.65-26.23,1.09-2.07,2.42-4.09,3.59-6.13l5.47-9.53c1.23-.75,3.32,1.1,4.35,1.81,9.76-11.51,9.82-15.4,22.6-23.08l10.25-6.16c4.3-2.58,9.03-4.5,13.95-3.41l1.89,4.94c3.82,0,7.62-1.17,11.33-2.76,9.41-4.03,19.05-3.07,28.93-2.02,7.02.74,33.62.22,34,1.35.78,2.33-2.13,1.35-7.85,7.24l-7.92,8.17c-1.34,1.39-6.84,13.1-7.39,15.92-.68,3.45-3.25,5.32-4.29,8.06-3.23,8.43-10.27,14.06-14.6,21.27-.13.21,1.82,9.6-15.29,15.28-5.88,1.95-11.19,4.94-17.78,4.32-.38,2.48.27,5.43-1.89,6.72-2.71,1.61-5.47,4.05-8.55,4.87-3.99,1.05-8.19.35-12.15,1.78-5.05,1.82-9.78.99-14.81.11-3.28-.57-6.46,2.59-9.43,1.79-1.43-.38-2.43-2.04-3.75-1.87-1.21.16-2.61.69-3.58,1.95-1.31,1.7-3.23,1.13-4.78,1.75-1.28.51-10.06,11.2-10.42,13.09,2.05.82,3.63-.54,5.59-.99,6.82-1.56,13.99-.75,20.71-2.78,4.86-1.47,9.07-1.96,14.26-2.1s9.64-2.11,14.86-1.52c3.83.43,7.45-.45,11.22-.47l30.9-.22c7.29-.05,17.5-.92,21.81-7,2.02-1.25,5.32-.93,7.73-1.56,1.11,4.66-4,7.16-4.22,11.78,3.71,1.35,7.14.04,10.96-.14l15.9-.74c3.85-.18,6.72-.91,10.2-1.86,4.92-1.35,10.75.89,15.69-1.04,4.56-1.78,8.72-3.28,13.9-3.6,6.22-.38,12.18-2.34,18.54-2.02,5.47.28,23.81-4.16,27.33-6.55,12.56-8.49,6.4-12.25,11.16-14.45s2.98,8.74,4.24,9c5.85,1.85,11.47-.21,17.3-1.15,3.44-.55,5.83-2.35,8.86-3.51s6.23-1.54,9.55-3.04l7.65-3.44c2.21-.99,5.6.06,7.11-1.73,2.5-2.96,12.36-4.74,14.65-6.42,4.36-3.18,8.8-5.44,13.21-8.24,3.57-2.27,6.08-4.38,10.41-5.9,4.04-1.42,8.64-4.54,11.7-7.45,1.92-1.82,3.04-4.89,4.03-7.19l5.31-12.34c.74-1.71,2.74-.28,3.27.47,2.18,3.06-2.12,6.22-.07,10.66,3.45-2.82,7.68-3.95,11.55-6.35l9.75-6.05c1.79-1.11,4.45-1.33,5.67-3.08,2.84-4.08,7.26-5.14,10.97-7.81,4.23-3.05,6.69-8.15,10.16-12.04,7.72-8.66,18.7-16.09,25.54-25.3l5.34-7.19c1.1-1.48,4.31-1.65,4.67-.14-4.18,8.06-10.75,13.84-16.45,20.42l-5.84,6.75c-2.15,2.48-3.49,5.25-5.9,7.6-4.16,4.06-13.97,14-18.83,16.16-3.27,1.45-3.63,4.66-5.75,6.72s-5.13,3.05-7.46,4.98c-4.95,4.11-9.49,8.63-15.21,11.71-5.23,2.82-10.35,5.42-14.98,8.9-3.59,2.69-6.95,2.12-11,1.82-2.31-.17-23.19,13.65-25.59,14.71l-19.78,8.73c-2.66,1.17-5.32,1.92-7.84,3.62-3.02,2.04-7.62,1.06-10.41,3.29-3.29,2.62-13.81,5.35-15.99,4.9-2.81-.57-3.88,1.66-5.63,2.75-1.27.79-13.45.86-14.56-5.55-2.18,6-6.25,9.15-11.88,10.83-8.33,2.49-16.51,4.54-25.03,6.62-3.96.97-8.22-.24-11.92,1.09-4.56,1.64-47.28,7.09-43.56,5.8l-8.24,2.86c.69-.24-34.89,2.52-34.05-1.17.09-.4.49-.99,1.41-1.17l6.76-1.27c-2.94-4.61-7.21-3.17-11.43-1.43-4.94,2.04-10.63-.12-15.73-.54-12.97-1.07-25.43-.44-38.32.78l-14.93,1.41c-5.07.48-9.19,1.28-13.93,2.57s-15.73,1.77-29.28,5.55c-3.04.85-5.21,2.85-8.82,1.84-1.77-.49-4.14-.02-5.88.79-4.03,1.86-24.97,9.47-27.7,9.64-3.49.22-18.48,5.21-21.75,8.7-.5.54.96,3.02-.77,3.28-3.41.52-5.93,1.49-8.82,4.2-2.3-2.75-.06-4.95-.27-8-4,7.26-15.72,21.35-22.89,25.08-4.12,2.14-5.67,5.94-8.53,8.79-2.49,2.48-4.88,4.11-6.62,7.43-1.58,3.02-5.86,4.14-6.07,8.28,6.77-2.12,9.44-9.53,16.05-14.85,4.14,1.35-6.58,9.05-7.65,9.91-.16.13-5.55,8.97-1.61,8.57,2.78-2.81,7.36-5.44,8.84-9.62.28-.8-1.05-2.84.51-2.84,1.18,0,5.35,3.66,5.95.43.39-2.11-1.02-3.36-2-5.26,3.86-1.71,5.38-5.72,8.53-8.22l7.64-6.07c2.01-1.6,4.36-2.45,5.4-4.57-1.57-.51-2.7-.48-3.1-1.33,7.54-5.07,13.95-9.1,21.87-11.96,2.28-.82,4.29-3.66,6.79-1.55l-11.99,5.41c-1.47.89.12,1.17,1.92,1.31,5.3-3.26,11.04-4.04,16.87-5.51,3.07-.78,5.34-4.59,8.3-4.81,3.66-.27,5.06-2.28,7.6-3.67,3.7-2.03,8.84-1.35,13.13-2.25,15.44-3.24,23.62-4.09,38.62-8.16,1.84-.5,3.85.31,5.01-1.83-2.25-1.91-4.72-1.19-7.85-1.48,1.92-2.18,5.15-3.29,8.24-3.15,6.47.29,12.04-2.3,18.14-3.04,20.73-2.51,20.6-5.35,43.33-2.97-15.47,3.34-16.69,1.34-32.84,4.7-4.48.93-9.04.54-13.53,2.06-2.98,1.01-6.1-1.6-9.7.72,11.01,3.54,3.28-2.48,21.94,2.67,3.66,1.01,6.97,1.55,10.58,3.87,1.11-2.21.07-3.58.39-5.35,7.48-2.79,15.14-1.95,23.08-1.92l44.65.16c30.08.11,11.56-7.1,34.14-4.38-2.29,2.15,15.04,3.54,15.49,3.41,6.28-1.86,11.99-3.58,18.59-4.17,5.53-.5,10.8-2.17,16.27-3.18,8.37-1.54,20.75-2.21,29.85-.33,1.27.22,1.29-.89.22-1.56-4.26-1.13-8.31-1.26-12.74-4.07,5.91-2.3,20.76,2.45,26.12-2.51-2.68.48-4.81.81-7.54.1-3.25-.84-5.97,1.78-8.91.44,3.61-2.15,6.71-.91,10.09-2.19,17.02-6.42,11.03,2.83,16.5-1.02.77-.54,2.58.04,3.32-1.1.39-.6-.73-1.71-.72-3.15s2.68-1.4,3.92-1.37c1.01.03,2.19,1.85,3.4,2.53,5.78-1.58,11.46-4.52,17.73-5.39.81-.6.61-1.55-.15-2.27-1.42-.76-.89-1.57.66-1.92,15.84.26,20.33-10.23,21.69-10.3,7.21-.37,27.2-14.13,34.08-18.27,5.59-3.36,11.06-6,16.09-10.23,3.14-2.64,6.58-5.57,10.59-6.56l11.18-2.75c-1.35-6.89,4.63-8.2,8.35-11.5l9.21-8.17,5.73-5.54c2.06-1.99,3.85-4.13,5.96-6.04l11.2-10.15c2.69-2.44,5.4-4.41,8.05-6.86,6.97-6.47,12.89-13.23,18.46-20.87.87-1.2,3.73-.86,4.35.02.86,1.23-.17,2.64-1.45,3.68-6.55,5.3-17.44,19.62-25.29,26.88-4.34,4.01-9.41,7.16-13.07,11.76-1.81,2.26-2.83,4.24-5.24,6.08-4.01,3.06-7.05,6.74-11.56,9.45-2.29,1.37-5.66,4.29-5.54,6.63s3.56,2.21,5.4,2.15c1.55-.05,1.6,3,.05,3.22-5.17.74-25.02,5.8-28.49,7.78-2.99,1.71-5.08,3.81-7.98,5.75l-7.44,4.98c-2.75,1.84-6.49,2.13-9.02,4.48s-5.01,4.22-7.95,6.03l-9.16,5.64c-5.06,3.11-10.09,5.32-15.18,8.3l-9.4,5.49-10.11,4.84c-2.92,1.4-5.4,4.06-8.74,4.34-4.31.36-7.38,2.74-11.31,3.84l-9.85,2.75-13.8,3.44c-3.98.99,6.2,6.44,9.31,6.8,17.54,2.02,18.09-4.46,32.25-4.58,10.75-.09,22.27-1.72,31.72,3.15l12.03,6.2c2.07,1.07,3.53,2.99,3.35,5.18-.26,3.18,9.64,9.05,12.71,11.27,5.78,4.17,8.43,10.87,11.96,16.66,8.7,14.27,9.47,23.9,19.6,40.85.79,1.32.68,2.82-.45,3.23-3.21,1.18-7.87-5.53-21.62-8.03l-8.54-1.55c-13.83-2.51-32.91,5.38-48.02-11.43-1.86,1.33-4.17,3.19-6.07,1.99-9.22-5.79-16.01-14.03-21.14-23.54-2.18-4.04-5-7.41-6.96-11.53-7.72-16.23-8.01-22.86-26.11-27.21-19.32-4.65-40.88,3.89-44.43,3.3-2.82-.46-5.08,1.06-7.53,1.7-1.58.41-4.34-1.22-5.59.26-4.1,4.85,7.5,8.35,2.05,11.73-2.35-2.82-6.41-3.17-8.74-4.91-10.95-8.15-24.87-6.42-37.38-4.15-7.34,1.34-31.37,1.16-39.92.81-57.31-2.37-37.42,1.94-35.97,8.2.36,1.54-1.85,2.48-2.73,2.55.95-.08-11.71-9.06-25.42-9.68-12.54-.57-28.14,6.45-41.43,8.75-6.58,1.14-21.97,3.93-27.31,6.34-4.55,2.05-9.32,2.9-14.26,3.59-2.84.4-18.73,7.48-22.47,9.22l-12.8,5.97c-1,.47-21.36,13.8-19.77,17.94,3.69,1.91,7.84.76,10.97,3.13,3.88,2.94-12.2,4.08-21.4,9.63-10.17,6.13-12.78,12.97-13.06,13.27-4.14,4.47-6.4,9.21-9.45,14.27-5.15,8.55-10.48,16.64-14.97,25.63-1.81,3.63-2.72,7.04-4.72,10.69l-4.97,9.09c.86-1.57-5.03,12.39-9.09,19.51-9.94,17.43-7.94,32.68-10.55,40.35-.63,1.85.75,3.36,1.82,4.09,3.33,2.3,7-7.18,12.87-3.25l-5.96,8.02-4.66,10.15c-4.15,9.02,1.59,29.29,6.42,39.13,2.01,4.1.7,8.88,1.66,13.17,1.33,5.94,1.55,11.53,2.24,17.5.46,3.97,2.08,7.26,1.72,11.7,3.89-2.83,3.79-6.37,4.71-9.86,2.01-7.61,10.21-21.8,16.14-27.23,2.85-2.61,6.33-4.43,9-7.25,3.45-3.64,7.34-6.7,10.54-10.49,3.71-4.38,6.84-8.61,11.25-12.43s10.86-9.03,16-11.53c8.3-4.05,25.87-11.58,34.31-6.84l1.32,5.01c2.42,1.52,5.62,1.68,8.5,1.57,8.1-.31,20.85,2.13,26.58,7.97,1.93,1.97,4.16,3.18,4.75,6.36,1.79,9.66,12.3,8.46,15.38,16.81,1.01,2.74,2.88,4.28,4.26,6.58,6.44,10.76,10.93,21.85,18.35,30.45,1.75,2.03,2.48,4.67,4.86,6.45,1.17.88,1.42,3.57-.24,3.95-8.3,1.89-13.6-6.35-27.57-4.89l-20.07,2.09c-16.64,1.74-17.93.21-32.6-2.87-2.79,7.45-16.88,1-21.74-1.56-4.51-2.37-7.45-5.58-10.64-9.43l-5.68-6.85c-2.81-3.38-6.36-5.98-8.61-9.9-3.72-6.46-10.94-9.39-18.12-6.96-5.57,1.88-9.7,5.73-13.83,9.63-5.13,4.85-7.85,10.6-10.57,16.93-4.18,9.72-7.48,30.49-6.91,41.22l.72,13.67c.79,15.01,5.84,29.64,6.34,37.25.75,11.64.7,23.05-.12,34.76-.75,10.76-4.3,21.26-8.63,30.9-.13.29-14.35,24.52-13.73,23.64l-6.64,9.32c5.13,6.91,20.71,6.36,16.59,9.98-3.84,3.37-7.64,2.32-12.2,2.11-6.7-.3-14.44,1.55-19.69,5.85-3.85,3.15-8.03,6.22-11.31,9.73-7.6,8.13-16.03,13.5-24.89,20.15l-9.04,6.78-22.85,14.37c-6.48,4.08-11.54,9.6-18.05,14.55l8.67,4.75c1.27.7,1.75,2.35,1.03,2.93-3.85,3.09-11.93-2.27-24.09,7.54-7.84,6.33-1.18,1.66-10.02,12.26-5.71,6.85-8.04,15.18-11.95,23-1.94,3.89-4.73,6.82-5.63,11.4-.56,2.89-2.51,5.43-4.65,6.6ZM414.99,67.42c-4.27,2.59-9.09,2.12-14.04,2.09l-16.16-.1c-4.17-.03-6.31,1.21-9.03,3.57-6.07,5.27-13.14,8.75-18.61,15.07l27.63.32c3.65.04,7-.66,10.79,1.17-15.98,4.95-26.7-3.12-44.69,4.46.23-.09-11.76,10.69-10.31,11.63.18,2.82,4.82,1.51,6.85,1.47l19.29-.42c2.72-.11,2.75,2.92-.05,2.66-6.77.17-13.35-.69-19.06,1.52-12.54,4.84-7.79-3.85-22.55,14.2,3.45.71,5.87-.35,8.74-1.13,8.55-2.33,25.42,1.74,41.84-4.91,1.87-.76,1.03-4.53,2.36-5.44,8.41-5.75,18.55-3.29,25.88-9.9,1.43-1.29,4.21-1.39,5.02-3.4.48-1.19-1.64-4.29-.47-5.71,6.25-5.25,19.51-19.67,21.45-26.95.72-2.71,1.74-4.59,3.08-7.08l5.57-10.34c2.71-5.04,7.06-8.53,10.88-12.48-14.43,1.51-6.07-1.68-18.82-.53-8.45.76-15.26-7.04-41.61,4.48-8.79,3.84-6.38-7.13-15.11-3.83-1.73.66-21.24,15.21-23.61,18.25-3.51,4.52-5.98,9.3-10.41,13.29-6.33,5.71-6.45-4.65-12.5,13.55s-1.79,16.85-4.91,30.84c-.51,2.29-1.71,4.5.78,6.22,3.44-2.77,5.5-6.95,8.17-10.77,4.01-5.75,3.54-12.76,6.08-19.85,2.26,4.21-.14,7.51.39,12.3,3.55-4.25,6.58-7.97,11.26-10.79,2.06-1.24,2.9-3.65,4.5-5.43,11.55-12.91,5.65-17.57,14.57-30.87,1.39,4.66-1.04,8.02-2.4,11.89l-4.12,11.75c4.67-2.47,7.34-6.23,11.48-9.24,1.77-1.29,3.88-1.68,5.83-2.82,2.94-1.73,4.98-5.46,8.52-6.05,3.3-.55,5.67-1.6,8.52-3.07l14.76-7.64c3.14-1.63,7.05-1.67,9.88-3.69s13.9-6.05,15.54-4.88c-1.62,2.25-3.96,2.32-6.29,3.4l-8.49,3.94c-3.06,1.42-5.64,3.63-9.04,4.57-5.25,1.44-9.58,3.94-14.33,6.44-3.12,1.64-6.5,2.05-9.06,5.11,4.35,7.23,25.45-.47,26.02,3.15ZM700.88,59.63c-2.56.36-4.93,2.75-5.51,5.16,3.15-.79,4.42-2.39,5.51-5.16ZM667.09,82.55c4.04-.28,6.99-2.46,10.23-4.84,3.92-2.88,8.5-4.1,11.76-8.02-4.84.35-7.77,3.59-11.1,6.31-2.29-.85-3.71-2.56-6.08-2.49-2.17,3.07-3.5,6.01-4.81,9.04ZM317.71,132.74c3.47.19,4.26-1.56,3.48-3.7-1.4,1.19-2.72,2.02-3.48,3.7ZM607.3,159.25c-.3,2.01.73,3.51,1.85,5.03,1.8,2.46,1.8,5.16,2.98,7.69l6.13,13.15c-4.06-1.96-3.81-6.59-5.93-9.93-10.56-16.64-4.94-17.7-25.16-23.75.56,4.32,3.35,6.75,4.46,10.39.98,3.22,1.75,6.19,3.47,9.22l8.03,14.15c.7,1.23,10.19,12.31,9.94,12.14,2.56,1.71,5.13,2.62,7.42,5.18,1.51-1.33,1.2-2.89,2.76-3.92,13.24,11.88,16.36,14.42,34.27,14.39l11.46-.02c20.15-.04,31.25,10.84,25.64-1.28l-6.28-13.56c-6.23-13.45-8.88-21.74-22.11-31.45-1.96-1.44-3.37-3.06-5.71-4.37l-11.49-6.45c1.68-1.4,4.22-1.83,3.26-3.4-1.62-2.67-4.97-2.08-6.99-3.31-5.49-3.34-10.84-4.15-17.26-4.04-8.44.15-27.54.51-35.28,4.1,17.06,12.69,28.52-1.33,47.77,5.56l-22.17.81c-2.17.08-3.99,1.2-6.61,1.36,21.99,12.06,9.76,8.95,32.49,9.57,2.19.06,3.69,1.54,5.68,1.94l7.98,1.62c1.28.26,1.58,1.06,1.19,1.89-.78,1.65-15.59-5.64-22.28-2.49,5.22,4.6,12.02,6.3,17.53,10.58l8.73,6.78c-1.54,3.63-5.3-4.28-6.75-2.61-1.92,2.21,4.38,9.18,4.16,11.93-6.42-1.82-2.13-12.49-14.96-17.51-2.02-.79-3.1-2.6-4.78-3.69-3.39-2.19-6.55-3.55-10.36-5.55,1.77,5.24,4.24,7.99,4.45,12.7.14,3.16,9.91,10.95,8,15.56-3.79-.56-13.17-21.86-13.28-22.72-.73-5.79-2.98-8.03-8.37-9.57,6.07,1.73-15.07-6.75-13.88-6.13ZM100.88,168.8c2.2.74,1.72,2.88,2.45,4.79,5.4,14.17,2.79,18.13,12.1,31.37,1.76,2.5,2.08,5.24,4.45,7.21l1.15-22.32c3.46,36.75-4.54,13.91,8.45,40.86,1.24,2.57.33,5.1,2.77,7.56-.14-5.57,1.48-9.85,1.6-14.95l.36-15.99c5.86-.16-1.42,31.7,1.98,37.73,3.22,5.7,3.4,12.18,5.82,10.37,1.5-1.12,6.32-34.1,2.61-45.34l-2.99-9.08c-1.14-3.46-2.47-6.28-4.81-8.86-5.35-5.88-9.35-12.83-15.6-17.89-7.92-6.4-18.62-16.36-24.45-25.66-3.3,10.1-1.35,12.9-3.6,21.36-2.1,7.88-1.65,26.01-.11,34.97.61,3.52-1.15,7.5.45,10.77,13.19,27.14,5.11,13.39,22.82,30.4,2,1.92,4.9,2.41,6.99,4.17,4.36,3.66,8.55,6.79,14.54,7.75-2.94-2.15-6.9-14.42-8.12-15.47l-4.19-3.58c1.73-1.04,2.12-2.86.94-4.3-3.46-4.2-4.41-9.35-7.26-13.82,1.04,1.64-22.04-19.87-20.93-21.51,2.69-3.96,10.25,12.26,16.98,14.14.31,1.65,1.14,1.55,2.01-.2-3.79-1.72-7.68-12.94-8.77-15.42-3.4-7.69-5.51-15-6.18-23.3-.14-1.7-3.32-3.24-1.44-5.77ZM142.42,386.09c-.14-11.53,1.99-17.55,6.69-25.17-2.26-.02-6.15,1-6.66-1.28-1.92-8.56.77-30.6,3.88-39.71.98-2.87,2.32-5.89,3.62-8.56l4.55-9.31c3.25-6.65,6.5-12.59,9.39-19.37,1.94-4.56,3.76-9.24,6.15-13.6l9.52-17.32c-.57,1.04,7.9-7.23,8.41-13.88-2.14,1.5-3.18,7.68-6.4,7.45,1.77-7.41,5.5-13.83,9.92-20.41,1.12-1.67.18-3.16-1.54-1.96-4.18,2.92-5.21,7.76-8.03,11.17-6.03,7.31-10.6,16.94-14.39,25.54-4.28,9.73-15.03,23.28-15.94,29.94-.3,2.19-1.96,4-4.14,4.48-5.75,1.27-1.26,4.8-5.33,16.85l-2.52,7.45c-1.17,3.45-2.72,6.68-3.66,10.14-1.55,5.65-5.54,28.37-3.5,33.05,5.92,13.58-3.61,11.13,4.96,25.84.11-4.09-2.02-7.18-.26-11.18l5.29,9.86ZM192.41,230.55c3.3-1.13,4.5-3.04,3.35-5.95-1.96,1.51-3.19,3.51-3.35,5.95ZM85.07,316.15c.4.25,7.15-12.79,4.87-13.12l-8.31,7.09c-2.47,2.11-3.53,5.51-7.68,6.25,1.12-3.02,10.02-12.02,13.03-15.71-4.15.93-7.01,3.04-11.85,3.27.43-2.4,2.71-3.19,4.87-4.27,13.51-6.75,11.68.09,18.78-10.78,1.29-1.98,5.97-1.82,4.94-6.11-2.86,2.86-6.7,2.29-9.94,3.52-2.97,1.14-5.46,4.18-9.42,1.99,3.7-2.72,11.49-4.04,14.16-7.94,2.81,1.71,20.25-2.82,20.61-4.38.84-3.69-21.52-.76-23.98.53l-9.62,5.07c-3.54,1.87-4.84,4.27-6.74,7.12-2.35,3.51-4.58,6.16-5.78,10.49-.86,3.12-3.81,5.52-4.45,9-.41,2.25-2.65,3.21-3.77,4.89-2.83,4.26-4.88,8.86-5.83,13.42,3.82,1.07,6.34-1.1,9.24-1.15,5.75-.1,10.59-.89,15.8-3.14,4.68-2.03,9.96-2.62,14.22-5.58,3.08-2.14,6.62-4.31,8.41-7.41l3.33-5.77c3-5.2,7.19-9.49,9.22-15.33,2.9-8.34,11.35-10.81,6.59-10.51-.35.02-.96-.05-1.63.35-10.85,6.41-13.4,2.59-17.77,10.77-2.98,5.57,1.16,12.37-8.01,20.05,1.44-6.8,5.01-11.28,2.82-16.66-8.27,3.28,1.74,9.72-5.94,10.65-1.98,4.9-3.11,10.31-10.17,13.4ZM260.79,403.4c.62,4.82,3.62,7.7,5.94,11.46,4.42,7.19,7.41,8.64,8.38,13.1-7.86-5.2-15.72-20.8-20.97-25.44-4.5-3.98-21.44-3.2-28.13-2.69,1.53,3.82,4.09,6.09,7.37,9.11-2.11,3.82-5.05-6.25-13.67-7.73-2.63-.45-18.04,4.81-18.64,7.1,15.11-2.98,17.39,4.72,23,10.72l13.73,14.66c4.3,4.6,14.72,13.07,21.09,11.73.93-1.94,1.15-3.86,2.94-5.33,11.5,5.24,26.42,7.06,38.5,5.53l12.47-1.58c4.1-.52,14.63-.93,18.04,1.11,1.88,1.13,3.98,1.61,6.55.76-1.14-2.22-2.32-4.98-4.25-7.25-6.15-7.2-14.31-29.8-22.2-35.68l-8.64-6.43c-1.23-.91-3.69-.56-4.19-2.12-.69-2.36.07-4.48-.21-7.22l-9.29-5.47c-6.89-4.05-23.19-3.45-30.85-6.33-.84-.63-.52-4.24-2.16-4.22-4.71.07-9.91.22-14.23,2.16-3.33,1.49-7.06,2.63-10.14,4.5-7.98,4.86-20.8,15.52-26.65,22.57,2.46,1.86,2.85-1.17,4.37-1.5,5.26-1.14,11.96-.21,16.44-3.55,7.87-5.87,15.51-17.41,32.1-15.54,2.31-.23,2.4,2.67-.13,2.54-3.13-2.56-29.46,8.85-24.9,11.91l17.04,1.71c8.1.81,9.78-4.75,12.49-1.78-1.88,1.06-3.56,1.09-4.3,3.09l12.45,6.74,6.74,4.29c3.31,2.11,5.65,3.46,9.97,2.59,11.83-2.39,11.7-.69,23.54,1.77-3.27,1.67-6.04.25-9-.35-5.67-1.15-11.07-.18-16.64.29,1.08,2.56,15.05,7.56,17.51,8.82l16.48,8.38c3.54,1.8,6.19,5.35,9.66,7.44-.29,1.19-1.7,1.47-2.68,1,1.22.58-12.65-10.23-21.26-12.79l-7.9-2.35c-2.68-.8-4.99-4.48-8.19-3.14-.55,4.76,7.17,5.82,3.99,8.14l-5.9-5.77c-11.25-11-11.72-10.79-25.68-19ZM190.03,414.99c1.55-5.58-15.18,13.39-11.38,12.13,5.74-3.7,5.1-8.46,11.38-12.13ZM95.94,464.38c2.23,7.74-3.89.79-9.47,4.44l-13.56,8.88c-3.23,2.12-3.99,6.41-9.24,7.4,8.25-8.78,13.83-16.27,27.82-21.64,3.97-1.53,8.6-4.8,10.82-8.37,2.44-3.92,1.91-8.52,3.35-12.99-3.63,1.07-6.02,2.22-9.31,2.99-2.24.53-2.8,3.87-5.98,2.73,3.23-5.35,26.22-11.53,19.16-18.43-15.3,3.23-19.66,8.02-30.22,17.32-1.81,1.59-5.07,2.81-5.87,5.09.83,4.52.09,7.67-2.44,11.31-6.28,9.04-11.84,19.42-11.88,30.77,0-1.84,4.24,12.6-.17,21.73-2.67,5.54,6.13,4.86,5.41,10.6s2.27,19.2,3.34,25.05c1.44,7.92-.78,17.18,2.33,25.51.99.63,11.94-10.55,12.61-11.32,3.89-4.45,9.05-7.4,12.66-12.14,2.15-2.82,4.72-4.94,8.48-2.86,5.1,2.83,11.36-8.81,12.89-10.6,2.45-2.87,2.97-5.99,4.81-8.89.96-1.51,5.45,1.37,8.6-14.8,1.1-5.62-.09-11.12.6-16.77.81-6.71,8.01-1.97,7.16-9.09-.72-6.05-.53-12.4-2.21-18.15-1.89-6.47-3.28-12.71-5.8-18.84l-4.56-11.09c-4.03-9.81-4.51-12.14-5.51-19.59-4,5.9-8.69,10.52-7.22,16.4l1.32,5.31c4.53,18.18,10.17,13.37,10.02,22.6-4.15-1.31-12.65-20.82-14-20.86-2.19-.06-2.97,14.9-3.08,13.46.27,3.49,1.51,6.89,1.44,11.01-.1,6.07,8.2,15,6.1,17.76-3.1-3.12-4.21-6.86-6.44-10.5-1.76-2.86-.99-6.21-3.33-8.72.78,3.65-1.66,6.1-2.25,9.04-.64,3.19,3.11,23.61,4.03,28.64l1.54,8.43c.43,2.34-.67,4.78.67,6.87.84,1.32.32,1.56-.56,2.4-2.15,2.05-2.49-8.35-2.6-10.64-.35-6.9-4.15-15.75-3.65-23.61-.27-1.21-1.73-1.08-2.36.06.91,8.12-.4,15.61-1.41,23.6,0,0-10.44,37.04-13.88,36.54-.51-1.56-.43-3.31.35-5.43l6.43-17.43c1.8-1.07,0-1.62-1.34-.59-2.21.96-2.64,4.18-5.48,3.81,15.81-20.9,6.89-8.44,12.53-29.54.62-2.32-1.51-4.32-.27-8.18l-10.23,11.23c-2.43,2.66-1.62,7.93-4.78,10.09-2.46,1.6-6.06,1.39-7.98,4.81-4.93-3.33,7.46-5.85,9.08-13.09,2.18-9.75,9.36-8.73,15.3-19.71,1.75-3.23,1.12-7.4,1.42-10.89l1.1-12.76c.12-1.4-5.02-.84-4.3,1.65ZM172.82,437.07c1.99-1.5,3.38-3.42,3.36-6.39-2.52,1.46-4.55,3.04-3.36,6.39Z"/></g></svg>