<svg xmlns="http://www.w3.org/2000/svg" id="Layer_2" viewBox="0 0 777 781.9"><path id="Layer_1-2" fill="#e43122" d="M0 782v-12.5c5.8-.8 1-4 10.9-17.4 5.4-7.4 6.5-16.2 9.7-19.2 2.3-2.2 5.3-3.5 7.2-6.4 3.7-5.5 10.1-5.9 15.6-8.7l-2.9-3.7c.6-4 28.4-24.2 27.8-22.2q.3-1.3-.7-1.8c-1.2-.6-1.8 1.8-9 3.4 9.3-10.6 17.2-8.8 18.5-9.2 2.3-.7 26.4-16.5 24.3-18s-11 6.9-13.3 9c-1.8 1.5-12 6.4-13.9 2.6 9 0 14.7-4.4 19.9-10.4 3-3.5 7.2-6 10.6-9.1 5-4.5 11.1-5.2 15.4-12.2l5-8.4c3.2-5.3 6.7-9.8 10-15 1.8-3 5.3-5 7.7-6.9-2.3 4.5-11.7 15.7-12.8 18-2.1 4.5-4 9.8-7.9 13.2-.8.7-22.3 17.4-16.7 17.2 8-5.3 20.5-20 25.4-23s11.2-3.2 16.9-5.1q-3.4-2.2-8.4-1.3c-.4-2.6 2-3.7 3.6-5.5 2.2-2.5 2.2-6.6 4.7-9 4.5-4 6.9-8.8 9.4-14.3 1.4-3.2 3.6-6.1 5.4-9.3 10-18 4-11.5 9-24 .6-1.5 2.2-19.2 2.4-22.9.8-12.5-1.3-24-4-36.1l-2.6-11.5c-1.8-8-.3-41.3 1.3-49.3l1.7-8.6c-4.5.2-4.2 17.5-7.1 18.7-.7.2-2.5-.5-2.8-1.7l-4.5-15.9c-1.6-5.8-1.5-11.5-3-17.5-1.6-6.3.5-14.7-4-24.2-2.7-5.6-4.2-11.4-9.4-16.4l-1.3 7.3c4.3 6.5 3.8 17 7 21.1 1.7 2.2 4.8 2.9 4.9 6.5.2 5.7 2.9 12.6.2 15.1-2.4-2 0-4.5-2-6.7-2.4 7.9.7 15.6 2.8 23.8 1.2 4.5 4.7 22.4 5 22.8.5 1.3 1.6 2.5 1.7 4.2.1 7.4 2.3 14.2 3 21.3.4 3.2-.8 6.5.4 10.1a183 183 0 0 1 5.2 30.8c-.2 2 2 3.3 2.2 5.1.4 3 1.7 25.3-3.8 27.6-1.8-3.3 1.7-5.8 1.5-9.2-.4-6 1.5-11.4-.1-17.7-4 4.8 1.2 15.3-5.7 17s1.5 11.1-2.4 21.3c-2 5.5-5.5 12-9.5 16.3-4.2 4.4-7.2 9-11 13.8l-4.6 5.6-10.6 12.7c-2 2.3-3.9 3.4-6 5.2-1.9 1.8-2.5 4.6-5 6.2-5.4 3.2-9.3 8-12.9 13s-8.7-.6-11-1L80 671a339 339 0 0 1-25 17.9c-4 1.2-4.5 3.3-6.8 6.2-1.5 2-6.1 1.4-7.8 4.4-1 1.9-3.5 2.5-5.6 3.3q-.4 2.4 1.8 1.2c1.6-1 2.6.6 1.7 1.8-8.3 8-9.5 14.3-16.4 21.7-3.5-2.6 11.2-20.3 12.2-22-5.5-.5-29.2 36.9-30 38.5q-1.4 3.1-4.1 3.2V736c2.6.3 3.5-2.5 5.1-4.7l5.1-7c5.4-7.3 15.6-23 24-27.3 8-4.1 14.5-9.9 21.7-15.2 3.2-2.4 6.9-3.7 10.2-6.3L80 664.7c3.2-2.6 4.1-15.7 6.3-20 6.8-.8 2.4 8.5 8 12.1l10.3-9.8 10.2-9.7 8.4-9 13.2-15.3c4.8-5.6 15.2-20.9 17.1-27.7 6-21-11.6-28.4-4.6-33.8 2.2-.2 10.4 11.8 11.7 8 1.4-4.2.3-8.8.7-13.3 1.1-11.3-1.8-19.5-3.3-31.3l-1.5-12.3c-1-7.6-4.4-14.7-4.8-22.3s-1.4-14.3-4.8-21.3c-1.5-3-.2-7.2-2.4-10.2s-.7-6.3-1-9.3l-1.1-11.3c-.4-4.1-.3-9.4-3.3-12.4-2.1-1.8-6.9-2.5-9.4-2.3-9.5 14.5-2 20.5-1.1 26.7.6 4.3 3.6 7.8 4.7 12 5.4 22 7.2 13.3 8.3 35.6.3 5.8-1 10.5-6.5 13.5-.7 35.2-5.9 28.6-12 37.7l-4 6-4.9 6.3c-1.7 2.2-9.6 8.8-10.5 8.2s-.4-3.4-1.6-4.2c-3-1.8-9 7.8-11.2 9.8L81 575c-1.3 1.3-3.6 1.2-4.7 2.7-5 6.6-12.5 9-14 7.3-.7-.8 1.1-4.8 1.2-11.4l.1-15c0-4.6-2.7-8.9-2.5-13.5.6-14.2-5.4-20.7-5.3-20.5-2-5.5-1.4-13-.2-18.7 1.6-7.6-5.6-5.5-1.5-18.6 1-2.8 3.5-4.7 3.4-8 0-1.7 10-18.4 11.8-21.3 1-1.8-1.4-4.5-.8-6 3-7.7 14.7-15.2 21.8-19l13-7c4.3-2.2 9.4-3.3 13-6.7 5.8-5.4 12-14 20.7-11.1 2.2-1.3.3-4.9-.5-7-3-9-6.2-17.9-7-27.5l-1.1-13.7c-.5-5.9-1.1-12.4.3-17.9l2.2-9c3.1-12.4 12.1-32 8.8-42.1-1-3.2-3.3-5.9-3.6-9.5-.2-1.5-1.7-2-2.6-2-3.3 0-13 14.4-13.8 20.4-.6 4.3-3.7 6.8-6.2 9.8-11.4 14-26.3 17.8-43.7 21.1-6.3 1.2-12.2 3.7-18.7 2.8-2.8-2.6 7-17.5 8-18.6 3-3.1 3.1-8.7 5.8-11.8 10.4-12.4-1-9.1 17.5-24.6 3-2.5 7-3.6 10.3-5.4 4.2-2.2 9.3-2 13.9-2.8 29.3-5.5 31.5 16 34.9 11.9 2.4-3-1.4-12.6-2-13.4a37 37 0 0 0-8.9-9.3l-7.3-5.3c-3.7-2.6-8.4-4-11.6-7.3-2.5-2.5-4.5-5.1-7.4-7.5a63 63 0 0 1-14.6-23.8l-2.3-12.2c-2-10.5 1-32.4 1-32-.4-4.9 2-9 2.1-13.7L91 143c.5-13.1 15.9 13.3 18.7 15.5 8 6.3 15 12.8 22 20.2 2.8 3 5.6 5 7.8 8.8 7 12.2 8.8 17.4 9.9 31.2.7 9.9.4 21.5-1.5 31l-2.1 10.4c-1 4.5-.6 9 .3 13.4.8 3.4-1 6.6 1.3 10 5.1-3.4 6.6-8.5 8-13.7.4-1.7 3.2-2 3.7-3.6 1.3-4.2 4.7-7 6.2-10.8q4.8-11.4 12.6-21.4c1.3-1.6 1.6-4.1 2.9-6 4-6 8.5-11 13.1-16.6 6.6-8 13.4-15.4 21.6-21.7 17.6-13.4 12.7-19.1 24-34.9 2.3 4.2.6 7.6 1.6 11.4 4.9 1.6 18.3-5.5 21-6.5.2 0 24.8-5.5 27.3-7l10-5.7 6.3-6c3.6-3.6 11.7-8.6 12.3-17.9.3-5.8 1.6-11.4 1-17.4a92 92 0 0 1 3.6-26.2q1.7-3.1 3.6-6.2l5.5-9.5c1.2-.7 3.3 1.1 4.3 1.8 9.8-11.5 9.8-15.4 22.6-23l10.3-6.2c4.3-2.6 9-4.5 14-3.4l1.8 5c3.8 0 7.6-1.3 11.3-2.9 9.5-4 19-3 29-2 7 .8 33.6.2 34 1.4.8 2.3-2.2 1.3-7.9 7.2l-7.9 8.2a78 78 0 0 0-7.4 16c-.7 3.4-3.2 5.2-4.3 8-3.2 8.4-10.3 14-14.6 21.2-.1.2 1.8 9.6-15.3 15.3-5.9 2-11.2 5-17.8 4.3-.3 2.5.3 5.5-1.8 6.8-2.8 1.6-5.5 4-8.6 4.8-4 1-8.2.4-12.1 1.8-5 1.8-9.8 1-14.9.1-3.2-.6-6.4 2.6-9.4 1.8-1.4-.4-2.4-2-3.7-1.9q-2 .2-3.6 2c-1.3 1.7-3.2 1.1-4.8 1.7-1.3.5-10 11.2-10.4 13.1 2 .8 3.6-.5 5.6-1 6.8-1.5 14-.7 20.7-2.7 4.8-1.5 9-2 14.2-2.1s9.7-2.2 15-1.6c3.7.5 7.4-.4 11.1-.4l31-.3c7.2 0 17.4-.9 21.7-7 2-1.2 5.4-.9 7.8-1.5 1 4.6-4 7.1-4.3 11.8 3.8 1.3 7.2 0 11-.2l16-.7c3.8-.2 6.6-1 10.1-1.9 5-1.3 10.8 1 15.7-1a44 44 0 0 1 13.9-3.6c6.2-.4 12.2-2.4 18.5-2 5.5.2 23.8-4.2 27.4-6.6 12.5-8.5 6.4-12.2 11.1-14.4s3 8.7 4.3 9c5.8 1.8 11.4-.2 17.3-1.2 3.4-.5 5.8-2.3 8.8-3.5s6.3-1.5 9.6-3l7.6-3.5c2.2-1 5.6 0 7.1-1.7 2.5-3 12.4-4.7 14.7-6.4 4.3-3.2 8.8-5.5 13.2-8.3 3.6-2.2 6-4.3 10.4-5.9 4-1.4 8.6-4.5 11.7-7.4 2-1.8 3-4.9 4-7.2l5.3-12.3c.8-1.8 2.8-.3 3.3.4 2.2 3-2.1 6.2 0 10.7 3.4-2.8 7.6-4 11.5-6.4l9.7-6c1.8-1.1 4.5-1.3 5.7-3 2.9-4.2 7.3-5.2 11-7.9 4.2-3 6.7-8.2 10.1-12 7.8-8.7 18.7-16.1 25.6-25.3l5.3-7.2c1.1-1.5 4.3-1.7 4.7-.2-4.2 8-10.8 13.9-16.5 20.4l-5.8 6.8c-2.1 2.5-3.5 5.2-5.9 7.6-4.2 4-14 14-18.8 16.2-3.3 1.4-3.7 4.6-5.8 6.7s-5.1 3-7.4 5c-5 4-9.5 8.6-15.2 11.7-5.3 2.8-10.4 5.4-15 8.9-3.6 2.7-7 2-11 1.8-2.3-.2-23.2 13.6-25.6 14.7l-19.8 8.7c-2.7 1.2-5.3 2-7.8 3.6-3 2-7.7 1.1-10.4 3.3a36 36 0 0 1-16 5c-2.8-.6-4 1.6-5.7 2.7-1.2.8-13.4.8-14.5-5.6-2.2 6-6.3 9.2-11.9 10.9q-12.3 3.6-25 6.6c-4 1-8.3-.3-12 1a348 348 0 0 1-43.5 5.9L460 146c.7-.2-34.8 2.6-34-1.1q0-.7 1.4-1.2l6.8-1.3c-3-4.6-7.2-3.1-11.5-1.4-4.9 2-10.6-.1-15.7-.5-13-1.1-25.4-.5-38.3.7l-15 1.4c-5 .5-9.1 1.3-13.9 2.6s-15.7 1.8-29.3 5.6c-3 .8-5.2 2.8-8.8 1.8-1.7-.5-4.1 0-5.9.8-4 1.9-25 9.5-27.7 9.6-3.4.3-18.4 5.2-21.7 8.7-.5.6 1 3-.8 3.3-3.4.5-5.9 1.5-8.8 4.2-2.3-2.7 0-5-.3-8a82 82 0 0 1-22.9 25.1c-4 2.1-5.6 6-8.5 8.8-2.5 2.5-4.9 4.1-6.6 7.4-1.6 3-5.9 4.2-6 8.3 6.7-2.1 9.4-9.5 16-14.9 4.1 1.4-6.6 9.1-7.7 10-.1 0-5.5 9-1.6 8.5 2.8-2.8 7.4-5.4 8.9-9.6.2-.8-1-2.8.5-2.8 1.1 0 5.3 3.6 6 .4.3-2.1-1.1-3.4-2-5.3 3.8-1.7 5.3-5.7 8.4-8.2l7.7-6c2-1.7 4.3-2.5 5.4-4.6-1.6-.5-2.7-.5-3.1-1.4a98 98 0 0 1 21.9-12c2.2-.7 4.2-3.6 6.7-1.5l-12 5.4c-1.4 1 .2 1.2 2 1.4 5.3-3.3 11-4 16.8-5.6 3.1-.7 5.4-4.5 8.3-4.8 3.7-.2 5.1-2.2 7.6-3.6 3.7-2 8.9-1.4 13.2-2.3 15.4-3.2 23.6-4 38.6-8.1 1.8-.5 3.8.3 5-1.9-2.2-1.9-4.7-1.2-7.8-1.5 1.9-2.1 5.1-3.2 8.2-3.1 6.5.3 12-2.3 18.1-3 20.8-2.6 20.6-5.4 43.4-3-15.5 3.3-16.7 1.3-32.9 4.7-4.5 1-9 .5-13.5 2-3 1-6.1-1.6-9.7.8 11 3.5 3.3-2.5 22 2.6 3.6 1 7 1.6 10.5 4 1.1-2.3 0-3.7.4-5.4 7.5-2.8 15.1-2 23-2l44.7.2c30.1.1 11.6-7.1 34.2-4.4-2.3 2.2 15 3.6 15.5 3.4 6.2-1.8 12-3.6 18.6-4.1 5.5-.5 10.8-2.2 16.2-3.2a87 87 0 0 1 29.9-.4c1.2.3 1.3-.8.2-1.5-4.3-1.1-8.3-1.3-12.7-4 5.9-2.4 20.7 2.4 26-2.6-2.6.5-4.7.8-7.5.1-3.2-.8-6 1.8-8.9.4 3.6-2.1 6.7-.9 10.1-2.1 17-6.5 11 2.8 16.5-1 .8-.6 2.6 0 3.3-1.2.4-.6-.7-1.7-.7-3.1s2.7-1.4 4-1.4c1 0 2.1 1.9 3.3 2.5 5.8-1.5 11.5-4.5 17.8-5.3q1.1-1-.2-2.3-1.9-1.3.7-2c15.8.3 20.3-10.2 21.7-10.2 7.2-.4 27.2-14.2 34-18.3 5.6-3.4 11.1-6 16.1-10.2 3.2-2.7 6.6-5.6 10.6-6.6l11.2-2.7c-1.3-7 4.6-8.2 8.4-11.5l9.2-8.2 5.7-5.6q2.8-3 6-6l11.2-10.1c2.6-2.5 5.4-4.5 8-6.9 7-6.5 12.9-13.2 18.5-20.9.8-1.2 3.7-.8 4.3 0 .9 1.3-.2 2.7-1.4 3.7-6.6 5.3-17.5 19.6-25.3 27-4.4 4-9.4 7-13 11.7-1.9 2.2-3 4.2-5.3 6-4 3.1-7 6.8-11.6 9.5-2.3 1.4-5.7 4.3-5.5 6.6s3.5 2.2 5.4 2.2c1.5 0 1.6 3 0 3.2-5.2.7-25 5.8-28.5 7.8-3 1.7-5 3.8-8 5.7l-7.4 5c-2.7 1.8-6.5 2.1-9 4.5s-5 4.2-8 6l-9.1 5.7c-5 3-10.1 5.3-15.2 8.3l-9.4 5.4-10.1 4.9c-3 1.4-5.4 4-8.8 4.3-4.3.4-7.3 2.8-11.3 3.9l-9.8 2.7-13.8 3.5c-4 1 6.2 6.4 9.3 6.8 17.5 2 18-4.5 32.2-4.6 10.8-.1 22.3-1.7 31.8 3.1l12 6.2c2 1.1 3.5 3 3.3 5.2-.2 3.2 9.7 9 12.8 11.3 5.7 4.1 8.4 10.8 12 16.6 8.6 14.3 9.4 24 19.5 40.9.8 1.3.7 2.8-.4 3.2-3.2 1.2-7.9-5.5-21.7-8l-8.5-1.6c-13.8-2.5-32.9 5.4-48-11.4-1.9 1.3-4.2 3.2-6 2-9.3-5.8-16-14-21.2-23.5-2.2-4-5-7.5-7-11.6-7.7-16.2-8-22.8-26-27.2-19.4-4.6-41 4-44.5 3.3-2.8-.4-5.1 1-7.6 1.7-1.5.4-4.3-1.2-5.5.3-4.1 4.8 7.5 8.3 2 11.7-2.3-2.8-6.4-3.2-8.7-4.9-11-8.2-24.9-6.4-37.4-4.2-7.4 1.4-31.4 1.2-40 .9-57.2-2.4-37.4 1.9-35.9 8.2.4 1.5-1.9 2.4-2.7 2.5 1 0-11.7-9-25.5-9.7-12.5-.5-28 6.5-41.4 8.8-6.6 1.1-22 4-27.3 6.3q-6.8 2.9-14.3 3.6c-2.8.4-18.7 7.5-22.4 9.2l-12.8 6c-1 .5-21.4 13.8-19.8 18 3.7 1.8 7.8.7 11 3 3.9 3-12.2 4.1-21.4 9.7-10.2 6.1-12.8 13-13 13.3-4.2 4.4-6.5 9.2-9.5 14.2-5.2 8.6-10.5 16.7-15 25.7-1.8 3.6-2.7 7-4.7 10.7l-5 9c.9-1.5-5 12.4-9 19.6-10 17.4-8 32.6-10.6 40.3-.7 1.9.7 3.4 1.8 4.1 3.3 2.3 7-7.2 12.9-3.3l-6 8-4.7 10.2c-4.1 9 1.6 29.3 6.5 39.1 2 4.1.7 9 1.6 13.2 1.3 6 1.6 11.5 2.3 17.5.4 4 2 7.3 1.7 11.7 3.9-2.8 3.8-6.4 4.7-9.8 2-7.7 10.2-21.8 16.1-27.3 2.9-2.6 6.4-4.4 9-7.2 3.5-3.7 7.4-6.7 10.6-10.5 3.7-4.4 6.8-8.6 11.2-12.4s10.9-9 16-11.6c8.3-4 25.9-11.6 34.3-6.8l1.3 5a15 15 0 0 0 8.5 1.6c8.1-.3 20.9 2.1 26.6 8 2 2 4.2 3.1 4.8 6.3 1.8 9.7 12.3 8.5 15.4 16.8 1 2.7 2.8 4.3 4.2 6.6 6.5 10.7 11 21.8 18.4 30.4 1.7 2 2.4 4.7 4.8 6.5 1.2.9 1.4 3.6-.2 4-8.3 1.8-13.6-6.4-27.6-5l-20 2.1c-16.7 1.8-18 .2-32.7-2.8-2.7 7.4-16.8 1-21.7-1.6a34 34 0 0 1-10.6-9.4l-5.7-6.9c-2.8-3.4-6.4-6-8.6-9.9a15 15 0 0 0-18.1-7 47.5 47.5 0 0 0-24.4 26.6 121 121 0 0 0-7 41.2l.8 13.7c.8 15 5.8 29.7 6.3 37.3q1.1 17.3-.1 34.7a92 92 0 0 1-8.6 31c-.2.2-14.4 24.4-13.8 23.6l-6.6 9.3c5.1 6.9 20.7 6.3 16.6 10-3.9 3.3-7.7 2.3-12.2 2a30 30 0 0 0-19.7 6c-3.9 3-8 6.1-11.3 9.7-7.6 8-16 13.5-25 20.1l-9 6.8L64.7 699c-6.5 4-11.5 9.6-18 14.5l8.6 4.8c1.3.7 1.8 2.3 1 2.9-3.8 3-11.9-2.3-24 7.5-7.9 6.4-1.2 1.7-10 12.3-5.8 6.8-8.1 15.2-12 23-2 3.9-4.7 6.8-5.6 11.4A10 10 0 0 1 0 782ZM415 67.3c-4.3 2.6-9.1 2.1-14 2.1h-16.2a12 12 0 0 0-9 3.5c-6.1 5.2-13.2 8.7-18.7 15l27.7.4c3.6 0 7-.7 10.8 1.1-16 5-26.7-3-44.7 4.5.2 0-11.8 10.7-10.3 11.6.1 2.8 4.8 1.5 6.8 1.5l19.3-.4c2.7-.1 2.8 2.9 0 2.6-6.8.2-13.4-.7-19.1 1.6-12.5 4.8-7.8-3.9-22.5 14.2 3.4.7 5.8-.4 8.7-1.2 8.5-2.3 25.4 1.8 41.8-4.9 1.9-.7 1-4.5 2.4-5.4 8.4-5.8 18.5-3.3 25.9-10 1.4-1.2 4.2-1.3 5-3.3.5-1.2-1.6-4.3-.5-5.7 6.3-5.3 19.5-19.7 21.5-27 .7-2.7 1.7-4.6 3-7l5.6-10.4c2.7-5 7-8.5 10.9-12.5-14.4 1.5-6-1.7-18.8-.5-8.5.7-15.3-7-41.6 4.5-8.8 3.8-6.4-7.2-15.1-3.9-1.8.7-21.3 15.2-23.7 18.3-3.5 4.5-6 9.3-10.4 13.3-6.3 5.7-6.4-4.7-12.5 13.5s-1.8 16.9-4.9 30.9c-.5 2.3-1.7 4.5.8 6.2 3.4-2.8 5.5-7 8.2-10.8 4-5.7 3.5-12.7 6-19.8 2.3 4.2 0 7.5.4 12.3 3.6-4.3 6.6-8 11.3-10.8 2-1.3 3-3.7 4.5-5.5 11.6-12.9 5.7-17.5 14.6-30.8 1.4 4.6-1 8-2.4 11.9l-4.1 11.7c4.6-2.5 7.3-6.2 11.4-9.2 1.8-1.3 4-1.7 5.9-2.8 3-1.8 5-5.5 8.5-6A27 27 0 0 0 396 57l14.8-7.6c3.1-1.6 7-1.7 9.8-3.7s14-6 15.6-4.9c-1.6 2.3-4 2.3-6.3 3.4l-8.5 4c-3 1.4-5.6 3.6-9 4.5-5.3 1.5-9.6 4-14.4 6.5-3 1.6-6.5 2-9 5 4.3 7.3 25.4-.4 26 3.2Zm285.9-7.8c-2.6.4-5 2.8-5.5 5.2 3.1-.8 4.4-2.4 5.5-5.2m-33.8 23c4-.3 7-2.5 10.2-4.9 4-2.9 8.5-4 11.8-8-4.9.3-7.8 3.6-11.1 6.3-2.3-.8-3.7-2.6-6.1-2.5-2.2 3-3.5 6-4.8 9m-349.4 50.1c3.5.2 4.3-1.5 3.5-3.7-1.4 1.2-2.7 2-3.5 3.7m289.6 26.6c-.3 2 .7 3.5 1.9 5 1.7 2.4 1.7 5.1 3 7.7l6 13.1c-4-2-3.8-6.6-5.9-10-10.5-16.5-5-17.6-25.1-23.7.5 4.4 3.3 6.8 4.4 10.4 1 3.2 1.8 6.2 3.5 9.2l8 14.2c.7 1.2 10.2 12.3 10 12.1 2.5 1.7 5.1 2.7 7.4 5.2 1.5-1.3 1.2-2.9 2.8-3.9 13.2 11.9 16.3 14.4 34.2 14.4H669c20.1 0 31.2 10.8 25.6-1.3l-6.3-13.6c-6.2-13.4-8.8-21.7-22-31.4-2-1.5-3.4-3-5.8-4.4L649 156c1.7-1.4 4.3-1.9 3.3-3.4-1.6-2.7-5-2.1-7-3.3a30 30 0 0 0-17.3-4c-8.4 0-27.5.4-35.2 4 17 12.7 28.5-1.3 47.7 5.6l-22.1.8c-2.2 0-4 1.2-6.6 1.3 22 12.1 9.7 9 32.4 9.6 2.2 0 3.7 1.6 5.7 2l8 1.6q1.9.4 1.2 1.9c-.8 1.6-15.6-5.7-22.3-2.5 5.2 4.6 12 6.3 17.5 10.5l8.8 6.8c-1.6 3.7-5.3-4.2-6.8-2.6-1.9 2.2 4.4 9.2 4.2 12-6.4-1.9-2.1-12.5-15-17.6-2-.7-3-2.6-4.8-3.6-3.3-2.2-6.5-3.6-10.3-5.6 1.8 5.2 4.2 8 4.4 12.7.2 3.2 10 11 8 15.6-3.8-.6-13.1-21.9-13.2-22.8-.8-5.8-3-8-8.4-9.5 6 1.7-15-6.8-13.9-6.2m-506.4 9.5c2.2.7 1.7 2.9 2.4 4.8 5.4 14.2 2.8 18.1 12.1 31.4 1.8 2.5 2.1 5.2 4.5 7.2l1.1-22.3c3.5 36.7-4.5 13.9 8.5 40.8 1.2 2.6.3 5.1 2.7 7.6 0-5.6 1.5-9.9 1.7-15l.3-16c5.9-.1-1.4 31.7 2 37.8 3.2 5.7 3.4 12.1 5.8 10.3 1.5-1 6.3-34 2.6-45.3l-3-9a23 23 0 0 0-4.8-9c-5.3-5.8-9.3-12.8-15.6-17.8-7.9-6.4-18.6-16.4-24.4-25.7-3.3 10.1-1.4 12.9-3.6 21.4-2.1 7.8-1.7 26-.1 35 .6 3.5-1.2 7.4.4 10.7 13.2 27.1 5.1 13.4 22.8 30.4 2 2 5 2.4 7 4.2 4.4 3.6 8.6 6.8 14.6 7.7-3-2.1-7-14.4-8.2-15.4l-4.1-3.6c1.7-1 2-2.9.9-4.3-3.5-4.2-4.4-9.4-7.3-13.8 1 1.6-22-20-20.9-21.6 2.7-4 10.3 12.3 17 14.2q.5 2.4 2-.2c-3.8-1.7-7.7-13-8.8-15.4-3.4-7.7-5.5-15-6.2-23.3-.1-1.7-3.3-3.3-1.4-5.8Zm41.5 217.3c-.1-11.5 2-17.6 6.7-25.2-2.3 0-6.1 1-6.7-1.3-1.9-8.5.8-30.6 4-39.7q1.5-4.4 3.5-8.5l4.6-9.3c3.3-6.7 6.5-12.6 9.4-19.4 2-4.6 3.7-9.2 6.1-13.6l9.6-17.3c-.6 1 7.9-7.3 8.4-14-2.2 1.6-3.2 7.8-6.4 7.5a63 63 0 0 1 9.9-20.4c1.1-1.6.2-3.1-1.6-2-4.1 3-5.2 7.8-8 11.2-6 7.3-10.6 17-14.4 25.6-4.3 9.7-15 23.3-16 30-.2 2.1-1.9 4-4 4.4-5.8 1.3-1.3 4.8-5.4 16.8l-2.5 7.5c-1.2 3.5-2.7 6.7-3.7 10.1-1.5 5.7-5.5 28.4-3.5 33 6 13.7-3.6 11.2 5 26 .1-4.2-2-7.3-.3-11.3zm50-155.5q5-1.6 3.4-6a8 8 0 0 0-3.4 6M85.1 316c.4.3 7.1-12.7 4.8-13l-8.3 7c-2.4 2.1-3.5 5.5-7.6 6.3 1-3 10-12 13-15.7-4.2.9-7 3-11.9 3.2.5-2.4 2.7-3.2 4.9-4.2 13.5-6.8 11.7 0 18.8-10.8 1.3-2 6-1.8 5-6.1-3 2.8-6.8 2.3-10 3.5-3 1.1-5.5 4.2-9.4 2 3.7-2.7 11.4-4 14.1-8 2.8 1.7 20.3-2.8 20.6-4.3.9-3.7-21.5-.8-24 .5l-9.6 5c-3.5 2-4.8 4.3-6.7 7.2-2.4 3.5-4.6 6.1-5.8 10.5-.9 3-3.8 5.5-4.4 9-.5 2.2-2.7 3.2-3.8 4.9a39 39 0 0 0-5.8 13.4c3.8 1 6.3-1.1 9.2-1.2 5.7 0 10.6-.9 15.8-3.1 4.7-2 10-2.6 14.2-5.6 3.1-2.1 6.6-4.3 8.4-7.4l3.4-5.8c3-5.2 7.1-9.5 9.2-15.3 2.9-8.3 11.3-10.8 6.6-10.5q-.6 0-1.7.3c-10.8 6.5-13.4 2.6-17.7 10.8-3 5.6 1.1 12.4-8 20 1.4-6.7 5-11.2 2.8-16.6-8.3 3.3 1.7 9.7-6 10.7-2 4.8-3 10.3-10.1 13.3m175.7 87.3c.6 4.8 3.6 7.7 6 11.5 4.4 7.1 7.3 8.6 8.3 13-7.9-5.1-15.7-20.7-21-25.4-4.5-4-21.4-3.2-28-2.7 1.4 3.8 4 6.1 7.3 9.1-2.1 3.9-5-6.2-13.7-7.7-2.6-.4-18 4.8-18.6 7.1 15-3 17.4 4.7 23 10.7l13.7 14.7c4.3 4.6 14.7 13 21 11.7 1-2 1.2-3.8 3-5.3 11.5 5.2 26.5 7 38.5 5.5l12.5-1.6c4.1-.5 14.6-.9 18 1.2 2 1 4 1.6 6.6.7-1.1-2.2-2.3-5-4.3-7.2-6.1-7.2-14.3-29.8-22.2-35.7l-8.6-6.4c-1.2-1-3.7-.6-4.2-2.2-.7-2.3 0-4.4-.2-7.2l-9.3-5.5c-6.9-4-23.2-3.4-30.8-6.3-.9-.6-.6-4.2-2.2-4.2-4.7 0-10 .2-14.2 2.2-3.4 1.4-7 2.6-10.2 4.5a134 134 0 0 0-26.6 22.5c2.4 1.9 2.8-1.1 4.4-1.5 5.2-1.1 12-.2 16.4-3.5 7.9-5.9 15.5-17.4 32-15.6 2.4-.2 2.5 2.7 0 2.6-3.2-2.6-29.5 8.8-25 11.9l17.1 1.7c8.1.8 9.8-4.8 12.5-1.8-1.9 1-3.6 1.1-4.3 3.1L270 404l6.8 4.3c3.3 2.1 5.6 3.5 10 2.6 11.8-2.4 11.7-.7 23.5 1.8-3.3 1.7-6 .2-9-.4-5.7-1.1-11-.1-16.6.3 1 2.6 15 7.6 17.5 8.8l16.4 8.4c3.6 1.8 6.2 5.4 9.7 7.5-.3 1.2-1.7 1.4-2.7 1a79 79 0 0 0-21.2-12.8l-8-2.4c-2.6-.8-5-4.5-8.1-3.1-.6 4.7 7.1 5.8 4 8.1l-6-5.7c-11.2-11-11.7-10.8-25.6-19ZM190 415c1.6-5.6-15.1 13.4-11.3 12.1 5.7-3.7 5-8.4 11.3-12.1m-94 49.4c2.2 7.7-4 .8-9.5 4.4l-13.6 8.9c-3.2 2.1-4 6.4-9.2 7.4 8.2-8.8 13.8-16.3 27.8-21.6 4-1.6 8.6-4.8 10.8-8.4 2.5-4 2-8.5 3.4-13-3.7 1-6 2.2-9.4 3-2.2.5-2.8 3.9-6 2.7 3.3-5.3 26.3-11.5 19.2-18.4-15.3 3.2-19.6 8-30.2 17.3-1.8 1.6-5 2.8-5.9 5.1.9 4.5.1 7.7-2.4 11.3A56 56 0 0 0 59.1 494c0-1.9 4.3 12.6-.2 21.7-2.6 5.5 6.2 4.9 5.5 10.6s2.2 19.2 3.3 25c1.4 8-.8 17.2 2.3 25.6 1 .6 12-10.6 12.6-11.4 4-4.4 9-7.4 12.7-12 2.1-3 4.7-5 8.5-3 5 2.9 11.3-8.8 12.9-10.6 2.4-2.8 3-6 4.8-8.8 1-1.6 5.4 1.3 8.6-14.8 1-5.7-.1-11.2.6-16.8.8-6.7 8-2 7.1-9.1-.7-6-.5-12.4-2.2-18.2-1.9-6.4-3.3-12.7-5.8-18.8l-4.5-11c-4-9.9-4.5-12.2-5.5-19.7-4 6-8.7 10.5-7.3 16.4l1.4 5.3c4.5 18.2 10.1 13.4 10 22.6-4.2-1.3-12.7-20.8-14-20.8-2.2 0-3 14.9-3.1 13.4.3 3.5 1.5 7 1.4 11 0 6.1 8.2 15 6.1 17.8-3-3.1-4.2-6.9-6.4-10.5-1.8-2.9-1-6.2-3.3-8.7.7 3.6-1.7 6-2.3 9-.6 3.2 3.1 23.6 4 28.7l1.6 8.4c.4 2.3-.7 4.8.7 6.9.8 1.3.3 1.5-.6 2.4-2.2 2-2.5-8.4-2.6-10.7-.4-6.9-4.2-15.7-3.7-23.6-.2-1.2-1.7-1-2.3 0 .9 8.2-.4 15.7-1.4 23.7 0 0-10.5 37-13.9 36.5a8 8 0 0 1 .3-5.4l6.5-17.4c1.8-1.1 0-1.7-1.4-.6-2.2 1-2.6 4.1-5.4 3.8 15.8-21 6.8-8.5 12.5-29.6.6-2.3-1.5-4.3-.3-8.1l-10.2 11.2c-2.4 2.6-1.6 8-4.8 10-2.5 1.7-6 1.5-8 4.9-4.9-3.3 7.5-5.9 9.1-13.1 2.2-9.8 9.4-8.7 15.3-19.7 1.8-3.2 1.1-7.4 1.4-10.9l1.1-12.8c.1-1.4-5-.8-4.3 1.7Zm76.8-27.3q3.2-2.1 3.4-6.4c-2.5 1.4-4.6 3-3.4 6.4"/></svg>