<svg xmlns="http://www.w3.org/2000/svg" id="Layer_2" viewBox="0 0 480.4 615.5"><g id="OpenNoTape"><g id="bK3bkW.tif"><path d="M450.9 237.7c-4.9 13-15.3 21.9-28.3 26.4q-.4 2.1.2 4.5c2.1.8 6 0 7.5 2.2 1.7 2.6.4 6.6 1.7 9.5 1 2 3.9-.7 4.3 7.2 8.9.3 17.7-.1 26.7.6 3.5.3 5.5 2.6 6.8 5.5 1 2.8 2.4 5.3 2.6 8.3.4 4.9 8-.2 8 6.8l-.2 103.5V583c0 5.2.2 9.4-.6 14.1-2.2 12.3-10.8 18.3-23.6 18.3H188.5a25 25 0 0 1-12.5-2.7 20 20 0 0 1-10.8-17l-.2-134.3V419l.1-38.2-.1-55.6c0-2.9.4-5.4 0-8-7.5.2-13.1-6.7-13.2-13.8L27.4 303c-9.3 0-15.8-9.2-17.7-16.9-1-4.3-1.7-7.4-2.2-11.4l-2-17-2.1-19.5-2-25.6Q0 192.2 0 171.8l.1-23 .4-15.3.7-13.6c1.2-22 2.3-43.5 5.1-65.4 1.2-9.1 3.4-34.4 6.6-41 2.3-4.9 6.2-9 11-11.3C30.4-1.2 36.3.4 42.8.3q3.8-.2 7.7.1c1.1.2 2.2-.2 3.7-.2h108.5c1.3 0 3.5 2.2 3.7 3.3 1 7.2.8 13.9.8 21.3v126.5l-.1 89.2q4.3-1.4 7.3-4.6l5.5-5.4q3.9-4 9.2-6.2c9.4-3.3 16.3 9.8 17.2 10.3l7.5 4.3c2.7 1.5 4.1 4.6 5.5 7.4l2.9 5.7c1.5 3.2 3.5 9 6.8 10.8 5 2.6 11.3-1 15-5.5 7.7-9.8.5-17.9-.3-26.9-.6-6-.1-11.8-.1-17.9l.2-28c0-9.8.5-19.1.2-28.9q0-3.3 3.1-4a72 72 0 0 1 17.7-2.7l24.7-.3h67.2c7.9.1 24.3.2 30.5 4.6.8 1 .2 3.2.8 4.2 7.1 5.3 10.9 10.6 17.1 15.8 4.4 0 8.8-.6 13 .7 5.2 1.5 10.4 2.6 14.7 5.8l4.5 3.2a46.6 46.6 0 0 1 13.5 54.8ZM26.7 274.9q-3.6-8.3-5-17.2L19.5 243q-1.1-7-1.5-14l-1.3-19.9-.7-13.6v-62c0-26.5 2.6-52 6.6-78C25 39.3 25 21.8 43 17.6c2.1-.5 4.1.5 6 .3a139 139 0 0 1 17.2-1l97.4.1.2-13.6-21.3-.2L82 3H39c-3.9 0-8-.6-11.7 1a23 23 0 0 0-12.8 14.5 266 266 0 0 0-4.5 30.8L6.5 86.8l-2 28.1-.8 14c-1.4 26.8-1 72.3 1.7 98.8l1 9 2.2 20.8c.9 8.6 1.7 17 3.2 25.5q1.7 8.6 8.3 13.7c3.3 2.6 6.1 3.5 10.4 3.5h79.8l53.2.2c0-4.4.1-7.9-.2-12l-109.9-.5c-11.3 0-21.5-.8-26.7-13Zm61.1 10.6 75.2.3c.7-1.5.9-3.6-.2-4.7l-35.6-.4-83-.4c-9.3 0-13.8-14-15-21.7a594 594 0 0 1-5.6-51.9c-2-33.3-1.1-99.4 3.3-131.7L28.7 62c1.1-8.2 2-15.9 3.8-24 1.6-6.6 6.7-13.3 14-13.4h46l47.5-.2h23.5q.5-2.4 0-5h-31.2l-78 .2c-12.5 0-14.5-.8-23 8.5a10 10 0 0 0-3 5.5 397 397 0 0 0-6 42.8l-3 32.4c-.7 6.9-1 13.4-.9 20.3.2 6.1-.6 11.9-.6 18l-.1 33.9.6 9.5c.6 8.5.6 16.7 1 25.3.5 7.7 2.8 32.3 4 38.8l2.5 13c1.1 6.3 9.6 17.4 17.6 17.4zM53 38.3V27.6c-1.1-.8-3.1-.7-4.5.2.2 1.1 1.1 2 .8 4-2.2.2-.3-4.4-2.8-4.6-2.3-.3-5.3 1.1-6 3.2q5.8 8.4 10.7 17c3 1.3 0-1.7-.3-6.7-.3-5.9-2.9-5.1-1.8-8.2.6-2 3.9 15.1 4 5.8ZM50 56l7.7-.2c.4-2.7-.1-5.3 0-8.2L58 28c0-1.3-3.1-1.2-3.1 0l-.2 23q0 1.8-1.6 2.2c-2.6.5-15 .5-18.6-.2-1.3-.2-2.6 0-2.5 1.1 0 .6-.3 2 1 2zm22.3-18.7c2.6-4.2 8.4-7.6 8.8-10.2H60.4c-.7 4.8.3 4.4 0 10.3zm22.4-9.6c-2.1-2-6.3 5-9.5 5.8l5.5-6c-2-.3-5-1.2-6.4.2l-9 9q4 1.4 7.2-.7.9 1.3 1.5 1.1c1.8-1 7.5-7.4 10.7-9.4M95 37l12-9.4c-3.3-.2-6.5-.8-9 .1-4 2.5-6.7 6.1-10.3 9.3 2 0 5.3 1.6 7.3 0m16.6-5.2c.7.6 4.7-4.8 3.7-4.4-1.7 0-4-.6-5.5.2l-11.4 9.7c3.3.2 5.8.4 8.5.1 2.6-.3 4-3.3 4.7-5.6m-2.2 226.8L92.5 237l-52.6-68-10.5-14c2-3.8 4.1-6.8 6.5-10l9.7-13.3L74 93.1 95.7 64l11.7-15.6 7.9-10.8 7.3-10c-1-.4-3.3-1-4.3.2l-55.7 75.9L41 132.9l-15.5 21.6 11 14.8 13.1 17.4 3 3.9 24.2 31.7 7.8 10.1L97 248.7l7.7 10.1c.8 1 4.1.9 4.6-.3Zm43.3-201.7c4.5-6.3 5-5.2 4.2-12.5l-9.7 13.8-29.3 40.6-39.2 54 11.5 14.9 22.3 29.3 8.4 11 13.9 18.6 6.3 8.2 7.6 10.3c2.4 3.3 5 6 6.9 10.1-2.8-.7-3-3.3-4.6-5L136 231 113.2 201l-22.4-29.4L77.8 155q-1.5-1.8-.1-4c6.4-9.7 13.1-18.8 20-28.2l14-19.2 29-39.8 8.3-11.3c10.1-13.6 8-7.6 8-25.2h-32.2l-8.6 12-11.4 15.6-11.2 15.3-10.8 14.7L73 98l-33.2 44.7c-3 4.1-6 7.7-8.7 11.8l24.5 32 11.2 14.3 5.1 6.9 15.6 20 8.2 10.5 8.1 10.6 7.6 10.4h45.4c.3-1.5-.8-2.1-1.7-3.6.4-.4 1 0 1.9-.2-.3-2 .6-4.9-.4-6.9l-25-32.7-9.1-12.1-10-13-20.1-26.5-8.2-11.3c2-3.7 4-6.7 6.6-10.2zm6.7 213.4c0 2.8-.4 5.3 0 7.5.3.9 3 .9 3.8.1V161.7l.2-13.6.2-72.5-.1-15.9.2-18c0-4.8.3-9.7-.2-14.2-1.1-.7-3.3-.6-4 0-.8 2.9-.5 6.2-.3 9.1q.4 14 .2 28l-.2 33.7c0 7.5-.7 14.8-.2 22.5q.4 8.9 0 17.8-.5 14 0 28 .4 10.3 0 20.5c-.7 14.5.6 26.7 0 40.7q-.1 6 0 12zM49 48.9c-3-8-6.5-11.7-10.4-17.8-2.4 3-4 7.1-4.3 10.9l9.3 6.1c1.5 1 3.5 0 5.4.8m1 23.3-.3-7.5c-.1-4.7 9.7-1.8 14.1-3l.4-16.7c0-3.4 10.4-1.9 14.5-2h12.8l10.2-.1c2.3 0 4.1-1.2 4.1-3.5H90.7c-6.9.1-13.5.4-20.4 0-2 0-9.3-.2-9.9.6-1.1 1.6-.3 13.8-1.3 17.8l-12.5.2c-5 0-9.5.3-14.3.3-1.2 0-1.6 3.7-.3 3.7 5.1.3 9.5-.5 14.6.4a15 15 0 0 0 0 5.8L28.9 81.8c-.9 2-.7 4.6-.4 6.2 7-5.4 13.8-11.2 21.5-15.8ZM45.5 51c-2-3-3.8-2.8-5.7-3.8s-3.5-2.5-6-3.3c-.9 2.6-1.1 4.5-1 7zm21.3.6 7.3 3 5.7 3 9.8 4.6 12.4-17.1-36.4.1c1.4 3 4 .6 5.5 2-1.4 1.2-2.8 0-4.3.5-.7.2-.3 1.2.1 1.3.4 0 1.1.4 1.9.2 1.8-.1 1.6 1.1 0 1.2-.8-.5-1.7-.2-2 0q-.6.2 0 1.2Zm22 11.6c-3.8-1.1-6.7-3-10-4.6L67 53.3c-.8.3 0 1.7 0 2 0 .6-.8 1.3-.4 1.7.2.3 1 1 .8 1.3-2.3 3.8 1 1.4-2.5 6.2L75.2 82zm64.3 16.4c1.3-1-.3-2.9-.3-4 .2-4-.6-7.5.2-11.1 1.8 2.5.3 5.1.9 7.6 1.3 5.8-1.8 8 2.2 7.6 1.7-1.2.4-3.3.2-5q-.7-7.1-.1-14.2c0-1.7 1.3-3.2.4-5.3l-15.5 21.8-2.5 3.4c-1.2 1.4-3 2.4-2.6 4.4 4.5-.9 11-4.8 12.4-4.3.4-2.7-.7-5 .5-7.5 1 2.7 0 5 .4 7.7 1.2-.3 2.7-.3 3.8-1ZM44.6 65.5c-.6-2.5-2-1.3-3.3-1-2 .5-8.6-1.2-10.9-.6v3.4c5.2-.4 9.8.5 14.5-.5L31.2 66c4.7-1 9 0 13.4-.5Zm12.8 40.3-.8-12c-.2-1.8-1.2-3.4-.7-5.3.5-2.1-.7-4-.6-5.8a283 283 0 0 0-.5-18.4c-.2-.4-1.5-.5-1.9-.4-1.6.7-.7 15.3-.6 18.6 0 2-1.1 3.3-3.1 3.1q-1.5-.1-3 .2c0 11 .7 20.8 1.4 32.6 2.4-1 2.9-3.2 4.3-5 1.9-2.4 3.9-4.5 5.5-7.6m16.7-22.3c-3.6-5.1-5.8-9-8-13.7-1.3-2.3-3-6.7-6-5.3-.6.4-.7 1.4-1.3 1.9-.7-1.4-2-2.6-2.8-1.9-.5 6.7.4 16.7 1.4 23.2.3 2 .4 12.7 1.7 16zM43 68.3c-1.5 0-14-1.4-12.7 1 .2.5 11 1.5 12.7-1M38.7 71c-3.8 0-6.4-.7-9.7.4 1.3 1.1 9.6 2.7 9.7-.4m-4.2 2.2c-2.1.3-3.5-.3-4.7.3-.7.3 0 2 .7 1.7q1.3-.1 2.5-.1c1.5 0 2.3-.5 1.5-1.9M49.8 83c.7-3.5.4-6.3-.3-9.2a7.4 7.4 0 0 0-3 9.6c.3.6 3 .7 3.3-.4ZM32 76.2c-1.2-.8-2-.4-2.8-.2l-.3 3.2zm10.7 43.7c1.3 1.6-.8 3.5 1.4 4.5.7-6 .5-11 .4-16.6l-.2-9.7c0-2.4-.3-4.6 0-7s-.5-4.4-.6-6.6c0-1.7 1-3.1 0-5.4L40.4 81q-.4 11-.2 22l.2 19.4c0 2.4.1 4.4.4 7 2.4-3.6.8-8.2 2-9.6Zm91.8-29 15.8-5c2-.7 4.2-.7 6-1.6.8-.4.7-1.4.4-1.9-1.1-1.6-17.5 4-20.4 4.9-2.7.9-5 1.7-6 5 1.2.3 2.4-.9 4.2-1.5Zm-102.7 49c1.4-1.2 5.8-6 5.8-7.5v-21l.5-28q-3.9 2-6.6 5.1c.6 5.3-.2 10.1-.2 15.3v28q0 4.2.5 8.2Zm114.4-4.6c-3-4-5.4-7.8-8-12l-14-22.6L139 95l11.4-3.7q3.6-.3 6.7-1.6c0-1.1.1-3-.8-2.8-9 1.8-17.3 4.6-25.8 8-1.1.5-2.3.4-3.2 1.3.6-.6-8 11-8.5 11.8l-6.7 9.6c2.1 2 4.6 3.2 7 4.9l14 10.4 10 7.3c0-1.9 4.5-3 3.2-4.8m-117 8 .3-12.3-.2-14.5.2-11.9.4-14.1c0-.4-1.2-.3-1.5 0-1.4 1.3-1.3 15-1.5 18.4-.3 4-1.3 7.8-.5 11.8q.8 3 1 6l-.2 20.4a5 5 0 0 0 2-3.7Zm126-12.2c.4.7.9 1.5 2 1.5-.9-13.8.4-26.2-.5-40-2.4 0-4.8 0-5.9 1.5 0 4.5.8 6.9 1.4 11.2l.7 5.2c1 6.6 2.3 14.5 2.4 20.6Zm-1.4 1.4c-.4-4.8-.6-8.5-1.4-12.4-.5-2.4-.3-4.6-.6-7l-1-6q-.3-3.2-.7-6.6l-1.3-6.2c-2.7.5-10.7 3-11 4l7 16.2 5.9 13.6c.7 1.8.5 4.2 3.1 4.4Zm-6.5 3c2.3-1.2 3-1.7 4-2.7a499 499 0 0 1-15.1-34.6l-7.8 3.3q-.9.4-1 1s18.5 29.4 19.9 33Zm-6.7 9.2c.5-1.5.8-3.4 0-4.2L121 126.3c-3.4-2.5-6.8-4.5-9.9-7.6-2.5 2.9-4.1 5.6-6.1 8.5-.6.8.2 1.7 1 2q3.2 1 6 2.6l11.3 4.7q9 3.6 17.3 8.2m-115 4.8c1-9.3.7-17.3.1-25.4q-1 13.4 0 25.4m74.5-7.6 2.2-10.9c-2.7 3.6-5 6.3-7.3 10.5 1.4.4 3.7 1.3 5 .4m39.2 7.2c.3-1.7.6-2.9-.4-3.3l-26.3-12c-2.4-1.1-4.6-2.2-7.5-2.9-1.2 4-2.5 7.7-3.1 11.6 13.3 3.2 24 5 37.3 6.6m17.3 22.7q1-19 0-37c-5.7.4-10.3 3.9-13.1 8.8a18 18 0 0 0 7 25.3c2 1 3.5 2.1 6 3M138 154.4c.5-.5.7-1.8.7-2.5 0-.8-1.3-1.2-2.2-1.2-3.8-.2-7.2-1.1-11-1.7l-4.3-.8-5.9-1c-7.1-1.2-16.3-3-22.5-3.2l-6.6 8.3 5.2 6.8c4 5.2 3.7 1.2 13.9 1-1 0 31.5-4.4 32.7-5.7Zm67.7 149.4 11.3-3q3.9-1.4 7.5-2.8l4.5-1.5 18.7-6.7c2.8-1 5-2.7 8-3.2-2.5 2.8-6 3.6-9.4 5-13.1 5.5-22.2 7.8-35 12.4h8l5.8.2h202.2l40.9.2c1 0 2.2-.2 1.9-1.8-1.6-3.5-2.4-8.4-5.3-10.9-2.8-2.1-7.6-1-11.1-1-12.2-.6-23.6-.3-35.7-.2l-42.6.2c-1 0-2.7.9-2.7-.4 0-.6.8-1.2.6-1.6s-1-.4-1.3-1.2c4.9-.8 7.5 1 12.8.4 0-8.4-.9-4.2-.5-14.2q1-19.9.4-39c-1.9 1.4.3 3.3-1.4 4.2l-.4-17v-4.2l.6-27.3.8 19.7q.8-3.4 1.2-6.8c.3-11 .2-22.9 0-33.6-1.4-.7-2.7-1.2-2.7-3l.4-12c.8.4 1.5 1.8 1.4 2.6-.4 2.2-1.3 4.2-.2 6 1.8-3 1.6-5.8 1-8.6l-3.9-1 .5 6.8c.1 1.7-.7 2.9 0 4.6-.2-.6.4 7.5-2.1 4.2 2-7.4-.9-9.6 1-15.8q-5-1.6-10.5-1.6l-17.1-.1-71.3-.2-21.8.3c-2.2 0-4 .8-6.6.4l.7 11c1-2.6.3-5.5.6-8.6-.6-1.2.3-2.1 1.1-1.1.5 4.7-1 2.4 1 7.2 1.5-2.8-2.3-6.7 1-6.8q.7 6.8.4 13.7c-.6 1.2-2 1-1.5-.8-.7-.6-1.7-.1-.7.7.4.5-.7 1.3-1.3.9-.5-1.8.5-3.3-.7-4.5-.7 1.9-.3 3.3-.2 5.2 3.3-1.1 6.6 3.1 7.5 5a11 11 0 0 1-4.3 14.4c-1.7 1-5 0-6-1.2-3.3-3.8-3.2-15.4 1.7-17.9 1-6-1.2-10 .3-16.5-2.3-.2-4 .5-6.3 1.2l.2 27.8-.3 17c-.2 10-.7 19.6-.2 29.6.1 2.9 2.6 10.4 3.6 13.1.7-4.6 0-8.6.1-13 0-2.5.7-4.8-.3-6.9-1.3 2.7.7 5.2-1 7.8v-33.3l1.1 10.4.9-17.2.6 14.6q.4 5.1.3 10.2c0 1.5-.3 2.6 0 4.3.7 2.6-1.6 14.1-.1 21 0 .2-2.3 18.3-2.1 15.5l-.2 3.9c-.2 2.4-3.3 2.4-5 3.6-6.9 4.8-14.8 6.8-20.6-.5-8-10-6-23-22.4-23.7A17 17 0 0 0 185 249c-2.8 6.5-.3 14-.4 23l-.4 32c7 0 14.3 1.6 21.5-.3Zm-101-129.6c2.1.5 4-1.3 6-2.1l18.2-8c2-1 9.8-3.8 10.2-4.8.3-.7.3-2.6-.5-2.5l-6.2.8-5.8.8q-2.6.3-5.2.8l-5.8 1-5.1.8c-3.7.5-8.4.5-8.3 2.2.2 4 2 7 2.5 11m-75 21c-.1-3.4-.5-28.4-.4-29.4q.2-2.8-2-4l-.6 28c-1.3-8.5-.1-16.8-.6-25.7-.1-1.8 1.5-4.2-1-5.3l.2 30.8c0 12 1.4 18 1.5 28.1q-.2 4.2 3.5 5.8c.1-5.8.2-11.1 0-16.9zm83.6-11q4.8-3.8 9.9-7.2l14.2-9.7c1.3-.9 1.6-2.7 3.4-3.4 1-.3.7-1.9.4-2.4s-1-1.2-1.8-.7c-2.2 1.5-4.6 2.1-7 3.2l-9.3 4.4c-7.4 3.5-10.5 4.4-18 7.8 2 2.6 5.6 10.4 8.2 8Zm318 46.5a28 28 0 0 0-.9-24.9 168 168 0 0 0-18-20.8l-4.2-4.3-18.4-18.2c-3.5-3.4-1.5 8-1.9 11.6l-.6 6.2.2 14.5.2 54.2c17 0 35.3 0 43.5-18.3M102 173.2c-.6-4.5-1.6-6.6-2.4-9.8-1.3-.5-2.3 0-4.1.3 1.5 3.9 5.4 6.8 6.5 9.5m27.3 22.3 7.9-12q4.6-7.4 9.6-14.4c-1.5-1.3-2.5-2.5-4.3-3.4l-29.9 21 7.7 10c1.5 2 2.7 4.2 5 5.3 1.7-1.9 2.5-4.1 4-6.5m-91.2 32.8.2-11-.6-42.5-5.8-7.2c-.6 1.6-.2 3.1-.3 5q-.9 5.6.1 11.2l.5 40.4c1.7 2 3.4 3.4 6 4.1m98.6-22.2 10.1-24.4c1.3-3.2 3.6-6.3 3.6-9.9 0-1-2.7-2.1-3.1-1.4l-7.6 12.1c-4.2 6.8-8.1 13.1-12.8 19.7 3.3 1.7 6.2 3 9.8 3.9Zm117.3-19c-1.8-6-3.4-7.9 1.4-14.8-1.9-.3-3 1.2-3.5 3.2l-1.2 4.9c0 .4.7 6.4 3.3 6.7m-104 18.5 1-5.8.8-6.8.6-6c.4-4.2.5-8.2 1.7-12.1q.5-1.8-1.2-2.3-.9 0-1.3 1.5l-8.8 22.3-4.6 10.3c4.4 1.6 6.6 3.3 11 4zm1 5.3c1.7 1.3 3.9 1.8 5.5 2 .7-8.1.9-22.3 0-30.3-.3-3.7 1.6-9.1-1.2-9.1 0 3.6-1 11.8-1.5 15.3l-.9 6q-.3 3.4-.7 7zm287.4-12c-.1 1-.2 2 .8 2.8 2-.7 2-7.6 3.1-4.7a48 48 0 0 0-1.3 7.1c1.3-.4 1-1.5 2.1-2.6.4 1.5-.7 3.2 0 4.8l1.2 2.6c1.2 2.6 1.8 8.5-1.3 10 1.5 3.4-2.4 5.1.8 7.8q1.8-.7 1.4 1.1c-3.6 3.6 0 6.4-4.1 7-.2-.7.2-1.3.1-1.5-.1-.5-1.4-.3-1.5.4-.2 1.7-1.7 2.7-2.4 4-.5 1 .7 2.8-1 4.4 1.8.4.9-1.5 2.2-1.5.3 3-2.2 4-3.3 6-.6 1.1-1.1 2.2-3 2.8-1.1 1-1.8.1-.6-1.1.4-1.1-.2-2-1.3-1.6l-1 3.3q-2-.6-3.4-1.7c-.5 1.9-2 2-2.9 3.4 2.6-.4 4.3-2.3 7.1-1.2 1.1 1 .3 1.6-1 1.7-2 1.2-4 2.7-6.8 2.5-1-.9-1.2.4 0 .4s1.6 1.2 2.6 1.7c1.3-.7 2.1.2 1.1.8-1.6.3-2.5.8-3.8 1.3 1.4 1.2 4 .6 4.9-1-.3-1.2-.7-2.1-.3-2.7 2.3-3.5 4.6.5 6.2-3.9.2-.5.8-.7 1-1 .7-.8.8.6 1.4.9 2.2 1 3-1.9 4.4-3.1l3-3c0-2.1 1.2-3 2.5-4.5 1.4-1.7 1.5-4.4 3.4-6.2.2-1.2-1.4-2-1.7-3.3-1.2-4.8 3.8-6 3.8-7.9-.1-3.6-5.8-3.8-1.6-6.6 1.9-1.2 2-3.7.6-5l-1.4 4c-.6 1.6-2.2 2.4-3 4-1.9-3.5 7.5-9 3.8-12.2-.6 1-.6 1.7-1.3 1.8-1-1.4 1-2.4.8-3.4-.7-4.7-3.2-8.5-5.8-12.2-.6-.9-.7-2-1.5-2.5-1.4-1-2.6-1.6-3.4-2.9q-.7 1.6.4 3c-.5.3-.7.3-1 .8-.2.6.2 1 0 2.1-3.5-4.6 2-.7-2-9q-5-3-10-5.4c2.1 1-6-1.9-4-1.5q-.4 0-1.3 1.2c-.6-2.2-5.8-3-6.5-2.2q2.1.9.7 1.7c-.4.6.5 1.3.1 2.3-1.5-.6-1.3-2-1.8-3.5-.3-1-3.3-1.5-3.7-.7-.6 1.8 2 1.6 2.7 2.3.1.1 4 5.3 6.2 6.2.3 1.2 1 .7 1.2-.3-.8-1.7-1-3.4-1.9-4.8q-1.2-.6-.4-1c.5-.3.7-1 .9-.8-.3-.2 2 3.4 2 4.7.9.8 1.1-.3 1-1.3-.2-1.1 0-2.1.8-1.2q.4 1.1.9 1.3.5.3 1.2-1a4 4 0 0 1-.1 5.2c-.7-1.2 0-2-1-2.7.1 1.4-1.3 1.6-1.4 2.1-1 3.5 6.8 10 7.2 10.6l3.3 5.2c1 1.6 1.5 3.3 3.3 4.4.5-2.3-.7-3.8-1.8-5.2l.7-.7c.5-.5.2-3.6-3.2-5q-4.2-1.5-6.2-4.8c.7 0 1.4.3 2 .1q1-3-.7-5.7c2.5-1.8.7 2.7 2.4 3.5.4.2 1.1.2 1-1.2-.2-1.7 1-2 1 0 .8.8 2-.1 3.2.3.3 2.6.4 5 1.8 6.9 3.3-.8.4 3.2 3.4 4.9Zm-281.9 63-48-.1-42.4-.5c-3.2 0-.9-13.6-2.4-17.6-4.5-2.3-13.9 3-14-3.9l-.2-14.4c0-1.2-1-1.7-1.7-1.5-.1 0-3 4.1-4.9 2-1.4-1.5.2-3.8-.4-6-.1-1 .6 0 1.3.9 1.4-3.6.7-7.5.7-11.6v-11.7l-.9-14.8-.9 14.7-1.2-17.9c-1.9 4.3-.8 8.4-.8 12.7l-.2 38c1.7 1.4 8 5.3 5.6 6.6l-18.3-12.4c-.7 1.4-.4 3.5.3 4.9 3.9 2 7.3 4.4 11 6.8s8.2 4 6.3 7.3c-4.7.7-10.5.1-15.5.4-.7.3-.5 2.8.6 2.8l27.2.4c.9 0 2 .7 2.1 1.4l.4 17 21.2.1 75.3.4c.4-1 .7-3.2-.2-3.9Zm-96.9-57.7-2 16-.8 11c-.2 3 .3 5.7-1.4 7.8-.4-1 .5-1.6.2-2.7-1.3-5.4.6-14.2 1-18.7l.6-8.5c.9-10.9 2.4-5.1-7.8-18.4l-.6 8.3c-2.2-2.6-.1-6.8-1.2-10.4-.5-1-1.5-.6-.4.2 0 12.2-1.2 21-.4 32.6 1.5.4 3.3.2 4.1 1.3 1.2 2 .4 4.5 1 6.8 1.6 6-.8 10.8.8 11.3s3.1-.2 5-.2c.3-1.7-.7-3 .3-4.3 1 1.2 0 2.4.4 3.8.5 1.2 4.5 1.4 5.3-.1 2-3.9 6.3-11.8 9-14.7 1.5-1.5 1.1-3.4 0-4.9zm374.5-9.8c-2-2.1-1.3-4.1-2-6.6-1 2.1-.3 4.4-.5 6.8.9.2 1.7.4 2.5-.2m-278 23.5c1 0 .7-2.3.2-2.7l-16.5-5.5-13.4-5.1c1.1 1.8 2.3 4.1 4 5 4.7 2.5 20 7.7 25.8 8.3m283-8.7c.4 2.1-.5 3 .9 3.4 0-3.4.4-6-.3-8.6-1 2-1.2 4-3 4.8 1 .7.7 1.2 1.1 2.1.6-.5.5-1.6 1.3-1.8m3.3 6.5c2.3-3.4.8-4.6-1.1-10.8a17 17 0 0 0 .3 8.6c-2.7 4.8-.3 5.2-4 8.8 2 2.7 4.1-5.6 4.8-6.6Zm-4-2.8c.4-1.2-1.4-1.7-1.5-1a8 8 0 0 0 .2 5q.7-1.8 1.3-4M156.2 223c.7.2.7-1.9.4-2.3s-1-.7-1.9-.9c-7.8-1.6-14.8-4.5-22.4-7l2.8 3.8q1.4 1.2 3.3 1.6zm.6 21c.3-7 .5-12-.2-18.7-3.5-.3-5.7-2.4-6.9-.2.5-2.2-9-4.2-11.2-4.6 1.2 2 2.9 3.4 4.4 5.5 0 1.2 1 1 1.3 0q.4-1.4 1.3 0c-1.5 1.7-1.2 2.6 0 3.9 2.7 3 4.5 6.2 7 9.2.9-2-.4-3.4.7-4.6 1.5 4.2-2.4 5.1 3.6 9.4Zm-88.4 4.7c-1.4.8-2.2 2-1.1 3.7a172 172 0 0 1 21.6-10l-12.3-16.6c-.4-.6-1-1.3-1.5-1.2-.7.1-8 12.6-9.5 14.6-1.2 1.5 1 3.4 1.4 6.6 1.8-.4 2 .6.3.8-1 .3-.8 1.4-.4 1.5s1-.1 1.5.6Zm103 20.8c.9 1.3 2.1.4 2.8-.2 1-.8.4-2-.2-3.1 1.2-.4.8 1 1 1.3q1 .3 2.4-.1c-1.4-2.7.1-4.6 1.6-6.7-.2-2-2.6-8.8 1.9-8.5-1.8-3 6.8-13.5 8.3-14.1l3.9-1.6c6.5-2.8 9.5-.2 9.7-2.3-4.4-5.4-9.4-10.6-15.9-6.3-6.3 4.1-6.6 8.5-17.7 15.4-1.9 1.2-2 2-2 4v4.4c0 2 0 3.6.4 5.6.2 1.3-1.5 2.8 0 3.8 2-1.7 1.5-7.9 4.2-6-1.7 1.5-4.5 6.8-3.9 7.8.2.4.8 0 1.9.2.2 2.6-2.3 3.3-.9 4.7q.3.4 1.3-1c.6.7.5 1.9 1.1 2.7Zm269.2-38c.5-2.2 1.8-2.8 2.6-4.2-1.7-.7-1.7.6-2.5 1.1-.6-.4-.6-.9-1.3-1.4-1.8 3.2-8 4.8-2.1 4.6zm-408.7 2.7c-1.4-1.5-2.5-2-3.7-2.4 0 1-.3 2.4.4 2.6q1.9.3 3.3-.2Zm406.4-1.1c.2-3.7-3.8 4-2.5 2.7zM29.4 242c4.7-.8 8.6-.2 13.4-.2-3.1-3-6.4-4.6-10-6.5-1.2-.5-2.7.8-4 .5v4c2.4.3 4.3-.6 6.7.3-1.8 1-3.7.5-6.1.4-1 0-.8 1 0 1.5m397.8 2.8c.9-2.2 5.3-3.4 2.7-4.4-1.7.8-2.5 1.8-4.3 3 .3.6 1 1.4 1.6 1.4M67 256.4c5.6 1.4 9.6-1 14.5.8-4.1 1-8.3.5-13 .4-1.3-.2-2 0-1.5 1.9 11.7-1.1 23.2.5 34.8-.6l-12-15.3c-5.3 2.2-8.8 4.2-13.9 6.7.2 0-12 4-8.9 5 2.6-.4 4.7-1.9 6.8-.6-2.6.9-5.1.3-6.8 1.7m-12.5 21.3q1.7.9 4 0-.8-13.3-.7-26.9 0-1.7-2-1.7H31c-1.1 0-.8 3.7.4 3.7l21 .2c1.3 0 1.9 1 1.9 2zm354-25.5c3.7 1.2 6.3-.8 9.4-2.7-1-1.1-2 .2-3.2.6zM32.7 263.5l13.3-7.4c-6.3-2.5-10.3 1.1-14.3 1-.2 2.3.2 4 1 6.4m19.8 14.4c1-4-.7-6.3-.7-9.2-.1-2.3.7-4.6 0-7 1-.8-.1-.7-.1.3q-1.7 3.9-3 7.5-1-1.2-.7-2l2.9-8.3a4 4 0 0 1-2.8-2.9l-7.5 4.6c3.1-2-7.8 3.7-7.5 3.8 1 6.6 4.4 10.8 10.9 13.4l1.3-2.7c.7 1 .3 2.5 1.3 2.6q3 .3 5.9-.1Zm368.9-19.7c-3.7-.4-6.2-1.5-6.4-1.5-.4.1-.8 1.5-.2 1.6q3.4.5 6.5-.1Zm-24-.3c-.9-.7-1.8-.2-1.1.8q3.8 2 8 1.4c-2.7-3.8 1 .7-7-2.2m20 3.2c-.3-1-1-1-2-1.3-.5-.2-.9.7-1.7 1.1l-6.7.2c0 .6.8 1.4 1.2 1.5-2.6-.7 9.8-.4 9.3-1.5m-25 9c2.7-1.4 5-1 7.7-1.5 1.1-.2 1-3.3-.2-3.6-4.4-1.2-8-3-12.3-5.1V283c1-.9 1.3-1.7 2.3-1.9 3.4-.7.4-6.5 2.4-11.1m20.6-2.7-8.4-.7c-.9-1-1.4-.1-1 1.1 3.3-.2 6.3.5 9.3-.4m-343 2q-.2-1.6-1.3-1.6h-7.2c-2 0-2 1.8 0 1.8zm17.2 9-8.8-8.5c-1.2-1.9-3.5-2.8-5.4-1.6l9.6 9.5c1 1 2.3.6 4.6.6Zm10.3-.7L86.4 268a14 14 0 0 0-6.3.5L90 278c2.5.3 4.8.6 7.5-.4m9.5.2c-.5-2.1-2.2-2.4-3-3.9-3-5.7-4.9-6-13.6-6 2 2.6 4.1 3.9 6.5 5.6 4.8 3.5 1.5 5.3 10 4.3Zm-5-9.7c6.5 4.3 9 13 18.6 9.5-8-7.2-7.7-11-18.6-9.5m31.3 9.7c-1.7-2.2-3.4-2.3-4.4-4l-6.7-6c-2.7.4-4.8 0-7.7 0 2 3.5 7.4 7 10.6 10.4 3 0 5.4.6 8.2-.4m13.1-.2-10.6-9.7-9.7.2q1.2 1.8 2.9 2.9c6.4 4.4 5 9.5 17.4 6.7m10.3-3-6.2-5.4c-1.7-1.4-9.4-1.1-11.4-1.2 5 4.2 7.6 7.5 11.7 10.1q2.9.6 6.4-.1c1.2-.3.5-2.6-.5-3.5m-.5-6.2c-1.6-.7-3 0-4.3 0 1.5 2 2.9 2.7 4.7 3.9.4-1 1-3.2-.4-3.9m-95.4 8.1c3 1.6 6.2 1.6 9.6 1 3-.5 5.6 1 8.3 0-.6-1.6-2.1-1.6-3.6-2 .3-2-1.3-3.5-3.4-3.9 0-.8.2-1.4-.2-1.5.8.3-12-.2-11.5.6l10.4.9-10.3.8 6.9.9c-2.4 1-4.4 0-6.9.5-.2 3 10.8.2 13 1.9-4 1.4-7.8-.2-12.3.8M181 303.3c-.7-12.6 1.1-20.6.4-32-5.8-1.2-11.7 4.8-14.8 9.2l.3 12.3c5.6.7 9.3 5 9.6 10.8 1.3.7 3.4 1.2 4.5-.3m214.5-22.7q1-4.1 0-7.8-1.1 4.3 0 7.8m3-7c0-1-1.7-1-1.8 0v5.6c0 .6 2 6.8 1.7-5.6m4.1 7.8V273a14 14 0 0 0-3.4 0c.3 2.8-.5 5.2.5 7.7l.9-7c1.4 3.2-1.2 6.7 2 7.7m2.7 0c-.5-3.5.9-6-.9-9.1-1.4-.2-1.5 10.6.9 9m20.2-.4c1.3-.5-1.1-6 .4-7.5 1.3.5.9 10 3.1 6.7 0 0-1.4-4.6-.8-7.1-1-.7-2.1.6-2.7.4-3-1-5.5 0-8.3 0-3.8.2-7.5-1-11 0-.1 2.9-.1 5.1.1 7.5q6.3.3 12.2-.1c.7 0 1.9.8 2.1-.5.4-2-1.3-3.7.1-6.1 1.6.8 0 5.8 1.4 6.4 3.2 1.4-1.6-9 1.8-7 .1 2.8 0 5 1.6 7.3m1.4 6.8c1.7 0 2-1.3 2.6-2 .5 1 1 2 1.7 1.4q.6-.8.8-1.1.2 0 .9 1.2c1-1 .8-3-.6-3.8-1.2-.6-2.5 1.1-3.4.8-1.7-.4-3-.8-5-.8l-24.6.3c-.3 0-16.4 0-8.1 2 5.4-2.5 6 .5 10.6-.6-3.6 1.8-7.6.8-12 1.8q6.9.8 14 .8zm-260.5 7.6c6.2 5.5 3.7 2.5 6.7 8.4 1.4 3 1.5-7.7-6.7-8.4m5.4 8.1c-.3-2.4-4.4-3.1-6.2-4l1.4 4c1.5.8 3.4 1.2 4.8 0Zm-6.3 10.6c-4.6-2-8-4.2-8.9-8.9 0-1 0-1.7-1-1.8-5 0 3.5 12.8 10 10.7m-.5-10c-.7-1-3.6-1-4.3-.2-.7 5.7.2 4.5 3.8 8.9 1.4-1 1.2-7.5.5-8.8M477 581.8v-50.5l-.2-53.5v-7.5l.3-90.3v-64.6c0-3 .4-7.8-.6-7.9-5.4-.1-10.4-.3-16 .2.6 2.4.7 4.2.7 7v281c0 3.5-7.8 2.6-13 2.6H187.7c-1.7 0-4.8-1.1-4.8-3.5V312.3c0-2 .6-3.5-.4-5.1L168 307l.1 26.3.3 27.2-.1 61.1v34.9l-.1 10.2v47.6l.1 48.4v29c0 3.8.2 7.3 1.7 10.8.5 1.3 1.9 2.1 2.6 3.3 2.8 4.5 10.4 6.3 15 6.3l40.9.1h179.2l13.7.2 32.3-.1c9.4 0 18-2.3 21.4-12 2.4-7.3 2-9 2-18.4M188.8 466.7l.1-17.6-.2-44.8v-93.1c0-1.4.4-2.6.3-3.7-1.2-.2-3.4-.7-3.8.3-.5 1.8.2 3.3.2 5.2l-.1 98.4v21.4l.2 68.5a9 9 0 0 0 3.8 3.5zm10.8-135.9c.8-3.5.3-6.1.5-9.2-.4-.9-1-1.5-.9-2 1.7-1 .7-2.9.6-4.4 0-2.7.7-5.2.4-7.8q-5.2-.5-9.7 0c-1.3 3.4 7 7.4 5.8 8.9-2.6-1-3-3.5-5.4-5.1-.8 3.1.6 9.2-.6 10.1zm6.7 58.6c-.5-2.2.1-4 .1-6v-34l.2-37.2c0-1.8.4-3.3.3-4.7-1.8-.4-3.4-.9-4.9.3l.6 155.3a4 4 0 0 0 4-1.2q.2-10.5 0-21.4v-39.2c0-1.9-1-2.3-2.2-3.3-2.9-2 3.2-2.6 1.9-8.6m11.4-78.7q1.5-1.5 2.4-3.2-6.3-.4-12 0c.3 4.8.8 8.6.2 13zm196-2.5c5.4 5.5 9.8 10.6 14.5 16.7L380 366.6l-22.4 19.5-27.8 23.9c-3.2 2.8-8.4 8.9-10.7 6.8L263.5 369l-30.7-26.3c-6.9-5.8-13.5-11.2-20-17.5l15.2-17.4c-1.5-.2-3.5-.8-5 0l-14 15.6c-1 1.2-.9 3.2.5 4.4l58 49.6 27.5 23.8 25.4 21.6 28.9-24.6 28-24 15.4-13.4 32.4-27.9 6.3-5.6q2.2-2 .3-4.2c-3.4-4.4-7.3-8-10.5-12.5-1.7-2.6-4-4.2-7.5-2.2Zm-68.8 7.3c-4.3 7-13.5 3.1-16.8 7.2 4.6 4.1-2 4.2 5 10 15.2-9.6 27-15 44.2-19.9 7.9-2.2 27.4-5.2 32.5 1.4 4.4 5.6-3.7 14.3-6.2 18.2-5.8 8.9-12 18.3-24 16.4 1.2 1 1.8 1.9 3 2.9 3.9 3.8 1.1 5.9 0 9.3 6.4-4.7 12.1-9.8 18.2-15.1l24.5-21.2c-4.8-6.9-9-10.1-14.3-17.1l-180.2-.2-15.3 17.7 25.6 21.8 15.8 13.3c0-2.2-1.8-4.8-.3-6.5l3.9-4-6.7-1c-7-.8-19-18.9-22.5-25-1.4-2.5-2.3-6-.6-8.4 3.8-5.2 15.7-5.2 21.6-4.5a142 142 0 0 1 55.8 22q2-2.2 3.2-4.3c-1.1-2.2-.4-4.3 1.6-5.3-3-5.4-12.7-.1-18-8.7 3.6 1 5.3 3.1 8.5 3 6.4 0 10.6 3.5 10.5 3.5q1 0 1.7-1c3.3-3 8-2.5 10.8 1.3a15 15 0 0 1 7.9-3.1c3.8-.3 6.8-2 10.6-2.6Zm87.8 4.5.5-12.2c-4-.4-7.5-.4-11.6.1l7.7 9q1.5 1.6 3.4 3m3.3 142.4q1.9 1.5 3.4 1V336.9l.1-21c0-2.7 0-5 .6-7.8-2.2-.5-3.8-.4-5.8 0q-.1 4.5.1 9.2l.7 55.1.4 21.8c0 1 1.3 1.8 1.5 2.6.1 1-1.5 1.6-1.5 2.5l.3 35.2zm15.5-141.3c-.3-5-.5-9 .3-13.3a35 35 0 0 0-10.5.1c-.6.6.2 1.8.3 2.5l.5 20.3c3.5-3.3 6.4-6 9.4-9.6Zm7 178.3.2-78.5v-37.5l.1-69.6q-.1-3.1.6-5.8c-2.2-.7-4-.7-6.4-.1.2 2.6.6 4.7.6 7.6V442l.3 62.6c1.5-1.5 4.3-2.6 4.7-5ZM396 320c1.7.8 1.4 1.2 0 2 1.4 1.1 2.5.4 3.4 1.5-1.1.4-2.2.8-1.2 1.2 2.6-.6 4.9 1.8 7 .7 1.8-.7 5-8 3.2-9.7-2.5-2.3-5.8-2-9.5-2.3-1.7-.8-1.7 1.5.1.8 2 0 3.6 0 4.8 1-2.8.7-5-.5-7 .7l6 .6c-4.3 2.5-5.9-1.8-6.8 1.4l10.2 2c.3 2.1-8.5-1.5-10.2 0Zm-160.8 0c2.5-1.2 5.2-.8 7.8-1.5-1-1.3-1.6-1.8-1-3-1.8.5-3.4 1-4.8-.3 2.8-1 4.9-.3 7.5-.7 1.2-2.6-9.3.1-10.1.4-5 1.5-.6 9.9 1.7 11 2.2.4 4.5-1.2 6.6-2.1l-1.8-1.6c1.5-.5 2.3.5 3.7-.2-3.3-4.2-7 .4-9.6-2m35.7 15.3c4.7-1.2 5.7 1 11-.9 1.1 1 1.4-.5-.1-.1-.8-3-18-4.7-20.6-4.2-.4 1.1-.3 1.8-.8 2.3-3.8-3.2-2.7-7.5-.1-10.7.7-.9 2.6-9.6-.3-6.6-.2.3-1 .7-.9 1.3.3 2.2-1.4 3-2.1 4.6-1 1.7 1 4.4-1.2 6.5a11 11 0 0 1 .3-7.5l2.2-5.6c-1.5-.4-4.9-1.5-6.1.2-5.3 7.2.5 18 7.3 22.3-.7-3.6-3.5-5.2-3.8-8.8 2 0 2.8 8.2 5.4 7.2 1.2-.4 1.6-1 2.9-.2 1.2.7 2.8-.4 3.8 1-1 1-2.3.5-2.5 1.3l-.3 1.8c-.7.2-1-1.4-1.6-1.9-.8.6-2.3.5-3.4.5-1.3 1.2.3 3.4 1.2 4.2 1.6 1.4 3.5-.1 5-.3 3.4-.5 7 0 10.6-1.2 5.2-1.6 6.6 1.9 10.4 0l-4.5-1c-3.2-.9-6.4 1-9.4-1l10.4-.2c.2-2.9-8.8-.2-12.8-3Zm110.4-7.7c.3-2-.8-5.4-2.2-6.1-.2-.1-10.4 1.2-10.2 2.7 2.6 1 3.7 4.2 1.8 5.9s-9.1 2.2-10.5 2.8c1.5 1.2 2.9-.4 3.6 1-1.3.9-2.5-.7-3.5.8l17 .4c1.3 0 2.9.4 3.8.5.4.1 1 2 2 1l5.5-7.4c3-4 3.3-10.3.5-14.4-1.4-2-4.5-1-6.4-.5.2 2 1.5 3.8 2.8 5.8.7 1.2-.1 11.2-2 12.4 2.5-12.8-1.4-14-1.6-16.6-.1-1-1-1.3-1.6-1-.4.2-1.3 0-1 .9.7 3.3.7 5 2.4 7.1 1.3 1.8 2.2 4.8.8 6.6l-3.2 4.3q.8 1.7-.4.7.4-2.7 1.4-4.5c-3.6-.8-5.8.9-8.3-.4 3.2-1.7 6.7.3 9.3-2Zm-98 4.1c1.6.1 1-4.7 5-6.7-1.1-1-10.9-5.7-8.5-2.3l4 1.7c-.4 1.7-4.6-1.6-6.8-2.2-.2-.8.1-2-.5-2.4s-1.2-.8-2.1-1c-5-.6-10-4-11.5-3.1-1.5 1-.4 3.3-1 4.5s-4.8 8.4-1 8.6l8.3.4c.4-1.7-.5-3.5.5-4l3.2-1.8c-3-1-5.9-1.2-8.7-2.7 4.8.7 8.8 2.3 13.6 3.4.5.1-.1 1.6-.4 1.2q-.2-.3-1.6-.5c.2 1.4.4 2.7-.3 4.4s7.2 2.5 7.8 2.5M379 320c0-1.7-.2-4.4-1.6-4.5-2.5 1-17.2 4.8-15 7s13.7-1.3 16.6-2.5m-13.4 9.9c-1-2.2-.3-3-.4-4.2-2.8 1.6-1.5-1.3-7.6-.4.2-1.4 1.5-1.4 2.6-2.5 2.6-2.8-8.5 2.1-7.7 2.5 3.3.7 3.6 4.8 4.2 6.3-.2 1.3 8.3-1.3 8.9-1.7m-165.6 3.7-7.7-7.4c-.2-.6-.2-1.5-1.1-1.4-.5 3.9-.6 7.1.2 10.6 4.5 1.1 5 5.6 7 5.7 3 .1 1.6-4.6 1.6-7.5m251 1.1c.8-3.2.3-6.4.2-9.8-3.1 1.7-5.4 6-9.1 8.6-.3 2.7-.7 5 .5 8 4.5-4 4.3-1.4 8.4-6.8Zm-203.8-5.4q1.5-.8 0-1.3c-1.7.1-2-.5 0-1-.3-2-9.7-.6-10 .6.3 1.3 1.7 4 3.2 4.5 3 .7 5-4.2 6.8-2.8m47.5 16.4c.2 2-3.9-10.8-3-7-.2-1 .6-2 0-2.8q-.7-.6-2.7-1.2c3-5.6-1-5 4.1-7.8-.8-.4-2-1.2-3.3-1.1-4.6 5-.5 2.2-3.3 6-.5 1.6 1.5 3.1 1.7 4.8.2 2 1.2 2.3 3.6 2.7-1 .8-1.6 1.1-1.8 2-.1 1.1 2.4 6.3 4.6 4.4m57.4-7.9 2.3-5.4c.5-1.4-1.3-1.8-2.6-2q.8-.6 1.5-1.2c.6-.8-2-3.5-2.7-3.4a3 3 0 0 0-2 1.3c5.2 2.4.2 5 4.1 7-1.8.7-4 1.3-4.1 3.6.3.8 3 1.2 3.5.1Zm43.8-8.5c1.4 2 3.9 3 5.5 1.9 1.3-1 1.7-2.5 2.8-4-3-1.3-5.7-1.3-9.4-.8-1 .8 0 1.5 1.2.3 2 0 2.3 1.7.4 2-2.1-.8-2.6 0-.6.6m-76 0c.5.7 1.2 1.7 1.6 1.2 1-1.5 2-1.2 3.2-2-2.8-.6-5-.3-7.8-.2l1.8 1.4-5.3.3c.7.8 1 1.2 1.2 2.5 2.5-2.1 3.6-.8 5.3-3.3Zm23.6 14.6c4.4-.1 1.4-3.8 3-5.7.6-.7 1-2.3.3-2.3-2 .1-3.5 1.1-5.3 2-1.5-.7-2 0-.6.8 1 .3 2.2 1 .8 1.3-.7 1.7-3.7 3.6-4.6 1.6-.5-1 .2-2.7-1.5-2.8 5-3.6 13-2.6 13.3-6s-3.8-4.1-3.4-4.2c.4 0-4.3 2-3 2.1 1.3-.4 2.4-1 3.7 0-2 2.2-10 2.3-10.3 4.4 1.2 1 2.5 0 3.2 1.3-1.5.6-2.7-.2-3.9 1-.3-.7.4-1.6-.7-2.6-1.4 1.6-.4 3.4.5 5 1 2-2.1 5.9-.6 6.2-1.4-.3 10.7.6 10.7-.9-.3-.9-1.3-.7-1.6-1.2Zm38.8 34.7 17-14.7 10.2-8.6 6.8-6 16-13.8c1.3-1.3.3-4.4.2-5.8-1.6.1-2 1.3-3 2.2l-32 27.7-24.3 21.6c-.8.7.9 2.5 1.8 3.2q3.5-2.6 7.3-5.8M265 384.4c1.8-1 2.3-2.1 3-3.4l-12.5-11.1-38-32.5c-3-2.5-5.3-5.2-8.4-7.2-.5 2-1.3 5.1.4 6.6l23.9 20.4q2.4 2.3 5 4.4zm38.2-44.8-6-2.5c1.9-1.8 7.5 2 8.6 2 .9.1 1-1.5.9-2s-1-1-2-1c-1.5-.2-1.3-2.5-2.2-2.8-3-1.2-6.5-1.7-9.6-3-2.5 3.9 1.4 2.5 2 12.3 0 2.4 5.3.3 8.4.7-.6-1.2-1.7-.5-2.5-1q1.9-1 0-1.8c0-.7.7-.4 2.4-1m-56-6c1.2-.5 2.2.2 2.5-1.2-3.3 0-5.6 0-8.7.8.9 1.9 2.2 3.8 3.7 4.8l9.3-1.6c-1.8-1.5-5.8 1-6.9-2.8m64.3 3.7 1.1-3.6c.2-1.8-1.9-1.8-1.8 0 0 1.1-1 1.9-.7 2.5.1.4 1 1.4 1.4 1m12.6 13.2c.3-5.2 3.8-3.5 4-5.6.5-5.6.2-10.2-5-12-2.4-.9-4.9-1-7.2.7-4 2.8-3 7.3-2.8 12 .7 1 2.2 1 3 2 .8.8.4 1.8.5 3 2.5 0 5 .4 7.5-.1m63.2-14 8.8 1c1.9.3 3.4-2.9 3.6-4.6-3-.4-5.6-.9-9-.4.8 1.5 1.9.6 3.6.7l-1.9 2.6c-1.8 1.1-3.6-1-5.1.7M379 342c1.7-1 3-3.1 2-4.6-1 .5-2.3 0-2.9 0-1.1-.2-1.4 1.5-2 2.8-1.2-.7-.5-1.8.2-3.1q-3.7-1.9-7.8-.7c-3.2.9-6.4.3-9.2 1.5 2.3.9 4.4-1 6 1-2 .9-3.7-.5-5.2.7 5.2 2 10.2 1.2 15.2 1.8 1 0 1.7 1.8 3.7.6m5 40.4 24.4-20.5 11.6-9.8L431 343c1.6-1.3 2.3-3.2 1-5.3l-22.4 19.5-33.4 28.6c-.7.5-.1 1.6.3 2 .7.7 5.2-3.5 7.4-5.3M199.8 355c.2-2.9 1.3-6 0-7.8-2.6-3.2-5.6-5.7-8.8-8.5-1.6 11.3 1.3 8.7 8.8 16.3m63 33c.8 0 1.5-1.8 1-2.4q-.5-.6-1.4-1.3L234 359.9l-24.9-21.3c-1.3 1.8-.8 3.5.6 4.7l11 9.4 25.4 21.3zm-9.1-47c-2.7 0-2.8-1.1-.7-1.1 1 .2 1.1-.7.2-1-2.3.3-7-1.5-7.3.6-.2 1.4 6.6 8 10.6 7-2.1-1.2-3.4-2.1-4-4.2.4-.5 1.7-.9 1.2-1.3m132 2q1.9 1 1.4 1.4-.2.4-1.4 1.2c2.9 1.9 8.3-4 9.5-6.5q-2.9-1.3-7 .4c.5.4 1.2.4 1.6 1-.8.5-1.4.3-2.4.7l1.7 1c-1.8.6-2.8-.2-3.4.8Zm56.4 12q2.7-1.5 4.8-4c3.2-4 5.4-.8 4-12.8-7.4 8-10.5 6.5-8.8 16.8m-91-15.6c-1.5 0-2.3-.4-3.3 0q.2 3.3-1.2 5.9c2.7 3 4.7-5 4.5-5.9m3.7-.3c-.6.1-.8.8-.6 1.3s4.5 1.2 5.2-1c-1.6-1.1-3.3 1.5-4.6-.3m-77.1 5.6c2.8-1.6 4.4.3 6.2-1.4-4.8-2-9.5-1.3-14.7-.4-.5 1.6 1.5 3 3.3 2.7 4.2-.7 10.2 1.6 9.4-.6-1.8-.1-3.2.5-4.2-.3m91 .7c1.5.3 3-.3 3.3-2.2-.6-.7-2.1-.9-3.3-1l-5-.1-7 .6c.6 1.5 2 0 2.6 1.1l-3.5.7c4.5 3.5 8.2-.2 12.8.9Zm-99.8.1c-1.4-2.2-3.3-2.8-4.8-1.3 1.3 2 3.4 2.3 4.8 1.3m107.6-1.7c0-.8-2-.6-2.7-.2q-.9.6-1.2 1.7c.7.7 2 .7 3 .4q.7-.2 1-2m-69.4.7c-4-.7-7 0-10.7-.3 1 2.9 3.2 1.4 5.1 1.1s4 2.3 5.6-.8M228 416.8c0 1.4.4 2.2.1 3.5 0 .6 1 .4 1.6.2-.4 1.3-1 2.5-.7 4 2.3.1 3.4-1.7 4.2-3.7 1.1 1 .5 2 1 3.3 5.9-4.8 7-1.7 9.3-8.5.3-.8 2.3-.8 2.5-1.6.5-3.4 2.2-5.6 3.8-8.3 1.1-2 7.3-14.8 8.4-18.2l-22.8-19.6-26.7-22.5.2 30.2q2.3-1.5 5-1.4c5.4.6 3.8-6.7 8.7-4.7 2.5 1 4.8 1.1 7.5 1.4 1.5.1 2.4 2 4 2.5 2.4.6 6.8.2 8 2.7 1.5 2.6 2.1 5.2 4 7.6.8 1 1 2.9 1.5 4s-1.6 1.7-2.2 2.6c2.2 3 4.3 6.7 3 10.5-.9 2-3.8 2.5-5.2 4 0 1.7 1 3.1.4 4.8-10.6 2-8.8.3-15.6 7.2M395 390c-5.4-2.4 1.8-7.5 2.4-12 1-6.4 7.6-2 11.3-6.5 1.8-2.2 3 .3 8.3-2q3.7-1.5 5.4 2c2.1 4.6 6.6.9 9 4q1.1 1.8.8 4.5c.3.9 1 .9 1.2 0-1.4-9.5.7-10.8-.6-23-.4-4 .5-7.7-.4-12l-14.7 12.5-29.5 24.8c-2.3 1.9-4.3 3.3-6.4 5.5 3.4 6.5 6 13.2 9.7 19.5.6 1 2.7 1.1 2.2 3.1-.6 2.6 2.3 3.4 3.2 4.9 1.1 2 1.4 4.3 4.1 5.3 2.1.7 3.8 2.5 5.8 3 0-1.7 0-3.3 1-4 1.4-1 4.2.1 4.7-1.9.3-1-1-1.3-1.3-2-3.7-6.2-8.2-4.6-14.3-6.3-.7-1.3.4-3.3.8-4.8-1.3-1.4-3.6-1.6-4.9-3.2-1.2-1.4-1.5-4.3-.7-5.8zm-99.3-23.8q-1.8-1-3 .1c-.3.4-1.2 1-.5 1.9 1.1 1.4 3.7 2.1 5.6 1.7 4.4-1 17-19.9 8-17 .2-1.6 1.7-1 2.3-1.9q-.4-2.6-2.3-3.2c-1.4-.6-2.6.5-4 .6h-12.1c-3.2 0-6 .5-9.1.2 0 2.7 6.3 7.4 8.6 6 0 4.3 2.9 1.3 5.6 6.7 2.3 4.6 5.9 1.5 6.7 3s-3.7 2.8-5.8 1.9Zm75.6-12.6c-.7-1.6-2.5-1.3-3.5-2.2 1.7-1 2.7.8 4.3.4 1.1-.4 1.2-2.8 0-3a21 21 0 0 0-8.4-.4c-1.8.3-.6 5.4-4.1 6.1-1.7.4-2 2.4-3.1 2.9-10.7 4.7-7 5.5-8.8 7.6-2.6 3-7.4 1.4-9.7-1 2.4-1.2 5.2 1 6.3-.6l3.7-5c1.5-2 12.2-5.9 12.1-10-4.7.3-9-.5-13.5 0-2.6.3-4.6-.5-7-.6q-2.7.2-5.7-.2c-1 .8-1.4 2.6-1.5 3.7l1.6 1.5c-1.3.2-1.9-.4-2.2 0-.5.8-.6 2 .4 2.5 1.1.6.8 2 1.1 3 1.2 3.3 3.6 5.5 5.5 8.2 1.5 2 3.2 3.7 5.7 3.7 2.7 0 3.6-1.7 5-3.6 1-1.3 4.1-1.4 4.3-3.4l-2.2-2.8c1.7.1 2.3 1.7 3.7 2 1.7.5 3.2-.4 4.6-1.5l-3.1-3c1.8-.8 5 5 7.4 1-.5-.7-1.5-1-1-1.8 2.2 1 4.6 1.3 5.2-.8-.1-1-1.9-.8-2.3-1.5 1.3-.8 3.2 1.4 4.5.4.3-.2 1-.9.6-1.6Zm-82.9 6.8c0 1.8-1.3 1.9-1.5 2.8.7 1 3.4 3.5 4.5 2.7q.8-.4 1.1-1.5c.4-3.2-7-7.5-8.7-5.8-.6.7-1.4 1.4-1.9.5.7-.8 1.7-1 1.7-1.7 0-.4-.6-1.4-1.2-1.7-5.5-2-2.8-7-5.6-7.3q-4.5-.5-8.5.9c-.9.3-.5 2.4.1 2.5 1.8.4 3-.7 4.2-.4-1 .8-3.3.8-3.2 2.1.3 2.3 3 1.7 4.6 1.3l-2.2 1.7c2.4 2.2 4.5 2 6.6.4.3 1.2-.9 1.2-1.4 2 1.3 1.6 3 1.1 4.7.4.2.8-.4 1.6.1 2 1 .6 2.4 1.7 3.3 1.1zm-90.2-3c-2.6-.7-3-4-7.4-6.7-.5 12.3.2 7 8.1 15.8 1.2-.7 2.8-8.3-.7-9.2Zm253.1 1.8c1-.8-.5-1.7-.4-2.1.3-2 1.1-4 0-6.3-6.9 7.1-10.8 6.5-8.7 16.3zm-191.2-3q2.6-1.2 1.2-3.6c-1-.1-2.4 1.3-2.8 2.8q-.2 1.5 1.6.8m122.3.1q-.1-3.6-3.3-4.3c.4 1-.2 2.2.2 3 .5 1 1.8 1.6 3 1.3Zm-118.1 3.7q1.4-1.3 0-2.2-1.8-1.2-3.5-.4c-.5.2-1.4.6-1.1 1.5q.6 1.7 1.7 2.2c.9.5 1.8-.2 2.9-1.1m114.6.7c.8-.3 1.9-1.7 1.8-2.2-.2-1-1.4-1.5-2.2-1.5-.7 0-1.8.6-2.3 1.7-.3.8 1.8 2.4 2.7 2m-62.6 3.8c.8-.8 1-2.2.7-2.6-2.2-1.2-4.5-1.7-6.5-3.9q-2.2 1.8-1.4 5a18 18 0 0 0 7.2 1.5m9 0c2.3 0 4.8-.5 6.5-2 .9-.8-.7-4.2-1.6-3.7l-5.6 2.7c-1.2.5-.8 3 .7 3m-55.9-2.8c-1.8-.7-3-1.5-3.8-1q-1 .2-2.2 1.7c1.2.7 2.4 1.8 4 1.7 1-.2 2.2-1.7 2-2.4Zm107.8.3c-3.9-3.9-2.9.9-11.5 2.1-.3 4.6 9.6-.8 11.5-2m-177.1 18 .2-9.2-9.3-8c-.5 1.6-.7 8 .3 9q4.2 4.3 8.8 8.2m74.8-15.8c0 .1-4.6-3-6.3.7 1.5 1 6.2 1.8 6.2-.7M442 380l9.2-8.4c0-3 .5-5.5-.4-8.5l-9.2 8.3c.3 3.2-.3 5.6.4 8.6m-160.7-13.2c-1.6-2-4-2.6-6-.9a8 8 0 0 0 6 1m84-.6a4 4 0 0 0-5.1-.3c-3.2 2.4-7.2 1.4-6.8 4.5 7.4-3 1.2-2 11.9-4.2Zm-31.2 7.9c-1 5.7-1.2 10.8-3 15.9-1.6 4-7.3 17.6-13 13.2-6.9-5.3-10.7-20.1-11.8-29.1-2.7 3.8-3.6 7.8-5.7 12.7-1.8-3.2.5-5.9.9-8.6.9-5.7 1.2-4.7 2.2-10-1.8 2-3.4 4.3-6.3 5.4-3.2 1.2-8 1.5-11-.5-10.8-7.3-12.1-.8-23-7.8-.4 1.8 1.2 1.7 2 2.4l46.5 40c2.9 2.4 5.3 4.7 8.6 7.1l48.6-41.7c2.9-2.5 5.1-5 8.1-7-1.4-1.3-1.8.3-2.6.7-10.8 4.5-9.7-.3-20.1 6.1-5 3.2-12 1.5-15.8-2.7-1-1-.7-2.8-2.7-2.7 2.7 4.5 4 12.2 5 17.9.6 1 .4 1.8-.9 1-1.9-3.3-3-11-6-12.3Zm-48-6.1c-1.6-.7-2.7-1.1-3.4-.1 1.6 1.3 3 1.7 4 3q1-2.1-.7-3m30 3.8c.7-.3 1-2.8.2-3a27 27 0 0 0-7.2-1.4c-1 0-.8 2-.5 2.5 1.2 1.9 6.2 2.5 7.5 2m14.6-.8c1.3-.3 1.6-1.4 1.3-2.3-.8-2.9-7.1 0-7.1 0-1 .7-1.1 2.3-.7 3 1 1.4 3.6-.1 6.4-.7m-116.8 15c.5-1.9.4-3.2.3-5-.1-1.2 2-3.6 3.3-4 1.9-.7 4-.3 6.1-1.5 5.6-3.4 5.2 3.6 10.1.6 0-4-10-4.4-13.2-4.7-3.8 7.3-3.4 3.1-9.4 5.6l-1.3 6.1c-.3 1.4-2.2 2.8-1.4 4.4a10 10 0 0 0 4 3.6c.6.4.3-1 .7-1.8 1.6 1 1 2.6 2.2 3.7 1.3-2.7-2-4.6-1.4-6.9Zm214.6 3.3c.7 1-.6 1.7-.1 2.8 1.2-2.7 6-3.6 3.8-6.6-4-5-.8-8.7-3.6-9-6.2-.6-5.5.2-8.5-5.2-2.1-.5-4.3 1-6.6.9-3 0-6.2 1.2-7 4.5 6.7 1.2 4.1-5.5 12.5 0 .9.7 2.2 0 3.1.2 3.1.6 4 3.5 5 6 1.7 4.8-1 1.8 0 5.4.2.4 1 .4 1.4 1m-112-10c.9-.2.7-3.2-.4-3.4-2.6-.5-4.8-.3-7-1.8-.4 1.3-.6 3.3.4 4 2 1.1 4.8 1.8 7 1.3m-80.3 16.3c4-3.6 5.7-4.1 9.2-7.8-1-2.8-2.8-4.9-3.5-7.7-.4-1.6-.8-3.3-2.3-4-1-.4-3-1.4-3.9-.2-.7 1 0 2.3 0 3s2 1 2 1.6c.3 1.2 1.5 1.5 2.2 2.4 2.7 3.7-.8 8.6-4 11.5q-1.5.8.4 1.2ZM329 379c1.9-.6 3.4-2.1 2.6-4.3-3 .7-5.2.7-7.5 1.6-.4.7.1 1.9-.1 3.2q2.3.6 5-.5m113.3 13c7-7.2 11.1-8.2 8.6-17l-8.8 9.5c-.3 2.4-.7 5.4.2 7.5m-242.4.1c0-3.1.9-7 0-8q-4.3-4.8-9.2-8.6c-.8 1.5.7 1.7 1 2.5-1.4-.2-1.5 5.7-.7 6.3q4.8 3.9 9 7.8Zm26.6-14.3q1.3-.7.9-1.4-.3-.5-1.5-.2c.7-1-6.8 3.2-3.1 3.2q1.1-1.5 3.7-1.6m173.1 6.6c.5-1.8 2.4-2.2 3.8-2.8-.3-.7-1-.7-1.6-1 1.4-.8 2-.4 3-.6 0-1.2.7-2.7.4-3.9-6.4-2.7-6.1 6.3-10 11.8 2.4 2.7 5.2 5.1 8.5 6.3.4-1.7-1.4-1.7-2.2-2.7a9 9 0 0 1-1.9-7Zm17.6 8.8c.9-.6 1.7-.2 1.2.8-1.2.8-2.8 3-1.5 4.2 1.7 1.7 5 .2 5.8-2a9 9 0 0 0 0-6c-.2-.2-1.5-.2-1.5-1 1.6-2 3.4-3.8 3.5-6.6 0-1.7-1.8-3.5-3.2-3.7-1.1-.2-1.5 1.2-2.8 1.3q-.9-4.6-5-4c-1 .1-1 1.2-.6 1.6 0 .2 6.1.4 5.6 3a12 12 0 0 1-2.2 4.6l-3.9 4.7c1.2 1 2.6.5 3.8-.4 3.4-2.6 1.5-6.8 3.6-6.1-.4-.2 2 1.5 1.8 3.2-.3 2.5-5.6 3.4-6.7 6.9-.3 1 1.5.7 2-.5ZM223.6 398c1.4-1.5-.1-3.3-1.5-4-.8-1-.1-1.6.9-1q.8.9 1.4.9c2.3-1.7-4.5-4.7-5-6.3-1.2-2.6 1.3-5.6 1-8.2-.1-1.5-2.7-.5-3.3.4-2.2 3.2-.5 6 2 9 1.1 1.2 1 3 2.6 4-2.1-.2-2.4-2-4-2.4q-.4 2.8.6 5.7c.5 2.2 3.6 3.7 5.3 1.9m7.6-17.7c1.5-1 .4-2.7-1-1.5-1 .8-2.4 0-2.7 1.2 0 1 .9 1.3 1.3 1 .3-.2.6-1 2.4-.7Zm184.9.9c-1.6-3-3.7-.5-5.6-2.1-1.1-1-3-1-3.6 1zm-188 8.6a28 28 0 0 1-5.7-7.2c.3-1.1 0-2.1-1-1.1.7 2.4.2 4.6 1 6.4 1.5 3 7.4 3.4 5.8 1.9m1.1-5.7c.6-1.2-.3-1.4-1.5-1.7-.8-1-1.6.3-1.8 1s0 2.7 1.6 1.7q-1.2-2.2 1.7-1m6.5 2.7c.6-2.5-1.4-4.7-3.9-4.8 1.2 1.1 2 2.7 1.6 4.2a7 7 0 0 1-2 2.9c1.4.2 3.8-.8 4.2-2.3m80.8-3.2c-1.7-1.4-3.6-.6-5.2-.5-.3-.6-.3-1.4-1.3-1.2.3 1.3.5 2.8 1.4 3.6 1.5 1.3 3.5 1.3 5 1.2.2-1 1.1-2.3.1-3.1m92.6 5.6c-1-1.5-2.3-2.7-2.2-4.2 0-1 .7-1.7 1-3-2.2.7-4 3.2-2.8 5.2.8 1.2 2.7 1.8 4 2m-79-6.2a9 9 0 0 0-5.7.5c-.5.3-1 1.9-.5 2.7.8 1.2 3.3.5 4.5 0 .9-.4 2.2-2.2 1.7-3.2m83.2.4c-.9-.2-3-.5-3.7.7-.4.8.6 1 1.3 1.4 1.2.5 2 .7 2.5-.3.2-.5.8-1.6-.1-1.8Zm-48.4 95c3-.5 5.8-3.1 7.4-5.5 2.2-3.3 7-8.8 5.5-12.6-9.3-1-4.2-15-7.6-20.3-6-1.3-3.3 4.8-5.5 13.4-2 7.6-8 7.9-14.6 7.7-.4 1.3.5 2.4-.8 3.3-1-6.6-2.7-1.9-11.6-8.1-7.6-5.3-7.2-9.6-7.4-17.5-2.2.6-7-2-7.7-4.3-1.1-.1-2.9-.3-4-.7-6.2 3.3-4.4 4.8-8.9 6.2-1.3 1.3-.2 3.9-.4 5.6-1.5 9.7-14.6 15.9-20.5 15.7-4.4-.2-9.6-.2-12.4-4.5-2.6-4-1.9-9.8-2.5-12.4a11.6 11.6 0 0 1 7-13.5c4-1.7 8.2-1.9 12.2-3.2 9-2.8 8.1 1.3 14 3.8q-.1 1.5 1.1 3c1.2 1.2.1 3 2 4.7 1.6-4.5 9.3-8.2 13.4-5.6 2 1.3 3.4 3.5 6.3 4.5 1.9-4.8 5-9.2 9.9-11 3-1 5.8.6 8.6 1.1 7.5 1.4 15.8 3.5 17.4 11.5l4-1.4c0-2.4-1-4.3-1.9-6.5a25 25 0 0 1-1.6-14.2l2-6.1c1.8 2.6-2.7 12.1-.3 14.7.6-.6.5-1.5 1.4-2 .3 2.3-.7 4 .2 6 1.4 3.5 3.7-4.4 1.6-6.5 1.2-.2 1.7-.3 2.3-1.2 1.1 2.5-.9 3.8-1 5.9-.5 8.2-2.3 1.6.8 13.8 2.2-9.3 3.1-1.6 4.2-8.6l1.2 2.8c.8-6.8.3-8 .7-14.8.7-11.9-1.4-28-9.2-38.2L349.8 401l-27.6 23.5q-1.6 1.6-3.4.1l-48.4-41.6q-4.8 5.9-7.3 12.3c-5.2 13.2-4 38.4-.5 51.9 1.6-1.3-.1-2.9 1.1-3.6l.7 3.6c3.4-4.4-1.2-7 1.2-7.7.5 1.1-.3 2 .7 2.7 2-4.3-2.8-10.4 1.2-8.8q2-2.4 2.2-5.4c1.2.6 1.6-.3 1-1.1-1-.5-2.2-.8-2.3-1.6 0-1.1-.5-2.3.6-3 .3 1.6.2 3.3 2 3.5 2.6.3-3-5.2-.4-6 .7 1.2-.2 2.2 1 2.7.1-3.7-2.6-13.5-3-16 0-.3.8-1.1 1.1-1-.4-.2 2.4 8.4 2.7 9.7 3.9 12.4-3 16-4.4 30.2l-1 8.8c-.3 3.5-2.6 4.3-5.2 6s3 10.7 5.7 13.3c9.2 9.1 8.8 2.7 17.5 4.6 3.7.8 5.8 3 7.3 6.4 3.2 7-.1 5.5 1.1 11.3a26 26 0 0 0 4.7 1.9c.9.3 2.5-.4 2.5.9a5 5 0 0 0-2.1 4.8 4 4 0 0 0 1.8 3c0-3.2.9-4.9 0-7.6 4.2 1-.6 4.8 2.7 9.4 3.6-.6 2.6-6 2.7-8.3 1.2.4 1.5-.6 2.8-.9-.9 2.8-1.6 4.8-1.7 7.6-.1 1.9 2 2.8 3.4 2.2 2.1-.8.2-9 .3-8.7-.3-.8-1.5-.5-2.1-1.4-.4-.6.7-1.1 1.1-1 .1 0 4.1 2.3 4 2.8 0 2.2-1 4-1.2 6s.7 3.3 2.8 3.3c1.2 0 3.4.4 3.8-.9.4-1.5.7-8.5-1.9-9.6-1-.5-2.3.5-3.5.5-.8-1.8 1-2.3 2.1-2.5 2-.3 3.6 2.4 4.3 2.8 1 .6 2-3.8 5.4-2.4 1.2.4 1.4 1.8 2.1 3 1-1.6 1.4-2.6 2.5-2.7 1.5-.2 2.2.6 3.4 1.6.8.7 1.5-1.1 2-1.7 2 0 2.4.9.5 1.2q-2.3 4.1-1.5 8.2c1 .1 1.7.9 2 .3.3-1.1 2.1 1 1.1-8.3 3.3-2.3 10.1-1 9-5.4-.7-2-.3-7 1.2-10.1l1.8-4c1.3-2.6 16-1.8 15.5-1.7Zm-165-74.9c.4-3 1-6.3-.2-8.4-2.7-3-6-5.4-8.9-7.8-1.9 10.1 2.7 8.7 9.1 16.2m251.4-9c.6-2.4.1-5.2 0-7.5-3.3 3.1-7 5.3-9 8.7-1.5 2.2-.2 5.6-.3 8.3zm-222.6 3.5c1.3-1.8 7.3-5.4 9.3-9.1-3 1.2-5.3 2.8-8.5 3.4-2.3.5.2 4-.8 5.7m32.6-7.7c-.2-.5-1.5-1.2-1.8-.6l-7.4 16c-.7 1.6.3 2.7 1.4 3 1.5-2.8 8.5-17.2 7.8-18.5m55.5 0-3.8-.2c.5 1.3.6 2.3 2.1 2.7q1.6.5 2.1-.5t-.4-2m93.4 37.4c-1.9-2-4.2-2.1-6.4-3-6.8-2.8-8.4-7.3-9-7.8-2-1.8-3-3.8-4-6.1-.4-.8-2-.8-2.2-1.8-.3-1.4 0-2.7-.7-4l-7.7-15.3c-.3-.6-1.4.4-1.7.7q-.4.8.2 2l4.7 9.8 4 8.3c1.9 3.8 7 11.9 5.8 9.7l2 4 3-.6c.6 1.7 12.7 6.5 12 4.2m1.3-30.6c.5-2.2.9-3 1-4.1l-8.8-3.4c-1.3.5 7.8 8.6 7.8 7.5m-83.8-6.1c-.4-1-1.6-.8-2.4-.9-1.3-.2-2 .8-1.8 1.5q0 1.1.7 1.4c1 .4 4-.5 3.5-2M243.5 402c1.1-.7 2.5-1.3 3.1-2.2 1.8-2.6-1.4-7.5-2.5-7.7q-.7.1-1.5 1c-2.8 1.9 1.9 3.8-2.5 8 .7.8 2 1.8 3.4 1Zm-20.8 1c-1.8-2-3.8-2.2-5.7-3.1l-5.3-6.7a10 10 0 0 0-5.6 3c3.7 5.2 10 10.6 16.6 6.7m177.5-2c-.9-.6-3.5-8.2-1-7q-1-1.2-3.3-1.4c-1.9 1.9-3 4.7-1.8 7.1.7 1.3 5 4.2 6.1 1.3m18 2.3c7 2.9 12.9-1.4 16.6-7.2-1.5-1.3-3-2.5-4.7-2.8-1.2-.2-3.8 4.7-6.6 6.4-1.8 1.1-4 1.3-5.3 3.6M234 404l4.2-3.4c1.5-1.1 3-3.3 2-5.2-1.4-1.2-2.4 1.7-3.3 1.8-3.4.5-6.5 1.3-8.9 3.8-1.8-.1-3.2-1.3-5.5-.2 2.9.4 8.8 5.3 11.5 3.2m173-6c-2.4-.4-3.9-1.7-6.2-3.3-1 2.5.3 4.8 2.2 6.3 4.2 3.2 5 5.2 10.1 2 1.6-1 3-1 4.5-2-8.8-.6-5.6-2.2-10.7-3m44.3.5c-6.8 7-11.3 7-9 16.3 7.1-7.6 10.8-6.6 9-16.3M200 414.7c.9-3.3.4-5.5-.1-7.8l-8.7-7.8c-1 2.5-.3 4.2-.8 6.4q4.5 5 9.6 9.2m224.7 7.1c0 1.6-1.4 2.5-1.1 3.5 2.7 9.7 2.7 3.6 6.5 12.6-.3 1 .6.8.9-.4.6-.3 1.7.1 2.3-.5l-.2-34.8-6.3 3.7c-2.9 1.7-1.8 5.7-7.9 7.8.4 1.3 2.3 2.5 1.6 3.6-1.7 1.1-3 2.9-1.9 4.7 1.1 1.7 6.1-3.3 6.1-.2m-202.6.3c1.3-1.7-.6-4-2.4-4.6 0-1.6.9-2.3 1.9-3.7-9.2-4-2.3-7.1-12.7-10.7v33.1c0 .8 1 1 1.3 1s1.2-.3 1.4-1c1.3-4.4 6.6-5.4 5-13-.2-.9-1.6-1.1-.6-1.8 2.6-1.9 4.4 2.9 6 .7Zm4.4-7.7c4-1.6 4-4.1 9-5.7 2.2-.6 4.5 0 6.7-1.3-1.2-1.8-3-3.1-4.7-2.9-1.6.2-2.6 2.6-4.2 2.4l-7.4-.8c-.3.8.3 1.6-.5 2-.6-1-.5-1.8-1.1-2a3 3 0 0 0-1.6-.3l-6 1c3.2 5.4 4.4 2.6 9.8 7.6Zm173.3 42c1.6.7 3 .8 4.3 1.3 4.6 1.7 2.3 8.8 3.2 12.2.7 1 2.7 2 4.1 2.2 1.4.1 2.6-2 1.9-3.4l-12-25.2-8.2-16-11.5-23.7 1.3 12.6c7.9 3.8 2.6 9.8 5 12.5 1 1 3.7.5 4.5 2.3 1.6 3.7-.4 8.8 1.1 12.1 2.5.1 5.2 1.4 5.8 4 .8 3 .2 5.9.5 9.1Zm22-46.4c.7-1.7 1.2-2.3 1.8-3.3-2.4 0-4.2-.4-6.5-1l-9 1.3c-2 0-3.3-1.8-4.8-2.5-.6-.2-5 1.1-4 3.1.8 1.3 7.2-.4 12.6 5.6 2.4 2.6 7.2-3.8 10-3.2m-182 46c1.5-2.7 0-6.1.7-8.6s3.5-3.2 5.6-4.1c1.2-3.2-.2-7 .6-10.3.6-2.3 4-2.4 4.9-4 1.8-2.9-2-8.5 3.3-11.6.6-.4 2-1 2-1.8-.1-3.4.7-6.4.2-10.2-3.2 8-6.5 14.3-10.5 22.4l-10.1 20.5L231 459c-1.7 3.3-3.7 6.5-4.3 10.2.3 1 1.5 3 2.4 3 1.4 0 2.7-1 4-1.5.4-3-.2-6 .3-9 .7-3.2 5-3.6 6.2-5.7Zm3-32.6c.5-.2 1.8 1.2 2.1.8.5-.5 1.2-1.3 1.2-2 .1-2.3 2-3 3-4.4.2-.3 5-9 1.9-8.5-1.2.2-4.5 11.2-13.5 14.8-2.6 1-5 1.6-7.4 3.4.8 2.7 11.5-3.7 12.7-4.1m-42.8-4.7q-4.3-4.8-9.2-8.5v7.2l9 8.2c1.3-2 0-3.4.2-6.9m251.4-1.7c.2-2.6.2-4.7-.2-7.6l-9.1 10c-1.1 1.2.2 4 1 5 2.6-4.5 3.8-1 8.3-7.4m-41.8 19.7c4.2-9 7.7-10.5 6.6-21.9-1.4.7-1.7 2-1.8 3.4-.8 13.1-10.1 15.9-6.9 24.2 1-2 .2-4 2.1-5.7m-179.5-6.3c-6-10.2-2.7-15.3-6.1-14.3 1.2 11.1.7 10 6.4 19.1 1.7 1.9 1.9 4 2.6 7 2.8-3.9-.8-8.2-3-11.8m26.7-11.3c0-.4-1-.3-1.2 0-1.2 1 .2 0-1 4.3 0-.1-1.2 6.3 1.4 6.2 2.4 0-.2-7 .8-10.5m-56.7 14.2c.6-4.2 0-4.9-1.7-6-2.7-1.9-4.4-4.3-7.5-6.2-.1.7-.9 2.7 0 3.5zm211-8.9c1.1-.6.3-2.3-.3-2.8s-2.6-1.2-2.7.1c-.1 1.2 1.9 3.3 3 2.7Zm30.9 21.8 9.6-8.8-.1-7.9c0-.6-1-1.1-.9-1.7.7-2.4 1.2-4.5.6-7-4.7 5-11.7 8.2-9 13.5 2.7-2.5 4.5-4.8 7.7-6.6.6 2.3-1.3 3.4-2.5 4.7-4.2 4.7-6.7 2.1-5.4 13.8Zm-56.8-18.1c-.1-2.1.5-3.8 0-5-.4-.7-2.2-.9-2.8-.5q-.5 3-.2 6c.1 1.3 3.2 1.1 3-.5m36.7 0c1.1-1.2.4-2.3-.4-3.5-.6-1-4.1-.3-4.3 1-.3 1.8 3.4 1.7 4.7 2.6m-198.6-2.5q.1-1.3-1.7-1.4c-1.6-.1-2.6.8-4.3 1.2q1.2.9 2 2.5c2-1 4.1-1 4-2.3m13.7 18c1.4-2.9 2.3-5.4 3.7-8l2.9-5.6c.4-1 1-1.7.4-2.2-.3-.3-1.3-1.5-1.7-.7l-6 12-11.7 24.3c-.5 1 0 2.7 1.1 2.7zm178.6 19.7-6.9-14.4q-5.2-11.2-11-22.1c-1 .1-2.3 1-2 1.7l8.3 17.3 10.6 21.8c1.8-.7 1.9-2.5 1-4.3m-180.2-27.4c2-2.7 3-5 3.8-7.7-2.5.9-4.4 1.4-6.6 2.5 1 2.2 1.5 3.6 2.8 5.2Zm172.4-5.4c-3.3-1-4.9-1.4-6.7-2.9a28 28 0 0 0 4 8.2q1.6-2.1 2.7-5.3m-207.7 7.2c-3-2.9-5.7-5-8.2-7.6-.4-.5.3-1.6-.4-1.7s-1.7 0-1 1l.2 8 9.4 9c.4-3.1.3-5.7 0-8.7ZM285.6 554c-1.8-.3-3-.5-4.7-.2-3.2.7-6.3-.6-10.2.6 1 .7 8.1 6.6 6.3 7.4a40 40 0 0 1-17.6-24c-.5-3.9-.7-18.3-.1-22.4-2.9-2.6-1.8-4.5-5.3-11.4-1.1-2.4-2.9-4.5-3.6-7 .1.5 0-9.2-2.4-7-.6.8.5 3-.2 4.4-3.3-1.4-7.9-7.9-9.8-9.2s-4-2.8-5.2-5c-1-1.7-2.5-2.6-3.6-4-3.7-4.5-5.9-9.5-8.7-14.5-.7-1.2-.8-2.3-1.2-3.5-1-2.8-3.6-4.7-4.3-13.8-.6-8 2-10.4 8.3-14.6q1.8.3.8-.9c-5.7-.9-11.6 6.3-12 11.7a16 16 0 0 0 .3 5.7l5.7 17.3c1.1 3.5 4.7 7.4 6.7 10.9 2.4 4.2 5.8 7 9 10.4 1.7 1.7 2.7 3.9 5 5 1.2.5 2.5 3 3.8 4.3a41 41 0 0 1 12.8 25.2c.6 3.1-.2 13.2.7 20.4.1.6-1.5.8-2 1-.2 1.6 2.1 1.2 2.6 2 2 4 3.5 8.3 6.8 11.2 1.5 1.3 1.8 2.3 2.4 3.9s2.8 2.6 4 4c1.2 1.6 11.8.6 14.1.6.5-1 .2-2 1.2-2.3-2.8 3.7 8.2 2.5 10.3 2.4 2.4-.2 4.8-5.4 7.6-6.9q1-.6.6-1.5c-.7-1.1-13.2.8-18.1-.2Zm56.3 5c1-1.7 1.5-1.3 1 .4.9 2.9 3.4 3.5 5.9 3.2 5.2-.7 11.5 1.5 14.6-1.1 1.6 1.8 6.7 2 8.9-1q1.4-2 4.1-2.1c0-1.3-.8-1.2-1.6-2 4-2.8 6.4-7.4 8.6-12 .9-1.8 2.8-2.3 4-3.3-1-.8-2.5-.6-2.4-1.4l.2-6c0-2.3-.7-10.9 0-13.1 1.4-4.9 2-10 4-14.5a82 82 0 0 1 16.6-19.1c1.2-.9 1.3-1.7 2-2.5a75 75 0 0 0 18.3-30c1.8-6.9 6.6-16.2-2.9-23.5-2.4-1.8-5.5-3.1-8-1.1 2.6-.4 3.6 1.3 5 2.1 5.3 3.3 6.1 8.2 5.3 13.8a47 47 0 0 1-3.7 12.7l-2.5 5.4c-3.9 8.8-11 15.8-17.6 22.3l-8 7.8c-1.4-1.5-.5-3.3-1.1-4.9-2.8 2.6-1.6 6.6-3 9.5-2.3 5-5.2 9.4-6.3 15-.6 3-1.6-4.7-1.5 10 0 7.3.3 16-3.2 22-2.4 4-9 14-14 15.2-1-2.2 3.1-3.7 4.8-6.7-2.3-.5-4.7-.3-7.4-.3-1.5 0-3.3-1-4.9 0-2.2 1.3-4.3-.2-6.3 0-5.4.6-6.1-1-13.3.5.3 1.4 1.3 1.7 2.3 2.2s.8 2 2 2.6Zm-84.6-124.9c.3-1.6-.2-2-.5-2.8q-3-.4-6.2.9-1.5.4-1.2 2zm129.2 9.2c.2-1.9-.5-3 .5-3.8.8 1.5 0 2.6.5 4.3.9-.4 2.7-.3 3-1 .6-1 .9-7.6-1-8.6q1.4-.9 1-1.7c-1.6-2-6.6-1.6-8-1.2s-.4 2.5 0 3.1q-1 1.3-1.4 3.3l-.8 5.3c.3 1 1.8 1 2 0 .3-1.7-.6-3.2.5-4.4.8 1.8 0 3.1.4 4.7 1.2-.1 2.2.3 3.3 0m-163.7.4c1.1-1.5 2.4-1.3 3.5-2 1-.7.2-2.5.9-3.3 1.2-1.5 1.5-3.2 0-4.5-.7-.6-1.2-1.4-1.8-1.3-2 0-9.3 3.8-8.5 9.2 4.3 1 6.6-4.4 7.4-2 .6 2-3.5 2.7-1.6 4Zm193.2 1c-.6-.2-1.5-.9-1.5-1.7 1.4-.8 2.2.2 3.7.6.4-1.1-3.2-3.6-1-4.3a14 14 0 0 0 6.7 2.6c.2-6.3-4.1-7.4-8.6-9.3-1.9.4-3.8 3.6-2.7 5.4 1 1.4 2.5 3.6.6 4.7-1.3-.4-1.1-2.6-1.8-3.7-1 2.1-1.8 5.2-.7 7.8l1.8 4.2q2.5 5.5 5 10.3 1.7-1.1 1.6-1.9c-.1-1.4-1.9-3-1-4 .4-.5 2.7-.4 3-2 0 .2-1-6.7-5-8.7ZM249.3 443q1-4.3 0-7.8-1.2 4.3 0 7.8m6-6.1.5 6.4c1.1 0 1.9.5 3 .3 0-3-.2-5.6-1.7-8.2-2.3-.3-4.1 0-6.6 0l.6 9c2.5-2.3.1-4.6 1.5-6.6 1 2 .2 3.4.5 5 2 10.3 1.4-10.8 2.2-6m-42.4 18.7c-2.9-11-2.5-6.1-2.5-17-1.6.6-1.7 1.8-1.5 3.5.4 4.8-.5 9.7.3 14.2.8.6 3.9.3 3.7-.7m10 .4c-.6 1.5-1.4 2.4-1.2 4 .1.7.8.9 1.1.7a58 58 0 0 0 6.9-13c1.2-2.7 1.6-5.5-.5-8.2q-.3 3.2-3.1 4.5c-5.6 4-4.3 3.9-6.7 10.5 1.2.7 2.4.6 3.6 1.5Zm207.8 3.8q.6 1.1 2.9 1.7l-.2-20.3q-.1-1.2-.5-1.6c-.3-.3-2-.2-2 .3.2 10.4-3.2 13.8-2.4 15.9.4 1 3.2.2 3.7 2 0 .5-1.4 1.1-1.5 2Zm-127-10c-3.2.5-7.7 3-7.7 6.3-6.2 3.2-1.9.7-8 2.1-1 .2-2.1-1.4-3-.7-1 .8-1.1.6-1.8-.1-1-1.2 2.7-1.5 4.8-2l-1.9-1.1c2.6-.9 4.2-.8 7-1.4.4-1.2-1-1.2-1.4-2q-1.4-4 .6-7.7c-1.2 0-1.2-.5-1.8-1l-2.3-1.9c-.3 1.3 0 2.5-1 2.7l-1.5-2.8c-4.4 2.1-.7 2-5.6 5.8-1.2-1.1 1-3.5-.2-4.3 0 0-3.7.6-3.4 3-1-1-.1-2-.7-3.6-2-2.7.5 11.5 0 10l1.4 4.2c.5 1.5 2.2 2 3.4 2.7 9 5.3 15.5-1.3 19.3-2.1 2.7-.6 6.3-6.5 3.9-6.1m50.4 4.4c1.9.2 1 2-.6 1q.3 1.6 1.2 2.5c.7.9 2.5 1.3 3.8.9 3.2-1 5-4 5-7.2 0-6.9 3-5.4-1.6-10.1 0 2-.3 3.3-2 3.6-.2-1.8-3.6-5.2-5-4.6-1 .5-1.6 3.5-2.5 2.8-1-.6-1.7-1.4-2.6-.8q-.6.5-1 1.9-1.4-.1-1.7.4c-1.1 2.4 1 4.2 1 4.1q.2.3 1.5-.7c2.3 1.1-3.7 3.4-1.2 4.8 1.2.7 2.9.9 3.8 1 .7-.8.6-2.2 2-2.4.3 1.3-1.4 2.4-.1 2.8Zm22.1-5.9c.4-2 1.5-8 1.8-7.6a1 1 0 0 0-1.3-.3c-.5.3-.2 1-.4 1.6l-1 5c-.6 2.5-1.4 4.9-.2 7zm66.6 11.6c2.7-1.3 4.4-3.9 6.6-5.8 1.7-1.5 2.2-2.7 2.2-5l-.3-8.2a86 86 0 0 0-9 8.3c-1 1.7-.2 3.7-.3 5.4 0 1.9-.8 3.8.8 5.3m-246.5-3.4q1.5 2 3.8 2.5a28 28 0 0 0 0-9.8l-9.2-8.1c-2.1 14.2 1.4 11.2 5.4 15.3m22.3-6c1-3 1-4.4 1-6.4-.8.6-2.1 1.1-2 2.3q0 2.4 1 4.1m204.5-5.1c-.5-.5-1.7-1-1.7-.2.1 2.1.5 3.5 1 5.5 1-.2 1.8-4.4.7-5.3m-163.5 3.5c.5-1.5 0-3.4-.7-3.4-3.7-.4-13.2-.8-15.6 2-2.9 3.3 13.7.6 16.3 1.4m137.7-1.4c-2-3.2-14-2.5-16.7-2-1.2.1-1.1 2.2-.7 3.1q6.6.6 13.5-.1c1.5 0 2.8.1 3.9-1Zm-136.1 9c-.1-1.9.2-4.8-1.2-6-3.5-1.3-3.8.2-10.6-.5-2.2-.3-4.4.2-6.7.2-.1 2.6-.6 5 .7 6.6 1.6.4 3.6 0 5.3.6.5-2.4-.5-4.2.6-6l.6 5.7zm122.7.2c.1-2.6.2-4.5-.1-6.8H379q-1 3.5-.5 6.9c1.9.4 3.4.1 5.4-.1m1.4-7c-.6.3-.5.8-.5 1.7v5.9c1 .4 1.9 0 1.8-.8-.3-3.7.7-7.7-1.4-6.8m10.1 1c1.6 2.6-1 6.6 1.6 5.9 1-.4.2-4.9.2-6.9h-9.8v7.2l5.8-.5.5-3.3c1.2.6-.4 2.2 1 3.5zm-48.6 4c-.6 2.3-.6 2.6-1.5 2.7-1.2 0-1.3-.3-1.4-1.7-.1-1.5-4-3.8-4.5-3.7-.3.1-.5.7-.9.8-.5-.7-.6-1.5-1.2-1.2q-1 .3-1.2 1 0 .9 1 1.6l5.6 2.7c2.5 1.1 4.9 2.7 7.3 1.3.4-.2 0-1.5-.4-1.6-.2-.2-.5.2-1.1.3zm100.8 12.4c2.8-6.7 4.8.2 3.7-12-3.4 3.3-6.6 6-9.4 9.5a9 9 0 0 0 5.7 2.5m-252.5.3c2.3-1.2 3.6-1.8 5.1-3l-9.1-9c-.4 2.7-1.2 5.7.3 7.5zm63.2-5c.6-1.2.4-2.9.5-3.7-4-.8-20.6-1.3-22.5 2.9q-.3 1.8 1.4 1.4c7 .2 13.6 1 20.5-.5Zm146.5-.4c-1.7-3.7-4.6-3.2-7.2-3.5l-17 .1c.2 1.8.1 2.9.8 3.8 8 0 15.5.5 23.4-.4M207 488.8c.2-6.3.7-12.4-.2-18.8-1.2 0-2 1-3.1.7-2.2-.9 9.5-7 9-6.5q.7-1.3 1.1-3.3-3.5 1.4-6.9 3.2c-2.6 1.2-18.8 7-15.1 9.3 3-2.4 7.8-3.8 11-4.5.8 1.7 0 3.5 0 5.5v44a12 12 0 0 0 3.8 3.6c1.2-11.5 0-21 .4-33.2m243.9-15.4c1.7-2-9.5-6.4-10.4-6.7-4.7-1.6-8.5-3.7-13.3-6.1-.6 4 10.9 8.7 10.5 8.7 1 0 1.8-.3 3 .1 3.6 1.3 6.9 2.2 10.2 4ZM215 478.7l1.8-6.5c.9-3-2.6-.7-2.7-2.5s3-1.6 3.4-3c-.4-2-1.5-3.5-2.3-5-.6 1.6.4 3.5-1 4.5-1.5 1.1-3.2 1.5-5 2.5-.3 7.1-.7 13.9.2 21.4.9.2 5-9.4 5.6-11.4m218.7 17.6c.3-10.8 1-19-.3-26.3-.3-1.6-2.6-.6-3.1-1.2q-1.5-1.8-3.9-2.8c-2.4-1 0-2.3-.8-3.7-1.4 1.2-1.5 3-2.4 4.4q.9 1 2.1 1.2 2 .6 1 2-1 0-1.5.1c-1.4 1 1.5 9.6 1.3 9.3q4.3 8.8 7.6 17m-40.2-24.6c1.8-.6 1-1.7 1.2-2.9 1.4.8-.3 1.6 1 2.7q.9.6 1.1-.5c-.2-1.7.6-2 1-.2 1.6.9 3.1.5 4.8.2.4-1.7-.5-3.5.5-5.1 1 2 0 3.6.5 5.2 2.6 7.3.8-10.5.6-7.6h-23.5c-1 2.2-1.8 4.3-3.4 6.2-3 3.7 6.2.8 8.1 1.8.5-1.2.2-2.3.3-3.8 1.8-.4 0 3.2 1.3 3.8 0 0 3-.1 2.5.4q.5-.6.3-2c0-1.8 1.2-1.5 1 .4-.3 1.6 1.7 1.8 1.7.3s-.6-2.7.4-3.8c1 1.4 0 3 .6 5Zm-144.7-1.4c-.2-2.1 1.1-2 .9 0-.3 1.7 1.9 1.9 1.6 0s1-2.3 1-.4q-.4 1.6.4 1.9.5.2 1.5-.3c.5.1.8.5 1 .3 1.4-1-.5-4 1-4.2l.5 4c2.1-.2 3.9.7 6-.2-1.7-2.9-2.7-5.4-4.7-7.2-5.6 0-16.8-.2-21.6.3-1.5.2-.3 6-.1 7.2q2.7-.3 5.5-.1l.6-4.9c1 1.2.1 2.6.6 4.4 0 .5 1.3.5 1.4.1.3-2.1-.4-3.8.7-5.3 1 2.3-.5 4.3.7 6 1.2-1.6 0-2.7.7-4.3 1 .5.9 1.5.7 3 0 1.5 1.8 1.3 1.6-.3m202.6-.3c0-2 .4-3.4-.5-4-.6-.5-2.2.7-2 1.7 0 1.4 1.6 2.3 2.5 2.3m-206.5 30c-1.8-4.8-5.5 3-16.8-3a17 17 0 0 1-8.1-20c1-2.4 1.2-5.7-.5-5.4s-2.8 8.8-2.5 11.4a23 23 0 0 0 13.7 18.1c2 .8 4 1 4.4 3.5 2.5-5 6.3-1.2 9.8-4.6m160.8 3.9c2.5-3.1 1-1 7.7-4.3 9.4-4.7 13.8-19.4 8-28.6-4.1 2.7 1.1 5.2.5 10.8-.7 6-2.6 11-7.8 14.3-10 6.4-15.7.6-17.6 3-2 2.7 9.2 1.9 9.2 4.8m31 17.8c1.1-.6 2.8-1.8 3-3.1l-.3-45q-.2-1.6-.8-2.2c-.7-.6-2-.4-2.5 0-.3 6-.5 12.8-.1 19.2.7 12.5.1 18.2.6 31M200 480c1-2.2-.4-4.7.2-7.6q-3.4-.5-5.7 2c-4.6 5-3 1.4-3.5 11 3.7 1.3 8.1-3.5 9-5.4m190.4-2.5 16.3-.2c1 0 1-1.8.8-2.4s-.8-1.7-2-1.7l-30 .2c-1.3 1-2 2.5-3.1 4q8.3.4 18 .1m59.4-1.7-7.3-3.6q-1.4 5.1 2.6 8.2c4.5 3.4 3 6.1 6 6.8 1.6-.9.1-10.2-1.3-11.4m-182.9 1.5c-.5-1.4-1.7-3.8-3.6-3.8h-28.9c-1 0-1.5 3.8-.3 4 4.9.5 9.3 0 13.9 0 6.4.2 12.3.8 19-.2m-41.4 9.3.4-6.1c.1-1.7-1.9-3.3-2.9-4.2-2.8 3.5-2.2 7.7-.4 11.4.9-.3 2.4-.3 3-1Zm193.5.6c.9-4.6 1.8-8.1-1.4-11q-1.5 1.4-2.8 3.5l.8 7.2c1.2.3 2.3.8 3.4.3Zm-158.3.4c.1-2-.5-4 .5-5.7 1 2.1 0 4 .3 6 3.6-1 4.7.7 9.3-.1-.2-1.7-1.4-2.7-2-4.2-.5-1.4 0-3.8-1.5-4.5-2.2-1-5 .6-7.3.2-3.3-.6-6.1-.5-9.5-.5l-16.1.3c2.2 2.5 4.4 3.9 6.2 6.3 2.4 1.3.4-2 1.7-2.6q1-.3 1.4.3c.6 1-2.1 3.6-.3 4.3s3.7.5 5.4 0c-2.3-6.7-4-3.3-4.3-5.1q0-1.6.6-2c2.5-1.4 5.4 4.6 5.8 7 3 1 6.6.4 9.8.3Zm135.7-6.8c1 3-1.5 0-3.9 6 1.4.9 3.6.7 5.4 0-1.4-7.4 1.2-4.4.9-2.8-1 4.8 7.7-4.9 7.8-5.2l-34.6-.2c-.3 1.6.7 3-.3 4.3l-1-3.6c-1 1.6-.2 3.7-1 5.6-.4.8-2 1.4-1.2 2.4 2.9-.2 5.4.4 8 0s10.2.6 13.4 0c.7-3 5.6-9.7 6.5-6.5M292.8 510c-.4-.3-6.2-7.8-6.3-8.5.2 3.1 2.5 6.1 2 7.8-3.3-3-4.4-7-5.5-11.3-1.7-6.4-1.2-20.5-3.6-15.2.2 1.9 1.6 3.3.6 5.2-1.2-1.6-1-3.8-2-5.6-.2-.6-2.5 0-1.8 1.4-.3 1-1 .9-1.3 0 .6-1.2 0-2.3-.5-1.3-.7 1.8-1.2 2.6-.7 4.1a64 64 0 0 1 2.6 30q2.6 4.3 6.2 7.5c7.5 6.3 1.2 4 9 10.6 4.6 4 9 7.7 14.8 9.7 8 2.7 8.3-2 13.2-5.5 3-2.3 5 4.2 8.7 5.8 2.8 1.3 6.5-.2 9.3-1.2 3.9-1.4 6-4.8 9-7.2 3.8-3.1 6.3-6.4 8.6-11 1.4-2.6 5-4 6.4-7 .7-1.5-.3-21 2-28.4.6-2.1 1.6-4-.3-6.3.7-1.1.1-2.1-.5-1-1 1.3-1.4 3.1-2.5 4-1.5-1-1-3.5-.5-4.6l1 2.7c.2-1.2 1-2 1.1-3.5l-2.8-1c-1.2 1.8-.6 4.5-1 6.9l-1.6 9.9c-.6 4-1.4 7.5-3.6 10.6-.3-2.6.8-4.6-.5-6.9-.8-.3-.3 1.3-.6 1.6-4.9 6-2.2 4.5-8.3 10.5-1 1-2.4 1.6-3 3q-1-.6-1.6-.5-.8.3-1 1.2-1 1.7-2.6.8c-1.6-1-1.7.5-2.6 1-1.4.8-2-.9-2.4-2.4l-2.6 3.3c-.6.7-1.6-.3-2-.6-.7-.7-.5-1.3-.6-2.6-.6.5-.1 2-1.8 1.8.4-2.6 1.7-4.4.7-6.3-.3-.6-1.7-.5-2.2-.2-1 .6-1.3 5.7 2 6.7 0 1-1.5 1.4-2.1 1q-.7-.6-1.7-1.8c-.8.5-1.5 2.5-2.9 2.1-1-.2-2-1-2.7-1.5.3-2.2.2-3.7-.5-5.5-.4-1-1.7-1.9-2.2-1-1 1.5-.1 3 0 4.7-1 1-2.6 2.4-3.9 3.2q-1-1.5-2.5-2c.4-1.4 0-7.3-1.4-7.2-3 .2.1 5.8-.9 6.5-6.2-1-2-.6-6.2-3.4.5-1 1.9-6.3.7-6.4l-1.3.3c-1-.4-.8-1.9-2-2.1-.8 2-.5 3.4-.2 5 1.2 0 1.9-.7 2.5-.3-1 1.6-.3 2.4 0 3zm158.3-10.7c2-10.2-2.4-9.8-8.7-16.9-1.9 10.2 1.5 8.6 8.7 16.9M197 493.9c3.9-3.8 3.8-3.6 3-11l-8.5 8c-.4 2.9-.7 5.4.1 8.2zm33.9-8.9c-.6-1.1-1.9-1.7-2.4-1.3-.7 1.1-1.5 3.4 0 3.8 1 .3 2.8-1.6 2.4-2.5m-17.4 4.7c.4-3.8 2-2.5 1.8-4.6q0-.8-1.1-1l-4.6 9.5q-1 2.4 0 5c1.6-2.5 3.4-5.4 3.9-8.9M413 486c.2-2-1-2.7-2.1-2.3q-.6.2-1.2 1.3c-.2.4.6 1.2 1 1.6.7.6 2.1 1 2.3-.6m20.8 32.2c.5-5.5.1-10 .3-15 .1-3.2-1.1-5.8-2.4-8.5l-3.7-7.5c-.7-1.4-.6-2.9-2.2-3.5-1.3 3.5 3 4 1.8 6.8-2-1-4-.5-4.6 1.7-3.3 12.3 5.1 8.7 5.7 14.2.9 7.6-1.7 8.3 5.1 11.8ZM417 490c-2-1.1-3.9-.7-5.8-.6-2.8.1-6.7-1-7.9 3.3H415c.6-.6 1.6-1.2 2-2.7m-205 23v-4.6c.1-3.6 2.3-5.5 5.4-6.8 1.6-.6 2.4-10.6-1.7-11.8-6.1 12.3-8 13-6.2 27 2-.6 2.4-1.8 2.4-3.8m26-20.3c-.6-1.2-1.8-2.8-3.7-3-2.6 0-12.1-1-9.3 2.2 1.5 2 9.1 1 13 .8m34.3.1c.8-.7 0-3.1-1.4-3.1h-19q0 2 .7 2.6c1.2 1.3 16.5.7 19.7.5Zm114.8-.1c1.3-.1 2.5-3 1.3-3H367c-.8 0-1.2 2-1 2.9q10.5 1 21.1 0M200 516c1-2.7.3-5 .3-7.4q.1-4.9 0-9.8c-.1-1.9.9-3.5-.1-5.9-2 3.6-11.4 10-8.5 14.2 2.4 3.3 5.5 6 8.3 8.9m41.8-18.8c-.3-4.9-10.7-2.7-13.8-2.8 2.5 3 9.5 3.7 13.8 2.8m19.7 4.5 4.5-.3c1.5 0 2.7.8 4.4.3-.5-2.7-.2-5-.5-7.8-5.6.2-11.3-.4-16.8.4-1.2 2.2.1 5.8 2.4 7.3 1.2.7 4.5.4 5-.8s-.8-3 .9-3.6zm9.9 0q1-4.3 0-7.9-1.1 4.3 0 7.8m2.9-1.1-1.2-6.8c-1 2.8-.3 5.4-.4 8.6.7-.2 1.7-1 1.6-1.8M385 502c2.7-2 4-4.8 3-8.1h-22.6a12 12 0 0 0-.4 8c7-.3 13-.3 20 .1m27.7-8-9.2-.1c-1.8 0-3.3.6-4 2.9 2.5 1.2 12.2 1 13.2-2.8m31.6 20.7 7.3-7.7c1.1-4-2.3-5.2-6.1-10-.8-1.1-1.5-2-3.1-3-.8 1.8 0 3.7-.4 5.7-.2 1.6-.4 2.8 1.4 3.9q-1.6 1.3-1.3 3.4c.2 4.9-1 11.1 2.2 7.7m-150-11.5c.7-2.6.6-4 .2-6a3.7 3.7 0 0 0-.2 6m126.4-2.1c-.6-2.5-.1-3-1.1-4-1.2 2.8-3 3.2-5.1 4.1 2.4 1 4.3-.2 6.2-.1m-78.2 3.9c1.4-.8 1.5-1.7 2.7-4 .9.6.1 1.8 1.3 2.3q0-3-.2-5.1c-1.2 1.2-.8 2.3-1.9 2.6-.1-1.3-1.2-2.2-1.7-1.5zm-45.4 0c.6-2.2 0-3 .2-4.6.2-2-2-2-1.7 0 0 2.2-.3 4 1.5 4.6m30 3.5c.9-2-.5-4-.4-6.1 0-1.8-2.7-4.3-4-2.7-2 2.5-2.3 7-1.1 9.6 1.3.8 5 .8 5.6-.8Zm5.7-.7c-.1-4.7 2-6.3-2.5-9-2 3-2 5.6-1.8 8.8q2 1.8 4.3.2m6.8-1c2.5-2.3 1.4-4.6 1.6-6.7-1-.7-1-.7-1.3-.5-.5.4-1.3.4-1.2 1zm86.2-.6c-1.6-2.9-4.2-2.7-6.7-2.5s-10.8-.2-11.2 1q-.2.7.5 1.7zm-175.4 9.3c-1.3-.4-3.2-1.3-3-3 1-.8 2.4-.9 3-1.8.5-1-.4-2.8-1.6-2.8h-12.5c-.8 0-1 1.6-1.7 2-.9-1.5-1.8-2.6-3.8-2-1.8-.1-2-1.3 0-1.3q2 .3 2.4-.3c.1-.4.3-2-.3-2l-13.8-.3c-1.7 0-3.2 1-3.7 2.4.8.5 1.6 0 2 .8-4 0-3 8.7-2.2 8.9 1.3-2-.3-3.8 1-5.2 1 2-.4 3.7.8 5.2 1-1.3-.3-2.7.9-3.5.8 1-.1 3 1 3.1 12.5.2 17.5.7 31.5-.3m-1.8-8.9c.2-2.2-1-2.4-2.3-2.4h-8.5c-1 .1-2 1.6-1.4 2.3 4 .4 8 .1 12.2.1m15.3 9c5 .8 5.1-.6 9.5.4.6-2 1.9-7.4.2-8.2-1.3-.6-4.7 1-6.2-.6 2-2 7.4 1.8 7.3-1.8 0-.4-.3-1.4-1.2-1.4h-16.8c0 1 .3 2.7 1 3 1.8.6 3.6.2 5.6.3.6 0 1-.8 1.3-.6 2.8 2.6-4.8 1.3-6.2 1.8a7 7 0 0 0 1.6 4.8c2 0 4.3-2.7 5.3-.8.5.9-1.4 2.4-1.4 3.1Zm120.5-10.2c0-.3 0-1.3-.5-1.3h-17.7q-1.7.1-1.7 1.3c-.2 2.7 7.7 1.7 11 1.4 2.6-.1 8.4.7 8.9-1.4m20 1c4.9-2.7-14.7-3.7-12.2 0zM385.5 578c-5.9 5.8-11.5 11.4-17.2 17.7H446c4.4 0 8.3.4 12.6.1l.1-61.9v-29.7c-1.1-.4-6.6 6-7.9 7.3L426 536.7c-1.4 1.4-2.4 2.4-4.6 2.4l-17.4.1.1 14.2c0 2 .4 4.5-.4 6.3zm-162.7 17.7 50.7-.3-24.3-25.4-25.3-25.8-38.5-39-.1 58.4v32.7q4.4-.6 9-.6zM344.1 508c0-1.3-.8-1.5-1.3-1.2-.8.3-.4 3.3-.3 5.1 1.6-.6 1.7-1.7 1.6-4m-43.7 7.4c1-3 1-5 .5-7-.8-.5-1.7.1-2 .5-1.2 1.8.3 4.2 1.6 6.5m76-2.6c2.2-.6 3.2.2 4.4.2a5 5 0 0 0 2.1-5l-4.6.1c-2.1 0-4 .4-6.3.3l-7.5-.2v7.8h13c0-1.2-1.4-1.8-1.2-3.2m45.5 2c.5.6 1.1 1.2 1.5 1 .7-.5.2-1.3.9-2.3.8.8 0 2 1.2 2.7.5-3.3.7-5.6.2-8.7l-17 .2c-1 0-1.3 1.7-2 2.3l-1.7-2.3-13.3.3c-1 0-1.7 2.5-1.2 3.2 1 1 2.4.8 3.1 2.2l-2.8 2.4c5-.6 13.7.4 19 0 4.2-.5 10.3 1 12-1m-84-5.4c-.4-1.7-3.3.7-2.4 5.9.1 1 1.4 1.1 1.7.3.5-2.1 1.2-4 .7-6.2m2.5-.9q-2 2.7-.5 5.9c1.3-.3 1.5-6.4.5-5.9m-31.3 2.9c-.6-1.1-2.5-1.2-2.9-.7.3 2.3.2 4.9 1.8 6.8 1.4-1.4 2.4-3.8 1.1-6.1m18 6.6c1.5-2.1 2.9-5 1.7-7-.6-1-2.7.4-2.8 1.5-.2 2-.4 3.7 1.1 5.5m6.3-7.7c-.7 0-2-.4-2.2.5q-.9 3.4.8 6.4c1.4-1.2 3.5-7 1.4-6.9m-15 1c-1.3.2-2.3-.2-2.5.5a7 7 0 0 0 1.2 6c2-1.6 2.7-4.5 1.3-6.5m-65.5 9.3c.8-.3.6-1.5.4-2q-.4-.5-1.9-.6l-20.4-.2q-8.1.2-16.2 0c-2.3 0-4.5.7-5 3.1 2.7-.4 5 .3 7.6.3h29.7q3 0 5.8-.7Zm22.2.3c0-1.4-.7-2.9-1.7-2.9h-11q-1.6.1-1.6 1c0 .4 0 1.5.6 1.6 8 1.3 6.3 0 13.8.3Zm100.6-2.6c-2.9-.2-13.5-1.6-11.3 2.2 3-.3 16.1 1.8 15.6-1.3-.2-1.7-3.3-.8-4.3-.9m31.2 12.1c5 0 9.6-.7 14.4.2.4-2.5-.5-4.2.5-6 1 2.1 0 3.8.5 6 5-1.5 4.5.7 8.5-2.4q3.8-2.9 2.3-7.2-1.4-3.1-5.8-3.2l-39 .3c-1 0-1.1 2.4 0 2.4h17l12.7-.2c4.7 0 8.9-.3 14 .7q-.8.6-2 .5l-18.6.2c-8.6.2-14.3.9-23.5-.1-1.1 3-.7 5.6 0 8.5 6.5-.3 13 .3 19 .3Zm-175.6-.2 6.3-.2 15.8-.2c.3-2.8.8-5 .3-7.8H210c-1.9 3.2 2.7 6.7 5 8.3 5.7-.3 10.3 0 16.3-.1m47.2-.4c-.4-2.6 1-4.8-.3-7-1.2 1.7.3 3.2-1 4.4-.8-1.9 0-3.3-.3-5.3h-15.8c-.4 2.1-.6 4 .2 5.5 4.7-1.6 1 3 5.5 2.8l6.2-.3c1.9 0 3.4-.5 5.5-.1m97.8-2.8c2 .1 2.6.6 3.6.4q.4-2.7.1-5.3c-3.4-.7-6.8-.3-10.5-.2-2.3.1-4.3-.9-6.7.4.2 2.3-.5 4.9.3 7 .2 1.6 11.2 1.4 13.4 1.1.2-1.2-1-2-.3-3.4m-92.7 2.4a25 25 0 0 1-4-4.9c-.5 1.4 0 2.6-.4 5 1.3.5 2.7.9 4.4-.2m-39 6.8c6.4-.9 9 1 9.1-1.8 0-1.5-.5-2.2-2.3-2.2l-34.7.2c1 1.3 2.4 3.8 4 3.8l9.4.2c4.9 0 9.6.5 14.6-.2m42.8-.7c-.3-1-1.3-3.2-3-3.2-7.7 0-15-.4-22.6.2-1 0-.7 3.2 0 3.5 7.8-.6 5 1.3 10.2 0 3.1-1 10.9.4 15.4-.5m91.5-3c-5-.5-9.6-.3-14.5-.2-6 .2-11.3-1.5-12.6 3.2 9.5.4 18.3.2 27.7 0 .3-.8.5-2.8-.6-3M423 536c1.4-.9 3-2.3 3.3-3.9h-38c-1.2 0-1 2.2-.7 3 .3 1 30.4-1.2 35.4 1m-61.5 10.2 12.5-.1c.6-1-1-5.5.2-6 .9-.2 2.6 3.2 4 1.7 1.2-1.4 1.3-3.2 1.1-5l-5.5-.2c-2.3 0-4.4 1-6.8.8l-15.3-.3c-4-.1-.6 2.2-1.6 8.5 2 1.2 4.4 0 6.4.2q2.1.3 5 .4m39.7-.2c.5-5.6 0-7.1 2.3-9.3-2.5 0-15.7-.6-16 .4-.9 2.8 3.6 2.8 4.8 3.3l-6.7 5.3c5.1.7 10 .2 15.6.3m-145.4-.2c-2-2.5-7.5-3-6-5.3.6-1.2 4.3-.1 3.8-3-2.5-.6-5.4-.2-8.2-.2h-23.9c2 3.2 3.6 3.5 5.8 7 .8-1.7-.4-3.2.7-4.4 1 1.5-.2 3 .1 4.3.7 2.5 3 2.2 4.7 2.2l6.5-.1c2.1-.1 12.6 1.1 16.5-.5m32.6.3c1.6.5 3.7.3 5 .1.2-2 1.4-4 .1-6.6-1.2 1.5 0 3-.5 4.6-2.6-.6.3-3.5-1.4-5.8-1.8-2.5-9.7-1.1-13-1.1h-17c0 1.8.3 3.6 1.3 4.6s2.6-.5 4.2-1.4c1.3 1.5.3 3.3 0 5.5 6.6.8 13.2-.3 19.8.5.6-3-.4-5.7.6-8.4zm60.4-.1a15 15 0 0 0-.1-7.9 14 14 0 0 0 0 7.9m-28 .8c7 6.5 10.2 9.7 15.7 16a9 9 0 0 0 5-.4L320.7 541a423 423 0 0 0-20.5 21.3c.9.1 3.4 1.2 4.5.2 5.5-5.3 10.2-11 16.2-15.8Zm24.9-.9-.7-4.1a33 33 0 0 0-5.4 4q3.4.7 6 .1m-46-.8c-.4-1.5-2.3-2-3.1-2q-.8 3 1.1 3.3c.7.1 2.4.2 2-1.3m-39.5 14.7c-.5-2.4 2.7-2.2 2-3.6-2.6-5.8-12.4.8-12.5-3.6 3.4.2 6 1 9.3 0-.5-1.3-1-3.4-2.6-3.9q-3-.6-5.9-.4h-18c.6 2.7 3.2 3.6 4.8 5.6 1 1.1 5 5.5 5.6 5.3-.4-2.5 1-2.8.8-.8-1 3 1.8 4.7 4.2 4.6l10.3-.3c4 0 6.2-.2 10-.3-2.8-2.6-7.5-.2-8-2.6m49.2-11.2-42.5-.1c.8 6 8.1 4.2 13.4 4.2h16c6.1 0 11.2 1.2 13-4.2m59 4c3.1 0 5-1 5.7-4.2h-41.9c2.3 7 9.6 4.4 13.6 4.4zm32.7 0q.7-2.4 0-4.3c-5.7.2-10.7-.4-16.2.2-1.6.1-2.2 2.5-3 3.8zm-67.4 10q-6-6.9-12.6-12.9-2.4 1.5-4.4 3.7l-9.4 9.4zm50.4 0c1.6 0 1.6-1 2-1.1.6.5 1.2 1.2 2.1 1.2l8.2-.2c1.4 0 6.8-3.3 4.7-8.5-5.7-.9-11.2-.4-17.2-.3-2.2 0-4.6.2-5.3 2.7-.2.9 3.6 1.6 2.7 3.4-1 1.9-4.6 0-8 2.3l9.7.4c.3-1.8-.8-3.6.5-5.7 1.1 1.8 0 3.7.6 5.8m-12.6 6.7c4.7 0 8.4.8 12.5 0 3.5-.7 7.6 2 10-4l-116.2.1h-29c.8 1.3 2.2 3.6 3.7 3.7q6.6.8 13.3.5c13.8-.8 22.8.6 36.6 0l9.4-.5zm-97.8 2.4c-7.5-.7-12.7-.5-19.7-.2l10.2 10.3zm91.3 23.6L376 584l-9.3-9.9c-1.1-1.1-2.2-2.7-4-2.7H278l-12 12.2 11.7 12.3 72.1-.2c5 0 10.5 1 15-.4m22.9-23c1.4 0 1.4-.8.3-1l-20.4.3 10.3 10.5z"/><path d="M438.4 199c-.6-4.5 1.1-6 0-7.8 1.2-.6 2.4 1.2 2 2.2s-2 1.8-1.2 4c.3.8 0 1.7-.8 1.6ZM283.7 327c-1 .8-1.5.3-2-.3-1.4-.1-2.6-.4-3.2-1.8 2.4-.4 4 .7 5.2 2"/><g id="FIRE"><path d="M344.8 110.6c2-1.3 4.1 11.2 4.2 11.9.5 4.3.4 13-1.1 17.2-.1.3-.1 1.2.1 1.2q.6-.1 1.3-.7c12.5-11.6 15.6-25.5 13.9-42.2-1-9.1-5.1-17-8.8-25.2l-8.1-18a69 69 0 0 1-5.2 23.8c-2.4-6-4.8-11.3-8-16.8a69 69 0 0 1-9.4-47.3l1.5-8.6c-2.8 2.6-4 6-6 9.2-6 9-12 17.5-17.3 26.9-12.2 21.2-24 48.8-19.1 73.6 1.5 7.9 4.5 15 9.8 20.9 1.2 1.3 2.1 3 3.6 4 1.1 1 2.6 1.1 2.5 2.9-5-1.5-11-9.4-13.4-14.2-9.8-20.2-5.7-43.4 2.7-63.6 4.6-11.3 9.6-22 16.4-32l17.3-25.2q1.8-3 4.3-5c.7 2 0 3.5-.5 5.3-.5 1.6 0 3.3-.1 5-1 20 .7 32.1 10.9 49.6q3 5.3 4.8 10.8c4-11.7 3.5-17 4-28.2 2 1 1.6 3.1 2 4.7a134 134 0 0 0 10.5 24.2 62 62 0 0 1 7 42.8 41 41 0 0 1-18.3 27c-1.1.4-2-.7-1.5-1.6 5-8.2 4.3-20.2 1.4-28.2-2.7 5.4 0 2.2-2.4 9-.1.4-4 9.5-5.2 8a43 43 0 0 0 6.2-21.2Z"/><path d="M330 140c-.5 1-2.2 2.3-3.9 2.3 1-3.2 3.7-5.4 4.1-8.9 2.4-18.1-11.3-22.3-16-41.5-.7-3.2-.6-6.1-1-9.3-.4-2.3-1-5 2-5.9-3.3 24.6 14.2 33.4 16 46.6l.7 5.4-.8 5.7c-.4 3.4-3.9 3.6-1 5.6ZM297 115.5c-.6 6.3-2.3 8.5-1.2 15.3.3 2.2 1.5 4.3 0 6.2l-.9-5.3c-.5-3.3-.6-22.7 4-22.5a32 32 0 0 0 10.4 25c-4.7 1-11-14.5-11.7-18.4.9-1 0-1.2-.6-.3ZM306.4 100.2l-1.4 6.1c-1 4.5.7 9-.6 13.7a65 65 0 0 1 6.5-37.4c.5-.3 1.3 1 .9 1.7-3 4.7-4 10.3-5.4 16ZM359 110.7q-1.2-6.1-.1-13 1 6.1 0 13M342.7 96.2q-1 2.8-1.4.1c1.5-2.6 1.8-5 2.2-8 1 2.4 1 5.3-.9 7.9M292.3 74.7q-.3 1.7-1.2.2l2.4-7c1.1 2.5-.4 4.3-1.2 6.8ZM337.7 132.7c2.2 0-3.5 6-4 4zM290.3 81l-1 4.2c-1.5.4.4-7.7.9-6.8.6.7.3 1.5.1 2.6"/></g><path d="M310.3 265.6a9 9 0 0 1 .8-11 10 10 0 0 1 12-2.9c4.3 2.2 6.2 7 4.7 11.8a9 9 0 0 1-7.4 6.7c-3.9.7-7.8-1-10.1-4.6m12.8 1.6q3.4-3.6 1.9-8c-1 2-1 4.1-1.9 6.3-1 .6-1.7 1.4 0 1.7M204 266.6c-6.6 2-13.2-1.5-15.2-7.6s1.7-15.4 10.3-16c4.6-.4 8.4 2 11 5.7 3.7 5.6 1.2 15.7-6 18m-.6-15.9c.9-1.2 1.8-1.7 2.5-3.3a9 9 0 0 0-9.6-1.2 9 9 0 0 0-4.9 7.3c0 1-1.1 2 .3 2.5.1-1.3.5-3 1.5-2.5.8.5 1 1.4 1.7 1.5s1-1 1.6-1.3c6.1-3 5-6.5 7-3m0 11.9c1-2 2.6-2 3.9-3.1 3-2.8 2.5-8.2-.2-10.9-4 6.3-9.2 9-11.9 14.4 2.3 1.4 6.8 1.7 8.1-.4M271.2 252.2c4.3 3 5.5 9.1 1.7 14.3a9.3 9.3 0 0 1-14 .6c-3.5-3.8-3.2-9.2-.3-12.9s8.3-4.8 12.6-2m-5.1 15.6c5-.4 6.4-5.3 6.2-7.5-1.2 1.6-2.8 2-4.3 3-1 1-1.5 3.3-2 4.4M298.1 221c-.6 6.1-6.4 9.6-11.3 8.7q-3.8-.7-6.5-4.6a10 10 0 0 1-.3-10.4c2.3-4 7-5.5 11.3-4.2s7.3 5.6 6.8 10.6m-9.4 5.5q2.6.3 4.2-.4c3.6-1.8 3.7-6.7 1.6-9.9-.7-1-1.9 0-2.5.4s-.9.8-.5 1.4q.2.4 1.2.3c6.6.6-4.7 2.7-4 8.2ZM356.8 227.8c-3.1 2.5-7.5 2.9-10.7.6s-4.8-5.1-4.6-8.6c.3-6 5.7-10 11-9.6 4 .4 6.8 3.6 7.8 7a10 10 0 0 1-3.6 10.6Zm.2-3.2c3-4.3 0-9-.7-9.1-2.7-.8.7 4-2.7 7.5l-3.5 3.5c-.5.5 0 .9.2 1-.7-1 4.3.5 6.7-3M380.1 262.5c-.4 5.5-5.2 9.2-10.3 7.6-4.1-1.3-6.6-5-6.9-8.8a10 10 0 0 1 6.4-10c4.8-1.9 9.5 1.4 10.5 6.3.4 1.6.5 2.8.3 4.9m-6 5.2c5.5-.8 3.8-8 2.6-10.2-.8 2.3-.1 3.9-.5 6.1-.9-.3-1-1-1.7-2-3.2 1 1.3 2-.4 6.1M378.6 170.3c4.5 3 4.4 15.5-.6 18.3a6 6 0 0 1-5.8.2c-4-1.8-5.9-5.8-5.4-10.3.3-3 1.9-5.9 4.2-7.7 2.2-1.6 5.2-1 7.6-.5m-3.8 16.7c2.6-.3 3.7-1.2 4.6-2.8 1.7-3.2 1.4-10.6-2.3-9.6.6.8 1.3 1.1 1.6 2.2-.2-.7-2.2 8.7-3.4 9.1-1.3.2-2.1 1.1-.5 1.1M381.2 253.4c-1.5-5.7 0-11.6-.7-17.9-.7-5.6 1-9.2-.6-10.3-1.4 3.1.7 6.6-1.4 11.4-1.4-3-1.2-6.2-1.2-9.6v-35.8c1.2 2 1.4 4.4 1.4 7l.4 22c1.9-2.2.5-4.5.6-6.8.2-5.4-.3-10.4.3-15.3l1 3.9c.2.4.8.6 1 .8 0 .4-.5.8-.5 1.4zM326 186.3c-4.4 4.6-10.3 4-14.2-.1-3.7-4-4.2-9.2-.5-13.3q3.1-3.8 7.7-4c4.6-.1 5.6 1.6 7.7 4 3.2 3.8 2.8 9.6-.8 13.4m-11-1.3c2.7 3 6.7 2.7 9.2 0 2.2-2.3 3-6.3 1.4-9.2s-4.6-4.2-7.5-4a7 7 0 0 0-6.2 4.3l1.3 1.2q-2.3 1.3-1.3 3.6c1 2.3 1.9 2.7 3.2 4.1ZM329.3 284.9l52.2.1c-4.8 1.8-10-.1-15.2.9-2 .4-3.6 1-5.5.3-1.3-.6-2.6.3-4 .3h-65.4c-2.9-1.3-5.6-.2-8.6-1.4 5-1 16 .2 21.3 0q7.2-.7 14.4 0c8 .7 4.1-.2 10.8-.2M258.4 241.7a27 27 0 0 1-.7 7.5l-.7-21.4c-1.2 3.5.4 7.3-.5 11.1l-.9 3.4c-.9 4 .6 7.9-.4 12-1.5-.6.4-17.8.4-15.4l.3-48.5 1 24.8.7-19.6c.4.4 1.3 1.7 1.2 2-.8 2.3 0 5.6 0 8.2l.1 25.4c0 4.2-.7 6.8-.5 10.5ZM271.9 230.8v-12.7c0-3.3.6-6.4.6-9.8l.2-31.4c0-1.6.6-2.7 0-4.5-.2-.4.9-1.5 1.6-1.4v44.8l-.1 9.4c0 1.8-1.3 3.3-1.5 5.2-.5 6.6.6 13-.5 19.6-.9-6-.4-12.2-.3-19.2ZM254.7 232c0-6-.6 10.8-.7 6-.6 3.3 1 6.4-.8 9.5l-.1-56.2c.7 0 1.6 1.6 1.6 2zM200.1 272.6c.3 0-12.8 4.5-10.9 2.4l7.8-3 24.6-9.1c1-.4 2.6.5 2.4 1.5-7.9 3.1-15.9 5.5-24 8.2M276.9 180.2c.7 3.7.5 13.3.3 17.2l-.1 4.1c-.5 9.7.8 19-.9 28.1v-69.8c1.7 5.2.1 10.2.7 15.4 1 1.6-.3 3.4 0 5ZM269.6 241.8l.2-5.3.1-5.3.7-56.9.3 68.7c0 1.4-1.2 2.9-1 4.5-1.8-1.6-.4-3.7-.3-5.7ZM394 292.4l41.9.6-55.1.3c-1.7 0-3.4-1.4-5.4-1 1.9-1.6 4-.3 6.2-.3 2.4-.1 9.6-1.2 12.5.4M344.7 155.3l-39.7.4c-1.2 0-2.3-.9-3.5-1-6.6-.2-12.9.7-19.6-.4 5.5-.5 19.8-1 25.6.4zM435 301.4q-17 1-35 0 17.1-1 35 0M329.6 290.3q-16.2 1.1-33.2 0 16.2-1 33.2 0"/><path d="M379.6 168.8c-2.6 6.3-2.9-16.7-.7-14 1.4 1.2.3 14.9.7 14M279.7 190.5c-.5-2.4.2 18.5-.8 17.9l-.3-28.2c3.2 4.6-.3 3.6 1 10.3M275.7 254c-.8-6.9-2.2-14-1-20.2l1.1 8.5q.7 6-.1 11.8M398.5 301.4q-10.7 1-22.2 0 10.6-1 22.2 0M262 216q-1-9.9 0-20.5 1 10 0 20.5M261 156.4c.7 2.3 2 13.2 1 13.6-2.1 1-1.3-13-1-13.6M279 276.4q-1-9.5 0-19.7 1 9.5 0 19.7M379.4 284c-1.2-1.4 0-3.2-.6-5-.8-2-1.9-7.4 1-7.8-.3 4.2.4 7.7-.4 12.7M298.2 301.4q-9 1-18.8 0 9-1 18.8 0M372.1 232.7c-.8.6-1-.6-1.1-1.3l-.5-4.4c-.2-2.3-.4-4.5.3-6.8 1.1 5.3 1.5 5.5 1.3 12.5M313.5 298q-8.6 1-18 0 8.6-1 18 0M200.3 297.5c-1.5-.5 13.6-5.2 13-3.8-4.2 1.7-8.1 3.4-13 3.8M370.8 211q-1-8.3 0-17.2 1 8.3 0 17.1M358 263.7q-1-8.3 0-17.2 1.2 8.3 0 17.1M250.8 153.9c.5 1.2 2.5 13.6-.3 12 .2-4.4-.4-8.2.3-12M382.7 283.2q-1-7.8 0-16.3 1 7.8 0 16.3"/><path d="M381 284q-1-7.4 0-15.4 1 7.4 0 15.5M359 182.9q-1.2-6.5-.1-13.8 1 6.6 0 13.8M274 165.8c.7 1.3.2 2.5.3 4.2-1 .1-1.5.2-2.5 0 .2-2.6-.5-5 .3-7.7 1.2 1.9.1 3.8.6 6 1 .1.5-.8 1.3-2.5M376 168.5q-1.2-6.1-.1-13 1 6.1 0 13M355.5 199.9q-1-5.7 0-12 1 5.6 0 12M376.8 283.2q-1.1-5.7 0-12 1 5.6 0 12M361.5 250.9q-1.1-5.7 0-12 1 5.6 0 12M323.7 157.7q-5.7 1.1-12 0 5.6-1 12 0M261.2 236.5q-1.1-5.3 0-11.3 1 5.3 0 11.3M231 287.7q-2.6 1.5-5.8 2.3c-.4-.8.6-1 .7-1.3s-1-.8-.8-1.1c2-.3 3.8-.6 6 .1M261.2 216.8c2.5-1.3.5 6.7-.1 7-.5-1.8-.7-6.6 0-7M343.3 291.2q-4.4 1-9.6 0 4.4-1 9.6 0M221.5 291c-2.7 1-4.6 2.5-7.7 2.1 2.5-1.3 4.7-2.9 7.7-2"/><path d="M375 283.2q-1-4.4 0-9.5 1.1 4.4 0 9.5M277.8 289.5q-4.4 1-9.5 0 4.4-1 9.5 0M212.2 270.7c-2 1-3.9 2.6-6.8 2 2-.9 3.4-2.6 6.8-2M278.7 300.5q-4 1.1-8.7 0 4-1 8.7 0M368 298q-3.6 1-8 0 3.6-1 8 0M276.1 293.7q-3.6 1.1-7.8 0 3.6-1 7.8 0M370.8 282.4q-1-3.6 0-7.9 1 3.7 0 7.9M276.8 610.5c-2.6 0-3.8-.6-5.2-.4-.1 0-12.4 0-13.4-.5-7.8-.5-15.2.7-23-.6l51-.3c3.1 0 7.2 1 9.5.7l119.7.6zM172 367.3c.4-5-.7 14.6.6 10.2-1.6 14.5 1.7 28.6-1.6 43.2l-.2-110.4.8 52.7c0 1.6.5 2.8.3 4.3M175 411.3l-.6 35-.4-60.3q0-2.4.8-4.4l.6-38.2.3 61c0 1.2-1.4 2.1-.5 3.4q1 1.5-.2 3.5ZM387.2 606c2.8-.3 6.4-2.5 8.4.9H285.8c1.4-3.7 4.3-.8 6.6-.8h90.5c1.4 0 2.6-1.6 4.3-.1M472.8 567.7l-.5-99.2c0-1 1.1-1.4 1.6-1.8.5 2.3.2 4-.6 6.2zM470 524.4c1.5 3.3-.9 10.8.3 14.1 1 3.1.3 6.7-.4 9.8-.7 4 1 8-.8 12l.2-75.8zM276 605.7h-62zM470.3 420a412 412 0 0 1 0-41.7 412 412 0 0 1 0 41.7M473.7 419.2a301 301 0 0 1 0-35.8 301 301 0 0 1 0 35.8M172.4 522c-3.3 1.7-1.3-6.2-1.1-7 .9-5.3-.7-10.5.7-16zM430 605.7q-14.2 1-29 0 14-1 29 0M469 606.5c-1 0-1.3-1.1 0-1.3q3-4.4 4.6-10.2c1.2-1.5 2 .1.6 1.2.1 4-1.4 7.8-5.1 10.3M174.5 570.5q-1.1-11.5 0-24 1 11.7 0 24"/><path d="M172.1 535.7c-.4 3.5-2.9-17.7-.2-13.5.8 4.8.5 8.7.2 13.5M473.7 459.1q-1.1-9 0-18.8 1 9 0 18.8M182.8 607.7c1.5.9.3 2.6-1.2 1.5-3.9-3.5-2.5 3-8.6-6.2 2.4-.8 1.6 4.3 9.7 4.7M172 585q-1.2-8.7-.1-18 1 8.5 0 18M473.7 437q-1.1-8.1 0-17.1 1 8.2 0 17.2M285.2 606.9q-3.3.5-6.7-.9-1.4.6-1.6-.7h6.8q1-.1 1.4 1.6ZM468.5 602c-2.4 1 3-7.8 2.8-7.9.8 3.3-1.2 5.7-2.8 7.9M174.5 545.9q-1.1-5.8 0-12.1 1 5.6 0 12M211.5 604.8q-5.2 1.1-11.2 0 5.3-1 11.2 0M457 608q-1.3-.5-.2-1.2c1.7-.8 1.7-3.1 2.7-4 1.8-1.3 2.5-.4 1.3.9-1.4 1.5-1.9 3.3-3.7 4.3M171 430.1c-.8-1.8-.4-3.8.4-6 .2-.8-.3-1.7.6-2.5 1 1 .2 4.8-1 8.5ZM172 565.4q-1.2-4.4-.1-9.5 1 4.4 0 9.5M234.5 610q-4.4 1-9.5 0 4.4-1.1 9.5 0M108 243.3q-1.5.8-2 .4c-1-.7-.8-1.6-.2-2.5 1.7-2.6 2.4-5.7 4.9-8.3.7-1-.5-.6-1.2 0l-7.3 3.6c-1 .5-2.2.9-3-.3 2-2 14.8-9.4 15.7-9 3.4 1.4-4.2 8-4.6 11.6l9.6-4.6q.8-.3 1.2.5.5.6-.7 1.6zM103.1 101.5c-1.9.3-12.1-9-12.8-9.8-.4-.5-.3-1.5.5-1.6 5.2-.8 7.6 2.3 11.5 1.3-1.2-1.3-7.8-6.1-7.2-7.5.2-.5 1.2-.7 1.9-.1l7.5 6.1c1.7 1.4 3.6 2.4 5 4.8-2.9 2.3-9.2-1.3-12.7-.8.7 1.5 9 6.9 6.3 7.6M84.7 115.5c1 2.4 5.4 3.8 4.7 5.3-.3.6-1.2 1.2-1.9.6L76 111.9q-1-.8-1-1.8c0 .1 1.4-4 4.4-4.6q2.8-.6 4.5 1.8c.9 1.5.7 3.1 1.2 4.9 2.3.3 8.9-.2 9 2.2.3 2.2-5.9-.3-9.3 1.1m-3-2.1c1.3-2.1.5-3.4 0-5.1-1.5-.6-3-.4-4.4 1.4 1.4 1.4 2.5 2.6 4.5 3.7M97 110.1c-5.6 2.2-12.5-5-13.4-9.8-.5-2.6 1.5-5.1 4.3-4.7 5.2.8 9.8 4.6 11.3 9.7.7 2.2-.4 4.1-2.2 4.8Zm0-3.3c-1.5-4.9-4.9-7.5-9-8.6-.6.1-2 .7-2 1.4q.8 4 4 6.5c2 1.4 4.6 2.9 7 .7M92.9 221.9c4.4.3 9.4-2.5 9.7-4.7.2-1 .1-2.7-1-3.1-1.7-.5-3.6-.3-4.5.8.5.9 1.2 1.2 1.1 1.6-.1.8-1.2 1.7-2 1a10 10 0 0 1-2.5-4.5c4.5-1.7 7.9-3.4 11 .5 1.6 1.9 1.3 5-.7 7-3 3-7.1 4.4-11.5 3.8a5 5 0 0 1-4.5-4.9q0-1.2.7-1.6c2-1.5 1.3 3.9 4.2 4ZM69.8 175.3c2.4 1.3 8.9-.6 7.2 2.6-.5 1-16.8 0-20-.5-4.1-.7 6-5.7 5.3-5.3 3-1.8 6-4.2 9.9-4.8 3.6-.5-3.3 4.4-3 4.2-1 1-.6 3.2.6 3.8Zm-7.6.5 3.8-.3c.8 0 0-2.4-.8-2l-3.2 1.7c-1.4 0-1 1.2.2.6M97.9 207.8c-1.9 1-15.2 8.7-15.5 6q0-.5.8-1.1l5.3-2.9c-.6-1.2-1.4-3.5-3-3.8-2.4-.4-5.5 3.7-7.4 1.7-1.8-1.7 14.8-8.6 15.2-8.3 2.8 1.7-3.6 3.8-5.1 4.9.6 1.2 1.5 3 2.9 3.7 1.6.6 6.1-3.9 7.3-1.9.2.3.2 1.3-.5 1.7ZM76.5 125.4c.9 1.6 5.2 3.7 4.9 5-.2.5-1 1.3-1.7.8-4.2-3.2-8.1-6-11.9-9.6-.5-.5.8-1.5 1.3-1.2 2.8 1.7 3.3 3 4.6 2.6s3.1-2.8 2.4-3.5l-5-4.7c1-.8 2.2-.4 3.2.3 2.3 1.8 11.3 8 11.5 9.5.4 3.7-5.4-2.1-6.5-2.6s-3.3 2.3-2.8 3.4ZM135 57.1c-1 0-1.2-1-1-1.4.2-1 5.2-2 4-4.5-2.4-5.1-9.7 3.6-13.6-3.3-1.5-2.6.2-6 3-6.7q1.2-.2 1.6.1c.5.1 1.2 1.4.5 1.6-1.4.6-3.2 1.2-2.8 3.1.4 2.1 3 2.4 4.7 1.5 3.5-1.9 8.3-.4 9.4 3.7.8 3.4-2.6 6.2-5.8 6M129 63.3c1.8.5 2.5-3.5 3.9-3.8.7-.1 1.7.7 1.3 1.7-.7 2-3.4 7.4-6 5.2l-12-10c1.8-3 3.1-7.6 5.3-6.2q.8.3 0 1.7l-2.2 3.6q1.2 1.6 3.2 2.7c2 1 2.3-3.3 3.6-2.7 2 .8-.7 3.5-1 4.7 1 1 2 2.5 4 3ZM117.6 78.3q.1-1.4.8-1.7c.4-.1 1.2 0 1.5.6.7 1.6.2 3.4-.5 4.5-1 1.6-2.6 2.9-4.8 2.5-7.3-1-14-10.5-9.4-14.6q1.1-.8 2-.7c.9.1 1.6 1 1.3 1.4-.8 1-1.9 1.1-2.2 1.8-1.4 2.7 4 8.4 7.4 9.2 2.2.4 4-.8 4-3ZM82.2 185c-.3 1.2-15.9 7.5-17.2 5.7a22 22 0 0 1-4-6.8c2.8-2 3.5 3.5 5.4 4.2 1.4.5 3-.4 4.1-1.2-.1-1.4-3-4-1.5-4.8s3 3.7 4.7 4.3c1.5-.3 9.1-4.8 8.5-1.4ZM75.2 136.8l1.4-4.8c2 1.4 2 3.9 1 5.8-1 1.7-3 3-5.6 2.4-4.7-1.2-9-5.2-10.2-10-.7-3 1-5.5 3.6-5.7q.9 0 1.2.4c1.3 1.8-3.4 1.2-2.5 4.6.9 3.7 6.6 10 11 7.3ZM75.4 203.7c-3-2.7-5-5.6-7-9.1 2.7-2.5 3.3 4.1 6.7 2.2s7.3-3.6 11.1-5.1c.7-.3 1.4.2 1.6.5 1.5 1.6-10.6 5.6-12.7 7.4.1 1 1 1.5 1.5 2.6.4.7-.3 1.6-1.2 1.5M128.4 69.4c-1.7 2.5-4.3 8.2-6.9 6l-11.4-9.7q-.7-.7-.6-1.3.5-1 1.9-.3l10.7 8.3c1.4.9 3.3-5.6 6.3-3M70 154.7c.1 2.7-24.3-.4-17.7-2.4l13 1c4.3.4-.3-4.7 3.5-5.5 1.4 2 1 4.6 1.2 6.8ZM52.3 165.4C58 163.2 63 164 68.5 163l-.7-4c-.2-.9.7-1.4 1.3-1.4 1.3 0 3 5.8 1.8 7-1.7 1.9-5 .7-7.4 1.3-3.9-.1-7.4 1.7-11.2-.6ZM95.2 231c1-2 3-2.8 5.1-4l8.1-4.4q1.2-.6 2-.3c.7.4.8 1.4-.2 2.1-1 .6-13.4 8.3-15 6.7M113 89c-.7 2.2-2.5 1.3-3.5.4l-8.8-7.6c-1.1-1-2.3-1.7-1.3-3.4 2 .8 3.4 2 5 3.3zM158 296.7c-3.1 2-14.3.4-15.8 1.5-.5.4-1.5-.4-2.3-.5l-92.5-.6zM149.4 294.2a21 21 0 0 1-11 .2c-1.2-.2-3 1.3-4.5-.1l-69.6-.6 92.8-.4c-2 2.2-5.2 0-7.7.9M145.2 5.6a234 234 0 0 1-31.6 0 234 234 0 0 1 31.6 0M16.5 286.4c-.8.8-4.1-13-2.8-13.5 1 1 .2 2.4 1.2 3.7zM135.9 9q-6.6 1-13.8 0 6.5-1 13.8 0M22.7 287.3c.3-.9 5.4 6.5 3 5.2-1.6-1.7-3-3-3-5.2M20.3 287.4c.8-1.3 3.6 6.7 2 5q-2.5-2.1-2-5M320.2 468.6c-.4-2.3-2.7-.7-1.2.9.1 3.8.7 11.8-4.7 11-4.8-.7-6.3-5.3-5.4-9.5.6-3 .9-5.7 2.4-8.2 3.4-5.8 2-12 5.2-13.5 1-.5 2.4.4 3.4 0 6-2 4.7 6.4 7.6 11.9 2.4 4.6 5.3 13.3 1 17.3-1.3 1.3-2.5 2.3-4.4 1.8-4.1-1-3.6-6-3.9-11.8Zm8.1-2c-1.2 2.7.3 5.4-.7 8.3-.2.6-1 1-.6 1.6 2.7 3.6 2.1-8.4 1.3-9.8M298 470.2c-1.6 0-2.6-.6-4-.8-.6-.1-.7.9-.9 1.5-1.9-1.3-3.8-1.9-6.3-2.9l7.4-1.2c3-.5 5.8 2.9 5.8 5.7-1.2.2-1.5-1-2.1 0-.4.6-.7-.7-.8-1 0-.4.3-.2.8-1.3M342.8 470.6q-1-1.4-1.8.3c-.6-.1-.7-1.3 0-2 1.9-2.6 5.2-3.5 8-2.4zM307 476.9a17 17 0 0 1 0-7.7 12 12 0 0 1 0 7.7M354 584.3c2.1-3.9-2.4-6.1 2.2-8.6 1.1-.6 2.6-1 3.5-.6 4 1.5 2.4 4.9 2.3 7.5 0 2 2.6 4.3 1 6.4s-4 3.3-6.3 2.4a5 5 0 0 1-2.6-7.1m3-6.3c-1.2 1.2-.5 2.5.2 2.9q1.5.7 2.3 0c.9-.7 1.3-2.5.3-3-.7-.5-2-.8-2.8.1m0 6.6c-1.5 1.1-1.2 3.2-.2 4 .8.9 2.2 1 3.3.1s1-2.5.2-3.7a2.4 2.4 0 0 0-3.4-.4M339.4 578.3c2.4 8.3-7.3 16-6.6 11.7 1.3-1.8 3-2.7 3.4-4.9-3 .5-5.5-1-6.3-3.4a5 5 0 0 1 2.9-6.2c2.5-1 5.7-.2 6.6 2.8m-2.2 2.9q.4-2.1-.3-2.9a2.7 2.7 0 0 0-4.1 0c-1 1.2-1 3 .4 4.1.9.7 3.3 1 4-1.3M299.1 585.4c1.1 2.5-.8 4.8-2.2 5.5-2.2 1-5.4.5-6.4-1.8-.4-1 .2-2 1-1.4.9 1.3 2.4 1.7 3.4 1.4.8-.3 2.4-1 2-2.5-.6-3.1-9.4-3.8-6.2-9.2 1.3-2.3 4.6-2.7 6.7-1.3q1 .7.6 1.5c-.5 1.2-3.2-.9-4.6.4-3 2.8 4.2 3.9 5.7 7.4ZM343.5 591c-5-.6 3.3-8.4 4-9.3 1-1 1.3-2.5.4-3.6-1.7-2-3.9 1.5-5.1.8-.6-.3-.6-1.2.1-1.9 2-2 4.5-2.3 6.5-.6 4.4 3.9-2 8.4-4.2 11.8 1.6 1.5 6.6-.7 5.6 2.5a25 25 0 0 1-7.3.3M282.2 584.5c-1.3.1-1.3 3.7-.3 4.1 2 .8 4-.5 5.8 1.4-2.8 1.7-5.5 1.5-8.5.8-.3-2.5-1.1-14.9 1.2-15s4.8-1 7.3.4c-2.2 2-4.4 1-6.4 1.6 0 1.5-.6 3.2.3 4 1 1 3.3 0 4.5.7 0 1.8-1.7 1.6-4 2ZM306.7 589c.3 2.2-1.8 2.6-1.8.6.3-2.2-.3-11.4-.2-11-.4-1-3.4-.5-4-1.1q-.5-.8 0-1.5.4-.5 1.7-.5h6.7q1.6-.1 1.6 1.3c0 1.1-2.4.8-3.3 1.3-.5.3-1 7.6-.7 10.9M325 590l-.5-10.4c-1-.1-1.5.8-2.4.8-1.4-2.2 3.2-4.7 3.7-4.8.8-.2 1.1.7 1.1 1.6l.1 12q-.1 1-.7 1.5-.3.3-1.4-.7M407 237a19 19 0 0 1-13.7-13.4 18 18 0 0 1 10.1-18.8c6.4-2.7 13.1-1.2 18 3.7A17 17 0 0 1 407 237m3-20.7 6.2-6.1c3 .8-5.8 7-6 8.4-.5.9-.9 2 0 1.2l3.7-3.7q2.4-2.5 5.4-5.2a13 13 0 0 0-15-3.6 13 13 0 0 0-5.8 5.4c-3.5 5-3.2 12.6 2 16.8 1 .7 2.8-1.1 2-2.4-.6 0-1.2.7-1.8.7-.5 0-3.2-4.4-1.4-6-.2-1 .1-2 1-1q-.9 3.2 1.4 4.7c-.3-1.2 7.3-8.1 8.3-9.1Zm1.5 14.9c1.3-.4 1.8.6.8 1-3.7-.8-6 1-8.2-1.6-.5-.6-1.2-.2-1.4.2-1 2 12 6.8 18.1-3.6 3-5 3-10.5-.7-15.2-1.4 2.2-3.3 3.9-5.3 5.9l-8.8 9.2c1 .6 2.3 0 2.5 1.1-1.2.5-2 .8-1 1.6q2-1.4 4-.2c1.7-.3 1.6 1.2-.1.8-1.3-.3-1.3 1 0 .8ZM393.8 202.4q-1.1-9.9 0-20.5 1 10 0 20.5M409.6 245.3c-3.4 1-7 2-11.2.9 1.7-1.2 3.7 0 5.9-.6 1.7-.5 3.3-1.4 5.2-.3M431.2 223.7q-1.1-4.4 0-9.5 1 4.4 0 9.5M259.8 591.5h-43.3c-1.7 0-4.2.1-5.4-1.1l-11-11.2-10.6-10.8v-48c0-.6.9-2.4 1.6-1.8 8.5 7.4 15.7 15.4 23.4 23.3l8.4 8.7 36.8 38q1.3 1 .1 3m-60-38.3q2.3-8.2 5.2-15.1c1.2 2-.7 3.2-.9 4.7-.7 6.5-6 19.5-7.3 27.8 2.9-1.3 3.9-4 5.1-6.4l8.2-16.4c.6-1.3 2.5-3 2-4.4-1-3-4-4.6-5.8-6.8a91 91 0 0 0-9.5-9.5c-1.6-1.4-2.5-3.5-4.5-4.6 0-1-1.3-1.8-1-.8l.4 9.6.4 35.8c1.3-5.6.7-11.2 1.5-17.1l1.6-11s1.1-13.6 2-10.7c.2 9.2-.8 11-1.6 20.1l-1.8 20.3c.4 1 .7 1 1 .9.5-.2.4-1.2.6-1.6l3.1-9.8zm2.5 23.8c4.1-3 6.8-6.5 11.7-8.4-5 6.2-2.8 6.2-9 10.5-.7 1 0 2.2.4.8q4.7-3.2 9.7-5c2.4-1 4.3-2.4 6.6-3.5l12-6.3c-2-2.9-4.5-4.9-7-7.3-1.8-1.6-3-4-5-5-1.9-1-4.6-6.3-8.3-8.6L199.3 573c-.3.6.1 1.6.3 2 .2.2.2.1 1 .2l6-7.9 7.5-8.6q1.6-2 3.7-4.3c.9-1.3 1.7-.2.8.9-4.2 5-12.2 14.5-15.2 19.1-.6 1-2 1.5-1 2.7m8.6 4.5 19.3-4.9 12-2.6c-2-2.7-3.9-4.5-5.6-6.6-1.3-1.6-2.4-1-3.8-.2-6.3 3.8-11 5.1-17.2 9.2-3 2-6.5 2.6-9.8 5.2 1.5 1.8 3.3.4 5.1 0Zm18.4 3.5c2.1-.1 4-.7 6-.8 5.7-.5 10.1-.8 16-1.5q-4-4.1-8-7.6l-22.5 5.6q-6 1.4-11.8 2.9c-.7.8 1 2.7 2.4 2.6zm-17.6 2.4q.3 1.8 1.4 1.8h44q-2.2-2.9-4.9-5.4c-14 1.8-27 3-40.5 3.6M205 591c-4.5.9-8.8.2-13.3.2q-2.3 0-2.3-2v-12.8q0-1 .7-1.4t1.7.6l8.4 8.6c1.5 2.1 3.4 3 4.8 6.7m-4-2.2c-4-4.6-4.9-6-9-10.2-1.4 3.1-.3 5.5 0 8 0 .6-1 1.3-.6 1.7 1.3 1.6 6.6.8 9.7.5M384 590.7c-.5 0-2.1-1-1.7-1.6 3.4-4.6 7.5-8.2 11.5-12.2l14-14.2v-16.8c.1-5.7 12.4-1 19.7-3.4q8-8.9 16.7-17.3c3-2.9 6.8-8.1 9-7.3.4.2 1 .6 1 1.5l-.1 45c0 2.7-.4 5 0 7.7.6 5.3-.1 10.4.2 15.6 0 1.4-.7 2.7-2.3 2.7l-45.9.2zm62.5-56c1.2 2.5-.9 8 1.7 8q.7 0 1.2-1 .4-1.6 1-.4c2.2 9.8 1.3-21 1-19.8-3.6 2.9-6.2 6.2-9.3 9.4-1.2 1.1-2.3 1.8-2 3.9.8 4-.5 7.2 1.3 7.8 2.6.9.1-9.4 1.7-10.5 1.2 2.7-.3 9.7 1 10.5 3.2 1.7.9-7.2 2.4-8m-11.4 7.8c1.4.3 2.6 0 4 .4.9-3.1.5-6-.1-8.9-1.8 1.6-4.8 4.2-4.7 5.4 0 .9-.1 3 .8 3.1m16.6 29.2v-7.2l-.2-19.2-24.2-.2c-5.8 0-11.1-.5-17 .2V567l.3 21.1h41zm-63.7 17q8.9-.5 18.2-.4 1.7.2 1.4-1.5c-5.9-.3-11.4.7-17-.7 6-1.3 11.3-.1 16.9-.6 0-3.7.4-4.7.3-8.2-1.5-.3-2.5.4-3.4-.5 1.3-1 2.1-.2 3.4-.6v-9.8c-1.5.6-2.1 1.5-2.9 2.5l1.2 1.6c-2.4-.3-4.8 1.3-4.4 1.9l1 1.3c-3.6-1-5.6 4-9.7 7.3-2.5 2-4.6 5.6-7.4 6.5.4 1.3 1.4 1.3 2.4 1.2ZM136.7 152.6q-12.9 1.1-26.5 0 12.9-1 26.5 0M180 248c.1.5-2.5 3.9-3.3 2.6q.4-2.4 2-3.8 1 .8 1.2 1.2M227.5 507c-3.3.5-5.7 1.8-7.6 0q3.5-.9 7.6 0M416 447.3c-.5 1-3 .2-3.2-.8-.1-1 1.6-1.2 2.2-1 .5 0 1.6.6 1 1.8M319.4 341.8c.5 1.4-.6 2.3-1.1 2.8-.8.7-2.6 1.3-3.7.3-1.5-1.4-.7-3.1.6-4.4.9-.8 3.5-.7 4.2 1.3M326.8 343.8c-.6 1.9-2.4 1.7-3.5 1.1s-2.3-2.1-1.2-3.7a2.3 2.3 0 0 1 3.2-.8c.8.5 2.1 1.6 1.5 3.4M322 347.9c-.3.7-2.2.5-2.7-.1s.3-2.3 1.2-2.5 1.9 1.4 1.5 2.5ZM151.5 234.8q-1-3.7 0-7.9 1 3.6 0 7.9M77.2 29.4q-4.8 1-10.4 0 4.9-1 10.4 0M322.4 177.6c3.6-1-4.5 6.3-4 5.2.4-2.8 2.8-3.4 4-5.2M358.3 450.5c0 1.5-.7 2-.6 2.7-.2 1-.9 1-1 0q-.6-1.5-.1-2.6c.3-.5 1.7-1.4 1.7 0"/><path d="M400.3 217.5c0 1.5-1.2 2.4-.6 1 .6-1.2-1.5-2.5-.3-3.2.9-.5 1.8-.2 2.5-.3q.1 1.9-1.6 2.5"/></g></g></svg>